<?xml version="1.0" encoding="UTF-8" standalone="no"?>
<svg
   width="340"
   height="340"
   version="1.1"
   id="svg1"
   sodipodi:docname="Default_placeholder.svg"
   inkscape:version="1.3.2 (091e20e, 2023-11-25, custom)"
   inkscape:export-filename="Default_placeholder.svg"
   inkscape:export-xdpi="96"
   inkscape:export-ydpi="96"
   xmlns:inkscape="http://www.inkscape.org/namespaces/inkscape"
   xmlns:sodipodi="http://sodipodi.sourceforge.net/DTD/sodipodi-0.dtd"
   xmlns="http://www.w3.org/2000/svg"
   xmlns:svg="http://www.w3.org/2000/svg">
  <defs
     id="defs1" />
  <sodipodi:namedview
     id="namedview1"
     pagecolor="#ffffff"
     bordercolor="#000000"
     borderopacity="0.25"
     inkscape:showpageshadow="2"
     inkscape:pageopacity="0.0"
     inkscape:pagecheckerboard="0"
     inkscape:deskcolor="#d1d1d1"
     inkscape:zoom="2.2852941"
     inkscape:cx="93.423423"
     inkscape:cy="215.07079"
     inkscape:window-width="1920"
     inkscape:window-height="991"
     inkscape:window-x="-9"
     inkscape:window-y="-9"
     inkscape:window-maximized="1"
     inkscape:current-layer="svg1" />
  <path
     fill="#DDD"
     d="m169,.5a169,169 0 1,0 2,0zm0,86a76,76 0 1 1-2,0zM57,287q27-35 67-35h92q40,0 67,35a164,164 0 0,1-226,0"
     id="path1" />
  <path
     style="fill:#ffffff;fill-opacity:1;stroke:#000000;stroke-width:0;stroke-dasharray:none"
     d="m 161.24795,238.06246 c -24.98992,-2.22132 -47.82824,-17.20737 -59.84266,-39.26756 -4.133701,-7.59007 -6.968821,-16.0205 -8.478848,-25.21247 -0.796737,-4.84997 -0.795667,-17.46186 0.0019,-22.22455 2.859085,-17.07339 9.953828,-30.98285 21.762128,-42.66533 12.13202,-12.002755 26.84511,-19.210132 43.77327,-21.442841 4.60665,-0.607585 14.31887,-0.598851 19.04792,0.01713 13.16507,1.714814 25.27091,6.610604 35.98546,14.553081 3.79279,2.81153 11.75904,10.64971 14.4433,14.21112 4.72539,6.26953 8.96351,13.95084 11.35278,20.57617 1.51483,4.20054 3.08927,10.36151 3.79543,14.85197 0.78632,5.00014 0.78962,16.95761 0.006,21.90575 -3.22103,20.3404 -13.60901,37.77976 -29.6693,49.80894 -14.96401,11.20807 -33.63779,16.53655 -52.1774,14.88859 z"
     id="path16" />
  <path
     style="fill:#ffffff;fill-opacity:1;stroke:#000000;stroke-width:0;stroke-dasharray:none"
     d="m 157.18338,331.52288 c -28.88186,-2.45914 -55.94239,-12.0279 -79.674648,-28.17339 -6.265114,-4.26227 -13.802574,-10.26357 -18.497297,-14.72748 l -1.788829,-1.70088 1.662399,-2.05741 c 13.687582,-16.93996 30.0405,-27.34408 48.946505,-31.14095 7.8125,-1.56897 6.9926,-1.54865 62.50205,-1.54865 57.13321,0 54.69084,-0.0726 63.58501,1.88899 11.31304,2.49501 22.76903,8.11018 32.46582,15.91316 4.01995,3.23485 9.81002,8.98712 13.53943,13.45106 l 2.8417,3.40139 -1.13991,1.18636 c -1.87012,1.94632 -8.18632,7.25718 -12.69843,10.67724 -20.77536,15.74722 -44.82529,26.23766 -70.67625,30.82857 -9.41931,1.6728 -14.11592,2.0598 -26.37029,2.17293 -6.29662,0.0581 -12.91039,-0.0188 -14.69726,-0.17094 z"
     id="path17" />
</svg>
