<svg width="439" height="592" xmlns="http://www.w3.org/2000/svg" xmlns:xlink="http://www.w3.org/1999/xlink" xml:space="preserve" overflow="hidden"><defs><linearGradient x1="297" y1="231.5" x2="0" y2="231.5" gradientUnits="userSpaceOnUse" spreadMethod="reflect" id="fill0"><stop offset="0" stop-color="#EEF2FA" stop-opacity="0.501961"/><stop offset="0.74" stop-color="#ABC0E4" stop-opacity="0.501961"/><stop offset="1" stop-color="#C7D5ED" stop-opacity="0.501961"/></linearGradient></defs><g transform="translate(-2163 -1131)"><path d="M0 463 0 0 297 463Z" stroke="#000000" stroke-width="1.14583" stroke-miterlimit="8" fill="url(#fill0)" fill-rule="evenodd" transform="matrix(-1 0 0 1 2461.5 1133.5)"/><path d="M2479.83 1405.78 2599.76 1405.78 2599.76 1409.22 2479.83 1409.22ZM2479.83 1407.5 2489 1416.67 2461.5 1407.5 2489 1398.33Z" fill="#2E141D"/><path d="M2326.22 1614.83 2326.22 1720.87 2322.78 1720.87 2322.78 1614.83ZM2324.5 1614.83 2315.33 1624 2324.5 1596.5 2333.67 1624Z" fill="#2E141D"/><path d="M2265.47 1293.2 2289.7 1293.2 2287.84 1301.44 2285.27 1301.44C2285.19 1300.06 2285.08 1298.98 2284.93 1298.18 2284.78 1297.38 2284.56 1296.81 2284.28 1296.46 2284.01 1296.11 2283.67 1295.87 2283.28 1295.75 2282.88 1295.62 2282.29 1295.56 2281.51 1295.56L2273.23 1295.56 2270.04 1310.17 2275.06 1310.17C2275.85 1310.17 2276.5 1310.06 2277.02 1309.85 2277.54 1309.63 2278.02 1309.24 2278.47 1308.68 2278.92 1308.11 2279.47 1307.15 2280.14 1305.79L2282.58 1305.79 2279.97 1317.12 2277.61 1317.12C2277.61 1315.32 2277.55 1314.18 2277.44 1313.73 2277.32 1313.27 2277.1 1312.96 2276.77 1312.79 2276.43 1312.62 2275.78 1312.53 2274.79 1312.53L2269.53 1312.53 2267.41 1322.04C2267.03 1323.72 2266.84 1325.12 2266.84 1326.23 2266.84 1326.78 2266.93 1327.22 2267.11 1327.53 2267.29 1327.84 2267.56 1328.07 2267.92 1328.22 2268.27 1328.36 2268.89 1328.47 2269.77 1328.54L2269.47 1329.85 2258.44 1329.85 2258.73 1328.54C2259.41 1328.43 2259.92 1328.26 2260.26 1328.01 2260.6 1327.77 2260.89 1327.44 2261.12 1327.01 2261.35 1326.58 2261.57 1326.05 2261.77 1325.44 2261.96 1324.82 2262.26 1323.62 2262.65 1321.85L2267.22 1301.17C2267.61 1299.38 2267.81 1297.97 2267.81 1296.93 2267.81 1296.05 2267.6 1295.44 2267.19 1295.1 2266.78 1294.76 2266.11 1294.57 2265.18 1294.51Z" fill-rule="evenodd"/><text fill="#000000" fill-opacity="0" font-family="Arial,Arial_MSFontService,sans-serif" font-size="36.6577" x="2258.44" y="1325.27">­Юљ╣</text><path d="M2282.45 1276.11 2289.19 1281.94 2289.19 1283.5 2282.45 1289.33 2281.02 1287.71 2285.32 1283.98 2268.94 1283.98 2268.94 1281.46 2285.32 1281.46 2281.02 1277.72Z" fill-rule="evenodd"/><text fill="#000000" fill-opacity="0" font-family="Arial,Arial_MSFontService,sans-serif" font-size="13.2129" x="2268.94" y="1287.67">нд</text><path d="M2299.06 1317.82C2298.75 1317.82 2298.39 1317.83 2297.98 1317.84 2297.58 1317.85 2297.19 1317.86 2296.81 1317.86L2294.49 1328.08 2296.81 1328.08C2299.39 1328.08 2301.37 1327.55 2302.75 1326.5 2304.13 1325.46 2304.82 1323.86 2304.82 1321.73 2304.82 1321.01 2304.71 1320.4 2304.5 1319.9 2304.28 1319.4 2303.94 1319 2303.47 1318.69 2303 1318.39 2302.41 1318.16 2301.69 1318.03 2300.96 1317.89 2300.09 1317.82 2299.06 1317.82ZM2290.82 1315.75 2299.78 1315.75C2301.5 1315.75 2302.93 1315.9 2304.08 1316.2 2305.22 1316.5 2306.14 1316.91 2306.83 1317.44 2307.52 1317.97 2308.01 1318.59 2308.3 1319.31 2308.58 1320.02 2308.73 1320.8 2308.73 1321.63 2308.73 1323.56 2308.14 1325.17 2306.96 1326.45 2305.78 1327.74 2303.99 1328.73 2301.6 1329.4 2301.57 1329.46 2301.56 1329.5 2301.56 1329.54 2301.56 1329.58 2301.56 1329.63 2301.56 1329.68 2302.17 1330.09 2302.66 1330.61 2303.03 1331.24 2303.4 1331.86 2303.73 1332.69 2304 1333.72 2304.31 1334.94 2304.57 1335.93 2304.77 1336.69 2304.97 1337.44 2305.21 1338.04 2305.48 1338.48 2305.74 1338.91 2306.08 1339.23 2306.49 1339.43 2306.9 1339.64 2307.46 1339.79 2308.16 1339.89L2307.89 1341.08 2302.2 1341.08C2301.97 1340.58 2301.74 1339.95 2301.52 1339.22 2301.3 1338.48 2301.1 1337.76 2300.93 1337.06 2300.67 1336.03 2300.46 1335.14 2300.28 1334.39 2300.1 1333.65 2299.93 1333.01 2299.76 1332.5 2299.59 1331.99 2299.42 1331.58 2299.23 1331.27 2299.05 1330.96 2298.84 1330.72 2298.59 1330.54 2298.34 1330.35 2298.04 1330.23 2297.69 1330.18 2297.34 1330.12 2296.91 1330.07 2296.4 1330.05L2294.08 1330.05C2293.92 1330.74 2293.75 1331.48 2293.57 1332.28 2293.39 1333.07 2293.21 1333.84 2293.03 1334.6 2292.86 1335.35 2292.71 1336.06 2292.59 1336.72 2292.48 1337.38 2292.42 1337.91 2292.42 1338.31 2292.42 1338.58 2292.45 1338.81 2292.52 1339 2292.58 1339.19 2292.7 1339.35 2292.86 1339.46 2293.02 1339.58 2293.24 1339.67 2293.52 1339.74 2293.8 1339.8 2294.16 1339.85 2294.59 1339.89L2294.33 1341.08 2285.99 1341.08 2286.21 1339.89C2286.61 1339.83 2286.94 1339.75 2287.19 1339.65 2287.45 1339.55 2287.68 1339.36 2287.88 1339.08 2288.08 1338.8 2288.26 1338.38 2288.43 1337.82 2288.6 1337.26 2288.8 1336.48 2289.02 1335.48L2292.22 1321.24C2292.35 1320.67 2292.45 1320.16 2292.52 1319.72 2292.58 1319.27 2292.61 1318.91 2292.61 1318.62 2292.61 1318.04 2292.47 1317.62 2292.17 1317.37 2291.88 1317.13 2291.33 1317 2290.52 1316.98Z" fill-rule="evenodd"/><text fill="#000000" fill-opacity="0" font-family="Arial,Arial_MSFontService,sans-serif" font-size="25.332" x="2285.99" y="1337.92">­ЮЉЁ</text><path d="M2494.26 1348.32 2518.48 1348.32 2516.63 1356.57 2514.05 1356.57C2513.98 1355.19 2513.87 1354.1 2513.72 1353.3 2513.56 1352.51 2513.35 1351.93 2513.07 1351.58 2512.79 1351.24 2512.46 1351 2512.06 1350.87 2511.67 1350.75 2511.08 1350.69 2510.29 1350.69L2502.02 1350.69 2498.83 1365.29 2503.85 1365.29C2504.64 1365.29 2505.29 1365.19 2505.81 1364.97 2506.33 1364.76 2506.81 1364.37 2507.26 1363.8 2507.71 1363.24 2508.26 1362.28 2508.92 1360.92L2511.37 1360.92 2508.76 1372.25 2506.4 1372.25C2506.4 1370.44 2506.34 1369.31 2506.22 1368.85 2506.11 1368.4 2505.88 1368.08 2505.55 1367.91 2505.22 1367.74 2504.56 1367.66 2503.58 1367.66L2498.31 1367.66 2496.19 1377.16C2495.82 1378.85 2495.63 1380.24 2495.63 1381.35 2495.63 1381.91 2495.72 1382.34 2495.9 1382.66 2496.08 1382.97 2496.35 1383.2 2496.7 1383.34 2497.06 1383.48 2497.68 1383.59 2498.56 1383.66L2498.26 1384.98 2487.22 1384.98 2487.52 1383.66C2488.2 1383.56 2488.71 1383.38 2489.05 1383.14 2489.39 1382.9 2489.68 1382.56 2489.91 1382.13 2490.14 1381.7 2490.36 1381.18 2490.55 1380.56 2490.75 1379.94 2491.05 1378.75 2491.44 1376.98L2496.01 1356.3C2496.4 1354.51 2496.6 1353.09 2496.6 1352.05 2496.6 1351.18 2496.39 1350.57 2495.98 1350.23 2495.57 1349.89 2494.9 1349.69 2493.96 1349.64Z" fill-rule="evenodd"/><text fill="#000000" fill-opacity="0" font-family="Arial,Arial_MSFontService,sans-serif" font-size="36.6577" x="2487.22" y="1380.4">­Юљ╣</text><path d="M2511.23 1331.24 2517.97 1337.07 2517.97 1338.62 2511.23 1344.45 2509.81 1342.84 2514.11 1339.11 2497.72 1339.11 2497.72 1336.58 2514.11 1336.58 2509.81 1332.85Z" fill-rule="evenodd"/><text fill="#000000" fill-opacity="0" font-family="Arial,Arial_MSFontService,sans-serif" font-size="13.2129" x="2497.72" y="1342.8">нд</text><path d="M2525.15 1370.92C2526.51 1370.92 2527.66 1371.07 2528.62 1371.37 2529.57 1371.68 2530.35 1372.09 2530.95 1372.62 2531.55 1373.14 2531.98 1373.76 2532.25 1374.49 2532.52 1375.22 2532.65 1376.01 2532.65 1376.85 2532.65 1377.36 2532.61 1377.83 2532.54 1378.27 2532.47 1378.71 2532.35 1379.14 2532.17 1379.56 2532 1379.98 2531.77 1380.41 2531.48 1380.84 2531.19 1381.27 2530.83 1381.72 2530.4 1382.2 2530.08 1382.62 2529.66 1383.1 2529.14 1383.65 2528.61 1384.2 2528.04 1384.78 2527.43 1385.41 2526.81 1386.03 2526.16 1386.68 2525.48 1387.36 2524.81 1388.04 2524.15 1388.71 2523.51 1389.37 2522.87 1390.04 2522.29 1390.68 2521.75 1391.31 2521.22 1391.93 2520.78 1392.5 2520.44 1393.03L2527.67 1393.03C2528.28 1393.03 2528.77 1393 2529.14 1392.96 2529.5 1392.91 2529.8 1392.81 2530.04 1392.65 2530.28 1392.5 2530.49 1392.26 2530.66 1391.94 2530.83 1391.62 2531.02 1391.18 2531.24 1390.62L2533.06 1390.62C2533 1391.55 2532.93 1392.48 2532.88 1393.42 2532.82 1394.35 2532.76 1395.28 2532.69 1396.21L2516.15 1396.21 2516.15 1395.19C2516.46 1394.49 2516.82 1393.8 2517.24 1393.11 2517.66 1392.43 2518.13 1391.74 2518.65 1391.03 2519.17 1390.33 2519.76 1389.6 2520.42 1388.86 2521.09 1388.11 2521.82 1387.33 2522.63 1386.52 2523.86 1385.3 2524.85 1384.25 2525.62 1383.39 2526.39 1382.52 2526.99 1381.75 2527.44 1381.07 2527.88 1380.4 2528.18 1379.77 2528.34 1379.2 2528.51 1378.62 2528.59 1378.01 2528.59 1377.36 2528.59 1376.7 2528.49 1376.09 2528.31 1375.53 2528.12 1374.97 2527.85 1374.49 2527.49 1374.1 2527.14 1373.71 2526.7 1373.4 2526.16 1373.18 2525.62 1372.96 2524.99 1372.85 2524.29 1372.85 2523.08 1372.85 2522.06 1373.18 2521.24 1373.84 2520.42 1374.49 2519.79 1375.45 2519.33 1376.7L2516.77 1376.7 2516.77 1372.89C2518.44 1372.2 2519.97 1371.7 2521.37 1371.38 2522.77 1371.07 2524.03 1370.92 2525.15 1370.92Z" fill-rule="evenodd"/><text fill="#000000" fill-opacity="0" font-family="Arial,Arial_MSFontService,sans-serif" font-size="25.293" x="2516.15" y="1393.05">2</text><path d="M2188.95 1557.05C2205.6 1561.86 2215.23 1579.14 2210.47 1595.65" stroke="#000000" stroke-width="2.29167" stroke-miterlimit="8" fill="none" fill-rule="evenodd"/><text font-family="Cambria Math,Cambria Math_MSFontService,sans-serif" font-weight="400" font-size="50" transform="matrix(1 0 0 1 2219.79 1567)">­ЮЏ╝</text><path d="M2350.82 1628.84 2375.05 1628.84 2373.19 1637.09 2370.62 1637.09C2370.55 1635.71 2370.43 1634.62 2370.28 1633.82 2370.13 1633.03 2369.91 1632.45 2369.64 1632.11 2369.36 1631.76 2369.02 1631.52 2368.63 1631.39 2368.24 1631.27 2367.64 1631.21 2366.86 1631.21L2358.59 1631.21 2355.39 1645.81 2360.41 1645.81C2361.2 1645.81 2361.85 1645.71 2362.37 1645.49 2362.89 1645.28 2363.37 1644.89 2363.82 1644.32 2364.27 1643.76 2364.82 1642.8 2365.49 1641.44L2367.93 1641.44 2365.33 1652.77 2362.96 1652.77C2362.96 1650.96 2362.9 1649.83 2362.79 1649.37 2362.67 1648.92 2362.45 1648.6 2362.12 1648.43 2361.79 1648.26 2361.13 1648.18 2360.14 1648.18L2354.88 1648.18 2352.76 1657.68C2352.38 1659.37 2352.19 1660.76 2352.19 1661.87 2352.19 1662.43 2352.28 1662.86 2352.46 1663.18 2352.64 1663.49 2352.91 1663.72 2353.27 1663.86 2353.63 1664 2354.24 1664.11 2355.12 1664.18L2354.83 1665.5 2343.79 1665.5 2344.08 1664.18C2344.76 1664.08 2345.27 1663.9 2345.61 1663.66 2345.95 1663.42 2346.24 1663.08 2346.47 1662.65 2346.71 1662.22 2346.92 1661.7 2347.12 1661.08 2347.32 1660.46 2347.61 1659.27 2348 1657.5L2352.57 1636.82C2352.96 1635.03 2353.16 1633.61 2353.16 1632.58 2353.16 1631.7 2352.95 1631.09 2352.54 1630.75 2352.13 1630.41 2351.46 1630.21 2350.53 1630.16Z" fill-rule="evenodd"/><text fill="#000000" fill-opacity="0" font-family="Arial,Arial_MSFontService,sans-serif" font-size="36.6577" x="2343.79" y="1660.92">­Юљ╣</text><path d="M2367.8 1611.76 2374.54 1617.59 2374.54 1619.14 2367.8 1624.97 2366.37 1623.36 2370.67 1619.63 2354.29 1619.63 2354.29 1617.1 2370.67 1617.1 2366.37 1613.37Z" fill-rule="evenodd"/><text fill="#000000" fill-opacity="0" font-family="Arial,Arial_MSFontService,sans-serif" font-size="13.2129" x="2354.29" y="1623.32">нд</text><path d="M2381.96 1651.57 2383.15 1651.57C2383.12 1652.29 2383.1 1652.93 2383.09 1653.5 2383.08 1654.06 2383.07 1654.61 2383.06 1655.15 2383.05 1655.68 2383.05 1656.21 2383.05 1656.73L2383.05 1671.57C2383.05 1671.98 2383.06 1672.32 2383.09 1672.62 2383.11 1672.91 2383.16 1673.16 2383.22 1673.36 2383.27 1673.56 2383.35 1673.73 2383.45 1673.88 2383.55 1674.02 2383.66 1674.14 2383.79 1674.25 2383.95 1674.4 2384.16 1674.53 2384.42 1674.61 2384.68 1674.69 2385.01 1674.77 2385.41 1674.82 2385.82 1674.88 2386.3 1674.93 2386.87 1674.96 2387.43 1674.99 2388.11 1675.02 2388.91 1675.03L2388.91 1676.73 2373.42 1676.73 2373.42 1675.03C2374.19 1675 2374.84 1674.97 2375.37 1674.94 2375.91 1674.91 2376.36 1674.86 2376.74 1674.81 2377.12 1674.75 2377.42 1674.68 2377.65 1674.61 2377.88 1674.54 2378.08 1674.45 2378.24 1674.35 2378.43 1674.23 2378.58 1674.1 2378.71 1673.97 2378.84 1673.83 2378.95 1673.66 2379.03 1673.45 2379.1 1673.24 2379.17 1672.99 2379.21 1672.69 2379.26 1672.39 2379.28 1672.02 2379.28 1671.57L2379.28 1657.57C2379.28 1657.06 2379.18 1656.7 2378.99 1656.49 2378.79 1656.29 2378.51 1656.18 2378.15 1656.18 2377.74 1656.18 2377.14 1656.39 2376.35 1656.81 2375.56 1657.22 2374.53 1657.84 2373.26 1658.66 2373.09 1658.36 2372.94 1658.06 2372.8 1657.76 2372.65 1657.46 2372.5 1657.16 2372.35 1656.85 2373.96 1655.96 2375.56 1655.08 2377.14 1654.2 2378.72 1653.32 2380.33 1652.45 2381.96 1651.57Z" fill-rule="evenodd"/><text fill="#000000" fill-opacity="0" font-family="Arial,Arial_MSFontService,sans-serif" font-size="25.1562" x="2372.35" y="1673.58">1</text><path d="M2286.45 1369.52 2173.64 1303.99 2175.36 1301.01 2288.18 1366.55ZM2287.32 1368.03 2284 1355.5 2303.17 1377.24 2274.79 1371.36Z" fill="#2E141D"/><path d="M2220.81 1419.34C2219.7 1419.34 2218.54 1419.37 2217.32 1419.42L2213.67 1435.69 2216.46 1435.69C2218.63 1435.69 2220.38 1435.47 2221.71 1435.02 2223.04 1434.58 2224.14 1433.88 2224.99 1432.94 2225.84 1432 2226.49 1430.89 2226.96 1429.6 2227.43 1428.31 2227.66 1426.9 2227.66 1425.36 2227.66 1423.28 2227.13 1421.76 2226.07 1420.79 2225.02 1419.82 2223.26 1419.34 2220.81 1419.34ZM2209.56 1416.98 2221.4 1416.98C2223.53 1416.98 2225.28 1417.14 2226.65 1417.47 2228.02 1417.8 2229.15 1418.31 2230.04 1419 2230.92 1419.69 2231.58 1420.57 2232.02 1421.62 2232.46 1422.68 2232.68 1423.91 2232.68 1425.3 2232.68 1427.99 2232.04 1430.31 2230.77 1432.28 2229.5 1434.25 2227.78 1435.7 2225.6 1436.63 2223.43 1437.57 2220.82 1438.03 2217.78 1438.03 2215.95 1438.03 2214.43 1438 2213.21 1437.92L2211.49 1445.82C2211.33 1446.55 2211.22 1447.12 2211.16 1447.51 2211.09 1447.91 2211.04 1448.33 2210.99 1448.79 2210.95 1449.24 2210.93 1449.65 2210.93 1450.01 2210.93 1450.56 2211.02 1451 2211.2 1451.31 2211.38 1451.62 2211.64 1451.85 2212 1452 2212.36 1452.14 2212.98 1452.25 2213.85 1452.32L2213.56 1453.63 2202.52 1453.63 2202.82 1452.32C2203.5 1452.21 2204.01 1452.04 2204.35 1451.79 2204.69 1451.55 2204.97 1451.22 2205.21 1450.79 2205.44 1450.36 2205.65 1449.83 2205.85 1449.22 2206.05 1448.6 2206.34 1447.4 2206.74 1445.63L2211.3 1424.95C2211.7 1423.16 2211.89 1421.75 2211.89 1420.71 2211.89 1419.83 2211.69 1419.22 2211.28 1418.88 2210.86 1418.54 2210.19 1418.35 2209.26 1418.29Z" fill-rule="evenodd"/><text fill="#000000" fill-opacity="0" font-family="Arial,Arial_MSFontService,sans-serif" font-size="36.6577" x="2202.52" y="1449.05">­ЮЉЃ</text></g></svg>