<?xml version="1.0" encoding="utf-8" standalone="no"?>
<!DOCTYPE svg PUBLIC "-//W3C//DTD SVG 1.1//EN"
  "http://www.w3.org/Graphics/SVG/1.1/DTD/svg11.dtd">
<svg xmlns:xlink="http://www.w3.org/1999/xlink" width="720pt" height="432pt" viewBox="0 0 720 432" xmlns="http://www.w3.org/2000/svg" version="1.1">
 <metadata>
  <rdf:RDF xmlns:dc="http://purl.org/dc/elements/1.1/" xmlns:cc="http://creativecommons.org/ns#" xmlns:rdf="http://www.w3.org/1999/02/22-rdf-syntax-ns#">
   <cc:Work>
    <dc:type rdf:resource="http://purl.org/dc/dcmitype/StillImage"/>
    <dc:date>2024-12-20T19:54:14.436383</dc:date>
    <dc:format>image/svg+xml</dc:format>
    <dc:creator>
     <cc:Agent>
      <dc:title>Matplotlib v3.6.3, https://matplotlib.org/</dc:title>
     </cc:Agent>
    </dc:creator>
   </cc:Work>
  </rdf:RDF>
 </metadata>
 <defs>
  <style type="text/css">*{stroke-linejoin: round; stroke-linecap: butt}</style>
 </defs>
 <g id="figure_1">
  <g id="patch_1">
   <path d="M 0 432 
L 720 432 
L 720 0 
L 0 0 
z
" style="fill: #ffffff"/>
  </g>
  <g id="axes_1">
   <g id="patch_2">
    <path d="M 90 384.48 
L 648 384.48 
L 648 51.84 
L 90 51.84 
z
" style="fill: #ffffff"/>
   </g>
   <g id="matplotlib.axis_1">
    <g id="xtick_1">
     <g id="line2d_1">
      <path d="M 185.083585 384.48 
L 185.083585 51.84 
" clip-path="url(#pc9f850b824)" style="fill: none; stroke-dasharray: 2.22,0.96; stroke-dashoffset: 0; stroke: #b0b0b0; stroke-opacity: 0.7; stroke-width: 0.6"/>
     </g>
     <g id="line2d_2">
      <defs>
       <path id="m740792aac9" d="M 0 0 
L 0 -3.5 
" style="stroke: #1a1a1a; stroke-width: 0.8"/>
      </defs>
      <g>
       <use xlink:href="#m740792aac9" x="185.083585" y="384.48" style="fill: #1a1a1a; stroke: #1a1a1a; stroke-width: 0.8"/>
      </g>
     </g>
     <g id="text_1">
      <!-- 1 -->
      <g style="fill: #1a1a1a" transform="translate(181.266085 397.098125) scale(0.12 -0.12)">
       <defs>
        <path id="DejaVuSans-31" d="M 794 531 
L 1825 531 
L 1825 4091 
L 703 3866 
L 703 4441 
L 1819 4666 
L 2450 4666 
L 2450 531 
L 3481 531 
L 3481 0 
L 794 0 
L 794 531 
z
" transform="scale(0.015625)"/>
       </defs>
       <use xlink:href="#DejaVuSans-31"/>
      </g>
     </g>
    </g>
    <g id="xtick_2">
     <g id="line2d_3">
      <path d="M 305.290392 384.48 
L 305.290392 51.84 
" clip-path="url(#pc9f850b824)" style="fill: none; stroke-dasharray: 2.22,0.96; stroke-dashoffset: 0; stroke: #b0b0b0; stroke-opacity: 0.7; stroke-width: 0.6"/>
     </g>
     <g id="line2d_4">
      <g>
       <use xlink:href="#m740792aac9" x="305.290392" y="384.48" style="fill: #1a1a1a; stroke: #1a1a1a; stroke-width: 0.8"/>
      </g>
     </g>
     <g id="text_2">
      <!-- 2 -->
      <g style="fill: #1a1a1a" transform="translate(301.472892 397.098125) scale(0.12 -0.12)">
       <defs>
        <path id="DejaVuSans-32" d="M 1228 531 
L 3431 531 
L 3431 0 
L 469 0 
L 469 531 
Q 828 903 1448 1529 
Q 2069 2156 2228 2338 
Q 2531 2678 2651 2914 
Q 2772 3150 2772 3378 
Q 2772 3750 2511 3984 
Q 2250 4219 1831 4219 
Q 1534 4219 1204 4116 
Q 875 4013 500 3803 
L 500 4441 
Q 881 4594 1212 4672 
Q 1544 4750 1819 4750 
Q 2544 4750 2975 4387 
Q 3406 4025 3406 3419 
Q 3406 3131 3298 2873 
Q 3191 2616 2906 2266 
Q 2828 2175 2409 1742 
Q 1991 1309 1228 531 
z
" transform="scale(0.015625)"/>
       </defs>
       <use xlink:href="#DejaVuSans-32"/>
      </g>
     </g>
    </g>
    <g id="xtick_3">
     <g id="line2d_5">
      <path d="M 425.497199 384.48 
L 425.497199 51.84 
" clip-path="url(#pc9f850b824)" style="fill: none; stroke-dasharray: 2.22,0.96; stroke-dashoffset: 0; stroke: #b0b0b0; stroke-opacity: 0.7; stroke-width: 0.6"/>
     </g>
     <g id="line2d_6">
      <g>
       <use xlink:href="#m740792aac9" x="425.497199" y="384.48" style="fill: #1a1a1a; stroke: #1a1a1a; stroke-width: 0.8"/>
      </g>
     </g>
     <g id="text_3">
      <!-- 3 -->
      <g style="fill: #1a1a1a" transform="translate(421.679699 397.098125) scale(0.12 -0.12)">
       <defs>
        <path id="DejaVuSans-33" d="M 2597 2516 
Q 3050 2419 3304 2112 
Q 3559 1806 3559 1356 
Q 3559 666 3084 287 
Q 2609 -91 1734 -91 
Q 1441 -91 1130 -33 
Q 819 25 488 141 
L 488 750 
Q 750 597 1062 519 
Q 1375 441 1716 441 
Q 2309 441 2620 675 
Q 2931 909 2931 1356 
Q 2931 1769 2642 2001 
Q 2353 2234 1838 2234 
L 1294 2234 
L 1294 2753 
L 1863 2753 
Q 2328 2753 2575 2939 
Q 2822 3125 2822 3475 
Q 2822 3834 2567 4026 
Q 2313 4219 1838 4219 
Q 1578 4219 1281 4162 
Q 984 4106 628 3988 
L 628 4550 
Q 988 4650 1302 4700 
Q 1616 4750 1894 4750 
Q 2613 4750 3031 4423 
Q 3450 4097 3450 3541 
Q 3450 3153 3228 2886 
Q 3006 2619 2597 2516 
z
" transform="scale(0.015625)"/>
       </defs>
       <use xlink:href="#DejaVuSans-33"/>
      </g>
     </g>
    </g>
    <g id="xtick_4">
     <g id="line2d_7">
      <path d="M 545.704007 384.48 
L 545.704007 51.84 
" clip-path="url(#pc9f850b824)" style="fill: none; stroke-dasharray: 2.22,0.96; stroke-dashoffset: 0; stroke: #b0b0b0; stroke-opacity: 0.7; stroke-width: 0.6"/>
     </g>
     <g id="line2d_8">
      <g>
       <use xlink:href="#m740792aac9" x="545.704007" y="384.48" style="fill: #1a1a1a; stroke: #1a1a1a; stroke-width: 0.8"/>
      </g>
     </g>
     <g id="text_4">
      <!-- 4 -->
      <g style="fill: #1a1a1a" transform="translate(541.886507 397.098125) scale(0.12 -0.12)">
       <defs>
        <path id="DejaVuSans-34" d="M 2419 4116 
L 825 1625 
L 2419 1625 
L 2419 4116 
z
M 2253 4666 
L 3047 4666 
L 3047 1625 
L 3713 1625 
L 3713 1100 
L 3047 1100 
L 3047 0 
L 2419 0 
L 2419 1100 
L 313 1100 
L 313 1709 
L 2253 4666 
z
" transform="scale(0.015625)"/>
       </defs>
       <use xlink:href="#DejaVuSans-34"/>
      </g>
     </g>
    </g>
    <g id="text_5">
     <!-- Квадрат скорости $v^2$ (МэВ/масса) -->
     <g style="fill: #1a1a1a" transform="translate(263.46 414.51375) scale(0.12 -0.12)">
      <defs>
       <path id="DejaVuSans-41a" d="M 628 4666 
L 1259 4666 
L 1259 2359 
L 3516 4666 
L 4325 4666 
L 2522 2822 
L 4419 0 
L 3731 0 
L 2113 2403 
L 1259 1531 
L 1259 0 
L 628 0 
L 628 4666 
z
" transform="scale(0.015625)"/>
       <path id="DejaVuSans-432" d="M 1156 1613 
L 1156 459 
L 1975 459 
Q 2369 459 2575 607 
Q 2781 756 2781 1038 
Q 2781 1319 2575 1466 
Q 2369 1613 1975 1613 
L 1156 1613 
z
M 1156 3041 
L 1156 2072 
L 1913 2072 
Q 2238 2072 2444 2201 
Q 2650 2331 2650 2563 
Q 2650 2794 2444 2917 
Q 2238 3041 1913 3041 
L 1156 3041 
z
M 581 3500 
L 1950 3500 
Q 2566 3500 2897 3275 
Q 3228 3050 3228 2634 
Q 3228 2313 3059 2123 
Q 2891 1934 2559 1888 
Q 2956 1813 3175 1575 
Q 3394 1338 3394 981 
Q 3394 513 3033 256 
Q 2672 0 2003 0 
L 581 0 
L 581 3500 
z
" transform="scale(0.015625)"/>
       <path id="DejaVuSans-430" d="M 2194 1759 
Q 1497 1759 1228 1600 
Q 959 1441 959 1056 
Q 959 750 1161 570 
Q 1363 391 1709 391 
Q 2188 391 2477 730 
Q 2766 1069 2766 1631 
L 2766 1759 
L 2194 1759 
z
M 3341 1997 
L 3341 0 
L 2766 0 
L 2766 531 
Q 2569 213 2275 61 
Q 1981 -91 1556 -91 
Q 1019 -91 701 211 
Q 384 513 384 1019 
Q 384 1609 779 1909 
Q 1175 2209 1959 2209 
L 2766 2209 
L 2766 2266 
Q 2766 2663 2505 2880 
Q 2244 3097 1772 3097 
Q 1472 3097 1187 3025 
Q 903 2953 641 2809 
L 641 3341 
Q 956 3463 1253 3523 
Q 1550 3584 1831 3584 
Q 2591 3584 2966 3190 
Q 3341 2797 3341 1997 
z
" transform="scale(0.015625)"/>
       <path id="DejaVuSans-434" d="M 1384 459 
L 3053 459 
L 3053 3041 
L 1844 3041 
L 1844 2603 
Q 1844 1316 1475 628 
L 1384 459 
z
M 550 459 
Q 834 584 959 850 
Q 1266 1509 1266 2838 
L 1266 3500 
L 3631 3500 
L 3631 459 
L 4091 459 
L 4091 -884 
L 3631 -884 
L 3631 0 
L 794 0 
L 794 -884 
L 334 -884 
L 334 459 
L 550 459 
z
" transform="scale(0.015625)"/>
       <path id="DejaVuSans-440" d="M 1159 525 
L 1159 -1331 
L 581 -1331 
L 581 3500 
L 1159 3500 
L 1159 2969 
Q 1341 3281 1617 3432 
Q 1894 3584 2278 3584 
Q 2916 3584 3314 3078 
Q 3713 2572 3713 1747 
Q 3713 922 3314 415 
Q 2916 -91 2278 -91 
Q 1894 -91 1617 61 
Q 1341 213 1159 525 
z
M 3116 1747 
Q 3116 2381 2855 2742 
Q 2594 3103 2138 3103 
Q 1681 3103 1420 2742 
Q 1159 2381 1159 1747 
Q 1159 1113 1420 752 
Q 1681 391 2138 391 
Q 2594 391 2855 752 
Q 3116 1113 3116 1747 
z
" transform="scale(0.015625)"/>
       <path id="DejaVuSans-442" d="M 188 3500 
L 3541 3500 
L 3541 3041 
L 2147 3041 
L 2147 0 
L 1581 0 
L 1581 3041 
L 188 3041 
L 188 3500 
z
" transform="scale(0.015625)"/>
       <path id="DejaVuSans-20" transform="scale(0.015625)"/>
       <path id="DejaVuSans-441" d="M 3122 3366 
L 3122 2828 
Q 2878 2963 2633 3030 
Q 2388 3097 2138 3097 
Q 1578 3097 1268 2742 
Q 959 2388 959 1747 
Q 959 1106 1268 751 
Q 1578 397 2138 397 
Q 2388 397 2633 464 
Q 2878 531 3122 666 
L 3122 134 
Q 2881 22 2623 -34 
Q 2366 -91 2075 -91 
Q 1284 -91 818 406 
Q 353 903 353 1747 
Q 353 2603 823 3093 
Q 1294 3584 2113 3584 
Q 2378 3584 2631 3529 
Q 2884 3475 3122 3366 
z
" transform="scale(0.015625)"/>
       <path id="DejaVuSans-43a" d="M 581 3500 
L 1153 3500 
L 1153 1856 
L 2775 3500 
L 3481 3500 
L 2144 2147 
L 3653 0 
L 3009 0 
L 1769 1766 
L 1153 1141 
L 1153 0 
L 581 0 
L 581 3500 
z
" transform="scale(0.015625)"/>
       <path id="DejaVuSans-43e" d="M 1959 3097 
Q 1497 3097 1228 2736 
Q 959 2375 959 1747 
Q 959 1119 1226 758 
Q 1494 397 1959 397 
Q 2419 397 2687 759 
Q 2956 1122 2956 1747 
Q 2956 2369 2687 2733 
Q 2419 3097 1959 3097 
z
M 1959 3584 
Q 2709 3584 3137 3096 
Q 3566 2609 3566 1747 
Q 3566 888 3137 398 
Q 2709 -91 1959 -91 
Q 1206 -91 779 398 
Q 353 888 353 1747 
Q 353 2609 779 3096 
Q 1206 3584 1959 3584 
z
" transform="scale(0.015625)"/>
       <path id="DejaVuSans-438" d="M 3578 3500 
L 3578 0 
L 3006 0 
L 3006 2809 
L 1319 0 
L 581 0 
L 581 3500 
L 1153 3500 
L 1153 697 
L 2838 3500 
L 3578 3500 
z
" transform="scale(0.015625)"/>
       <path id="DejaVuSans-Oblique-76" d="M 459 3500 
L 1069 3500 
L 1581 525 
L 3256 3500 
L 3866 3500 
L 1875 0 
L 1100 0 
L 459 3500 
z
" transform="scale(0.015625)"/>
       <path id="DejaVuSans-28" d="M 1984 4856 
Q 1566 4138 1362 3434 
Q 1159 2731 1159 2009 
Q 1159 1288 1364 580 
Q 1569 -128 1984 -844 
L 1484 -844 
Q 1016 -109 783 600 
Q 550 1309 550 2009 
Q 550 2706 781 3412 
Q 1013 4119 1484 4856 
L 1984 4856 
z
" transform="scale(0.015625)"/>
       <path id="DejaVuSans-41c" d="M 628 4666 
L 1569 4666 
L 2759 1491 
L 3956 4666 
L 4897 4666 
L 4897 0 
L 4281 0 
L 4281 4097 
L 3078 897 
L 2444 897 
L 1241 4097 
L 1241 0 
L 628 0 
L 628 4666 
z
" transform="scale(0.015625)"/>
       <path id="DejaVuSans-44d" d="M 353 666 
Q 847 397 1338 397 
Q 1797 397 2125 664 
Q 2453 931 2513 1613 
L 738 1613 
L 738 2072 
L 2494 2072 
Q 2456 2400 2207 2748 
Q 1959 3097 1338 3097 
Q 856 3097 353 2828 
L 353 3366 
Q 844 3584 1363 3584 
Q 2181 3584 2651 3089 
Q 3122 2594 3122 1747 
Q 3122 903 2664 406 
Q 2206 -91 1403 -91 
Q 813 -91 353 134 
L 353 666 
z
" transform="scale(0.015625)"/>
       <path id="DejaVuSans-412" d="M 1259 2228 
L 1259 519 
L 2272 519 
Q 2781 519 3026 730 
Q 3272 941 3272 1375 
Q 3272 1813 3026 2020 
Q 2781 2228 2272 2228 
L 1259 2228 
z
M 1259 4147 
L 1259 2741 
L 2194 2741 
Q 2656 2741 2882 2914 
Q 3109 3088 3109 3444 
Q 3109 3797 2882 3972 
Q 2656 4147 2194 4147 
L 1259 4147 
z
M 628 4666 
L 2241 4666 
Q 2963 4666 3353 4366 
Q 3744 4066 3744 3513 
Q 3744 3084 3544 2831 
Q 3344 2578 2956 2516 
Q 3422 2416 3680 2098 
Q 3938 1781 3938 1306 
Q 3938 681 3513 340 
Q 3088 0 2303 0 
L 628 0 
L 628 4666 
z
" transform="scale(0.015625)"/>
       <path id="DejaVuSans-2f" d="M 1625 4666 
L 2156 4666 
L 531 -594 
L 0 -594 
L 1625 4666 
z
" transform="scale(0.015625)"/>
       <path id="DejaVuSans-43c" d="M 581 3500 
L 1422 3500 
L 2416 1156 
L 3413 3500 
L 4247 3500 
L 4247 0 
L 3669 0 
L 3669 2950 
L 2703 672 
L 2128 672 
L 1159 2950 
L 1159 0 
L 581 0 
L 581 3500 
z
" transform="scale(0.015625)"/>
       <path id="DejaVuSans-29" d="M 513 4856 
L 1013 4856 
Q 1481 4119 1714 3412 
Q 1947 2706 1947 2009 
Q 1947 1309 1714 600 
Q 1481 -109 1013 -844 
L 513 -844 
Q 928 -128 1133 580 
Q 1338 1288 1338 2009 
Q 1338 2731 1133 3434 
Q 928 4138 513 4856 
z
" transform="scale(0.015625)"/>
      </defs>
      <use xlink:href="#DejaVuSans-41a" transform="translate(0 0.765625)"/>
      <use xlink:href="#DejaVuSans-432" transform="translate(70.996094 0.765625)"/>
      <use xlink:href="#DejaVuSans-430" transform="translate(129.931641 0.765625)"/>
      <use xlink:href="#DejaVuSans-434" transform="translate(191.210938 0.765625)"/>
      <use xlink:href="#DejaVuSans-440" transform="translate(260.351562 0.765625)"/>
      <use xlink:href="#DejaVuSans-430" transform="translate(323.828125 0.765625)"/>
      <use xlink:href="#DejaVuSans-442" transform="translate(385.107422 0.765625)"/>
      <use xlink:href="#DejaVuSans-20" transform="translate(443.359375 0.765625)"/>
      <use xlink:href="#DejaVuSans-441" transform="translate(475.146484 0.765625)"/>
      <use xlink:href="#DejaVuSans-43a" transform="translate(530.126953 0.765625)"/>
      <use xlink:href="#DejaVuSans-43e" transform="translate(590.527344 0.765625)"/>
      <use xlink:href="#DejaVuSans-440" transform="translate(651.708984 0.765625)"/>
      <use xlink:href="#DejaVuSans-43e" transform="translate(715.185547 0.765625)"/>
      <use xlink:href="#DejaVuSans-441" transform="translate(776.367188 0.765625)"/>
      <use xlink:href="#DejaVuSans-442" transform="translate(831.347656 0.765625)"/>
      <use xlink:href="#DejaVuSans-438" transform="translate(889.599609 0.765625)"/>
      <use xlink:href="#DejaVuSans-20" transform="translate(954.589844 0.765625)"/>
      <use xlink:href="#DejaVuSans-Oblique-76" transform="translate(986.376953 0.765625)"/>
      <use xlink:href="#DejaVuSans-32" transform="translate(1050.022786 39.046875) scale(0.7)"/>
      <use xlink:href="#DejaVuSans-20" transform="translate(1097.293294 0.765625)"/>
      <use xlink:href="#DejaVuSans-28" transform="translate(1129.080404 0.765625)"/>
      <use xlink:href="#DejaVuSans-41c" transform="translate(1168.094076 0.765625)"/>
      <use xlink:href="#DejaVuSans-44d" transform="translate(1254.373372 0.765625)"/>
      <use xlink:href="#DejaVuSans-412" transform="translate(1309.256185 0.765625)"/>
      <use xlink:href="#DejaVuSans-2f" transform="translate(1377.859701 0.765625)"/>
      <use xlink:href="#DejaVuSans-43c" transform="translate(1411.551107 0.765625)"/>
      <use xlink:href="#DejaVuSans-430" transform="translate(1486.99056 0.765625)"/>
      <use xlink:href="#DejaVuSans-441" transform="translate(1548.269857 0.765625)"/>
      <use xlink:href="#DejaVuSans-441" transform="translate(1603.250326 0.765625)"/>
      <use xlink:href="#DejaVuSans-430" transform="translate(1658.230794 0.765625)"/>
      <use xlink:href="#DejaVuSans-29" transform="translate(1719.510091 0.765625)"/>
     </g>
    </g>
   </g>
   <g id="matplotlib.axis_2">
    <g id="ytick_1">
     <g id="line2d_9">
      <path d="M 90 355.683618 
L 648 355.683618 
" clip-path="url(#pc9f850b824)" style="fill: none; stroke-dasharray: 2.22,0.96; stroke-dashoffset: 0; stroke: #b0b0b0; stroke-opacity: 0.7; stroke-width: 0.6"/>
     </g>
     <g id="line2d_10">
      <defs>
       <path id="m275692dc96" d="M 0 0 
L 3.5 0 
" style="stroke: #1a1a1a; stroke-width: 0.8"/>
      </defs>
      <g>
       <use xlink:href="#m275692dc96" x="90" y="355.683618" style="fill: #1a1a1a; stroke: #1a1a1a; stroke-width: 0.8"/>
      </g>
     </g>
     <g id="text_6">
      <!-- 0.05 -->
      <g style="fill: #1a1a1a" transform="translate(59.78125 360.242681) scale(0.12 -0.12)">
       <defs>
        <path id="DejaVuSans-30" d="M 2034 4250 
Q 1547 4250 1301 3770 
Q 1056 3291 1056 2328 
Q 1056 1369 1301 889 
Q 1547 409 2034 409 
Q 2525 409 2770 889 
Q 3016 1369 3016 2328 
Q 3016 3291 2770 3770 
Q 2525 4250 2034 4250 
z
M 2034 4750 
Q 2819 4750 3233 4129 
Q 3647 3509 3647 2328 
Q 3647 1150 3233 529 
Q 2819 -91 2034 -91 
Q 1250 -91 836 529 
Q 422 1150 422 2328 
Q 422 3509 836 4129 
Q 1250 4750 2034 4750 
z
" transform="scale(0.015625)"/>
        <path id="DejaVuSans-2e" d="M 684 794 
L 1344 794 
L 1344 0 
L 684 0 
L 684 794 
z
" transform="scale(0.015625)"/>
        <path id="DejaVuSans-35" d="M 691 4666 
L 3169 4666 
L 3169 4134 
L 1269 4134 
L 1269 2991 
Q 1406 3038 1543 3061 
Q 1681 3084 1819 3084 
Q 2600 3084 3056 2656 
Q 3513 2228 3513 1497 
Q 3513 744 3044 326 
Q 2575 -91 1722 -91 
Q 1428 -91 1123 -41 
Q 819 9 494 109 
L 494 744 
Q 775 591 1075 516 
Q 1375 441 1709 441 
Q 2250 441 2565 725 
Q 2881 1009 2881 1497 
Q 2881 1984 2565 2268 
Q 2250 2553 1709 2553 
Q 1456 2553 1204 2497 
Q 953 2441 691 2322 
L 691 4666 
z
" transform="scale(0.015625)"/>
       </defs>
       <use xlink:href="#DejaVuSans-30"/>
       <use xlink:href="#DejaVuSans-2e" x="63.623047"/>
       <use xlink:href="#DejaVuSans-30" x="95.410156"/>
       <use xlink:href="#DejaVuSans-35" x="159.033203"/>
      </g>
     </g>
    </g>
    <g id="ytick_2">
     <g id="line2d_11">
      <path d="M 90 317.693668 
L 648 317.693668 
" clip-path="url(#pc9f850b824)" style="fill: none; stroke-dasharray: 2.22,0.96; stroke-dashoffset: 0; stroke: #b0b0b0; stroke-opacity: 0.7; stroke-width: 0.6"/>
     </g>
     <g id="line2d_12">
      <g>
       <use xlink:href="#m275692dc96" x="90" y="317.693668" style="fill: #1a1a1a; stroke: #1a1a1a; stroke-width: 0.8"/>
      </g>
     </g>
     <g id="text_7">
      <!-- 0.06 -->
      <g style="fill: #1a1a1a" transform="translate(59.78125 322.252731) scale(0.12 -0.12)">
       <defs>
        <path id="DejaVuSans-36" d="M 2113 2584 
Q 1688 2584 1439 2293 
Q 1191 2003 1191 1497 
Q 1191 994 1439 701 
Q 1688 409 2113 409 
Q 2538 409 2786 701 
Q 3034 994 3034 1497 
Q 3034 2003 2786 2293 
Q 2538 2584 2113 2584 
z
M 3366 4563 
L 3366 3988 
Q 3128 4100 2886 4159 
Q 2644 4219 2406 4219 
Q 1781 4219 1451 3797 
Q 1122 3375 1075 2522 
Q 1259 2794 1537 2939 
Q 1816 3084 2150 3084 
Q 2853 3084 3261 2657 
Q 3669 2231 3669 1497 
Q 3669 778 3244 343 
Q 2819 -91 2113 -91 
Q 1303 -91 875 529 
Q 447 1150 447 2328 
Q 447 3434 972 4092 
Q 1497 4750 2381 4750 
Q 2619 4750 2861 4703 
Q 3103 4656 3366 4563 
z
" transform="scale(0.015625)"/>
       </defs>
       <use xlink:href="#DejaVuSans-30"/>
       <use xlink:href="#DejaVuSans-2e" x="63.623047"/>
       <use xlink:href="#DejaVuSans-30" x="95.410156"/>
       <use xlink:href="#DejaVuSans-36" x="159.033203"/>
      </g>
     </g>
    </g>
    <g id="ytick_3">
     <g id="line2d_13">
      <path d="M 90 279.703719 
L 648 279.703719 
" clip-path="url(#pc9f850b824)" style="fill: none; stroke-dasharray: 2.22,0.96; stroke-dashoffset: 0; stroke: #b0b0b0; stroke-opacity: 0.7; stroke-width: 0.6"/>
     </g>
     <g id="line2d_14">
      <g>
       <use xlink:href="#m275692dc96" x="90" y="279.703719" style="fill: #1a1a1a; stroke: #1a1a1a; stroke-width: 0.8"/>
      </g>
     </g>
     <g id="text_8">
      <!-- 0.07 -->
      <g style="fill: #1a1a1a" transform="translate(59.78125 284.262781) scale(0.12 -0.12)">
       <defs>
        <path id="DejaVuSans-37" d="M 525 4666 
L 3525 4666 
L 3525 4397 
L 1831 0 
L 1172 0 
L 2766 4134 
L 525 4134 
L 525 4666 
z
" transform="scale(0.015625)"/>
       </defs>
       <use xlink:href="#DejaVuSans-30"/>
       <use xlink:href="#DejaVuSans-2e" x="63.623047"/>
       <use xlink:href="#DejaVuSans-30" x="95.410156"/>
       <use xlink:href="#DejaVuSans-37" x="159.033203"/>
      </g>
     </g>
    </g>
    <g id="ytick_4">
     <g id="line2d_15">
      <path d="M 90 241.713769 
L 648 241.713769 
" clip-path="url(#pc9f850b824)" style="fill: none; stroke-dasharray: 2.22,0.96; stroke-dashoffset: 0; stroke: #b0b0b0; stroke-opacity: 0.7; stroke-width: 0.6"/>
     </g>
     <g id="line2d_16">
      <g>
       <use xlink:href="#m275692dc96" x="90" y="241.713769" style="fill: #1a1a1a; stroke: #1a1a1a; stroke-width: 0.8"/>
      </g>
     </g>
     <g id="text_9">
      <!-- 0.08 -->
      <g style="fill: #1a1a1a" transform="translate(59.78125 246.272831) scale(0.12 -0.12)">
       <defs>
        <path id="DejaVuSans-38" d="M 2034 2216 
Q 1584 2216 1326 1975 
Q 1069 1734 1069 1313 
Q 1069 891 1326 650 
Q 1584 409 2034 409 
Q 2484 409 2743 651 
Q 3003 894 3003 1313 
Q 3003 1734 2745 1975 
Q 2488 2216 2034 2216 
z
M 1403 2484 
Q 997 2584 770 2862 
Q 544 3141 544 3541 
Q 544 4100 942 4425 
Q 1341 4750 2034 4750 
Q 2731 4750 3128 4425 
Q 3525 4100 3525 3541 
Q 3525 3141 3298 2862 
Q 3072 2584 2669 2484 
Q 3125 2378 3379 2068 
Q 3634 1759 3634 1313 
Q 3634 634 3220 271 
Q 2806 -91 2034 -91 
Q 1263 -91 848 271 
Q 434 634 434 1313 
Q 434 1759 690 2068 
Q 947 2378 1403 2484 
z
M 1172 3481 
Q 1172 3119 1398 2916 
Q 1625 2713 2034 2713 
Q 2441 2713 2670 2916 
Q 2900 3119 2900 3481 
Q 2900 3844 2670 4047 
Q 2441 4250 2034 4250 
Q 1625 4250 1398 4047 
Q 1172 3844 1172 3481 
z
" transform="scale(0.015625)"/>
       </defs>
       <use xlink:href="#DejaVuSans-30"/>
       <use xlink:href="#DejaVuSans-2e" x="63.623047"/>
       <use xlink:href="#DejaVuSans-30" x="95.410156"/>
       <use xlink:href="#DejaVuSans-38" x="159.033203"/>
      </g>
     </g>
    </g>
    <g id="ytick_5">
     <g id="line2d_17">
      <path d="M 90 203.723819 
L 648 203.723819 
" clip-path="url(#pc9f850b824)" style="fill: none; stroke-dasharray: 2.22,0.96; stroke-dashoffset: 0; stroke: #b0b0b0; stroke-opacity: 0.7; stroke-width: 0.6"/>
     </g>
     <g id="line2d_18">
      <g>
       <use xlink:href="#m275692dc96" x="90" y="203.723819" style="fill: #1a1a1a; stroke: #1a1a1a; stroke-width: 0.8"/>
      </g>
     </g>
     <g id="text_10">
      <!-- 0.09 -->
      <g style="fill: #1a1a1a" transform="translate(59.78125 208.282882) scale(0.12 -0.12)">
       <defs>
        <path id="DejaVuSans-39" d="M 703 97 
L 703 672 
Q 941 559 1184 500 
Q 1428 441 1663 441 
Q 2288 441 2617 861 
Q 2947 1281 2994 2138 
Q 2813 1869 2534 1725 
Q 2256 1581 1919 1581 
Q 1219 1581 811 2004 
Q 403 2428 403 3163 
Q 403 3881 828 4315 
Q 1253 4750 1959 4750 
Q 2769 4750 3195 4129 
Q 3622 3509 3622 2328 
Q 3622 1225 3098 567 
Q 2575 -91 1691 -91 
Q 1453 -91 1209 -44 
Q 966 3 703 97 
z
M 1959 2075 
Q 2384 2075 2632 2365 
Q 2881 2656 2881 3163 
Q 2881 3666 2632 3958 
Q 2384 4250 1959 4250 
Q 1534 4250 1286 3958 
Q 1038 3666 1038 3163 
Q 1038 2656 1286 2365 
Q 1534 2075 1959 2075 
z
" transform="scale(0.015625)"/>
       </defs>
       <use xlink:href="#DejaVuSans-30"/>
       <use xlink:href="#DejaVuSans-2e" x="63.623047"/>
       <use xlink:href="#DejaVuSans-30" x="95.410156"/>
       <use xlink:href="#DejaVuSans-39" x="159.033203"/>
      </g>
     </g>
    </g>
    <g id="ytick_6">
     <g id="line2d_19">
      <path d="M 90 165.733869 
L 648 165.733869 
" clip-path="url(#pc9f850b824)" style="fill: none; stroke-dasharray: 2.22,0.96; stroke-dashoffset: 0; stroke: #b0b0b0; stroke-opacity: 0.7; stroke-width: 0.6"/>
     </g>
     <g id="line2d_20">
      <g>
       <use xlink:href="#m275692dc96" x="90" y="165.733869" style="fill: #1a1a1a; stroke: #1a1a1a; stroke-width: 0.8"/>
      </g>
     </g>
     <g id="text_11">
      <!-- 0.10 -->
      <g style="fill: #1a1a1a" transform="translate(59.78125 170.292932) scale(0.12 -0.12)">
       <use xlink:href="#DejaVuSans-30"/>
       <use xlink:href="#DejaVuSans-2e" x="63.623047"/>
       <use xlink:href="#DejaVuSans-31" x="95.410156"/>
       <use xlink:href="#DejaVuSans-30" x="159.033203"/>
      </g>
     </g>
    </g>
    <g id="ytick_7">
     <g id="line2d_21">
      <path d="M 90 127.74392 
L 648 127.74392 
" clip-path="url(#pc9f850b824)" style="fill: none; stroke-dasharray: 2.22,0.96; stroke-dashoffset: 0; stroke: #b0b0b0; stroke-opacity: 0.7; stroke-width: 0.6"/>
     </g>
     <g id="line2d_22">
      <g>
       <use xlink:href="#m275692dc96" x="90" y="127.74392" style="fill: #1a1a1a; stroke: #1a1a1a; stroke-width: 0.8"/>
      </g>
     </g>
     <g id="text_12">
      <!-- 0.11 -->
      <g style="fill: #1a1a1a" transform="translate(59.78125 132.302982) scale(0.12 -0.12)">
       <use xlink:href="#DejaVuSans-30"/>
       <use xlink:href="#DejaVuSans-2e" x="63.623047"/>
       <use xlink:href="#DejaVuSans-31" x="95.410156"/>
       <use xlink:href="#DejaVuSans-31" x="159.033203"/>
      </g>
     </g>
    </g>
    <g id="ytick_8">
     <g id="line2d_23">
      <path d="M 90 89.75397 
L 648 89.75397 
" clip-path="url(#pc9f850b824)" style="fill: none; stroke-dasharray: 2.22,0.96; stroke-dashoffset: 0; stroke: #b0b0b0; stroke-opacity: 0.7; stroke-width: 0.6"/>
     </g>
     <g id="line2d_24">
      <g>
       <use xlink:href="#m275692dc96" x="90" y="89.75397" style="fill: #1a1a1a; stroke: #1a1a1a; stroke-width: 0.8"/>
      </g>
     </g>
     <g id="text_13">
      <!-- 0.12 -->
      <g style="fill: #1a1a1a" transform="translate(59.78125 94.313032) scale(0.12 -0.12)">
       <use xlink:href="#DejaVuSans-30"/>
       <use xlink:href="#DejaVuSans-2e" x="63.623047"/>
       <use xlink:href="#DejaVuSans-31" x="95.410156"/>
       <use xlink:href="#DejaVuSans-32" x="159.033203"/>
      </g>
     </g>
    </g>
    <g id="text_14">
     <!-- Сила торможения $F$ (Ньютоны) -->
     <g style="fill: #1a1a1a" transform="translate(53.26125 316.26) rotate(-90) scale(0.12 -0.12)">
      <defs>
       <path id="DejaVuSans-421" d="M 4122 4306 
L 4122 3641 
Q 3803 3938 3442 4084 
Q 3081 4231 2675 4231 
Q 1875 4231 1450 3742 
Q 1025 3253 1025 2328 
Q 1025 1406 1450 917 
Q 1875 428 2675 428 
Q 3081 428 3442 575 
Q 3803 722 4122 1019 
L 4122 359 
Q 3791 134 3420 21 
Q 3050 -91 2638 -91 
Q 1578 -91 968 557 
Q 359 1206 359 2328 
Q 359 3453 968 4101 
Q 1578 4750 2638 4750 
Q 3056 4750 3426 4639 
Q 3797 4528 4122 4306 
z
" transform="scale(0.015625)"/>
       <path id="DejaVuSans-43b" d="M 238 0 
L 238 478 
Q 806 566 981 959 
Q 1194 1513 1194 2928 
L 1194 3500 
L 3559 3500 
L 3559 0 
L 2984 0 
L 2984 3041 
L 1769 3041 
L 1769 2694 
Q 1769 1344 1494 738 
Q 1200 91 238 0 
z
" transform="scale(0.015625)"/>
       <path id="DejaVuSans-436" d="M 2597 3500 
L 3169 3500 
L 3169 1856 
L 4697 3500 
L 5366 3500 
L 4109 2153 
L 5547 0 
L 4931 0 
L 3753 1769 
L 3169 1141 
L 3169 0 
L 2597 0 
L 2597 1141 
L 2013 1769 
L 834 0 
L 219 0 
L 1656 2153 
L 400 3500 
L 1069 3500 
L 2597 1856 
L 2597 3500 
z
" transform="scale(0.015625)"/>
       <path id="DejaVuSans-435" d="M 3597 1894 
L 3597 1613 
L 953 1613 
Q 991 1019 1311 708 
Q 1631 397 2203 397 
Q 2534 397 2845 478 
Q 3156 559 3463 722 
L 3463 178 
Q 3153 47 2828 -22 
Q 2503 -91 2169 -91 
Q 1331 -91 842 396 
Q 353 884 353 1716 
Q 353 2575 817 3079 
Q 1281 3584 2069 3584 
Q 2775 3584 3186 3129 
Q 3597 2675 3597 1894 
z
M 3022 2063 
Q 3016 2534 2758 2815 
Q 2500 3097 2075 3097 
Q 1594 3097 1305 2825 
Q 1016 2553 972 2059 
L 3022 2063 
z
" transform="scale(0.015625)"/>
       <path id="DejaVuSans-43d" d="M 581 3500 
L 1159 3500 
L 1159 2072 
L 3025 2072 
L 3025 3500 
L 3603 3500 
L 3603 0 
L 3025 0 
L 3025 1613 
L 1159 1613 
L 1159 0 
L 581 0 
L 581 3500 
z
" transform="scale(0.015625)"/>
       <path id="DejaVuSans-44f" d="M 1181 2491 
Q 1181 2231 1381 2084 
Q 1581 1938 1953 1938 
L 2728 1938 
L 2728 3041 
L 1953 3041 
Q 1581 3041 1381 2897 
Q 1181 2753 1181 2491 
z
M 363 0 
L 1431 1534 
Q 1069 1616 828 1830 
Q 588 2044 588 2491 
Q 588 2997 923 3248 
Q 1259 3500 1938 3500 
L 3306 3500 
L 3306 0 
L 2728 0 
L 2728 1478 
L 2013 1478 
L 981 0 
L 363 0 
z
" transform="scale(0.015625)"/>
       <path id="DejaVuSans-Oblique-46" d="M 1081 4666 
L 3756 4666 
L 3653 4134 
L 1606 4134 
L 1338 2759 
L 3188 2759 
L 3084 2228 
L 1234 2228 
L 800 0 
L 172 0 
L 1081 4666 
z
" transform="scale(0.015625)"/>
       <path id="DejaVuSans-41d" d="M 628 4666 
L 1259 4666 
L 1259 2753 
L 3553 2753 
L 3553 4666 
L 4184 4666 
L 4184 0 
L 3553 0 
L 3553 2222 
L 1259 2222 
L 1259 0 
L 628 0 
L 628 4666 
z
" transform="scale(0.015625)"/>
       <path id="DejaVuSans-44c" d="M 2781 1038 
Q 2781 1319 2576 1466 
Q 2372 1613 1978 1613 
L 1159 1613 
L 1159 459 
L 1978 459 
Q 2372 459 2576 607 
Q 2781 756 2781 1038 
z
M 581 3500 
L 1159 3500 
L 1159 2072 
L 2003 2072 
Q 2672 2072 3033 1817 
Q 3394 1563 3394 1038 
Q 3394 513 3033 256 
Q 2672 0 2003 0 
L 581 0 
L 581 3500 
z
" transform="scale(0.015625)"/>
       <path id="DejaVuSans-44e" d="M 3431 3097 
Q 2969 3097 2700 2736 
Q 2431 2375 2431 1747 
Q 2431 1119 2698 758 
Q 2966 397 3431 397 
Q 3891 397 4159 759 
Q 4428 1122 4428 1747 
Q 4428 2369 4159 2733 
Q 3891 3097 3431 3097 
z
M 1844 2103 
Q 1903 2697 2292 3140 
Q 2681 3584 3431 3584 
Q 4181 3584 4609 3096 
Q 5038 2609 5038 1747 
Q 5038 888 4609 398 
Q 4181 -91 3431 -91 
Q 2678 -91 2267 381 
Q 1856 853 1828 1628 
L 1178 1628 
L 1178 0 
L 603 0 
L 603 3500 
L 1178 3500 
L 1178 2103 
L 1844 2103 
z
" transform="scale(0.015625)"/>
       <path id="DejaVuSans-44b" d="M 3907 3500 
L 4482 3500 
L 4482 0 
L 3907 0 
L 3907 3500 
z
M 4195 3584 
L 4195 3584 
z
M 2781 1038 
Q 2781 1319 2576 1466 
Q 2372 1613 1978 1613 
L 1159 1613 
L 1159 459 
L 1978 459 
Q 2372 459 2576 607 
Q 2781 756 2781 1038 
z
M 581 3500 
L 1159 3500 
L 1159 2072 
L 2003 2072 
Q 2672 2072 3033 1817 
Q 3394 1563 3394 1038 
Q 3394 513 3033 256 
Q 2672 0 2003 0 
L 581 0 
L 581 3500 
z
" transform="scale(0.015625)"/>
      </defs>
      <use xlink:href="#DejaVuSans-421" transform="translate(0 0.125)"/>
      <use xlink:href="#DejaVuSans-438" transform="translate(69.824219 0.125)"/>
      <use xlink:href="#DejaVuSans-43b" transform="translate(134.814453 0.125)"/>
      <use xlink:href="#DejaVuSans-430" transform="translate(198.730469 0.125)"/>
      <use xlink:href="#DejaVuSans-20" transform="translate(260.009766 0.125)"/>
      <use xlink:href="#DejaVuSans-442" transform="translate(291.796875 0.125)"/>
      <use xlink:href="#DejaVuSans-43e" transform="translate(350.048828 0.125)"/>
      <use xlink:href="#DejaVuSans-440" transform="translate(411.230469 0.125)"/>
      <use xlink:href="#DejaVuSans-43c" transform="translate(474.707031 0.125)"/>
      <use xlink:href="#DejaVuSans-43e" transform="translate(550.146484 0.125)"/>
      <use xlink:href="#DejaVuSans-436" transform="translate(611.328125 0.125)"/>
      <use xlink:href="#DejaVuSans-435" transform="translate(701.416016 0.125)"/>
      <use xlink:href="#DejaVuSans-43d" transform="translate(762.939453 0.125)"/>
      <use xlink:href="#DejaVuSans-438" transform="translate(828.320312 0.125)"/>
      <use xlink:href="#DejaVuSans-44f" transform="translate(893.310547 0.125)"/>
      <use xlink:href="#DejaVuSans-20" transform="translate(953.466797 0.125)"/>
      <use xlink:href="#DejaVuSans-Oblique-46" transform="translate(985.253906 0.125)"/>
      <use xlink:href="#DejaVuSans-20" transform="translate(1042.773438 0.125)"/>
      <use xlink:href="#DejaVuSans-28" transform="translate(1074.560547 0.125)"/>
      <use xlink:href="#DejaVuSans-41d" transform="translate(1113.574219 0.125)"/>
      <use xlink:href="#DejaVuSans-44c" transform="translate(1188.769531 0.125)"/>
      <use xlink:href="#DejaVuSans-44e" transform="translate(1247.705078 0.125)"/>
      <use xlink:href="#DejaVuSans-442" transform="translate(1331.884766 0.125)"/>
      <use xlink:href="#DejaVuSans-43e" transform="translate(1390.136719 0.125)"/>
      <use xlink:href="#DejaVuSans-43d" transform="translate(1451.318359 0.125)"/>
      <use xlink:href="#DejaVuSans-44b" transform="translate(1516.699219 0.125)"/>
      <use xlink:href="#DejaVuSans-29" transform="translate(1595.654297 0.125)"/>
     </g>
    </g>
   </g>
   <g id="line2d_25">
    <path d="M 177.871176 188.527839 
L 252.399397 249.311759 
L 367.797932 306.296683 
L 463.963378 335.422312 
L 569.745368 346.186131 
L 622.636364 369.36 
" clip-path="url(#pc9f850b824)" style="fill: none; stroke: #ffaf00; stroke-width: 1.5; stroke-linecap: square"/>
    <defs>
     <path id="m5b403ebb6c" d="M 0 3 
C 0.795609 3 1.55874 2.683901 2.12132 2.12132 
C 2.683901 1.55874 3 0.795609 3 0 
C 3 -0.795609 2.683901 -1.55874 2.12132 -2.12132 
C 1.55874 -2.683901 0.795609 -3 0 -3 
C -0.795609 -3 -1.55874 -2.683901 -2.12132 -2.12132 
C -2.683901 -1.55874 -3 -0.795609 -3 0 
C -3 0.795609 -2.683901 1.55874 -2.12132 2.12132 
C -1.55874 2.683901 -0.795609 3 0 3 
z
"/>
    </defs>
    <g clip-path="url(#pc9f850b824)">
     <use xlink:href="#m5b403ebb6c" x="177.871176" y="188.527839" style="fill: #ffaf00"/>
     <use xlink:href="#m5b403ebb6c" x="252.399397" y="249.311759" style="fill: #ffaf00"/>
     <use xlink:href="#m5b403ebb6c" x="367.797932" y="306.296683" style="fill: #ffaf00"/>
     <use xlink:href="#m5b403ebb6c" x="463.963378" y="335.422312" style="fill: #ffaf00"/>
     <use xlink:href="#m5b403ebb6c" x="569.745368" y="346.186131" style="fill: #ffaf00"/>
     <use xlink:href="#m5b403ebb6c" x="622.636364" y="369.36" style="fill: #ffaf00"/>
    </g>
   </g>
   <g id="line2d_26">
    <path d="M 134.596726 104.94995 
L 182.679449 173.331859 
L 257.207669 241.713769 
L 317.311073 279.703719 
L 387.031021 291.100704 
L 421.890995 319.973065 
" clip-path="url(#pc9f850b824)" style="fill: none; stroke: #f46920; stroke-width: 1.5; stroke-linecap: square"/>
    <defs>
     <path id="m0721e42870" d="M -3 3 
L 3 3 
L 3 -3 
L -3 -3 
z
"/>
    </defs>
    <g clip-path="url(#pc9f850b824)">
     <use xlink:href="#m0721e42870" x="134.596726" y="104.94995" style="fill: #f46920"/>
     <use xlink:href="#m0721e42870" x="182.679449" y="173.331859" style="fill: #f46920"/>
     <use xlink:href="#m0721e42870" x="257.207669" y="241.713769" style="fill: #f46920"/>
     <use xlink:href="#m0721e42870" x="317.311073" y="279.703719" style="fill: #f46920"/>
     <use xlink:href="#m0721e42870" x="387.031021" y="291.100704" style="fill: #f46920"/>
     <use xlink:href="#m0721e42870" x="421.890995" y="319.973065" style="fill: #f46920"/>
    </g>
   </g>
   <g id="line2d_27">
    <path d="M 115.363636 66.96 
L 145.816028 161.934874 
L 210.727704 199.924824 
L 257.207669 241.713769 
L 294.872469 273.055477 
L 334.941405 289.581106 
" clip-path="url(#pc9f850b824)" style="fill: none; stroke: #f53255; stroke-width: 1.5; stroke-linecap: square"/>
    <defs>
     <path id="me214684efa" d="M 0 -3 
L -3 3 
L 3 3 
z
"/>
    </defs>
    <g clip-path="url(#pc9f850b824)">
     <use xlink:href="#me214684efa" x="115.363636" y="66.96" style="fill: #f53255"/>
     <use xlink:href="#me214684efa" x="145.816028" y="161.934874" style="fill: #f53255"/>
     <use xlink:href="#me214684efa" x="210.727704" y="199.924824" style="fill: #f53255"/>
     <use xlink:href="#me214684efa" x="257.207669" y="241.713769" style="fill: #f53255"/>
     <use xlink:href="#me214684efa" x="294.872469" y="273.055477" style="fill: #f53255"/>
     <use xlink:href="#me214684efa" x="334.941405" y="289.581106" style="fill: #f53255"/>
    </g>
   </g>
   <g id="patch_3">
    <path d="M 90 384.48 
L 90 51.84 
" style="fill: none; stroke: #1a1a1a; stroke-linejoin: miter; stroke-linecap: square"/>
   </g>
   <g id="patch_4">
    <path d="M 90 384.48 
L 648 384.48 
" style="fill: none; stroke: #1a1a1a; stroke-linejoin: miter; stroke-linecap: square"/>
   </g>
   <g id="text_15">
    <!-- Зависимость силы торможения от квадрата скорости -->
    <g style="fill: #333333" transform="translate(169.186094 45.84) scale(0.14 -0.14)">
     <defs>
      <path id="DejaVuSans-417" d="M 1828 4750 
Q 2597 4750 3084 4423 
Q 3572 4097 3572 3541 
Q 3572 3153 3350 2886 
Q 3128 2619 2719 2516 
Q 3172 2419 3426 2112 
Q 3681 1806 3681 1356 
Q 3681 638 3126 273 
Q 2572 -91 1828 -91 
Q 1447 -91 1003 12 
Q 559 116 422 203 
L 422 853 
Q 900 575 1164 508 
Q 1428 441 1816 441 
Q 2403 441 2728 666 
Q 3053 891 3053 1356 
Q 3053 1769 2764 2001 
Q 2475 2234 1866 2234 
L 1228 2234 
L 1228 2753 
L 1891 2753 
Q 2450 2753 2697 2939 
Q 2944 3125 2944 3475 
Q 2944 3834 2689 4026 
Q 2434 4219 1816 4219 
Q 1397 4219 1253 4181 
Q 1109 4144 469 3903 
L 469 4519 
Q 822 4644 1190 4697 
Q 1559 4750 1828 4750 
z
" transform="scale(0.015625)"/>
     </defs>
     <use xlink:href="#DejaVuSans-417"/>
     <use xlink:href="#DejaVuSans-430" x="64.111328"/>
     <use xlink:href="#DejaVuSans-432" x="125.390625"/>
     <use xlink:href="#DejaVuSans-438" x="184.326172"/>
     <use xlink:href="#DejaVuSans-441" x="249.316406"/>
     <use xlink:href="#DejaVuSans-438" x="304.296875"/>
     <use xlink:href="#DejaVuSans-43c" x="369.287109"/>
     <use xlink:href="#DejaVuSans-43e" x="444.726562"/>
     <use xlink:href="#DejaVuSans-441" x="505.908203"/>
     <use xlink:href="#DejaVuSans-442" x="560.888672"/>
     <use xlink:href="#DejaVuSans-44c" x="619.140625"/>
     <use xlink:href="#DejaVuSans-20" x="678.076172"/>
     <use xlink:href="#DejaVuSans-441" x="709.863281"/>
     <use xlink:href="#DejaVuSans-438" x="764.84375"/>
     <use xlink:href="#DejaVuSans-43b" x="829.833984"/>
     <use xlink:href="#DejaVuSans-44b" x="893.75"/>
     <use xlink:href="#DejaVuSans-20" x="972.705078"/>
     <use xlink:href="#DejaVuSans-442" x="1004.492188"/>
     <use xlink:href="#DejaVuSans-43e" x="1062.744141"/>
     <use xlink:href="#DejaVuSans-440" x="1123.925781"/>
     <use xlink:href="#DejaVuSans-43c" x="1187.402344"/>
     <use xlink:href="#DejaVuSans-43e" x="1262.841797"/>
     <use xlink:href="#DejaVuSans-436" x="1324.023438"/>
     <use xlink:href="#DejaVuSans-435" x="1414.111328"/>
     <use xlink:href="#DejaVuSans-43d" x="1475.634766"/>
     <use xlink:href="#DejaVuSans-438" x="1541.015625"/>
     <use xlink:href="#DejaVuSans-44f" x="1606.005859"/>
     <use xlink:href="#DejaVuSans-20" x="1666.162109"/>
     <use xlink:href="#DejaVuSans-43e" x="1697.949219"/>
     <use xlink:href="#DejaVuSans-442" x="1759.130859"/>
     <use xlink:href="#DejaVuSans-20" x="1817.382812"/>
     <use xlink:href="#DejaVuSans-43a" x="1849.169922"/>
     <use xlink:href="#DejaVuSans-432" x="1909.570312"/>
     <use xlink:href="#DejaVuSans-430" x="1968.505859"/>
     <use xlink:href="#DejaVuSans-434" x="2029.785156"/>
     <use xlink:href="#DejaVuSans-440" x="2098.925781"/>
     <use xlink:href="#DejaVuSans-430" x="2162.402344"/>
     <use xlink:href="#DejaVuSans-442" x="2223.681641"/>
     <use xlink:href="#DejaVuSans-430" x="2281.933594"/>
     <use xlink:href="#DejaVuSans-20" x="2343.212891"/>
     <use xlink:href="#DejaVuSans-441" x="2375"/>
     <use xlink:href="#DejaVuSans-43a" x="2429.980469"/>
     <use xlink:href="#DejaVuSans-43e" x="2490.380859"/>
     <use xlink:href="#DejaVuSans-440" x="2551.5625"/>
     <use xlink:href="#DejaVuSans-43e" x="2615.039062"/>
     <use xlink:href="#DejaVuSans-441" x="2676.220703"/>
     <use xlink:href="#DejaVuSans-442" x="2731.201172"/>
     <use xlink:href="#DejaVuSans-438" x="2789.453125"/>
    </g>
   </g>
   <g id="legend_1">
    <g id="patch_5">
     <path d="M 557.553125 103.874375 
L 641 103.874375 
Q 643 103.874375 643 101.874375 
L 643 58.84 
Q 643 56.84 641 56.84 
L 557.553125 56.84 
Q 555.553125 56.84 555.553125 58.84 
L 555.553125 101.874375 
Q 555.553125 103.874375 557.553125 103.874375 
z
" style="fill: #ffffff; opacity: 0.8; stroke: #cccccc; stroke-linejoin: miter"/>
    </g>
    <g id="line2d_28">
     <path d="M 559.553125 64.938437 
L 569.553125 64.938437 
L 579.553125 64.938437 
" style="fill: none; stroke: #ffaf00; stroke-width: 1.5; stroke-linecap: square"/>
     <g>
      <use xlink:href="#m5b403ebb6c" x="569.553125" y="64.938437" style="fill: #ffaf00"/>
     </g>
    </g>
    <g id="text_16">
     <!-- Протон -->
     <g style="fill: #333333" transform="translate(587.553125 68.438437) scale(0.1 -0.1)">
      <defs>
       <path id="DejaVuSans-41f" d="M 4184 4666 
L 4184 0 
L 3553 0 
L 3553 4134 
L 1259 4134 
L 1259 0 
L 628 0 
L 628 4666 
L 4184 4666 
z
" transform="scale(0.015625)"/>
      </defs>
      <use xlink:href="#DejaVuSans-41f"/>
      <use xlink:href="#DejaVuSans-440" x="75.195312"/>
      <use xlink:href="#DejaVuSans-43e" x="138.671875"/>
      <use xlink:href="#DejaVuSans-442" x="199.853516"/>
      <use xlink:href="#DejaVuSans-43e" x="258.105469"/>
      <use xlink:href="#DejaVuSans-43d" x="319.287109"/>
     </g>
    </g>
    <g id="line2d_29">
     <path d="M 559.553125 79.616562 
L 569.553125 79.616562 
L 579.553125 79.616562 
" style="fill: none; stroke: #f46920; stroke-width: 1.5; stroke-linecap: square"/>
     <g>
      <use xlink:href="#m0721e42870" x="569.553125" y="79.616562" style="fill: #f46920"/>
     </g>
    </g>
    <g id="text_17">
     <!-- Дейтерон -->
     <g style="fill: #333333" transform="translate(587.553125 83.116562) scale(0.1 -0.1)">
      <defs>
       <path id="DejaVuSans-414" d="M 1459 531 
L 3522 531 
L 3522 4134 
L 2006 4134 
L 2006 3472 
Q 2006 1913 1656 878 
Q 1584 666 1459 531 
z
M 538 531 
Q 956 728 1075 1103 
Q 1378 2066 1378 3784 
L 1378 4666 
L 4153 4666 
L 4153 531 
L 4684 531 
L 4684 -1003 
L 4153 -1003 
L 4153 0 
L 847 0 
L 847 -1003 
L 316 -1003 
L 316 531 
L 538 531 
z
" transform="scale(0.015625)"/>
       <path id="DejaVuSans-439" d="M 3578 3500 
L 3578 0 
L 3006 0 
L 3006 2809 
L 1319 0 
L 581 0 
L 581 3500 
L 1153 3500 
L 1153 697 
L 2838 3500 
L 3578 3500 
z
M 1102 4833 
L 1471 4833 
Q 1505 4599 1656 4481 
Q 1808 4364 2080 4364 
Q 2349 4364 2499 4480 
Q 2649 4596 2689 4833 
L 3058 4833 
Q 3027 4386 2780 4161 
Q 2533 3936 2080 3936 
Q 1627 3936 1380 4161 
Q 1133 4386 1102 4833 
z
" transform="scale(0.015625)"/>
      </defs>
      <use xlink:href="#DejaVuSans-414"/>
      <use xlink:href="#DejaVuSans-435" x="78.125"/>
      <use xlink:href="#DejaVuSans-439" x="139.648438"/>
      <use xlink:href="#DejaVuSans-442" x="204.638672"/>
      <use xlink:href="#DejaVuSans-435" x="262.890625"/>
      <use xlink:href="#DejaVuSans-440" x="324.414062"/>
      <use xlink:href="#DejaVuSans-43e" x="387.890625"/>
      <use xlink:href="#DejaVuSans-43d" x="449.072266"/>
     </g>
    </g>
    <g id="line2d_30">
     <path d="M 559.553125 94.294687 
L 569.553125 94.294687 
L 579.553125 94.294687 
" style="fill: none; stroke: #f53255; stroke-width: 1.5; stroke-linecap: square"/>
     <g>
      <use xlink:href="#me214684efa" x="569.553125" y="94.294687" style="fill: #f53255"/>
     </g>
    </g>
    <g id="text_18">
     <!-- Тритон -->
     <g style="fill: #333333" transform="translate(587.553125 97.794687) scale(0.1 -0.1)">
      <defs>
       <path id="DejaVuSans-422" d="M -19 4666 
L 3928 4666 
L 3928 4134 
L 2272 4134 
L 2272 0 
L 1638 0 
L 1638 4134 
L -19 4134 
L -19 4666 
z
" transform="scale(0.015625)"/>
      </defs>
      <use xlink:href="#DejaVuSans-422"/>
      <use xlink:href="#DejaVuSans-440" x="61.083984"/>
      <use xlink:href="#DejaVuSans-438" x="124.560547"/>
      <use xlink:href="#DejaVuSans-442" x="189.550781"/>
      <use xlink:href="#DejaVuSans-43e" x="247.802734"/>
      <use xlink:href="#DejaVuSans-43d" x="308.984375"/>
     </g>
    </g>
   </g>
  </g>
 </g>
 <defs>
  <clipPath id="pc9f850b824">
   <rect x="90" y="51.84" width="558" height="332.64"/>
  </clipPath>
 </defs>
</svg>
