<svg width="811" height="646" xmlns="http://www.w3.org/2000/svg" xmlns:xlink="http://www.w3.org/1999/xlink" xml:space="preserve" overflow="hidden"><g transform="translate(-1778 -895)"><path d="M1919.5 1012.5 2084.5 1012.5" stroke="#000000" stroke-width="6.875" stroke-miterlimit="8" fill="none" fill-rule="evenodd"/><path d="M1920.5 1009.5 1920.5 1188.01" stroke="#000000" stroke-width="6.875" stroke-miterlimit="8" fill="none" fill-rule="evenodd"/><path d="M2084.5 980.5 2084.5 1016.4" stroke="#000000" stroke-width="6.875" stroke-miterlimit="8" fill="none" fill-rule="evenodd"/><path d="M2179.5 1018.5 2179.5 1259.7" stroke="#000000" stroke-width="6.875" stroke-miterlimit="8" fill="none" fill-rule="evenodd"/><path d="M2146.5 1263.5 2212.96 1263.5" stroke="#000000" stroke-width="14.8958" stroke-miterlimit="8" fill="none" fill-rule="evenodd"/><path d="M2093.5 1286.5 2286.76 1286.5" stroke="#000000" stroke-width="6.875" stroke-miterlimit="8" fill="none" fill-rule="evenodd"/><path d="M2179.5 1286.5 2179.5 1527.85" stroke="#000000" stroke-width="6.875" stroke-miterlimit="8" fill="none" fill-rule="evenodd"/><path d="M1919.5 1530.5 2441.14 1530.5" stroke="#000000" stroke-width="6.875" stroke-miterlimit="8" fill="none" fill-rule="evenodd"/><path d="M2441.5 1364.5 2441.5 1534.03" stroke="#000000" stroke-width="6.875" stroke-miterlimit="8" fill="none" fill-rule="evenodd"/><path d="M1918.5 1370.5 1918.5 1532.93" stroke="#000000" stroke-width="6.875" stroke-miterlimit="8" fill="none" fill-rule="evenodd"/><path d="M2441.5 1012.5 2441.5 1174.93" stroke="#000000" stroke-width="6.875" stroke-miterlimit="8" fill="none" fill-rule="evenodd"/><path d="M2279.5 1012.5 2444.5 1012.5" stroke="#000000" stroke-width="6.875" stroke-miterlimit="8" fill="none" fill-rule="evenodd"/><path d="M2276.5 979.5 2276.5 1015.4" stroke="#000000" stroke-width="6.875" stroke-miterlimit="8" fill="none" fill-rule="evenodd"/><rect x="2404.5" y="1179.5" width="72.9998" height="182" stroke="#000000" stroke-width="11.4583" stroke-miterlimit="8" fill="none"/><rect x="1888.5" y="1185.5" width="72.9999" height="182" stroke="#000000" stroke-width="11.4583" stroke-miterlimit="8" fill="none"/><path d="M0 0 94.5314 91.0932" stroke="#000000" stroke-width="6.875" stroke-miterlimit="8" fill="none" fill-rule="evenodd" transform="matrix(1 0 0 -1 2188.5 989.593)"/><path d="M2164.5 1001C2164.5 992.992 2170.99 986.5 2179 986.5 2187.01 986.5 2193.5 992.992 2193.5 1001 2193.5 1009.01 2187.01 1015.5 2179 1015.5 2170.99 1015.5 2164.5 1009.01 2164.5 1001Z" stroke="#000000" stroke-width="6.875" stroke-miterlimit="8" fill="none" fill-rule="evenodd"/><path d="M2266.5 970.5C2266.5 964.977 2271.2 960.5 2277 960.5 2282.8 960.5 2287.5 964.977 2287.5 970.5 2287.5 976.023 2282.8 980.5 2277 980.5 2271.2 980.5 2266.5 976.023 2266.5 970.5Z" stroke="#000000" stroke-width="4.58333" stroke-miterlimit="8" fill="none" fill-rule="evenodd"/><path d="M2073.5 970C2073.5 964.201 2078.2 959.5 2084 959.5 2089.8 959.5 2094.5 964.201 2094.5 970 2094.5 975.799 2089.8 980.5 2084 980.5 2078.2 980.5 2073.5 975.799 2073.5 970Z" stroke="#000000" stroke-width="4.58333" stroke-miterlimit="8" fill="none" fill-rule="evenodd"/><path d="M2264.5 955.5 2288.75 984.16" stroke="#000000" stroke-width="4.58333" stroke-miterlimit="8" fill="none" fill-rule="evenodd"/><path d="M2072.5 955.5 2096.75 984.16" stroke="#000000" stroke-width="4.58333" stroke-miterlimit="8" fill="none" fill-rule="evenodd"/><path d="M3.4375-1.7662e-05 3.43774 47.3227-3.43726 47.3228-3.4375 1.7662e-05ZM13.7502 42.7393 0.000360892 70.2394-13.7498 42.7395Z" transform="matrix(1 0 0 -1 2440.5 1502.74)"/><path d="M2170.5 1529C2170.5 1524.31 2174.31 1520.5 2179 1520.5 2183.69 1520.5 2187.5 1524.31 2187.5 1529 2187.5 1533.69 2183.69 1537.5 2179 1537.5 2174.31 1537.5 2170.5 1533.69 2170.5 1529Z" stroke="#000000" stroke-width="6.875" stroke-miterlimit="8" fill-rule="evenodd"/><path d="M3.4375-1.7662e-05 3.43774 47.3227-3.43726 47.3228-3.4375 1.7662e-05ZM13.7502 42.7393 0.000360892 70.2394-13.7498 42.7395Z" transform="matrix(1 0 0 -1 1918.5 1510.74)"/><path d="M2181.79 1364.5 2181.79 1425.54 2177.21 1425.54 2177.21 1364.5ZM2193.25 1420.96 2179.5 1448.46 2165.75 1420.96Z"/><path d="M1812.28 1242.53C1811.02 1242.53 1809.69 1242.57 1808.29 1242.67L1803.73 1263.31 1807.93 1263.31C1811.38 1263.31 1814.1 1262.84 1816.1 1261.92 1818.09 1260.99 1819.67 1259.47 1820.84 1257.35 1822 1255.24 1822.58 1252.96 1822.58 1250.51 1822.58 1249.49 1822.49 1248.58 1822.3 1247.78 1822.11 1246.99 1821.86 1246.33 1821.55 1245.81 1821.24 1245.28 1820.85 1244.82 1820.37 1244.42 1819.9 1244.01 1819.3 1243.66 1818.59 1243.36 1817.88 1243.07 1817.05 1242.85 1816.11 1242.72 1815.18 1242.59 1813.9 1242.53 1812.28 1242.53ZM1797.99 1239.39 1813.85 1239.39C1816.37 1239.39 1818.43 1239.54 1820.02 1239.84 1821.61 1240.13 1822.97 1240.58 1824.1 1241.17 1825.23 1241.77 1826.17 1242.53 1826.93 1243.47 1827.69 1244.41 1828.26 1245.47 1828.64 1246.64 1829.02 1247.82 1829.21 1249.07 1829.21 1250.4 1829.21 1254.06 1828.1 1257.18 1825.86 1259.74 1823.63 1262.31 1820.34 1264.26 1815.99 1265.59L1815.99 1265.98C1817.13 1266.84 1818.05 1267.86 1818.75 1269.05 1819.45 1270.23 1820.02 1271.89 1820.45 1274L1821.27 1278.14C1821.53 1279.44 1821.82 1280.62 1822.16 1281.66 1822.49 1282.71 1822.89 1283.54 1823.35 1284.16 1823.81 1284.78 1824.34 1285.24 1824.92 1285.55 1825.5 1285.86 1826.35 1286.11 1827.47 1286.3L1827.11 1288.04 1817.24 1288.04C1816.48 1285.93 1815.8 1283.41 1815.21 1280.49L1813.64 1272.93C1813.38 1271.62 1813.06 1270.53 1812.69 1269.63 1812.32 1268.74 1811.88 1268.05 1811.37 1267.57 1810.86 1267.08 1810.27 1266.76 1809.59 1266.6 1808.91 1266.45 1808.09 1266.37 1807.11 1266.37L1803.05 1266.37 1800.56 1277.67C1800.34 1278.6 1800.19 1279.34 1800.11 1279.88 1800.03 1280.43 1799.96 1281 1799.9 1281.61 1799.84 1282.22 1799.81 1282.76 1799.81 1283.23 1799.81 1283.97 1799.93 1284.55 1800.16 1284.96 1800.4 1285.38 1800.76 1285.68 1801.23 1285.87 1801.71 1286.06 1802.53 1286.2 1803.69 1286.3L1803.3 1288.04 1788.65 1288.04 1789.04 1286.3C1789.95 1286.16 1790.62 1285.92 1791.07 1285.6 1791.53 1285.28 1791.91 1284.84 1792.21 1284.27 1792.52 1283.7 1792.81 1283 1793.07 1282.18 1793.33 1281.36 1793.72 1279.78 1794.25 1277.42L1800.31 1249.98C1800.83 1247.6 1801.09 1245.72 1801.09 1244.34 1801.09 1243.18 1800.82 1242.37 1800.27 1241.92 1799.72 1241.47 1798.83 1241.21 1797.6 1241.14Z" fill-rule="evenodd"/><text fill="#000000" fill-opacity="0" font-family="Arial,Arial_MSFontService,sans-serif" font-size="48.6548" x="1788.65" y="1281.96">𝑅</text><path d="M1848.11 1269.68 1849.69 1269.68C1849.65 1270.63 1849.63 1271.48 1849.61 1272.23 1849.59 1272.98 1849.58 1273.71 1849.57 1274.41 1849.56 1275.12 1849.56 1275.82 1849.56 1276.51L1849.56 1296.18C1849.56 1296.71 1849.58 1297.17 1849.61 1297.56 1849.65 1297.95 1849.7 1298.28 1849.78 1298.55 1849.86 1298.81 1849.96 1299.04 1850.09 1299.23 1850.22 1299.42 1850.37 1299.58 1850.54 1299.72 1850.75 1299.93 1851.03 1300.09 1851.37 1300.2 1851.72 1300.31 1852.16 1300.41 1852.69 1300.49 1853.23 1300.56 1853.87 1300.62 1854.62 1300.67 1855.37 1300.71 1856.27 1300.74 1857.32 1300.76L1857.32 1303.01 1836.8 1303.01 1836.8 1300.76C1837.82 1300.72 1838.68 1300.68 1839.39 1300.64 1840.1 1300.6 1840.7 1300.54 1841.2 1300.46 1841.7 1300.38 1842.1 1300.3 1842.4 1300.2 1842.71 1300.11 1842.97 1299.99 1843.19 1299.85 1843.43 1299.7 1843.64 1299.53 1843.81 1299.35 1843.99 1299.17 1844.12 1298.94 1844.23 1298.66 1844.33 1298.39 1844.41 1298.05 1844.47 1297.65 1844.53 1297.26 1844.56 1296.76 1844.56 1296.18L1844.56 1277.62C1844.56 1276.95 1844.44 1276.47 1844.18 1276.2 1843.92 1275.92 1843.55 1275.78 1843.06 1275.78 1842.53 1275.78 1841.74 1276.06 1840.68 1276.61 1839.63 1277.16 1838.27 1277.98 1836.59 1279.07 1836.37 1278.67 1836.16 1278.28 1835.97 1277.88 1835.78 1277.48 1835.58 1277.08 1835.38 1276.66 1837.52 1275.49 1839.63 1274.32 1841.73 1273.16 1843.83 1271.99 1845.95 1270.83 1848.11 1269.68Z" fill-rule="evenodd"/><text fill="#000000" fill-opacity="0" font-family="Arial,Arial_MSFontService,sans-serif" font-size="33.332" x="1835.38" y="1298.84">1</text><path d="M1844.75 1427.91 1859.01 1427.91 1858.61 1429.65C1857.71 1429.84 1857.06 1430.06 1856.67 1430.29 1856.28 1430.53 1855.93 1430.89 1855.62 1431.36 1855.31 1431.84 1854.99 1432.58 1854.66 1433.59 1854.33 1434.6 1853.91 1436.25 1853.41 1438.53L1847.31 1466.19C1847.01 1467.59 1846.8 1468.7 1846.71 1469.52 1846.61 1470.34 1846.57 1471.08 1846.57 1471.75 1846.57 1472.82 1846.83 1473.57 1847.37 1474.01 1847.9 1474.45 1848.8 1474.72 1850.06 1474.81L1849.67 1476.56 1835.41 1476.56 1835.8 1474.81C1836.7 1474.67 1837.38 1474.44 1837.83 1474.12 1838.29 1473.8 1838.67 1473.35 1838.97 1472.78 1839.28 1472.21 1839.57 1471.52 1839.83 1470.7 1840.09 1469.88 1840.48 1468.29 1841.01 1465.94L1847.07 1438.49C1847.59 1436.12 1847.85 1434.2 1847.85 1432.75 1847.85 1431.64 1847.57 1430.86 1847.01 1430.42 1846.45 1429.98 1845.57 1429.72 1844.36 1429.65Z" fill-rule="evenodd"/><text fill="#000000" fill-opacity="0" font-family="Arial,Arial_MSFontService,sans-serif" font-size="48.6548" x="1835.41" y="1470.48">𝐼</text><path d="M1872.94 1458.19 1874.52 1458.19C1874.48 1459.14 1874.46 1459.99 1874.44 1460.74 1874.42 1461.49 1874.41 1462.22 1874.4 1462.93 1874.39 1463.64 1874.39 1464.34 1874.39 1465.03L1874.39 1484.69C1874.39 1485.23 1874.4 1485.69 1874.44 1486.08 1874.47 1486.47 1874.53 1486.79 1874.61 1487.06 1874.68 1487.33 1874.79 1487.56 1874.92 1487.75 1875.05 1487.94 1875.2 1488.1 1875.37 1488.24 1875.58 1488.45 1875.85 1488.61 1876.2 1488.72 1876.54 1488.83 1876.98 1488.92 1877.52 1489 1878.05 1489.08 1878.7 1489.14 1879.45 1489.18 1880.2 1489.23 1881.1 1489.26 1882.15 1489.27L1882.15 1491.53 1861.63 1491.53 1861.63 1489.27C1862.65 1489.24 1863.51 1489.2 1864.22 1489.16 1864.92 1489.11 1865.53 1489.05 1866.03 1488.98 1866.53 1488.9 1866.93 1488.81 1867.23 1488.72 1867.53 1488.62 1867.8 1488.51 1868.02 1488.37 1868.26 1488.21 1868.47 1488.04 1868.64 1487.86 1868.81 1487.68 1868.95 1487.45 1869.06 1487.18 1869.16 1486.9 1869.24 1486.57 1869.3 1486.17 1869.36 1485.77 1869.39 1485.28 1869.39 1484.69L1869.39 1466.14C1869.39 1465.47 1869.26 1464.99 1869 1464.71 1868.75 1464.44 1868.37 1464.3 1867.89 1464.3 1867.36 1464.3 1866.56 1464.58 1865.51 1465.13 1864.46 1465.68 1863.1 1466.5 1861.42 1467.59 1861.2 1467.19 1860.99 1466.79 1860.8 1466.4 1860.61 1466 1860.41 1465.59 1860.21 1465.18 1862.34 1464.01 1864.46 1462.84 1866.56 1461.67 1868.65 1460.51 1870.78 1459.35 1872.94 1458.19Z" fill-rule="evenodd"/><text fill="#000000" fill-opacity="0" font-family="Arial,Arial_MSFontService,sans-serif" font-size="33.332" x="1860.21" y="1487.36">1</text><path d="M2484.91 1443.13 2499.17 1443.13 2498.78 1444.88C2497.87 1445.07 2497.23 1445.28 2496.83 1445.52 2496.44 1445.76 2496.09 1446.12 2495.78 1446.59 2495.47 1447.07 2495.15 1447.81 2494.82 1448.82 2494.49 1449.83 2494.07 1451.48 2493.57 1453.76L2487.48 1481.42C2487.17 1482.82 2486.97 1483.93 2486.87 1484.75 2486.78 1485.57 2486.73 1486.31 2486.73 1486.98 2486.73 1488.05 2487 1488.8 2487.53 1489.24 2488.06 1489.68 2488.96 1489.95 2490.22 1490.04L2489.83 1491.79 2475.57 1491.79 2475.96 1490.04C2476.87 1489.9 2477.54 1489.67 2478 1489.35 2478.45 1489.03 2478.83 1488.58 2479.14 1488.01 2479.44 1487.44 2479.73 1486.75 2479.99 1485.93 2480.25 1485.11 2480.64 1483.52 2481.17 1481.17L2487.23 1453.72C2487.75 1451.34 2488.01 1449.43 2488.01 1447.98 2488.01 1446.87 2487.73 1446.09 2487.17 1445.65 2486.62 1445.21 2485.73 1444.95 2484.52 1444.88Z" fill-rule="evenodd"/><text fill="#000000" fill-opacity="0" font-family="Arial,Arial_MSFontService,sans-serif" font-size="48.6548" x="2475.57" y="1485.71">𝐼</text><path d="M2512.78 1473.24C2514.57 1473.24 2516.1 1473.44 2517.37 1473.85 2518.64 1474.25 2519.67 1474.8 2520.46 1475.49 2521.26 1476.18 2521.83 1477.01 2522.18 1477.98 2522.54 1478.94 2522.71 1479.99 2522.71 1481.11 2522.71 1481.78 2522.67 1482.41 2522.57 1482.98 2522.48 1483.56 2522.31 1484.13 2522.08 1484.69 2521.85 1485.25 2521.54 1485.82 2521.16 1486.39 2520.78 1486.96 2520.31 1487.56 2519.74 1488.2 2519.31 1488.75 2518.75 1489.39 2518.06 1490.11 2517.37 1490.84 2516.61 1491.61 2515.79 1492.44 2514.97 1493.27 2514.11 1494.13 2513.22 1495.03 2512.32 1495.93 2511.45 1496.82 2510.6 1497.7 2509.76 1498.58 2508.98 1499.43 2508.27 1500.26 2507.57 1501.09 2506.99 1501.85 2506.54 1502.54L2516.11 1502.54C2516.93 1502.54 2517.57 1502.51 2518.06 1502.44 2518.54 1502.38 2518.94 1502.25 2519.26 1502.04 2519.58 1501.84 2519.85 1501.52 2520.07 1501.1 2520.3 1500.68 2520.56 1500.09 2520.85 1499.35L2523.26 1499.35C2523.17 1500.58 2523.09 1501.81 2523.01 1503.05 2522.93 1504.3 2522.85 1505.53 2522.77 1506.75L2500.85 1506.75 2500.85 1505.41C2501.26 1504.48 2501.74 1503.56 2502.3 1502.65 2502.85 1501.75 2503.47 1500.83 2504.16 1499.9 2504.85 1498.96 2505.63 1498 2506.51 1497.01 2507.39 1496.02 2508.37 1494.99 2509.44 1493.92 2511.06 1492.3 2512.38 1490.91 2513.4 1489.76 2514.42 1488.62 2515.22 1487.59 2515.8 1486.7 2516.39 1485.8 2516.79 1484.97 2517.01 1484.21 2517.22 1483.45 2517.33 1482.64 2517.33 1481.78 2517.33 1480.9 2517.21 1480.09 2516.96 1479.35 2516.71 1478.61 2516.35 1477.98 2515.88 1477.46 2515.42 1476.94 2514.83 1476.54 2514.11 1476.24 2513.39 1475.95 2512.57 1475.8 2511.64 1475.8 2510.03 1475.8 2508.69 1476.24 2507.6 1477.11 2506.51 1477.98 2505.67 1479.24 2505.06 1480.9L2501.67 1480.9 2501.67 1475.85C2503.88 1474.94 2505.91 1474.28 2507.77 1473.86 2509.62 1473.45 2511.29 1473.24 2512.78 1473.24Z" fill-rule="evenodd"/><text fill="#000000" fill-opacity="0" font-family="Arial,Arial_MSFontService,sans-serif" font-size="33.5132" x="2500.85" y="1502.56">2</text><path d="M2526.45 1264.87C2525.19 1264.87 2523.86 1264.92 2522.46 1265.01L2517.9 1285.65 2522.1 1285.65C2525.55 1285.65 2528.27 1285.19 2530.27 1284.26 2532.26 1283.33 2533.84 1281.81 2535.01 1279.7 2536.17 1277.58 2536.75 1275.3 2536.75 1272.85 2536.75 1271.83 2536.66 1270.92 2536.47 1270.13 2536.28 1269.33 2536.03 1268.67 2535.72 1268.15 2535.41 1267.63 2535.02 1267.16 2534.54 1266.76 2534.07 1266.36 2533.47 1266 2532.76 1265.71 2532.05 1265.41 2531.22 1265.2 2530.28 1265.07 2529.35 1264.94 2528.07 1264.87 2526.45 1264.87ZM2512.16 1261.73 2528.02 1261.73C2530.54 1261.73 2532.6 1261.88 2534.19 1262.18 2535.78 1262.48 2537.14 1262.92 2538.27 1263.52 2539.4 1264.11 2540.34 1264.88 2541.1 1265.81 2541.86 1266.75 2542.43 1267.81 2542.81 1268.99 2543.19 1270.16 2543.38 1271.42 2543.38 1272.75 2543.38 1276.41 2542.27 1279.52 2540.03 1282.09 2537.8 1284.65 2534.51 1286.6 2530.16 1287.93L2530.16 1288.32C2531.3 1289.18 2532.22 1290.2 2532.92 1291.39 2533.62 1292.58 2534.19 1294.23 2534.61 1296.34L2535.43 1300.48C2535.7 1301.79 2535.99 1302.96 2536.33 1304.01 2536.66 1305.05 2537.06 1305.89 2537.52 1306.5 2537.98 1307.12 2538.51 1307.58 2539.09 1307.89 2539.67 1308.2 2540.52 1308.45 2541.64 1308.64L2541.28 1310.39 2531.41 1310.39C2530.65 1308.27 2529.97 1305.75 2529.38 1302.83L2527.81 1295.27C2527.55 1293.97 2527.23 1292.87 2526.86 1291.98 2526.49 1291.09 2526.05 1290.4 2525.54 1289.91 2525.03 1289.42 2524.44 1289.1 2523.76 1288.95 2523.08 1288.79 2522.26 1288.72 2521.28 1288.72L2517.22 1288.72 2514.73 1300.02C2514.51 1300.94 2514.36 1301.68 2514.28 1302.23 2514.2 1302.77 2514.13 1303.35 2514.07 1303.95 2514.01 1304.56 2513.98 1305.1 2513.98 1305.58 2513.98 1306.31 2514.1 1306.89 2514.33 1307.3 2514.57 1307.72 2514.93 1308.02 2515.4 1308.21 2515.88 1308.4 2516.7 1308.55 2517.86 1308.64L2517.47 1310.39 2502.82 1310.39 2503.21 1308.64C2504.12 1308.5 2504.79 1308.27 2505.24 1307.95 2505.7 1307.63 2506.08 1307.18 2506.38 1306.61 2506.69 1306.04 2506.98 1305.34 2507.24 1304.52 2507.5 1303.7 2507.89 1302.12 2508.42 1299.77L2514.48 1272.32C2515 1269.94 2515.26 1268.07 2515.26 1266.69 2515.26 1265.52 2514.99 1264.72 2514.44 1264.26 2513.89 1263.81 2513 1263.55 2511.77 1263.48Z" fill-rule="evenodd"/><text fill="#000000" fill-opacity="0" font-family="Arial,Arial_MSFontService,sans-serif" font-size="48.6548" x="2502.82" y="1304.31">𝑅</text><path d="M2561.96 1291.84C2563.75 1291.84 2565.28 1292.04 2566.55 1292.45 2567.82 1292.85 2568.85 1293.4 2569.64 1294.09 2570.44 1294.78 2571.01 1295.61 2571.36 1296.58 2571.72 1297.54 2571.89 1298.59 2571.89 1299.71 2571.89 1300.38 2571.85 1301 2571.75 1301.58 2571.66 1302.16 2571.49 1302.73 2571.26 1303.29 2571.03 1303.85 2570.72 1304.42 2570.34 1304.99 2569.96 1305.56 2569.49 1306.16 2568.92 1306.8 2568.49 1307.35 2567.93 1307.99 2567.24 1308.71 2566.55 1309.44 2565.79 1310.21 2564.97 1311.04 2564.15 1311.87 2563.29 1312.73 2562.4 1313.63 2561.5 1314.53 2560.63 1315.42 2559.78 1316.3 2558.94 1317.17 2558.16 1318.03 2557.45 1318.86 2556.75 1319.69 2556.17 1320.44 2555.72 1321.13L2565.3 1321.13C2566.11 1321.13 2566.75 1321.1 2567.24 1321.04 2567.72 1320.98 2568.12 1320.85 2568.44 1320.64 2568.76 1320.44 2569.03 1320.12 2569.25 1319.7 2569.48 1319.28 2569.74 1318.69 2570.03 1317.95L2572.44 1317.95C2572.35 1319.18 2572.27 1320.41 2572.19 1321.65 2572.11 1322.89 2572.03 1324.13 2571.95 1325.35L2550.03 1325.35 2550.03 1324.01C2550.44 1323.08 2550.92 1322.16 2551.48 1321.25 2552.03 1320.35 2552.65 1319.43 2553.34 1318.49 2554.03 1317.56 2554.81 1316.6 2555.69 1315.61 2556.57 1314.62 2557.55 1313.59 2558.62 1312.52 2560.24 1310.9 2561.56 1309.51 2562.58 1308.36 2563.6 1307.22 2564.4 1306.19 2564.98 1305.3 2565.57 1304.4 2565.97 1303.57 2566.19 1302.81 2566.4 1302.05 2566.51 1301.24 2566.51 1300.38 2566.51 1299.5 2566.39 1298.69 2566.14 1297.95 2565.89 1297.21 2565.53 1296.58 2565.06 1296.06 2564.6 1295.54 2564.01 1295.13 2563.29 1294.84 2562.57 1294.55 2561.75 1294.4 2560.82 1294.4 2559.21 1294.4 2557.87 1294.84 2556.78 1295.71 2555.69 1296.58 2554.85 1297.84 2554.24 1299.5L2550.85 1299.5 2550.85 1294.45C2553.06 1293.54 2555.09 1292.87 2556.95 1292.46 2558.8 1292.05 2560.47 1291.84 2561.96 1291.84Z" fill-rule="evenodd"/><text fill="#000000" fill-opacity="0" font-family="Arial,Arial_MSFontService,sans-serif" font-size="33.5132" x="2550.03" y="1321.16">2</text><path d="M2229.73 1316.33C2231.04 1316.33 2232.08 1316.76 2232.84 1317.62 2233.6 1318.49 2233.98 1319.62 2233.98 1321.01 2233.98 1322.06 2233.78 1323.13 2233.38 1324.23L2233.79 1324.39C2235.83 1321.62 2237.79 1319.59 2239.68 1318.3 2241.56 1317 2243.48 1316.36 2245.41 1316.36 2246.93 1316.36 2248.21 1316.47 2249.23 1316.7L2247.73 1323.7 2244.51 1323.7C2244.38 1322.83 2244.21 1322.15 2243.98 1321.67 2243.75 1321.19 2243.48 1320.86 2243.16 1320.67 2242.85 1320.48 2242.46 1320.39 2241.98 1320.39 2241.23 1320.39 2240.41 1320.71 2239.52 1321.36 2238.64 1322 2237.64 1323.01 2236.54 1324.39 2235.43 1325.76 2234.55 1327.09 2233.9 1328.36 2233.24 1329.63 2232.7 1331.24 2232.26 1333.2L2229.29 1346.73 2223.88 1346.73 2228.41 1326.92C2228.71 1325.67 2228.89 1324.7 2228.98 1324.01 2229.06 1323.33 2229.1 1322.75 2229.1 1322.3 2229.1 1321.46 2228.97 1320.86 2228.7 1320.48 2228.42 1320.11 2228 1319.92 2227.41 1319.92 2226.77 1319.92 2226.09 1320.19 2225.37 1320.72 2224.65 1321.25 2223.66 1322.21 2222.41 1323.61L2220.63 1321.86C2222.55 1319.86 2224.15 1318.44 2225.45 1317.59 2226.74 1316.75 2228.16 1316.33 2229.73 1316.33Z" fill-rule="evenodd"/><text fill="#000000" fill-opacity="0" font-family="Arial,Arial_MSFontService,sans-serif" font-size="30.4062" x="2220.63" y="1342.93">𝑟</text><path d="M2125.84 1316.2C2128.47 1316.2 2131.64 1316.77 2135.37 1317.92L2135.37 1323.3 2132.19 1323.3C2130.87 1320.23 2128.59 1318.7 2125.34 1318.7 2123.72 1318.7 2122.38 1319.13 2121.34 1319.98 2120.3 1320.84 2119.78 1322.04 2119.78 1323.58 2119.78 1325.43 2120.4 1326.78 2121.65 1327.62 2122.9 1328.47 2125.09 1328.89 2128.22 1328.89L2130 1328.89 2130 1332.26 2127.19 1332.26C2124.44 1332.26 2122.36 1332.75 2120.97 1333.72 2119.57 1334.69 2118.87 1336.12 2118.87 1338.01 2118.87 1341.7 2121.13 1343.55 2125.65 1343.55 2129.07 1343.55 2132.25 1342.33 2135.19 1339.89L2136.97 1342.14C2133.17 1345.54 2128.79 1347.23 2123.81 1347.23 2120.39 1347.23 2117.74 1346.52 2115.86 1345.09 2113.97 1343.67 2113.03 1341.67 2113.03 1339.11 2113.03 1337.23 2113.7 1335.56 2115.03 1334.08 2116.36 1332.6 2118.28 1331.5 2120.78 1330.8L2120.78 1330.48C2116.3 1329.3 2114.06 1326.92 2114.06 1323.36 2114.06 1321.25 2115.11 1319.54 2117.2 1318.2 2119.29 1316.87 2122.17 1316.2 2125.84 1316.2Z" fill-rule="evenodd"/><text fill="#000000" fill-opacity="0" font-family="Arial,Arial_MSFontService,sans-serif" font-size="31.0312" x="2113.03" y="1343.35">ε</text></g></svg>