<?xml version="1.0" encoding="UTF-8" standalone="no"?>
<svg
   version="1.1"
   id="Layer_1"
   width="333.841"
   height="366.08701"
   viewBox="0 0 333.841 366.08701"
   overflow="visible"
   enable-background="new 0 0 600 400"
   xml:space="preserve"
   sodipodi:docname="helmet.svg"
   inkscape:version="1.4.2 (f4327f4, 2025-05-13)"
   xmlns:inkscape="http://www.inkscape.org/namespaces/inkscape"
   xmlns:sodipodi="http://sodipodi.sourceforge.net/DTD/sodipodi-0.dtd"
   xmlns="http://www.w3.org/2000/svg"
   xmlns:svg="http://www.w3.org/2000/svg"
   xmlns:rdf="http://www.w3.org/1999/02/22-rdf-syntax-ns#"
   xmlns:cc="http://creativecommons.org/ns#"
   xmlns:dc="http://purl.org/dc/elements/1.1/"><metadata
   id="metadata19"><rdf:RDF><cc:Work
       rdf:about=""><dc:format>image/svg+xml</dc:format><dc:type
         rdf:resource="http://purl.org/dc/dcmitype/StillImage" /></cc:Work></rdf:RDF></metadata><defs
   id="defs17" /><sodipodi:namedview
   pagecolor="#ffffff"
   bordercolor="#666666"
   borderopacity="1"
   objecttolerance="10"
   gridtolerance="10"
   guidetolerance="10"
   inkscape:pageopacity="0"
   inkscape:pageshadow="2"
   inkscape:window-width="1920"
   inkscape:window-height="991"
   id="namedview15"
   showgrid="true"
   inkscape:zoom="1.4142136"
   inkscape:cx="155.91705"
   inkscape:cy="237.94143"
   inkscape:window-x="-9"
   inkscape:window-y="-9"
   inkscape:window-maximized="1"
   inkscape:current-layer="g840"
   inkscape:showpageshadow="2"
   inkscape:pagecheckerboard="0"
   inkscape:deskcolor="#d1d1d1"
   showguides="false"><inkscape:grid
     type="xygrid"
     id="grid858"
     originx="0"
     originy="0"
     spacingy="1"
     spacingx="1"
     units="px" /></sodipodi:namedview>







<g
   id="g840"
   transform="matrix(1.1645557,0,0,1.1692551,-81.544181,65.077872)"
   style="fill:#6c757d;fill-opacity:1"><path
     style="fill:#6c757d;fill-opacity:1;stroke:none;stroke-width:1.07447px;stroke-linecap:butt;stroke-linejoin:miter;stroke-opacity:1"
     d="m 235.19147,-55.624084 c -21.65199,-0.440428 -43.1722,3.470509 -63.28637,11.501237 C 110.38029,-19.558665 70.021462,40.032148 70.02171,106.31055 h 44.54277 c 1.7e-4,-48.041359 29.25407,-91.235126 73.84982,-109.040281 44.59539,-17.804605 95.53273,-6.6280629 128.58894,28.214665 L 349.30835,-5.1962313 C 319.53043,-36.584628 278.43623,-54.744012 235.19147,-55.624084 Z m 3.13863,78.638317 c -1.02232,-0.0075 -2.05196,-0.0032 -3.08827,0.0147 -7.89411,0.136785 -16.18951,1.015437 -24.82362,2.674314 -38.65985,8.072157 -64.45076,32.242926 -64.45076,75.233493 v 42.99056 l 10.18163,2.77927 c 2.31709,27.7118 4.15596,46.70025 -18.61978,64.40025 21.09661,-5.277 42.27799,-13.86775 56.05241,-54.1858 l 11.46561,3.12774 13.13878,43.30859 138.50345,54.07932 -11.99891,-75.89262 -96.67615,-42.99057 16.11269,-37.61674 53.70897,21.49528 10.7418,32.24293 10.74179,10.74763 -26.85449,-112.850227 -3.7869,5.050553 C 294.91428,35.670421 270.02177,23.246888 238.3301,23.014233 Z"
     id="path826"
     inkscape:connector-curvature="0"
     sodipodi:nodetypes="cscccccccccscccccccccccccccc" /></g></svg>
