<svg width="1495" height="1166" xmlns="http://www.w3.org/2000/svg" xmlns:xlink="http://www.w3.org/1999/xlink" xml:space="preserve" overflow="hidden"><defs><radialGradient cx="157941" cy="160712" r="225330" gradientUnits="userSpaceOnUse" spreadMethod="pad" id="fill0" gradientTransform="scale(0.000360892 0.000360892)"><stop offset="0" stop-color="#FFFFFF"/><stop offset="0.74" stop-color="#BFBFBF"/><stop offset="1" stop-color="#7F7F7F"/></radialGradient><radialGradient cx="157942" cy="160712" r="225331" fx="157942" fy="160712" gradientUnits="userSpaceOnUse" spreadMethod="pad" id="fill1" gradientTransform="scale(0.000360892 0.000360892)"><stop offset="0" stop-color="#FFFFFF"/><stop offset="0.74" stop-color="#BFBFBF"/><stop offset="1" stop-color="#7F7F7F"/></radialGradient><radialGradient cx="157942" cy="160713" r="225332" gradientUnits="userSpaceOnUse" spreadMethod="pad" id="fill2" gradientTransform="scale(0.000360892 0.000360892)"><stop offset="0" stop-color="#FFFFFF"/><stop offset="0.74" stop-color="#BFBFBF"/><stop offset="1" stop-color="#7F7F7F"/></radialGradient><radialGradient cx="157942" cy="160712" r="225331" fx="157942" fy="160712" gradientUnits="userSpaceOnUse" spreadMethod="pad" id="fill3" gradientTransform="scale(0.000360892 0.000360892)"><stop offset="0" stop-color="#FFFFFF" stop-opacity="0.501961"/><stop offset="0.74" stop-color="#BFBFBF" stop-opacity="0.501961"/><stop offset="1" stop-color="#7F7F7F" stop-opacity="0.501961"/></radialGradient><radialGradient cx="157942" cy="160712" r="225331" fx="157942" fy="160712" gradientUnits="userSpaceOnUse" spreadMethod="pad" id="fill4" gradientTransform="scale(0.000360892 0.000360892)"><stop offset="0" stop-color="#FFFFFF" stop-opacity="0.501961"/><stop offset="0.74" stop-color="#BFBFBF" stop-opacity="0.501961"/><stop offset="1" stop-color="#7F7F7F" stop-opacity="0.501961"/></radialGradient><radialGradient cx="157942" cy="163484" r="227316" gradientUnits="userSpaceOnUse" spreadMethod="pad" id="fill5" gradientTransform="scale(0.000360892 0.000360892)"><stop offset="0" stop-color="#FFFFFF" stop-opacity="0.501961"/><stop offset="0.74" stop-color="#BFBFBF" stop-opacity="0.501961"/><stop offset="1" stop-color="#7F7F7F" stop-opacity="0.501961"/></radialGradient></defs><g transform="translate(-923 -316)"><path d="M1405.5 1174.5 1669 720.5 1932.5 1174.5Z" stroke="#000000" stroke-width="4.58333" stroke-miterlimit="8" fill="none" fill-rule="evenodd"/><path d="M1100.5 1357.5 1669.5 376.5 2238.5 1357.5Z" stroke="#000000" stroke-width="4.58333" stroke-miterlimit="8" fill="none" fill-rule="evenodd"/><path d="M2238.62 1356.57 1932 1174" stroke="#2E141D" stroke-width="2.29167" stroke-miterlimit="8" stroke-dasharray="18.3333 6.875" fill="none" fill-rule="evenodd"/><path d="M0 0 304.792 182.569" stroke="#2E141D" stroke-width="2.29167" stroke-miterlimit="8" stroke-dasharray="18.3333 6.875" fill="none" fill-rule="evenodd" transform="matrix(1 0 0 -1 1100 1356.57)"/><path d="M0 0 0.915945 340.695" stroke="#2E141D" stroke-width="2.29167" stroke-miterlimit="8" stroke-dasharray="18.3333 6.875" fill="none" fill-rule="evenodd" transform="matrix(1 0 0 -1 1668 716.695)"/><path d="M1932 1356.57 1932 1174" stroke="#2E141D" stroke-width="2.29167" stroke-miterlimit="8" stroke-dasharray="9.16667 6.875" fill="none" fill-rule="evenodd"/><path d="M2151.62 1353.42C2149.95 1337.11 2157.55 1321.83 2170.28 1315.9" stroke="#000000" stroke-width="2.29167" stroke-miterlimit="8" fill="none" fill-rule="evenodd"/><text font-family="Cambria Math,Cambria Math_MSFontService,sans-serif" font-weight="400" font-size="46" transform="matrix(1 0 0 1 2081.52 1341)">30</text><text font-family="Cambria Math,Cambria Math_MSFontService,sans-serif" font-weight="400" font-size="46" transform="matrix(1 0 0 1 2131.93 1341)">°</text><path d="M1405 1353.57 1405 1171" stroke="#2E141D" stroke-width="2.29167" stroke-miterlimit="8" stroke-dasharray="9.16667 6.875" fill="none" fill-rule="evenodd"/><text font-family="Cambria Math,Cambria Math_MSFontService,sans-serif" font-weight="400" font-size="46" transform="matrix(1 0 0 1 1201.03 1447)">∆</text><text font-family="Cambria Math,Cambria Math_MSFontService,sans-serif" font-weight="400" font-size="46" transform="matrix(1 0 0 1 1228.53 1447)">𝑥</text><text font-family="Cambria Math,Cambria Math_MSFontService,sans-serif" font-weight="400" font-size="46" transform="matrix(1 0 0 1 1254.56 1447)">/</text><text font-family="Cambria Math,Cambria Math_MSFontService,sans-serif" font-weight="400" font-size="46" transform="matrix(1 0 0 1 1276.91 1447)">2</text><path d="M1405 1357C1405 1369.15 1392.65 1379 1377.42 1379L1282.01 1379C1266.78 1379 1254.43 1388.85 1254.43 1401 1254.43 1388.85 1242.08 1379 1226.85 1379L1125.58 1379C1110.35 1379 1098 1369.15 1098 1357" stroke="#000000" stroke-width="2.29167" stroke-miterlimit="8" fill="none" fill-rule="evenodd"/><text font-family="Cambria Math,Cambria Math_MSFontService,sans-serif" font-weight="400" font-size="46" transform="matrix(1 0 0 1 2034.21 1450)">∆</text><text font-family="Cambria Math,Cambria Math_MSFontService,sans-serif" font-weight="400" font-size="46" transform="matrix(1 0 0 1 2061.71 1450)">𝑥</text><text font-family="Cambria Math,Cambria Math_MSFontService,sans-serif" font-weight="400" font-size="46" transform="matrix(1 0 0 1 2087.74 1450)">/</text><text font-family="Cambria Math,Cambria Math_MSFontService,sans-serif" font-weight="400" font-size="46" transform="matrix(1 0 0 1 2110.08 1450)">2</text><path d="M2238 1360.02C2238 1372.17 2225.66 1382.01 2210.44 1382.01L2115.48 1382.01C2100.26 1382.01 2087.92 1391.86 2087.92 1404 2087.92 1391.86 2075.58 1382.01 2060.35 1382.01L1959.56 1382.01C1944.34 1382.01 1932 1372.17 1932 1360.02" stroke="#000000" stroke-width="2.29167" stroke-miterlimit="8" fill="none" fill-rule="evenodd"/><path d="M0 28.9999C-3.62841e-15 12.9837 12.7598-3.69207e-15 28.4999-7.38414e-15 44.2399-1.47683e-14 56.9997 12.9837 56.9997 28.9999 56.9997 45.0161 44.2399 57.9997 28.4999 57.9997 12.7598 57.9997-1.81421e-14 45.0161 0 28.9999Z" stroke="#000000" stroke-width="1.14583" stroke-miterlimit="8" fill="url(#fill0)" fill-rule="evenodd" transform="matrix(-1 0 0 1 2267.5 1328.5)"/><path d="M0 28.9999C-3.62843e-15 12.9837 12.7599-3.69207e-15 28.5-7.38414e-15 44.2402-1.47683e-14 57.0001 12.9837 57.0001 28.9999 57.0001 45.0161 44.2402 57.9997 28.5 57.9997 12.7599 57.9997-1.81422e-14 45.0161 0 28.9999Z" stroke="#000000" stroke-width="1.14583" stroke-miterlimit="8" fill="url(#fill1)" fill-rule="evenodd" transform="matrix(-1 0 0 1 1128.5 1328.5)"/><path d="M0 29C-3.62843e-15 12.9838 12.7599-3.69209e-15 28.5-7.38419e-15 44.2402-1.47684e-14 57.0001 12.9838 57.0001 29 57.0001 45.0163 44.2402 58.0001 28.5 58.0001 12.7599 58.0001-1.81422e-14 45.0163 0 29Z" stroke="#000000" stroke-width="1.14583" stroke-miterlimit="8" fill="url(#fill2)" fill-rule="evenodd" transform="matrix(-1 0 0 1 1697.5 347.5)"/><path d="M0 28.9999C-3.62843e-15 12.9837 12.7599-3.69207e-15 28.5-7.38414e-15 44.2402-1.47683e-14 57.0001 12.9837 57.0001 28.9999 57.0001 45.0161 44.2402 57.9997 28.5 57.9997 12.7599 57.9997-1.81422e-14 45.0161 0 28.9999Z" stroke="#000000" stroke-width="1.14583" stroke-miterlimit="8" stroke-dasharray="4.58333 3.4375" fill="url(#fill3)" fill-rule="evenodd" transform="matrix(-1 0 0 1 1697.5 692.5)"/><path d="M0 28.9999C-3.62843e-15 12.9837 12.7599-3.69207e-15 28.5-7.38414e-15 44.2402-1.47683e-14 57.0001 12.9837 57.0001 28.9999 57.0001 45.0161 44.2402 57.9997 28.5 57.9997 12.7599 57.9997-1.81422e-14 45.0161 0 28.9999Z" stroke="#000000" stroke-width="1.14583" stroke-miterlimit="8" stroke-dasharray="4.58333 3.4375" fill="url(#fill4)" fill-rule="evenodd" transform="matrix(-1 0 0 1 1955.5 1143.5)"/><path d="M0 29.5001C-3.62843e-15 13.2076 12.7599-3.75575e-15 28.5-7.5115e-15 44.2402-1.5023e-14 57.0001 13.2076 57.0001 29.5001 57.0001 45.7925 44.2402 59.0001 28.5 59.0001 12.7599 59.0001-1.81422e-14 45.7925 0 29.5001Z" stroke="#000000" stroke-width="1.14583" stroke-miterlimit="8" stroke-dasharray="4.58333 3.4375" fill="url(#fill5)" fill-rule="evenodd" transform="matrix(-1 0 0 1 1440.5 1146.5)"/><text font-family="Cambria Math,Cambria Math_MSFontService,sans-serif" font-weight="400" font-size="46" transform="matrix(1 0 0 1 2012.11 1213)">𝑣</text><path d="M1953.39 1184.5 1989.77 1204.68 1986.99 1209.69 1950.61 1189.5ZM1988.82 1196.95 2008.42 1218.31 1979.92 1212.98Z"/><path d="M1.49795-2.44172 23.3189 10.945 20.323 15.8285-1.49795 2.44172ZM22.7076 3.17655 41.3547 25.3704 13.1207 18.8035Z" transform="matrix(-1 0 0 1 1385.35 1185)"/><path d="M2.86458-1.89418e-05 2.86479 31.6614-2.86437 31.6615-2.86458 1.89418e-05ZM9.16685 27.0781 0.000360892 54.5781-9.16649 27.0782Z" transform="matrix(1 0 0 -1 1668 691.578)"/><text font-family="Cambria Math,Cambria Math_MSFontService,sans-serif" font-weight="400" font-size="46" transform="matrix(1 0 0 1 1315.53 1206)">𝑣</text><text font-family="Cambria Math,Cambria Math_MSFontService,sans-serif" font-weight="400" font-size="46" transform="matrix(1 0 0 1 1683.28 663)">𝑣</text><text font-family="Cambria Math,Cambria Math_MSFontService,sans-serif" font-weight="400" font-size="41" transform="matrix(1 0 0 1 933.044 1400)">𝑣</text><text font-family="Cambria Math,Cambria Math_MSFontService,sans-serif" font-weight="400" font-size="30" transform="matrix(1 0 0 1 957.816 1385)">′</text><text font-family="Cambria Math,Cambria Math_MSFontService,sans-serif" font-weight="400" font-size="41" transform="matrix(1 0 0 1 981.879 1400)">=</text><text font-family="Cambria Math,Cambria Math_MSFontService,sans-serif" font-weight="400" font-size="41" transform="matrix(1 0 0 1 1024.27 1400)">0</text><text font-family="Cambria Math,Cambria Math_MSFontService,sans-serif" font-weight="400" font-size="41" transform="matrix(1 0 0 1 2289.15 1429)">𝑣</text><text font-family="Cambria Math,Cambria Math_MSFontService,sans-serif" font-weight="400" font-size="30" transform="matrix(1 0 0 1 2313.93 1414)">′</text><text font-family="Cambria Math,Cambria Math_MSFontService,sans-serif" font-weight="400" font-size="41" transform="matrix(1 0 0 1 2337.99 1429)">=</text><text font-family="Cambria Math,Cambria Math_MSFontService,sans-serif" font-weight="400" font-size="41" transform="matrix(1 0 0 1 2380.38 1429)">0</text><text font-family="Cambria Math,Cambria Math_MSFontService,sans-serif" font-weight="400" font-size="41" transform="matrix(1 0 0 1 1697.88 355)">𝑣</text><text font-family="Cambria Math,Cambria Math_MSFontService,sans-serif" font-weight="400" font-size="30" transform="matrix(1 0 0 1 1722.65 340)">′</text><text font-family="Cambria Math,Cambria Math_MSFontService,sans-serif" font-weight="400" font-size="41" transform="matrix(1 0 0 1 1746.71 355)">=</text><text font-family="Cambria Math,Cambria Math_MSFontService,sans-serif" font-weight="400" font-size="41" transform="matrix(1 0 0 1 1789.11 355)">0</text><text font-family="Cambria Math,Cambria Math_MSFontService,sans-serif" font-weight="400" font-size="46" transform="matrix(1 0 0 1 2103.57 1270)">∆</text><text font-family="Cambria Math,Cambria Math_MSFontService,sans-serif" font-weight="400" font-size="46" transform="matrix(1 0 0 1 2131.07 1270)">𝑥</text><text font-family="Cambria Math,Cambria Math_MSFontService,sans-serif" font-weight="400" font-size="46" transform="matrix(1 0 0 1 1217.8 1243)">∆</text><text font-family="Cambria Math,Cambria Math_MSFontService,sans-serif" font-weight="400" font-size="46" transform="matrix(1 0 0 1 1245.3 1243)">𝑥</text><text font-family="Cambria Math,Cambria Math_MSFontService,sans-serif" font-weight="400" font-size="46" transform="matrix(1 0 0 1 1608.2 563)">∆</text><text font-family="Cambria Math,Cambria Math_MSFontService,sans-serif" font-weight="400" font-size="46" transform="matrix(1 0 0 1 1635.7 563)">𝑥</text></g></svg>