<svg width="1077" height="416" xmlns="http://www.w3.org/2000/svg" xmlns:xlink="http://www.w3.org/1999/xlink" xml:space="preserve" overflow="hidden"><g transform="translate(-3075 -932)"><path d="M3186.5 1057.02 3186.5 1003.5" stroke="#000000" stroke-width="14.8958" stroke-miterlimit="8" fill="none" fill-rule="evenodd"/><path d="M3207.5 1103.15 3207.5 947.5" stroke="#000000" stroke-width="6.875" stroke-miterlimit="8" fill="none" fill-rule="evenodd"/><path d="M3207.5 1029.5 3257.13 1029.5" stroke="#000000" stroke-width="6.875" stroke-miterlimit="8" fill="none" fill-rule="evenodd"/><path d="M3322.59 1076.8C3323.91 1076.8 3324.94 1077.24 3325.7 1078.1 3326.46 1078.97 3326.84 1080.1 3326.84 1081.49 3326.84 1082.53 3326.65 1083.61 3326.25 1084.71L3326.66 1084.87C3328.7 1082.1 3330.66 1080.07 3332.55 1078.77 3334.43 1077.48 3336.34 1076.84 3338.28 1076.84 3339.8 1076.84 3341.07 1076.95 3342.09 1077.18L3340.59 1084.18 3337.38 1084.18C3337.25 1083.3 3337.07 1082.63 3336.84 1082.15 3336.62 1081.67 3336.34 1081.34 3336.03 1081.15 3335.72 1080.96 3335.32 1080.87 3334.84 1080.87 3334.09 1080.87 3333.28 1081.19 3332.39 1081.84 3331.51 1082.48 3330.51 1083.49 3329.41 1084.87 3328.3 1086.24 3327.42 1087.57 3326.77 1088.84 3326.11 1090.11 3325.56 1091.72 3325.13 1093.68L3322.16 1107.21 3316.75 1107.21 3321.28 1087.4C3321.57 1086.15 3321.76 1085.18 3321.84 1084.49 3321.93 1083.8 3321.97 1083.23 3321.97 1082.77 3321.97 1081.94 3321.83 1081.34 3321.56 1080.96 3321.29 1080.59 3320.87 1080.4 3320.28 1080.4 3319.64 1080.4 3318.95 1080.66 3318.24 1081.2 3317.52 1081.73 3316.53 1082.69 3315.28 1084.09L3313.5 1082.34C3315.42 1080.34 3317.02 1078.91 3318.31 1078.07 3319.61 1077.23 3321.03 1076.8 3322.59 1076.8Z" fill-rule="evenodd"/><text fill="#000000" fill-opacity="0" font-family="Arial,Arial_MSFontService,sans-serif" font-size="30.4062" x="3313.5" y="1103.41">𝑟</text><path d="M3174.62 1070.95C3177.62 1070.95 3180.77 1071.45 3184.06 1072.45L3182.87 1078.14 3179.94 1078.14C3179.56 1074.99 3177.72 1073.42 3174.41 1073.42 3172.51 1073.42 3170.96 1073.96 3169.75 1075.03 3168.54 1076.1 3167.94 1077.57 3167.94 1079.45 3167.94 1080.8 3168.47 1081.89 3169.55 1082.7 3170.62 1083.51 3172.09 1083.92 3173.97 1083.92L3178.41 1083.92 3177.69 1087.14 3174.56 1087.14C3172.98 1087.14 3171.68 1087.24 3170.66 1087.45 3169.63 1087.66 3168.68 1088 3167.78 1088.47 3166.88 1088.93 3166.18 1089.43 3165.67 1089.97 3165.16 1090.5 3164.78 1091.1 3164.53 1091.76 3164.28 1092.43 3164.16 1093.19 3164.16 1094.04 3164.16 1095.5 3164.66 1096.62 3165.66 1097.39 3166.66 1098.16 3168.09 1098.54 3169.97 1098.54 3171.61 1098.54 3173.2 1098.31 3174.73 1097.84 3176.26 1097.37 3178 1096.48 3179.94 1095.17L3181.47 1097.61C3179.3 1099.11 3177.17 1100.19 3175.08 1100.86 3172.98 1101.52 3170.79 1101.86 3168.5 1101.86 3166.42 1101.86 3164.63 1101.51 3163.14 1100.81 3161.65 1100.11 3160.54 1099.18 3159.8 1098.03 3159.06 1096.87 3158.69 1095.6 3158.69 1094.2 3158.69 1092.05 3159.52 1090.22 3161.19 1088.7 3162.85 1087.18 3165.25 1086.09 3168.37 1085.42L3168.44 1085.11C3164.81 1083.9 3163 1081.81 3163 1078.86 3163 1077.52 3163.42 1076.26 3164.25 1075.06 3165.08 1073.86 3166.39 1072.88 3168.17 1072.11 3169.95 1071.34 3172.1 1070.95 3174.62 1070.95Z" fill-rule="evenodd"/><text fill="#000000" fill-opacity="0" font-family="Arial,Arial_MSFontService,sans-serif" font-size="30.9062" x="3158.69" y="1097.99">𝜀</text><rect x="3260" y="1010" width="104" height="37.0002" stroke="#000000" stroke-width="8.02083" stroke-miterlimit="8" fill="none"/><path d="M3103.5 1030.5 3179.55 1030.5" stroke="#000000" stroke-width="6.875" stroke-miterlimit="8" fill="none" fill-rule="evenodd"/><path d="M3445.5 1059.02 3445.5 1005.5" stroke="#000000" stroke-width="14.8958" stroke-miterlimit="8" fill="none" fill-rule="evenodd"/><path d="M3466.5 1105.15 3466.5 949.5" stroke="#000000" stroke-width="6.875" stroke-miterlimit="8" fill="none" fill-rule="evenodd"/><path d="M3466.5 1030.5 3516.13 1030.5" stroke="#000000" stroke-width="6.875" stroke-miterlimit="8" fill="none" fill-rule="evenodd"/><rect x="3519" y="1011" width="104" height="37.0001" stroke="#000000" stroke-width="8.02083" stroke-miterlimit="8" fill="none"/><path d="M3362.5 1031.5 3438.55 1031.5" stroke="#000000" stroke-width="6.875" stroke-miterlimit="8" fill="none" fill-rule="evenodd"/><path d="M3874.5 1058.02 3874.5 1004.5" stroke="#000000" stroke-width="14.8958" stroke-miterlimit="8" fill="none" fill-rule="evenodd"/><path d="M3895.5 1104.15 3895.5 948.5" stroke="#000000" stroke-width="6.875" stroke-miterlimit="8" fill="none" fill-rule="evenodd"/><path d="M3895.5 1030.5 3945.13 1030.5" stroke="#000000" stroke-width="6.875" stroke-miterlimit="8" fill="none" fill-rule="evenodd"/><rect x="3948" y="1011" width="104" height="37.0001" stroke="#000000" stroke-width="8.02083" stroke-miterlimit="8" fill="none"/><path d="M3802.5 1031.5 3867.58 1031.5" stroke="#000000" stroke-width="6.875" stroke-miterlimit="8" fill="none" fill-rule="evenodd"/><path d="M0 0 66.3324 0.000360892" stroke="#000000" stroke-width="6.875" stroke-miterlimit="8" fill="none" fill-rule="evenodd" transform="matrix(1 0 0 -1 3623.5 1029.5)"/><path d="M3763.48 1023.77 3771.67 1023.77 3771.67 1033.17 3763.48 1033.17ZM3743.62 1023.77 3751.81 1023.77 3751.81 1033.17 3743.62 1033.17ZM3723.76 1023.77 3731.95 1023.77 3731.95 1033.17 3723.76 1033.17Z" fill-rule="evenodd"/><text fill="#000000" fill-opacity="0" font-family="Arial,Arial_MSFontService,sans-serif" font-size="9.40234" x="3723.76" y="1032">…</text><path d="M3652.83 949.828 3662.8 949.828 3671.05 974.172C3672.24 977.672 3673.16 980.63 3673.8 983.047L3674.15 983.047C3674.31 981.776 3674.69 979.661 3675.29 976.703 3675.88 973.745 3676.43 971.161 3676.93 968.953L3679.12 959.109C3679.57 957.047 3679.8 955.37 3679.8 954.078 3679.8 953.099 3679.56 952.417 3679.07 952.031 3678.58 951.646 3677.8 951.422 3676.74 951.359L3677.08 949.828 3688.02 949.828 3687.68 951.359C3686.89 951.526 3686.32 951.714 3685.98 951.922 3685.63 952.13 3685.32 952.443 3685.05 952.859 3684.78 953.276 3684.5 953.927 3684.21 954.812 3683.92 955.698 3683.55 957.141 3683.12 959.141L3675.77 992.484 3671.52 992.484 3662.4 965.672C3661.29 962.464 3660.32 959.266 3659.49 956.078L3659.08 956.078C3658.96 957.141 3658.62 959.167 3658.05 962.156 3657.49 965.146 3656.9 968.068 3656.27 970.922L3653.52 983.391C3653.08 985.37 3652.87 986.995 3652.87 988.266 3652.87 989.203 3653.1 989.865 3653.57 990.25 3654.04 990.635 3654.82 990.87 3655.93 990.953L3655.58 992.484 3644.65 992.484 3644.99 990.953C3645.78 990.828 3646.38 990.625 3646.77 990.344 3647.17 990.062 3647.5 989.672 3647.77 989.172 3648.04 988.672 3648.29 988.062 3648.52 987.344 3648.75 986.625 3649.1 985.234 3649.55 983.172L3654.87 959.109C3655.07 958.214 3655.24 957.359 3655.37 956.547 3655.49 955.734 3655.55 954.911 3655.55 954.078 3655.55 953.099 3655.31 952.417 3654.82 952.031 3654.33 951.646 3653.55 951.422 3652.49 951.359Z" fill-rule="evenodd"/><text fill="#000000" fill-opacity="0" font-family="Arial,Arial_MSFontService,sans-serif" font-size="42.6562" x="3644.65" y="987.152">𝑁</text><path d="M3713.95 978.609 3752.45 978.609 3752.45 982.766 3713.95 982.766ZM3713.95 965.641 3752.45 965.641 3752.45 969.797 3713.95 969.797Z" fill-rule="evenodd"/><text fill="#000000" fill-opacity="0" font-family="Arial,Arial_MSFontService,sans-serif" font-size="17.125" x="3713.95" y="980.625">=</text><path d="M3828.97 951.984C3827.53 951.984 3826.33 952.411 3825.36 953.266 3824.39 954.12 3823.61 955.349 3823.01 956.953 3822.42 958.557 3822 960.51 3821.75 962.812 3821.5 965.115 3821.37 967.714 3821.37 970.609 3821.37 977.401 3822 982.385 3823.26 985.562 3824.53 988.74 3826.48 990.328 3829.12 990.328 3831.65 990.328 3833.51 988.833 3834.73 985.844 3835.95 982.854 3836.56 978.224 3836.56 971.953 3836.56 967.161 3836.25 963.281 3835.62 960.312 3835 957.344 3834.13 955.214 3833.01 953.922 3831.9 952.63 3830.55 951.984 3828.97 951.984ZM3829.12 949.328C3833.69 949.328 3837.08 951.089 3839.31 954.609 3841.54 958.13 3842.66 963.453 3842.66 970.578 3842.66 977.953 3841.46 983.531 3839.08 987.312 3836.69 991.094 3833.21 992.984 3828.62 992.984 3824.12 992.984 3820.78 991.214 3818.58 987.672 3816.38 984.13 3815.28 978.755 3815.28 971.547 3815.28 967.714 3815.62 964.401 3816.3 961.609 3816.97 958.818 3817.92 956.51 3819.14 954.687 3820.36 952.865 3821.82 951.516 3823.53 950.641 3825.24 949.766 3827.1 949.328 3829.12 949.328ZM3801.97 947.766 3804.41 947.766 3803.94 955.016 3785.97 955.016 3785.97 968.734C3787.05 968.276 3788.23 967.932 3789.5 967.703 3790.77 967.474 3792.04 967.359 3793.31 967.359 3795.79 967.359 3797.99 967.865 3799.91 968.875 3801.82 969.885 3803.3 971.323 3804.34 973.187 3805.38 975.052 3805.91 977.214 3805.91 979.672 3805.91 982.464 3805.32 984.859 3804.16 986.859 3802.99 988.859 3801.3 990.38 3799.09 991.422 3796.88 992.464 3794.27 992.984 3791.25 992.984 3787.65 992.984 3783.87 992.245 3779.94 990.766L3779.94 984.141 3783.72 984.141C3784.34 986.266 3785.29 987.828 3786.55 988.828 3787.81 989.828 3789.44 990.328 3791.44 990.328 3794.21 990.328 3796.3 989.495 3797.72 987.828 3799.13 986.161 3799.84 983.672 3799.84 980.359 3799.84 978.151 3799.47 976.323 3798.72 974.875 3797.97 973.427 3796.96 972.38 3795.69 971.734 3794.42 971.089 3792.94 970.766 3791.25 970.766 3789.83 970.766 3788.61 970.854 3787.59 971.031 3786.57 971.208 3785.48 971.484 3784.31 971.859L3781.81 970.391 3781.81 949.828 3799.03 949.828C3799.74 949.828 3800.25 949.771 3800.56 949.656 3800.87 949.542 3801.12 949.365 3801.31 949.125 3801.5 948.885 3801.72 948.432 3801.97 947.766Z" fill-rule="evenodd"/><text fill="#000000" fill-opacity="0" font-family="Arial,Arial_MSFontService,sans-serif" font-size="45.2188" x="3779.94" y="987.332">50</text><path d="M4052.5 1029.5 4128.55 1029.5" stroke="#000000" stroke-width="6.875" stroke-miterlimit="8" fill="none" fill-rule="evenodd"/><path d="M0 0 0.000360892 213.858" stroke="#000000" stroke-width="6.875" stroke-miterlimit="8" fill="none" fill-rule="evenodd" transform="matrix(1 0 0 -1 3103.5 1240.36)"/><path d="M0 0 0.000360892 213.858" stroke="#000000" stroke-width="6.875" stroke-miterlimit="8" fill="none" fill-rule="evenodd" transform="matrix(1 0 0 -1 4123.5 1244.36)"/><path d="M0 0 438.401 0.000360892" stroke="#000000" stroke-width="6.875" stroke-miterlimit="8" fill="none" fill-rule="evenodd" transform="matrix(-1 0 0 1 3537.9 1240.5)"/><rect x="3541" y="1218" width="121" height="44" stroke="#000000" stroke-width="8.02083" stroke-miterlimit="8" fill="none"/><path d="M4125.43 1244.82 3666.5 1242.5" stroke="#000000" stroke-width="6.875" stroke-miterlimit="8" fill="none" fill-rule="evenodd"/><path d="M3584.03 1076.8C3585.35 1076.8 3586.38 1077.24 3587.14 1078.1 3587.9 1078.97 3588.28 1080.1 3588.28 1081.49 3588.28 1082.53 3588.09 1083.61 3587.69 1084.71L3588.1 1084.87C3590.14 1082.1 3592.1 1080.07 3593.99 1078.77 3595.87 1077.48 3597.78 1076.84 3599.72 1076.84 3601.24 1076.84 3602.51 1076.95 3603.53 1077.18L3602.03 1084.18 3598.82 1084.18C3598.69 1083.3 3598.51 1082.63 3598.28 1082.15 3598.06 1081.67 3597.78 1081.34 3597.47 1081.15 3597.16 1080.96 3596.76 1080.87 3596.28 1080.87 3595.53 1080.87 3594.72 1081.19 3593.83 1081.84 3592.95 1082.48 3591.95 1083.49 3590.85 1084.87 3589.74 1086.24 3588.86 1087.57 3588.21 1088.84 3587.55 1090.11 3587 1091.72 3586.57 1093.68L3583.6 1107.21 3578.19 1107.21 3582.72 1087.4C3583.01 1086.15 3583.2 1085.18 3583.28 1084.49 3583.37 1083.8 3583.41 1083.23 3583.41 1082.77 3583.41 1081.94 3583.27 1081.34 3583 1080.96 3582.73 1080.59 3582.31 1080.4 3581.72 1080.4 3581.08 1080.4 3580.39 1080.66 3579.68 1081.2 3578.96 1081.73 3577.97 1082.69 3576.72 1084.09L3574.94 1082.34C3576.86 1080.34 3578.46 1078.91 3579.75 1078.07 3581.05 1077.23 3582.47 1076.8 3584.03 1076.8Z" fill-rule="evenodd"/><text fill="#000000" fill-opacity="0" font-family="Arial,Arial_MSFontService,sans-serif" font-size="30.4062" x="3574.94" y="1103.41">𝑟</text><path d="M3436.06 1070.95C3439.06 1070.95 3442.21 1071.45 3445.5 1072.45L3444.31 1078.14 3441.38 1078.14C3441 1074.99 3439.16 1073.42 3435.85 1073.42 3433.95 1073.42 3432.4 1073.96 3431.19 1075.03 3429.98 1076.1 3429.38 1077.57 3429.38 1079.45 3429.38 1080.8 3429.91 1081.89 3430.99 1082.7 3432.06 1083.51 3433.53 1083.92 3435.41 1083.92L3439.85 1083.92 3439.13 1087.14 3436 1087.14C3434.42 1087.14 3433.12 1087.24 3432.1 1087.45 3431.07 1087.66 3430.12 1088 3429.22 1088.47 3428.32 1088.93 3427.62 1089.43 3427.11 1089.97 3426.6 1090.5 3426.22 1091.1 3425.97 1091.76 3425.72 1092.43 3425.6 1093.19 3425.6 1094.04 3425.6 1095.5 3426.1 1096.62 3427.1 1097.39 3428.1 1098.16 3429.53 1098.54 3431.41 1098.54 3433.05 1098.54 3434.64 1098.31 3436.17 1097.84 3437.71 1097.37 3439.44 1096.48 3441.38 1095.17L3442.91 1097.61C3440.74 1099.11 3438.61 1100.19 3436.52 1100.86 3434.42 1101.52 3432.23 1101.86 3429.94 1101.86 3427.86 1101.86 3426.07 1101.51 3424.58 1100.81 3423.09 1100.11 3421.98 1099.18 3421.24 1098.03 3420.5 1096.87 3420.13 1095.6 3420.13 1094.2 3420.13 1092.05 3420.96 1090.22 3422.63 1088.7 3424.29 1087.18 3426.69 1086.09 3429.81 1085.42L3429.88 1085.11C3426.25 1083.9 3424.44 1081.81 3424.44 1078.86 3424.44 1077.52 3424.86 1076.26 3425.69 1075.06 3426.52 1073.86 3427.83 1072.88 3429.61 1072.11 3431.39 1071.34 3433.54 1070.95 3436.06 1070.95Z" fill-rule="evenodd"/><text fill="#000000" fill-opacity="0" font-family="Arial,Arial_MSFontService,sans-serif" font-size="30.9062" x="3420.13" y="1097.99">𝜀</text><path d="M4025.87 1076.8C4027.18 1076.8 4028.22 1077.24 4028.98 1078.1 4029.74 1078.97 4030.12 1080.1 4030.12 1081.49 4030.12 1082.53 4029.92 1083.61 4029.52 1084.71L4029.93 1084.87C4031.97 1082.1 4033.94 1080.07 4035.82 1078.77 4037.71 1077.48 4039.62 1076.84 4041.56 1076.84 4043.08 1076.84 4044.35 1076.95 4045.37 1077.18L4043.87 1084.18 4040.65 1084.18C4040.52 1083.3 4040.35 1082.63 4040.12 1082.15 4039.89 1081.67 4039.62 1081.34 4039.31 1081.15 4038.99 1080.96 4038.6 1080.87 4038.12 1080.87 4037.37 1080.87 4036.55 1081.19 4035.67 1081.84 4034.78 1082.48 4033.78 1083.49 4032.68 1084.87 4031.58 1086.24 4030.7 1087.57 4030.04 1088.84 4029.38 1090.11 4028.84 1091.72 4028.4 1093.68L4025.43 1107.21 4020.02 1107.21 4024.56 1087.4C4024.85 1086.15 4025.03 1085.18 4025.12 1084.49 4025.2 1083.8 4025.24 1083.23 4025.24 1082.77 4025.24 1081.94 4025.11 1081.34 4024.84 1080.96 4024.57 1080.59 4024.14 1080.4 4023.56 1080.4 4022.91 1080.4 4022.23 1080.66 4021.51 1081.2 4020.79 1081.73 4019.81 1082.69 4018.56 1084.09L4016.77 1082.34C4018.69 1080.34 4020.3 1078.91 4021.59 1078.07 4022.88 1077.23 4024.31 1076.8 4025.87 1076.8Z" fill-rule="evenodd"/><text fill="#000000" fill-opacity="0" font-family="Arial,Arial_MSFontService,sans-serif" font-size="30.4062" x="4016.77" y="1103.41">𝑟</text><path d="M3869.42 1076.8C3872.42 1076.8 3875.56 1077.3 3878.86 1078.3L3877.67 1083.99 3874.73 1083.99C3874.36 1080.85 3872.51 1079.27 3869.2 1079.27 3867.3 1079.27 3865.75 1079.81 3864.54 1080.88 3863.34 1081.96 3862.73 1083.43 3862.73 1085.3 3862.73 1086.66 3863.27 1087.74 3864.34 1088.55 3865.41 1089.37 3866.89 1089.77 3868.76 1089.77L3873.2 1089.77 3872.48 1092.99 3869.36 1092.99C3867.77 1092.99 3866.47 1093.1 3865.45 1093.3 3864.43 1093.51 3863.47 1093.85 3862.57 1094.32 3861.68 1094.79 3860.98 1095.29 3860.47 1095.82 3859.95 1096.35 3859.57 1096.95 3859.32 1097.62 3859.07 1098.28 3858.95 1099.04 3858.95 1099.9 3858.95 1101.36 3859.45 1102.47 3860.45 1103.24 3861.45 1104.01 3862.89 1104.4 3864.76 1104.4 3866.41 1104.4 3868 1104.16 3869.53 1103.7 3871.06 1103.23 3872.79 1102.34 3874.73 1101.02L3876.26 1103.46C3874.1 1104.96 3871.97 1106.04 3869.87 1106.71 3867.78 1107.38 3865.59 1107.71 3863.29 1107.71 3861.21 1107.71 3859.42 1107.36 3857.93 1106.66 3856.44 1105.97 3855.33 1105.04 3854.59 1103.88 3853.85 1102.73 3853.48 1101.45 3853.48 1100.05 3853.48 1097.91 3854.31 1096.08 3855.98 1094.55 3857.65 1093.03 3860.04 1091.94 3863.17 1091.27L3863.23 1090.96C3859.61 1089.75 3857.79 1087.67 3857.79 1084.71 3857.79 1083.38 3858.21 1082.11 3859.04 1080.91 3859.88 1079.72 3861.18 1078.73 3862.97 1077.96 3864.75 1077.19 3866.9 1076.8 3869.42 1076.8Z" fill-rule="evenodd"/><text fill="#000000" fill-opacity="0" font-family="Arial,Arial_MSFontService,sans-serif" font-size="30.9062" x="3853.48" y="1103.85">𝜀</text><path d="M3608.75 1290.59C3607.65 1290.59 3606.48 1290.63 3605.25 1290.72L3601.25 1308.81 3604.94 1308.81C3607.96 1308.81 3610.35 1308.4 3612.1 1307.59 3613.85 1306.78 3615.23 1305.44 3616.25 1303.59 3617.27 1301.74 3617.78 1299.74 3617.78 1297.59 3617.78 1296.69 3617.7 1295.9 3617.53 1295.2 3617.37 1294.5 3617.15 1293.92 3616.88 1293.47 3616.61 1293.01 3616.26 1292.6 3615.85 1292.25 3615.43 1291.89 3614.91 1291.59 3614.28 1291.32 3613.66 1291.06 3612.94 1290.88 3612.11 1290.76 3611.29 1290.65 3610.17 1290.59 3608.75 1290.59ZM3596.22 1287.84 3610.13 1287.84C3612.34 1287.84 3614.14 1287.97 3615.53 1288.23 3616.93 1288.49 3618.12 1288.88 3619.11 1289.4 3620.1 1289.92 3620.93 1290.6 3621.6 1291.42 3622.26 1292.24 3622.76 1293.17 3623.1 1294.2 3623.43 1295.23 3623.6 1296.33 3623.6 1297.5 3623.6 1300.71 3622.62 1303.43 3620.66 1305.68 3618.7 1307.93 3615.82 1309.64 3612 1310.81L3612 1311.15C3613 1311.9 3613.81 1312.8 3614.43 1313.84 3615.04 1314.88 3615.53 1316.33 3615.91 1318.18L3616.63 1321.81C3616.86 1322.96 3617.12 1323.99 3617.41 1324.9 3617.7 1325.82 3618.05 1326.55 3618.46 1327.09 3618.86 1327.63 3619.32 1328.04 3619.83 1328.31 3620.34 1328.58 3621.09 1328.8 3622.07 1328.97L3621.75 1330.5 3613.1 1330.5C3612.43 1328.64 3611.84 1326.43 3611.32 1323.87L3609.94 1317.25C3609.71 1316.1 3609.44 1315.14 3609.11 1314.36 3608.79 1313.57 3608.4 1312.97 3607.96 1312.54 3607.51 1312.12 3606.99 1311.84 3606.39 1311.7 3605.8 1311.56 3605.08 1311.5 3604.22 1311.5L3600.66 1311.5 3598.47 1321.4C3598.28 1322.22 3598.15 1322.86 3598.08 1323.34 3598.01 1323.82 3597.95 1324.32 3597.89 1324.86 3597.84 1325.39 3597.82 1325.86 3597.82 1326.28 3597.82 1326.92 3597.92 1327.43 3598.13 1327.79 3598.34 1328.16 3598.65 1328.42 3599.07 1328.59 3599.48 1328.76 3600.2 1328.88 3601.22 1328.97L3600.88 1330.5 3588.03 1330.5 3588.38 1328.97C3589.17 1328.84 3589.76 1328.64 3590.16 1328.36 3590.56 1328.07 3590.89 1327.68 3591.16 1327.18 3591.43 1326.68 3591.68 1326.07 3591.91 1325.36 3592.14 1324.64 3592.48 1323.25 3592.94 1321.18L3598.25 1297.12C3598.71 1295.04 3598.94 1293.39 3598.94 1292.18 3598.94 1291.16 3598.7 1290.46 3598.22 1290.06 3597.74 1289.66 3596.96 1289.43 3595.88 1289.37Z" fill-rule="evenodd"/><text fill="#000000" fill-opacity="0" font-family="Arial,Arial_MSFontService,sans-serif" font-size="42.6562" x="3588.03" y="1325.16">𝑅</text><path d="M1.94857e-05-3.4375 40.7487-3.43727 40.7487 3.43773-1.94857e-05 3.4375ZM36.1655-13.7498 63.6654 0.000360892 36.1653 13.7502Z" transform="matrix(-1 0 0 1 3901.17 1243.5)"/><path d="M4126.94 1114.5 4126.94 1167.56 4120.06 1167.56 4120.06 1114.5ZM4137.25 1162.98 4123.5 1190.48 4109.75 1162.98Z"/><path d="M3.4375-1.63273e-05 3.43775 53.0645-3.43725 53.0645-3.4375 1.63273e-05ZM13.7502 48.4811 0.000360892 75.9812-13.7498 48.4813Z" transform="matrix(1 0 0 -1 3103.5 1212.48)"/><path d="M1.94857e-05-3.4375 40.7487-3.43727 40.7487 3.43773-1.94857e-05 3.4375ZM36.1655-13.7498 63.6654 0.000360892 36.1653 13.7502Z" transform="matrix(-1 0 0 1 3320.17 1240.5)"/></g></svg>