<svg width="448" height="419" xmlns="http://www.w3.org/2000/svg" xmlns:xlink="http://www.w3.org/1999/xlink" xml:space="preserve" overflow="hidden"><g transform="translate(-3315 -1523)"><path d="M3484.5 1650.02 3484.5 1596.5" stroke="#000000" stroke-width="14.8958" stroke-miterlimit="8" fill="none" fill-rule="evenodd"/><path d="M3505.5 1696.15 3505.5 1540.5" stroke="#000000" stroke-width="6.875" stroke-miterlimit="8" fill="none" fill-rule="evenodd"/><path d="M3505.5 1622.5 3555.13 1622.5" stroke="#000000" stroke-width="6.875" stroke-miterlimit="8" fill="none" fill-rule="evenodd"/><path d="M3672.63 1553.3C3673.94 1553.3 3674.98 1553.73 3675.74 1554.6 3676.5 1555.46 3676.88 1556.59 3676.88 1557.99 3676.88 1559.03 3676.68 1560.1 3676.29 1561.21L3676.69 1561.36C3678.74 1558.59 3680.7 1556.56 3682.59 1555.27 3684.47 1553.98 3686.38 1553.33 3688.32 1553.33 3689.84 1553.33 3691.11 1553.45 3692.13 1553.68L3690.63 1560.68 3687.41 1560.68C3687.29 1559.8 3687.11 1559.12 3686.88 1558.65 3686.65 1558.17 3686.38 1557.83 3686.07 1557.65 3685.76 1557.46 3685.36 1557.36 3684.88 1557.36 3684.13 1557.36 3683.31 1557.69 3682.43 1558.33 3681.54 1558.98 3680.55 1559.99 3679.44 1561.36 3678.34 1562.74 3677.46 1564.06 3676.8 1565.33 3676.15 1566.6 3675.6 1568.22 3675.16 1570.18L3672.19 1583.71 3666.79 1583.71 3671.32 1563.9C3671.61 1562.65 3671.8 1561.68 3671.88 1560.99 3671.97 1560.3 3672.01 1559.73 3672.01 1559.27 3672.01 1558.44 3671.87 1557.83 3671.6 1557.46 3671.33 1557.08 3670.9 1556.9 3670.32 1556.9 3669.67 1556.9 3668.99 1557.16 3668.27 1557.69 3667.55 1558.22 3666.57 1559.19 3665.32 1560.58L3663.54 1558.83C3665.46 1556.83 3667.06 1555.41 3668.35 1554.57 3669.64 1553.72 3671.07 1553.3 3672.63 1553.3ZM3645.54 1543.21C3644.1 1543.21 3642.9 1543.64 3641.93 1544.49 3640.96 1545.34 3640.18 1546.57 3639.59 1548.18 3638.99 1549.78 3638.57 1551.73 3638.32 1554.04 3638.07 1556.34 3637.94 1558.94 3637.94 1561.83 3637.94 1568.62 3638.57 1573.61 3639.84 1576.79 3641.1 1579.96 3643.05 1581.55 3645.69 1581.55 3648.22 1581.55 3650.09 1580.06 3651.3 1577.07 3652.52 1574.08 3653.13 1569.45 3653.13 1563.18 3653.13 1558.39 3652.82 1554.51 3652.19 1551.54 3651.57 1548.57 3650.7 1546.44 3649.59 1545.15 3648.47 1543.85 3647.12 1543.21 3645.54 1543.21ZM3645.69 1540.55C3650.26 1540.55 3653.65 1542.31 3655.88 1545.83 3658.11 1549.35 3659.23 1554.68 3659.23 1561.8 3659.23 1569.18 3658.03 1574.76 3655.65 1578.54 3653.26 1582.32 3649.78 1584.21 3645.19 1584.21 3640.69 1584.21 3637.35 1582.44 3635.15 1578.9 3632.95 1575.35 3631.85 1569.98 3631.85 1562.77 3631.85 1558.94 3632.19 1555.62 3632.87 1552.83 3633.54 1550.04 3634.49 1547.73 3635.71 1545.91 3636.93 1544.09 3638.39 1542.74 3640.1 1541.86 3641.81 1540.99 3643.67 1540.55 3645.69 1540.55ZM3618.54 1538.99 3620.98 1538.99 3620.51 1546.24 3602.54 1546.24 3602.54 1559.96C3603.62 1559.5 3604.8 1559.16 3606.07 1558.93 3607.34 1558.7 3608.61 1558.58 3609.88 1558.58 3612.36 1558.58 3614.56 1559.09 3616.48 1560.1 3618.39 1561.11 3619.87 1562.55 3620.91 1564.41 3621.96 1566.28 3622.48 1568.44 3622.48 1570.9 3622.48 1573.69 3621.89 1576.08 3620.73 1578.08 3619.56 1580.08 3617.87 1581.6 3615.66 1582.65 3613.46 1583.69 3610.84 1584.21 3607.82 1584.21 3604.22 1584.21 3600.44 1583.47 3596.51 1581.99L3596.51 1575.36 3600.29 1575.36C3600.91 1577.49 3601.86 1579.05 3603.12 1580.05 3604.38 1581.05 3606.01 1581.55 3608.01 1581.55 3610.78 1581.55 3612.87 1580.72 3614.29 1579.05 3615.71 1577.39 3616.41 1574.9 3616.41 1571.58 3616.41 1569.37 3616.04 1567.55 3615.29 1566.1 3614.54 1564.65 3613.53 1563.6 3612.26 1562.96 3610.99 1562.31 3609.51 1561.99 3607.82 1561.99 3606.4 1561.99 3605.18 1562.08 3604.16 1562.26 3603.14 1562.43 3602.05 1562.71 3600.88 1563.08L3598.38 1561.61 3598.38 1541.05 3615.6 1541.05C3616.31 1541.05 3616.82 1540.99 3617.13 1540.88 3617.44 1540.77 3617.69 1540.59 3617.88 1540.35 3618.07 1540.11 3618.29 1539.66 3618.54 1538.99Z" fill-rule="evenodd"/><text fill="#000000" fill-opacity="0" font-family="Arial,Arial_MSFontService,sans-serif" font-size="45.2188" x="3596.51" y="1578.56">50𝑟</text><path d="M3429.15 1542.32C3427.72 1542.32 3426.51 1542.75 3425.55 1543.6 3424.58 1544.45 3423.8 1545.68 3423.2 1547.29 3422.61 1548.89 3422.19 1550.84 3421.94 1553.15 3421.69 1555.45 3421.56 1558.05 3421.56 1560.94 3421.56 1567.74 3422.19 1572.72 3423.45 1575.9 3424.71 1579.07 3426.67 1580.66 3429.31 1580.66 3431.83 1580.66 3433.7 1579.17 3434.92 1576.18 3436.14 1573.19 3436.75 1568.56 3436.75 1562.29 3436.75 1557.5 3436.44 1553.62 3435.81 1550.65 3435.19 1547.68 3434.32 1545.55 3433.2 1544.26 3432.09 1542.96 3430.74 1542.32 3429.15 1542.32ZM3429.31 1539.66C3433.87 1539.66 3437.27 1541.42 3439.5 1544.94 3441.73 1548.46 3442.84 1553.79 3442.84 1560.91 3442.84 1568.29 3441.65 1573.87 3439.26 1577.65 3436.88 1581.43 3433.39 1583.32 3428.81 1583.32 3424.31 1583.32 3420.96 1581.55 3418.76 1578.01 3416.57 1574.46 3415.47 1569.09 3415.47 1561.88 3415.47 1558.05 3415.81 1554.74 3416.48 1551.94 3417.16 1549.15 3418.11 1546.84 3419.33 1545.02 3420.55 1543.2 3422.01 1541.85 3423.72 1540.97 3425.43 1540.1 3427.29 1539.66 3429.31 1539.66ZM3402.15 1538.1 3404.59 1538.1 3404.12 1545.35 3386.15 1545.35 3386.15 1559.07C3387.24 1558.61 3388.42 1558.27 3389.69 1558.04 3390.96 1557.81 3392.23 1557.69 3393.5 1557.69 3395.98 1557.69 3398.18 1558.2 3400.09 1559.21 3402.01 1560.22 3403.49 1561.66 3404.53 1563.52 3405.57 1565.39 3406.09 1567.55 3406.09 1570.01 3406.09 1572.8 3405.51 1575.19 3404.34 1577.19 3403.18 1579.19 3401.49 1580.71 3399.28 1581.76 3397.07 1582.8 3394.46 1583.32 3391.44 1583.32 3387.83 1583.32 3384.06 1582.58 3380.12 1581.1L3380.12 1574.47 3383.9 1574.47C3384.53 1576.6 3385.47 1578.16 3386.73 1579.16 3387.99 1580.16 3389.62 1580.66 3391.62 1580.66 3394.39 1580.66 3396.49 1579.83 3397.9 1578.16 3399.32 1576.5 3400.03 1574.01 3400.03 1570.69 3400.03 1568.49 3399.65 1566.66 3398.9 1565.21 3398.15 1563.76 3397.14 1562.71 3395.87 1562.07 3394.6 1561.42 3393.12 1561.1 3391.44 1561.1 3390.02 1561.1 3388.8 1561.19 3387.78 1561.37 3386.76 1561.54 3385.67 1561.82 3384.5 1562.19L3382 1560.72 3382 1540.16 3399.22 1540.16C3399.93 1540.16 3400.44 1540.11 3400.75 1539.99 3401.06 1539.88 3401.31 1539.7 3401.5 1539.46 3401.69 1539.22 3401.9 1538.77 3402.15 1538.1Z" fill-rule="evenodd"/><text fill="#000000" fill-opacity="0" font-family="Arial,Arial_MSFontService,sans-serif" font-size="45.2188" x="3380.12" y="1577.67">50</text><path d="M3465.23 1552.41C3468.23 1552.41 3471.37 1552.91 3474.66 1553.91L3473.48 1559.6 3470.54 1559.6C3470.16 1556.45 3468.32 1554.88 3465.01 1554.88 3463.11 1554.88 3461.56 1555.42 3460.35 1556.49 3459.14 1557.56 3458.54 1559.04 3458.54 1560.91 3458.54 1562.27 3459.08 1563.35 3460.15 1564.16 3461.22 1564.97 3462.7 1565.38 3464.57 1565.38L3469.01 1565.38 3468.29 1568.6 3465.16 1568.6C3463.58 1568.6 3462.28 1568.7 3461.26 1568.91 3460.24 1569.12 3459.28 1569.46 3458.38 1569.93 3457.49 1570.4 3456.78 1570.9 3456.27 1571.43 3455.76 1571.96 3455.38 1572.56 3455.13 1573.22 3454.88 1573.89 3454.76 1574.65 3454.76 1575.51 3454.76 1576.96 3455.26 1578.08 3456.26 1578.85 3457.26 1579.62 3458.7 1580.01 3460.57 1580.01 3462.22 1580.01 3463.81 1579.77 3465.34 1579.3 3466.87 1578.83 3468.6 1577.94 3470.54 1576.63L3472.07 1579.07C3469.9 1580.57 3467.77 1581.65 3465.68 1582.32 3463.59 1582.99 3461.39 1583.32 3459.1 1583.32 3457.02 1583.32 3455.23 1582.97 3453.74 1582.27 3452.25 1581.57 3451.14 1580.65 3450.4 1579.49 3449.66 1578.33 3449.29 1577.06 3449.29 1575.66 3449.29 1573.52 3450.12 1571.68 3451.79 1570.16 3453.46 1568.64 3455.85 1567.55 3458.98 1566.88L3459.04 1566.57C3455.41 1565.36 3453.6 1563.28 3453.6 1560.32 3453.6 1558.99 3454.02 1557.72 3454.85 1556.52 3455.69 1555.32 3456.99 1554.34 3458.77 1553.57 3460.56 1552.8 3462.71 1552.41 3465.23 1552.41Z" fill-rule="evenodd"/><text fill="#000000" fill-opacity="0" font-family="Arial,Arial_MSFontService,sans-serif" font-size="30.9062" x="3449.29" y="1579.46">𝜀</text><rect x="3558" y="1602" width="104" height="37.0001" stroke="#000000" stroke-width="8.02083" stroke-miterlimit="8" fill="none"/><path d="M3340.5 1622.5 3478.57 1622.5" stroke="#000000" stroke-width="6.875" stroke-miterlimit="8" fill="none" fill-rule="evenodd"/><path d="M3660.5 1623.5 3736.55 1623.5" stroke="#000000" stroke-width="6.875" stroke-miterlimit="8" fill="none" fill-rule="evenodd"/><path d="M0 0 0.000360892 213.858" stroke="#000000" stroke-width="6.875" stroke-miterlimit="8" fill="none" fill-rule="evenodd" transform="matrix(1 0 0 -1 3344.5 1834.36)"/><path d="M0 0 163.11 0.000360892" stroke="#000000" stroke-width="6.875" stroke-miterlimit="8" fill="none" fill-rule="evenodd" transform="matrix(-1 0 0 1 3503.61 1833.5)"/><rect x="3502" y="1812" width="121" height="43" stroke="#000000" stroke-width="8.02083" stroke-miterlimit="8" fill="none"/><path d="M3569.92 1884.34C3568.81 1884.34 3567.65 1884.39 3566.42 1884.47L3562.42 1902.56 3566.1 1902.56C3569.12 1902.56 3571.51 1902.16 3573.26 1901.34 3575.01 1900.53 3576.4 1899.2 3577.42 1897.34 3578.44 1895.49 3578.95 1893.49 3578.95 1891.34 3578.95 1890.45 3578.86 1889.65 3578.7 1888.95 3578.53 1888.26 3578.31 1887.68 3578.04 1887.22 3577.77 1886.76 3577.43 1886.36 3577.01 1886 3576.59 1885.65 3576.07 1885.34 3575.45 1885.08 3574.82 1884.82 3574.1 1884.63 3573.28 1884.52 3572.45 1884.4 3571.33 1884.34 3569.92 1884.34ZM3557.39 1881.59 3571.29 1881.59C3573.5 1881.59 3575.3 1881.73 3576.7 1881.99 3578.09 1882.25 3579.29 1882.64 3580.28 1883.16 3581.27 1883.68 3582.09 1884.35 3582.76 1885.17 3583.43 1886 3583.93 1886.92 3584.26 1887.95 3584.59 1888.99 3584.76 1890.08 3584.76 1891.25 3584.76 1894.46 3583.78 1897.19 3581.82 1899.44 3579.86 1901.69 3576.98 1903.4 3573.17 1904.56L3573.17 1904.91C3574.17 1905.66 3574.97 1906.55 3575.59 1907.59 3576.2 1908.64 3576.7 1910.08 3577.07 1911.94L3577.79 1915.56C3578.02 1916.71 3578.28 1917.74 3578.57 1918.66 3578.86 1919.57 3579.21 1920.3 3579.62 1920.84 3580.03 1921.39 3580.48 1921.79 3580.99 1922.06 3581.51 1922.33 3582.25 1922.55 3583.23 1922.72L3582.92 1924.25 3574.26 1924.25C3573.59 1922.4 3573 1920.19 3572.48 1917.63L3571.1 1911C3570.87 1909.86 3570.6 1908.89 3570.28 1908.11 3569.95 1907.33 3569.57 1906.73 3569.12 1906.3 3568.67 1905.87 3568.15 1905.59 3567.56 1905.45 3566.96 1905.32 3566.24 1905.25 3565.39 1905.25L3561.82 1905.25 3559.64 1915.16C3559.45 1915.97 3559.32 1916.62 3559.24 1917.09 3559.17 1917.57 3559.11 1918.08 3559.06 1918.61 3559.01 1919.14 3558.98 1919.62 3558.98 1920.03 3558.98 1920.68 3559.08 1921.18 3559.29 1921.55 3559.5 1921.91 3559.81 1922.18 3560.23 1922.34 3560.65 1922.51 3561.36 1922.64 3562.39 1922.72L3562.04 1924.25 3549.2 1924.25 3549.54 1922.72C3550.33 1922.59 3550.93 1922.39 3551.32 1922.11 3551.72 1921.83 3552.05 1921.44 3552.32 1920.94 3552.59 1920.44 3552.84 1919.83 3553.07 1919.11 3553.3 1918.39 3553.65 1917 3554.1 1914.94L3559.42 1890.88C3559.87 1888.79 3560.1 1887.15 3560.1 1885.94 3560.1 1884.92 3559.86 1884.21 3559.39 1883.81 3558.91 1883.42 3558.12 1883.19 3557.04 1883.13Z" fill-rule="evenodd"/><text fill="#000000" fill-opacity="0" font-family="Arial,Arial_MSFontService,sans-serif" font-size="42.6562" x="3549.2" y="1918.92">𝑅</text><path d="M3.4375-1.63273e-05 3.43775 53.0645-3.43725 53.0645-3.4375 1.63273e-05ZM13.7502 48.4811 0.000360892 75.9812-13.7498 48.4813Z" transform="matrix(1 0 0 -1 3343.5 1758.48)"/><path d="M3623.5 1831.5 3737.98 1831.5" stroke="#000000" stroke-width="6.875" stroke-miterlimit="8" fill="none" fill-rule="evenodd"/><path d="M3734.5 1620.5 3734.5 1829.07" stroke="#000000" stroke-width="6.875" stroke-miterlimit="8" fill="none" fill-rule="evenodd"/><path d="M3737.94 1683.5 3737.94 1736.56 3731.06 1736.56 3731.06 1683.5ZM3748.25 1731.98 3734.5 1759.48 3720.75 1731.98Z"/><path d="M2.1302e-05-3.4375 35.3206-3.43728 35.3205 3.43772-2.1302e-05 3.4375ZM30.7373-13.7498 58.2372 0.000360892 30.7371 13.7502Z" transform="matrix(-1 0 0 1 3455.74 1833.5)"/><path d="M2.1302e-05-3.4375 35.3206-3.43728 35.3205 3.43772-2.1302e-05 3.4375ZM30.7373-13.7498 58.2372 0.000360892 30.7371 13.7502Z" transform="matrix(-1 0 0 1 3712.74 1831.5)"/></g></svg>