<svg width="911" height="1433" xmlns="http://www.w3.org/2000/svg" xmlns:xlink="http://www.w3.org/1999/xlink" xml:space="preserve" overflow="hidden"><g transform="translate(-978 -628)"><path d="M1089.5 1899.5 1089.5 2057.99" stroke="#000000" stroke-width="4.58333" stroke-miterlimit="8" stroke-dasharray="36.6667 13.75 4.58333 13.75" fill="none" fill-rule="evenodd"/><path d="M1023.5 1899.5 1881.58 1899.5" stroke="#000000" stroke-width="4.58333" stroke-miterlimit="8" stroke-dasharray="36.6667 13.75 4.58333 13.75" fill="none" fill-rule="evenodd"/><path d="M1088.5 629.5 1088.5 1894.5" stroke="#000000" stroke-width="4.58333" stroke-miterlimit="8" fill="none" fill-rule="evenodd"/><path d="M1088.5 629.5 1725.34 1634.45" stroke="#000000" stroke-width="4.58333" stroke-miterlimit="8" fill="none" fill-rule="evenodd"/><path d="M1761.07 1593.36C1559.03 1801.23 1285.56 1911.37 1004.93 1897.9" stroke="#000000" stroke-width="2.29167" stroke-miterlimit="8" stroke-dasharray="9.16667 6.875" fill="none" fill-rule="evenodd"/><path d="M978.5 1634.5 1881.42 1634.5" stroke="#000000" stroke-width="4.58333" stroke-miterlimit="8" stroke-dasharray="36.6667 13.75 4.58333 13.75" fill="none" fill-rule="evenodd"/><path d="M1678.5 1634C1678.5 1612.74 1695.29 1595.5 1716 1595.5 1736.71 1595.5 1753.5 1612.74 1753.5 1634 1753.5 1655.26 1736.71 1672.5 1716 1672.5 1695.29 1672.5 1678.5 1655.26 1678.5 1634Z" stroke="#000000" stroke-width="4.58333" stroke-miterlimit="8" fill="#A6A6A6" fill-rule="evenodd"/><path d="M1051.5 1894C1051.5 1872.74 1068.29 1855.5 1089 1855.5 1109.71 1855.5 1126.5 1872.74 1126.5 1894 1126.5 1915.26 1109.71 1932.5 1089 1932.5 1068.29 1932.5 1051.5 1915.26 1051.5 1894Z" stroke="#000000" stroke-width="4.58333" stroke-miterlimit="8" fill="#A6A6A6" fill-rule="evenodd"/><path d="M1195.24 795.144C1172.61 837.376 1123.16 854.948 1084.81 834.392" stroke="#000000" stroke-width="4.58333" stroke-miterlimit="8" fill="none" fill-rule="evenodd"/><path d="M1164.53 860.946C1161.78 860.946 1159.22 862.174 1156.85 864.629 1154.48 867.085 1152.59 870.409 1151.17 874.602 1149.75 878.795 1149.03 883.092 1149.03 887.495 1149.03 890.519 1149.48 892.766 1150.38 894.233 1151.28 895.7 1152.63 896.434 1154.42 896.434 1157 896.434 1159.65 894.922 1162.38 891.897 1165.1 888.872 1167.63 884.665 1169.97 879.274 1170.48 876.159 1170.73 873.404 1170.73 871.008 1170.73 867.594 1170.23 865.064 1169.23 863.417 1168.22 861.769 1166.66 860.946 1164.53 860.946ZM1164.85 857.397C1168.2 857.397 1170.83 858.445 1172.73 860.542 1174.63 862.638 1175.69 865.708 1175.9 869.751L1176.3 869.706 1182.19 858.116 1189.96 858.116 1189.51 860.407C1185.8 865.438 1181.42 871.622 1176.39 878.96 1175.64 884.68 1175.27 888.723 1175.27 891.088 1175.27 893.065 1175.49 894.48 1175.94 895.334 1176.39 896.187 1177.14 896.614 1178.19 896.614 1179.03 896.614 1179.98 896.262 1181.04 895.558 1182.1 894.854 1183.25 893.769 1184.48 892.301L1187.08 894.727C1184.57 897.422 1182.38 899.272 1180.52 900.275 1178.67 901.278 1176.75 901.78 1174.77 901.78 1170.79 901.78 1168.8 898.875 1168.8 893.065 1168.8 891.777 1168.89 890.355 1169.07 888.797L1168.62 888.797C1165.54 893.409 1162.62 896.726 1159.86 898.748 1157.1 900.769 1154.16 901.78 1151.01 901.78 1148.82 901.78 1146.98 901.151 1145.49 899.893 1143.99 898.635 1142.88 896.966 1142.16 894.884 1141.44 892.803 1141.08 890.534 1141.08 888.079 1141.08 882.718 1142.1 877.634 1144.14 872.828 1146.17 868.021 1149 864.248 1152.63 861.507 1156.25 858.767 1160.32 857.397 1164.85 857.397Z" fill-rule="evenodd"/><text fill="#000000" fill-opacity="0" font-family="Arial,Arial_MSFontService,sans-serif" font-size="44.3828" x="1141.08" y="896.232">๐ผ</text><path d="M1475.67 1068.19C1474.2 1068.19 1472.92 1068.76 1471.83 1069.9 1470.74 1071.03 1469.75 1072.77 1468.87 1075.11 1467.98 1077.44 1467.12 1080.53 1466.28 1084.36L1463.54 1096.76C1468.51 1093.76 1472.34 1090.18 1475.02 1086 1477.7 1081.82 1479.04 1077.49 1479.04 1072.99 1479.04 1071.47 1478.75 1070.28 1478.16 1069.45 1477.58 1068.61 1476.75 1068.19 1475.67 1068.19ZM1476.26 1064.64C1478.26 1064.64 1479.91 1065.07 1481.2 1065.92 1482.48 1066.77 1483.41 1067.91 1483.98 1069.33 1484.55 1070.76 1484.84 1072.35 1484.84 1074.12 1484.84 1076.9 1484.19 1079.82 1482.9 1082.86 1481.62 1085.9 1479.4 1088.92 1476.26 1091.93 1473.11 1094.94 1468.54 1098.02 1462.55 1101.16L1459.68 1114.14C1459.02 1117.11 1458.69 1119.32 1458.69 1120.79 1458.69 1121.99 1458.91 1122.86 1459.34 1123.4 1459.78 1123.94 1460.41 1124.21 1461.25 1124.21 1462.06 1124.21 1462.85 1124.01 1463.61 1123.62 1464.37 1123.23 1465.15 1122.67 1465.95 1121.94 1466.74 1121.2 1467.53 1120.33 1468.33 1119.31 1469.12 1118.29 1470.03 1117.03 1471.04 1115.54L1474.23 1117.87C1472.17 1120.72 1470.37 1122.89 1468.84 1124.39 1467.32 1125.88 1465.68 1127.09 1463.95 1128 1462.21 1128.92 1460.34 1129.37 1458.33 1129.37 1456.09 1129.37 1454.35 1128.69 1453.12 1127.33 1451.89 1125.97 1451.28 1124.12 1451.28 1121.78 1451.28 1119.5 1451.7 1116.6 1452.54 1113.07L1454.51 1104.35C1451.19 1105.97 1447.24 1107.61 1442.65 1109.29L1441.58 1105.56C1446.4 1103.95 1451.04 1102.07 1455.5 1099.95L1458.29 1087.24C1459.96 1079.6 1462.33 1073.92 1465.38 1070.21 1468.44 1066.5 1472.06 1064.64 1476.26 1064.64Z" fill-rule="evenodd"/><text fill="#000000" fill-opacity="0" font-family="Arial,Arial_MSFontService,sans-serif" font-size="64.7324" x="1441.58" y="1121.28">โ</text><path d="M1806.79 1652.83 1806.79 1882.07 1802.21 1882.07 1802.21 1652.83ZM1804.5 1652.83 1790.75 1662 1804.5 1634.5 1818.25 1662ZM1804.5 1882.07 1818.25 1872.91 1804.5 1900.41 1790.75 1872.91Z"/><path d="M1852.57 1735.54 1854.92 1735.54 1847.95 1763.62 1848.44 1763.79C1851 1760.38 1853.43 1757.92 1855.71 1756.39 1858 1754.86 1860.3 1754.1 1862.62 1754.1 1865.14 1754.1 1867.07 1754.82 1868.42 1756.27 1869.77 1757.71 1870.44 1759.72 1870.44 1762.29 1870.44 1763.99 1870.05 1766.41 1869.27 1769.54L1866.63 1780.16C1865.91 1783.1 1865.54 1785.18 1865.54 1786.4 1865.54 1787.48 1865.72 1788.26 1866.07 1788.75 1866.42 1789.24 1866.97 1789.48 1867.73 1789.48 1868.54 1789.48 1869.4 1789.15 1870.32 1788.49 1871.24 1787.82 1872.54 1786.56 1874.21 1784.7L1876.52 1786.97C1873.93 1789.7 1871.8 1791.57 1870.14 1792.6 1868.48 1793.63 1866.61 1794.14 1864.53 1794.14 1862.77 1794.14 1861.37 1793.52 1860.33 1792.28 1859.29 1791.03 1858.77 1789.43 1858.77 1787.45 1858.77 1785.7 1859.22 1783.12 1860.11 1779.71L1861.85 1772.7C1862.47 1770.19 1862.89 1768.3 1863.11 1767.05 1863.33 1765.79 1863.43 1764.81 1863.43 1764.11 1863.43 1762.19 1863.12 1760.83 1862.5 1760.04 1861.88 1759.24 1860.87 1758.84 1859.46 1758.84 1858.35 1758.84 1857.12 1759.3 1855.77 1760.22 1854.42 1761.14 1853 1762.54 1851.52 1764.41 1850.03 1766.29 1848.85 1768.09 1847.97 1769.8 1847.09 1771.52 1846.4 1773.57 1845.88 1775.94L1842.2 1793.49 1835.19 1793.49 1845.6 1747.17C1846.25 1744.28 1846.57 1742.28 1846.57 1741.17 1846.57 1740.04 1846.23 1739.24 1845.54 1738.78 1844.85 1738.32 1843.62 1738.06 1841.83 1738.01L1842.32 1735.9Z" fill-rule="evenodd"/><text fill="#000000" fill-opacity="0" font-family="Arial,Arial_MSFontService,sans-serif" font-size="58.6025" x="1835.19" y="1786.81">โ</text><path d="M1715.5 1899.5 1715.5 2057.99" stroke="#000000" stroke-width="4.58333" stroke-miterlimit="8" stroke-dasharray="36.6667 13.75 4.58333 13.75" fill="none" fill-rule="evenodd"/><path d="M1110.83 2006.21 1687.29 2006.21 1687.29 2010.79 1110.83 2010.79ZM1110.83 2008.5 1120 2022.25 1092.5 2008.5 1120 1994.75ZM1687.29 2008.5 1678.12 1994.75 1705.62 2008.5 1678.12 2022.25Z"/><path d="M1401.46 1953.33C1402.3 1953.33 1403.03 1953.42 1403.67 1953.61 1404.3 1953.8 1404.86 1954.09 1405.35 1954.49 1405.84 1954.88 1406.27 1955.38 1406.65 1956 1407.03 1956.63 1407.39 1957.47 1407.74 1958.54 1408.09 1959.61 1408.42 1960.93 1408.73 1962.51 1409.05 1964.09 1409.32 1965.73 1409.57 1967.43L1409.97 1967.43C1412.56 1963.79 1414.53 1961.12 1415.87 1959.43 1417.2 1957.74 1418.33 1956.48 1419.25 1955.66 1420.17 1954.84 1421.05 1954.26 1421.91 1953.92 1422.76 1953.58 1423.88 1953.41 1425.29 1953.41 1426.56 1953.41 1427.6 1953.57 1428.41 1953.9L1426.79 1961.23 1423.95 1961.23C1423.79 1960.1 1423.32 1959.53 1422.53 1959.53 1422.29 1959.53 1422.03 1959.57 1421.76 1959.65 1421.49 1959.73 1421.16 1959.91 1420.77 1960.18 1420.38 1960.45 1419.81 1960.98 1419.05 1961.76 1418.29 1962.54 1417.44 1963.5 1416.5 1964.64 1415.55 1965.77 1414.58 1966.96 1413.58 1968.2L1410.82 1971.65C1411.31 1974.24 1411.77 1976.48 1412.2 1978.38 1412.63 1980.27 1413.02 1981.84 1413.35 1983.1 1413.69 1984.35 1413.99 1985.35 1414.25 1986.08 1414.5 1986.81 1414.78 1987.35 1415.08 1987.72 1415.37 1988.08 1415.68 1988.34 1415.99 1988.49 1416.3 1988.64 1416.66 1988.71 1417.06 1988.71 1417.79 1988.71 1418.5 1988.43 1419.19 1987.86 1419.88 1987.29 1420.87 1986.01 1422.17 1984.01L1424.8 1985.75C1422.91 1988.56 1421.2 1990.54 1419.68 1991.69 1418.15 1992.84 1416.33 1993.41 1414.23 1993.41 1413.06 1993.41 1412.08 1993.2 1411.27 1992.78 1410.46 1992.36 1409.75 1991.7 1409.16 1990.78 1408.57 1989.86 1408.04 1988.43 1407.58 1986.48 1406.74 1983.02 1406.23 1980.38 1406.04 1978.54L1405.63 1978.54C1402.77 1982.56 1400.64 1985.45 1399.25 1987.21 1397.86 1988.97 1396.71 1990.26 1395.81 1991.1 1394.9 1991.94 1394.02 1992.53 1393.17 1992.86 1392.32 1993.2 1391.19 1993.37 1389.79 1993.37 1388.52 1993.37 1387.48 1993.21 1386.67 1992.88L1388.29 1985.55 1391.13 1985.55C1391.29 1986.68 1391.76 1987.25 1392.54 1987.25 1392.92 1987.25 1393.32 1987.15 1393.74 1986.95 1394.16 1986.74 1394.76 1986.26 1395.54 1985.49 1396.33 1984.72 1397.41 1983.51 1398.78 1981.86 1400.16 1980.21 1402.16 1977.74 1404.78 1974.44 1404.38 1972.31 1403.96 1970.26 1403.53 1968.28 1403.09 1966.31 1402.65 1964.48 1402.19 1962.77 1401.73 1961.07 1401.35 1959.96 1401.05 1959.43 1400.76 1958.9 1400.44 1958.54 1400.1 1958.34 1399.76 1958.13 1399.34 1958.03 1398.83 1958.03 1398.26 1958.03 1397.74 1958.16 1397.29 1958.42 1396.83 1958.67 1396.33 1959.12 1395.79 1959.75 1395.25 1960.39 1394.53 1961.38 1393.64 1962.73L1391 1960.99C1392.71 1958.42 1394.34 1956.5 1395.91 1955.23 1397.47 1953.96 1399.33 1953.33 1401.46 1953.33Z" fill-rule="evenodd"/><text fill="#000000" fill-opacity="0" font-family="Arial,Arial_MSFontService,sans-serif" font-size="40.0815" x="1386.67" y="1988.4">๐ฅ</text><path d="M1400.07 1939.96 1430.11 1939.96 1430.11 1944.25 1400.07 1944.25Z" fill-rule="evenodd"/><text fill="#000000" fill-opacity="0" font-family="Arial,Arial_MSFontService,sans-serif" font-size="4.2959" x="1400.07" y="1943.71">าง</text></g></svg>