<svg xmlns="http://www.w3.org/2000/svg" viewBox="0 0 64 64" width="64" height="64">
<g data-fit="3" transform="translate(2.54 1.85) scale(0.92)">
<g stroke="#1a1a2e" stroke-width="3" stroke-linecap="round" stroke-linejoin="round">
<path d="M11 21L4 42M11 21l7 21M53 21l-7 21M53 21l7 21" fill="none" stroke-width="2"/>
<path d="M18 60h28l-4-7H22z" fill="#e9b43a"/>
<rect x="29.5" y="15" width="5" height="38" rx="1" fill="#e9b43a"/>
<rect x="7" y="18" width="50" height="5" rx="2.5" fill="#f1c40f"/>
<circle cx="32" cy="10" r="4.5" fill="#f1c40f"/>
<path d="M2 42h18c0 6-4 9.5-9 9.5S2 48 2 42zM44 42h18c0 6-4 9.5-9 9.5S44 48 44 42z" fill="#f1c40f"/>
</g>
</g>
</svg>
