<svg width="1780" height="448" xmlns="http://www.w3.org/2000/svg" xmlns:xlink="http://www.w3.org/1999/xlink" xml:space="preserve" overflow="hidden"><defs><radialGradient cx="295102" cy="2459182" r="2476824" fx="295102" fy="2459182" gradientUnits="userSpaceOnUse" spreadMethod="pad" id="fill0" gradientTransform="matrix(2.20983e-20 0.000360892 -0.000360892 2.20983e-20 4345.5 138.5)"><stop offset="0" stop-color="#408BCE"/><stop offset="0.22" stop-color="#408BCE"/><stop offset="0.74" stop-color="#2E75B6"/><stop offset="0.97" stop-color="#2B6DA9"/><stop offset="1" stop-color="#2B6DA9"/></radialGradient><radialGradient cx="295102" cy="2459182" r="2476824" fx="295102" fy="2459182" gradientUnits="userSpaceOnUse" spreadMethod="pad" id="fill1" gradientTransform="matrix(2.20983e-20 0.000360892 -0.000360892 2.20983e-20 4345.5 138.5)"><stop offset="0" stop-color="#8CB9E2"/><stop offset="0.22" stop-color="#8CB9E2"/><stop offset="0.74" stop-color="#82ACD3"/><stop offset="0.97" stop-color="#80A7CB"/><stop offset="1" stop-color="#80A7CB"/></radialGradient></defs><g transform="translate(-2568 90)"><path d="M4318.87 138.5C4304.17 138.5 4292.25 186.182 4292.25 245 4292.25 303.819 4304.17 351.5 4318.87 351.5L2597.12 351.5C2582.42 351.5 2570.5 303.819 2570.5 245 2570.5 186.182 2582.42 138.5 2597.12 138.5Z" fill="url(#fill0)" fill-rule="evenodd"/><path d="M4318.87 138.5C4333.58 138.5 4345.5 186.182 4345.5 245 4345.5 303.819 4333.58 351.5 4318.87 351.5 4304.17 351.5 4292.25 303.819 4292.25 245 4292.25 186.182 4304.17 138.5 4318.87 138.5Z" fill="url(#fill1)" fill-rule="evenodd"/><path d="M4318.87 351.5C4304.17 351.5 4292.25 303.819 4292.25 245 4292.25 186.182 4304.17 138.5 4318.87 138.5 4333.58 138.5 4345.5 186.182 4345.5 245 4345.5 303.819 4333.58 351.5 4318.87 351.5L2597.12 351.5C2582.42 351.5 2570.5 303.819 2570.5 245 2570.5 186.182 2582.42 138.5 2597.12 138.5L4318.87 138.5" stroke="#000000" stroke-width="4.58333" stroke-miterlimit="8" fill="none" fill-rule="evenodd"/><path d="M3743.88 138.5C3729.17 138.5 3717.25 186.182 3717.25 245 3717.25 303.819 3729.17 351.501 3743.88 351.501L3392.12 351.5C3377.42 351.5 3365.5 303.818 3365.5 245 3365.5 186.181 3377.42 138.5 3392.12 138.5Z" fill="#D0CECE" fill-rule="evenodd" fill-opacity="0.290196"/><path d="M3743.88 138.5C3758.58 138.5 3770.5 186.182 3770.5 245 3770.5 303.819 3758.58 351.501 3743.88 351.501 3729.17 351.501 3717.25 303.819 3717.25 245 3717.25 186.182 3729.17 138.5 3743.88 138.5Z" fill="#E3E2E2" fill-rule="evenodd" fill-opacity="0.290196"/><path d="M3743.88 351.5C3729.17 351.5 3717.25 303.818 3717.25 245 3717.25 186.181 3729.17 138.5 3743.88 138.5 3758.58 138.5 3770.5 186.181 3770.5 245 3770.5 303.818 3758.58 351.5 3743.88 351.5L3392.12 351.5C3377.42 351.5 3365.5 303.818 3365.5 245 3365.5 186.181 3377.42 138.5 3392.12 138.5L3743.88 138.5" stroke="#000000" stroke-width="12.6042" stroke-miterlimit="8" stroke-dasharray="50.4167 37.8125" stroke-opacity="0.980392" fill="none" fill-rule="evenodd"/><path d="M3533.77 235.465C3531.02 235.465 3528.55 236.58 3526.36 238.809 3524.17 241.038 3522.45 244.044 3521.19 247.826 3519.93 251.609 3519.31 255.378 3519.31 259.133 3519.31 261.943 3519.69 264.044 3520.46 265.435 3521.23 266.827 3522.52 267.522 3524.33 267.522 3525.17 267.522 3526.02 267.34 3526.88 266.975 3527.75 266.611 3528.65 266.023 3529.58 265.212 3530.51 264.402 3531.43 263.416 3532.34 262.254 3533.24 261.092 3534.07 259.924 3534.83 258.748 3535.58 257.573 3536.29 256.182 3536.94 254.574 3537.58 252.966 3538.14 251.028 3538.6 248.758L3538.96 247.016C3539.37 245.07 3539.57 243.233 3539.57 241.504 3539.57 239.396 3539.12 237.863 3538.23 236.904 3537.34 235.945 3535.85 235.465 3533.77 235.465ZM3568.64 232.264C3570.35 232.264 3571.69 232.824 3572.68 233.946 3573.66 235.067 3574.16 236.533 3574.16 238.343 3574.16 239.829 3573.84 241.409 3573.22 243.084L3573.71 243.247C3576.19 239.545 3578.67 236.796 3581.13 234.999 3583.58 233.203 3586.07 232.304 3588.58 232.304 3591.18 232.304 3593.15 233.04 3594.5 234.513 3595.85 235.985 3596.53 238.113 3596.53 240.896L3596.53 241.463C3596.53 241.652 3596.51 241.855 3596.49 242.071 3598.81 238.775 3601.13 236.323 3603.44 234.716 3605.75 233.108 3608.14 232.304 3610.63 232.304 3613.12 232.304 3615.03 233.02 3616.38 234.452 3617.74 235.884 3618.41 237.897 3618.41 240.491 3618.41 242.193 3618.02 244.611 3617.24 247.745L3614.6 258.363C3613.87 261.308 3613.51 263.389 3613.51 264.604 3613.51 265.685 3613.68 266.469 3614.03 266.955 3614.39 267.441 3614.94 267.685 3615.7 267.685 3616.51 267.685 3617.37 267.354 3618.29 266.692 3619.21 266.03 3620.5 264.767 3622.18 262.902L3624.49 265.172C3622.17 267.63 3620.14 269.441 3618.41 270.603 3616.68 271.764 3614.71 272.345 3612.49 272.345 3610.74 272.345 3609.33 271.717 3608.28 270.461 3607.23 269.204 3606.7 267.603 3606.7 265.658 3606.7 263.902 3607.14 261.322 3608.04 257.917L3609.82 250.906C3610.47 248.367 3610.89 246.489 3611.1 245.273 3611.3 244.057 3611.4 243.071 3611.4 242.314 3611.4 240.45 3611.09 239.106 3610.47 238.282 3609.85 237.458 3608.83 237.046 3607.43 237.046 3606.29 237.046 3605.08 237.471 3603.78 238.322 3602.48 239.174 3601.12 240.497 3599.69 242.294 3598.26 244.091 3597.09 245.861 3596.18 247.603 3595.28 249.346 3594.55 251.474 3594.01 253.986L3590.33 271.697 3583.31 271.697 3587.97 251.109C3588.54 248.596 3588.93 246.739 3589.13 245.536 3589.33 244.334 3589.43 243.301 3589.43 242.436 3589.43 240.491 3589.09 239.106 3588.4 238.282 3587.71 237.458 3586.64 237.046 3585.18 237.046 3584.15 237.046 3582.98 237.471 3581.67 238.322 3580.36 239.174 3578.96 240.538 3577.48 242.416 3575.99 244.294 3574.83 246.097 3573.99 247.826 3573.16 249.555 3572.45 251.663 3571.89 254.148L3568.04 271.697 3561.02 271.697 3566.94 246.002C3567.54 243.409 3567.83 241.409 3567.83 240.004 3567.83 238.924 3567.66 238.14 3567.31 237.654 3566.95 237.167 3566.4 236.924 3565.64 236.924 3564.81 236.924 3563.92 237.269 3562.99 237.958 3562.06 238.647 3560.78 239.896 3559.16 241.707L3556.85 239.437C3559.23 236.951 3561.27 235.134 3562.99 233.986 3564.71 232.838 3566.59 232.264 3568.64 232.264ZM3550.76 213.743 3553.15 213.743 3543.05 258.606C3542.46 261.254 3542.16 263.254 3542.16 264.604 3542.16 265.685 3542.34 266.469 3542.69 266.955 3543.04 267.441 3543.6 267.685 3544.35 267.685 3545.16 267.685 3546.03 267.354 3546.95 266.692 3547.86 266.03 3549.16 264.767 3550.84 262.902L3553.15 265.172C3550.66 267.793 3548.57 269.643 3546.86 270.724 3545.16 271.805 3543.33 272.345 3541.35 272.345 3539.68 272.345 3538.34 271.791 3537.34 270.684 3536.34 269.576 3535.84 268.103 3535.84 266.266 3535.84 264.78 3536.15 263.2 3536.77 261.524L3536.25 261.362C3533.65 265.145 3531.19 267.914 3528.87 269.67 3526.55 271.427 3524.09 272.305 3521.49 272.305 3518.52 272.305 3516.22 271.183 3514.58 268.941 3512.95 266.698 3512.13 263.551 3512.13 259.498 3512.13 254.851 3513.04 250.386 3514.87 246.104 3516.69 241.821 3519.2 238.444 3522.39 235.972 3525.57 233.5 3529.13 232.264 3533.04 232.264 3534.69 232.264 3536.21 232.433 3537.6 232.77 3539 233.108 3540.42 233.696 3541.88 234.533L3543.99 225.171C3544.2 224.28 3544.39 223.294 3544.55 222.213 3544.72 221.132 3544.8 220.186 3544.8 219.376 3544.8 218.565 3544.65 217.951 3544.35 217.532 3544.05 217.113 3543.63 216.809 3543.08 216.62 3542.52 216.431 3541.53 216.296 3540.1 216.215L3540.58 214.107Z" fill-rule="evenodd"/><text fill="#000000" fill-opacity="0" font-family="Arial,Arial_MSFontService,sans-serif" font-size="58.6025" x="3512.13" y="265.02">­ЮЉЉ­ЮЉџ</text><path d="M3385 138C3385 118.118 3403.08 102 3425.39 102L3532.61 102C3554.92 102 3573 85.8824 3573 66.0002 3573 85.8824 3591.09 102 3613.39 102L3709.61 102C3731.91 102 3750 118.118 3750 138" stroke="#000000" stroke-width="10.3125" stroke-miterlimit="8" fill="none" fill-rule="evenodd"/><path d="M3558.19-21.0476C3555.43-21.0476 3552.96-19.9331 3550.77-17.7041 3548.58-15.4751 3546.86-12.4693 3545.6-8.68678 3544.35-4.90422 3543.72-1.13518 3543.72 2.62035 3543.72 5.43025 3544.1 7.53091 3544.87 8.92235 3545.64 10.3138 3546.93 11.0095 3548.74 11.0095 3549.58 11.0095 3550.43 10.8271 3551.3 10.4624 3552.16 10.0976 3553.06 9.51 3553.99 8.69945 3554.92 7.88891 3555.84 6.90274 3556.75 5.74096 3557.65 4.57917 3558.48 3.41063 3559.24 2.23534 3560 1.06005 3560.7-0.331391 3561.35-1.93897 3562-3.54656 3562.55-5.48512 3563.01-7.75465L3563.37-9.49732C3563.78-11.4426 3563.98-13.2799 3563.98-15.009 3563.98-17.1165 3563.54-18.6497 3562.65-19.6089 3561.75-20.568 3560.27-21.0476 3558.19-21.0476ZM3596.3-24.2493C3597.14-24.2493 3597.87-24.1547 3598.51-23.9656 3599.14-23.7765 3599.7-23.486 3600.19-23.0942 3600.68-22.7025 3601.11-22.1959 3601.49-21.5745 3601.86-20.9531 3602.23-20.1087 3602.58-19.0415 3602.93-17.9743 3603.26-16.6504 3603.57-15.0698 3603.88-13.4893 3604.16-11.8479 3604.4-10.1458L3604.81-10.1458C3607.4-13.7932 3609.37-16.4613 3610.71-18.1499 3612.04-19.8386 3613.17-21.0949 3614.09-21.919 3615.01-22.743 3615.89-23.3239 3616.74-23.6616 3617.6-23.9994 3618.72-24.1682 3620.13-24.1682 3621.4-24.1682 3622.44-24.0061 3623.25-23.6819L3621.63-16.3464 3618.79-16.3464C3618.63-17.4812 3618.16-18.0486 3617.37-18.0486 3617.13-18.0486 3616.87-18.0081 3616.6-17.927 3616.33-17.846 3616-17.6703 3615.61-17.4002 3615.22-17.13 3614.64-16.6031 3613.89-15.8196 3613.13-15.0361 3612.28-14.0769 3611.33-12.9421 3610.39-11.8074 3609.42-10.6186 3608.42-9.37574L3605.66-5.93092C3606.15-3.33717 3606.61-1.09465 3607.04 0.79662 3607.47 2.6879 3607.86 4.26171 3608.19 5.51806 3608.53 6.7744 3608.83 7.76732 3609.08 8.49682 3609.34 9.22631 3609.62 9.77343 3609.92 10.1382 3610.21 10.5029 3610.52 10.7596 3610.83 10.9082 3611.14 11.0568 3611.5 11.1311 3611.9 11.1311 3612.63 11.1311 3613.34 10.8474 3614.03 10.28 3614.72 9.71264 3615.71 8.42927 3617.01 6.42992L3619.64 8.1726C3617.75 10.9825 3616.04 12.9616 3614.52 14.1099 3612.99 15.2581 3611.17 15.8323 3609.06 15.8323 3607.9 15.8323 3606.92 15.6229 3606.11 15.2041 3605.3 14.7853 3604.59 14.1166 3604 13.198 3603.4 12.2794 3602.88 10.8474 3602.42 8.90209 3601.58 5.44376 3601.07 2.79597 3600.88 0.95873L3600.47 0.95873C3597.61 4.98445 3595.48 7.8754 3594.09 9.63158 3592.7 11.3878 3591.55 12.6846 3590.65 13.5222 3589.74 14.3598 3588.86 14.9474 3588.01 15.2851 3587.16 15.6229 3586.03 15.7917 3584.63 15.7917 3583.36 15.7917 3582.32 15.6296 3581.51 15.3054L3583.13 7.96996 3585.96 7.96996C3586.13 9.10473 3586.6 9.67211 3587.38 9.67211 3587.76 9.67211 3588.16 9.57079 3588.58 9.36815 3589 9.16552 3589.6 8.67919 3590.38 7.90917 3591.17 7.13915 3592.25 5.93008 3593.62 4.28197 3595 2.63386 3597 0.161693 3599.62-3.13453 3599.22-5.26897 3598.8-7.32236 3598.37-9.29469 3597.93-11.267 3597.49-13.1043 3597.03-14.8064 3596.57-16.5086 3596.19-17.6231 3595.89-18.1499 3595.6-18.6768 3595.28-19.0415 3594.94-19.2441 3594.6-19.4468 3594.18-19.5481 3593.66-19.5481 3593.1-19.5481 3592.58-19.4198 3592.12-19.1631 3591.67-18.9064 3591.17-18.4606 3590.62-17.8257 3590.08-17.1908 3589.37-16.1978 3588.48-14.8469L3585.84-16.5896C3587.54-19.1563 3589.18-21.0746 3590.75-22.3445 3592.31-23.6143 3594.16-24.2493 3596.3-24.2493ZM3575.17-42.7703 3577.56-42.7703 3567.47 2.0935C3566.87 4.74128 3566.58 6.74063 3566.58 8.09154 3566.58 9.17227 3566.75 9.9558 3567.1 10.4421 3567.45 10.9285 3568.01 11.1716 3568.76 11.1716 3569.58 11.1716 3570.44 10.8406 3571.36 10.1787 3572.28 9.51675 3573.57 8.25365 3575.25 6.38939L3577.56 8.65893C3575.07 11.2797 3572.98 13.1304 3571.28 14.2112 3569.58 15.2919 3567.74 15.8323 3565.77 15.8323 3564.09 15.8323 3562.75 15.2784 3561.75 14.1706 3560.75 13.0629 3560.25 11.5904 3560.25 9.75316 3560.25 8.26716 3560.56 6.68659 3561.19 5.01146L3560.66 4.84935C3558.07 8.63191 3555.61 11.4013 3553.28 13.1575 3550.96 14.9136 3548.5 15.7917 3545.91 15.7917 3542.94 15.7917 3540.63 14.6705 3539 12.428 3537.36 10.1855 3536.55 7.03783 3536.55 2.9851 3536.55-1.66204 3537.46-6.1268 3539.28-10.4092 3541.1-14.6916 3543.61-18.0689 3546.8-20.541 3549.99-23.0132 3553.54-24.2493 3557.46-24.2493 3559.11-24.2493 3560.63-24.0804 3562.02-23.7427 3563.41-23.405 3564.83-22.8173 3566.29-21.9797L3568.4-31.3416C3568.62-32.2332 3568.81-33.2193 3568.97-34.3001 3569.13-35.3808 3569.21-36.3264 3569.21-37.137 3569.21-37.9475 3569.06-38.5622 3568.76-38.981 3568.47-39.3997 3568.04-39.7037 3567.49-39.8928 3566.93-40.082 3565.94-40.217 3564.51-40.2981L3565-42.4055Z" fill-rule="evenodd"/><text fill="#000000" fill-opacity="0" font-family="Arial,Arial_MSFontService,sans-serif" font-size="58.6025" x="3536.55" y="8.50695">­ЮЉЉ­ЮЉЦ</text><path d="M3743.5 240.917 3897.83 240.917 3897.83 250.084 3743.5 250.083ZM3897.83 245.5 3879.5 222.584 3925.33 245.5 3879.5 268.417Z"/><path d="M3364.74 249.011 3195.5 249.011 3195.5 240.99 3364.74 240.99ZM3195.5 245 3213.83 267.917 3168 245 3213.83 222.084Z"/><path d="M3806.93 282.568 3835.12 282.568 3832.97 292.161 3829.97 292.161C3829.88 290.557 3829.75 289.291 3829.57 288.364 3829.4 287.437 3829.15 286.771 3828.82 286.364 3828.5 285.958 3828.11 285.682 3827.65 285.536 3827.19 285.39 3826.51 285.318 3825.59 285.318L3815.97 285.318 3812.25 302.318 3818.09 302.318C3819.01 302.318 3819.77 302.193 3820.37 301.943 3820.98 301.693 3821.54 301.239 3822.06 300.583 3822.58 299.927 3823.23 298.807 3824 297.224L3826.84 297.224 3823.81 310.411 3821.06 310.411C3821.06 308.307 3820.99 306.989 3820.86 306.458 3820.72 305.927 3820.46 305.562 3820.07 305.364 3819.69 305.166 3818.92 305.068 3817.78 305.068L3811.65 305.068 3809.18 316.13C3808.75 318.088 3808.53 319.713 3808.53 321.005 3808.53 321.651 3808.63 322.156 3808.84 322.521 3809.05 322.885 3809.36 323.151 3809.78 323.318 3810.19 323.484 3810.91 323.609 3811.93 323.693L3811.59 325.224 3798.75 325.224 3799.09 323.693C3799.88 323.568 3800.48 323.364 3800.87 323.083 3801.27 322.802 3801.6 322.411 3801.87 321.911 3802.14 321.411 3802.39 320.802 3802.62 320.083 3802.85 319.364 3803.19 317.974 3803.65 315.911L3808.97 291.849C3809.42 289.765 3809.65 288.12 3809.65 286.911 3809.65 285.89 3809.41 285.182 3808.93 284.786 3808.45 284.39 3807.67 284.161 3806.59 284.099Z" fill-rule="evenodd"/><text fill="#000000" fill-opacity="0" font-family="Arial,Arial_MSFontService,sans-serif" font-size="42.6562" x="3798.75" y="319.892">­Юљ╣</text><path d="M3826.71 262.657 3834.55 269.438 3834.55 271.251 3826.71 278.032 3825.05 276.157 3830.05 271.813 3810.99 271.813 3810.99 268.876 3830.05 268.876 3825.05 264.532Z" fill-rule="evenodd"/><text fill="#000000" fill-opacity="0" font-family="Arial,Arial_MSFontService,sans-serif" font-size="15.375" x="3810.99" y="276.11">нд</text><path d="M3862.95 280.068 3863.8 282.474C3858.92 284.078 3855.31 287.208 3852.97 291.864 3850.62 296.521 3849.45 302.37 3849.45 309.411 3849.45 316.703 3850.62 322.713 3852.97 327.443 3855.31 332.172 3858.89 335.338 3863.7 336.943L3862.95 339.349C3856.85 337.745 3852.17 334.291 3848.92 328.989 3845.67 323.687 3844.05 317.265 3844.05 309.724 3844.05 302.203 3845.68 295.781 3848.94 290.458 3852.2 285.135 3856.87 281.672 3862.95 280.068Z" fill-rule="evenodd"/><text fill="#000000" fill-opacity="0" font-family="Arial,Arial_MSFontService,sans-serif" font-size="59.2812" x="3844.05" y="331.939">(</text><path d="M3877.12 294.818C3877.77 294.818 3878.33 294.89 3878.82 295.036 3879.31 295.182 3879.74 295.406 3880.12 295.708 3880.49 296.01 3880.83 296.401 3881.12 296.88 3881.41 297.359 3881.69 298.01 3881.96 298.833 3882.23 299.656 3882.49 300.677 3882.73 301.896 3882.97 303.114 3883.18 304.38 3883.37 305.693L3883.68 305.693C3885.68 302.88 3887.2 300.823 3888.23 299.521 3889.26 298.219 3890.13 297.25 3890.84 296.614 3891.55 295.979 3892.23 295.531 3892.89 295.271 3893.54 295.01 3894.41 294.88 3895.49 294.88 3896.47 294.88 3897.28 295.005 3897.9 295.255L3896.65 300.911 3894.46 300.911C3894.34 300.036 3893.97 299.599 3893.37 299.599 3893.18 299.599 3892.98 299.63 3892.78 299.693 3892.57 299.755 3892.31 299.89 3892.01 300.099 3891.71 300.307 3891.27 300.713 3890.68 301.318 3890.1 301.922 3889.44 302.661 3888.71 303.536 3887.98 304.411 3887.23 305.328 3886.46 306.286L3884.34 308.943C3884.71 310.943 3885.07 312.672 3885.4 314.13 3885.73 315.588 3886.03 316.802 3886.29 317.771 3886.55 318.739 3886.78 319.505 3886.98 320.068 3887.18 320.63 3887.39 321.052 3887.62 321.333 3887.85 321.614 3888.08 321.812 3888.32 321.927 3888.56 322.041 3888.84 322.099 3889.15 322.099 3889.71 322.099 3890.26 321.88 3890.79 321.443 3891.32 321.005 3892.09 320.015 3893.09 318.474L3895.12 319.818C3893.66 321.984 3892.34 323.51 3891.17 324.396 3889.99 325.281 3888.59 325.724 3886.96 325.724 3886.07 325.724 3885.31 325.562 3884.68 325.239 3884.06 324.916 3883.52 324.401 3883.06 323.693 3882.6 322.984 3882.19 321.88 3881.84 320.38 3881.19 317.713 3880.8 315.672 3880.65 314.255L3880.34 314.255C3878.13 317.359 3876.49 319.588 3875.42 320.943 3874.34 322.297 3873.46 323.297 3872.76 323.943 3872.06 324.588 3871.39 325.041 3870.73 325.302 3870.07 325.562 3869.2 325.693 3868.12 325.693 3867.14 325.693 3866.34 325.568 3865.71 325.318L3866.96 319.661 3869.15 319.661C3869.28 320.536 3869.64 320.974 3870.24 320.974 3870.54 320.974 3870.84 320.896 3871.17 320.739 3871.49 320.583 3871.95 320.208 3872.56 319.614 3873.16 319.021 3873.99 318.088 3875.06 316.818 3876.12 315.547 3877.66 313.64 3879.68 311.099 3879.37 309.453 3879.05 307.87 3878.71 306.349 3878.38 304.828 3878.04 303.411 3877.68 302.099 3877.33 300.786 3877.04 299.927 3876.81 299.521 3876.58 299.114 3876.33 298.833 3876.07 298.677 3875.81 298.521 3875.48 298.443 3875.09 298.443 3874.65 298.443 3874.26 298.541 3873.9 298.739 3873.55 298.937 3873.16 299.281 3872.74 299.771 3872.33 300.26 3871.78 301.026 3871.09 302.068L3869.06 300.724C3870.37 298.745 3871.63 297.265 3872.84 296.286 3874.05 295.307 3875.47 294.818 3877.12 294.818Z" fill-rule="evenodd"/><text fill="#000000" fill-opacity="0" font-family="Arial,Arial_MSFontService,sans-serif" font-size="30.9062" x="3865.71" y="321.86">­ЮЉЦ</text><path d="M3937.04 286.849 3941.48 286.849 3941.48 304.849 3958.51 304.849 3958.51 309.005 3941.48 309.005 3941.48 327.005 3937.04 327.005 3937.04 309.005 3920.01 309.005 3920.01 304.849 3937.04 304.849Z" fill-rule="evenodd"/><text fill="#000000" fill-opacity="0" font-family="Arial,Arial_MSFontService,sans-serif" font-size="40.1562" x="3920.01" y="321.985">+</text><path d="M3997.7 297.286C3995.58 297.286 3993.67 298.146 3991.98 299.864 3990.29 301.583 3988.97 303.901 3988 306.818 3987.03 309.734 3986.54 312.64 3986.54 315.536 3986.54 317.703 3986.84 319.323 3987.44 320.396 3988.03 321.469 3989.02 322.005 3990.42 322.005 3991.07 322.005 3991.72 321.864 3992.39 321.583 3993.05 321.302 3993.75 320.849 3994.47 320.224 3995.19 319.599 3995.89 318.838 3996.59 317.943 3997.29 317.047 3997.93 316.146 3998.51 315.239 3999.1 314.333 3999.64 313.26 4000.14 312.021 4000.64 310.781 4001.07 309.286 4001.42 307.536L4001.7 306.193C4002.01 304.693 4002.17 303.276 4002.17 301.943 4002.17 300.318 4001.83 299.135 4001.14 298.396 4000.45 297.656 3999.3 297.286 3997.7 297.286ZM4027.08 294.818C4027.72 294.818 4028.29 294.89 4028.78 295.036 4029.27 295.182 4029.7 295.406 4030.08 295.708 4030.45 296.01 4030.78 296.401 4031.08 296.88 4031.37 297.359 4031.65 298.01 4031.92 298.833 4032.19 299.656 4032.45 300.677 4032.69 301.896 4032.92 303.114 4033.14 304.38 4033.33 305.693L4033.64 305.693C4035.64 302.88 4037.15 300.823 4038.19 299.521 4039.22 298.219 4040.09 297.25 4040.79 296.614 4041.5 295.979 4042.19 295.531 4042.84 295.271 4043.5 295.01 4044.37 294.88 4045.45 294.88 4046.43 294.88 4047.23 295.005 4047.86 295.255L4046.61 300.911 4044.42 300.911C4044.29 300.036 4043.93 299.599 4043.33 299.599 4043.14 299.599 4042.94 299.63 4042.73 299.693 4042.52 299.755 4042.27 299.89 4041.97 300.099 4041.66 300.307 4041.22 300.713 4040.64 301.318 4040.05 301.922 4039.4 302.661 4038.67 303.536 4037.94 304.411 4037.19 305.328 4036.42 306.286L4034.29 308.943C4034.67 310.943 4035.02 312.672 4035.36 314.13 4035.69 315.588 4035.99 316.802 4036.25 317.771 4036.51 318.739 4036.74 319.505 4036.94 320.068 4037.13 320.63 4037.35 321.052 4037.58 321.333 4037.8 321.614 4038.04 321.812 4038.28 321.927 4038.52 322.041 4038.79 322.099 4039.11 322.099 4039.67 322.099 4040.22 321.88 4040.75 321.443 4041.28 321.005 4042.04 320.015 4043.04 318.474L4045.08 319.818C4043.62 321.984 4042.3 323.51 4041.12 324.396 4039.95 325.281 4038.54 325.724 4036.92 325.724 4036.02 325.724 4035.26 325.562 4034.64 325.239 4034.01 324.916 4033.47 324.401 4033.01 323.693 4032.55 322.984 4032.15 321.88 4031.79 320.38 4031.15 317.713 4030.75 315.672 4030.61 314.255L4030.29 314.255C4028.09 317.359 4026.45 319.588 4025.37 320.943 4024.3 322.297 4023.41 323.297 4022.72 323.943 4022.02 324.588 4021.34 325.041 4020.69 325.302 4020.03 325.562 4019.16 325.693 4018.08 325.693 4017.1 325.693 4016.29 325.568 4015.67 325.318L4016.92 319.661 4019.11 319.661C4019.23 320.536 4019.6 320.974 4020.2 320.974 4020.49 320.974 4020.8 320.896 4021.12 320.739 4021.45 320.583 4021.91 320.208 4022.51 319.614 4023.12 319.021 4023.95 318.088 4025.01 316.818 4026.08 315.547 4027.62 313.64 4029.64 311.099 4029.33 309.453 4029 307.87 4028.67 306.349 4028.34 304.828 4027.99 303.411 4027.64 302.099 4027.28 300.786 4026.99 299.927 4026.76 299.521 4026.53 299.114 4026.29 298.833 4026.03 298.677 4025.77 298.521 4025.44 298.443 4025.04 298.443 4024.61 298.443 4024.21 298.541 4023.86 298.739 4023.5 298.937 4023.12 299.281 4022.7 299.771 4022.28 300.26 4021.73 301.026 4021.04 302.068L4019.01 300.724C4020.33 298.745 4021.59 297.265 4022.79 296.286 4024 295.307 4025.43 294.818 4027.08 294.818ZM4010.79 280.536 4012.64 280.536 4004.86 315.13C4004.4 317.172 4004.17 318.713 4004.17 319.755 4004.17 320.588 4004.3 321.193 4004.58 321.568 4004.85 321.943 4005.27 322.13 4005.86 322.13 4006.48 322.13 4007.15 321.875 4007.86 321.364 4008.57 320.854 4009.57 319.88 4010.86 318.443L4012.64 320.193C4010.72 322.213 4009.11 323.64 4007.79 324.474 4006.48 325.307 4005.07 325.724 4003.54 325.724 4002.25 325.724 4001.22 325.297 4000.45 324.443 3999.68 323.588 3999.29 322.453 3999.29 321.036 3999.29 319.89 3999.53 318.672 4000.01 317.38L3999.61 317.255C3997.61 320.172 3995.71 322.307 3993.92 323.661 3992.13 325.015 3990.23 325.693 3988.23 325.693 3985.94 325.693 3984.16 324.828 3982.9 323.099 3981.64 321.37 3981.01 318.943 3981.01 315.818 3981.01 312.234 3981.72 308.791 3983.12 305.489 3984.53 302.187 3986.46 299.583 3988.92 297.677 3991.38 295.771 3994.12 294.818 3997.14 294.818 3998.41 294.818 3999.58 294.948 4000.65 295.208 4001.73 295.469 4002.83 295.922 4003.95 296.568L4005.58 289.349C4005.74 288.661 4005.89 287.901 4006.01 287.068 4006.14 286.234 4006.2 285.505 4006.2 284.88 4006.2 284.255 4006.09 283.781 4005.86 283.458 4005.63 283.135 4005.3 282.901 4004.87 282.755 4004.45 282.609 4003.68 282.505 4002.58 282.443L4002.95 280.818Z" fill-rule="evenodd"/><text fill="#000000" fill-opacity="0" font-family="Arial,Arial_MSFontService,sans-serif" font-size="45.1875" x="3981.01" y="320.075">­ЮЉЉ­ЮЉЦ</text><path d="M4053.33 280.068C4059.41 281.672 4064.08 285.135 4067.34 290.458 4070.6 295.781 4072.23 302.203 4072.23 309.724 4072.23 317.265 4070.61 323.687 4067.36 328.989 4064.11 334.291 4059.43 337.745 4053.33 339.349L4052.58 336.943C4057.39 335.338 4060.97 332.172 4063.31 327.443 4065.65 322.713 4066.83 316.703 4066.83 309.411 4066.83 302.37 4065.66 296.521 4063.33 291.864 4060.99 287.208 4057.38 284.078 4052.48 282.474Z" fill-rule="evenodd"/><text fill="#000000" fill-opacity="0" font-family="Arial,Arial_MSFontService,sans-serif" font-size="59.2812" x="4052.48" y="331.939">)</text><path d="M3225.97 278.421 3254.16 278.421 3252.01 288.015 3249.01 288.015C3248.92 286.41 3248.79 285.145 3248.62 284.218 3248.44 283.291 3248.19 282.624 3247.87 282.218 3247.54 281.811 3247.15 281.535 3246.69 281.39 3246.24 281.244 3245.55 281.171 3244.63 281.171L3235.01 281.171 3231.29 298.171 3237.13 298.171C3238.05 298.171 3238.81 298.046 3239.41 297.796 3240.02 297.546 3240.58 297.093 3241.1 296.436 3241.62 295.78 3242.27 294.66 3243.04 293.077L3245.88 293.077 3242.85 306.265 3240.1 306.265C3240.1 304.16 3240.03 302.843 3239.9 302.311 3239.76 301.78 3239.5 301.416 3239.12 301.218 3238.73 301.02 3237.96 300.921 3236.82 300.921L3230.69 300.921 3228.22 311.983C3227.79 313.942 3227.57 315.567 3227.57 316.858 3227.57 317.504 3227.67 318.009 3227.88 318.374 3228.09 318.739 3228.4 319.004 3228.82 319.171 3229.24 319.337 3229.95 319.462 3230.97 319.546L3230.63 321.077 3217.79 321.077 3218.13 319.546C3218.92 319.421 3219.52 319.218 3219.91 318.936 3220.31 318.655 3220.64 318.265 3220.91 317.765 3221.18 317.265 3221.43 316.655 3221.66 315.936 3221.89 315.218 3222.24 313.827 3222.69 311.765L3228.01 287.702C3228.46 285.619 3228.69 283.973 3228.69 282.765 3228.69 281.744 3228.45 281.035 3227.97 280.64 3227.5 280.244 3226.71 280.015 3225.63 279.952Z" fill-rule="evenodd"/><text fill="#000000" fill-opacity="0" font-family="Arial,Arial_MSFontService,sans-serif" font-size="42.6562" x="3217.79" y="315.745">­Юљ╣</text><path d="M3245.75 258.51 3253.59 265.292 3253.59 267.104 3245.75 273.885 3244.09 272.01 3249.09 267.667 3230.03 267.667 3230.03 264.729 3249.09 264.729 3244.09 260.385Z" fill-rule="evenodd"/><text fill="#000000" fill-opacity="0" font-family="Arial,Arial_MSFontService,sans-serif" font-size="15.375" x="3230.03" y="271.964">нд</text><path d="M3281.99 275.921 3282.84 278.327C3277.96 279.931 3274.35 283.061 3272.01 287.718 3269.67 292.374 3268.49 298.223 3268.49 305.265 3268.49 312.556 3269.67 318.567 3272.01 323.296 3274.35 328.025 3277.93 331.192 3282.74 332.796L3281.99 335.202C3275.89 333.598 3271.21 330.145 3267.96 324.843 3264.71 319.541 3263.09 313.119 3263.09 305.577 3263.09 298.056 3264.72 291.634 3267.98 286.311 3271.24 280.989 3275.91 277.525 3281.99 275.921Z" fill-rule="evenodd"/><text fill="#000000" fill-opacity="0" font-family="Arial,Arial_MSFontService,sans-serif" font-size="59.2812" x="3263.09" y="327.792">(</text><path d="M3296.16 290.671C3296.81 290.671 3297.37 290.744 3297.86 290.89 3298.35 291.035 3298.79 291.259 3299.16 291.561 3299.54 291.864 3299.87 292.254 3300.16 292.733 3300.45 293.212 3300.73 293.864 3301 294.686 3301.27 295.509 3301.53 296.53 3301.77 297.749 3302.01 298.968 3302.22 300.233 3302.41 301.546L3302.72 301.546C3304.72 298.733 3306.24 296.676 3307.27 295.374 3308.3 294.072 3309.17 293.103 3309.88 292.468 3310.59 291.832 3311.27 291.384 3311.93 291.124 3312.58 290.864 3313.45 290.733 3314.54 290.733 3315.51 290.733 3316.32 290.858 3316.94 291.108L3315.69 296.765 3313.5 296.765C3313.38 295.89 3313.01 295.452 3312.41 295.452 3312.22 295.452 3312.02 295.483 3311.82 295.546 3311.61 295.608 3311.35 295.744 3311.05 295.952 3310.75 296.16 3310.31 296.567 3309.72 297.171 3309.14 297.775 3308.48 298.515 3307.75 299.39 3307.02 300.265 3306.27 301.181 3305.5 302.14L3303.38 304.796C3303.75 306.796 3304.11 308.525 3304.44 309.983 3304.77 311.442 3305.07 312.655 3305.33 313.624 3305.59 314.593 3305.82 315.358 3306.02 315.921 3306.22 316.483 3306.43 316.905 3306.66 317.186 3306.89 317.468 3307.12 317.666 3307.36 317.78 3307.6 317.895 3307.88 317.952 3308.19 317.952 3308.75 317.952 3309.3 317.733 3309.83 317.296 3310.36 316.858 3311.13 315.869 3312.13 314.327L3314.16 315.671C3312.7 317.837 3311.38 319.364 3310.21 320.249 3309.03 321.134 3307.63 321.577 3306 321.577 3305.11 321.577 3304.35 321.416 3303.72 321.093 3303.1 320.77 3302.56 320.254 3302.1 319.546 3301.64 318.837 3301.23 317.733 3300.88 316.233 3300.23 313.567 3299.84 311.525 3299.69 310.108L3299.38 310.108C3297.17 313.212 3295.53 315.442 3294.46 316.796 3293.38 318.15 3292.5 319.15 3291.8 319.796 3291.1 320.442 3290.43 320.895 3289.77 321.155 3289.11 321.416 3288.24 321.546 3287.16 321.546 3286.18 321.546 3285.38 321.421 3284.75 321.171L3286 315.515 3288.19 315.515C3288.32 316.39 3288.68 316.827 3289.29 316.827 3289.58 316.827 3289.88 316.749 3290.21 316.593 3290.53 316.436 3290.99 316.061 3291.6 315.468 3292.2 314.874 3293.04 313.942 3294.1 312.671 3295.16 311.4 3296.7 309.494 3298.72 306.952 3298.41 305.306 3298.09 303.723 3297.75 302.202 3297.42 300.681 3297.08 299.265 3296.72 297.952 3296.37 296.64 3296.08 295.78 3295.85 295.374 3295.62 294.968 3295.37 294.686 3295.11 294.53 3294.85 294.374 3294.52 294.296 3294.13 294.296 3293.69 294.296 3293.3 294.395 3292.94 294.593 3292.59 294.791 3292.2 295.134 3291.79 295.624 3291.37 296.114 3290.82 296.879 3290.13 297.921L3288.1 296.577C3289.41 294.598 3290.67 293.119 3291.88 292.14 3293.09 291.16 3294.51 290.671 3296.16 290.671Z" fill-rule="evenodd"/><text fill="#000000" fill-opacity="0" font-family="Arial,Arial_MSFontService,sans-serif" font-size="30.9062" x="3284.75" y="317.714">­ЮЉЦ</text><path d="M3322.17 275.921C3328.25 277.525 3332.93 280.989 3336.19 286.311 3339.45 291.634 3341.08 298.056 3341.08 305.577 3341.08 313.119 3339.45 319.541 3336.2 324.843 3332.95 330.145 3328.27 333.598 3322.17 335.202L3321.42 332.796C3326.23 331.192 3329.81 328.025 3332.16 323.296 3334.5 318.567 3335.67 312.556 3335.67 305.265 3335.67 298.223 3334.5 292.374 3332.17 287.718 3329.84 283.061 3326.22 279.931 3321.33 278.327Z" fill-rule="evenodd"/><text fill="#000000" fill-opacity="0" font-family="Arial,Arial_MSFontService,sans-serif" font-size="59.2812" x="3321.33" y="327.792">)</text><path d="M2610.5 61.9165 3066.19 61.9168 3066.19 71.0835 2610.5 71.0832ZM3066.19 66.5002 3047.85 43.5835 3093.69 66.5002 3047.85 89.4168Z"/><path d="M3045.04-39.2565C3046.15-39.2565 3047.13-39.1312 3047.97-38.8805 3048.81-38.6299 3049.56-38.245 3050.2-37.7258 3050.84-37.2066 3051.42-36.5352 3051.92-35.7116 3052.42-34.888 3052.9-33.7691 3053.37-32.3547 3053.83-30.9403 3054.27-29.1857 3054.69-27.091 3055.1-24.9963 3055.46-22.821 3055.79-20.5651L3056.32-20.5651C3059.76-25.3991 3062.37-28.9351 3064.14-31.173 3065.91-33.411 3067.41-35.076 3068.62-36.1681 3069.84-37.2603 3071.01-38.0301 3072.14-38.4777 3073.27-38.9253 3074.76-39.1491 3076.63-39.1491 3078.31-39.1491 3079.69-38.9343 3080.76-38.5046L3078.61-28.7829 3074.85-28.7829C3074.64-30.2868 3074.01-31.0387 3072.97-31.0387 3072.65-31.0387 3072.31-30.985 3071.95-30.8776 3071.59-30.7702 3071.16-30.5374 3070.64-30.1794 3070.12-29.8213 3069.36-29.1231 3068.35-28.0846 3067.35-27.0462 3066.22-25.7751 3064.97-24.2712 3063.72-22.7673 3062.43-21.1917 3061.1-19.5446L3057.45-14.9792C3058.1-11.5417 3058.7-8.56967 3059.28-6.06316 3059.85-3.55665 3060.36-1.47088 3060.81 0.19416 3061.26 1.8592 3061.65 3.17512 3061.99 4.14191 3062.33 5.10871 3062.7 5.83381 3063.09 6.31721 3063.48 6.8006 3063.89 7.14077 3064.3 7.33771 3064.71 7.53465 3065.19 7.63312 3065.72 7.63312 3066.69 7.63312 3067.63 7.25715 3068.54 6.50519 3069.46 5.75324 3070.77 4.05239 3072.49 1.40266L3075.98 3.71223C3073.47 7.43618 3071.21 10.0591 3069.19 11.5809 3067.16 13.1027 3064.76 13.8636 3061.96 13.8636 3060.42 13.8636 3059.12 13.5861 3058.04 13.0311 3056.97 12.4761 3056.04 11.5898 3055.25 10.3724 3054.46 9.15493 3053.76 7.25715 3053.15 4.67902 3052.04 0.0956898 3051.36-3.41342 3051.11-5.84832L3050.58-5.84832C3046.78-0.513035 3043.96 3.31835 3042.12 5.64582 3040.27 7.97329 3038.75 9.69204 3037.55 10.8021 3036.35 11.9121 3035.19 12.6909 3034.06 13.1385 3032.93 13.5861 3031.44 13.8099 3029.58 13.8099 3027.89 13.8099 3026.51 13.595 3025.44 13.1653L3027.59 3.44367 3031.35 3.44367C3031.56 4.94758 3032.19 5.69953 3033.23 5.69953 3033.73 5.69953 3034.26 5.56525 3034.81 5.2967 3035.37 5.02814 3036.16 4.38361 3037.2 3.3631 3038.24 2.3426 3039.67 0.740221 3041.5-1.44402 3043.33-3.62827 3045.97-6.90463 3049.45-11.2731 3048.91-14.1019 3048.36-16.8233 3047.78-19.4372 3047.21-22.0511 3046.62-24.486 3046.01-26.7419 3045.4-28.9977 3044.9-30.4748 3044.51-31.173 3044.11-31.8713 3043.69-32.3547 3043.24-32.6232 3042.8-32.8918 3042.23-33.0261 3041.55-33.0261 3040.8-33.0261 3040.12-32.856 3039.51-32.5158 3038.9-32.1756 3038.24-31.5848 3037.52-30.7433 3036.81-29.9019 3035.86-28.5859 3034.68-26.7956L3031.19-29.1052C3033.44-32.5068 3035.61-35.0492 3037.69-36.7321 3039.76-38.415 3042.22-39.2565 3045.04-39.2565Z" fill-rule="evenodd"/><text fill="#000000" fill-opacity="0" font-family="Arial,Arial_MSFontService,sans-serif" font-size="53.1201" x="3025.44" y="7.22358">­ЮЉЦ</text></g></svg>