<svg width="1651" height="1019" xmlns="http://www.w3.org/2000/svg" xmlns:xlink="http://www.w3.org/1999/xlink" xml:space="preserve" overflow="hidden"><defs><radialGradient cx="667790" cy="667789" r="944397" gradientUnits="userSpaceOnUse" spreadMethod="pad" id="fill0" gradientTransform="matrix(0.000360892 0 0 0.000360892 1122.5 927.5)"><stop offset="0" stop-color="#7F7F7F" stop-opacity="0.0392157"/><stop offset="0.0142857" stop-color="#7E7E7E" stop-opacity="0.0393838"/><stop offset="0.0285714" stop-color="#7E7E7E" stop-opacity="0.0395518"/><stop offset="0.0428571" stop-color="#7E7E7E" stop-opacity="0.0397199"/><stop offset="0.0571429" stop-color="#7E7E7E" stop-opacity="0.039888"/><stop offset="0.0714286" stop-color="#7E7E7E" stop-opacity="0.040056"/><stop offset="0.0857143" stop-color="#7E7E7E" stop-opacity="0.0402241"/><stop offset="0.1" stop-color="#7E7E7E" stop-opacity="0.0403922"/><stop offset="0.114286" stop-color="#7D7D7D" stop-opacity="0.0405602"/><stop offset="0.128571" stop-color="#7D7D7D" stop-opacity="0.0407283"/><stop offset="0.142857" stop-color="#7D7D7D" stop-opacity="0.0408964"/><stop offset="0.157143" stop-color="#7C7C7C" stop-opacity="0.0410644"/><stop offset="0.171429" stop-color="#7C7C7C" stop-opacity="0.0412325"/><stop offset="0.185714" stop-color="#7C7B7B" stop-opacity="0.0414006"/><stop offset="0.2" stop-color="#7B7B7B" stop-opacity="0.0415686"/><stop offset="0.214286" stop-color="#7B7B7B" stop-opacity="0.0417367"/><stop offset="0.228571" stop-color="#7A7A7A" stop-opacity="0.0419048"/><stop offset="0.242857" stop-color="#7A7A7A" stop-opacity="0.0420728"/><stop offset="0.257143" stop-color="#797979" stop-opacity="0.0422409"/><stop offset="0.271429" stop-color="#797878" stop-opacity="0.042409"/><stop offset="0.285714" stop-color="#787878" stop-opacity="0.042577"/><stop offset="0.3" stop-color="#777777" stop-opacity="0.0427451"/><stop offset="0.314286" stop-color="#777676" stop-opacity="0.0429132"/><stop offset="0.328571" stop-color="#767676" stop-opacity="0.0430812"/><stop offset="0.342857" stop-color="#757575" stop-opacity="0.0432493"/><stop offset="0.357143" stop-color="#757474" stop-opacity="0.0434174"/><stop offset="0.371429" stop-color="#747373" stop-opacity="0.0435854"/><stop offset="0.385714" stop-color="#737373" stop-opacity="0.0437535"/><stop offset="0.4" stop-color="#727272" stop-opacity="0.0439216"/><stop offset="0.414286" stop-color="#717171" stop-opacity="0.0440896"/><stop offset="0.428571" stop-color="#717070" stop-opacity="0.0442577"/><stop offset="0.442857" stop-color="#706F6F" stop-opacity="0.0444258"/><stop offset="0.457143" stop-color="#6F6E6E" stop-opacity="0.0445938"/><stop offset="0.471429" stop-color="#6E6D6D" stop-opacity="0.0447619"/><stop offset="0.485714" stop-color="#6D6C6C" stop-opacity="0.04493"/><stop offset="0.5" stop-color="#6C6B6B" stop-opacity="0.045098"/><stop offset="0.514286" stop-color="#6B6A6A" stop-opacity="0.0452661"/><stop offset="0.528571" stop-color="#6A6969" stop-opacity="0.0454342"/><stop offset="0.542857" stop-color="#696868" stop-opacity="0.0456022"/><stop offset="0.557143" stop-color="#686767" stop-opacity="0.0457703"/><stop offset="0.571429" stop-color="#676666" stop-opacity="0.0459384"/><stop offset="0.585714" stop-color="#666464" stop-opacity="0.0461064"/><stop offset="0.6" stop-color="#646363" stop-opacity="0.0462745"/><stop offset="0.614286" stop-color="#636262" stop-opacity="0.0464426"/><stop offset="0.628571" stop-color="#626161" stop-opacity="0.0466106"/><stop offset="0.642857" stop-color="#615F5F" stop-opacity="0.0467787"/><stop offset="0.657143" stop-color="#605E5E" stop-opacity="0.0469468"/><stop offset="0.671429" stop-color="#5E5D5D" stop-opacity="0.0471148"/><stop offset="0.685714" stop-color="#5D5C5C" stop-opacity="0.0472829"/><stop offset="0.7" stop-color="#5C5A5A" stop-opacity="0.047451"/><stop offset="0.714286" stop-color="#5A5959" stop-opacity="0.047619"/><stop offset="0.728571" stop-color="#595757" stop-opacity="0.0477871"/><stop offset="0.742857" stop-color="#585656" stop-opacity="0.0479552"/><stop offset="0.757143" stop-color="#565454" stop-opacity="0.0481232"/><stop offset="0.771429" stop-color="#555353" stop-opacity="0.0482913"/><stop offset="0.785714" stop-color="#535151" stop-opacity="0.0484594"/><stop offset="0.8" stop-color="#525050" stop-opacity="0.0486275"/><stop offset="0.814286" stop-color="#504E4E" stop-opacity="0.0487955"/><stop offset="0.828571" stop-color="#4F4D4D" stop-opacity="0.0489636"/><stop offset="0.842857" stop-color="#4D4B4B" stop-opacity="0.0491317"/><stop offset="0.857143" stop-color="#4C4949" stop-opacity="0.0492997"/><stop offset="0.871429" stop-color="#4A4848" stop-opacity="0.0494678"/><stop offset="0.885714" stop-color="#484646" stop-opacity="0.0496359"/><stop offset="0.9" stop-color="#474444" stop-opacity="0.0498039"/><stop offset="0.914286" stop-color="#454242" stop-opacity="0.049972"/><stop offset="0.928571" stop-color="#434141" stop-opacity="0.0501401"/><stop offset="0.942857" stop-color="#423F3F" stop-opacity="0.0503081"/><stop offset="0.957143" stop-color="#403D3D" stop-opacity="0.0504762"/><stop offset="0.971429" stop-color="#3E3B3B" stop-opacity="0.0506443"/><stop offset="0.985714" stop-color="#3C3939" stop-opacity="0.0508123"/><stop offset="1" stop-color="#3B3838" stop-opacity="0.0509804"/></radialGradient><radialGradient cx="1018309" cy="1393768" r="1726135" fx="1018309" gradientUnits="userSpaceOnUse" spreadMethod="pad" id="fill1" gradientTransform="matrix(0.000360892 0 0 0.000360892 1947 690)"><stop offset="0" stop-color="#FFD963" stop-opacity="0.2"/><stop offset="0.1" stop-color="#FFD963" stop-opacity="0.2"/><stop offset="1" stop-color="#FFF2CC" stop-opacity="0.101961"/></radialGradient></defs><g transform="translate(-1079 -677)"><rect x="1122.5" y="927.5" width="482" height="482" stroke="#172C51" stroke-width="9.16667" stroke-miterlimit="8" fill="url(#fill0)"/><path d="M0 0 0.000360892 117.775" stroke="#2E141D" stroke-width="4.58333" stroke-miterlimit="8" fill="none" fill-rule="evenodd" transform="matrix(1 0 0 -1 1122.5 1527.27)"/><path d="M0 0 0.000360892 117.775" stroke="#2E141D" stroke-width="4.58333" stroke-miterlimit="8" fill="none" fill-rule="evenodd" transform="matrix(1 0 0 -1 1604.5 1527.27)"/><path d="M27.5001-2.29165 455.278-2.29133 455.278 2.29201 27.5001 2.29169ZM27.5 2.05571e-05 45.8333 13.75 0 0 45.8333-13.75ZM455.278 0.000340335 436.945-13.7497 482.778 0.000360892 436.945 13.7503Z" fill="#2E141D" transform="matrix(-1 0 0 1 1605.28 1470.5)"/><path d="M1367.83 1523.18C1366.53 1523.18 1365.25 1523.59 1364 1524.42 1362.74 1525.24 1361.34 1526.61 1359.8 1528.51 1358.26 1530.42 1357.01 1532.37 1356.03 1534.37 1355.06 1536.37 1354.24 1538.92 1353.56 1542.03L1353.2 1543.73C1352.79 1545.62 1352.59 1547.46 1352.59 1549.24 1352.59 1551.38 1353.06 1552.92 1353.99 1553.86 1354.92 1554.81 1356.47 1555.28 1358.63 1555.28 1359.74 1555.28 1360.79 1555.1 1361.79 1554.73 1362.79 1554.37 1363.81 1553.77 1364.85 1552.93 1365.89 1552.09 1366.88 1550.99 1367.81 1549.63 1368.74 1548.26 1369.6 1546.58 1370.38 1544.58 1371.16 1542.58 1371.77 1540.44 1372.2 1538.16 1372.64 1535.87 1372.85 1533.69 1372.85 1531.61 1372.85 1528.8 1372.45 1526.69 1371.66 1525.29 1370.86 1523.88 1369.58 1523.18 1367.83 1523.18ZM1360.74 1499.88 1363.09 1499.88 1355.95 1528.25 1356.48 1528.41C1359.1 1524.9 1361.56 1522.36 1363.86 1520.79 1366.15 1519.22 1368.45 1518.44 1370.75 1518.44 1373.69 1518.44 1375.98 1519.56 1377.62 1521.8 1379.25 1524.05 1380.07 1527.21 1380.07 1531.29 1380.07 1535.75 1379.17 1540.13 1377.37 1544.44 1375.58 1548.75 1373.08 1552.17 1369.89 1554.69 1366.71 1557.22 1363.14 1558.48 1359.2 1558.48 1355.6 1558.48 1352.41 1557.6 1349.63 1555.85L1345.9 1558.48 1343.31 1557.83 1353.81 1511.51C1354.43 1508.75 1354.74 1506.76 1354.74 1505.51 1354.74 1504.38 1354.39 1503.58 1353.7 1503.12 1353.02 1502.66 1351.78 1502.41 1350 1502.35L1350.48 1500.24Z" fill-rule="evenodd"/><text fill="#000000" fill-opacity="0" font-family="Arial,Arial_MSFontService,sans-serif" font-size="58.6025" x="1343.31" y="1551.16">­ЮЉЈ</text><path d="M1337.5 830.063 1521.26 830.063 1521.26 836.938 1337.5 836.938ZM1521.26 833.5 1502.93 810.584 1548.76 833.5 1502.93 856.417Z" fill="#2E141D"/><path d="M1457.36 770.376C1459.31 770.376 1460.71 770.883 1461.58 771.896 1462.44 772.909 1462.87 774.267 1462.87 775.969 1462.87 777.266 1462.64 778.752 1462.18 780.427 1461.72 782.102 1461.08 783.872 1460.24 785.736 1459.4 787.6 1458.4 789.512 1457.24 791.471 1456.08 793.429 1454.79 795.334 1453.39 797.185 1451.98 799.036 1450.48 800.778 1448.89 802.413 1447.3 804.048 1445.64 805.473 1443.93 806.689 1442.21 807.904 1440.47 808.87 1438.7 809.586 1436.93 810.302 1435.17 810.66 1433.41 810.66 1432.63 810.66 1431.97 810.464 1431.44 810.073 1430.92 809.681 1430.49 809.127 1430.17 808.411 1429.84 807.695 1429.61 806.851 1429.48 805.878 1429.34 804.905 1429.28 803.838 1429.28 802.676 1429.28 801.136 1429.37 799.488 1429.56 797.732 1429.75 795.976 1429.99 794.206 1430.29 792.423L1431.99 781.197C1432.1 780.548 1432.19 779.934 1432.25 779.353 1432.32 778.772 1432.36 778.346 1432.36 778.076 1432.36 777.239 1432.22 776.55 1431.95 776.009 1431.68 775.469 1431.22 775.199 1430.57 775.199 1430.06 775.199 1429.51 775.354 1428.91 775.665 1428.32 775.976 1427.72 776.374 1427.11 776.86 1426.5 777.347 1425.91 777.867 1425.34 778.421 1424.78 778.975 1424.25 779.495 1423.76 779.981L1421.82 777.712C1422.66 776.847 1423.55 775.989 1424.49 775.138 1425.44 774.287 1426.44 773.517 1427.49 772.828 1428.55 772.139 1429.65 771.585 1430.82 771.166 1431.98 770.748 1433.17 770.538 1434.38 770.538 1435.41 770.538 1436.25 770.707 1436.89 771.045 1437.54 771.383 1438.05 771.828 1438.41 772.382 1438.78 772.936 1439.03 773.544 1439.16 774.206 1439.3 774.868 1439.37 775.523 1439.37 776.172 1439.37 776.55 1439.35 776.914 1439.33 777.266 1439.3 777.617 1439.26 777.941 1439.2 778.238L1436.94 792.909C1436.69 794.449 1436.49 795.956 1436.33 797.428 1436.17 798.901 1436.08 800.204 1436.08 801.339 1436.08 802.474 1436.15 803.392 1436.29 804.095 1436.42 804.797 1436.68 805.149 1437.06 805.149 1437.95 805.149 1439.07 804.791 1440.42 804.075 1441.77 803.359 1443.19 802.372 1444.68 801.116 1446.16 799.86 1447.65 798.374 1449.13 796.658 1450.62 794.942 1451.96 793.085 1453.15 791.086 1454.34 789.086 1455.3 786.979 1456.04 784.763 1456.79 782.548 1457.16 780.319 1457.16 778.076 1457.16 777.104 1456.95 776.354 1456.53 775.827 1456.11 775.3 1455.46 775.037 1454.56 775.037 1453.43 775.037 1452.38 775.476 1451.42 776.354 1450.46 777.232 1449.47 778.387 1448.45 779.819L1446.14 777.752C1446.78 776.779 1447.55 775.847 1448.42 774.956 1449.3 774.064 1450.23 773.281 1451.22 772.605 1452.21 771.93 1453.23 771.389 1454.28 770.984 1455.33 770.579 1456.36 770.376 1457.36 770.376Z" fill-rule="evenodd"/><text fill="#000000" fill-opacity="0" font-family="Arial,Arial_MSFontService,sans-serif" font-size="40.2842" x="1421.82" y="805.625">­ЮЉБ</text><path d="M1453.37 744.618 1463.54 753.413 1463.54 755.763 1453.37 764.558 1451.22 762.126 1457.71 756.493 1432.98 756.493 1432.98 752.683 1457.71 752.683 1451.22 747.05Z" fill-rule="evenodd"/><text fill="#000000" fill-opacity="0" font-family="Arial,Arial_MSFontService,sans-serif" font-size="19.9395" x="1432.98" y="762.065">нд</text><rect x="1947" y="690" width="735" height="1006" fill="url(#fill1)"/><path d="M1947.5 677.5 1947.5 1683.52" stroke="#000000" stroke-width="4.58333" stroke-miterlimit="8" stroke-dasharray="36.6667 13.75" fill="none" fill-rule="evenodd"/><path d="M2688.5 677.5 2688.5 1683.52" stroke="#000000" stroke-width="4.58333" stroke-miterlimit="8" stroke-dasharray="36.6667 13.75" fill="none" fill-rule="evenodd"/><path d="M27.5001-2.29165 707.226-2.29132 707.226 2.29201 27.5001 2.29168ZM27.5 1.35078e-05 45.8333 13.75 0 0 45.8333-13.75ZM707.226 0.000347385 688.893-13.7497 734.726 0.000360892 688.893 13.7503Z" fill="#2E141D" transform="matrix(-1 0 0 1 2686.23 1596.5)"/><path d="M2320 1530.41C2317.21 1530.41 2314.72 1531.53 2312.5 1533.78 2310.28 1536.02 2308.56 1539.02 2307.31 1542.79 2306.07 1546.56 2305.45 1550.32 2305.45 1554.08 2305.45 1556.89 2305.83 1558.99 2306.6 1560.38 2307.37 1561.77 2308.66 1562.47 2310.47 1562.47 2312.26 1562.47 2314.01 1561.7 2315.72 1560.16 2317.44 1558.62 2319.21 1556.42 2321.03 1553.57 2322.85 1550.72 2324.14 1547.43 2324.9 1543.7L2325.27 1541.96C2325.51 1540.85 2325.67 1539.9 2325.75 1539.08 2325.83 1538.27 2325.87 1537.4 2325.87 1536.45 2325.87 1534.37 2325.43 1532.84 2324.54 1531.87 2323.64 1530.9 2322.13 1530.41 2320 1530.41ZM2319.19 1527.21C2320.94 1527.21 2322.58 1527.41 2324.11 1527.8 2325.64 1528.19 2327.21 1528.89 2328.83 1529.88L2332.56 1527.21 2335.15 1527.86 2329.2 1553.55C2328.6 1556.12 2328.31 1558.12 2328.31 1559.55 2328.31 1560.63 2328.48 1561.42 2328.83 1561.9 2329.18 1562.39 2329.74 1562.63 2330.49 1562.63 2331.3 1562.63 2332.17 1562.3 2333.09 1561.64 2334.01 1560.98 2335.3 1559.71 2336.98 1557.85L2339.29 1560.12C2336.86 1562.71 2334.78 1564.56 2333.07 1565.65 2331.35 1566.74 2329.49 1567.29 2327.49 1567.29 2325.82 1567.29 2324.48 1566.74 2323.48 1565.63 2322.48 1564.52 2321.98 1563.05 2321.98 1561.21 2321.98 1559.73 2322.29 1558.15 2322.92 1556.47L2322.39 1556.31C2319.79 1560.09 2317.34 1562.86 2315.01 1564.62 2312.69 1566.37 2310.23 1567.25 2307.64 1567.25 2304.66 1567.25 2302.36 1566.13 2300.73 1563.89 2299.09 1561.64 2298.27 1558.5 2298.27 1554.44 2298.27 1549.8 2299.19 1545.33 2301.01 1541.05 2302.83 1536.77 2305.34 1533.39 2308.53 1530.92 2311.72 1528.45 2315.27 1527.21 2319.19 1527.21Z" fill-rule="evenodd"/><text fill="#000000" fill-opacity="0" font-family="Arial,Arial_MSFontService,sans-serif" font-size="40.0815" x="2298.27" y="1562.28">­ЮЉј</text><path d="M2459.59 757.991 2477.95 776.31 2496.31 757.991 2500.12 761.76 2481.96 780.241 2500.16 798.64 2496.11 802.693 2477.95 784.172 2459.23 802.531 2455.46 798.721 2473.98 780.241 2455.54 762.044Z" fill-rule="evenodd"/><text fill="#000000" fill-opacity="0" font-family="Arial,Arial_MSFontService,sans-serif" font-size="44.7017" x="2455.46" y="797.105">├Ќ</text><path d="M2447.5 781.5C2447.5 764.379 2460.93 750.5 2477.5 750.5 2494.07 750.5 2507.5 764.379 2507.5 781.5 2507.5 798.621 2494.07 812.5 2477.5 812.5 2460.93 812.5 2447.5 798.621 2447.5 781.5Z" stroke="#000000" stroke-width="4.58333" stroke-miterlimit="8" fill="none" fill-rule="evenodd"/><path d="M2558.32 783.889 2553.29 807.111C2554.94 807.219 2556.97 807.273 2559.37 807.273 2563.48 807.273 2566.57 806.807 2568.63 805.875 2570.7 804.943 2572.48 803.288 2573.96 800.91 2575.45 798.533 2576.19 795.601 2576.19 792.116 2576.19 789.387 2575.29 787.334 2573.5 785.956 2571.7 784.578 2569.02 783.889 2565.45 783.889ZM2570.32 759.086C2567.96 759.086 2565.78 759.127 2563.75 759.208L2559.17 780.322 2564.88 780.322C2568.07 780.322 2570.61 780.066 2572.48 779.552 2574.36 779.039 2576.02 778.12 2577.45 776.796 2578.88 775.473 2579.92 774.02 2580.57 772.44 2581.22 770.859 2581.54 769.029 2581.54 766.948 2581.54 765.786 2581.34 764.699 2580.93 763.686 2580.53 762.673 2579.83 761.808 2578.85 761.092 2577.86 760.376 2576.73 759.863 2575.44 759.552 2574.16 759.241 2572.45 759.086 2570.32 759.086ZM2552.12 755.52 2572.18 755.52C2576.23 755.52 2579.48 755.945 2581.93 756.796 2584.37 757.647 2586.17 758.897 2587.32 760.545 2588.46 762.193 2589.04 764.26 2589.04 766.746 2589.04 770.285 2587.96 773.372 2585.8 776.006 2583.64 778.64 2580.42 780.66 2576.15 782.065L2576.07 782.511C2578.58 783.51 2580.51 784.936 2581.87 786.786 2583.22 788.637 2583.89 790.738 2583.89 793.088 2583.89 796.682 2583.07 799.755 2581.42 802.308 2579.77 804.862 2577.3 806.922 2574 808.489 2570.71 810.056 2565.88 810.839 2559.53 810.839L2541.5 810.839 2541.95 808.854C2542.97 808.691 2543.74 808.428 2544.26 808.063 2544.77 807.699 2545.2 807.192 2545.55 806.544 2545.9 805.895 2546.23 805.105 2546.53 804.173 2546.82 803.241 2547.27 801.437 2547.86 798.762L2554.75 767.556C2555.35 764.854 2555.64 762.72 2555.64 761.153 2555.64 759.829 2555.33 758.91 2554.71 758.397 2554.09 757.884 2553.08 757.586 2551.67 757.505Z" fill-rule="evenodd"/><text fill="#000000" fill-opacity="0" font-family="Arial,Arial_MSFontService,sans-serif" font-size="55.3198" x="2541.5" y="803.924">­Юљх</text><path d="M2583.61 729.857 2593.79 738.652 2593.79 741.002 2583.61 749.797 2581.47 747.365 2587.95 741.732 2571.94 741.732 2563.23 741.732 2547.62 741.732 2547.62 737.922 2563.23 737.922 2571.94 737.922 2587.95 737.922 2581.47 732.289Z" fill-rule="evenodd"/></g></svg>