<?xml version="1.0" encoding="UTF-8" standalone="no"?>
<svg
   width="998.13pt"
   height="452.236781pt"
   viewBox="0 0 998.13 452.236781"
   version="1.1"
   id="svg62"
   sodipodi:docname="fig07_succession.svg"
   inkscape:version="1.4.2 (f4327f4, 2025-05-13)"
   xmlns:inkscape="http://www.inkscape.org/namespaces/inkscape"
   xmlns:sodipodi="http://sodipodi.sourceforge.net/DTD/sodipodi-0.dtd"
   xmlns:xlink="http://www.w3.org/1999/xlink"
   xmlns="http://www.w3.org/2000/svg"
   xmlns:svg="http://www.w3.org/2000/svg"
   xmlns:rdf="http://www.w3.org/1999/02/22-rdf-syntax-ns#"
   xmlns:cc="http://creativecommons.org/ns#"
   xmlns:dc="http://purl.org/dc/elements/1.1/">
  <sodipodi:namedview
     id="namedview62"
     pagecolor="#ffffff"
     bordercolor="#000000"
     borderopacity="0.25"
     inkscape:showpageshadow="2"
     inkscape:pageopacity="0.0"
     inkscape:pagecheckerboard="0"
     inkscape:deskcolor="#d1d1d1"
     inkscape:document-units="pt"
     inkscape:zoom="0.90648344"
     inkscape:cx="560.95895"
     inkscape:cy="311.64386"
     inkscape:window-width="1920"
     inkscape:window-height="991"
     inkscape:window-x="-9"
     inkscape:window-y="-9"
     inkscape:window-maximized="1"
     inkscape:current-layer="axes_1" />
  <metadata
     id="metadata1">
    <rdf:RDF>
      <cc:Work>
        <dc:type
           rdf:resource="http://purl.org/dc/dcmitype/StillImage" />
        <dc:date>2026-05-19T11:13:55.462340</dc:date>
        <dc:format>image/svg+xml</dc:format>
        <dc:creator>
          <cc:Agent>
            <dc:title>Matplotlib v3.10.8, https://matplotlib.org/</dc:title>
          </cc:Agent>
        </dc:creator>
      </cc:Work>
    </rdf:RDF>
  </metadata>
  <defs
     id="defs1">
    <style
       type="text/css"
       id="style1">*{stroke-linejoin: round; stroke-linecap: butt}</style>
  </defs>
  <g
     id="figure_1">
    <g
       id="patch_1">
      <path
         d="M 0 452.236781  L 998.13 452.236781  L 998.13 0  L 0 0  z "
         style="fill: #ffffff"
         id="path1" />
    </g>
    <g
       id="axes_1">
      <g
         id="patch_2">
        <path
           d="M 52.31 397.9595  L 990.93 397.9595  L 990.93 33.4275  L 52.31 33.4275  z "
           style="fill: #ffffff"
           id="path2" />
      </g>
      <g
         id="matplotlib.axis_1">
        <g
           id="xtick_1">
          <g
             id="line2d_1">
            <defs
               id="defs2">
              <path
                 id="m8ce27124a1"
                 d="M 0 0  L 0 5  "
                 style="stroke: #0a0a0a; stroke-width: 0.8" />
            </defs>
            <g
               id="g2">
              <use
                 xlink:href="#m8ce27124a1"
                 x="151.540191"
                 y="397.9595"
                 style="fill: #0a0a0a; stroke: #0a0a0a; stroke-width: 0.8"
                 id="use2" />
            </g>
          </g>
          <g
             id="text_1">
            <text
               style="font-size: 11px; font-family: 'DejaVu Sans', 'Arial', 'Helvetica', sans-serif; fill: #0a0a0a"
               transform="translate(141.394409 414.817781)"
               id="text2">янв</text>
            <text
               style="font-size: 11px; font-family: 'DejaVu Sans', 'Arial', 'Helvetica', sans-serif; fill: #0a0a0a"
               transform="translate(137.542691 427.135375)"
               id="text3">2025</text>
          </g>
        </g>
        <g
           id="xtick_2">
          <g
             id="line2d_2">
            <g
               id="g3">
              <use
                 xlink:href="#m8ce27124a1"
                 x="297.94539"
                 y="397.9595"
                 style="fill: #0a0a0a; stroke: #0a0a0a; stroke-width: 0.8"
                 id="use3" />
            </g>
          </g>
          <g
             id="text_2">
            <text
               style="font-size: 11px; font-family: 'DejaVu Sans', 'Arial', 'Helvetica', sans-serif; fill: #0a0a0a"
               transform="translate(287.487656 414.817781)"
               id="text4">апр</text>
            <text
               style="font-size: 11px; font-family: 'DejaVu Sans', 'Arial', 'Helvetica', sans-serif; fill: #0a0a0a"
               transform="translate(283.94789 427.135375)"
               id="text5">2025</text>
          </g>
        </g>
        <g
           id="xtick_3">
          <g
             id="line2d_3">
            <g
               id="g5">
              <use
                 xlink:href="#m8ce27124a1"
                 x="445.977314"
                 y="397.9595"
                 style="fill: #0a0a0a; stroke: #0a0a0a; stroke-width: 0.8"
                 id="use5" />
            </g>
          </g>
          <g
             id="text_3">
            <text
               style="font-size: 11px; font-family: 'DejaVu Sans', 'Arial', 'Helvetica', sans-serif; fill: #0a0a0a"
               transform="translate(434.257157 414.817781)"
               id="text6">июл</text>
            <text
               style="font-size: 11px; font-family: 'DejaVu Sans', 'Arial', 'Helvetica', sans-serif; fill: #0a0a0a"
               transform="translate(431.979814 427.135375)"
               id="text7">2025</text>
          </g>
        </g>
        <g
           id="xtick_4">
          <g
             id="line2d_4">
            <g
               id="g7">
              <use
                 xlink:href="#m8ce27124a1"
                 x="595.635962"
                 y="397.9595"
                 style="fill: #0a0a0a; stroke: #0a0a0a; stroke-width: 0.8"
                 id="use7" />
            </g>
          </g>
          <g
             id="text_4">
            <text
               style="font-size: 11px; font-family: 'DejaVu Sans', 'Arial', 'Helvetica', sans-serif; fill: #0a0a0a"
               transform="translate(585.744556 414.817781)"
               id="text8">окт</text>
            <text
               style="font-size: 11px; font-family: 'DejaVu Sans', 'Arial', 'Helvetica', sans-serif; fill: #0a0a0a"
               transform="translate(581.638462 427.135375)"
               id="text9">2025</text>
          </g>
        </g>
        <g
           id="xtick_5">
          <g
             id="line2d_5">
            <g
               id="g9">
              <use
                 xlink:href="#m8ce27124a1"
                 x="745.29461"
                 y="397.9595"
                 style="fill: #0a0a0a; stroke: #0a0a0a; stroke-width: 0.8"
                 id="use9" />
            </g>
          </g>
          <g
             id="text_5">
            <text
               style="font-size: 11px; font-family: 'DejaVu Sans', 'Arial', 'Helvetica', sans-serif; fill: #0a0a0a"
               transform="translate(735.148829 414.817781)"
               id="text10">янв</text>
            <text
               style="font-size: 11px; font-family: 'DejaVu Sans', 'Arial', 'Helvetica', sans-serif; fill: #0a0a0a"
               transform="translate(731.29711 427.135375)"
               id="text11">2026</text>
          </g>
        </g>
        <g
           id="xtick_6">
          <g
             id="line2d_6">
            <g
               id="g11">
              <use
                 xlink:href="#m8ce27124a1"
                 x="891.699809"
                 y="397.9595"
                 style="fill: #0a0a0a; stroke: #0a0a0a; stroke-width: 0.8"
                 id="use11" />
            </g>
          </g>
          <g
             id="text_6">
            <text
               style="font-size: 11px; font-family: 'DejaVu Sans', 'Arial', 'Helvetica', sans-serif; fill: #0a0a0a"
               transform="translate(881.242075 414.817781)"
               id="text12">апр</text>
            <text
               style="font-size: 11px; font-family: 'DejaVu Sans', 'Arial', 'Helvetica', sans-serif; fill: #0a0a0a"
               transform="translate(877.702309 427.135375)"
               id="text13">2026</text>
          </g>
        </g>
        <g
           id="text_7">
          <text
             style="font-size:22.9951px;font-family:'DejaVu Sans', Arial, Helvetica, sans-serif;text-anchor:middle;fill:#0a0a0a;stroke-width:1.91625"
             x="527.27808"
             y="434.87155"
             id="text14">дата</text>
        </g>
      </g>
      <g
         id="matplotlib.axis_2">
        <g
           id="ytick_1">
          <g
             id="line2d_7">
            <path
               d="M 52.31 397.9595  L 990.93 397.9595  "
               clip-path="url(#p1a676f5089)"
               style="fill: none; stroke: #e8e8e8; stroke-opacity: 0.55; stroke-width: 0.8; stroke-linecap: square"
               id="path14" />
          </g>
          <g
             id="line2d_8">
            <defs
               id="defs14">
              <path
                 id="m0acb625ef7"
                 d="M 0 0  L -5 0  "
                 style="stroke: #0a0a0a; stroke-width: 0.8" />
            </defs>
            <g
               id="g14">
              <use
                 xlink:href="#m0acb625ef7"
                 x="52.31"
                 y="397.9595"
                 style="fill: #0a0a0a; stroke: #0a0a0a; stroke-width: 0.8"
                 id="use14" />
            </g>
          </g>
          <g
             id="text_8">
            <text
               style="font-size: 11px; font-family: 'DejaVu Sans', 'Arial', 'Helvetica', sans-serif; text-anchor: end; fill: #0a0a0a"
               x="43.81"
               y="402.138641"
               transform="rotate(-0 43.81 402.138641)"
               id="text15">0</text>
          </g>
        </g>
        <g
           id="ytick_2">
          <g
             id="line2d_9">
            <path
               d="M 52.31 323.458785  L 990.93 323.458785  "
               clip-path="url(#p1a676f5089)"
               style="fill: none; stroke: #e8e8e8; stroke-opacity: 0.55; stroke-width: 0.8; stroke-linecap: square"
               id="path15" />
          </g>
          <g
             id="line2d_10">
            <g
               id="g15">
              <use
                 xlink:href="#m0acb625ef7"
                 x="52.31"
                 y="323.458785"
                 style="fill: #0a0a0a; stroke: #0a0a0a; stroke-width: 0.8"
                 id="use15" />
            </g>
          </g>
          <g
             id="text_9">
            <text
               style="font-size: 11px; font-family: 'DejaVu Sans', 'Arial', 'Helvetica', sans-serif; text-anchor: end; fill: #0a0a0a"
               x="43.81"
               y="327.637925"
               transform="rotate(-0 43.81 327.637925)"
               id="text16">200</text>
          </g>
        </g>
        <g
           id="ytick_3">
          <g
             id="line2d_11">
            <path
               d="M 52.31 248.958069  L 990.93 248.958069  "
               clip-path="url(#p1a676f5089)"
               style="fill: none; stroke: #e8e8e8; stroke-opacity: 0.55; stroke-width: 0.8; stroke-linecap: square"
               id="path16" />
          </g>
          <g
             id="line2d_12">
            <g
               id="g16">
              <use
                 xlink:href="#m0acb625ef7"
                 x="52.31"
                 y="248.958069"
                 style="fill: #0a0a0a; stroke: #0a0a0a; stroke-width: 0.8"
                 id="use16" />
            </g>
          </g>
          <g
             id="text_10">
            <text
               style="font-size: 11px; font-family: 'DejaVu Sans', 'Arial', 'Helvetica', sans-serif; text-anchor: end; fill: #0a0a0a"
               x="43.81"
               y="253.13721"
               transform="rotate(-0 43.81 253.13721)"
               id="text17">400</text>
          </g>
        </g>
        <g
           id="ytick_4">
          <g
             id="line2d_13">
            <path
               d="M 52.31 174.457354  L 990.93 174.457354  "
               clip-path="url(#p1a676f5089)"
               style="fill: none; stroke: #e8e8e8; stroke-opacity: 0.55; stroke-width: 0.8; stroke-linecap: square"
               id="path17" />
          </g>
          <g
             id="line2d_14">
            <g
               id="g17">
              <use
                 xlink:href="#m0acb625ef7"
                 x="52.31"
                 y="174.457354"
                 style="fill: #0a0a0a; stroke: #0a0a0a; stroke-width: 0.8"
                 id="use17" />
            </g>
          </g>
          <g
             id="text_11">
            <text
               style="font-size: 11px; font-family: 'DejaVu Sans', 'Arial', 'Helvetica', sans-serif; text-anchor: end; fill: #0a0a0a"
               x="43.81"
               y="178.636495"
               transform="rotate(-0 43.81 178.636495)"
               id="text18">600</text>
          </g>
        </g>
        <g
           id="ytick_5">
          <g
             id="line2d_15">
            <path
               d="M 52.31 99.956639  L 990.93 99.956639  "
               clip-path="url(#p1a676f5089)"
               style="fill: none; stroke: #e8e8e8; stroke-opacity: 0.55; stroke-width: 0.8; stroke-linecap: square"
               id="path18" />
          </g>
          <g
             id="line2d_16">
            <g
               id="g18">
              <use
                 xlink:href="#m0acb625ef7"
                 x="52.31"
                 y="99.956639"
                 style="fill: #0a0a0a; stroke: #0a0a0a; stroke-width: 0.8"
                 id="use18" />
            </g>
          </g>
          <g
             id="text_12">
            <text
               style="font-size: 11px; font-family: 'DejaVu Sans', 'Arial', 'Helvetica', sans-serif; text-anchor: end; fill: #0a0a0a"
               x="43.81"
               y="104.135779"
               transform="rotate(-0 43.81 104.135779)"
               id="text19">800</text>
          </g>
        </g>
        <g
           id="text_13"
           transform="matrix(1.5773528,0,0,1.5773528,-7.2798532,-135.00916)">
          <!-- правки в месяц,  $N$ -->
          <g
             style="fill:#0a0a0a"
             transform="rotate(-90,145.39362,129.09987)"
             id="g36">
            <text
               id="text36"><tspan
                 x="0"
                 y="-0.15625"
                 style="font-size:12px;font-family:'DejaVu Sans';fill:#0a0a0a"
                 id="tspan19">п</tspan><tspan
                 x="7.8457031"
                 y="-0.15625"
                 style="font-size:12px;font-family:'DejaVu Sans';fill:#0a0a0a"
                 id="tspan20">р</tspan><tspan
                 x="15.462891"
                 y="-0.15625"
                 style="font-size:12px;font-family:'DejaVu Sans';fill:#0a0a0a"
                 id="tspan21">а</tspan><tspan
                 x="22.816406"
                 y="-0.15625"
                 style="font-size:12px;font-family:'DejaVu Sans';fill:#0a0a0a"
                 id="tspan22">в</tspan><tspan
                 x="29.888672"
                 y="-0.15625"
                 style="font-size:12px;font-family:'DejaVu Sans';fill:#0a0a0a"
                 id="tspan23">к</tspan><tspan
                 x="37.136719"
                 y="-0.15625"
                 style="font-size:12px;font-family:'DejaVu Sans';fill:#0a0a0a"
                 id="tspan24">и</tspan><tspan
                 x="44.935547"
                 y="-0.15625"
                 style="font-size:12px;font-family:'DejaVu Sans';fill:#0a0a0a"
                 id="tspan25"> </tspan><tspan
                 x="48.75"
                 y="-0.15625"
                 style="font-size:12px;font-family:'DejaVu Sans';fill:#0a0a0a"
                 id="tspan26">в</tspan><tspan
                 x="55.822266"
                 y="-0.15625"
                 style="font-size:12px;font-family:'DejaVu Sans';fill:#0a0a0a"
                 id="tspan27"> </tspan><tspan
                 x="59.636719"
                 y="-0.15625"
                 style="font-size:12px;font-family:'DejaVu Sans';fill:#0a0a0a"
                 id="tspan28">м</tspan><tspan
                 x="68.689453"
                 y="-0.15625"
                 style="font-size:12px;font-family:'DejaVu Sans';fill:#0a0a0a"
                 id="tspan29">е</tspan><tspan
                 x="76.072266"
                 y="-0.15625"
                 style="font-size:12px;font-family:'DejaVu Sans';fill:#0a0a0a"
                 id="tspan30">с</tspan><tspan
                 x="82.669922"
                 y="-0.15625"
                 style="font-size:12px;font-family:'DejaVu Sans';fill:#0a0a0a"
                 id="tspan31">я</tspan><tspan
                 x="89.888672"
                 y="-0.15625"
                 style="font-size:12px;font-family:'DejaVu Sans';fill:#0a0a0a"
                 id="tspan32">ц</tspan><tspan
                 x="98.056641"
                 y="-0.15625"
                 style="font-size:12px;font-family:'DejaVu Sans';fill:#0a0a0a"
                 id="tspan33">,</tspan><tspan
                 x="101.87109"
                 y="-0.15625"
                 style="font-size:12px;font-family:'DejaVu Sans';fill:#0a0a0a"
                 id="tspan34"> </tspan><tspan
                 x="105.68555"
                 y="-0.15625"
                 style="font-size:12px;font-family:'DejaVu Sans';fill:#0a0a0a"
                 id="tspan35"> </tspan><tspan
                 x="109.5"
                 y="-0.15625"
                 style="font-style:italic;font-size:12px;font-family:STIXGeneral;fill:#0a0a0a"
                 id="tspan36">N</tspan></text>
          </g>
        </g>
      </g>
      <g
         id="FillBetweenPolyCollection_1">
        <defs
           id="defs36">
          <path
             id="med6778acda"
             d="M 52.31 -101.212732  L 52.31 -54.277281  L 101.111733 -54.277281  L 151.540191 -54.277281  L 201.968648 -54.277281  L 247.516932 -54.277281  L 297.94539 -54.277281  L 346.747123 -54.277281  L 397.175581 -54.277281  L 445.977314 -54.277281  L 496.405771 -54.277281  L 546.834229 -54.277281  L 595.635962 -54.277281  L 646.064419 -54.277281  L 694.866153 -54.277281  L 745.29461 -54.277281  L 795.723068 -54.277281  L 841.271352 -54.277281  L 891.699809 -54.277281  L 940.501542 -54.277281  L 940.501542 -55.394792  L 940.501542 -55.394792  L 891.699809 -56.512303  L 841.271352 -60.609842  L 795.723068 -54.277281  L 745.29461 -54.277281  L 694.866153 -59.492331  L 646.064419 -61.354849  L 595.635962 -57.25731  L 546.834229 -58.747324  L 496.405771 -55.394792  L 445.977314 -55.022288  L 397.175581 -59.119828  L 346.747123 -61.354849  L 297.94539 -74.764978  L 247.516932 -90.782632  L 201.968648 -60.982346  L 151.540191 -91.527639  L 101.111733 -401.450615  L 52.31 -101.212732  z "
             style="stroke: #ffffff; stroke-opacity: 0.88; stroke-width: 0.4" />
        </defs>
        <g
           clip-path="url(#p1a676f5089)"
           id="g37">
          <use
             xlink:href="#med6778acda"
             x="0"
             y="452.236781"
             style="fill: #e60000; fill-opacity: 0.88; stroke: #ffffff; stroke-opacity: 0.88; stroke-width: 0.4"
             id="use36" />
        </g>
      </g>
      <g
         id="FillBetweenPolyCollection_2">
        <defs
           id="defs37">
          <path
             id="m20294894b2"
             d="M 52.31 -101.212732  L 52.31 -101.212732  L 101.111733 -401.450615  L 151.540191 -91.527639  L 201.968648 -60.982346  L 247.516932 -90.782632  L 297.94539 -74.764978  L 346.747123 -61.354849  L 397.175581 -59.119828  L 445.977314 -55.022288  L 496.405771 -55.394792  L 546.834229 -58.747324  L 595.635962 -57.25731  L 646.064419 -61.354849  L 694.866153 -59.492331  L 745.29461 -54.277281  L 795.723068 -54.277281  L 841.271352 -60.609842  L 891.699809 -56.512303  L 940.501542 -55.394792  L 940.501542 -56.139799  L 940.501542 -56.139799  L 891.699809 -56.512303  L 841.271352 -60.609842  L 795.723068 -56.139799  L 745.29461 -54.277281  L 694.866153 -59.492331  L 646.064419 -61.354849  L 595.635962 -57.25731  L 546.834229 -58.747324  L 496.405771 -55.394792  L 445.977314 -55.022288  L 397.175581 -59.119828  L 346.747123 -63.217367  L 297.94539 -74.764978  L 247.516932 -91.900142  L 201.968648 -70.667439  L 151.540191 -135.110557  L 101.111733 -401.450615  L 52.31 -101.212732  z "
             style="stroke: #ffffff; stroke-opacity: 0.88; stroke-width: 0.4" />
        </defs>
        <g
           clip-path="url(#p1a676f5089)"
           id="g38">
          <use
             xlink:href="#m20294894b2"
             x="0"
             y="452.236781"
             style="fill: #00ccff; fill-opacity: 0.88; stroke: #ffffff; stroke-opacity: 0.88; stroke-width: 0.4"
             id="use37" />
        </g>
      </g>
      <g
         id="FillBetweenPolyCollection_3">
        <defs
           id="defs38">
          <path
             id="mb8f1cf6f49"
             d="M 52.31 -101.212732  L 52.31 -101.212732  L 101.111733 -401.450615  L 151.540191 -135.110557  L 201.968648 -70.667439  L 247.516932 -91.900142  L 297.94539 -74.764978  L 346.747123 -63.217367  L 397.175581 -59.119828  L 445.977314 -55.022288  L 496.405771 -55.394792  L 546.834229 -58.747324  L 595.635962 -57.25731  L 646.064419 -61.354849  L 694.866153 -59.492331  L 745.29461 -54.277281  L 795.723068 -56.139799  L 841.271352 -60.609842  L 891.699809 -56.512303  L 940.501542 -56.139799  L 940.501542 -56.139799  L 940.501542 -56.139799  L 891.699809 -58.002317  L 841.271352 -61.354849  L 795.723068 -56.139799  L 745.29461 -54.649785  L 694.866153 -59.492331  L 646.064419 -61.354849  L 595.635962 -59.119828  L 546.834229 -58.747324  L 496.405771 -58.374821  L 445.977314 -59.492331  L 397.175581 -59.119828  L 346.747123 -63.217367  L 297.94539 -75.882489  L 247.516932 -95.997682  L 201.968648 -74.764978  L 151.540191 -135.855565  L 101.111733 -401.450615  L 52.31 -101.212732  z "
             style="stroke: #ffffff; stroke-opacity: 0.88; stroke-width: 0.4" />
        </defs>
        <g
           clip-path="url(#p1a676f5089)"
           id="g39">
          <use
             xlink:href="#mb8f1cf6f49"
             x="0"
             y="452.236781"
             style="fill: #00cc88; fill-opacity: 0.88; stroke: #ffffff; stroke-opacity: 0.88; stroke-width: 0.4"
             id="use38" />
        </g>
      </g>
      <g
         id="FillBetweenPolyCollection_4">
        <defs
           id="defs39">
          <path
             id="mb71ed8e879"
             d="M 52.31 -101.212732  L 52.31 -101.212732  L 101.111733 -401.450615  L 151.540191 -135.855565  L 201.968648 -74.764978  L 247.516932 -95.997682  L 297.94539 -75.882489  L 346.747123 -63.217367  L 397.175581 -59.119828  L 445.977314 -59.492331  L 496.405771 -58.374821  L 546.834229 -58.747324  L 595.635962 -59.119828  L 646.064419 -61.354849  L 694.866153 -59.492331  L 745.29461 -54.649785  L 795.723068 -56.139799  L 841.271352 -61.354849  L 891.699809 -58.002317  L 940.501542 -56.139799  L 940.501542 -56.139799  L 940.501542 -56.139799  L 891.699809 -58.002317  L 841.271352 -61.354849  L 795.723068 -56.139799  L 745.29461 -55.394792  L 694.866153 -62.099856  L 646.064419 -64.334878  L 595.635962 -59.119828  L 546.834229 -58.747324  L 496.405771 -59.119828  L 445.977314 -60.609842  L 397.175581 -87.4301  L 346.747123 -73.274964  L 297.94539 -75.882489  L 247.516932 -95.997682  L 201.968648 -74.764978  L 151.540191 -135.855565  L 101.111733 -401.450615  L 52.31 -101.212732  z "
             style="stroke: #ffffff; stroke-opacity: 0.88; stroke-width: 0.4" />
        </defs>
        <g
           clip-path="url(#p1a676f5089)"
           id="g40">
          <use
             xlink:href="#mb71ed8e879"
             x="0"
             y="452.236781"
             style="fill: #88cc00; fill-opacity: 0.88; stroke: #ffffff; stroke-opacity: 0.88; stroke-width: 0.4"
             id="use39" />
        </g>
      </g>
      <g
         id="FillBetweenPolyCollection_5">
        <defs
           id="defs40">
          <path
             id="m815369389b"
             d="M 52.31 -101.212732  L 52.31 -101.212732  L 101.111733 -401.450615  L 151.540191 -135.855565  L 201.968648 -74.764978  L 247.516932 -95.997682  L 297.94539 -75.882489  L 346.747123 -73.274964  L 397.175581 -87.4301  L 445.977314 -60.609842  L 496.405771 -59.119828  L 546.834229 -58.747324  L 595.635962 -59.119828  L 646.064419 -64.334878  L 694.866153 -62.099856  L 745.29461 -55.394792  L 795.723068 -56.139799  L 841.271352 -61.354849  L 891.699809 -58.002317  L 940.501542 -56.139799  L 940.501542 -56.139799  L 940.501542 -56.139799  L 891.699809 -58.747324  L 841.271352 -62.099856  L 795.723068 -57.25731  L 745.29461 -56.139799  L 694.866153 -62.099856  L 646.064419 -65.452389  L 595.635962 -59.864835  L 546.834229 -58.747324  L 496.405771 -59.864835  L 445.977314 -69.177424  L 397.175581 -103.447753  L 346.747123 -73.274964  L 297.94539 -75.882489  L 247.516932 -95.997682  L 201.968648 -74.764978  L 151.540191 -135.855565  L 101.111733 -401.450615  L 52.31 -101.212732  z "
             style="stroke: #ffffff; stroke-opacity: 0.88; stroke-width: 0.4" />
        </defs>
        <g
           clip-path="url(#p1a676f5089)"
           id="g41">
          <use
             xlink:href="#m815369389b"
             x="0"
             y="452.236781"
             style="fill: #aa00ff; fill-opacity: 0.88; stroke: #ffffff; stroke-opacity: 0.88; stroke-width: 0.4"
             id="use40" />
        </g>
      </g>
      <g
         id="FillBetweenPolyCollection_6">
        <defs
           id="defs41">
          <path
             id="m415a8dbb1e"
             d="M 52.31 -101.212732  L 52.31 -101.212732  L 101.111733 -401.450615  L 151.540191 -135.855565  L 201.968648 -74.764978  L 247.516932 -95.997682  L 297.94539 -75.882489  L 346.747123 -73.274964  L 397.175581 -103.447753  L 445.977314 -69.177424  L 496.405771 -59.864835  L 546.834229 -58.747324  L 595.635962 -59.864835  L 646.064419 -65.452389  L 694.866153 -62.099856  L 745.29461 -56.139799  L 795.723068 -57.25731  L 841.271352 -62.099856  L 891.699809 -58.747324  L 940.501542 -56.139799  L 940.501542 -62.47236  L 940.501542 -62.47236  L 891.699809 -76.254992  L 841.271352 -66.197396  L 795.723068 -58.002317  L 745.29461 -59.492331  L 694.866153 -62.099856  L 646.064419 -65.452389  L 595.635962 -59.864835  L 546.834229 -64.334878  L 496.405771 -83.33256  L 445.977314 -80.352532  L 397.175581 -122.817939  L 346.747123 -90.782632  L 297.94539 -122.445436  L 247.516932 -161.185808  L 201.968648 -74.764978  L 151.540191 -135.855565  L 101.111733 -401.450615  L 52.31 -101.212732  z "
             style="stroke: #ffffff; stroke-opacity: 0.88; stroke-width: 0.4" />
        </defs>
        <g
           clip-path="url(#p1a676f5089)"
           id="g42">
          <use
             xlink:href="#m415a8dbb1e"
             x="0"
             y="452.236781"
             style="fill: #0040ff; fill-opacity: 0.88; stroke: #ffffff; stroke-opacity: 0.88; stroke-width: 0.4"
             id="use41" />
        </g>
      </g>
      <g
         id="FillBetweenPolyCollection_7">
        <defs
           id="defs42">
          <path
             id="m103c0ab9c2"
             d="M 52.31 -101.212732  L 52.31 -101.212732  L 101.111733 -401.450615  L 151.540191 -135.855565  L 201.968648 -74.764978  L 247.516932 -161.185808  L 297.94539 -122.445436  L 346.747123 -90.782632  L 397.175581 -122.817939  L 445.977314 -80.352532  L 496.405771 -83.33256  L 546.834229 -64.334878  L 595.635962 -59.864835  L 646.064419 -65.452389  L 694.866153 -62.099856  L 745.29461 -59.492331  L 795.723068 -58.002317  L 841.271352 -66.197396  L 891.699809 -76.254992  L 940.501542 -62.47236  L 940.501542 -63.589871  L 940.501542 -63.589871  L 891.699809 -91.900142  L 841.271352 -83.33256  L 795.723068 -72.90246  L 745.29461 -61.727353  L 694.866153 -62.47236  L 646.064419 -65.452389  L 595.635962 -59.864835  L 546.834229 -66.197396  L 496.405771 -83.705064  L 445.977314 -82.215049  L 397.175581 -129.895507  L 346.747123 -95.625178  L 297.94539 -136.228068  L 247.516932 -192.848612  L 201.968648 -82.587553  L 151.540191 -135.855565  L 101.111733 -401.450615  L 52.31 -101.212732  z "
             style="stroke: #ffffff; stroke-opacity: 0.88; stroke-width: 0.4" />
        </defs>
        <g
           clip-path="url(#p1a676f5089)"
           id="g43">
          <use
             xlink:href="#m103c0ab9c2"
             x="0"
             y="452.236781"
             style="fill: #ff8800; fill-opacity: 0.88; stroke: #ffffff; stroke-opacity: 0.88; stroke-width: 0.4"
             id="use42" />
        </g>
      </g>
      <g
         id="patch_3">
        <path
           d="M 52.31 397.9595  L 52.31 33.4275  "
           style="fill: none; stroke: #1a1a1a; stroke-width: 1.2; stroke-linejoin: miter; stroke-linecap: square"
           id="path43" />
      </g>
      <g
         id="patch_4">
        <path
           d="M 52.31 397.9595  L 990.93 397.9595  "
           style="fill: none; stroke: #1a1a1a; stroke-width: 1.2; stroke-linejoin: miter; stroke-linecap: square"
           id="path44" />
      </g>
      <g
         id="patch_5"
         transform="matrix(1.0714917,0,0,-1.5733464,-32.915103,141.8769)">
        <path
           d="M 220.74688,57.942628 Q 173.31697,56.62717 127.22819,55.348908"
           style="fill:none;stroke:#e60000;stroke-width:1.2;stroke-linecap:round"
           id="path45" />
        <path
           d="m 131.1712,57.459036 -3.94301,-2.110128 4.05391,-1.888335"
           style="fill:none;stroke:#e60000;stroke-width:1.2;stroke-linecap:round"
           id="path46" />
      </g>
      <g
         id="text_14"
         transform="matrix(1.5455469,0,0,1.5455469,-138.56552,-21.092192)">
        <text
           style="font-weight:700;font-size:10px;font-family:'DejaVu Sans', Arial, Helvetica, sans-serif;fill:#e60000"
           transform="translate(224.74279,51.485763)"
           id="text46">декабрь 2024:</text>
        <text
           style="font-weight:700;font-size:10px;font-family:'DejaVu Sans', Arial, Helvetica, sans-serif;fill:#e60000"
           transform="translate(224.74279,62.683576)"
           id="text47">основатель начинает</text>
        <text
           style="font-weight:700;font-size:10px;font-family:'DejaVu Sans', Arial, Helvetica, sans-serif;fill:#e60000"
           transform="translate(224.74279,73.881388)"
           id="text48">(932 правки)</text>
      </g>
      <g
         id="patch_6"
         transform="matrix(0.75683945,0,0,1.1942948,42.530547,-71.217703)">
        <path
           d="m 455.83308,253.57051 q -91.807,25.36521 -182.3208,50.37312"
           style="fill:none;stroke:#0040ff;stroke-width:1.2;stroke-linecap:round"
           id="path48" />
        <path
           d="m 277.90045,304.80616 -4.38817,-0.86253 3.32292,-2.99302"
           style="fill:none;stroke:#0040ff;stroke-width:1.2;stroke-linecap:round"
           id="path49" />
      </g>
      <g
         id="text_15"
         transform="matrix(1.6633258,0,0,1.6633258,-305.72997,-160.59042)">
        <text
           style="font-weight:700;font-size:10px;font-family:'DejaVu Sans', Arial, Helvetica, sans-serif;fill:#0040ff"
           transform="translate(419.94972,237.76026)"
           id="text49">март 2025:</text>
        <text
           style="font-weight:700;font-size:10px;font-family:'DejaVu Sans', Arial, Helvetica, sans-serif;fill:#0040ff"
           transform="translate(419.94972,248.95807)"
           id="text50">emixter становится лидером</text>
      </g>
      <g
         id="patch_7"
         transform="translate(30,1.5)">
        <path
           d="m 757.42942,328.17044 q 52.34658,15.06145 103.40383,29.75194"
           style="fill:none;stroke:#ff8800;stroke-width:1.2;stroke-linecap:round"
           id="path50" />
        <path
           d="m 857.54222,354.89432 3.29103,3.02806 -4.39707,0.81599"
           style="fill:none;stroke:#ff8800;stroke-width:1.2;stroke-linecap:round"
           id="path51" />
      </g>
      <g
         id="text_16"
         transform="matrix(1.5637115,0,0,1.5637115,-353.3306,-177.52377)">
        <text
           style="font-weight:700;font-size:10px;font-family:'DejaVu Sans', Arial, Helvetica, sans-serif;fill:#ff8800"
           transform="translate(618.4101,300.98503)"
           id="text51">март 2026:</text>
        <text
           style="font-weight:700;font-size:10px;font-family:'DejaVu Sans', Arial, Helvetica, sans-serif;fill:#ff8800"
           transform="translate(618.4101,312.18285)"
           id="text52">igor становится лидером,</text>
        <text
           style="font-weight:700;font-size:10px;font-family:'DejaVu Sans', Arial, Helvetica, sans-serif;fill:#ff8800"
           transform="translate(618.4101,323.45878)"
           id="text53">основатель отступает</text>
      </g>
      <g
         id="text_17"
         transform="matrix(1.1783032,0,0,1.1783032,-10.962163,-7.384246)">
        <text
           style="font-weight:700;font-size:16px;font-family:'DejaVu Sans', Arial, Helvetica, sans-serif;text-anchor:start;fill:#0a0a0a"
           x="52.310001"
           y="19.4275"
           id="text54">Смена поколений: каждые несколько месяцев приходит новый лидер</text>
      </g>
      <g
         id="legend_1">
        <g
           id="text_18"
           transform="matrix(1.5519435,0,0,1.5519435,-518.84683,-57.681566)">
          <text
             style="font-weight:700;font-size:10px;font-family:'DejaVu Sans', Arial, Helvetica, sans-serif;text-anchor:start"
             x="845.19641"
             y="50.352501"
             id="text55">контрибьютор</text>
        </g>
        <g
           id="patch_8"
           transform="matrix(1.5519435,0,0,1.5519435,-518.84683,-57.681566)">
          <path
             d="m 791.84094,65.030625 h 20 v -7 h -20 z"
             style="fill:#e60000;fill-opacity:0.88;stroke:#ffffff;stroke-width:0.4;stroke-linejoin:miter;stroke-opacity:0.88"
             id="path55" />
        </g>
        <g
           id="text_19"
           transform="matrix(1.5519435,0,0,1.5519435,-518.84683,-57.681566)">
          <text
             style="font-size:10px;font-family:'DejaVu Sans', Arial, Helvetica, sans-serif;text-anchor:start"
             x="819.84094"
             y="65.030624"
             id="text56">astrosander</text>
        </g>
        <g
           id="patch_9"
           transform="matrix(1.5519435,0,0,1.5519435,-518.84683,-57.681566)">
          <path
             d="m 791.84094,79.70875 h 20 v -7 h -20 z"
             style="fill:#00ccff;fill-opacity:0.88;stroke:#ffffff;stroke-width:0.4;stroke-linejoin:miter;stroke-opacity:0.88"
             id="path56" />
        </g>
        <g
           id="text_20"
           transform="matrix(1.5519435,0,0,1.5519435,-518.84683,-57.681566)">
          <text
             style="font-size:10px;font-family:'DejaVu Sans', Arial, Helvetica, sans-serif;text-anchor:start"
             x="819.84094"
             y="79.708748"
             id="text57">Ismail</text>
        </g>
        <g
           id="patch_10"
           transform="matrix(1.5519435,0,0,1.5519435,-518.84683,-57.681566)">
          <path
             d="m 791.84094,94.386875 h 20 v -7 h -20 z"
             style="fill:#00cc88;fill-opacity:0.88;stroke:#ffffff;stroke-width:0.4;stroke-linejoin:miter;stroke-opacity:0.88"
             id="path57" />
        </g>
        <g
           id="text_21"
           transform="matrix(1.5519435,0,0,1.5519435,-518.84683,-57.681566)">
          <text
             style="font-size:10px;font-family:'DejaVu Sans', Arial, Helvetica, sans-serif;text-anchor:start"
             x="819.84094"
             y="94.386871"
             id="text58">Shrodinger_cat</text>
        </g>
        <g
           id="patch_11"
           transform="matrix(1.5519435,0,0,1.5519435,-518.84683,-57.681566)">
          <path
             d="m 791.84094,109.34313 h 20 v -7 h -20 z"
             style="fill:#88cc00;fill-opacity:0.88;stroke:#ffffff;stroke-width:0.4;stroke-linejoin:miter;stroke-opacity:0.88"
             id="path58" />
        </g>
        <g
           id="text_22"
           transform="matrix(1.5519435,0,0,1.5519435,-518.84683,-57.681566)">
          <text
             style="font-size:10px;font-family:'DejaVu Sans', Arial, Helvetica, sans-serif;text-anchor:start"
             x="819.84094"
             y="109.34312"
             id="text59">Picksell Prod</text>
        </g>
        <g
           id="patch_12"
           transform="matrix(1.5519435,0,0,1.5519435,-518.84683,-57.681566)">
          <path
             d="m 915.155,65.030625 h 20 v -7 h -20 z"
             style="fill:#aa00ff;fill-opacity:0.88;stroke:#ffffff;stroke-width:0.4;stroke-linejoin:miter;stroke-opacity:0.88"
             id="path59" />
        </g>
        <g
           id="text_23"
           transform="matrix(1.5519435,0,0,1.5519435,-518.84683,-57.681566)">
          <text
             style="font-size:10px;font-family:'DejaVu Sans', Arial, Helvetica, sans-serif;text-anchor:start"
             x="943.15503"
             y="65.030624"
             id="text60">jzmicer</text>
        </g>
        <g
           id="patch_13"
           transform="matrix(1.5519435,0,0,1.5519435,-518.84683,-57.681566)">
          <path
             d="m 915.155,79.70875 h 20 v -7 h -20 z"
             style="fill:#0040ff;fill-opacity:0.88;stroke:#ffffff;stroke-width:0.4;stroke-linejoin:miter;stroke-opacity:0.88"
             id="path60" />
        </g>
        <g
           id="text_24"
           transform="matrix(1.5519435,0,0,1.5519435,-518.84683,-57.681566)">
          <text
             style="font-size:10px;font-family:'DejaVu Sans', Arial, Helvetica, sans-serif;text-anchor:start"
             x="943.15503"
             y="79.708748"
             id="text61">emixter</text>
        </g>
        <g
           id="patch_14"
           transform="matrix(1.5519435,0,0,1.5519435,-518.84683,-57.681566)">
          <path
             d="m 915.155,94.386875 h 20 v -7 h -20 z"
             style="fill:#ff8800;fill-opacity:0.88;stroke:#ffffff;stroke-width:0.4;stroke-linejoin:miter;stroke-opacity:0.88"
             id="path61" />
        </g>
        <g
           id="text_25"
           transform="matrix(1.5519435,0,0,1.5519435,-518.84683,-57.681566)">
          <text
             style="font-size:10px;font-family:'DejaVu Sans', Arial, Helvetica, sans-serif;text-anchor:start"
             x="943.15503"
             y="94.386871"
             id="text62">igor</text>
        </g>
      </g>
    </g>
  </g>
  <defs
     id="defs62">
    <clipPath
       id="p1a676f5089">
      <rect
         x="52.31"
         y="33.4275"
         width="938.62"
         height="364.532"
         id="rect62" />
    </clipPath>
  </defs>
</svg>
