<?xml version="1.0" encoding="utf-8" standalone="no"?>
<!DOCTYPE svg PUBLIC "-//W3C//DTD SVG 1.1//EN"
  "http://www.w3.org/Graphics/SVG/1.1/DTD/svg11.dtd">
<svg xmlns:xlink="http://www.w3.org/1999/xlink" width="998.13pt" height="452.236781pt" viewBox="0 0 998.13 452.236781" xmlns="http://www.w3.org/2000/svg" version="1.1">
 <metadata>
  <rdf:RDF xmlns:dc="http://purl.org/dc/elements/1.1/" xmlns:cc="http://creativecommons.org/ns#" xmlns:rdf="http://www.w3.org/1999/02/22-rdf-syntax-ns#">
   <cc:Work>
    <dc:type rdf:resource="http://purl.org/dc/dcmitype/StillImage"/>
    <dc:date>2026-05-19T11:13:55.462340</dc:date>
    <dc:format>image/svg+xml</dc:format>
    <dc:creator>
     <cc:Agent>
      <dc:title>Matplotlib v3.10.8, https://matplotlib.org/</dc:title>
     </cc:Agent>
    </dc:creator>
   </cc:Work>
  </rdf:RDF>
 </metadata>
 <defs>
  <style type="text/css">*{stroke-linejoin: round; stroke-linecap: butt}</style>
 </defs>
 <g id="figure_1">
  <g id="patch_1">
   <path d="M 0 452.236781 
L 998.13 452.236781 
L 998.13 0 
L 0 0 
z
" style="fill: #ffffff"/>
  </g>
  <g id="axes_1">
   <g id="patch_2">
    <path d="M 52.31 397.9595 
L 990.93 397.9595 
L 990.93 33.4275 
L 52.31 33.4275 
z
" style="fill: #ffffff"/>
   </g>
   <g id="matplotlib.axis_1">
    <g id="xtick_1">
     <g id="line2d_1">
      <defs>
       <path id="m8ce27124a1" d="M 0 0 
L 0 5 
" style="stroke: #0a0a0a; stroke-width: 0.8"/>
      </defs>
      <g>
       <use xlink:href="#m8ce27124a1" x="151.540191" y="397.9595" style="fill: #0a0a0a; stroke: #0a0a0a; stroke-width: 0.8"/>
      </g>
     </g>
     <g id="text_1">
      <text style="font-size: 11px; font-family: 'DejaVu Sans', 'Arial', 'Helvetica', sans-serif; fill: #0a0a0a" transform="translate(141.394409 414.817781)">янв</text>
      <text style="font-size: 11px; font-family: 'DejaVu Sans', 'Arial', 'Helvetica', sans-serif; fill: #0a0a0a" transform="translate(137.542691 427.135375)">2025</text>
     </g>
    </g>
    <g id="xtick_2">
     <g id="line2d_2">
      <g>
       <use xlink:href="#m8ce27124a1" x="297.94539" y="397.9595" style="fill: #0a0a0a; stroke: #0a0a0a; stroke-width: 0.8"/>
      </g>
     </g>
     <g id="text_2">
      <text style="font-size: 11px; font-family: 'DejaVu Sans', 'Arial', 'Helvetica', sans-serif; fill: #0a0a0a" transform="translate(287.487656 414.817781)">апр</text>
      <text style="font-size: 11px; font-family: 'DejaVu Sans', 'Arial', 'Helvetica', sans-serif; fill: #0a0a0a" transform="translate(283.94789 427.135375)">2025</text>
     </g>
    </g>
    <g id="xtick_3">
     <g id="line2d_3">
      <g>
       <use xlink:href="#m8ce27124a1" x="445.977314" y="397.9595" style="fill: #0a0a0a; stroke: #0a0a0a; stroke-width: 0.8"/>
      </g>
     </g>
     <g id="text_3">
      <text style="font-size: 11px; font-family: 'DejaVu Sans', 'Arial', 'Helvetica', sans-serif; fill: #0a0a0a" transform="translate(434.257157 414.817781)">июл</text>
      <text style="font-size: 11px; font-family: 'DejaVu Sans', 'Arial', 'Helvetica', sans-serif; fill: #0a0a0a" transform="translate(431.979814 427.135375)">2025</text>
     </g>
    </g>
    <g id="xtick_4">
     <g id="line2d_4">
      <g>
       <use xlink:href="#m8ce27124a1" x="595.635962" y="397.9595" style="fill: #0a0a0a; stroke: #0a0a0a; stroke-width: 0.8"/>
      </g>
     </g>
     <g id="text_4">
      <text style="font-size: 11px; font-family: 'DejaVu Sans', 'Arial', 'Helvetica', sans-serif; fill: #0a0a0a" transform="translate(585.744556 414.817781)">окт</text>
      <text style="font-size: 11px; font-family: 'DejaVu Sans', 'Arial', 'Helvetica', sans-serif; fill: #0a0a0a" transform="translate(581.638462 427.135375)">2025</text>
     </g>
    </g>
    <g id="xtick_5">
     <g id="line2d_5">
      <g>
       <use xlink:href="#m8ce27124a1" x="745.29461" y="397.9595" style="fill: #0a0a0a; stroke: #0a0a0a; stroke-width: 0.8"/>
      </g>
     </g>
     <g id="text_5">
      <text style="font-size: 11px; font-family: 'DejaVu Sans', 'Arial', 'Helvetica', sans-serif; fill: #0a0a0a" transform="translate(735.148829 414.817781)">янв</text>
      <text style="font-size: 11px; font-family: 'DejaVu Sans', 'Arial', 'Helvetica', sans-serif; fill: #0a0a0a" transform="translate(731.29711 427.135375)">2026</text>
     </g>
    </g>
    <g id="xtick_6">
     <g id="line2d_6">
      <g>
       <use xlink:href="#m8ce27124a1" x="891.699809" y="397.9595" style="fill: #0a0a0a; stroke: #0a0a0a; stroke-width: 0.8"/>
      </g>
     </g>
     <g id="text_6">
      <text style="font-size: 11px; font-family: 'DejaVu Sans', 'Arial', 'Helvetica', sans-serif; fill: #0a0a0a" transform="translate(881.242075 414.817781)">апр</text>
      <text style="font-size: 11px; font-family: 'DejaVu Sans', 'Arial', 'Helvetica', sans-serif; fill: #0a0a0a" transform="translate(877.702309 427.135375)">2026</text>
     </g>
    </g>
    <g id="text_7">
     <text style="font-size: 12px; font-family: 'DejaVu Sans', 'Arial', 'Helvetica', sans-serif; text-anchor: middle; fill: #0a0a0a" x="521.62" y="442.541156" transform="rotate(-0 521.62 442.541156)">дата</text>
    </g>
   </g>
   <g id="matplotlib.axis_2">
    <g id="ytick_1">
     <g id="line2d_7">
      <path d="M 52.31 397.9595 
L 990.93 397.9595 
" clip-path="url(#p1a676f5089)" style="fill: none; stroke: #e8e8e8; stroke-opacity: 0.55; stroke-width: 0.8; stroke-linecap: square"/>
     </g>
     <g id="line2d_8">
      <defs>
       <path id="m0acb625ef7" d="M 0 0 
L -5 0 
" style="stroke: #0a0a0a; stroke-width: 0.8"/>
      </defs>
      <g>
       <use xlink:href="#m0acb625ef7" x="52.31" y="397.9595" style="fill: #0a0a0a; stroke: #0a0a0a; stroke-width: 0.8"/>
      </g>
     </g>
     <g id="text_8">
      <text style="font-size: 11px; font-family: 'DejaVu Sans', 'Arial', 'Helvetica', sans-serif; text-anchor: end; fill: #0a0a0a" x="43.81" y="402.138641" transform="rotate(-0 43.81 402.138641)">0</text>
     </g>
    </g>
    <g id="ytick_2">
     <g id="line2d_9">
      <path d="M 52.31 323.458785 
L 990.93 323.458785 
" clip-path="url(#p1a676f5089)" style="fill: none; stroke: #e8e8e8; stroke-opacity: 0.55; stroke-width: 0.8; stroke-linecap: square"/>
     </g>
     <g id="line2d_10">
      <g>
       <use xlink:href="#m0acb625ef7" x="52.31" y="323.458785" style="fill: #0a0a0a; stroke: #0a0a0a; stroke-width: 0.8"/>
      </g>
     </g>
     <g id="text_9">
      <text style="font-size: 11px; font-family: 'DejaVu Sans', 'Arial', 'Helvetica', sans-serif; text-anchor: end; fill: #0a0a0a" x="43.81" y="327.637925" transform="rotate(-0 43.81 327.637925)">200</text>
     </g>
    </g>
    <g id="ytick_3">
     <g id="line2d_11">
      <path d="M 52.31 248.958069 
L 990.93 248.958069 
" clip-path="url(#p1a676f5089)" style="fill: none; stroke: #e8e8e8; stroke-opacity: 0.55; stroke-width: 0.8; stroke-linecap: square"/>
     </g>
     <g id="line2d_12">
      <g>
       <use xlink:href="#m0acb625ef7" x="52.31" y="248.958069" style="fill: #0a0a0a; stroke: #0a0a0a; stroke-width: 0.8"/>
      </g>
     </g>
     <g id="text_10">
      <text style="font-size: 11px; font-family: 'DejaVu Sans', 'Arial', 'Helvetica', sans-serif; text-anchor: end; fill: #0a0a0a" x="43.81" y="253.13721" transform="rotate(-0 43.81 253.13721)">400</text>
     </g>
    </g>
    <g id="ytick_4">
     <g id="line2d_13">
      <path d="M 52.31 174.457354 
L 990.93 174.457354 
" clip-path="url(#p1a676f5089)" style="fill: none; stroke: #e8e8e8; stroke-opacity: 0.55; stroke-width: 0.8; stroke-linecap: square"/>
     </g>
     <g id="line2d_14">
      <g>
       <use xlink:href="#m0acb625ef7" x="52.31" y="174.457354" style="fill: #0a0a0a; stroke: #0a0a0a; stroke-width: 0.8"/>
      </g>
     </g>
     <g id="text_11">
      <text style="font-size: 11px; font-family: 'DejaVu Sans', 'Arial', 'Helvetica', sans-serif; text-anchor: end; fill: #0a0a0a" x="43.81" y="178.636495" transform="rotate(-0 43.81 178.636495)">600</text>
     </g>
    </g>
    <g id="ytick_5">
     <g id="line2d_15">
      <path d="M 52.31 99.956639 
L 990.93 99.956639 
" clip-path="url(#p1a676f5089)" style="fill: none; stroke: #e8e8e8; stroke-opacity: 0.55; stroke-width: 0.8; stroke-linecap: square"/>
     </g>
     <g id="line2d_16">
      <g>
       <use xlink:href="#m0acb625ef7" x="52.31" y="99.956639" style="fill: #0a0a0a; stroke: #0a0a0a; stroke-width: 0.8"/>
      </g>
     </g>
     <g id="text_12">
      <text style="font-size: 11px; font-family: 'DejaVu Sans', 'Arial', 'Helvetica', sans-serif; text-anchor: end; fill: #0a0a0a" x="43.81" y="104.135779" transform="rotate(-0 43.81 104.135779)">800</text>
     </g>
    </g>
    <g id="text_13">
     <!-- правки в месяц,  $N$ -->
     <g style="fill: #0a0a0a" transform="translate(16.29375 274.4935) rotate(-90)">
      <text>
       <tspan x="0" y="-0.15625" style="font-size: 12px; font-family: 'DejaVu Sans'; fill: #0a0a0a">п</tspan>
       <tspan x="7.845703" y="-0.15625" style="font-size: 12px; font-family: 'DejaVu Sans'; fill: #0a0a0a">р</tspan>
       <tspan x="15.462891" y="-0.15625" style="font-size: 12px; font-family: 'DejaVu Sans'; fill: #0a0a0a">а</tspan>
       <tspan x="22.816406" y="-0.15625" style="font-size: 12px; font-family: 'DejaVu Sans'; fill: #0a0a0a">в</tspan>
       <tspan x="29.888672" y="-0.15625" style="font-size: 12px; font-family: 'DejaVu Sans'; fill: #0a0a0a">к</tspan>
       <tspan x="37.136719" y="-0.15625" style="font-size: 12px; font-family: 'DejaVu Sans'; fill: #0a0a0a">и</tspan>
       <tspan x="44.935547" y="-0.15625" style="font-size: 12px; font-family: 'DejaVu Sans'; fill: #0a0a0a"> </tspan>
       <tspan x="48.75" y="-0.15625" style="font-size: 12px; font-family: 'DejaVu Sans'; fill: #0a0a0a">в</tspan>
       <tspan x="55.822266" y="-0.15625" style="font-size: 12px; font-family: 'DejaVu Sans'; fill: #0a0a0a"> </tspan>
       <tspan x="59.636719" y="-0.15625" style="font-size: 12px; font-family: 'DejaVu Sans'; fill: #0a0a0a">м</tspan>
       <tspan x="68.689453" y="-0.15625" style="font-size: 12px; font-family: 'DejaVu Sans'; fill: #0a0a0a">е</tspan>
       <tspan x="76.072266" y="-0.15625" style="font-size: 12px; font-family: 'DejaVu Sans'; fill: #0a0a0a">с</tspan>
       <tspan x="82.669922" y="-0.15625" style="font-size: 12px; font-family: 'DejaVu Sans'; fill: #0a0a0a">я</tspan>
       <tspan x="89.888672" y="-0.15625" style="font-size: 12px; font-family: 'DejaVu Sans'; fill: #0a0a0a">ц</tspan>
       <tspan x="98.056641" y="-0.15625" style="font-size: 12px; font-family: 'DejaVu Sans'; fill: #0a0a0a">,</tspan>
       <tspan x="101.871094" y="-0.15625" style="font-size: 12px; font-family: 'DejaVu Sans'; fill: #0a0a0a"> </tspan>
       <tspan x="105.685547" y="-0.15625" style="font-size: 12px; font-family: 'DejaVu Sans'; fill: #0a0a0a"> </tspan>
       <tspan x="109.5" y="-0.15625" style="font-style: italic; font-size: 12px; font-family: 'STIXGeneral'; fill: #0a0a0a">N</tspan>
      </text>
     </g>
    </g>
   </g>
   <g id="FillBetweenPolyCollection_1">
    <defs>
     <path id="med6778acda" d="M 52.31 -101.212732 
L 52.31 -54.277281 
L 101.111733 -54.277281 
L 151.540191 -54.277281 
L 201.968648 -54.277281 
L 247.516932 -54.277281 
L 297.94539 -54.277281 
L 346.747123 -54.277281 
L 397.175581 -54.277281 
L 445.977314 -54.277281 
L 496.405771 -54.277281 
L 546.834229 -54.277281 
L 595.635962 -54.277281 
L 646.064419 -54.277281 
L 694.866153 -54.277281 
L 745.29461 -54.277281 
L 795.723068 -54.277281 
L 841.271352 -54.277281 
L 891.699809 -54.277281 
L 940.501542 -54.277281 
L 940.501542 -55.394792 
L 940.501542 -55.394792 
L 891.699809 -56.512303 
L 841.271352 -60.609842 
L 795.723068 -54.277281 
L 745.29461 -54.277281 
L 694.866153 -59.492331 
L 646.064419 -61.354849 
L 595.635962 -57.25731 
L 546.834229 -58.747324 
L 496.405771 -55.394792 
L 445.977314 -55.022288 
L 397.175581 -59.119828 
L 346.747123 -61.354849 
L 297.94539 -74.764978 
L 247.516932 -90.782632 
L 201.968648 -60.982346 
L 151.540191 -91.527639 
L 101.111733 -401.450615 
L 52.31 -101.212732 
z
" style="stroke: #ffffff; stroke-opacity: 0.88; stroke-width: 0.4"/>
    </defs>
    <g clip-path="url(#p1a676f5089)">
     <use xlink:href="#med6778acda" x="0" y="452.236781" style="fill: #e60000; fill-opacity: 0.88; stroke: #ffffff; stroke-opacity: 0.88; stroke-width: 0.4"/>
    </g>
   </g>
   <g id="FillBetweenPolyCollection_2">
    <defs>
     <path id="m20294894b2" d="M 52.31 -101.212732 
L 52.31 -101.212732 
L 101.111733 -401.450615 
L 151.540191 -91.527639 
L 201.968648 -60.982346 
L 247.516932 -90.782632 
L 297.94539 -74.764978 
L 346.747123 -61.354849 
L 397.175581 -59.119828 
L 445.977314 -55.022288 
L 496.405771 -55.394792 
L 546.834229 -58.747324 
L 595.635962 -57.25731 
L 646.064419 -61.354849 
L 694.866153 -59.492331 
L 745.29461 -54.277281 
L 795.723068 -54.277281 
L 841.271352 -60.609842 
L 891.699809 -56.512303 
L 940.501542 -55.394792 
L 940.501542 -56.139799 
L 940.501542 -56.139799 
L 891.699809 -56.512303 
L 841.271352 -60.609842 
L 795.723068 -56.139799 
L 745.29461 -54.277281 
L 694.866153 -59.492331 
L 646.064419 -61.354849 
L 595.635962 -57.25731 
L 546.834229 -58.747324 
L 496.405771 -55.394792 
L 445.977314 -55.022288 
L 397.175581 -59.119828 
L 346.747123 -63.217367 
L 297.94539 -74.764978 
L 247.516932 -91.900142 
L 201.968648 -70.667439 
L 151.540191 -135.110557 
L 101.111733 -401.450615 
L 52.31 -101.212732 
z
" style="stroke: #ffffff; stroke-opacity: 0.88; stroke-width: 0.4"/>
    </defs>
    <g clip-path="url(#p1a676f5089)">
     <use xlink:href="#m20294894b2" x="0" y="452.236781" style="fill: #00ccff; fill-opacity: 0.88; stroke: #ffffff; stroke-opacity: 0.88; stroke-width: 0.4"/>
    </g>
   </g>
   <g id="FillBetweenPolyCollection_3">
    <defs>
     <path id="mb8f1cf6f49" d="M 52.31 -101.212732 
L 52.31 -101.212732 
L 101.111733 -401.450615 
L 151.540191 -135.110557 
L 201.968648 -70.667439 
L 247.516932 -91.900142 
L 297.94539 -74.764978 
L 346.747123 -63.217367 
L 397.175581 -59.119828 
L 445.977314 -55.022288 
L 496.405771 -55.394792 
L 546.834229 -58.747324 
L 595.635962 -57.25731 
L 646.064419 -61.354849 
L 694.866153 -59.492331 
L 745.29461 -54.277281 
L 795.723068 -56.139799 
L 841.271352 -60.609842 
L 891.699809 -56.512303 
L 940.501542 -56.139799 
L 940.501542 -56.139799 
L 940.501542 -56.139799 
L 891.699809 -58.002317 
L 841.271352 -61.354849 
L 795.723068 -56.139799 
L 745.29461 -54.649785 
L 694.866153 -59.492331 
L 646.064419 -61.354849 
L 595.635962 -59.119828 
L 546.834229 -58.747324 
L 496.405771 -58.374821 
L 445.977314 -59.492331 
L 397.175581 -59.119828 
L 346.747123 -63.217367 
L 297.94539 -75.882489 
L 247.516932 -95.997682 
L 201.968648 -74.764978 
L 151.540191 -135.855565 
L 101.111733 -401.450615 
L 52.31 -101.212732 
z
" style="stroke: #ffffff; stroke-opacity: 0.88; stroke-width: 0.4"/>
    </defs>
    <g clip-path="url(#p1a676f5089)">
     <use xlink:href="#mb8f1cf6f49" x="0" y="452.236781" style="fill: #00cc88; fill-opacity: 0.88; stroke: #ffffff; stroke-opacity: 0.88; stroke-width: 0.4"/>
    </g>
   </g>
   <g id="FillBetweenPolyCollection_4">
    <defs>
     <path id="mb71ed8e879" d="M 52.31 -101.212732 
L 52.31 -101.212732 
L 101.111733 -401.450615 
L 151.540191 -135.855565 
L 201.968648 -74.764978 
L 247.516932 -95.997682 
L 297.94539 -75.882489 
L 346.747123 -63.217367 
L 397.175581 -59.119828 
L 445.977314 -59.492331 
L 496.405771 -58.374821 
L 546.834229 -58.747324 
L 595.635962 -59.119828 
L 646.064419 -61.354849 
L 694.866153 -59.492331 
L 745.29461 -54.649785 
L 795.723068 -56.139799 
L 841.271352 -61.354849 
L 891.699809 -58.002317 
L 940.501542 -56.139799 
L 940.501542 -56.139799 
L 940.501542 -56.139799 
L 891.699809 -58.002317 
L 841.271352 -61.354849 
L 795.723068 -56.139799 
L 745.29461 -55.394792 
L 694.866153 -62.099856 
L 646.064419 -64.334878 
L 595.635962 -59.119828 
L 546.834229 -58.747324 
L 496.405771 -59.119828 
L 445.977314 -60.609842 
L 397.175581 -87.4301 
L 346.747123 -73.274964 
L 297.94539 -75.882489 
L 247.516932 -95.997682 
L 201.968648 -74.764978 
L 151.540191 -135.855565 
L 101.111733 -401.450615 
L 52.31 -101.212732 
z
" style="stroke: #ffffff; stroke-opacity: 0.88; stroke-width: 0.4"/>
    </defs>
    <g clip-path="url(#p1a676f5089)">
     <use xlink:href="#mb71ed8e879" x="0" y="452.236781" style="fill: #88cc00; fill-opacity: 0.88; stroke: #ffffff; stroke-opacity: 0.88; stroke-width: 0.4"/>
    </g>
   </g>
   <g id="FillBetweenPolyCollection_5">
    <defs>
     <path id="m815369389b" d="M 52.31 -101.212732 
L 52.31 -101.212732 
L 101.111733 -401.450615 
L 151.540191 -135.855565 
L 201.968648 -74.764978 
L 247.516932 -95.997682 
L 297.94539 -75.882489 
L 346.747123 -73.274964 
L 397.175581 -87.4301 
L 445.977314 -60.609842 
L 496.405771 -59.119828 
L 546.834229 -58.747324 
L 595.635962 -59.119828 
L 646.064419 -64.334878 
L 694.866153 -62.099856 
L 745.29461 -55.394792 
L 795.723068 -56.139799 
L 841.271352 -61.354849 
L 891.699809 -58.002317 
L 940.501542 -56.139799 
L 940.501542 -56.139799 
L 940.501542 -56.139799 
L 891.699809 -58.747324 
L 841.271352 -62.099856 
L 795.723068 -57.25731 
L 745.29461 -56.139799 
L 694.866153 -62.099856 
L 646.064419 -65.452389 
L 595.635962 -59.864835 
L 546.834229 -58.747324 
L 496.405771 -59.864835 
L 445.977314 -69.177424 
L 397.175581 -103.447753 
L 346.747123 -73.274964 
L 297.94539 -75.882489 
L 247.516932 -95.997682 
L 201.968648 -74.764978 
L 151.540191 -135.855565 
L 101.111733 -401.450615 
L 52.31 -101.212732 
z
" style="stroke: #ffffff; stroke-opacity: 0.88; stroke-width: 0.4"/>
    </defs>
    <g clip-path="url(#p1a676f5089)">
     <use xlink:href="#m815369389b" x="0" y="452.236781" style="fill: #aa00ff; fill-opacity: 0.88; stroke: #ffffff; stroke-opacity: 0.88; stroke-width: 0.4"/>
    </g>
   </g>
   <g id="FillBetweenPolyCollection_6">
    <defs>
     <path id="m415a8dbb1e" d="M 52.31 -101.212732 
L 52.31 -101.212732 
L 101.111733 -401.450615 
L 151.540191 -135.855565 
L 201.968648 -74.764978 
L 247.516932 -95.997682 
L 297.94539 -75.882489 
L 346.747123 -73.274964 
L 397.175581 -103.447753 
L 445.977314 -69.177424 
L 496.405771 -59.864835 
L 546.834229 -58.747324 
L 595.635962 -59.864835 
L 646.064419 -65.452389 
L 694.866153 -62.099856 
L 745.29461 -56.139799 
L 795.723068 -57.25731 
L 841.271352 -62.099856 
L 891.699809 -58.747324 
L 940.501542 -56.139799 
L 940.501542 -62.47236 
L 940.501542 -62.47236 
L 891.699809 -76.254992 
L 841.271352 -66.197396 
L 795.723068 -58.002317 
L 745.29461 -59.492331 
L 694.866153 -62.099856 
L 646.064419 -65.452389 
L 595.635962 -59.864835 
L 546.834229 -64.334878 
L 496.405771 -83.33256 
L 445.977314 -80.352532 
L 397.175581 -122.817939 
L 346.747123 -90.782632 
L 297.94539 -122.445436 
L 247.516932 -161.185808 
L 201.968648 -74.764978 
L 151.540191 -135.855565 
L 101.111733 -401.450615 
L 52.31 -101.212732 
z
" style="stroke: #ffffff; stroke-opacity: 0.88; stroke-width: 0.4"/>
    </defs>
    <g clip-path="url(#p1a676f5089)">
     <use xlink:href="#m415a8dbb1e" x="0" y="452.236781" style="fill: #0040ff; fill-opacity: 0.88; stroke: #ffffff; stroke-opacity: 0.88; stroke-width: 0.4"/>
    </g>
   </g>
   <g id="FillBetweenPolyCollection_7">
    <defs>
     <path id="m103c0ab9c2" d="M 52.31 -101.212732 
L 52.31 -101.212732 
L 101.111733 -401.450615 
L 151.540191 -135.855565 
L 201.968648 -74.764978 
L 247.516932 -161.185808 
L 297.94539 -122.445436 
L 346.747123 -90.782632 
L 397.175581 -122.817939 
L 445.977314 -80.352532 
L 496.405771 -83.33256 
L 546.834229 -64.334878 
L 595.635962 -59.864835 
L 646.064419 -65.452389 
L 694.866153 -62.099856 
L 745.29461 -59.492331 
L 795.723068 -58.002317 
L 841.271352 -66.197396 
L 891.699809 -76.254992 
L 940.501542 -62.47236 
L 940.501542 -63.589871 
L 940.501542 -63.589871 
L 891.699809 -91.900142 
L 841.271352 -83.33256 
L 795.723068 -72.90246 
L 745.29461 -61.727353 
L 694.866153 -62.47236 
L 646.064419 -65.452389 
L 595.635962 -59.864835 
L 546.834229 -66.197396 
L 496.405771 -83.705064 
L 445.977314 -82.215049 
L 397.175581 -129.895507 
L 346.747123 -95.625178 
L 297.94539 -136.228068 
L 247.516932 -192.848612 
L 201.968648 -82.587553 
L 151.540191 -135.855565 
L 101.111733 -401.450615 
L 52.31 -101.212732 
z
" style="stroke: #ffffff; stroke-opacity: 0.88; stroke-width: 0.4"/>
    </defs>
    <g clip-path="url(#p1a676f5089)">
     <use xlink:href="#m103c0ab9c2" x="0" y="452.236781" style="fill: #ff8800; fill-opacity: 0.88; stroke: #ffffff; stroke-opacity: 0.88; stroke-width: 0.4"/>
    </g>
   </g>
   <g id="patch_3">
    <path d="M 52.31 397.9595 
L 52.31 33.4275 
" style="fill: none; stroke: #1a1a1a; stroke-width: 1.2; stroke-linejoin: miter; stroke-linecap: square"/>
   </g>
   <g id="patch_4">
    <path d="M 52.31 397.9595 
L 990.93 397.9595 
" style="fill: none; stroke: #1a1a1a; stroke-width: 1.2; stroke-linejoin: miter; stroke-linecap: square"/>
   </g>
   <g id="patch_5">
    <path d="M 220.746879 57.942628 
Q 173.316971 56.62717 127.228187 55.348908 
" style="fill: none; stroke: #e60000; stroke-width: 1.2; stroke-linecap: round"/>
    <path d="M 131.171202 57.459036 
L 127.228187 55.348908 
L 131.282098 53.460573 
" style="fill: none; stroke: #e60000; stroke-width: 1.2; stroke-linecap: round"/>
   </g>
   <g id="text_14">
    <text style="font-weight: 700; font-size: 10px; font-family: 'DejaVu Sans', 'Arial', 'Helvetica', sans-serif; fill: #e60000" transform="translate(224.74279 51.485763)">декабрь 2024:</text>
    <text style="font-weight: 700; font-size: 10px; font-family: 'DejaVu Sans', 'Arial', 'Helvetica', sans-serif; fill: #e60000" transform="translate(224.74279 62.683576)">основатель начинает</text>
    <text style="font-weight: 700; font-size: 10px; font-family: 'DejaVu Sans', 'Arial', 'Helvetica', sans-serif; fill: #e60000" transform="translate(224.74279 73.881388)">(932 правки)</text>
   </g>
   <g id="patch_6">
    <path d="M 455.833078 253.570513 
Q 364.026081 278.935716 273.512276 303.943626 
" style="fill: none; stroke: #0040ff; stroke-width: 1.2; stroke-linecap: round"/>
    <path d="M 277.900446 304.806157 
L 273.512276 303.943626 
L 276.835203 300.950608 
" style="fill: none; stroke: #0040ff; stroke-width: 1.2; stroke-linecap: round"/>
   </g>
   <g id="text_15">
    <text style="font-weight: 700; font-size: 10px; font-family: 'DejaVu Sans', 'Arial', 'Helvetica', sans-serif; fill: #0040ff" transform="translate(419.949723 237.760257)">март 2025:</text>
    <text style="font-weight: 700; font-size: 10px; font-family: 'DejaVu Sans', 'Arial', 'Helvetica', sans-serif; fill: #0040ff" transform="translate(419.949723 248.958069)">emixter становится лидером</text>
   </g>
   <g id="patch_7">
    <path d="M 757.42942 328.170438 
Q 809.775999 343.231895 860.833246 357.922378 
" style="fill: none; stroke: #ff8800; stroke-width: 1.2; stroke-linecap: round"/>
    <path d="M 857.542215 354.894324 
L 860.833246 357.922378 
L 856.436184 358.73837 
" style="fill: none; stroke: #ff8800; stroke-width: 1.2; stroke-linecap: round"/>
   </g>
   <g id="text_16">
    <text style="font-weight: 700; font-size: 10px; font-family: 'DejaVu Sans', 'Arial', 'Helvetica', sans-serif; fill: #ff8800" transform="translate(618.410104 300.985035)">март 2026:</text>
    <text style="font-weight: 700; font-size: 10px; font-family: 'DejaVu Sans', 'Arial', 'Helvetica', sans-serif; fill: #ff8800" transform="translate(618.410104 312.182847)">igor становится лидером,</text>
    <text style="font-weight: 700; font-size: 10px; font-family: 'DejaVu Sans', 'Arial', 'Helvetica', sans-serif; fill: #ff8800" transform="translate(618.410104 323.458785)">основатель отступает</text>
   </g>
   <g id="text_17">
    <text style="font-weight: 700; font-size: 16px; font-family: 'DejaVu Sans', 'Arial', 'Helvetica', sans-serif; text-anchor: start; fill: #0a0a0a" x="52.31" y="19.4275" transform="rotate(-0 52.31 19.4275)">Смена поколений: каждые несколько месяцев приходит новый лидер</text>
   </g>
   <g id="legend_1">
    <g id="text_18">
     <text style="font-weight: 700; font-size: 10px; font-family: 'DejaVu Sans', 'Arial', 'Helvetica', sans-serif; text-anchor: start" x="845.196406" y="50.3525" transform="rotate(-0 845.196406 50.3525)">контрибьютор</text>
    </g>
    <g id="patch_8">
     <path d="M 791.840938 65.030625 
L 811.840938 65.030625 
L 811.840938 58.030625 
L 791.840938 58.030625 
z
" style="fill: #e60000; fill-opacity: 0.88; stroke: #ffffff; stroke-opacity: 0.88; stroke-width: 0.4; stroke-linejoin: miter"/>
    </g>
    <g id="text_19">
     <text style="font-size: 10px; font-family: 'DejaVu Sans', 'Arial', 'Helvetica', sans-serif; text-anchor: start" x="819.840938" y="65.030625" transform="rotate(-0 819.840938 65.030625)">astrosander</text>
    </g>
    <g id="patch_9">
     <path d="M 791.840938 79.70875 
L 811.840938 79.70875 
L 811.840938 72.70875 
L 791.840938 72.70875 
z
" style="fill: #00ccff; fill-opacity: 0.88; stroke: #ffffff; stroke-opacity: 0.88; stroke-width: 0.4; stroke-linejoin: miter"/>
    </g>
    <g id="text_20">
     <text style="font-size: 10px; font-family: 'DejaVu Sans', 'Arial', 'Helvetica', sans-serif; text-anchor: start" x="819.840938" y="79.70875" transform="rotate(-0 819.840938 79.70875)">Ismail</text>
    </g>
    <g id="patch_10">
     <path d="M 791.840938 94.386875 
L 811.840938 94.386875 
L 811.840938 87.386875 
L 791.840938 87.386875 
z
" style="fill: #00cc88; fill-opacity: 0.88; stroke: #ffffff; stroke-opacity: 0.88; stroke-width: 0.4; stroke-linejoin: miter"/>
    </g>
    <g id="text_21">
     <text style="font-size: 10px; font-family: 'DejaVu Sans', 'Arial', 'Helvetica', sans-serif; text-anchor: start" x="819.840938" y="94.386875" transform="rotate(-0 819.840938 94.386875)">Shrodinger_cat</text>
    </g>
    <g id="patch_11">
     <path d="M 791.840938 109.343125 
L 811.840938 109.343125 
L 811.840938 102.343125 
L 791.840938 102.343125 
z
" style="fill: #88cc00; fill-opacity: 0.88; stroke: #ffffff; stroke-opacity: 0.88; stroke-width: 0.4; stroke-linejoin: miter"/>
    </g>
    <g id="text_22">
     <text style="font-size: 10px; font-family: 'DejaVu Sans', 'Arial', 'Helvetica', sans-serif; text-anchor: start" x="819.840938" y="109.343125" transform="rotate(-0 819.840938 109.343125)">Picksell Prod</text>
    </g>
    <g id="patch_12">
     <path d="M 915.155 65.030625 
L 935.155 65.030625 
L 935.155 58.030625 
L 915.155 58.030625 
z
" style="fill: #aa00ff; fill-opacity: 0.88; stroke: #ffffff; stroke-opacity: 0.88; stroke-width: 0.4; stroke-linejoin: miter"/>
    </g>
    <g id="text_23">
     <text style="font-size: 10px; font-family: 'DejaVu Sans', 'Arial', 'Helvetica', sans-serif; text-anchor: start" x="943.155" y="65.030625" transform="rotate(-0 943.155 65.030625)">jzmicer</text>
    </g>
    <g id="patch_13">
     <path d="M 915.155 79.70875 
L 935.155 79.70875 
L 935.155 72.70875 
L 915.155 72.70875 
z
" style="fill: #0040ff; fill-opacity: 0.88; stroke: #ffffff; stroke-opacity: 0.88; stroke-width: 0.4; stroke-linejoin: miter"/>
    </g>
    <g id="text_24">
     <text style="font-size: 10px; font-family: 'DejaVu Sans', 'Arial', 'Helvetica', sans-serif; text-anchor: start" x="943.155" y="79.70875" transform="rotate(-0 943.155 79.70875)">emixter</text>
    </g>
    <g id="patch_14">
     <path d="M 915.155 94.386875 
L 935.155 94.386875 
L 935.155 87.386875 
L 915.155 87.386875 
z
" style="fill: #ff8800; fill-opacity: 0.88; stroke: #ffffff; stroke-opacity: 0.88; stroke-width: 0.4; stroke-linejoin: miter"/>
    </g>
    <g id="text_25">
     <text style="font-size: 10px; font-family: 'DejaVu Sans', 'Arial', 'Helvetica', sans-serif; text-anchor: start" x="943.155" y="94.386875" transform="rotate(-0 943.155 94.386875)">igor</text>
    </g>
   </g>
  </g>
 </g>
 <defs>
  <clipPath id="p1a676f5089">
   <rect x="52.31" y="33.4275" width="938.62" height="364.532"/>
  </clipPath>
 </defs>
</svg>
