<?xml version="1.0" encoding="utf-8" standalone="no"?>
<!DOCTYPE svg PUBLIC "-//W3C//DTD SVG 1.1//EN"
  "http://www.w3.org/Graphics/SVG/1.1/DTD/svg11.dtd">
<svg xmlns:xlink="http://www.w3.org/1999/xlink" width="846.639841pt" height="784.7175pt" viewBox="0 0 846.639841 784.7175" xmlns="http://www.w3.org/2000/svg" version="1.1">
 <metadata>
  <rdf:RDF xmlns:dc="http://purl.org/dc/elements/1.1/" xmlns:cc="http://creativecommons.org/ns#" xmlns:rdf="http://www.w3.org/1999/02/22-rdf-syntax-ns#">
   <cc:Work>
    <dc:type rdf:resource="http://purl.org/dc/dcmitype/StillImage"/>
    <dc:date>2026-05-19T11:03:16.516097</dc:date>
    <dc:format>image/svg+xml</dc:format>
    <dc:creator>
     <cc:Agent>
      <dc:title>Matplotlib v3.10.8, https://matplotlib.org/</dc:title>
     </cc:Agent>
    </dc:creator>
   </cc:Work>
  </rdf:RDF>
 </metadata>
 <defs>
  <style type="text/css">*{stroke-linejoin: round; stroke-linecap: butt}</style>
 </defs>
 <g id="figure_1">
  <g id="patch_1">
   <path d="M 0 784.7175 
L 846.639841 784.7175 
L 846.639841 0 
L 0 0 
z
" style="fill: #ffffff"/>
  </g>
  <g id="axes_1">
   <g id="patch_2">
    <path d="M 696.052472 404.4375 
Q 584.226379 404.4375 480.311754 404.4375 
" clip-path="url(#p7854916e39)" style="fill: none; opacity: 0.95; stroke: #cc0000; stroke-width: 7.076232; stroke-linecap: round"/>
    <path d="M 486.311754 407.4375 
L 480.311754 404.4375 
L 486.311754 401.4375 
" clip-path="url(#p7854916e39)" style="fill: none; opacity: 0.95; stroke: #cc0000; stroke-width: 7.076232; stroke-linecap: round"/>
   </g>
   <g id="patch_3">
    <path d="M 612.434206 205.593619 
Q 534.597598 286.67342 461.053375 363.281985 
" clip-path="url(#p7854916e39)" style="fill: none; opacity: 0.85; stroke: #222222; stroke-width: 5.543755; stroke-linecap: round"/>
    <path d="M 467.372728 361.031256 
L 461.053375 363.281985 
L 463.044404 356.876065 
" clip-path="url(#p7854916e39)" style="fill: none; opacity: 0.85; stroke: #222222; stroke-width: 5.543755; stroke-linecap: round"/>
   </g>
   <g id="patch_4">
    <path d="M 230.400329 205.329426 
Q 308.362634 286.54016 382.218777 363.473642 
" clip-path="url(#p7854916e39)" style="fill: none; opacity: 0.85; stroke: #222222; stroke-width: 5.303241; stroke-linecap: round"/>
    <path d="M 380.227748 357.067722 
L 382.218777 363.473642 
L 375.899424 361.222913 
" clip-path="url(#p7854916e39)" style="fill: none; opacity: 0.85; stroke: #222222; stroke-width: 5.303241; stroke-linecap: round"/>
   </g>
   <g id="patch_5">
    <path d="M 612.87088 603.736249 
Q 534.817857 522.431017 460.870996 445.403037 
" clip-path="url(#p7854916e39)" style="fill: none; opacity: 0.85; stroke: #222222; stroke-width: 5.303241; stroke-linecap: round"/>
    <path d="M 462.862025 451.808957 
L 460.870996 445.403037 
L 467.190349 447.653766 
" clip-path="url(#p7854916e39)" style="fill: none; opacity: 0.85; stroke: #222222; stroke-width: 5.303241; stroke-linecap: round"/>
   </g>
   <g id="patch_6">
    <path d="M 725.519065 286.71224 
Q 727.912966 327.408558 729.977508 362.50576 
" clip-path="url(#p7854916e39)" style="fill: none; opacity: 0.85; stroke: #222222; stroke-width: 5.016658; stroke-linecap: round"/>
    <path d="M 732.619999 356.339947 
L 729.977508 362.50576 
L 726.630352 356.692279 
" clip-path="url(#p7854916e39)" style="fill: none; opacity: 0.85; stroke: #222222; stroke-width: 5.016658; stroke-linecap: round"/>
   </g>
   <g id="patch_7">
    <path d="M 469.592412 132.163621 
Q 449.986987 243.261033 431.287392 349.225401 
" clip-path="url(#p7854916e39)" style="fill: none; opacity: 0.85; stroke: #222222; stroke-width: 4.662075; stroke-linecap: round"/>
    <path d="M 435.284455 343.838056 
L 431.287392 349.225401 
L 429.375754 342.795344 
" clip-path="url(#p7854916e39)" style="fill: none; opacity: 0.85; stroke: #222222; stroke-width: 4.662075; stroke-linecap: round"/>
   </g>
   <g id="patch_8">
    <path d="M 557.663929 164.226002 
Q 502.140435 262.20864 449.186698 355.65641 
" clip-path="url(#p7854916e39)" style="fill: none; opacity: 0.85; stroke: #222222; stroke-width: 4.662075; stroke-linecap: round"/>
    <path d="M 454.75484 351.915315 
L 449.186698 355.65641 
L 449.534707 348.95724 
" clip-path="url(#p7854916e39)" style="fill: none; opacity: 0.85; stroke: #222222; stroke-width: 4.662075; stroke-linecap: round"/>
   </g>
   <g id="patch_9">
    <path d="M 693.742456 268.338313 
Q 580.386531 325.016275 471.589193 379.414944 
" clip-path="url(#p7854916e39)" style="fill: none; opacity: 0.85; stroke: #222222; stroke-width: 4.558586; stroke-linecap: round"/>
    <path d="M 478.297397 379.414944 
L 471.589193 379.414944 
L 475.614115 374.048381 
" clip-path="url(#p7854916e39)" style="fill: none; opacity: 0.85; stroke: #222222; stroke-width: 4.558586; stroke-linecap: round"/>
   </g>
   <g id="patch_10">
    <path d="M 145.900287 266.615603 
Q 260.979593 324.155256 371.731538 379.531229 
" clip-path="url(#p7854916e39)" style="fill: none; opacity: 0.85; stroke: #222222; stroke-width: 4.32736; stroke-linecap: round"/>
    <path d="M 367.706616 374.164666 
L 371.731538 379.531229 
L 365.023335 379.531229 
" clip-path="url(#p7854916e39)" style="fill: none; opacity: 0.85; stroke: #222222; stroke-width: 4.32736; stroke-linecap: round"/>
   </g>
   <g id="patch_11">
    <path d="M 148.703252 364.313849 
Q 259.967436 380.676229 366.444966 396.334689 
" clip-path="url(#p7854916e39)" style="fill: none; opacity: 0.85; stroke: #222222; stroke-width: 4.32736; stroke-linecap: round"/>
    <path d="M 360.945293 392.493648 
L 366.444966 396.334689 
L 360.072329 398.429802 
" clip-path="url(#p7854916e39)" style="fill: none; opacity: 0.85; stroke: #222222; stroke-width: 4.32736; stroke-linecap: round"/>
   </g>
   <g id="patch_12">
    <path d="M 558.152114 645.5105 
Q 502.384959 547.097873 448.852321 452.628512 
" clip-path="url(#p7854916e39)" style="fill: none; opacity: 0.65; stroke: #555555; stroke-width: 4.053878; stroke-linecap: round"/>
    <path d="M 449.20033 459.327683 
L 448.852321 452.628512 
L 454.420463 456.369608 
" clip-path="url(#p7854916e39)" style="fill: none; opacity: 0.65; stroke: #555555; stroke-width: 4.053878; stroke-linecap: round"/>
   </g>
   <g id="patch_13">
    <path d="M 697.705369 542.518144 
Q 582.36931 484.850114 471.087128 429.209024 
" clip-path="url(#p7854916e39)" style="fill: none; opacity: 0.65; stroke: #555555; stroke-width: 4.053878; stroke-linecap: round"/>
    <path d="M 475.112051 434.575587 
L 471.087128 429.209024 
L 477.795332 429.209024 
" clip-path="url(#p7854916e39)" style="fill: none; opacity: 0.65; stroke: #555555; stroke-width: 4.053878; stroke-linecap: round"/>
   </g>
   <g id="patch_14">
    <path d="M 284.618949 646.070085 
Q 340.544984 547.377082 394.323615 452.473616 
" clip-path="url(#p7854916e39)" style="fill: none; opacity: 0.65; stroke: #555555; stroke-width: 3.895837; stroke-linecap: round"/>
    <path d="M 388.755473 456.214712 
L 394.323615 452.473616 
L 393.975606 459.172787 
" clip-path="url(#p7854916e39)" style="fill: none; opacity: 0.65; stroke: #555555; stroke-width: 3.895837; stroke-linecap: round"/>
   </g>
   <g id="patch_15">
    <path d="M 453.439424 675.547918 
Q 440.462811 565.24671 427.945877 458.852766 
" clip-path="url(#p7854916e39)" style="fill: none; opacity: 0.65; stroke: #555555; stroke-width: 3.518865; stroke-linecap: round"/>
    <path d="M 425.667472 465.162193 
L 427.945877 458.852766 
L 431.626376 464.461146 
" clip-path="url(#p7854916e39)" style="fill: none; opacity: 0.65; stroke: #555555; stroke-width: 3.518865; stroke-linecap: round"/>
   </g>
   <g id="patch_16">
    <path d="M 706.658901 282.162877 
Q 589.757852 480.89466 474.565425 676.721785 
" clip-path="url(#p7854916e39)" style="fill: none; opacity: 0.45; stroke: #aaaaaa; stroke-width: 3.014157; stroke-linecap: round"/>
    <path d="M 480.193349 673.071241 
L 474.565425 676.721785 
L 475.021743 670.02912 
" clip-path="url(#p7854916e39)" style="fill: none; opacity: 0.45; stroke: #aaaaaa; stroke-width: 3.014157; stroke-linecap: round"/>
   </g>
   <g id="patch_17">
    <path d="M 478.043422 683.457577 
Q 592.984108 557.393599 705.906425 433.543316 
" clip-path="url(#p7854916e39)" style="fill: none; opacity: 0.45; stroke: #aaaaaa; stroke-width: 2.679442; stroke-linecap: round"/>
    <path d="M 699.647034 435.95579 
L 705.906425 433.543316 
L 704.080769 439.998313 
" clip-path="url(#p7854916e39)" style="fill: none; opacity: 0.45; stroke: #aaaaaa; stroke-width: 2.679442; stroke-linecap: round"/>
   </g>
   <g id="patch_18">
    <path d="M 472.397152 404.4375 
Q 584.223245 404.4375 693.536088 404.4375 
" clip-path="url(#p7854916e39)" style="fill: none; opacity: 0.45; stroke: #aaaaaa; stroke-width: 2.247918; stroke-linecap: round"/>
    <path d="M 687.536088 401.4375 
L 693.536088 404.4375 
L 687.536088 407.4375 
" clip-path="url(#p7854916e39)" style="fill: none; opacity: 0.45; stroke: #aaaaaa; stroke-width: 2.247918; stroke-linecap: round"/>
   </g>
   <g id="patch_19">
    <path d="M 427.485863 454.942652 
Q 440.462476 565.24386 453.145438 673.049033 
" clip-path="url(#p7854916e39)" style="fill: none; opacity: 0.45; stroke: #aaaaaa; stroke-width: 2.247918; stroke-linecap: round"/>
    <path d="M 455.423842 666.739606 
L 453.145438 673.049033 
L 449.464938 667.440653 
" clip-path="url(#p7854916e39)" style="fill: none; opacity: 0.45; stroke: #aaaaaa; stroke-width: 2.247918; stroke-linecap: round"/>
   </g>
   <g id="patch_20">
    <path d="M 472.853988 679.631229 
Q 589.755037 480.899445 705.381818 284.333918 
" clip-path="url(#p7854916e39)" style="fill: none; opacity: 0.45; stroke: #aaaaaa; stroke-width: 2.247918; stroke-linecap: round"/>
    <path d="M 699.753895 287.984462 
L 705.381818 284.333918 
L 704.9255 291.026583 
" clip-path="url(#p7854916e39)" style="fill: none; opacity: 0.45; stroke: #aaaaaa; stroke-width: 2.247918; stroke-linecap: round"/>
   </g>
   <g id="text_1">
    <!-- толщина стрелки $\propto \log(N_\mathrm{каскадов})$,  размер узла $\propto$ числу участий -->
    <g style="fill: #444444" transform="translate(496.883281 740.2095)">
     <text>
      <tspan x="0" y="-0.140625" style="font-style: oblique; font-size: 10px; font-family: 'DejaVu Sans'; fill: #444444">т</tspan>
      <tspan x="5.825195" y="-0.140625" style="font-style: oblique; font-size: 10px; font-family: 'DejaVu Sans'; fill: #444444">о</tspan>
      <tspan x="11.943359" y="-0.140625" style="font-style: oblique; font-size: 10px; font-family: 'DejaVu Sans'; fill: #444444">л</tspan>
      <tspan x="18.334961" y="-0.140625" style="font-style: oblique; font-size: 10px; font-family: 'DejaVu Sans'; fill: #444444">щ</tspan>
      <tspan x="27.753906" y="-0.140625" style="font-style: oblique; font-size: 10px; font-family: 'DejaVu Sans'; fill: #444444">и</tspan>
      <tspan x="34.25293" y="-0.140625" style="font-style: oblique; font-size: 10px; font-family: 'DejaVu Sans'; fill: #444444">н</tspan>
      <tspan x="40.791016" y="-0.140625" style="font-style: oblique; font-size: 10px; font-family: 'DejaVu Sans'; fill: #444444">а</tspan>
      <tspan x="46.918945" y="-0.140625" style="font-style: oblique; font-size: 10px; font-family: 'DejaVu Sans'; fill: #444444"> </tspan>
      <tspan x="50.097656" y="-0.140625" style="font-style: oblique; font-size: 10px; font-family: 'DejaVu Sans'; fill: #444444">с</tspan>
      <tspan x="55.595703" y="-0.140625" style="font-style: oblique; font-size: 10px; font-family: 'DejaVu Sans'; fill: #444444">т</tspan>
      <tspan x="61.420898" y="-0.140625" style="font-style: oblique; font-size: 10px; font-family: 'DejaVu Sans'; fill: #444444">р</tspan>
      <tspan x="67.768555" y="-0.140625" style="font-style: oblique; font-size: 10px; font-family: 'DejaVu Sans'; fill: #444444">е</tspan>
      <tspan x="73.920898" y="-0.140625" style="font-style: oblique; font-size: 10px; font-family: 'DejaVu Sans'; fill: #444444">л</tspan>
      <tspan x="80.3125" y="-0.140625" style="font-style: oblique; font-size: 10px; font-family: 'DejaVu Sans'; fill: #444444">к</tspan>
      <tspan x="86.352539" y="-0.140625" style="font-style: oblique; font-size: 10px; font-family: 'DejaVu Sans'; fill: #444444">и</tspan>
      <tspan x="92.851562" y="-0.140625" style="font-style: oblique; font-size: 10px; font-family: 'DejaVu Sans'; fill: #444444"> </tspan>
      <tspan x="158.988722" y="-0.140625" style="font-style: oblique; font-size: 10px; font-family: 'DejaVu Sans'; fill: #444444">,</tspan>
      <tspan x="162.167433" y="-0.140625" style="font-style: oblique; font-size: 10px; font-family: 'DejaVu Sans'; fill: #444444"> </tspan>
      <tspan x="165.346144" y="-0.140625" style="font-style: oblique; font-size: 10px; font-family: 'DejaVu Sans'; fill: #444444"> </tspan>
      <tspan x="168.524855" y="-0.140625" style="font-style: oblique; font-size: 10px; font-family: 'DejaVu Sans'; fill: #444444">р</tspan>
      <tspan x="174.872511" y="-0.140625" style="font-style: oblique; font-size: 10px; font-family: 'DejaVu Sans'; fill: #444444">а</tspan>
      <tspan x="181.000441" y="-0.140625" style="font-style: oblique; font-size: 10px; font-family: 'DejaVu Sans'; fill: #444444">з</tspan>
      <tspan x="186.317824" y="-0.140625" style="font-style: oblique; font-size: 10px; font-family: 'DejaVu Sans'; fill: #444444">м</tspan>
      <tspan x="193.861769" y="-0.140625" style="font-style: oblique; font-size: 10px; font-family: 'DejaVu Sans'; fill: #444444">е</tspan>
      <tspan x="200.014113" y="-0.140625" style="font-style: oblique; font-size: 10px; font-family: 'DejaVu Sans'; fill: #444444">р</tspan>
      <tspan x="206.361769" y="-0.140625" style="font-style: oblique; font-size: 10px; font-family: 'DejaVu Sans'; fill: #444444"> </tspan>
      <tspan x="209.54048" y="-0.140625" style="font-style: oblique; font-size: 10px; font-family: 'DejaVu Sans'; fill: #444444">у</tspan>
      <tspan x="215.458449" y="-0.140625" style="font-style: oblique; font-size: 10px; font-family: 'DejaVu Sans'; fill: #444444">з</tspan>
      <tspan x="220.775832" y="-0.140625" style="font-style: oblique; font-size: 10px; font-family: 'DejaVu Sans'; fill: #444444">л</tspan>
      <tspan x="227.167433" y="-0.140625" style="font-style: oblique; font-size: 10px; font-family: 'DejaVu Sans'; fill: #444444">а</tspan>
      <tspan x="233.295363" y="-0.140625" style="font-style: oblique; font-size: 10px; font-family: 'DejaVu Sans'; fill: #444444"> </tspan>
      <tspan x="246.212059" y="-0.140625" style="font-style: oblique; font-size: 10px; font-family: 'DejaVu Sans'; fill: #444444"> </tspan>
      <tspan x="249.39077" y="-0.140625" style="font-style: oblique; font-size: 10px; font-family: 'DejaVu Sans'; fill: #444444">ч</tspan>
      <tspan x="255.298973" y="-0.140625" style="font-style: oblique; font-size: 10px; font-family: 'DejaVu Sans'; fill: #444444">и</tspan>
      <tspan x="261.797997" y="-0.140625" style="font-style: oblique; font-size: 10px; font-family: 'DejaVu Sans'; fill: #444444">с</tspan>
      <tspan x="267.296043" y="-0.140625" style="font-style: oblique; font-size: 10px; font-family: 'DejaVu Sans'; fill: #444444">л</tspan>
      <tspan x="273.687645" y="-0.140625" style="font-style: oblique; font-size: 10px; font-family: 'DejaVu Sans'; fill: #444444">у</tspan>
      <tspan x="279.605614" y="-0.140625" style="font-style: oblique; font-size: 10px; font-family: 'DejaVu Sans'; fill: #444444"> </tspan>
      <tspan x="282.784325" y="-0.140625" style="font-style: oblique; font-size: 10px; font-family: 'DejaVu Sans'; fill: #444444">у</tspan>
      <tspan x="288.702293" y="-0.140625" style="font-style: oblique; font-size: 10px; font-family: 'DejaVu Sans'; fill: #444444">ч</tspan>
      <tspan x="294.610497" y="-0.140625" style="font-style: oblique; font-size: 10px; font-family: 'DejaVu Sans'; fill: #444444">а</tspan>
      <tspan x="300.738426" y="-0.140625" style="font-style: oblique; font-size: 10px; font-family: 'DejaVu Sans'; fill: #444444">с</tspan>
      <tspan x="306.236473" y="-0.140625" style="font-style: oblique; font-size: 10px; font-family: 'DejaVu Sans'; fill: #444444">т</tspan>
      <tspan x="312.061668" y="-0.140625" style="font-style: oblique; font-size: 10px; font-family: 'DejaVu Sans'; fill: #444444">и</tspan>
      <tspan x="318.560692" y="-0.140625" style="font-style: oblique; font-size: 10px; font-family: 'DejaVu Sans'; fill: #444444">й</tspan>
      <tspan x="97.474271" y="-0.140625" style="font-size: 10px; font-family: 'STIXGeneral'; fill: #444444">∝</tspan>
      <tspan x="105.768259" y="-0.140625" style="font-size: 10px; font-family: 'STIXGeneral'; fill: #444444">l</tspan>
      <tspan x="108.548242" y="-0.140625" style="font-size: 10px; font-family: 'STIXGeneral'; fill: #444444">o</tspan>
      <tspan x="113.548227" y="-0.140625" style="font-size: 10px; font-family: 'STIXGeneral'; fill: #444444">g</tspan>
      <tspan x="118.548212" y="-0.140625" style="font-size: 10px; font-family: 'STIXGeneral'; fill: #444444">(</tspan>
      <tspan x="155.658736" y="-0.140625" style="font-size: 10px; font-family: 'STIXGeneral'; fill: #444444">)</tspan>
      <tspan x="237.918071" y="-0.140625" style="font-size: 10px; font-family: 'STIXGeneral'; fill: #444444">∝</tspan>
      <tspan x="121.878198" y="-0.140625" style="font-style: italic; font-size: 10px; font-family: 'STIXGeneral'; fill: #444444">N</tspan>
      <tspan x="128.548181" y="1.18125" style="font-size: 7px; font-family: 'STIXGeneral'; fill: #444444">к</tspan>
      <tspan x="132.06917" y="1.18125" style="font-size: 7px; font-family: 'STIXGeneral'; fill: #444444">а</tspan>
      <tspan x="135.219159" y="1.18125" style="font-size: 7px; font-family: 'STIXGeneral'; fill: #444444">с</tspan>
      <tspan x="138.411147" y="1.18125" style="font-size: 7px; font-family: 'STIXGeneral'; fill: #444444">к</tspan>
      <tspan x="141.932135" y="1.18125" style="font-size: 7px; font-family: 'STIXGeneral'; fill: #444444">а</tspan>
      <tspan x="145.082124" y="1.18125" style="font-size: 7px; font-family: 'STIXGeneral'; fill: #444444">д</tspan>
      <tspan x="148.316121" y="1.18125" style="font-size: 7px; font-family: 'STIXGeneral'; fill: #444444">о</tspan>
      <tspan x="151.900117" y="1.18125" style="font-size: 7px; font-family: 'STIXGeneral'; fill: #444444">в</tspan>
     </text>
    </g>
   </g>
   <g id="text_2">
    <text style="font-weight: 700; font-size: 16px; font-family: 'DejaVu Sans', 'Arial', 'Helvetica', sans-serif; text-anchor: start; fill: #0a0a0a" x="12.932652" y="19.3575" transform="rotate(-0 12.932652 19.3575)">Граф каскадов: кто чьи решения подхватывает в течение недели</text>
   </g>
   <g id="patch_21">
    <path d="M 421.544081 453.293214 
C 434.500768 453.293214 446.928526 448.145468 456.090288 438.983707 
C 465.252049 429.821946 470.399795 417.394187 470.399795 404.4375 
C 470.399795 391.480813 465.252049 379.053054 456.090288 369.891293 
C 446.928526 360.729532 434.500768 355.581786 421.544081 355.581786 
C 408.587394 355.581786 396.159635 360.729532 386.997874 369.891293 
C 377.836113 379.053054 372.688366 391.480813 372.688366 404.4375 
C 372.688366 417.394187 377.836113 429.821946 386.997874 438.983707 
C 396.159635 448.145468 408.587394 453.293214 421.544081 453.293214 
z
" clip-path="url(#p7854916e39)" style="fill: #e60000; stroke: #000000; stroke-width: 1.2; stroke-linejoin: miter"/>
   </g>
   <g id="patch_22">
    <path d="M 732.444081 445.685331 
C 743.383133 445.685331 753.875624 441.3392 761.610702 433.604121 
C 769.34578 425.869043 773.691912 415.376553 773.691912 404.4375 
C 773.691912 393.498447 769.34578 383.005957 761.610702 375.270879 
C 753.875624 367.5358 743.383133 363.189669 732.444081 363.189669 
C 721.505028 363.189669 711.012538 367.5358 703.277459 375.270879 
C 695.542381 383.005957 691.196249 393.498447 691.196249 404.4375 
C 691.196249 415.376553 695.542381 425.869043 703.277459 433.604121 
C 711.012538 441.3392 721.505028 445.685331 732.444081 445.685331 
z
" clip-path="url(#p7854916e39)" style="fill: #ffd700; stroke: #000000; stroke-width: 1.2; stroke-linejoin: miter"/>
   </g>
   <g id="patch_23">
    <path d="M 634.732652 218.485279 
C 644.311578 218.485279 653.499465 214.679531 660.272788 207.906208 
C 667.046112 201.132884 670.851859 191.944997 670.851859 182.366071 
C 670.851859 172.787146 667.046112 163.599258 660.272788 156.825935 
C 653.499465 150.052612 644.311578 146.246864 634.732652 146.246864 
C 625.153726 146.246864 615.965839 150.052612 609.192516 156.825935 
C 602.419193 163.599258 598.613445 172.787146 598.613445 182.366071 
C 598.613445 191.944997 602.419193 201.132884 609.192516 207.906208 
C 615.965839 214.679531 625.153726 218.485279 634.732652 218.485279 
z
" clip-path="url(#p7854916e39)" style="fill: #0040ff; stroke: #000000; stroke-width: 1.2; stroke-linejoin: miter"/>
   </g>
   <g id="patch_24">
    <path d="M 634.732652 661.859302 
C 644.107681 661.859302 653.099995 658.134564 659.729141 651.505417 
C 666.358287 644.876271 670.083025 635.883957 670.083025 626.508929 
C 670.083025 617.1339 666.358287 608.141586 659.729141 601.51244 
C 653.099995 594.883294 644.107681 591.158555 634.732652 591.158555 
C 625.357624 591.158555 616.36531 594.883294 609.736163 601.51244 
C 603.107017 608.141586 599.382279 617.1339 599.382279 626.508929 
C 599.382279 635.883957 603.107017 644.876271 609.736163 651.505417 
C 616.36531 658.134564 625.357624 661.859302 634.732652 661.859302 
z
" clip-path="url(#p7854916e39)" style="fill: #ffd700; stroke: #000000; stroke-width: 1.2; stroke-linejoin: miter"/>
   </g>
   <g id="patch_25">
    <path d="M 208.355509 218.042338 
C 217.816966 218.042338 226.892179 214.283262 233.582439 207.593002 
C 240.272699 200.902742 244.031776 191.827528 244.031776 182.366071 
C 244.031776 172.904615 240.272699 163.829401 233.582439 157.139141 
C 226.892179 150.448881 217.816966 146.689805 208.355509 146.689805 
C 198.894053 146.689805 189.818839 150.448881 183.128579 157.139141 
C 176.438319 163.829401 172.679242 172.904615 172.679242 182.366071 
C 172.679242 191.827528 176.438319 200.902742 183.128579 207.593002 
C 189.818839 214.283262 198.894053 218.042338 208.355509 218.042338 
z
" clip-path="url(#p7854916e39)" style="fill: #00b21a; stroke: #000000; stroke-width: 1.2; stroke-linejoin: miter"/>
   </g>
   <g id="patch_26">
    <path d="M 723.561224 290.942184 
C 733.509855 290.942184 743.052356 286.989551 750.087101 279.954806 
C 757.121846 272.920061 761.074479 263.37756 761.074479 253.428929 
C 761.074479 243.480297 757.121846 233.937796 750.087101 226.903051 
C 743.052356 219.868306 733.509855 215.915673 723.561224 215.915673 
C 713.612592 215.915673 704.070091 219.868306 697.035346 226.903051 
C 690.000601 233.937796 686.047968 243.480297 686.047968 253.428929 
C 686.047968 263.37756 690.000601 272.920061 697.035346 279.954806 
C 704.070091 286.989551 713.612592 290.942184 723.561224 290.942184 
z
" clip-path="url(#p7854916e39)" style="fill: #0040ff; stroke: #000000; stroke-width: 1.2; stroke-linejoin: miter"/>
   </g>
   <g id="patch_27">
    <path d="M 474.841224 136.100084 
C 483.773191 136.100084 492.340532 132.551375 498.656387 126.23552 
C 504.972242 119.919665 508.52095 111.352325 508.52095 102.420357 
C 508.52095 93.488389 504.972242 84.921049 498.656387 78.605194 
C 492.340532 72.289339 483.773191 68.74063 474.841224 68.74063 
C 465.909256 68.74063 457.341915 72.289339 451.02606 78.605194 
C 444.710205 84.921049 441.161497 93.488389 441.161497 102.420357 
C 441.161497 111.352325 444.710205 119.919665 451.02606 126.23552 
C 457.341915 132.551375 465.909256 136.100084 474.841224 136.100084 
z
" clip-path="url(#p7854916e39)" style="fill: #0040ff; stroke: #000000; stroke-width: 1.2; stroke-linejoin: miter"/>
   </g>
   <g id="patch_28">
    <path d="M 572.552652 171.631512 
C 581.48462 171.631512 590.05196 168.082804 596.367815 161.766949 
C 602.68367 155.451094 606.232379 146.883754 606.232379 137.951786 
C 606.232379 129.019818 602.68367 120.452478 596.367815 114.136623 
C 590.05196 107.820767 581.48462 104.272059 572.552652 104.272059 
C 563.620684 104.272059 555.053344 107.820767 548.737489 114.136623 
C 542.421634 120.452478 538.872925 129.019818 538.872925 137.951786 
C 538.872925 146.883754 542.421634 155.451094 548.737489 161.766949 
C 555.053344 168.082804 563.620684 171.631512 572.552652 171.631512 
z
" clip-path="url(#p7854916e39)" style="fill: #0040ff; stroke: #000000; stroke-width: 1.2; stroke-linejoin: miter"/>
   </g>
   <g id="patch_29">
    <path d="M 119.526938 286.236508 
C 128.22761 286.236508 136.573096 282.779695 142.7254 276.627391 
C 148.877704 270.475087 152.334518 262.1296 152.334518 253.428929 
C 152.334518 244.728257 148.877704 236.382771 142.7254 230.230466 
C 136.573096 224.078162 128.22761 220.621349 119.526938 220.621349 
C 110.826266 220.621349 102.48078 224.078162 96.328476 230.230466 
C 90.176172 236.382771 86.719358 244.728257 86.719358 253.428929 
C 86.719358 262.1296 90.176172 270.475087 96.328476 276.627391 
C 102.48078 282.779695 110.826266 286.236508 119.526938 286.236508 
z
" clip-path="url(#p7854916e39)" style="fill: #00b21a; stroke: #000000; stroke-width: 1.2; stroke-linejoin: miter"/>
   </g>
   <g id="patch_30">
    <path d="M 119.526938 392.830794 
C 128.22761 392.830794 136.573096 389.37398 142.7254 383.221676 
C 148.877704 377.069372 152.334518 368.723886 152.334518 360.023214 
C 152.334518 351.322542 148.877704 342.977056 142.7254 336.824752 
C 136.573096 330.672448 128.22761 327.215635 119.526938 327.215635 
C 110.826266 327.215635 102.48078 330.672448 96.328476 336.824752 
C 90.176172 342.977056 86.719358 351.322542 86.719358 360.023214 
C 86.719358 368.723886 90.176172 377.069372 96.328476 383.221676 
C 102.48078 389.37398 110.826266 392.830794 119.526938 392.830794 
z
" clip-path="url(#p7854916e39)" style="fill: #00b21a; stroke: #000000; stroke-width: 1.2; stroke-linejoin: miter"/>
   </g>
   <g id="patch_31">
    <path d="M 270.535509 702.606401 
C 278.937989 702.606401 286.997455 699.268061 292.938905 693.32661 
C 298.880355 687.38516 302.218696 679.325694 302.218696 670.923214 
C 302.218696 662.520735 298.880355 654.461268 292.938905 648.519818 
C 286.997455 642.578368 278.937989 639.240028 270.535509 639.240028 
C 262.13303 639.240028 254.073563 642.578368 248.132113 648.519818 
C 242.190663 654.461268 238.852323 662.520735 238.852323 670.923214 
C 238.852323 679.325694 242.190663 687.38516 248.132113 693.32661 
C 254.073563 699.268061 262.13303 702.606401 270.535509 702.606401 
z
" clip-path="url(#p7854916e39)" style="fill: #e60000; stroke: #000000; stroke-width: 1.2; stroke-linejoin: miter"/>
   </g>
   <g id="patch_32">
    <path d="M 457.075509 741.258763 
C 466.30567 741.258763 475.159029 737.591581 481.685738 731.064872 
C 488.212447 724.538163 491.879629 715.684803 491.879629 706.454643 
C 491.879629 697.224482 488.212447 688.371123 481.685738 681.844414 
C 475.159029 675.317705 466.30567 671.650523 457.075509 671.650523 
C 447.845349 671.650523 438.991989 675.317705 432.46528 681.844414 
C 425.938571 688.371123 422.271389 697.224482 422.271389 706.454643 
C 422.271389 715.684803 425.938571 724.538163 432.46528 731.064872 
C 438.991989 737.591581 447.845349 741.258763 457.075509 741.258763 
z
" clip-path="url(#p7854916e39)" style="fill: #e60000; stroke: #000000; stroke-width: 1.2; stroke-linejoin: miter"/>
   </g>
   <g id="patch_33">
    <path d="M 572.552652 703.390714 
C 581.163134 703.390714 589.422111 699.969733 595.510641 693.881203 
C 601.599171 687.792673 605.020152 679.533696 605.020152 670.923214 
C 605.020152 662.312733 601.599171 654.053755 595.510641 647.965225 
C 589.422111 641.876695 581.163134 638.455715 572.552652 638.455715 
C 563.942171 638.455715 555.683193 641.876695 549.594663 647.965225 
C 543.506133 654.053755 540.085153 662.312733 540.085153 670.923214 
C 540.085153 679.533696 543.506133 687.792673 549.594663 693.881203 
C 555.683193 699.969733 563.942171 703.390714 572.552652 703.390714 
z
" clip-path="url(#p7854916e39)" style="fill: #cc0066; stroke: #000000; stroke-width: 1.2; stroke-linejoin: miter"/>
   </g>
   <g id="patch_34">
    <path d="M 723.561224 587.541055 
C 732.072913 587.541055 740.237131 584.159325 746.255804 578.140652 
C 752.274477 572.121979 755.656207 563.957761 755.656207 555.446071 
C 755.656207 546.934382 752.274477 538.770164 746.255804 532.751491 
C 740.237131 526.732818 732.072913 523.351088 723.561224 523.351088 
C 715.049534 523.351088 706.885316 526.732818 700.866643 532.751491 
C 694.84797 538.770164 691.46624 546.934382 691.46624 555.446071 
C 691.46624 563.957761 694.84797 572.121979 700.866643 578.140652 
C 706.885316 584.159325 715.049534 587.541055 723.561224 587.541055 
z
" clip-path="url(#p7854916e39)" style="fill: #cc6600; stroke: #000000; stroke-width: 1.2; stroke-linejoin: miter"/>
   </g>
   <g id="patch_35">
    <path d="M 119.526938 523.967006 
C 127.668921 523.967006 135.478526 520.732162 141.235777 514.974911 
C 146.993029 509.217659 150.227873 501.408055 150.227873 493.266071 
C 150.227873 485.124088 146.993029 477.314484 141.235777 471.557232 
C 135.478526 465.799981 127.668921 462.565136 119.526938 462.565136 
C 111.384955 462.565136 103.57535 465.799981 97.818098 471.557232 
C 92.060847 477.314484 88.826003 485.124088 88.826003 493.266071 
C 88.826003 501.408055 92.060847 509.217659 97.818098 514.974911 
C 103.57535 520.732162 111.384955 523.967006 119.526938 523.967006 
z
" clip-path="url(#p7854916e39)" style="fill: #0040ff; stroke: #000000; stroke-width: 1.2; stroke-linejoin: miter"/>
   </g>
   <g id="text_3">
    <g id="patch_36">
     <path d="M 512.682706 412.884375 
L 529.381456 412.884375 
Q 532.021456 412.884375 532.021456 410.244375 
L 532.021456 398.630625 
Q 532.021456 395.990625 529.381456 395.990625 
L 512.682706 395.990625 
Q 510.042706 395.990625 510.042706 398.630625 
L 510.042706 410.244375 
Q 510.042706 412.884375 512.682706 412.884375 
z
" style="fill: #ffffff; stroke: #cc0000; stroke-linejoin: miter"/>
    </g>
    <text style="font-weight: 700; font-size: 12px; font-family: 'DejaVu Sans', 'Arial', 'Helvetica', sans-serif; text-anchor: middle; fill: #cc0000" x="521.032081" y="407.74875" transform="rotate(-0 521.032081 407.74875)">74</text>
   </g>
   <g id="text_4">
    <g id="patch_37">
     <path d="M 481.415049 341.821518 
L 498.113799 341.821518 
Q 500.753799 341.821518 500.753799 339.181518 
L 500.753799 327.567768 
Q 500.753799 324.927768 498.113799 324.927768 
L 481.415049 324.927768 
Q 478.775049 324.927768 478.775049 327.567768 
L 478.775049 339.181518 
Q 478.775049 341.821518 481.415049 341.821518 
z
" style="fill: #ffffff; stroke: #222222; stroke-linejoin: miter"/>
    </g>
    <text style="font-weight: 700; font-size: 12px; font-family: 'DejaVu Sans', 'Arial', 'Helvetica', sans-serif; text-anchor: middle; fill: #222222" x="489.764424" y="336.685893" transform="rotate(-0 489.764424 336.685893)">26</text>
   </g>
   <g id="text_5">
    <g id="patch_38">
     <path d="M 344.974363 341.821518 
L 361.673113 341.821518 
Q 364.313113 341.821518 364.313113 339.181518 
L 364.313113 327.567768 
Q 364.313113 324.927768 361.673113 324.927768 
L 344.974363 324.927768 
Q 342.334363 324.927768 342.334363 327.567768 
L 342.334363 339.181518 
Q 342.334363 341.821518 344.974363 341.821518 
z
" style="fill: #ffffff; stroke: #222222; stroke-linejoin: miter"/>
    </g>
    <text style="font-weight: 700; font-size: 12px; font-family: 'DejaVu Sans', 'Arial', 'Helvetica', sans-serif; text-anchor: middle; fill: #222222" x="353.323738" y="336.685893" transform="rotate(-0 353.323738 336.685893)">22</text>
   </g>
   <g id="text_6">
    <g id="patch_39">
     <path d="M 481.415049 483.947232 
L 498.113799 483.947232 
Q 500.753799 483.947232 500.753799 481.307232 
L 500.753799 469.693482 
Q 500.753799 467.053482 498.113799 467.053482 
L 481.415049 467.053482 
Q 478.775049 467.053482 478.775049 469.693482 
L 478.775049 481.307232 
Q 478.775049 483.947232 481.415049 483.947232 
z
" style="fill: #ffffff; stroke: #222222; stroke-linejoin: miter"/>
    </g>
    <text style="font-weight: 700; font-size: 12px; font-family: 'DejaVu Sans', 'Arial', 'Helvetica', sans-serif; text-anchor: middle; fill: #222222" x="489.764424" y="478.811607" transform="rotate(-0 489.764424 478.811607)">22</text>
   </g>
   <g id="text_7">
    <g id="patch_40">
     <path d="M 721.252191 364.561632 
L 737.950941 364.561632 
Q 740.590941 364.561632 740.590941 361.921632 
L 740.590941 350.307882 
Q 740.590941 347.667882 737.950941 347.667882 
L 721.252191 347.667882 
Q 718.612191 347.667882 718.612191 350.307882 
L 718.612191 361.921632 
Q 718.612191 364.561632 721.252191 364.561632 
z
" style="fill: #ffffff; stroke: #222222; stroke-linejoin: miter"/>
    </g>
    <text style="font-weight: 700; font-size: 12px; font-family: 'DejaVu Sans', 'Arial', 'Helvetica', sans-serif; text-anchor: middle; fill: #222222" x="729.601566" y="359.426007" transform="rotate(-0 729.601566 359.426007)">18</text>
   </g>
   <g id="text_8">
    <g id="patch_41">
     <path d="M 430.249791 316.238889 
L 446.948541 316.238889 
Q 449.588541 316.238889 449.588541 313.598889 
L 449.588541 301.985139 
Q 449.588541 299.345139 446.948541 299.345139 
L 430.249791 299.345139 
Q 427.609791 299.345139 427.609791 301.985139 
L 427.609791 313.598889 
Q 427.609791 316.238889 430.249791 316.238889 
z
" style="fill: #ffffff; stroke: #222222; stroke-linejoin: miter"/>
    </g>
    <text style="font-weight: 700; font-size: 12px; font-family: 'DejaVu Sans', 'Arial', 'Helvetica', sans-serif; text-anchor: middle; fill: #222222" x="438.599166" y="311.103264" transform="rotate(-0 438.599166 311.103264)">14</text>
   </g>
   <g id="text_9">
    <g id="patch_42">
     <path d="M 461.517449 327.608946 
L 478.216199 327.608946 
Q 480.856199 327.608946 480.856199 324.968946 
L 480.856199 313.355196 
Q 480.856199 310.715196 478.216199 310.715196 
L 461.517449 310.715196 
Q 458.877449 310.715196 458.877449 313.355196 
L 458.877449 324.968946 
Q 458.877449 327.608946 461.517449 327.608946 
z
" style="fill: #ffffff; stroke: #222222; stroke-linejoin: miter"/>
    </g>
    <text style="font-weight: 700; font-size: 12px; font-family: 'DejaVu Sans', 'Arial', 'Helvetica', sans-serif; text-anchor: middle; fill: #222222" x="469.866824" y="322.473321" transform="rotate(-0 469.866824 322.473321)">14</text>
   </g>
   <g id="text_10">
    <g id="patch_43">
     <path d="M 509.840191 364.561632 
L 526.538941 364.561632 
Q 529.178941 364.561632 529.178941 361.921632 
L 529.178941 350.307882 
Q 529.178941 347.667882 526.538941 347.667882 
L 509.840191 347.667882 
Q 507.200191 347.667882 507.200191 350.307882 
L 507.200191 361.921632 
Q 507.200191 364.561632 509.840191 364.561632 
z
" style="fill: #ffffff; stroke: #222222; stroke-linejoin: miter"/>
    </g>
    <text style="font-weight: 700; font-size: 12px; font-family: 'DejaVu Sans', 'Arial', 'Helvetica', sans-serif; text-anchor: middle; fill: #222222" x="518.189566" y="359.426007" transform="rotate(-0 518.189566 359.426007)">13</text>
   </g>
   <g id="legend_1">
    <g id="text_11">
     <text style="font-weight: 700; font-size: 10px; font-family: 'DejaVu Sans', 'Arial', 'Helvetica', sans-serif; text-anchor: start" x="86.64359" y="678.290937" transform="rotate(-0 86.64359 678.290937)">страны участников</text>
    </g>
    <g id="patch_44">
     <path d="M 21.932652 693.047187 
L 41.932652 693.047187 
L 41.932652 686.047187 
L 21.932652 686.047187 
z
" style="fill: #e60000; stroke: #e60000; stroke-linejoin: miter"/>
    </g>
    <g id="text_12">
     <text style="font-size: 10px; font-family: 'DejaVu Sans', 'Arial', 'Helvetica', sans-serif; text-anchor: start" x="49.932652" y="693.047187" transform="rotate(-0 49.932652 693.047187)">Belarus, 9 участников, 48.5% правок</text>
    </g>
    <g id="patch_45">
     <path d="M 21.932652 707.725312 
L 41.932652 707.725312 
L 41.932652 700.725312 
L 21.932652 700.725312 
z
" style="fill: #0040ff; stroke: #0040ff; stroke-linejoin: miter"/>
    </g>
    <g id="text_13">
     <text style="font-size: 10px; font-family: 'DejaVu Sans', 'Arial', 'Helvetica', sans-serif; text-anchor: start" x="49.932652" y="707.725312" transform="rotate(-0 49.932652 707.725312)">Russia, 18 участников, 20.0% правок</text>
    </g>
    <g id="patch_46">
     <path d="M 21.932652 722.403437 
L 41.932652 722.403437 
L 41.932652 715.403437 
L 21.932652 715.403437 
z
" style="fill: #ffd700; stroke: #ffd700; stroke-linejoin: miter"/>
    </g>
    <g id="text_14">
     <text style="font-size: 10px; font-family: 'DejaVu Sans', 'Arial', 'Helvetica', sans-serif; text-anchor: start" x="49.932652" y="722.403437" transform="rotate(-0 49.932652 722.403437)">Ukraine, 4 участников, 18.9% правок</text>
    </g>
    <g id="patch_47">
     <path d="M 21.932652 737.081563 
L 41.932652 737.081563 
L 41.932652 730.081563 
L 21.932652 730.081563 
z
" style="fill: #00b21a; stroke: #00b21a; stroke-linejoin: miter"/>
    </g>
    <g id="text_15">
     <text style="font-size: 10px; font-family: 'DejaVu Sans', 'Arial', 'Helvetica', sans-serif; text-anchor: start" x="49.932652" y="737.081563" transform="rotate(-0 49.932652 737.081563)">Kazakhstan, 14 участников, 7.3% правок</text>
    </g>
    <g id="patch_48">
     <path d="M 21.932652 751.759688 
L 41.932652 751.759688 
L 41.932652 744.759688 
L 21.932652 744.759688 
z
" style="fill: #cc0066; stroke: #cc0066; stroke-linejoin: miter"/>
    </g>
    <g id="text_16">
     <text style="font-size: 10px; font-family: 'DejaVu Sans', 'Arial', 'Helvetica', sans-serif; text-anchor: start" x="49.932652" y="751.759688" transform="rotate(-0 49.932652 751.759688)">Cuba, 1 участников, 0.3% правок</text>
    </g>
    <g id="patch_49">
     <path d="M 21.932652 766.437812 
L 41.932652 766.437812 
L 41.932652 759.437812 
L 21.932652 759.437812 
z
" style="fill: #cc6600; stroke: #cc6600; stroke-linejoin: miter"/>
    </g>
    <g id="text_17">
     <text style="font-size: 10px; font-family: 'DejaVu Sans', 'Arial', 'Helvetica', sans-serif; text-anchor: start" x="49.932652" y="766.437812" transform="rotate(-0 49.932652 766.437812)">Hong Kong, 1 участников, 0.3% правок</text>
    </g>
   </g>
   <g id="text_18">
    <text style="font-weight: 700; font-size: 12px; font-family: 'DejaVu Sans', 'Arial', 'Helvetica', sans-serif; text-anchor: middle; fill: #ffffff" x="421.544081" y="407.74875" transform="rotate(-0 421.544081 407.74875)">astrosander</text>
   </g>
   <g id="text_19">
    <text style="font-weight: 500; font-size: 11px; font-family: 'DejaVu Sans', 'Arial', 'Helvetica', sans-serif; text-anchor: start; fill: #0a0a0a" x="796.787341" y="407.472812" transform="rotate(-0 796.787341 407.472812)">emixter</text>
   </g>
   <g id="text_20">
    <text style="font-weight: 500; font-size: 11px; font-family: 'DejaVu Sans', 'Arial', 'Helvetica', sans-serif; text-anchor: start; fill: #0a0a0a" x="675.740672" y="137.361728" transform="rotate(-0 675.740672 137.361728)">Picksell Prod</text>
   </g>
   <g id="text_21">
    <text style="font-weight: 500; font-size: 11px; font-family: 'DejaVu Sans', 'Arial', 'Helvetica', sans-serif; text-anchor: start; fill: #0a0a0a" x="675.20823" y="677.02927" transform="rotate(-0 675.20823 677.02927)">Valentao</text>
   </g>
   <g id="text_22">
    <text style="font-weight: 500; font-size: 11px; font-family: 'DejaVu Sans', 'Arial', 'Helvetica', sans-serif; text-anchor: end; fill: #0a0a0a" x="167.65424" y="137.681259" transform="rotate(-0 167.65424 137.681259)">Ismail</text>
   </g>
   <g id="text_23">
    <text style="font-weight: 500; font-size: 11px; font-family: 'DejaVu Sans', 'Arial', 'Helvetica', sans-serif; text-anchor: start; fill: #0a0a0a" x="777.771279" y="224.036245" transform="rotate(-0 777.771279 224.036245)">igor</text>
   </g>
   <g id="text_24">
    <text style="font-weight: 500; font-size: 11px; font-family: 'DejaVu Sans', 'Arial', 'Helvetica', sans-serif; text-anchor: start; fill: #0a0a0a" x="484.707913" y="44.221461" transform="rotate(-0 484.707913 44.221461)">Clerk Maxwell</text>
   </g>
   <g id="text_25">
    <text style="font-weight: 500; font-size: 11px; font-family: 'DejaVu Sans', 'Arial', 'Helvetica', sans-serif; text-anchor: start; fill: #0a0a0a" x="600.543517" y="86.268485" transform="rotate(-0 600.543517 86.268485)">Sasha</text>
   </g>
   <g id="text_26">
    <text style="font-weight: 500; font-size: 11px; font-family: 'DejaVu Sans', 'Arial', 'Helvetica', sans-serif; text-anchor: end; fill: #0a0a0a" x="69.525767" y="225.834749" transform="rotate(-0 69.525767 225.834749)">AZ_21</text>
   </g>
   <g id="text_27">
    <text style="font-weight: 500; font-size: 11px; font-family: 'DejaVu Sans', 'Arial', 'Helvetica', sans-serif; text-anchor: end; fill: #0a0a0a" x="64.218786" y="349.602006" transform="rotate(-0 64.218786 349.602006)">Nurbaqyt</text>
   </g>
   <g id="text_28">
    <text style="font-weight: 500; font-size: 11px; font-family: 'DejaVu Sans', 'Arial', 'Helvetica', sans-serif; text-anchor: end; fill: #0a0a0a" x="243.528963" y="726.940106" transform="rotate(-0 243.528963 726.940106)">Pandemotor</text>
   </g>
   <g id="text_29">
    <text style="font-weight: 500; font-size: 11px; font-family: 'DejaVu Sans', 'Arial', 'Helvetica', sans-serif; text-anchor: start; fill: #0a0a0a" x="463.840565" y="772.315896" transform="rotate(-0 463.840565 772.315896)">jzmicer</text>
   </g>
   <g id="text_30">
    <text style="font-weight: 500; font-size: 11px; font-family: 'DejaVu Sans', 'Arial', 'Helvetica', sans-serif; text-anchor: start; fill: #0a0a0a" x="599.945874" y="727.622476" transform="rotate(-0 599.945874 727.622476)">crico</text>
   </g>
   <g id="text_31">
    <text style="font-weight: 500; font-size: 11px; font-family: 'DejaVu Sans', 'Arial', 'Helvetica', sans-serif; text-anchor: start; fill: #0a0a0a" x="772.925029" y="588.486255" transform="rotate(-0 772.925029 588.486255)">owais</text>
   </g>
   <g id="text_32">
    <text style="font-weight: 500; font-size: 11px; font-family: 'DejaVu Sans', 'Arial', 'Helvetica', sans-serif; text-anchor: end; fill: #0a0a0a" x="67.916563" y="516.803875" transform="rotate(-0 67.916563 516.803875)">РожновМВ</text>
   </g>
  </g>
 </g>
 <defs>
  <clipPath id="p7854916e39">
   <rect x="12.932652" y="31.3575" width="817.222857" height="746.16"/>
  </clipPath>
 </defs>
</svg>
