<svg width="1232" height="973" xmlns="http://www.w3.org/2000/svg" xmlns:xlink="http://www.w3.org/1999/xlink" xml:space="preserve" overflow="hidden"><g transform="translate(-1618 -649)"><path d="M1716.5 1135.5C1716.5 868.194 1933.19 651.5 2200.5 651.5 2467.81 651.5 2684.5 868.194 2684.5 1135.5 2684.5 1402.81 2467.81 1619.5 2200.5 1619.5 1933.19 1619.5 1716.5 1402.81 1716.5 1135.5Z" stroke="#000000" stroke-width="4.58333" stroke-miterlimit="8" fill="#FFF2CC" fill-rule="evenodd" fill-opacity="0.321569"/><path d="M1618.5 1135.5 2847.05 1135.5" stroke="#000000" stroke-width="4.58333" stroke-miterlimit="8" fill="none" fill-rule="evenodd"/><path d="M2203 1133.14 2345.64 1284.13 2340.64 1288.85 2198 1137.86ZM2356.65 1267.42 2371.46 1316.48 2323.33 1298.89Z"/><path d="M2200.5 1132.06 2401.32 1132.06 2401.32 1138.94 2200.5 1138.94ZM2396.74 1112.58 2442.57 1135.5 2396.73 1158.42Z"/><path d="M2270.92 1137.89C2271.96 1156.41 2263.16 1174.03 2247.81 1184.19" stroke="#000000" stroke-width="4.58333" stroke-miterlimit="8" fill="none" fill-rule="evenodd"/><path d="M2301.94 1167.01C2300.3 1167.01 2298.76 1167.75 2297.35 1169.21 2295.94 1170.68 2294.8 1172.67 2293.95 1175.18 2293.1 1177.68 2292.68 1180.25 2292.68 1182.88 2292.68 1184.69 2292.95 1186.03 2293.48 1186.91 2294.02 1187.79 2294.83 1188.23 2295.9 1188.23 2297.44 1188.23 2299.02 1187.32 2300.65 1185.51 2302.28 1183.71 2303.8 1181.19 2305.19 1177.97 2305.5 1176.11 2305.65 1174.46 2305.65 1173.03 2305.65 1170.99 2305.35 1169.47 2304.75 1168.49 2304.15 1167.5 2303.21 1167.01 2301.94 1167.01ZM2302.13 1164.89C2304.14 1164.89 2305.71 1165.52 2306.84 1166.77 2307.98 1168.02 2308.61 1169.86 2308.74 1172.28L2308.98 1172.25 2312.5 1165.32 2317.14 1165.32 2316.87 1166.69C2314.65 1169.7 2312.04 1173.39 2309.03 1177.78 2308.59 1181.2 2308.36 1183.62 2308.36 1185.03 2308.36 1186.21 2308.5 1187.06 2308.76 1187.57 2309.03 1188.08 2309.48 1188.33 2310.11 1188.33 2310.61 1188.33 2311.18 1188.12 2311.81 1187.7 2312.45 1187.28 2313.13 1186.63 2313.87 1185.76L2315.42 1187.21C2313.92 1188.82 2312.61 1189.92 2311.5 1190.52 2310.39 1191.12 2309.25 1191.42 2308.07 1191.42 2305.68 1191.42 2304.49 1189.69 2304.49 1186.21 2304.49 1185.44 2304.55 1184.59 2304.66 1183.66L2304.39 1183.66C2302.54 1186.42 2300.8 1188.4 2299.15 1189.61 2297.5 1190.82 2295.74 1191.42 2293.86 1191.42 2292.55 1191.42 2291.45 1191.05 2290.56 1190.3 2289.66 1189.54 2289 1188.55 2288.57 1187.3 2288.14 1186.06 2287.92 1184.7 2287.92 1183.23 2287.92 1180.03 2288.53 1176.99 2289.75 1174.11 2290.97 1171.24 2292.66 1168.99 2294.83 1167.35 2296.99 1165.71 2299.43 1164.89 2302.13 1164.89Z" fill-rule="evenodd"/><text fill="#000000" fill-opacity="0" font-family="Arial,Arial_MSFontService,sans-serif" font-size="26.5332" x="2287.92" y="1188.11">­ЮЏ╝</text><path d="M2438.48 1060.03C2437.42 1060.03 2436.37 1060.39 2435.34 1061.11 2434.31 1061.83 2433.18 1062.98 2431.95 1064.56 2430.72 1066.14 2429.76 1067.71 2429.07 1069.25 2428.38 1070.79 2427.84 1072.56 2427.45 1074.56L2427.2 1075.87C2426.99 1076.98 2426.86 1077.82 2426.81 1078.4 2426.75 1078.99 2426.73 1079.56 2426.73 1080.12 2426.73 1081.75 2427.08 1082.93 2427.78 1083.67 2428.47 1084.41 2429.68 1084.78 2431.38 1084.78 2432.45 1084.78 2433.43 1084.57 2434.32 1084.15 2435.22 1083.74 2436.07 1083.13 2436.87 1082.34 2437.67 1081.55 2438.4 1080.59 2439.04 1079.47 2439.69 1078.34 2440.26 1077.03 2440.78 1075.54 2441.29 1074.05 2441.67 1072.52 2441.93 1070.95 2442.19 1069.38 2442.32 1067.9 2442.32 1066.53 2442.32 1064.34 2442.01 1062.71 2441.4 1061.64 2440.79 1060.56 2439.81 1060.03 2438.48 1060.03ZM2425.32 1056.34C2426.61 1056.34 2427.64 1056.77 2428.4 1057.62 2429.16 1058.48 2429.54 1059.61 2429.54 1061.03 2429.54 1062.19 2429.3 1063.42 2428.82 1064.72L2429.2 1064.84C2433.05 1059.19 2436.88 1056.37 2440.7 1056.37 2442.97 1056.37 2444.73 1057.24 2445.99 1058.97 2447.25 1060.69 2447.88 1063.13 2447.88 1066.28 2447.88 1069.72 2447.19 1073.1 2445.81 1076.42 2444.42 1079.74 2442.5 1082.38 2440.04 1084.33 2437.58 1086.27 2434.83 1087.25 2431.79 1087.25 2429.02 1087.25 2426.72 1086.64 2424.88 1085.43L2423.45 1092.28C2423.13 1093.76 2422.98 1094.98 2422.98 1095.93 2422.98 1096.85 2423.21 1097.5 2423.68 1097.89 2424.15 1098.27 2425.06 1098.53 2426.42 1098.65L2426.17 1100.18 2416.51 1100.18 2424.04 1067.03C2424.48 1065.11 2424.7 1063.54 2424.7 1062.31 2424.7 1061.48 2424.56 1060.87 2424.29 1060.5 2424.02 1060.12 2423.59 1059.93 2423.01 1059.93 2422.36 1059.93 2421.68 1060.2 2420.96 1060.73 2420.24 1061.26 2419.26 1062.23 2418.01 1063.62L2416.23 1061.87C2418.1 1059.91 2419.69 1058.5 2420.99 1057.64 2422.3 1056.77 2423.74 1056.34 2425.32 1056.34Z" fill-rule="evenodd"/><text fill="#000000" fill-opacity="0" font-family="Arial,Arial_MSFontService,sans-serif" font-size="43.8438" x="2416.23" y="1094.7">­ЮЉЮ</text><path d="M2443.34 1036.37 2451.19 1043.15 2451.19 1044.97 2443.34 1051.75 2441.69 1049.87 2446.69 1045.53 2427.62 1045.53 2427.62 1042.59 2446.69 1042.59 2441.69 1038.25Z" fill-rule="evenodd"/><text fill="#000000" fill-opacity="0" font-family="Arial,Arial_MSFontService,sans-serif" font-size="15.375" x="2427.62" y="1049.83">нд</text><path d="M2462.96 1070.27 2464.36 1070.27C2464.33 1071.12 2464.31 1071.87 2464.29 1072.53 2464.28 1073.2 2464.26 1073.85 2464.26 1074.47 2464.25 1075.1 2464.25 1075.72 2464.25 1076.33L2464.25 1093.77C2464.25 1094.25 2464.26 1094.66 2464.29 1095 2464.32 1095.35 2464.37 1095.64 2464.44 1095.87 2464.51 1096.11 2464.6 1096.31 2464.72 1096.48 2464.83 1096.65 2464.96 1096.8 2465.12 1096.92 2465.3 1097.1 2465.55 1097.24 2465.85 1097.34 2466.16 1097.44 2466.55 1097.53 2467.02 1097.59 2467.5 1097.66 2468.07 1097.72 2468.73 1097.76 2469.4 1097.79 2470.2 1097.82 2471.13 1097.84L2471.13 1099.83 2452.93 1099.83 2452.93 1097.84C2453.83 1097.81 2454.6 1097.77 2455.23 1097.73 2455.85 1097.69 2456.39 1097.64 2456.83 1097.57 2457.28 1097.5 2457.63 1097.43 2457.9 1097.34 2458.17 1097.26 2458.4 1097.15 2458.6 1097.03 2458.81 1096.89 2459 1096.75 2459.15 1096.58 2459.3 1096.42 2459.43 1096.22 2459.52 1095.98 2459.61 1095.73 2459.68 1095.43 2459.74 1095.08 2459.79 1094.73 2459.82 1094.29 2459.82 1093.77L2459.82 1077.32C2459.82 1076.72 2459.7 1076.3 2459.47 1076.06 2459.24 1075.81 2458.91 1075.69 2458.49 1075.69 2458.01 1075.69 2457.31 1075.93 2456.37 1076.42 2455.44 1076.91 2454.23 1077.64 2452.75 1078.6 2452.55 1078.25 2452.37 1077.9 2452.2 1077.55 2452.03 1077.2 2451.85 1076.84 2451.67 1076.47 2453.57 1075.43 2455.44 1074.39 2457.3 1073.36 2459.16 1072.33 2461.05 1071.3 2462.96 1070.27Z" fill-rule="evenodd"/><text fill="#000000" fill-opacity="0" font-family="Arial,Arial_MSFontService,sans-serif" font-size="29.5586" x="2451.67" y="1096.14">1</text><path d="M2294.12 1314.24C2293.05 1314.24 2292.01 1314.6 2290.98 1315.32 2289.95 1316.04 2288.81 1317.19 2287.59 1318.77 2286.36 1320.36 2285.4 1321.92 2284.71 1323.46 2284.02 1325 2283.48 1326.77 2283.09 1328.77L2282.84 1330.09C2282.63 1331.19 2282.5 1332.03 2282.45 1332.62 2282.39 1333.2 2282.37 1333.77 2282.37 1334.34 2282.37 1335.96 2282.72 1337.14 2283.41 1337.88 2284.11 1338.62 2285.31 1338.99 2287.02 1338.99 2288.09 1338.99 2289.06 1338.78 2289.96 1338.37 2290.86 1337.95 2291.71 1337.35 2292.51 1336.55 2293.31 1335.76 2294.03 1334.8 2294.68 1333.68 2295.33 1332.55 2295.9 1331.25 2296.41 1329.76 2296.92 1328.27 2297.31 1326.74 2297.57 1325.16 2297.83 1323.59 2297.96 1322.12 2297.96 1320.74 2297.96 1318.55 2297.65 1316.92 2297.04 1315.85 2296.42 1314.78 2295.45 1314.24 2294.12 1314.24ZM2280.96 1310.55C2282.25 1310.55 2283.28 1310.98 2284.04 1311.84 2284.8 1312.69 2285.18 1313.82 2285.18 1315.24 2285.18 1316.41 2284.94 1317.64 2284.46 1318.93L2284.84 1319.05C2288.69 1313.41 2292.52 1310.59 2296.34 1310.59 2298.61 1310.59 2300.37 1311.45 2301.63 1313.18 2302.89 1314.91 2303.52 1317.35 2303.52 1320.49 2303.52 1323.93 2302.83 1327.31 2301.45 1330.63 2300.06 1333.95 2298.14 1336.59 2295.68 1338.54 2293.22 1340.49 2290.47 1341.46 2287.43 1341.46 2284.66 1341.46 2282.36 1340.86 2280.52 1339.65L2279.09 1346.49C2278.77 1347.97 2278.62 1349.19 2278.62 1350.15 2278.62 1351.06 2278.85 1351.72 2279.32 1352.1 2279.79 1352.49 2280.7 1352.74 2282.05 1352.87L2281.8 1354.4 2272.15 1354.4 2279.68 1321.24C2280.12 1319.32 2280.34 1317.75 2280.34 1316.52 2280.34 1315.69 2280.2 1315.09 2279.93 1314.71 2279.66 1314.34 2279.23 1314.15 2278.65 1314.15 2278 1314.15 2277.32 1314.41 2276.6 1314.94 2275.88 1315.48 2274.9 1316.44 2273.65 1317.84L2271.87 1316.09C2273.74 1314.13 2275.33 1312.72 2276.63 1311.85 2277.93 1310.99 2279.38 1310.55 2280.96 1310.55Z" fill-rule="evenodd"/><text fill="#000000" fill-opacity="0" font-family="Arial,Arial_MSFontService,sans-serif" font-size="43.8438" x="2271.87" y="1348.92">­ЮЉЮ</text><path d="M2298.98 1290.59 2306.83 1297.37 2306.83 1299.18 2298.98 1305.96 2297.33 1304.09 2302.33 1299.74 2283.26 1299.74 2283.26 1296.8 2302.33 1296.8 2297.33 1292.46Z" fill-rule="evenodd"/><text fill="#000000" fill-opacity="0" font-family="Arial,Arial_MSFontService,sans-serif" font-size="15.375" x="2283.26" y="1304.04">нд</text><path d="M2318.3 1324.33C2319.89 1324.33 2321.25 1324.51 2322.37 1324.87 2323.5 1325.23 2324.41 1325.71 2325.11 1326.32 2325.82 1326.93 2326.33 1327.67 2326.64 1328.53 2326.95 1329.38 2327.11 1330.31 2327.11 1331.3 2327.11 1331.9 2327.07 1332.45 2326.99 1332.97 2326.9 1333.48 2326.76 1333.98 2326.55 1334.48 2326.34 1334.98 2326.07 1335.48 2325.73 1335.98 2325.4 1336.49 2324.98 1337.03 2324.47 1337.59 2324.09 1338.08 2323.59 1338.65 2322.98 1339.29 2322.37 1339.93 2321.7 1340.62 2320.97 1341.35 2320.25 1342.09 2319.48 1342.85 2318.69 1343.65 2317.89 1344.45 2317.12 1345.23 2316.37 1346.01 2315.62 1346.79 2314.93 1347.55 2314.31 1348.29 2313.68 1349.02 2313.17 1349.69 2312.77 1350.3L2321.26 1350.3C2321.98 1350.3 2322.55 1350.28 2322.98 1350.22 2323.41 1350.17 2323.76 1350.05 2324.05 1349.87 2324.33 1349.69 2324.57 1349.41 2324.77 1349.03 2324.97 1348.66 2325.2 1348.14 2325.46 1347.48L2327.59 1347.48C2327.52 1348.57 2327.44 1349.66 2327.38 1350.76 2327.31 1351.87 2327.23 1352.96 2327.16 1354.05L2307.72 1354.05 2307.72 1352.85C2308.09 1352.03 2308.51 1351.21 2309 1350.41 2309.49 1349.6 2310.04 1348.79 2310.66 1347.96 2311.27 1347.14 2311.96 1346.29 2312.75 1345.41 2313.53 1344.53 2314.39 1343.61 2315.34 1342.66 2316.78 1341.22 2317.95 1340 2318.85 1338.98 2319.75 1337.96 2320.46 1337.06 2320.98 1336.26 2321.5 1335.46 2321.86 1334.73 2322.05 1334.06 2322.24 1333.38 2322.34 1332.66 2322.34 1331.9 2322.34 1331.12 2322.23 1330.4 2322.01 1329.74 2321.78 1329.08 2321.47 1328.53 2321.05 1328.07 2320.64 1327.61 2320.12 1327.25 2319.48 1326.99 2318.85 1326.73 2318.12 1326.6 2317.29 1326.6 2315.87 1326.6 2314.67 1326.98 2313.71 1327.76 2312.75 1328.53 2312 1329.65 2311.46 1331.12L2308.45 1331.12 2308.45 1326.64C2310.41 1325.83 2312.21 1325.24 2313.86 1324.88 2315.5 1324.51 2316.98 1324.33 2318.3 1324.33Z" fill-rule="evenodd"/><text fill="#000000" fill-opacity="0" font-family="Arial,Arial_MSFontService,sans-serif" font-size="29.7192" x="2307.72" y="1350.33">2</text></g></svg>