<svg width="624" height="455" xmlns="http://www.w3.org/2000/svg" xmlns:xlink="http://www.w3.org/1999/xlink" xml:space="preserve" overflow="hidden"><g transform="translate(-2477 -943)"><path d="M0 0 66.4583 0.000360892" stroke="#000000" stroke-width="14.8958" stroke-miterlimit="8" fill="none" fill-rule="evenodd" transform="matrix(-1 0 0 1 2615.96 1196.5)"/><path d="M0 0 193.264 0.000360892" stroke="#000000" stroke-width="6.875" stroke-miterlimit="8" fill="none" fill-rule="evenodd" transform="matrix(-1 0 0 1 2673.76 1219.5)"/><path d="M2580.5 1369.5 2990.87 1369.5" stroke="#000000" stroke-width="6.875" stroke-miterlimit="8" fill="none" fill-rule="evenodd"/><path d="M0 0 0.000360892 144.262" stroke="#000000" stroke-width="6.875" stroke-miterlimit="8" fill="none" fill-rule="evenodd" transform="matrix(1 0 0 -1 2582.5 1192.76)"/><path d="M2948.7 1152.7C2950.01 1152.7 2951.05 1153.13 2951.81 1153.99 2952.57 1154.86 2952.95 1155.99 2952.95 1157.39 2952.95 1158.43 2952.75 1159.5 2952.36 1160.6L2952.76 1160.76C2954.8 1157.99 2956.77 1155.96 2958.65 1154.67 2960.54 1153.37 2962.45 1152.73 2964.39 1152.73 2965.91 1152.73 2967.18 1152.84 2968.2 1153.07L2966.7 1160.07 2963.48 1160.07C2963.36 1159.2 2963.18 1158.52 2962.95 1158.04 2962.72 1157.56 2962.45 1157.23 2962.14 1157.04 2961.83 1156.85 2961.43 1156.76 2960.95 1156.76 2960.2 1156.76 2959.38 1157.08 2958.5 1157.73 2957.61 1158.37 2956.62 1159.39 2955.51 1160.76 2954.41 1162.14 2953.53 1163.46 2952.87 1164.73 2952.22 1166 2951.67 1167.61 2951.23 1169.57L2948.26 1183.1 2942.86 1183.1 2947.39 1163.29C2947.68 1162.04 2947.87 1161.07 2947.95 1160.39 2948.03 1159.7 2948.08 1159.12 2948.08 1158.67 2948.08 1157.83 2947.94 1157.23 2947.67 1156.85 2947.4 1156.48 2946.97 1156.29 2946.39 1156.29 2945.74 1156.29 2945.06 1156.56 2944.34 1157.09 2943.62 1157.62 2942.64 1158.58 2941.39 1159.98L2939.61 1158.23C2941.52 1156.23 2943.13 1154.81 2944.42 1153.96 2945.71 1153.12 2947.14 1152.7 2948.7 1152.7Z" fill-rule="evenodd"/><text fill="#000000" fill-opacity="0" font-family="Arial,Arial_MSFontService,sans-serif" font-size="30.4062" x="2939.61" y="1179.3">𝑟</text><path d="M0 0 66.4583 0.000360892" stroke="#000000" stroke-width="14.8958" stroke-miterlimit="8" fill="none" fill-rule="evenodd" transform="matrix(1 -1.22465e-16 -1.22465e-16 -1 2960.5 1218.5)"/><path d="M0 0 193.264 0.000360892" stroke="#000000" stroke-width="6.875" stroke-miterlimit="8" fill="none" fill-rule="evenodd" transform="matrix(1 -1.22465e-16 -1.22465e-16 -1 2903.5 1196.5)"/><path d="M0 0 66.4583 0.000360892" stroke="#000000" stroke-width="14.8958" stroke-miterlimit="8" fill="none" fill-rule="evenodd" transform="matrix(-6.12323e-17 -1 -1 6.12323e-17 2908.5 1081.96)"/><path d="M0 0 193.264 0.000360892" stroke="#000000" stroke-width="6.875" stroke-miterlimit="8" fill="none" fill-rule="evenodd" transform="matrix(-6.12323e-17 -1 -1 6.12323e-17 2886.5 1139.76)"/><path d="M2580.5 1049.5 2883.78 1049.5" stroke="#000000" stroke-width="6.875" stroke-miterlimit="8" fill="none" fill-rule="evenodd"/><path d="M2917.5 1052.5 2993.55 1052.5" stroke="#000000" stroke-width="6.875" stroke-miterlimit="8" fill="none" fill-rule="evenodd"/><path d="M0 0 0.000360892 144.262" stroke="#000000" stroke-width="6.875" stroke-miterlimit="8" fill="none" fill-rule="evenodd" transform="matrix(1 0 0 -1 2990.5 1192.76)"/><path d="M2925.46 1087.08C2926.77 1087.08 2927.81 1087.51 2928.57 1088.37 2929.33 1089.24 2929.71 1090.37 2929.71 1091.77 2929.71 1092.81 2929.51 1093.88 2929.12 1094.98L2929.52 1095.14C2931.57 1092.37 2933.53 1090.34 2935.42 1089.05 2937.3 1087.76 2939.21 1087.11 2941.15 1087.11 2942.67 1087.11 2943.94 1087.22 2944.96 1087.45L2943.46 1094.45 2940.24 1094.45C2940.12 1093.58 2939.94 1092.9 2939.71 1092.42 2939.48 1091.94 2939.21 1091.61 2938.9 1091.42 2938.59 1091.23 2938.19 1091.14 2937.71 1091.14 2936.96 1091.14 2936.14 1091.46 2935.26 1092.11 2934.37 1092.76 2933.38 1093.77 2932.27 1095.14 2931.17 1096.52 2930.29 1097.84 2929.63 1099.11 2928.98 1100.38 2928.43 1101.99 2927.99 1103.95L2925.02 1117.48 2919.62 1117.48 2924.15 1097.67C2924.44 1096.42 2924.63 1095.45 2924.71 1094.77 2924.8 1094.08 2924.84 1093.51 2924.84 1093.05 2924.84 1092.21 2924.7 1091.61 2924.43 1091.23 2924.16 1090.86 2923.73 1090.67 2923.15 1090.67 2922.5 1090.67 2921.82 1090.94 2921.1 1091.47 2920.38 1092 2919.4 1092.96 2918.15 1094.36L2916.37 1092.61C2918.28 1090.61 2919.89 1089.19 2921.18 1088.34 2922.47 1087.5 2923.9 1087.08 2925.46 1087.08Z" fill-rule="evenodd"/><text fill="#000000" fill-opacity="0" font-family="Arial,Arial_MSFontService,sans-serif" font-size="30.4062" x="2916.37" y="1113.68">𝑟</text><path d="M2860.51 1092.55C2863.51 1092.55 2866.66 1093.05 2869.95 1094.05L2868.76 1099.74 2865.83 1099.74C2865.45 1096.59 2863.61 1095.02 2860.29 1095.02 2858.4 1095.02 2856.85 1095.56 2855.64 1096.63 2854.43 1097.7 2853.83 1099.18 2853.83 1101.05 2853.83 1102.41 2854.36 1103.49 2855.43 1104.3 2856.51 1105.11 2857.98 1105.52 2859.86 1105.52L2864.29 1105.52 2863.58 1108.74 2860.45 1108.74C2858.87 1108.74 2857.56 1108.84 2856.54 1109.05 2855.52 1109.26 2854.56 1109.6 2853.67 1110.07 2852.77 1110.54 2852.07 1111.04 2851.56 1111.57 2851.05 1112.1 2850.67 1112.7 2850.42 1113.36 2850.17 1114.03 2850.04 1114.79 2850.04 1115.65 2850.04 1117.1 2850.54 1118.22 2851.54 1118.99 2852.54 1119.76 2853.98 1120.15 2855.86 1120.15 2857.5 1120.15 2859.09 1119.91 2860.62 1119.44 2862.15 1118.97 2863.89 1118.08 2865.83 1116.77L2867.36 1119.21C2865.19 1120.71 2863.06 1121.79 2860.97 1122.46 2858.87 1123.12 2856.68 1123.46 2854.39 1123.46 2852.3 1123.46 2850.52 1123.11 2849.03 1122.41 2847.54 1121.71 2846.42 1120.79 2845.68 1119.63 2844.95 1118.47 2844.58 1117.2 2844.58 1115.8 2844.58 1113.66 2845.41 1111.82 2847.08 1110.3 2848.74 1108.78 2851.14 1107.69 2854.26 1107.02L2854.33 1106.71C2850.7 1105.5 2848.89 1103.42 2848.89 1100.46 2848.89 1099.12 2849.3 1097.86 2850.14 1096.66 2850.97 1095.46 2852.28 1094.48 2854.06 1093.71 2855.84 1092.94 2857.99 1092.55 2860.51 1092.55Z" fill-rule="evenodd"/><text fill="#000000" fill-opacity="0" font-family="Arial,Arial_MSFontService,sans-serif" font-size="30.9062" x="2844.58" y="1119.59">𝜀</text><path d="M2647.04 1152.81C2650.04 1152.81 2653.18 1153.31 2656.48 1154.31L2655.29 1159.99 2652.35 1159.99C2651.98 1156.85 2650.13 1155.28 2646.82 1155.28 2644.92 1155.28 2643.37 1155.81 2642.16 1156.88 2640.95 1157.96 2640.35 1159.43 2640.35 1161.31 2640.35 1162.66 2640.89 1163.74 2641.96 1164.56 2643.03 1165.37 2644.51 1165.78 2646.38 1165.78L2650.82 1165.78 2650.1 1168.99 2646.98 1168.99C2645.39 1168.99 2644.09 1169.1 2643.07 1169.31 2642.05 1169.51 2641.09 1169.85 2640.19 1170.32 2639.3 1170.79 2638.6 1171.29 2638.08 1171.82 2637.57 1172.35 2637.19 1172.95 2636.94 1173.62 2636.69 1174.29 2636.57 1175.05 2636.57 1175.9 2636.57 1177.36 2637.07 1178.47 2638.07 1179.24 2639.07 1180.01 2640.51 1180.4 2642.38 1180.4 2644.03 1180.4 2645.62 1180.17 2647.15 1179.7 2648.68 1179.23 2650.41 1178.34 2652.35 1177.03L2653.88 1179.46C2651.72 1180.96 2649.58 1182.05 2647.49 1182.71 2645.4 1183.38 2643.2 1183.71 2640.91 1183.71 2638.83 1183.71 2637.04 1183.36 2635.55 1182.67 2634.06 1181.97 2632.95 1181.04 2632.21 1179.88 2631.47 1178.73 2631.1 1177.45 2631.1 1176.06 2631.1 1173.91 2631.93 1172.08 2633.6 1170.56 2635.27 1169.04 2637.66 1167.94 2640.79 1167.28L2640.85 1166.96C2637.23 1165.75 2635.41 1163.67 2635.41 1160.71 2635.41 1159.38 2635.83 1158.11 2636.66 1156.92 2637.5 1155.72 2638.8 1154.73 2640.58 1153.96 2642.37 1153.19 2644.52 1152.81 2647.04 1152.81Z" fill-rule="evenodd"/><text fill="#000000" fill-opacity="0" font-family="Arial,Arial_MSFontService,sans-serif" font-size="30.9062" x="2631.1" y="1179.85">𝜀</text><path d="M2946.06 1230.75C2949.06 1230.75 2952.21 1231.25 2955.5 1232.25L2954.31 1237.94 2951.38 1237.94C2951 1234.79 2949.16 1233.22 2945.85 1233.22 2943.95 1233.22 2942.4 1233.76 2941.19 1234.83 2939.98 1235.9 2939.38 1237.38 2939.38 1239.25 2939.38 1240.61 2939.91 1241.69 2940.99 1242.5 2942.06 1243.31 2943.53 1243.72 2945.41 1243.72L2949.85 1243.72 2949.13 1246.94 2946 1246.94C2944.42 1246.94 2943.12 1247.04 2942.1 1247.25 2941.07 1247.46 2940.12 1247.8 2939.22 1248.27 2938.32 1248.74 2937.62 1249.24 2937.11 1249.77 2936.6 1250.3 2936.22 1250.9 2935.97 1251.56 2935.72 1252.23 2935.6 1252.99 2935.6 1253.85 2935.6 1255.3 2936.1 1256.42 2937.1 1257.19 2938.1 1257.96 2939.53 1258.35 2941.41 1258.35 2943.05 1258.35 2944.64 1258.11 2946.17 1257.64 2947.7 1257.17 2949.44 1256.28 2951.38 1254.97L2952.91 1257.41C2950.74 1258.91 2948.61 1259.99 2946.52 1260.66 2944.42 1261.33 2942.23 1261.66 2939.94 1261.66 2937.86 1261.66 2936.07 1261.31 2934.58 1260.61 2933.09 1259.91 2931.98 1258.99 2931.24 1257.83 2930.5 1256.67 2930.13 1255.4 2930.13 1254 2930.13 1251.86 2930.96 1250.02 2932.63 1248.5 2934.29 1246.98 2936.69 1245.89 2939.81 1245.22L2939.88 1244.91C2936.25 1243.7 2934.44 1241.62 2934.44 1238.66 2934.44 1237.33 2934.86 1236.06 2935.69 1234.86 2936.52 1233.66 2937.83 1232.68 2939.61 1231.91 2941.39 1231.14 2943.54 1230.75 2946.06 1230.75Z" fill-rule="evenodd"/><text fill="#000000" fill-opacity="0" font-family="Arial,Arial_MSFontService,sans-serif" font-size="30.9062" x="2930.13" y="1257.8">𝜀</text><path d="M0 0 0.000360892 151.995" stroke="#000000" stroke-width="6.875" stroke-miterlimit="8" fill="none" fill-rule="evenodd" transform="matrix(1 0 0 -1 2580.5 1373.49)"/><path d="M0 0 0.000360892 144.262" stroke="#000000" stroke-width="6.875" stroke-miterlimit="8" fill="none" fill-rule="evenodd" transform="matrix(1 0 0 -1 2990.5 1370.76)"/><path d="M2612.61 1231.28C2613.93 1231.28 2614.96 1231.71 2615.72 1232.57 2616.48 1233.44 2616.86 1234.57 2616.86 1235.96 2616.86 1237.01 2616.67 1238.08 2616.27 1239.18L2616.68 1239.34C2618.72 1236.57 2620.68 1234.54 2622.57 1233.25 2624.45 1231.95 2626.36 1231.31 2628.3 1231.31 2629.82 1231.31 2631.09 1231.42 2632.11 1231.65L2630.61 1238.65 2627.4 1238.65C2627.27 1237.78 2627.09 1237.1 2626.86 1236.62 2626.64 1236.14 2626.36 1235.81 2626.05 1235.62 2625.74 1235.43 2625.34 1235.34 2624.86 1235.34 2624.11 1235.34 2623.3 1235.66 2622.41 1236.31 2621.53 1236.95 2620.53 1237.96 2619.43 1239.34 2618.32 1240.71 2617.44 1242.04 2616.79 1243.31 2616.13 1244.58 2615.58 1246.19 2615.15 1248.15L2612.18 1261.68 2606.77 1261.68 2611.3 1241.87C2611.59 1240.62 2611.78 1239.65 2611.86 1238.96 2611.95 1238.28 2611.99 1237.7 2611.99 1237.25 2611.99 1236.41 2611.85 1235.81 2611.58 1235.43 2611.31 1235.06 2610.89 1234.87 2610.3 1234.87 2609.66 1234.87 2608.97 1235.14 2608.26 1235.67 2607.54 1236.2 2606.55 1237.16 2605.3 1238.56L2603.52 1236.81C2605.44 1234.81 2607.04 1233.39 2608.33 1232.54 2609.63 1231.7 2611.05 1231.28 2612.61 1231.28Z" fill-rule="evenodd"/><text fill="#000000" fill-opacity="0" font-family="Arial,Arial_MSFontService,sans-serif" font-size="30.4062" x="2603.52" y="1257.88">𝑟</text><path d="M2758.5 1048.5 2758.5 1171.32" stroke="#000000" stroke-width="6.875" stroke-miterlimit="8" fill="none" fill-rule="evenodd"/><path d="M2758.5 1252.5 2758.5 1373.55" stroke="#000000" stroke-width="6.875" stroke-miterlimit="8" fill="none" fill-rule="evenodd"/><path d="M2717.5 1212C2717.5 1189.63 2735.86 1171.5 2758.5 1171.5 2781.14 1171.5 2799.5 1189.63 2799.5 1212 2799.5 1234.37 2781.14 1252.5 2758.5 1252.5 2735.86 1252.5 2717.5 1234.37 2717.5 1212Z" stroke="#000000" stroke-width="4.58333" stroke-miterlimit="8" fill="none" fill-rule="evenodd"/><path d="M2739.45 1192.55 2753.58 1192.55 2753.58 1194.09C2752.62 1194.25 2751.89 1194.46 2751.39 1194.71 2750.89 1194.96 2750.51 1195.32 2750.26 1195.77 2750.01 1196.23 2749.89 1196.85 2749.89 1197.62 2749.89 1198.33 2749.97 1199.09 2750.14 1199.91 2750.3 1200.74 2750.54 1201.66 2750.86 1202.68L2758.17 1228.18 2767.14 1202.49C2767.26 1202.1 2767.39 1201.68 2767.51 1201.24 2767.64 1200.8 2767.75 1200.38 2767.84 1199.96 2767.94 1199.54 2768 1199.18 2768.03 1198.87 2768.06 1198.55 2768.08 1198.26 2768.08 1197.99 2768.08 1196.74 2767.79 1195.83 2767.22 1195.26 2766.64 1194.69 2765.67 1194.29 2764.29 1194.09L2764.29 1192.55 2777.42 1192.55 2777.42 1194.09C2776.57 1194.29 2775.88 1194.6 2775.36 1194.99 2774.84 1195.39 2774.32 1196.02 2773.81 1196.9 2773.3 1197.77 2772.68 1199.17 2771.95 1201.09L2758.98 1235.71 2754.89 1235.71 2744.36 1200.87C2743.79 1198.97 2743.3 1197.62 2742.89 1196.82 2742.47 1196.02 2742.01 1195.41 2741.51 1195.01 2741.01 1194.6 2740.33 1194.29 2739.45 1194.09Z" fill-rule="evenodd"/><text fill="#000000" fill-opacity="0" font-family="Arial,Arial_MSFontService,sans-serif" font-size="43.1562" x="2739.45" y="1230.32">V</text><path d="M2634.5 1366.06 2675.25 1366.06 2675.25 1372.94 2634.5 1372.94ZM2670.67 1355.75 2698.17 1369.5 2670.67 1383.25Z"/><path d="M2688.69 1297.91 2701.19 1297.91 2700.84 1299.44C2700.05 1299.61 2699.48 1299.79 2699.14 1300 2698.8 1300.21 2698.49 1300.52 2698.22 1300.94 2697.95 1301.36 2697.67 1302.01 2697.37 1302.89 2697.08 1303.78 2696.72 1305.22 2696.28 1307.22L2690.94 1331.47C2690.67 1332.7 2690.49 1333.67 2690.41 1334.39 2690.32 1335.11 2690.28 1335.76 2690.28 1336.35 2690.28 1337.28 2690.51 1337.95 2690.98 1338.33 2691.45 1338.72 2692.24 1338.95 2693.34 1339.03L2693 1340.57 2680.5 1340.57 2680.84 1339.03C2681.63 1338.91 2682.23 1338.71 2682.62 1338.42 2683.02 1338.14 2683.35 1337.75 2683.62 1337.25 2683.89 1336.75 2684.14 1336.14 2684.37 1335.42 2684.6 1334.71 2684.95 1333.32 2685.41 1331.25L2690.72 1307.19C2691.18 1305.11 2691.41 1303.43 2691.41 1302.16 2691.41 1301.18 2691.16 1300.5 2690.67 1300.11 2690.18 1299.73 2689.41 1299.5 2688.34 1299.44Z" fill-rule="evenodd"/><text fill="#000000" fill-opacity="0" font-family="Arial,Arial_MSFontService,sans-serif" font-size="42.6562" x="2680.5" y="1335.23">𝐼</text><path d="M2712.63 1326.16C2711.56 1326.16 2710.66 1326.44 2709.95 1326.99 2709.23 1327.55 2708.66 1328.37 2708.24 1329.45 2707.82 1330.53 2707.52 1331.84 2707.34 1333.4 2707.17 1334.95 2707.08 1336.71 2707.08 1338.69 2707.08 1340.97 2707.19 1342.94 2707.41 1344.6 2707.63 1346.26 2707.98 1347.62 2708.44 1348.69 2708.91 1349.76 2709.49 1350.55 2710.2 1351.06 2710.9 1351.56 2711.74 1351.81 2712.72 1351.81 2713.64 1351.81 2714.44 1351.58 2715.13 1351.1 2715.82 1350.63 2716.39 1349.89 2716.84 1348.89 2717.29 1347.89 2717.63 1346.62 2717.86 1345.08 2718.09 1343.54 2718.21 1341.72 2718.21 1339.63 2718.21 1337.27 2718.08 1335.25 2717.83 1333.55 2717.58 1331.85 2717.22 1330.45 2716.76 1329.36 2716.3 1328.26 2715.73 1327.46 2715.03 1326.94 2714.33 1326.42 2713.53 1326.16 2712.63 1326.16ZM2712.72 1323.93C2714.54 1323.93 2716.1 1324.27 2717.39 1324.95 2718.69 1325.63 2719.74 1326.6 2720.56 1327.87 2721.38 1329.13 2721.98 1330.67 2722.36 1332.49 2722.74 1334.31 2722.94 1336.37 2722.94 1338.66 2722.94 1343.76 2722.03 1347.61 2720.23 1350.22 2718.42 1352.83 2715.81 1354.13 2712.38 1354.13 2708.98 1354.13 2706.46 1352.9 2704.81 1350.44 2703.15 1347.97 2702.33 1344.24 2702.33 1339.24 2702.33 1336.62 2702.58 1334.36 2703.1 1332.45 2703.61 1330.53 2704.33 1328.95 2705.25 1327.68 2706.18 1326.42 2707.28 1325.48 2708.55 1324.86 2709.82 1324.24 2711.21 1323.93 2712.72 1323.93Z" fill-rule="evenodd"/><text fill="#000000" fill-opacity="0" font-family="Arial,Arial_MSFontService,sans-serif" font-size="30.2012" x="2702.33" y="1350.36">0</text><path d="M2896.5 1366.06 2937.25 1366.06 2937.25 1372.94 2896.5 1372.94ZM2932.67 1355.75 2960.17 1369.5 2932.67 1383.25Z"/><path d="M3.4375-1.59815e-05 3.43775 54.7084-3.43725 54.7084-3.4375 1.59815e-05ZM13.7502 50.125 0.000360892 77.6251-13.7498 50.1251Z" transform="matrix(1 0 0 -1 2991.5 1150.13)"/><path d="M2585.94 1062.5 2585.94 1117.21 2579.06 1117.21 2579.06 1062.5ZM2596.25 1112.62 2582.5 1140.13 2568.75 1112.63Z"/><path d="M2761.94 1072.5 2761.94 1127.21 2755.06 1127.21 2755.06 1072.5ZM2772.25 1122.62 2758.5 1150.13 2744.75 1122.63Z"/><path d="M1.94857e-05-3.4375 40.7487-3.43727 40.7487 3.43773-1.94857e-05 3.4375ZM36.1655-13.7498 63.6654 0.000360892 36.1653 13.7502Z" transform="matrix(-1 0 0 1 2705.17 1049.5)"/></g></svg>