<svg xmlns="http://www.w3.org/2000/svg" viewBox="0 0 452 351" width="190" height="148"><path fill="#000" fill-rule="evenodd" d="M107 341C111 338 116 319 113 317C112 316 112 316 117 316C121 316 122 316 120 317C119 318 118 320 117 323L115 329L118 329C121 329 126 324 126 322C126 317 133 313 135 317C136 319 133 321 132 319C130 317 130 317 127 323C126 325 124 327 123 328C121 330 121 330 124 335C126 339 128 342 129 342C131 343 131 343 128 343C125 343 125 342 122 337C118 329 115 328 113 335C112 340 112 340 114 342C115 343 115 343 110 343C105 343 105 343 107 341ZM145 342C143 339 143 338 145 339C147 341 149 341 151 339C154 337 153 334 151 333C149 333 149 333 152 331C154 330 155 330 155 328C154 325 151 324 148 327C147 329 146 329 146 328C146 325 147 325 152 324C158 324 161 329 155 332C153 333 153 333 154 334C157 336 156 339 154 341C151 343 147 344 145 342ZM162 342C160 339 162 331 166 327C170 324 172 323 174 326C175 327 175 327 175 326C175 325 176 324 176 324C178 324 178 324 176 332C174 341 174 342 176 339C178 338 178 338 177 339C176 343 171 344 171 341L171 339L168 341C165 343 164 344 162 342ZM183 341C178 336 185 323 192 324C195 325 195 322 191 318C189 315 189 315 191 316C194 317 197 324 197 329C197 338 188 347 183 341ZM202 342C200 339 202 331 206 327C210 324 212 323 214 326C215 327 215 327 215 326C215 325 216 324 216 324C218 324 218 324 216 332C214 341 214 342 216 339C218 338 218 338 217 339C216 343 211 344 211 341L211 339L208 341C205 343 204 344 202 342ZM230 341C230 340 230 338 231 337C232 334 232 333 229 335C228 336 226 336 225 336C222 335 222 335 222 330C223 327 223 326 221 326C220 326 220 326 222 325C226 323 227 324 226 328C225 333 225 334 227 334C231 334 233 332 234 327C234 325 235 324 236 324C238 324 238 325 235 332C234 336 233 340 233 341C233 342 233 343 232 343C231 343 230 343 230 341ZM242 341C237 336 245 323 252 324C258 326 254 332 246 334C243 334 243 335 243 337C244 341 246 342 250 340L254 338L251 340C247 344 244 344 242 341ZM270 342C272 341 273 339 275 332C279 319 280 318 277 318C275 318 276 317 278 317C280 316 282 316 283 316C283 316 281 322 279 328C276 340 276 340 278 342C279 343 279 343 273 343C268 343 268 343 270 342ZM288 342C286 340 289 339 292 340C296 341 296 341 298 340C302 336 299 329 294 329C292 329 294 328 297 327C302 325 302 324 302 322C302 318 300 317 296 319L292 321L295 319C298 315 302 315 304 318C307 321 306 324 302 326C299 327 299 327 301 329C306 334 301 342 293 343C290 343 288 343 288 342ZM307 342C306 340 309 338 310 340C311 341 311 343 309 343C309 343 308 343 307 342ZM321 342C323 341 324 339 326 332C330 319 331 318 328 318C326 318 327 317 329 317C331 316 333 316 334 316C334 316 332 322 330 328C327 340 327 340 329 342C330 343 330 343 324 343C319 343 319 343 321 342ZM338 342C337 340 340 338 341 340C342 341 342 343 340 343C340 343 339 343 338 342ZM352 342C354 341 355 339 357 332C361 319 362 318 359 318C357 318 358 317 360 317C362 316 364 316 365 316C365 316 363 322 361 328C358 340 358 340 360 342C361 343 361 343 355 343C350 343 350 343 352 342ZM374 342C370 340 370 331 374 324C378 316 385 314 388 320C392 330 382 347 374 342ZM191 338C194 333 194 326 191 325C189 325 187 328 185 334C183 342 187 345 191 338ZM381 339C385 333 387 320 384 318C379 315 371 336 375 341C377 343 379 342 381 339ZM169 339C170 338 171 337 171 338C172 338 172 338 172 338C172 337 172 335 173 332C175 325 172 323 168 328C166 331 164 337 164 339C165 342 168 341 169 339ZM209 339C210 338 211 337 211 338C212 338 212 338 212 338C212 337 212 335 213 332C215 325 212 323 208 328C206 331 204 337 204 339C205 342 208 341 209 339ZM234 341C234 340 235 340 236 339C237 338 237 338 236 339C235 341 234 341 234 341ZM250 330C253 328 253 325 250 325C248 325 244 329 244 332C244 333 248 333 250 330ZM177 286C176 285 177 283 179 283C182 283 182 285 179 286C178 287 177 287 177 286ZM164 284C164 283 166 281 168 279C172 275 171 273 167 274C163 274 159 276 159 277C159 278 153 284 152 284C149 284 151 280 155 277C159 274 159 273 154 272C151 271 150 272 146 276C143 279 141 281 140 281C138 281 139 279 142 275C144 273 145 272 144 271C143 268 140 269 134 274C127 281 124 279 130 272C135 268 135 267 132 266C130 265 125 267 125 269C125 269 123 271 121 272C116 277 115 274 119 270C123 266 124 263 121 262C119 261 117 262 113 266C110 269 107 270 107 268C107 268 109 266 110 264C112 262 114 260 114 259C114 258 110 257 107 257C105 258 105 258 105 256C105 254 104 253 102 252C100 251 100 251 96 255C93 257 91 259 90 258C88 258 89 257 92 253C96 249 97 246 94 245C92 245 91 246 88 249C84 252 82 252 82 250C82 249 83 247 85 246C87 245 88 243 88 242C87 239 84 238 81 241C79 244 75 245 75 243C75 243 76 241 78 239C81 236 82 234 80 232C78 231 76 231 74 235C72 237 68 238 68 236C68 235 70 233 72 231C75 229 75 228 75 226C74 223 71 223 67 227C65 229 63 230 63 230C61 230 62 227 65 224C68 221 69 219 68 217C67 214 65 215 62 218C56 224 54 222 60 215C63 212 64 210 63 209C62 205 58 205 56 208C55 211 51 212 51 210C51 210 53 208 56 205C60 201 60 201 58 199C56 195 55 195 52 199C49 202 47 203 47 201C47 201 49 198 51 196C56 191 55 192 54 189C53 186 50 186 47 189C46 191 44 192 44 190C44 190 46 188 48 186C51 182 52 179 50 176C49 175 46 176 44 178C43 180 40 181 40 179C40 178 42 177 44 175C48 171 49 169 48 166C48 163 46 163 42 167C36 172 36 169 42 163C47 158 49 153 46 151C45 151 41 152 41 153C41 155 38 157 36 157C35 157 35 156 37 154C41 149 40 149 24 149C14 149 8 149 8 148C8 147 15 147 26 147C46 147 46 147 47 141C47 136 46 135 41 139C37 143 35 144 35 142C35 142 38 139 41 136C46 131 47 129 48 125C48 120 48 120 43 125C34 132 35 127 44 119C50 113 52 110 53 104C54 100 53 100 49 104C45 108 43 109 43 106C43 105 46 102 49 100C55 95 62 87 62 85C62 84 64 82 66 78C72 69 70 70 55 84C53 86 51 87 51 85C51 83 69 66 71 66C72 66 72 66 72 65C71 65 72 64 73 64C74 63 76 61 77 60C78 58 81 55 82 54C84 53 93 44 101 36C116 21 120 18 120 21C120 21 117 25 113 29C102 40 103 40 120 30C123 29 126 26 128 25C132 22 134 21 134 23C134 24 135 24 138 23C146 22 149 20 154 14C157 11 160 9 161 9C162 9 161 11 159 13C157 15 155 17 155 18C155 20 164 19 166 17C172 12 174 10 174 9C174 8 175 8 176 8C178 8 177 9 174 12C170 16 170 17 174 18C178 20 178 24 174 24C163 24 133 30 129 34C127 34 126 35 125 35C119 35 90 57 81 69C78 72 76 75 75 75C74 75 74 76 74 76C74 77 72 80 71 83C60 99 54 119 53 141C52 147 52 147 55 147C56 147 57 147 57 148C57 149 56 149 55 149C52 149 52 151 55 166C56 172 57 177 60 186C62 194 62 195 61 196C60 197 60 197 61 197C63 196 68 202 68 204C68 205 72 211 78 219C84 227 91 235 93 236C95 237 98 239 104 244C108 247 128 258 130 258C130 258 133 259 136 260C139 262 146 263 151 264C156 265 161 265 162 266C163 266 167 266 170 267C182 267 182 269 173 279C166 285 164 286 164 284ZM99 262C100 260 102 260 102 261C102 262 101 263 100 263C100 263 99 262 99 262ZM371 261C356 257 356 257 371 253C385 250 386 250 384 253C382 255 382 255 413 255C443 255 444 255 444 257C444 259 443 259 413 259C382 259 382 259 384 261C386 264 384 264 371 261ZM371 205C356 201 356 201 371 197C385 194 386 194 384 197C382 199 382 199 413 199C443 199 444 199 444 201C444 203 443 203 413 203C382 203 382 203 384 205C386 208 384 208 371 205ZM371 151C356 147 356 147 371 143C385 140 386 140 384 143C382 145 382 145 413 145C443 145 444 145 444 147C444 149 443 149 413 149C382 149 382 149 384 151C386 154 384 154 371 151ZM173 150C172 149 169 149 158 149C149 149 144 149 144 148C144 147 149 147 158 147C168 147 172 147 173 145C176 144 178 144 180 146C181 147 185 147 200 147C212 147 219 147 219 148C219 149 212 149 200 149C183 149 180 149 180 150C179 151 178 152 177 152C175 152 174 151 173 150ZM61 148C61 147 62 147 62 147C63 147 64 147 64 148C64 149 63 149 62 149C62 149 61 149 61 148ZM70 148C70 147 80 147 98 147C115 147 125 147 125 148C125 149 115 149 98 149C80 149 70 149 70 148ZM132 148C132 147 133 147 134 147C134 147 135 147 135 148C135 149 134 149 134 149C133 149 132 149 132 148ZM226 148C226 147 227 147 228 147C228 147 229 147 229 148C229 149 228 149 228 149C227 149 226 149 226 148ZM238 148C238 147 246 147 261 147C276 147 284 147 284 148C284 149 276 149 261 149C246 149 238 149 238 148ZM293 148C293 147 294 147 294 147C295 147 296 147 296 148C296 149 295 149 294 149C294 149 293 149 293 148ZM303 148C303 147 311 147 326 147C340 147 348 147 348 148C348 149 340 149 326 149C311 149 303 149 303 148ZM370 94C355 90 355 90 370 86C384 83 385 83 382 86C381 88 381 88 412 88C442 88 443 88 443 90C443 92 442 92 412 92C381 92 381 92 382 94C385 97 383 97 370 94ZM76 49C76 48 84 41 85 42C86 42 85 44 81 48C78 50 76 51 76 49ZM370 38C355 34 355 34 370 30C384 27 385 27 382 30C381 32 381 32 412 32C442 32 443 32 443 34C443 36 442 36 412 36C381 36 381 36 382 38C385 41 383 41 370 38ZM136 18C136 18 141 12 142 12C144 12 143 14 140 17C138 19 136 20 136 18Z"/></svg>
