<svg width="686" height="673" xmlns="http://www.w3.org/2000/svg" xmlns:xlink="http://www.w3.org/1999/xlink" xml:space="preserve" overflow="hidden"><g transform="translate(-2169 -969)"><path d="M0 0 0.000360892 352.116" stroke="#000000" stroke-width="6.875" stroke-miterlimit="8" fill="none" fill-rule="evenodd" transform="matrix(1 0 0 -1 2173.5 1605.62)"/><path d="M2173.5 1603.5 2403.89 1603.5" stroke="#000000" stroke-width="6.875" stroke-miterlimit="8" fill="none" fill-rule="evenodd"/><path d="M2169.5 1253.5 2286.93 1253.5" stroke="#000000" stroke-width="6.875" stroke-miterlimit="8" fill="none" fill-rule="evenodd"/><path d="M0 0 66.4583 0.000360892" stroke="#000000" stroke-width="14.8958" stroke-miterlimit="8" fill="none" fill-rule="evenodd" transform="matrix(-6.12323e-17 -1 -1 6.12323e-17 2480.5 1289.96)"/><path d="M0 0 193.264 0.000360892" stroke="#000000" stroke-width="6.875" stroke-miterlimit="8" fill="none" fill-rule="evenodd" transform="matrix(-6.12323e-17 -1 -1 6.12323e-17 2457.5 1346.76)"/><path d="M2688.5 1605.5 2850.93 1605.5" stroke="#000000" stroke-width="6.875" stroke-miterlimit="8" fill="none" fill-rule="evenodd"/><path d="M2289.5 1396.5 2546.99 1396.5" stroke="#000000" stroke-width="6.875" stroke-miterlimit="8" fill="none" fill-rule="evenodd"/><path d="M2292.77 1395.87 2292.5 1074.5" stroke="#000000" stroke-width="6.875" stroke-miterlimit="8" fill="none" fill-rule="evenodd"/><rect x="2401.5" y="1563.5" width="182" height="73.0002" stroke="#000000" stroke-width="11.4583" stroke-miterlimit="8" fill="none"/><path d="M2579.5 1602.06 2691.81 1602.06 2691.81 1608.94 2579.5 1608.94ZM2687.22 1591.75 2714.72 1605.5 2687.22 1619.25Z"/><path d="M2498.89 1344.24C2500.2 1344.24 2501.24 1344.67 2502 1345.54 2502.76 1346.4 2503.14 1347.53 2503.14 1348.93 2503.14 1349.97 2502.94 1351.04 2502.55 1352.15L2502.95 1352.3C2504.99 1349.53 2506.96 1347.5 2508.84 1346.21 2510.73 1344.92 2512.64 1344.27 2514.58 1344.27 2516.1 1344.27 2517.37 1344.39 2518.39 1344.61L2516.89 1351.61 2513.67 1351.61C2513.55 1350.74 2513.37 1350.06 2513.14 1349.58 2512.91 1349.1 2512.64 1348.77 2512.33 1348.58 2512.01 1348.4 2511.62 1348.3 2511.14 1348.3 2510.39 1348.3 2509.57 1348.63 2508.69 1349.27 2507.8 1349.92 2506.81 1350.93 2505.7 1352.3 2504.6 1353.68 2503.72 1355 2503.06 1356.27 2502.41 1357.54 2501.86 1359.16 2501.42 1361.11L2498.45 1374.65 2493.05 1374.65 2497.58 1354.83C2497.87 1353.58 2498.06 1352.61 2498.14 1351.93 2498.22 1351.24 2498.26 1350.67 2498.26 1350.21 2498.26 1349.38 2498.13 1348.77 2497.86 1348.4 2497.59 1348.02 2497.16 1347.83 2496.58 1347.83 2495.93 1347.83 2495.25 1348.1 2494.53 1348.63 2493.81 1349.16 2492.83 1350.13 2491.58 1351.52L2489.8 1349.77C2491.71 1347.77 2493.32 1346.35 2494.61 1345.51 2495.9 1344.66 2497.33 1344.24 2498.89 1344.24Z" fill-rule="evenodd"/><text fill="#000000" fill-opacity="0" font-family="Arial,Arial_MSFontService,sans-serif" font-size="30.4062" x="2489.8" y="1370.85">𝑟</text><path d="M2293.5 1253.5 2458.11 1253.5" stroke="#000000" stroke-width="6.875" stroke-miterlimit="8" fill="none" fill-rule="evenodd"/><path d="M0 0 66.4583 0.000360892" stroke="#000000" stroke-width="14.8958" stroke-miterlimit="8" fill="none" fill-rule="evenodd" transform="matrix(-6.12323e-17 -1 -1 6.12323e-17 2568.5 1414.96)"/><path d="M0 0 193.264 0.000360892" stroke="#000000" stroke-width="6.875" stroke-miterlimit="8" fill="none" fill-rule="evenodd" transform="matrix(-6.12323e-17 -1 -1 6.12323e-17 2546.5 1471.76)"/><path d="M0 0 66.4583 0.000360892" stroke="#000000" stroke-width="14.8958" stroke-miterlimit="8" fill="none" fill-rule="evenodd" transform="matrix(-6.12323e-17 -1 -1 6.12323e-17 2565.5 1107.96)"/><path d="M0 0 193.264 0.000360892" stroke="#000000" stroke-width="6.875" stroke-miterlimit="8" fill="none" fill-rule="evenodd" transform="matrix(-6.12323e-17 -1 -1 6.12323e-17 2543.5 1165.76)"/><path d="M0 0 256.92 1.59623" stroke="#000000" stroke-width="6.875" stroke-miterlimit="8" fill="none" fill-rule="evenodd" transform="matrix(1 0 0 -1 2289.5 1076.1)"/><path d="M2484.5 1250.5 2699.86 1250.5" stroke="#000000" stroke-width="6.875" stroke-miterlimit="8" fill="none" fill-rule="evenodd"/><path d="M2574.5 1079.5 2700.18 1079.5" stroke="#000000" stroke-width="6.875" stroke-miterlimit="8" fill="none" fill-rule="evenodd"/><path d="M2574.5 1391.5 2700.18 1391.5" stroke="#000000" stroke-width="6.875" stroke-miterlimit="8" fill="none" fill-rule="evenodd"/><path d="M2702.17 1394.15 2699.5 1074.5" stroke="#000000" stroke-width="6.875" stroke-miterlimit="8" fill="none" fill-rule="evenodd"/><path d="M2293 1262.5C2288.31 1262.5 2284.5 1258.69 2284.5 1254 2284.5 1249.31 2288.31 1245.5 2293 1245.5 2297.69 1245.5 2301.5 1249.31 2301.5 1254 2301.5 1258.69 2297.69 1262.5 2293 1262.5Z" stroke="#000000" stroke-width="6.875" stroke-miterlimit="8" fill-rule="evenodd"/><path d="M2702.5 1257.5C2698.08 1257.5 2694.5 1253.69 2694.5 1249 2694.5 1244.31 2698.08 1240.5 2702.5 1240.5 2706.92 1240.5 2710.5 1244.31 2710.5 1249 2710.5 1253.69 2706.92 1257.5 2702.5 1257.5Z" stroke="#000000" stroke-width="6.875" stroke-miterlimit="8" fill-rule="evenodd"/><path d="M2703.5 1248.5 2845.58 1248.5" stroke="#000000" stroke-width="6.875" stroke-miterlimit="8" fill="none" fill-rule="evenodd"/><path d="M0 0 0.000360892 358.075" stroke="#000000" stroke-width="6.875" stroke-miterlimit="8" fill="none" fill-rule="evenodd" transform="matrix(1 0 0 -1 2848.5 1603.57)"/><path d="M1.94857e-05-3.4375 40.7487-3.43727 40.7487 3.43773-1.94857e-05 3.4375ZM36.1655-13.7498 63.6654 0.000360892 36.1653 13.7502Z" transform="matrix(-1 0 0 1 2441.17 1396.5)"/><path d="M2506.08 1117.56C2507.39 1117.56 2508.43 1118 2509.19 1118.86 2509.95 1119.73 2510.33 1120.86 2510.33 1122.25 2510.33 1123.29 2510.13 1124.37 2509.73 1125.47L2510.14 1125.63C2512.18 1122.86 2514.14 1120.83 2516.03 1119.53 2517.92 1118.24 2519.83 1117.6 2521.76 1117.6 2523.29 1117.6 2524.56 1117.71 2525.58 1117.94L2524.08 1124.94 2520.86 1124.94C2520.73 1124.06 2520.56 1123.39 2520.33 1122.91 2520.1 1122.43 2519.83 1122.1 2519.51 1121.91 2519.2 1121.72 2518.81 1121.63 2518.33 1121.63 2517.58 1121.63 2516.76 1121.95 2515.87 1122.6 2514.99 1123.24 2513.99 1124.25 2512.89 1125.63 2511.79 1127 2510.91 1128.33 2510.25 1129.6 2509.59 1130.87 2509.05 1132.48 2508.61 1134.44L2505.64 1147.97 2500.23 1147.97 2504.76 1128.16C2505.06 1126.91 2505.24 1125.94 2505.33 1125.25 2505.41 1124.56 2505.45 1123.99 2505.45 1123.53 2505.45 1122.7 2505.32 1122.1 2505.05 1121.72 2504.78 1121.35 2504.35 1121.16 2503.76 1121.16 2503.12 1121.16 2502.44 1121.42 2501.72 1121.96 2501 1122.49 2500.01 1123.45 2498.76 1124.85L2496.98 1123.1C2498.9 1121.1 2500.5 1119.67 2501.8 1118.83 2503.09 1117.99 2504.51 1117.56 2506.08 1117.56Z" fill-rule="evenodd"/><text fill="#000000" fill-opacity="0" font-family="Arial,Arial_MSFontService,sans-serif" font-size="30.4062" x="2496.98" y="1144.17">𝑟</text><path d="M2601.88 1103.88C2604.88 1103.88 2608.03 1104.38 2611.32 1105.38L2610.13 1111.07 2607.19 1111.07C2606.82 1107.92 2604.97 1106.35 2601.66 1106.35 2599.77 1106.35 2598.21 1106.88 2597 1107.96 2595.8 1109.03 2595.19 1110.5 2595.19 1112.38 2595.19 1113.73 2595.73 1114.82 2596.8 1115.63 2597.87 1116.44 2599.35 1116.85 2601.22 1116.85L2605.66 1116.85 2604.94 1120.07 2601.82 1120.07C2600.23 1120.07 2598.93 1120.17 2597.91 1120.38 2596.89 1120.59 2595.93 1120.92 2595.04 1121.39 2594.14 1121.86 2593.44 1122.36 2592.93 1122.89 2592.42 1123.42 2592.04 1124.02 2591.79 1124.69 2591.54 1125.36 2591.41 1126.12 2591.41 1126.97 2591.41 1128.43 2591.91 1129.54 2592.91 1130.32 2593.91 1131.09 2595.35 1131.47 2597.22 1131.47 2598.87 1131.47 2600.46 1131.24 2601.99 1130.77 2603.52 1130.3 2605.25 1129.41 2607.19 1128.1L2608.72 1130.53C2606.56 1132.03 2604.43 1133.12 2602.33 1133.78 2600.24 1134.45 2598.05 1134.78 2595.75 1134.78 2593.67 1134.78 2591.88 1134.43 2590.4 1133.74 2588.91 1133.04 2587.79 1132.11 2587.05 1130.96 2586.31 1129.8 2585.94 1128.52 2585.94 1127.13 2585.94 1124.98 2586.78 1123.15 2588.44 1121.63 2590.11 1120.11 2592.5 1119.01 2595.63 1118.35L2595.69 1118.03C2592.07 1116.83 2590.25 1114.74 2590.25 1111.78 2590.25 1110.45 2590.67 1109.18 2591.5 1107.99 2592.34 1106.79 2593.65 1105.8 2595.43 1105.03 2597.21 1104.26 2599.36 1103.88 2601.88 1103.88Z" fill-rule="evenodd"/><text fill="#000000" fill-opacity="0" font-family="Arial,Arial_MSFontService,sans-serif" font-size="30.9062" x="2585.94" y="1130.92">𝜀</text><path d="M2420.6 1140.29C2423.6 1140.29 2426.75 1140.79 2430.04 1141.79L2428.85 1147.47 2425.91 1147.47C2425.54 1144.33 2423.69 1142.75 2420.38 1142.75 2418.49 1142.75 2416.93 1143.29 2415.73 1144.36 2414.52 1145.44 2413.91 1146.91 2413.91 1148.79 2413.91 1150.14 2414.45 1151.22 2415.52 1152.04 2416.6 1152.85 2418.07 1153.25 2419.94 1153.25L2424.38 1153.25 2423.66 1156.47 2420.54 1156.47C2418.96 1156.47 2417.65 1156.58 2416.63 1156.79 2415.61 1156.99 2414.65 1157.33 2413.76 1157.8 2412.86 1158.27 2412.16 1158.77 2411.65 1159.3 2411.14 1159.83 2410.76 1160.43 2410.51 1161.1 2410.26 1161.76 2410.13 1162.53 2410.13 1163.38 2410.13 1164.84 2410.63 1165.95 2411.63 1166.72 2412.63 1167.49 2414.07 1167.88 2415.94 1167.88 2417.59 1167.88 2419.18 1167.65 2420.71 1167.18 2422.24 1166.71 2423.98 1165.82 2425.91 1164.5L2427.44 1166.94C2425.28 1168.44 2423.15 1169.53 2421.05 1170.19 2418.96 1170.86 2416.77 1171.19 2414.48 1171.19 2412.39 1171.19 2410.61 1170.84 2409.12 1170.15 2407.63 1169.45 2406.51 1168.52 2405.77 1167.36 2405.03 1166.21 2404.66 1164.93 2404.66 1163.54 2404.66 1161.39 2405.5 1159.56 2407.16 1158.04 2408.83 1156.51 2411.23 1155.42 2414.35 1154.75L2414.41 1154.44C2410.79 1153.23 2408.98 1151.15 2408.98 1148.19 2408.98 1146.86 2409.39 1145.59 2410.23 1144.4 2411.06 1143.2 2412.37 1142.21 2414.15 1141.44 2415.93 1140.67 2418.08 1140.29 2420.6 1140.29Z" fill-rule="evenodd"/><text fill="#000000" fill-opacity="0" font-family="Arial,Arial_MSFontService,sans-serif" font-size="30.9062" x="2404.66" y="1167.33">𝜀</text><path d="M2600.56 1315.62C2603.56 1315.62 2606.7 1316.12 2609.99 1317.12L2608.81 1322.81 2605.87 1322.81C2605.49 1319.66 2603.65 1318.09 2600.34 1318.09 2598.44 1318.09 2596.89 1318.63 2595.68 1319.7 2594.47 1320.77 2593.87 1322.25 2593.87 1324.12 2593.87 1325.48 2594.4 1326.56 2595.48 1327.37 2596.55 1328.18 2598.02 1328.59 2599.9 1328.59L2604.34 1328.59 2603.62 1331.81 2600.49 1331.81C2598.91 1331.81 2597.61 1331.91 2596.59 1332.12 2595.57 1332.33 2594.61 1332.67 2593.71 1333.14 2592.82 1333.61 2592.11 1334.11 2591.6 1334.64 2591.09 1335.17 2590.71 1335.77 2590.46 1336.43 2590.21 1337.1 2590.09 1337.86 2590.09 1338.71 2590.09 1340.17 2590.59 1341.29 2591.59 1342.06 2592.59 1342.83 2594.02 1343.21 2595.9 1343.21 2597.55 1343.21 2599.13 1342.98 2600.67 1342.51 2602.2 1342.04 2603.93 1341.15 2605.87 1339.84L2607.4 1342.28C2605.23 1343.78 2603.1 1344.86 2601.01 1345.53 2598.92 1346.19 2596.72 1346.53 2594.43 1346.53 2592.35 1346.53 2590.56 1346.18 2589.07 1345.48 2587.58 1344.78 2586.47 1343.86 2585.73 1342.7 2584.99 1341.54 2584.62 1340.27 2584.62 1338.87 2584.62 1336.73 2585.45 1334.89 2587.12 1333.37 2588.78 1331.85 2591.18 1330.76 2594.31 1330.09L2594.37 1329.78C2590.74 1328.57 2588.93 1326.49 2588.93 1323.53 2588.93 1322.19 2589.35 1320.93 2590.18 1319.73 2591.01 1318.53 2592.32 1317.55 2594.1 1316.78 2595.88 1316.01 2598.03 1315.62 2600.56 1315.62Z" fill-rule="evenodd"/><text fill="#000000" fill-opacity="0" font-family="Arial,Arial_MSFontService,sans-serif" font-size="30.9062" x="2584.62" y="1342.66">𝜀</text><path d="M1.56027e-05-3.4375 56.593-3.43724 56.593 3.43776-1.56027e-05 3.4375ZM52.0097-13.7498 79.5096 0.000360892 52.0096 13.7502Z" transform="matrix(-1 0 0 1 2418.01 1253.5)"/><path d="M1.56027e-05-3.4375 56.593-3.43724 56.593 3.43776-1.56027e-05 3.4375ZM52.0097-13.7498 79.5096 0.000360892 52.0096 13.7502Z" transform="matrix(-1 0 0 1 2442.01 1075.5)"/><path d="M2404.75 1013.84 2417.25 1013.84 2416.91 1015.37C2416.12 1015.53 2415.55 1015.72 2415.21 1015.93 2414.86 1016.14 2414.56 1016.45 2414.28 1016.87 2414.01 1017.28 2413.73 1017.94 2413.44 1018.82 2413.15 1019.71 2412.78 1021.15 2412.35 1023.15L2407 1047.4C2406.73 1048.63 2406.56 1049.6 2406.47 1050.32 2406.39 1051.04 2406.35 1051.69 2406.35 1052.27 2406.35 1053.21 2406.58 1053.87 2407.05 1054.26 2407.52 1054.64 2408.31 1054.88 2409.41 1054.96L2409.07 1056.49 2396.57 1056.49 2396.91 1054.96C2397.7 1054.84 2398.3 1054.63 2398.69 1054.35 2399.09 1054.07 2399.42 1053.68 2399.69 1053.18 2399.96 1052.68 2400.21 1052.07 2400.44 1051.35 2400.67 1050.63 2401.01 1049.24 2401.47 1047.18L2406.78 1023.12C2407.24 1021.03 2407.47 1019.36 2407.47 1018.09 2407.47 1017.11 2407.23 1016.43 2406.74 1016.04 2406.25 1015.65 2405.47 1015.43 2404.41 1015.37Z" fill-rule="evenodd"/><text fill="#000000" fill-opacity="0" font-family="Arial,Arial_MSFontService,sans-serif" font-size="42.6562" x="2396.57" y="1051.16">𝐼</text><path d="M2428.7 1042.09C2427.63 1042.09 2426.73 1042.36 2426.01 1042.92 2425.29 1043.48 2424.72 1044.3 2424.3 1045.38 2423.88 1046.46 2423.58 1047.77 2423.41 1049.33 2423.23 1050.88 2423.14 1052.64 2423.14 1054.62 2423.14 1056.9 2423.25 1058.86 2423.48 1060.52 2423.7 1062.18 2424.04 1063.55 2424.51 1064.62 2424.98 1065.69 2425.56 1066.48 2426.27 1066.99 2426.97 1067.49 2427.81 1067.74 2428.79 1067.74 2429.71 1067.74 2430.51 1067.51 2431.2 1067.03 2431.89 1066.56 2432.46 1065.82 2432.91 1064.82 2433.36 1063.81 2433.7 1062.54 2433.93 1061.01 2434.16 1059.47 2434.27 1057.65 2434.27 1055.56 2434.27 1053.2 2434.15 1051.17 2433.9 1049.47 2433.64 1047.78 2433.29 1046.38 2432.83 1045.29 2432.37 1044.19 2431.79 1043.39 2431.1 1042.87 2430.4 1042.35 2429.6 1042.09 2428.7 1042.09ZM2428.79 1039.86C2430.61 1039.86 2432.17 1040.2 2433.46 1040.88 2434.75 1041.56 2435.81 1042.53 2436.63 1043.79 2437.45 1045.06 2438.05 1046.6 2438.43 1048.42 2438.81 1050.24 2439 1052.3 2439 1054.59 2439 1059.69 2438.1 1063.54 2436.29 1066.15 2434.49 1068.76 2431.87 1070.06 2428.45 1070.06 2425.05 1070.06 2422.52 1068.83 2420.87 1066.37 2419.22 1063.9 2418.39 1060.17 2418.39 1055.17 2418.39 1052.55 2418.65 1050.29 2419.16 1048.37 2419.67 1046.46 2420.39 1044.87 2421.32 1043.61 2422.25 1042.35 2423.34 1041.41 2424.61 1040.79 2425.88 1040.17 2427.27 1039.86 2428.79 1039.86Z" fill-rule="evenodd"/><text fill="#000000" fill-opacity="0" font-family="Arial,Arial_MSFontService,sans-serif" font-size="30.2012" x="2418.39" y="1066.29">0</text><path d="M2375.38 1184.14 2387.88 1184.14 2387.53 1185.67C2386.74 1185.83 2386.17 1186.02 2385.83 1186.23 2385.49 1186.44 2385.18 1186.75 2384.91 1187.17 2384.64 1187.58 2384.35 1188.24 2384.06 1189.12 2383.77 1190.01 2383.41 1191.45 2382.97 1193.45L2377.63 1217.7C2377.35 1218.93 2377.18 1219.9 2377.09 1220.62 2377.01 1221.34 2376.97 1221.99 2376.97 1222.57 2376.97 1223.51 2377.2 1224.17 2377.67 1224.56 2378.14 1224.94 2378.93 1225.18 2380.03 1225.26L2379.69 1226.79 2367.19 1226.79 2367.53 1225.26C2368.32 1225.14 2368.92 1224.93 2369.31 1224.65 2369.71 1224.37 2370.04 1223.98 2370.31 1223.48 2370.58 1222.98 2370.83 1222.37 2371.06 1221.65 2371.29 1220.93 2371.64 1219.54 2372.09 1217.48L2377.41 1193.42C2377.87 1191.33 2378.09 1189.66 2378.09 1188.39 2378.09 1187.41 2377.85 1186.73 2377.36 1186.34 2376.87 1185.95 2376.09 1185.73 2375.03 1185.67Z" fill-rule="evenodd"/><text fill="#000000" fill-opacity="0" font-family="Arial,Arial_MSFontService,sans-serif" font-size="42.6562" x="2367.19" y="1221.46">𝐼</text><path d="M2399.32 1212.39C2398.25 1212.39 2397.35 1212.66 2396.64 1213.22 2395.92 1213.78 2395.35 1214.6 2394.93 1215.68 2394.5 1216.76 2394.21 1218.07 2394.03 1219.63 2393.85 1221.18 2393.77 1222.94 2393.77 1224.92 2393.77 1227.2 2393.88 1229.16 2394.1 1230.82 2394.32 1232.48 2394.67 1233.85 2395.13 1234.92 2395.6 1235.99 2396.18 1236.78 2396.89 1237.29 2397.59 1237.79 2398.43 1238.04 2399.41 1238.04 2400.33 1238.04 2401.13 1237.81 2401.82 1237.33 2402.51 1236.86 2403.08 1236.12 2403.53 1235.12 2403.98 1234.11 2404.32 1232.84 2404.55 1231.31 2404.78 1229.77 2404.9 1227.95 2404.9 1225.86 2404.9 1223.5 2404.77 1221.47 2404.52 1219.77 2404.27 1218.08 2403.91 1216.68 2403.45 1215.59 2402.99 1214.49 2402.41 1213.69 2401.72 1213.17 2401.02 1212.65 2400.22 1212.39 2399.32 1212.39ZM2399.41 1210.16C2401.23 1210.16 2402.79 1210.5 2404.08 1211.18 2405.37 1211.86 2406.43 1212.83 2407.25 1214.09 2408.07 1215.36 2408.67 1216.9 2409.05 1218.72 2409.43 1220.54 2409.62 1222.6 2409.62 1224.89 2409.62 1229.99 2408.72 1233.84 2406.92 1236.45 2405.11 1239.06 2402.49 1240.36 2399.07 1240.36 2395.67 1240.36 2393.15 1239.13 2391.49 1236.67 2389.84 1234.2 2389.02 1230.47 2389.02 1225.47 2389.02 1222.85 2389.27 1220.59 2389.78 1218.67 2390.3 1216.76 2391.02 1215.17 2391.94 1213.91 2392.87 1212.65 2393.97 1211.71 2395.24 1211.09 2396.5 1210.47 2397.9 1210.16 2399.41 1210.16Z" fill-rule="evenodd"/><text fill="#000000" fill-opacity="0" font-family="Arial,Arial_MSFontService,sans-serif" font-size="30.2012" x="2389.02" y="1236.59">0</text><path d="M2419.23 1326.83 2431.73 1326.83 2431.39 1328.36C2430.59 1328.53 2430.03 1328.71 2429.68 1328.92 2429.34 1329.13 2429.03 1329.44 2428.76 1329.86 2428.49 1330.28 2428.21 1330.93 2427.92 1331.81 2427.62 1332.7 2427.26 1334.14 2426.82 1336.14L2421.48 1360.39C2421.21 1361.62 2421.03 1362.6 2420.95 1363.31 2420.86 1364.03 2420.82 1364.68 2420.82 1365.27 2420.82 1366.2 2421.06 1366.87 2421.53 1367.25 2421.99 1367.64 2422.78 1367.87 2423.89 1367.95L2423.54 1369.49 2411.04 1369.49 2411.39 1367.95C2412.18 1367.83 2412.77 1367.63 2413.17 1367.35 2413.56 1367.06 2413.9 1366.67 2414.17 1366.17 2414.44 1365.67 2414.69 1365.06 2414.92 1364.35 2415.15 1363.63 2415.49 1362.24 2415.95 1360.17L2421.26 1336.11C2421.72 1334.03 2421.95 1332.35 2421.95 1331.08 2421.95 1330.1 2421.7 1329.42 2421.21 1329.03 2420.72 1328.65 2419.95 1328.42 2418.89 1328.36Z" fill-rule="evenodd"/><text fill="#000000" fill-opacity="0" font-family="Arial,Arial_MSFontService,sans-serif" font-size="42.6562" x="2411.04" y="1364.15">𝐼</text><path d="M2443.17 1355.08C2442.1 1355.08 2441.21 1355.36 2440.49 1355.92 2439.77 1356.47 2439.2 1357.29 2438.78 1358.37 2438.36 1359.45 2438.06 1360.77 2437.88 1362.32 2437.71 1363.87 2437.62 1365.63 2437.62 1367.61 2437.62 1369.89 2437.73 1371.86 2437.95 1373.52 2438.17 1375.18 2438.52 1376.54 2438.99 1377.61 2439.45 1378.69 2440.04 1379.47 2440.74 1379.98 2441.44 1380.48 2442.29 1380.74 2443.27 1380.74 2444.18 1380.74 2444.99 1380.5 2445.68 1380.02 2446.36 1379.55 2446.93 1378.81 2447.38 1377.81 2447.84 1376.81 2448.18 1375.54 2448.41 1374 2448.64 1372.46 2448.75 1370.65 2448.75 1368.55 2448.75 1366.19 2448.62 1364.17 2448.37 1362.47 2448.12 1360.77 2447.76 1359.37 2447.3 1358.28 2446.85 1357.19 2446.27 1356.38 2445.57 1355.86 2444.88 1355.34 2444.08 1355.08 2443.17 1355.08ZM2443.27 1352.85C2445.09 1352.85 2446.64 1353.19 2447.94 1353.87 2449.23 1354.55 2450.28 1355.53 2451.1 1356.79 2451.92 1358.05 2452.52 1359.59 2452.9 1361.41 2453.29 1363.23 2453.48 1365.29 2453.48 1367.59 2453.48 1372.68 2452.58 1376.53 2450.77 1379.14 2448.96 1381.75 2446.35 1383.05 2442.92 1383.05 2439.52 1383.05 2437 1381.82 2435.35 1379.36 2433.7 1376.9 2432.87 1373.16 2432.87 1368.16 2432.87 1365.54 2433.13 1363.28 2433.64 1361.37 2434.15 1359.45 2434.87 1357.87 2435.8 1356.6 2436.72 1355.34 2437.82 1354.4 2439.09 1353.78 2440.36 1353.16 2441.75 1352.85 2443.27 1352.85Z" fill-rule="evenodd"/><text fill="#000000" fill-opacity="0" font-family="Arial,Arial_MSFontService,sans-serif" font-size="30.2012" x="2432.87" y="1379.28">0</text><path d="M2660.89 1529.41 2673.39 1529.41 2673.05 1530.94C2672.25 1531.11 2671.69 1531.29 2671.34 1531.5 2671 1531.71 2670.69 1532.02 2670.42 1532.44 2670.15 1532.86 2669.87 1533.51 2669.58 1534.39 2669.28 1535.28 2668.92 1536.72 2668.48 1538.72L2663.14 1562.97C2662.87 1564.2 2662.69 1565.17 2662.61 1565.89 2662.52 1566.61 2662.48 1567.26 2662.48 1567.85 2662.48 1568.78 2662.72 1569.44 2663.19 1569.83 2663.65 1570.22 2664.44 1570.45 2665.55 1570.53L2665.2 1572.06 2652.7 1572.06 2653.05 1570.53C2653.84 1570.41 2654.43 1570.2 2654.83 1569.92 2655.22 1569.64 2655.56 1569.25 2655.83 1568.75 2656.1 1568.25 2656.35 1567.64 2656.58 1566.92 2656.81 1566.2 2657.15 1564.81 2657.61 1562.75L2662.92 1538.69C2663.38 1536.61 2663.61 1534.93 2663.61 1533.66 2663.61 1532.68 2663.36 1532 2662.87 1531.61 2662.38 1531.23 2661.61 1531 2660.55 1530.94Z" fill-rule="evenodd"/><text fill="#000000" fill-opacity="0" font-family="Arial,Arial_MSFontService,sans-serif" font-size="42.6562" x="2652.7" y="1566.73">𝐼</text><path d="M2688.09 1557.82C2687.73 1557.82 2687.3 1557.82 2686.83 1557.84 2686.36 1557.86 2685.9 1557.86 2685.45 1557.86L2682.72 1569.87 2685.45 1569.87C2688.48 1569.87 2690.81 1569.25 2692.43 1568.02 2694.05 1566.79 2694.86 1564.92 2694.86 1562.41 2694.86 1561.57 2694.74 1560.85 2694.48 1560.26 2694.23 1559.67 2693.83 1559.2 2693.28 1558.84 2692.73 1558.48 2692.03 1558.22 2691.18 1558.06 2690.33 1557.9 2689.3 1557.82 2688.09 1557.82ZM2678.41 1555.38 2688.94 1555.38C2690.96 1555.38 2692.64 1555.56 2693.99 1555.91 2695.34 1556.26 2696.42 1556.75 2697.23 1557.37 2698.04 1557.99 2698.61 1558.72 2698.95 1559.56 2699.28 1560.4 2699.45 1561.31 2699.45 1562.29 2699.45 1564.56 2698.76 1566.45 2697.38 1567.96 2695.99 1569.48 2693.89 1570.63 2691.08 1571.43 2691.05 1571.49 2691.03 1571.54 2691.03 1571.59 2691.03 1571.63 2691.03 1571.69 2691.03 1571.75 2691.75 1572.24 2692.33 1572.85 2692.76 1573.58 2693.2 1574.32 2693.58 1575.29 2693.9 1576.5 2694.27 1577.94 2694.57 1579.1 2694.8 1579.99 2695.04 1580.87 2695.32 1581.57 2695.63 1582.09 2695.94 1582.6 2696.34 1582.97 2696.82 1583.21 2697.31 1583.45 2697.96 1583.63 2698.79 1583.75L2698.47 1585.15 2691.79 1585.15C2691.51 1584.55 2691.24 1583.82 2690.98 1582.96 2690.72 1582.09 2690.49 1581.25 2690.3 1580.42 2689.99 1579.21 2689.73 1578.17 2689.53 1577.29 2689.32 1576.41 2689.12 1575.67 2688.92 1575.06 2688.72 1574.46 2688.51 1573.98 2688.3 1573.62 2688.08 1573.26 2687.83 1572.97 2687.54 1572.76 2687.25 1572.54 2686.9 1572.4 2686.49 1572.33 2686.07 1572.26 2685.57 1572.21 2684.97 1572.18L2682.24 1572.18C2682.06 1572.99 2681.86 1573.87 2681.64 1574.8 2681.43 1575.73 2681.22 1576.64 2681.01 1577.53 2680.81 1578.42 2680.63 1579.25 2680.5 1580.02 2680.36 1580.79 2680.29 1581.42 2680.29 1581.89 2680.29 1582.21 2680.33 1582.48 2680.4 1582.71 2680.48 1582.93 2680.61 1583.11 2680.81 1583.24 2681 1583.38 2681.26 1583.49 2681.59 1583.57 2681.92 1583.64 2682.33 1583.7 2682.84 1583.75L2682.54 1585.15 2672.74 1585.15 2672.99 1583.75C2673.47 1583.67 2673.85 1583.58 2674.15 1583.46 2674.45 1583.35 2674.72 1583.13 2674.95 1582.8 2675.19 1582.47 2675.41 1581.97 2675.61 1581.32 2675.81 1580.66 2676.04 1579.74 2676.3 1578.56L2680.06 1561.83C2680.21 1561.16 2680.33 1560.56 2680.4 1560.04 2680.48 1559.52 2680.52 1559.09 2680.52 1558.76 2680.52 1558.07 2680.35 1557.58 2680 1557.29 2679.66 1557 2679.01 1556.85 2678.06 1556.83Z" fill-rule="evenodd"/><text fill="#000000" fill-opacity="0" font-family="Arial,Arial_MSFontService,sans-serif" font-size="29.7651" x="2672.74" y="1581.43">𝑅</text><path d="M2497.23 1583.01C2496.12 1583.01 2494.96 1583.05 2493.73 1583.13L2489.73 1601.23 2493.41 1601.23C2496.44 1601.23 2498.82 1600.82 2500.57 1600.01 2502.32 1599.19 2503.71 1597.86 2504.73 1596.01 2505.75 1594.15 2506.26 1592.15 2506.26 1590.01 2506.26 1589.11 2506.18 1588.31 2506.01 1587.62 2505.84 1586.92 2505.62 1586.34 2505.35 1585.88 2505.08 1585.42 2504.74 1585.02 2504.32 1584.66 2503.9 1584.31 2503.38 1584 2502.76 1583.74 2502.13 1583.48 2501.41 1583.29 2500.59 1583.18 2499.76 1583.06 2498.64 1583.01 2497.23 1583.01ZM2484.7 1580.26 2498.6 1580.26C2500.81 1580.26 2502.61 1580.39 2504.01 1580.65 2505.4 1580.91 2506.6 1581.3 2507.59 1581.82 2508.58 1582.34 2509.4 1583.01 2510.07 1583.83 2510.74 1584.66 2511.24 1585.58 2511.57 1586.62 2511.9 1587.65 2512.07 1588.75 2512.07 1589.91 2512.07 1593.12 2511.09 1595.85 2509.13 1598.1 2507.18 1600.35 2504.29 1602.06 2500.48 1603.23L2500.48 1603.57C2501.48 1604.32 2502.28 1605.22 2502.9 1606.26 2503.51 1607.3 2504.01 1608.75 2504.38 1610.6L2505.1 1614.23C2505.33 1615.37 2505.59 1616.4 2505.88 1617.32 2506.18 1618.24 2506.52 1618.97 2506.93 1619.51 2507.34 1620.05 2507.79 1620.45 2508.31 1620.73 2508.82 1621 2509.56 1621.22 2510.54 1621.38L2510.23 1622.91 2501.57 1622.91C2500.9 1621.06 2500.31 1618.85 2499.79 1616.29L2498.41 1609.66C2498.19 1608.52 2497.91 1607.55 2497.59 1606.77 2497.26 1605.99 2496.88 1605.39 2496.43 1604.96 2495.98 1604.53 2495.46 1604.25 2494.87 1604.12 2494.27 1603.98 2493.55 1603.91 2492.7 1603.91L2489.13 1603.91 2486.95 1613.82C2486.76 1614.63 2486.63 1615.28 2486.56 1615.76 2486.48 1616.24 2486.42 1616.74 2486.37 1617.27 2486.32 1617.8 2486.29 1618.28 2486.29 1618.69 2486.29 1619.34 2486.39 1619.85 2486.6 1620.21 2486.81 1620.57 2487.12 1620.84 2487.54 1621.01 2487.96 1621.17 2488.68 1621.3 2489.7 1621.38L2489.35 1622.91 2476.51 1622.91 2476.85 1621.38C2477.64 1621.26 2478.24 1621.05 2478.63 1620.77 2479.03 1620.49 2479.36 1620.1 2479.63 1619.6 2479.9 1619.1 2480.15 1618.49 2480.38 1617.77 2480.61 1617.05 2480.96 1615.66 2481.41 1613.6L2486.73 1589.54C2487.19 1587.45 2487.41 1585.81 2487.41 1584.6 2487.41 1583.58 2487.18 1582.87 2486.7 1582.48 2486.22 1582.08 2485.44 1581.85 2484.35 1581.79Z" fill-rule="evenodd"/><text fill="#000000" fill-opacity="0" font-family="Arial,Arial_MSFontService,sans-serif" font-size="42.6562" x="2476.51" y="1617.58">𝑅</text></g></svg>