<svg width="732" height="683" xmlns="http://www.w3.org/2000/svg" xmlns:xlink="http://www.w3.org/1999/xlink" xml:space="preserve" overflow="hidden"><g transform="translate(-3044 -952)"><path d="M0 0 0.000360892 352.116" stroke="#000000" stroke-width="6.875" stroke-miterlimit="8" fill="none" fill-rule="evenodd" transform="matrix(1 0 0 -1 3072.5 1599.62)"/><path d="M3072.5 1596.5 3302.89 1596.5" stroke="#000000" stroke-width="6.875" stroke-miterlimit="8" fill="none" fill-rule="evenodd"/><path d="M3068.5 1247.5 3185.93 1247.5" stroke="#000000" stroke-width="6.875" stroke-miterlimit="8" fill="none" fill-rule="evenodd"/><path d="M3358.5 1282.96 3358.5 1216.5" stroke="#000000" stroke-width="14.8958" stroke-miterlimit="8" fill="none" fill-rule="evenodd"/><path d="M3380.5 1340.76 3380.5 1147.5" stroke="#000000" stroke-width="6.875" stroke-miterlimit="8" fill="none" fill-rule="evenodd"/><path d="M3587.5 1598.5 3749.93 1598.5" stroke="#000000" stroke-width="6.875" stroke-miterlimit="8" fill="none" fill-rule="evenodd"/><path d="M3188.5 1389.5 3445.99 1389.5" stroke="#000000" stroke-width="6.875" stroke-miterlimit="8" fill="none" fill-rule="evenodd"/><path d="M3191.77 1388.87 3191.5 1067.5" stroke="#000000" stroke-width="6.875" stroke-miterlimit="8" fill="none" fill-rule="evenodd"/><rect x="3300.5" y="1556.5" width="182" height="72.9999" stroke="#000000" stroke-width="11.4583" stroke-miterlimit="8" fill="none"/><path d="M3478.5 1595.06 3590.81 1595.06 3590.81 1601.94 3478.5 1601.94ZM3586.22 1584.75 3613.72 1598.5 3586.22 1612.25Z"/><path d="M3413.03 1338.61C3414.34 1338.61 3415.38 1339.05 3416.14 1339.91 3416.9 1340.77 3417.28 1341.9 3417.28 1343.3 3417.28 1344.34 3417.08 1345.42 3416.69 1346.52L3417.09 1346.68C3419.14 1343.9 3421.1 1341.87 3422.99 1340.58 3424.87 1339.29 3426.78 1338.64 3428.72 1338.64 3430.24 1338.64 3431.51 1338.76 3432.53 1338.99L3431.03 1345.99 3427.81 1345.99C3427.69 1345.11 3427.51 1344.44 3427.28 1343.96 3427.05 1343.48 3426.78 1343.14 3426.47 1342.96 3426.16 1342.77 3425.76 1342.68 3425.28 1342.68 3424.53 1342.68 3423.71 1343 3422.83 1343.64 3421.94 1344.29 3420.95 1345.3 3419.84 1346.68 3418.74 1348.05 3417.86 1349.37 3417.2 1350.64 3416.55 1351.92 3416 1353.53 3415.56 1355.49L3412.59 1369.02 3407.19 1369.02 3411.72 1349.21C3412.01 1347.96 3412.2 1346.99 3412.28 1346.3 3412.37 1345.61 3412.41 1345.04 3412.41 1344.58 3412.41 1343.75 3412.27 1343.14 3412 1342.77 3411.73 1342.39 3411.3 1342.21 3410.72 1342.21 3410.07 1342.21 3409.39 1342.47 3408.67 1343 3407.95 1343.54 3406.97 1344.5 3405.72 1345.89L3403.94 1344.14C3405.85 1342.14 3407.46 1340.72 3408.75 1339.88 3410.04 1339.04 3411.47 1338.61 3413.03 1338.61Z" fill-rule="evenodd"/><text fill="#000000" fill-opacity="0" font-family="Arial,Arial_MSFontService,sans-serif" font-size="30.4062" x="3403.94" y="1365.22">𝑟</text><path d="M3191.5 1247.5 3356.11 1247.5" stroke="#000000" stroke-width="6.875" stroke-miterlimit="8" fill="none" fill-rule="evenodd"/><path d="M0 0 66.4583 0.000360892" stroke="#000000" stroke-width="14.8958" stroke-miterlimit="8" fill="none" fill-rule="evenodd" transform="matrix(-6.12323e-17 -1 -1 6.12323e-17 3467.5 1407.96)"/><path d="M0 0 193.264 0.000360892" stroke="#000000" stroke-width="6.875" stroke-miterlimit="8" fill="none" fill-rule="evenodd" transform="matrix(-6.12323e-17 -1 -1 6.12323e-17 3445.5 1464.76)"/><path d="M0 0 66.4583 0.000360892" stroke="#000000" stroke-width="14.8958" stroke-miterlimit="8" fill="none" fill-rule="evenodd" transform="matrix(-6.12323e-17 -1 -1 6.12323e-17 3464.5 1100.96)"/><path d="M0 0 193.264 0.000360892" stroke="#000000" stroke-width="6.875" stroke-miterlimit="8" fill="none" fill-rule="evenodd" transform="matrix(-6.12323e-17 -1 -1 6.12323e-17 3442.5 1158.76)"/><path d="M0 0 256.92 1.59623" stroke="#000000" stroke-width="6.875" stroke-miterlimit="8" fill="none" fill-rule="evenodd" transform="matrix(1 0 0 -1 3188.5 1069.1)"/><path d="M3383.5 1243.5 3598.86 1243.5" stroke="#000000" stroke-width="6.875" stroke-miterlimit="8" fill="none" fill-rule="evenodd"/><path d="M3473.5 1072.5 3599.18 1072.5" stroke="#000000" stroke-width="6.875" stroke-miterlimit="8" fill="none" fill-rule="evenodd"/><path d="M3473.5 1384.5 3599.18 1384.5" stroke="#000000" stroke-width="6.875" stroke-miterlimit="8" fill="none" fill-rule="evenodd"/><path d="M3601.17 1387.15 3598.5 1067.5" stroke="#000000" stroke-width="6.875" stroke-miterlimit="8" fill="none" fill-rule="evenodd"/><path d="M3191.5 1255.5C3187.08 1255.5 3183.5 1251.69 3183.5 1247 3183.5 1242.31 3187.08 1238.5 3191.5 1238.5 3195.92 1238.5 3199.5 1242.31 3199.5 1247 3199.5 1251.69 3195.92 1255.5 3191.5 1255.5Z" stroke="#000000" stroke-width="6.875" stroke-miterlimit="8" fill-rule="evenodd"/><path d="M3601.5 1250.5C3597.08 1250.5 3593.5 1246.69 3593.5 1242 3593.5 1237.31 3597.08 1233.5 3601.5 1233.5 3605.92 1233.5 3609.5 1237.31 3609.5 1242 3609.5 1246.69 3605.92 1250.5 3601.5 1250.5Z" stroke="#000000" stroke-width="6.875" stroke-miterlimit="8" fill-rule="evenodd"/><path d="M3602.5 1242.5 3744.58 1242.5" stroke="#000000" stroke-width="6.875" stroke-miterlimit="8" fill="none" fill-rule="evenodd"/><path d="M0 0 0.000360892 358.075" stroke="#000000" stroke-width="6.875" stroke-miterlimit="8" fill="none" fill-rule="evenodd" transform="matrix(1 0 0 -1 3747.5 1596.57)"/><path d="M1.94857e-05-3.4375 40.7487-3.43727 40.7487 3.43773-1.94857e-05 3.4375ZM36.1655-13.7498 63.6654 0.000360892 36.1653 13.7502Z" transform="matrix(-1 0 0 1 3340.17 1389.5)"/><path d="M3461.74 992.038C3463.05 992.038 3464.09 992.47 3464.85 993.335 3465.61 994.199 3465.99 995.33 3465.99 996.725 3465.99 997.767 3465.79 998.84 3465.39 999.944L3465.8 1000.1C3467.84 997.33 3469.81 995.298 3471.69 994.007 3473.58 992.715 3475.49 992.069 3477.43 992.069 3478.95 992.069 3480.22 992.184 3481.24 992.413L3479.74 999.413 3476.52 999.413C3476.39 998.538 3476.22 997.861 3475.99 997.382 3475.76 996.902 3475.49 996.569 3475.18 996.382 3474.86 996.194 3474.47 996.1 3473.99 996.1 3473.24 996.1 3472.42 996.423 3471.53 997.069 3470.65 997.715 3469.65 998.725 3468.55 1000.1 3467.45 1001.48 3466.57 1002.8 3465.91 1004.07 3465.25 1005.34 3464.71 1006.95 3464.27 1008.91L3461.3 1022.44 3455.89 1022.44 3460.43 1002.63C3460.72 1001.38 3460.9 1000.41 3460.99 999.725 3461.07 999.038 3461.11 998.465 3461.11 998.007 3461.11 997.173 3460.98 996.569 3460.71 996.194 3460.44 995.819 3460.01 995.632 3459.43 995.632 3458.78 995.632 3458.1 995.897 3457.38 996.429 3456.66 996.96 3455.68 997.923 3454.43 999.319L3452.64 997.569C3454.56 995.569 3456.16 994.147 3457.46 993.304 3458.75 992.46 3460.18 992.038 3461.74 992.038Z" fill-rule="evenodd"/><text fill="#000000" fill-opacity="0" font-family="Arial,Arial_MSFontService,sans-serif" font-size="30.4062" x="3452.64" y="1018.64">𝑟</text><path d="M3399.03 981.598C3402.03 981.598 3405.18 982.098 3408.47 983.098L3407.28 988.786 3404.34 988.786C3403.97 985.64 3402.12 984.067 3398.81 984.067 3396.92 984.067 3395.36 984.604 3394.16 985.677 3392.95 986.749 3392.34 988.223 3392.34 990.098 3392.34 991.453 3392.88 992.536 3393.95 993.348 3395.02 994.161 3396.5 994.567 3398.37 994.567L3402.81 994.567 3402.09 997.786 3398.97 997.786C3397.38 997.786 3396.08 997.89 3395.06 998.098 3394.04 998.307 3393.08 998.645 3392.19 999.114 3391.29 999.583 3390.59 1000.08 3390.08 1000.61 3389.57 1001.15 3389.19 1001.74 3388.94 1002.41 3388.69 1003.08 3388.56 1003.84 3388.56 1004.69 3388.56 1006.15 3389.06 1007.27 3390.06 1008.04 3391.06 1008.81 3392.5 1009.19 3394.37 1009.19 3396.02 1009.19 3397.61 1008.96 3399.14 1008.49 3400.67 1008.02 3402.41 1007.13 3404.34 1005.82L3405.87 1008.25C3403.71 1009.75 3401.58 1010.84 3399.48 1011.5 3397.39 1012.17 3395.2 1012.5 3392.91 1012.5 3390.82 1012.5 3389.04 1012.16 3387.55 1011.46 3386.06 1010.76 3384.94 1009.83 3384.2 1008.68 3383.46 1007.52 3383.09 1006.24 3383.09 1004.85 3383.09 1002.7 3383.93 1000.87 3385.59 999.348 3387.26 997.828 3389.66 996.734 3392.78 996.067L3392.84 995.755C3389.22 994.546 3387.41 992.463 3387.41 989.505 3387.41 988.171 3387.82 986.906 3388.66 985.708 3389.49 984.51 3390.8 983.525 3392.58 982.755 3394.36 981.984 3396.51 981.598 3399.03 981.598Z" fill-rule="evenodd"/><text fill="#000000" fill-opacity="0" font-family="Arial,Arial_MSFontService,sans-serif" font-size="30.9062" x="3383.09" y="1008.64">𝜀</text><path d="M3343.53 1140.29C3346.53 1140.29 3349.67 1140.79 3352.97 1141.79L3351.78 1147.47 3348.84 1147.47C3348.47 1144.33 3346.62 1142.75 3343.31 1142.75 3341.41 1142.75 3339.86 1143.29 3338.65 1144.36 3337.45 1145.44 3336.84 1146.91 3336.84 1148.79 3336.84 1150.14 3337.38 1151.22 3338.45 1152.04 3339.52 1152.85 3341 1153.25 3342.87 1153.25L3347.31 1153.25 3346.59 1156.47 3343.47 1156.47C3341.88 1156.47 3340.58 1156.58 3339.56 1156.79 3338.54 1156.99 3337.58 1157.33 3336.68 1157.8 3335.79 1158.27 3335.09 1158.77 3334.58 1159.3 3334.06 1159.83 3333.68 1160.43 3333.43 1161.1 3333.18 1161.76 3333.06 1162.53 3333.06 1163.38 3333.06 1164.84 3333.56 1165.95 3334.56 1166.72 3335.56 1167.49 3337 1167.88 3338.87 1167.88 3340.52 1167.88 3342.11 1167.65 3343.64 1167.18 3345.17 1166.71 3346.9 1165.82 3348.84 1164.5L3350.37 1166.94C3348.21 1168.44 3346.08 1169.53 3343.98 1170.19 3341.89 1170.86 3339.7 1171.19 3337.4 1171.19 3335.32 1171.19 3333.53 1170.84 3332.04 1170.15 3330.55 1169.45 3329.44 1168.52 3328.7 1167.36 3327.96 1166.21 3327.59 1164.93 3327.59 1163.54 3327.59 1161.39 3328.42 1159.56 3330.09 1158.04 3331.76 1156.51 3334.15 1155.42 3337.28 1154.75L3337.34 1154.44C3333.72 1153.23 3331.9 1151.15 3331.9 1148.19 3331.9 1146.86 3332.32 1145.59 3333.15 1144.4 3333.99 1143.2 3335.29 1142.21 3337.08 1141.44 3338.86 1140.67 3341.01 1140.29 3343.53 1140.29Z" fill-rule="evenodd"/><text fill="#000000" fill-opacity="0" font-family="Arial,Arial_MSFontService,sans-serif" font-size="30.9062" x="3327.59" y="1167.33">𝜀</text><path d="M3476.79 1293.41C3479.79 1293.41 3482.93 1293.91 3486.23 1294.91L3485.04 1300.6 3482.1 1300.6C3481.73 1297.45 3479.88 1295.88 3476.57 1295.88 3474.67 1295.88 3473.12 1296.42 3471.91 1297.49 3470.7 1298.56 3470.1 1300.04 3470.1 1301.91 3470.1 1303.27 3470.64 1304.35 3471.71 1305.16 3472.78 1305.97 3474.26 1306.38 3476.13 1306.38L3480.57 1306.38 3479.85 1309.6 3476.73 1309.6C3475.14 1309.6 3473.84 1309.7 3472.82 1309.91 3471.8 1310.12 3470.84 1310.46 3469.94 1310.93 3469.05 1311.4 3468.35 1311.9 3467.83 1312.43 3467.32 1312.96 3466.94 1313.56 3466.69 1314.22 3466.44 1314.89 3466.32 1315.65 3466.32 1316.51 3466.32 1317.96 3466.82 1319.08 3467.82 1319.85 3468.82 1320.62 3470.26 1321.01 3472.13 1321.01 3473.78 1321.01 3475.37 1320.77 3476.9 1320.3 3478.43 1319.83 3480.16 1318.94 3482.1 1317.63L3483.63 1320.07C3481.46 1321.57 3479.33 1322.65 3477.24 1323.32 3475.15 1323.98 3472.95 1324.32 3470.66 1324.32 3468.58 1324.32 3466.79 1323.97 3465.3 1323.27 3463.81 1322.57 3462.7 1321.65 3461.96 1320.49 3461.22 1319.33 3460.85 1318.06 3460.85 1316.66 3460.85 1314.52 3461.68 1312.68 3463.35 1311.16 3465.02 1309.64 3467.41 1308.55 3470.54 1307.88L3470.6 1307.57C3466.98 1306.36 3465.16 1304.28 3465.16 1301.32 3465.16 1299.98 3465.58 1298.72 3466.41 1297.52 3467.25 1296.32 3468.55 1295.34 3470.33 1294.57 3472.12 1293.8 3474.27 1293.41 3476.79 1293.41Z" fill-rule="evenodd"/><text fill="#000000" fill-opacity="0" font-family="Arial,Arial_MSFontService,sans-serif" font-size="30.9062" x="3460.85" y="1320.45">𝜀</text><path d="M1.56027e-05-3.4375 56.593-3.43724 56.593 3.43776-1.56027e-05 3.4375ZM52.0097-13.7498 79.5096 0.000360892 52.0096 13.7502Z" transform="matrix(-1 0 0 1 3341.01 1068.5)"/><path d="M3303.68 1007.04 3316.18 1007.04 3315.83 1008.58C3315.04 1008.74 3314.47 1008.93 3314.13 1009.14 3313.79 1009.35 3313.48 1009.66 3313.21 1010.08 3312.94 1010.49 3312.66 1011.14 3312.36 1012.03 3312.07 1012.91 3311.71 1014.36 3311.27 1016.36L3305.93 1040.61C3305.66 1041.84 3305.48 1042.81 3305.39 1043.53 3305.31 1044.25 3305.27 1044.9 3305.27 1045.48 3305.27 1046.42 3305.5 1047.08 3305.97 1047.47 3306.44 1047.85 3307.23 1048.09 3308.33 1048.17L3307.99 1049.7 3295.49 1049.7 3295.83 1048.17C3296.62 1048.04 3297.22 1047.84 3297.61 1047.56 3298.01 1047.28 3298.34 1046.89 3298.61 1046.39 3298.88 1045.89 3299.13 1045.28 3299.36 1044.56 3299.59 1043.84 3299.94 1042.45 3300.39 1040.39L3305.71 1016.33C3306.17 1014.24 3306.39 1012.57 3306.39 1011.29 3306.39 1010.32 3306.15 1009.63 3305.66 1009.25 3305.17 1008.86 3304.39 1008.64 3303.33 1008.58Z" fill-rule="evenodd"/><text fill="#000000" fill-opacity="0" font-family="Arial,Arial_MSFontService,sans-serif" font-size="42.6562" x="3295.49" y="1044.37">𝐼</text><path d="M3327.62 1035.29C3326.55 1035.29 3325.65 1035.57 3324.94 1036.13 3324.22 1036.69 3323.65 1037.51 3323.23 1038.59 3322.8 1039.67 3322.51 1040.98 3322.33 1042.53 3322.15 1044.09 3322.07 1045.85 3322.07 1047.82 3322.07 1050.1 3322.18 1052.07 3322.4 1053.73 3322.62 1055.39 3322.97 1056.76 3323.43 1057.83 3323.9 1058.9 3324.48 1059.69 3325.19 1060.19 3325.89 1060.7 3326.73 1060.95 3327.71 1060.95 3328.63 1060.95 3329.43 1060.71 3330.12 1060.24 3330.81 1059.76 3331.38 1059.03 3331.83 1058.02 3332.28 1057.02 3332.62 1055.75 3332.85 1054.21 3333.08 1052.68 3333.2 1050.86 3333.2 1048.76 3333.2 1046.41 3333.07 1044.38 3332.82 1042.68 3332.57 1040.98 3332.21 1039.59 3331.75 1038.49 3331.29 1037.4 3330.71 1036.59 3330.02 1036.07 3329.32 1035.55 3328.52 1035.29 3327.62 1035.29ZM3327.71 1033.07C3329.53 1033.07 3331.09 1033.41 3332.38 1034.09 3333.68 1034.77 3334.73 1035.74 3335.55 1037 3336.37 1038.27 3336.97 1039.81 3337.35 1041.63 3337.73 1043.45 3337.92 1045.51 3337.92 1047.8 3337.92 1052.9 3337.02 1056.75 3335.22 1059.36 3333.41 1061.96 3330.79 1063.27 3327.37 1063.27 3323.97 1063.27 3321.45 1062.04 3319.79 1059.57 3318.14 1057.11 3317.32 1053.38 3317.32 1048.37 3317.32 1045.76 3317.57 1043.49 3318.08 1041.58 3318.6 1039.67 3319.32 1038.08 3320.24 1036.82 3321.17 1035.56 3322.27 1034.62 3323.54 1034 3324.81 1033.38 3326.2 1033.07 3327.71 1033.07Z" fill-rule="evenodd"/><text fill="#000000" fill-opacity="0" font-family="Arial,Arial_MSFontService,sans-serif" font-size="30.2012" x="3317.32" y="1059.49">0</text><path d="M3274.3 1177.34 3286.8 1177.34 3286.45 1178.88C3285.66 1179.04 3285.1 1179.23 3284.75 1179.44 3284.41 1179.65 3284.1 1179.96 3283.83 1180.38 3283.56 1180.79 3283.28 1181.44 3282.99 1182.33 3282.69 1183.21 3282.33 1184.66 3281.89 1186.66L3276.55 1210.91C3276.28 1212.14 3276.1 1213.11 3276.02 1213.83 3275.93 1214.55 3275.89 1215.2 3275.89 1215.78 3275.89 1216.72 3276.13 1217.38 3276.6 1217.77 3277.06 1218.15 3277.85 1218.39 3278.95 1218.47L3278.61 1220 3266.11 1220 3266.45 1218.47C3267.25 1218.34 3267.84 1218.14 3268.24 1217.86 3268.63 1217.58 3268.97 1217.19 3269.24 1216.69 3269.51 1216.19 3269.76 1215.58 3269.99 1214.86 3270.22 1214.14 3270.56 1212.75 3271.02 1210.69L3276.33 1186.63C3276.79 1184.54 3277.02 1182.87 3277.02 1181.59 3277.02 1180.62 3276.77 1179.93 3276.28 1179.55 3275.79 1179.16 3275.02 1178.94 3273.95 1178.88Z" fill-rule="evenodd"/><text fill="#000000" fill-opacity="0" font-family="Arial,Arial_MSFontService,sans-serif" font-size="42.6562" x="3266.11" y="1214.67">𝐼</text><path d="M3298.24 1205.59C3297.17 1205.59 3296.28 1205.87 3295.56 1206.43 3294.84 1206.99 3294.27 1207.81 3293.85 1208.89 3293.43 1209.97 3293.13 1211.28 3292.95 1212.83 3292.78 1214.39 3292.69 1216.15 3292.69 1218.12 3292.69 1220.4 3292.8 1222.37 3293.02 1224.03 3293.24 1225.69 3293.59 1227.06 3294.05 1228.13 3294.52 1229.2 3295.11 1229.99 3295.81 1230.49 3296.51 1231 3297.36 1231.25 3298.33 1231.25 3299.25 1231.25 3300.06 1231.01 3300.74 1230.54 3301.43 1230.06 3302 1229.33 3302.45 1228.32 3302.91 1227.32 3303.25 1226.05 3303.48 1224.51 3303.7 1222.98 3303.82 1221.16 3303.82 1219.06 3303.82 1216.71 3303.69 1214.68 3303.44 1212.98 3303.19 1211.28 3302.83 1209.89 3302.37 1208.79 3301.91 1207.7 3301.34 1206.89 3300.64 1206.37 3299.94 1205.85 3299.15 1205.59 3298.24 1205.59ZM3298.33 1203.37C3300.16 1203.37 3301.71 1203.71 3303 1204.39 3304.3 1205.07 3305.35 1206.04 3306.17 1207.3 3306.99 1208.57 3307.59 1210.11 3307.97 1211.93 3308.36 1213.75 3308.55 1215.81 3308.55 1218.1 3308.55 1223.2 3307.64 1227.05 3305.84 1229.66 3304.03 1232.26 3301.42 1233.57 3297.99 1233.57 3294.59 1233.57 3292.07 1232.34 3290.42 1229.87 3288.76 1227.41 3287.94 1223.68 3287.94 1218.67 3287.94 1216.06 3288.19 1213.79 3288.71 1211.88 3289.22 1209.97 3289.94 1208.38 3290.86 1207.12 3291.79 1205.86 3292.89 1204.92 3294.16 1204.3 3295.43 1203.68 3296.82 1203.37 3298.33 1203.37Z" fill-rule="evenodd"/><text fill="#000000" fill-opacity="0" font-family="Arial,Arial_MSFontService,sans-serif" font-size="30.2012" x="3287.94" y="1229.79">0</text><path d="M3318.15 1320.04 3330.65 1320.04 3330.31 1321.57C3329.52 1321.74 3328.95 1321.92 3328.6 1322.13 3328.26 1322.34 3327.95 1322.65 3327.68 1323.07 3327.41 1323.49 3327.13 1324.14 3326.84 1325.02 3326.55 1325.91 3326.18 1327.35 3325.75 1329.35L3320.4 1353.6C3320.13 1354.83 3319.95 1355.8 3319.87 1356.52 3319.79 1357.24 3319.75 1357.89 3319.75 1358.48 3319.75 1359.41 3319.98 1360.07 3320.45 1360.46 3320.92 1360.84 3321.7 1361.08 3322.81 1361.16L3322.46 1362.69 3309.96 1362.69 3310.31 1361.16C3311.1 1361.04 3311.69 1360.83 3312.09 1360.55 3312.49 1360.27 3312.82 1359.88 3313.09 1359.38 3313.36 1358.88 3313.61 1358.27 3313.84 1357.55 3314.07 1356.83 3314.41 1355.44 3314.87 1353.38L3320.18 1329.32C3320.64 1327.24 3320.87 1325.56 3320.87 1324.29 3320.87 1323.31 3320.63 1322.63 3320.14 1322.24 3319.65 1321.86 3318.87 1321.63 3317.81 1321.57Z" fill-rule="evenodd"/><text fill="#000000" fill-opacity="0" font-family="Arial,Arial_MSFontService,sans-serif" font-size="42.6562" x="3309.96" y="1357.36">𝐼</text><path d="M3342.1 1348.29C3341.03 1348.29 3340.13 1348.57 3339.41 1349.12 3338.69 1349.68 3338.12 1350.5 3337.7 1351.58 3337.28 1352.66 3336.98 1353.97 3336.81 1355.53 3336.63 1357.08 3336.54 1358.84 3336.54 1360.82 3336.54 1363.1 3336.65 1365.07 3336.88 1366.73 3337.1 1368.39 3337.44 1369.75 3337.91 1370.82 3338.37 1371.89 3338.96 1372.68 3339.66 1373.19 3340.37 1373.69 3341.21 1373.94 3342.19 1373.94 3343.11 1373.94 3343.91 1373.71 3344.6 1373.23 3345.29 1372.76 3345.86 1372.02 3346.31 1371.02 3346.76 1370.02 3347.1 1368.75 3347.33 1367.21 3347.56 1365.67 3347.67 1363.85 3347.67 1361.76 3347.67 1359.4 3347.55 1357.37 3347.29 1355.68 3347.04 1353.98 3346.69 1352.58 3346.23 1351.49 3345.77 1350.39 3345.19 1349.59 3344.49 1349.07 3343.8 1348.55 3343 1348.29 3342.1 1348.29ZM3342.19 1346.06C3344.01 1346.06 3345.57 1346.4 3346.86 1347.08 3348.15 1347.76 3349.21 1348.73 3350.03 1350 3350.84 1351.26 3351.44 1352.8 3351.83 1354.62 3352.21 1356.44 3352.4 1358.5 3352.4 1360.79 3352.4 1365.89 3351.5 1369.74 3349.69 1372.35 3347.89 1374.96 3345.27 1376.26 3341.84 1376.26 3338.45 1376.26 3335.92 1375.03 3334.27 1372.57 3332.62 1370.1 3331.79 1366.37 3331.79 1361.37 3331.79 1358.75 3332.05 1356.49 3332.56 1354.57 3333.07 1352.66 3333.79 1351.07 3334.72 1349.81 3335.64 1348.55 3336.74 1347.61 3338.01 1346.99 3339.28 1346.37 3340.67 1346.06 3342.19 1346.06Z" fill-rule="evenodd"/><text fill="#000000" fill-opacity="0" font-family="Arial,Arial_MSFontService,sans-serif" font-size="30.2012" x="3331.79" y="1372.49">0</text><path d="M3603.16 1525.78 3615.66 1525.78 3615.32 1527.31C3614.53 1527.47 3613.96 1527.66 3613.62 1527.87 3613.27 1528.08 3612.96 1528.39 3612.69 1528.81 3612.42 1529.22 3612.14 1529.88 3611.85 1530.76 3611.56 1531.65 3611.19 1533.09 3610.76 1535.09L3605.41 1559.34C3605.14 1560.57 3604.96 1561.54 3604.88 1562.26 3604.8 1562.98 3604.76 1563.63 3604.76 1564.21 3604.76 1565.15 3604.99 1565.81 3605.46 1566.2 3605.93 1566.58 3606.71 1566.82 3607.82 1566.9L3607.47 1568.43 3594.97 1568.43 3595.32 1566.9C3596.11 1566.78 3596.7 1566.57 3597.1 1566.29 3597.5 1566.01 3597.83 1565.62 3598.1 1565.12 3598.37 1564.62 3598.62 1564.01 3598.85 1563.29 3599.08 1562.57 3599.42 1561.18 3599.88 1559.12L3605.19 1535.06C3605.65 1532.97 3605.88 1531.3 3605.88 1530.03 3605.88 1529.05 3605.64 1528.36 3605.15 1527.98 3604.66 1527.59 3603.88 1527.37 3602.82 1527.31Z" fill-rule="evenodd"/><text fill="#000000" fill-opacity="0" font-family="Arial,Arial_MSFontService,sans-serif" font-size="42.6562" x="3594.97" y="1563.1">𝐼</text><path d="M3630.37 1555.42C3630 1555.42 3629.58 1555.43 3629.1 1555.45 3628.63 1555.46 3628.17 1555.47 3627.73 1555.47L3625 1567.47 3627.73 1567.47C3630.76 1567.47 3633.08 1566.86 3634.7 1565.62 3636.32 1564.39 3637.14 1562.52 3637.14 1560.01 3637.14 1559.17 3637.01 1558.46 3636.76 1557.87 3636.5 1557.28 3636.1 1556.8 3635.55 1556.44 3635 1556.08 3634.3 1555.82 3633.45 1555.66 3632.6 1555.5 3631.57 1555.42 3630.37 1555.42ZM3620.68 1552.99 3631.21 1552.99C3633.23 1552.99 3634.92 1553.17 3636.26 1553.52 3637.61 1553.87 3638.69 1554.36 3639.5 1554.98 3640.31 1555.59 3640.88 1556.33 3641.22 1557.17 3641.56 1558.01 3641.73 1558.92 3641.73 1559.9 3641.73 1562.16 3641.03 1564.05 3639.65 1565.57 3638.26 1567.08 3636.16 1568.24 3633.35 1569.03 3633.32 1569.09 3633.3 1569.15 3633.3 1569.19 3633.3 1569.24 3633.3 1569.29 3633.3 1569.35 3634.02 1569.84 3634.6 1570.45 3635.04 1571.19 3635.47 1571.92 3635.85 1572.89 3636.17 1574.1 3636.54 1575.54 3636.84 1576.7 3637.08 1577.59 3637.31 1578.48 3637.59 1579.18 3637.9 1579.69 3638.22 1580.2 3638.62 1580.58 3639.1 1580.82 3639.58 1581.05 3640.23 1581.23 3641.06 1581.36L3640.74 1582.76 3634.06 1582.76C3633.78 1582.16 3633.52 1581.43 3633.26 1580.56 3633 1579.7 3632.77 1578.85 3632.57 1578.03 3632.26 1576.82 3632.01 1575.78 3631.8 1574.9 3631.59 1574.02 3631.39 1573.27 3631.19 1572.67 3630.99 1572.06 3630.79 1571.58 3630.57 1571.22 3630.36 1570.86 3630.11 1570.58 3629.81 1570.36 3629.52 1570.15 3629.17 1570.01 3628.76 1569.94 3628.35 1569.87 3627.84 1569.82 3627.24 1569.79L3624.51 1569.79C3624.33 1570.6 3624.13 1571.47 3623.92 1572.41 3623.7 1573.34 3623.49 1574.25 3623.29 1575.14 3623.08 1576.02 3622.91 1576.85 3622.77 1577.63 3622.63 1578.4 3622.56 1579.02 3622.56 1579.5 3622.56 1579.82 3622.6 1580.09 3622.68 1580.31 3622.75 1580.53 3622.89 1580.71 3623.08 1580.85 3623.27 1580.99 3623.53 1581.1 3623.86 1581.17 3624.19 1581.25 3624.6 1581.31 3625.11 1581.36L3624.81 1582.76 3615.01 1582.76 3615.26 1581.36C3615.74 1581.28 3616.13 1581.18 3616.42 1581.07 3616.72 1580.95 3616.99 1580.73 3617.23 1580.4 3617.46 1580.07 3617.68 1579.58 3617.88 1578.92 3618.08 1578.27 3618.31 1577.35 3618.57 1576.17L3622.33 1559.44C3622.49 1558.77 3622.6 1558.17 3622.68 1557.65 3622.75 1557.13 3622.79 1556.7 3622.79 1556.36 3622.79 1555.68 3622.62 1555.19 3622.28 1554.9 3621.93 1554.6 3621.28 1554.45 3620.34 1554.44Z" fill-rule="evenodd"/><text fill="#000000" fill-opacity="0" font-family="Arial,Arial_MSFontService,sans-serif" font-size="29.7651" x="3615.01" y="1579.03">𝑅</text><path d="M3627.12 1519.38 3633.04 1519.38 3633.04 1521.17 3625.4 1539.55 3622.71 1538.75Z" fill-rule="evenodd"/><text fill="#000000" fill-opacity="0" font-family="Arial,Arial_MSFontService,sans-serif" font-size="20.1724" x="3622.71" y="1537.03">′</text><path d="M3396.15 1576.21C3395.05 1576.21 3393.88 1576.26 3392.65 1576.34L3388.65 1594.43 3392.34 1594.43C3395.36 1594.43 3397.74 1594.03 3399.49 1593.21 3401.24 1592.4 3402.63 1591.07 3403.65 1589.21 3404.67 1587.36 3405.18 1585.36 3405.18 1583.21 3405.18 1582.32 3405.1 1581.52 3404.93 1580.82 3404.76 1580.13 3404.55 1579.55 3404.27 1579.09 3404 1578.63 3403.66 1578.23 3403.24 1577.87 3402.83 1577.52 3402.31 1577.21 3401.68 1576.95 3401.06 1576.69 3400.33 1576.5 3399.51 1576.39 3398.69 1576.27 3397.57 1576.21 3396.15 1576.21ZM3383.62 1573.46 3397.52 1573.46C3399.73 1573.46 3401.54 1573.6 3402.93 1573.86 3404.33 1574.12 3405.52 1574.51 3406.51 1575.03 3407.5 1575.55 3408.33 1576.22 3408.99 1577.04 3409.66 1577.87 3410.16 1578.79 3410.49 1579.82 3410.83 1580.86 3410.99 1581.95 3410.99 1583.12 3410.99 1586.33 3410.01 1589.06 3408.06 1591.31 3406.1 1593.56 3403.21 1595.27 3399.4 1596.43L3399.4 1596.78C3400.4 1597.53 3401.21 1598.42 3401.82 1599.46 3402.44 1600.51 3402.93 1601.95 3403.31 1603.81L3404.02 1607.43C3404.25 1608.58 3404.51 1609.61 3404.81 1610.53 3405.1 1611.44 3405.45 1612.17 3405.85 1612.71 3406.26 1613.26 3406.72 1613.66 3407.23 1613.93 3407.74 1614.2 3408.48 1614.42 3409.46 1614.59L3409.15 1616.12 3400.49 1616.12C3399.83 1614.27 3399.23 1612.06 3398.71 1609.5L3397.34 1602.87C3397.11 1601.73 3396.83 1600.76 3396.51 1599.98 3396.19 1599.2 3395.8 1598.6 3395.35 1598.17 3394.91 1597.74 3394.38 1597.46 3393.79 1597.32 3393.2 1597.19 3392.47 1597.12 3391.62 1597.12L3388.06 1597.12 3385.87 1607.03C3385.68 1607.84 3385.55 1608.49 3385.48 1608.96 3385.41 1609.44 3385.34 1609.95 3385.29 1610.48 3385.24 1611.01 3385.21 1611.49 3385.21 1611.9 3385.21 1612.55 3385.32 1613.05 3385.52 1613.42 3385.73 1613.78 3386.05 1614.05 3386.46 1614.21 3386.88 1614.38 3387.6 1614.51 3388.62 1614.59L3388.27 1616.12 3375.43 1616.12 3375.77 1614.59C3376.57 1614.46 3377.16 1614.26 3377.56 1613.98 3377.95 1613.7 3378.29 1613.31 3378.56 1612.81 3378.83 1612.31 3379.08 1611.7 3379.31 1610.98 3379.54 1610.26 3379.88 1608.87 3380.34 1606.81L3385.65 1582.75C3386.11 1580.66 3386.34 1579.02 3386.34 1577.81 3386.34 1576.79 3386.1 1576.08 3385.62 1575.68 3385.14 1575.29 3384.36 1575.06 3383.27 1575Z" fill-rule="evenodd"/><text fill="#000000" fill-opacity="0" font-family="Arial,Arial_MSFontService,sans-serif" font-size="42.6562" x="3375.43" y="1610.79">𝑅</text><path d="M3237.5 1244.06 3294.09 1244.06 3294.09 1250.94 3237.5 1250.94ZM3289.51 1233.75 3317.01 1247.5 3289.51 1261.25Z"/><path d="M3464.5 1240.06 3521.09 1240.06 3521.09 1246.94 3464.5 1246.94ZM3516.51 1229.75 3544.01 1243.5 3516.51 1257.25Z"/><path d="M3603.94 1292.5 3603.94 1336.43 3597.06 1336.43 3597.06 1292.5ZM3614.25 1331.85 3600.5 1359.35 3586.75 1331.85Z"/><path d="M3596.16 1172.8 3596.09 1120.42 3602.97 1120.41 3603.03 1172.79ZM3585.78 1125.02 3599.5 1097.5 3613.28 1124.98Z"/><path d="M3188.16 1363.8 3188.09 1311.42 3194.97 1311.41 3195.03 1363.79ZM3177.78 1316.02 3191.5 1288.5 3205.28 1315.98Z"/><path d="M3194.94 1135.5 3194.94 1179.43 3188.06 1179.43 3188.06 1135.5ZM3205.25 1174.85 3191.5 1202.35 3177.75 1174.85Z"/><path d="M3075.94 1387.5 3075.94 1431.43 3069.06 1431.43 3069.06 1387.5ZM3086.25 1426.85 3072.5 1454.35 3058.75 1426.85Z"/><path d="M1.91869e-05-3.4375 41.7405-3.43727 41.7404 3.43773-1.91869e-05 3.4375ZM37.1572-13.7498 64.6571 0.000360892 37.157 13.7502Z" transform="matrix(-1 0 0 1 3155.16 1246.5)"/><path d="M1.91869e-05-3.4375 41.7405-3.43727 41.7404 3.43773-1.91869e-05 3.4375ZM37.1572-13.7498 64.6571 0.000360892 37.157 13.7502Z" transform="matrix(-1 0 0 1 3705.16 1242.5)"/><path d="M3744.16 1469.8 3744.09 1417.42 3750.97 1417.41 3751.03 1469.79ZM3733.78 1422.02 3747.5 1394.5 3761.28 1421.98Z"/></g></svg>