<svg xmlns="http://www.w3.org/2000/svg" viewBox="0 0 342 330" width="144" height="139"><path fill="#000" fill-rule="evenodd" d="M66 320C70 317 75 298 72 296C71 295 71 295 76 295C80 295 81 295 79 296C78 297 77 299 76 302L74 308L77 308C80 308 85 303 85 301C85 296 92 292 94 296C95 298 92 300 91 298C89 296 89 296 86 302C85 304 83 306 82 307C80 309 80 309 83 314C85 318 87 321 88 321C90 322 90 322 87 322C84 322 84 321 81 316C77 308 74 307 72 314C71 319 71 319 73 321C74 322 74 322 69 322C64 322 64 322 66 320ZM104 321C102 318 102 317 104 318C106 320 108 320 110 318C113 316 112 313 110 312C108 312 108 312 111 310C113 309 114 309 114 307C113 304 110 303 107 306C106 308 105 308 105 307C105 304 106 304 111 303C117 303 120 308 114 311C112 312 112 312 113 313C116 315 115 318 113 320C110 322 106 323 104 321ZM121 321C119 318 121 310 125 306C129 303 131 302 133 305C134 306 134 306 134 305C134 304 135 303 136 303C137 303 137 303 135 312C133 320 133 321 135 318C137 317 137 317 136 318C135 322 130 323 130 320L130 318L127 320C124 322 123 323 121 321ZM142 320C137 315 144 302 151 303C154 304 154 301 150 297C148 294 148 294 150 295C153 296 156 303 156 308C156 317 147 326 142 320ZM161 321C159 318 161 310 165 306C169 303 171 302 173 305C174 306 174 306 174 305C174 304 175 303 176 303C177 303 177 303 175 312C173 320 173 321 175 318C177 317 177 317 176 318C175 322 170 323 170 320L170 318L167 320C164 322 163 323 161 321ZM189 320C189 319 189 317 190 316C191 313 191 312 188 314C187 315 185 315 184 315C181 314 181 314 181 309C182 306 182 305 180 305C179 305 179 305 180 304C185 302 186 303 185 307C184 312 184 313 186 313C190 313 192 311 193 306C193 304 194 303 195 303C197 303 197 304 194 311C193 315 192 319 192 320C192 321 192 322 191 322C190 322 189 322 189 320ZM201 320C196 315 204 302 211 303C217 305 213 311 205 313C202 313 202 314 202 316C203 320 205 321 209 319L212 317L210 319C206 323 203 323 201 320ZM231 320C233 319 236 317 237 315L240 312L237 313C231 314 228 307 231 301C235 295 240 293 244 298C250 305 242 319 230 321C228 322 228 322 231 320ZM246 321C245 319 248 317 249 319C250 320 250 322 248 322C248 322 247 322 246 321ZM260 321C262 320 263 318 265 311C269 298 270 297 267 297C265 297 266 296 268 296C270 295 272 295 273 295C273 295 271 301 269 307C266 319 266 319 268 321C269 322 269 322 263 322C258 322 258 322 260 321ZM277 321C276 319 279 317 280 319C281 320 281 322 279 322C279 322 278 322 277 321ZM289 321C287 319 290 318 293 319C297 320 297 320 299 319C303 315 300 308 295 308C293 308 295 307 298 306C303 304 304 303 304 301C304 297 301 296 297 298L294 300L296 298C299 294 303 294 305 297C308 300 307 303 303 305C300 306 300 306 302 308C307 313 302 321 294 322C291 322 289 322 289 321ZM150 317C153 312 153 305 150 304C148 304 146 307 144 313C142 321 146 324 150 317ZM128 318C129 317 130 316 130 317C131 317 131 317 131 316C131 316 131 314 132 311C134 304 131 302 127 307C125 310 123 316 123 318C124 321 127 320 128 318ZM168 318C169 317 170 316 170 317C171 317 171 317 171 316C171 316 171 314 172 311C174 304 171 302 167 307C165 310 163 316 163 318C164 321 167 320 168 318ZM193 320C193 319 194 319 195 318C196 317 196 317 195 318C194 320 193 320 193 320ZM209 309C212 307 212 304 209 304C207 304 203 308 203 311C203 312 207 312 209 309ZM240 310C242 309 244 300 242 298C241 295 238 296 236 300C232 308 235 315 240 310ZM12 242C10 239 8 237 8 237C14 232 43 214 55 207C56 207 60 204 64 201C69 199 73 196 74 196C75 195 82 191 90 186C98 181 110 174 118 169C131 162 137 158 161 144C168 140 177 134 182 131C186 129 197 122 206 116C226 105 230 102 232 101C234 101 233 99 231 96C227 91 222 81 221 74C220 72 219 69 219 68C218 67 197 67 122 67L26 67L26 61L26 55L159 55C281 55 292 55 295 57C305 62 303 74 291 79C289 80 282 84 276 88C270 92 259 99 250 104C242 109 230 117 223 121C216 125 207 131 203 133C199 136 189 141 182 146C175 151 166 156 163 157C160 159 151 165 144 169C136 174 125 180 120 184C115 187 103 194 93 200C84 206 75 211 74 212C73 212 68 215 64 218C59 221 51 226 45 229C40 233 34 237 31 238C25 243 17 248 17 248C16 248 14 245 12 242ZM31 230C38 225 62 211 72 205C74 204 80 200 86 196C91 193 96 190 97 190C97 190 98 190 98 189C98 189 107 183 117 177C127 171 136 166 137 165C139 164 146 160 154 155C161 151 174 143 181 139C232 107 247 98 251 96C253 96 255 94 256 93C258 92 262 89 266 87C270 85 276 82 278 80C280 78 285 76 288 74C299 68 301 62 294 59C289 56 28 56 28 58C28 60 43 60 154 60C287 60 284 60 286 65C288 70 287 70 271 80C262 86 247 95 241 98C237 101 227 107 214 115C209 118 192 128 174 138C157 149 137 161 130 165C43 217 14 235 14 238C14 241 15 240 31 230ZM25 207C25 207 28 204 32 200C36 196 42 191 44 189C50 184 53 183 48 189C46 190 45 192 45 193C46 193 47 193 68 180C79 173 86 170 86 171C88 172 87 173 83 175C75 179 49 196 49 197C49 197 50 197 50 197C51 197 53 196 55 196C60 196 58 198 53 199C50 200 44 202 38 204C29 208 25 209 25 207ZM312 205C299 199 303 179 317 177C332 176 340 195 328 204C324 207 317 208 312 205ZM265 205C267 205 268 203 271 191C275 176 275 177 272 177C271 176 274 176 279 176C293 176 297 180 290 187C287 190 287 191 289 192C291 193 292 198 289 201C287 205 283 206 272 206C267 206 264 205 265 205ZM284 202C290 197 288 191 279 191L275 192L273 198L271 205L276 205C280 205 282 204 284 202ZM327 200C330 197 331 196 331 192C331 188 330 187 327 184C324 181 323 180 319 180C313 180 307 186 307 192C307 196 308 197 311 200C314 203 315 204 319 204C323 204 324 203 327 200ZM154 202C156 202 157 200 160 188C164 173 164 174 161 174C160 173 162 173 166 173C170 173 172 173 171 174C167 174 167 175 164 189L160 202L164 202C169 202 173 200 175 196C176 191 176 194 174 199L173 203L162 203C156 203 153 202 154 202ZM315 196C312 193 315 188 318 188C321 188 323 190 323 192C323 195 321 197 318 197C317 197 316 196 315 196ZM286 187C292 183 290 177 282 177C278 177 278 177 277 182C276 184 276 187 275 188C275 191 282 191 286 187ZM107 167C109 167 109 166 109 159C109 150 109 150 107 151C105 151 105 151 107 150C109 149 110 148 111 148C111 148 111 152 111 157C111 166 111 167 113 167C114 168 113 168 110 168C107 168 106 168 107 167ZM86 160C89 160 89 159 93 146C97 131 97 132 94 132C93 131 95 131 98 131C102 131 104 131 103 132C100 132 100 133 97 145C93 159 93 160 96 160C97 161 95 161 91 161C87 161 85 161 86 160ZM85 109C87 109 87 108 87 101C87 92 87 92 85 93C83 93 83 93 85 92C87 91 88 90 89 90C89 90 89 94 89 99C89 108 89 109 91 109C92 110 91 110 88 110C85 110 84 110 85 109ZM197 106C199 99 199 98 197 98C192 96 191 88 196 82C197 79 197 80 196 84C193 89 193 91 195 93C198 97 200 96 202 91C206 82 212 78 215 82C220 87 212 99 204 99C202 99 201 100 200 103C200 105 199 108 198 108C197 108 197 108 197 106ZM64 102C67 102 67 101 71 88C75 73 75 74 72 74C71 73 73 73 76 73C80 73 82 73 81 74C78 74 78 75 75 87C71 101 71 102 74 102C75 103 73 103 69 103C65 103 63 103 64 102ZM244 94C248 92 258 86 266 81C281 72 284 70 282 68C282 67 227 67 225 68C222 69 225 84 229 88C229 89 230 90 230 90C230 92 234 96 236 97C238 98 238 98 244 94ZM155 96C155 95 156 95 157 95C159 95 161 93 161 92C161 91 149 91 134 91C110 91 106 91 106 90C106 88 110 88 133 88C149 88 159 87 159 86C159 86 158 85 157 85C156 85 155 84 155 84C155 83 156 83 158 83C167 85 183 88 184 88C186 88 184 90 182 90C181 90 175 92 168 94C155 97 155 97 155 96ZM211 94C219 88 216 80 208 84C206 85 202 92 202 95C202 97 207 96 211 94ZM153 36C152 35 152 33 155 23C159 8 158 9 156 9C155 8 156 8 158 8C162 8 162 7 158 22C156 29 155 35 155 36C155 38 157 37 158 34C159 32 159 32 159 34C159 37 155 39 153 36Z"/></svg>
