<?xml version="1.0" encoding="utf-8" standalone="no"?>
<!DOCTYPE svg PUBLIC "-//W3C//DTD SVG 1.1//EN"
  "http://www.w3.org/Graphics/SVG/1.1/DTD/svg11.dtd">
<svg xmlns:xlink="http://www.w3.org/1999/xlink" width="720pt" height="432pt" viewBox="0 0 720 432" xmlns="http://www.w3.org/2000/svg" version="1.1">
 <metadata>
  <rdf:RDF xmlns:dc="http://purl.org/dc/elements/1.1/" xmlns:cc="http://creativecommons.org/ns#" xmlns:rdf="http://www.w3.org/1999/02/22-rdf-syntax-ns#">
   <cc:Work>
    <dc:type rdf:resource="http://purl.org/dc/dcmitype/StillImage"/>
    <dc:date>2024-12-20T15:31:54.254119</dc:date>
    <dc:format>image/svg+xml</dc:format>
    <dc:creator>
     <cc:Agent>
      <dc:title>Matplotlib v3.9.2, https://matplotlib.org/</dc:title>
     </cc:Agent>
    </dc:creator>
   </cc:Work>
  </rdf:RDF>
 </metadata>
 <defs>
  <style type="text/css">*{stroke-linejoin: round; stroke-linecap: butt}</style>
 </defs>
 <g id="figure_1">
  <g id="patch_1">
   <path d="M 0 432 
L 720 432 
L 720 0 
L 0 0 
z
" style="fill: #ffffff"/>
  </g>
  <g id="axes_1">
   <g id="patch_2">
    <path d="M 90 384.48 
L 648 384.48 
L 648 51.84 
L 90 51.84 
z
" style="fill: #ffffff"/>
   </g>
   <g id="matplotlib.axis_1">
    <g id="xtick_1">
     <g id="line2d_1">
      <path d="M 110.239669 384.48 
L 110.239669 51.84 
" clip-path="url(#p1893072e1d)" style="fill: none; stroke: #b0b0b0; stroke-width: 0.8; stroke-linecap: square"/>
     </g>
     <g id="line2d_2">
      <defs>
       <path id="m5891a386d7" d="M 0 0 
L 0 3.5 
" style="stroke: #000000; stroke-width: 0.8"/>
      </defs>
      <g>
       <use xlink:href="#m5891a386d7" x="110.239669" y="384.48" style="stroke: #000000; stroke-width: 0.8"/>
      </g>
     </g>
     <g id="text_1">
      <!-- 0 -->
      <g transform="translate(107.058419 399.078438) scale(0.1 -0.1)">
       <defs>
        <path id="DejaVuSans-30" d="M 2034 4250 
Q 1547 4250 1301 3770 
Q 1056 3291 1056 2328 
Q 1056 1369 1301 889 
Q 1547 409 2034 409 
Q 2525 409 2770 889 
Q 3016 1369 3016 2328 
Q 3016 3291 2770 3770 
Q 2525 4250 2034 4250 
z
M 2034 4750 
Q 2819 4750 3233 4129 
Q 3647 3509 3647 2328 
Q 3647 1150 3233 529 
Q 2819 -91 2034 -91 
Q 1250 -91 836 529 
Q 422 1150 422 2328 
Q 422 3509 836 4129 
Q 1250 4750 2034 4750 
z
" transform="scale(0.015625)"/>
       </defs>
       <use xlink:href="#DejaVuSans-30"/>
      </g>
     </g>
    </g>
    <g id="xtick_2">
     <g id="line2d_3">
      <path d="M 212.719008 384.48 
L 212.719008 51.84 
" clip-path="url(#p1893072e1d)" style="fill: none; stroke: #b0b0b0; stroke-width: 0.8; stroke-linecap: square"/>
     </g>
     <g id="line2d_4">
      <g>
       <use xlink:href="#m5891a386d7" x="212.719008" y="384.48" style="stroke: #000000; stroke-width: 0.8"/>
      </g>
     </g>
     <g id="text_2">
      <!-- 2 -->
      <g transform="translate(209.537758 399.078438) scale(0.1 -0.1)">
       <defs>
        <path id="DejaVuSans-32" d="M 1228 531 
L 3431 531 
L 3431 0 
L 469 0 
L 469 531 
Q 828 903 1448 1529 
Q 2069 2156 2228 2338 
Q 2531 2678 2651 2914 
Q 2772 3150 2772 3378 
Q 2772 3750 2511 3984 
Q 2250 4219 1831 4219 
Q 1534 4219 1204 4116 
Q 875 4013 500 3803 
L 500 4441 
Q 881 4594 1212 4672 
Q 1544 4750 1819 4750 
Q 2544 4750 2975 4387 
Q 3406 4025 3406 3419 
Q 3406 3131 3298 2873 
Q 3191 2616 2906 2266 
Q 2828 2175 2409 1742 
Q 1991 1309 1228 531 
z
" transform="scale(0.015625)"/>
       </defs>
       <use xlink:href="#DejaVuSans-32"/>
      </g>
     </g>
    </g>
    <g id="xtick_3">
     <g id="line2d_5">
      <path d="M 315.198347 384.48 
L 315.198347 51.84 
" clip-path="url(#p1893072e1d)" style="fill: none; stroke: #b0b0b0; stroke-width: 0.8; stroke-linecap: square"/>
     </g>
     <g id="line2d_6">
      <g>
       <use xlink:href="#m5891a386d7" x="315.198347" y="384.48" style="stroke: #000000; stroke-width: 0.8"/>
      </g>
     </g>
     <g id="text_3">
      <!-- 4 -->
      <g transform="translate(312.017097 399.078438) scale(0.1 -0.1)">
       <defs>
        <path id="DejaVuSans-34" d="M 2419 4116 
L 825 1625 
L 2419 1625 
L 2419 4116 
z
M 2253 4666 
L 3047 4666 
L 3047 1625 
L 3713 1625 
L 3713 1100 
L 3047 1100 
L 3047 0 
L 2419 0 
L 2419 1100 
L 313 1100 
L 313 1709 
L 2253 4666 
z
" transform="scale(0.015625)"/>
       </defs>
       <use xlink:href="#DejaVuSans-34"/>
      </g>
     </g>
    </g>
    <g id="xtick_4">
     <g id="line2d_7">
      <path d="M 417.677686 384.48 
L 417.677686 51.84 
" clip-path="url(#p1893072e1d)" style="fill: none; stroke: #b0b0b0; stroke-width: 0.8; stroke-linecap: square"/>
     </g>
     <g id="line2d_8">
      <g>
       <use xlink:href="#m5891a386d7" x="417.677686" y="384.48" style="stroke: #000000; stroke-width: 0.8"/>
      </g>
     </g>
     <g id="text_4">
      <!-- 6 -->
      <g transform="translate(414.496436 399.078438) scale(0.1 -0.1)">
       <defs>
        <path id="DejaVuSans-36" d="M 2113 2584 
Q 1688 2584 1439 2293 
Q 1191 2003 1191 1497 
Q 1191 994 1439 701 
Q 1688 409 2113 409 
Q 2538 409 2786 701 
Q 3034 994 3034 1497 
Q 3034 2003 2786 2293 
Q 2538 2584 2113 2584 
z
M 3366 4563 
L 3366 3988 
Q 3128 4100 2886 4159 
Q 2644 4219 2406 4219 
Q 1781 4219 1451 3797 
Q 1122 3375 1075 2522 
Q 1259 2794 1537 2939 
Q 1816 3084 2150 3084 
Q 2853 3084 3261 2657 
Q 3669 2231 3669 1497 
Q 3669 778 3244 343 
Q 2819 -91 2113 -91 
Q 1303 -91 875 529 
Q 447 1150 447 2328 
Q 447 3434 972 4092 
Q 1497 4750 2381 4750 
Q 2619 4750 2861 4703 
Q 3103 4656 3366 4563 
z
" transform="scale(0.015625)"/>
       </defs>
       <use xlink:href="#DejaVuSans-36"/>
      </g>
     </g>
    </g>
    <g id="xtick_5">
     <g id="line2d_9">
      <path d="M 520.157025 384.48 
L 520.157025 51.84 
" clip-path="url(#p1893072e1d)" style="fill: none; stroke: #b0b0b0; stroke-width: 0.8; stroke-linecap: square"/>
     </g>
     <g id="line2d_10">
      <g>
       <use xlink:href="#m5891a386d7" x="520.157025" y="384.48" style="stroke: #000000; stroke-width: 0.8"/>
      </g>
     </g>
     <g id="text_5">
      <!-- 8 -->
      <g transform="translate(516.975775 399.078438) scale(0.1 -0.1)">
       <defs>
        <path id="DejaVuSans-38" d="M 2034 2216 
Q 1584 2216 1326 1975 
Q 1069 1734 1069 1313 
Q 1069 891 1326 650 
Q 1584 409 2034 409 
Q 2484 409 2743 651 
Q 3003 894 3003 1313 
Q 3003 1734 2745 1975 
Q 2488 2216 2034 2216 
z
M 1403 2484 
Q 997 2584 770 2862 
Q 544 3141 544 3541 
Q 544 4100 942 4425 
Q 1341 4750 2034 4750 
Q 2731 4750 3128 4425 
Q 3525 4100 3525 3541 
Q 3525 3141 3298 2862 
Q 3072 2584 2669 2484 
Q 3125 2378 3379 2068 
Q 3634 1759 3634 1313 
Q 3634 634 3220 271 
Q 2806 -91 2034 -91 
Q 1263 -91 848 271 
Q 434 634 434 1313 
Q 434 1759 690 2068 
Q 947 2378 1403 2484 
z
M 1172 3481 
Q 1172 3119 1398 2916 
Q 1625 2713 2034 2713 
Q 2441 2713 2670 2916 
Q 2900 3119 2900 3481 
Q 2900 3844 2670 4047 
Q 2441 4250 2034 4250 
Q 1625 4250 1398 4047 
Q 1172 3844 1172 3481 
z
" transform="scale(0.015625)"/>
       </defs>
       <use xlink:href="#DejaVuSans-38"/>
      </g>
     </g>
    </g>
    <g id="xtick_6">
     <g id="line2d_11">
      <path d="M 622.636364 384.48 
L 622.636364 51.84 
" clip-path="url(#p1893072e1d)" style="fill: none; stroke: #b0b0b0; stroke-width: 0.8; stroke-linecap: square"/>
     </g>
     <g id="line2d_12">
      <g>
       <use xlink:href="#m5891a386d7" x="622.636364" y="384.48" style="stroke: #000000; stroke-width: 0.8"/>
      </g>
     </g>
     <g id="text_6">
      <!-- 10 -->
      <g transform="translate(616.273864 399.078438) scale(0.1 -0.1)">
       <defs>
        <path id="DejaVuSans-31" d="M 794 531 
L 1825 531 
L 1825 4091 
L 703 3866 
L 703 4441 
L 1819 4666 
L 2450 4666 
L 2450 531 
L 3481 531 
L 3481 0 
L 794 0 
L 794 531 
z
" transform="scale(0.015625)"/>
       </defs>
       <use xlink:href="#DejaVuSans-31"/>
       <use xlink:href="#DejaVuSans-30" x="63.623047"/>
      </g>
     </g>
    </g>
    <g id="text_7">
     <!-- $k$ -->
     <g transform="translate(364.94 415.795938) scale(0.14 -0.14)">
      <defs>
       <path id="DejaVuSans-Oblique-6b" d="M 1172 4863 
L 1747 4863 
L 1197 2028 
L 3169 3500 
L 3916 3500 
L 1716 1825 
L 3322 0 
L 2625 0 
L 1131 1709 
L 800 0 
L 225 0 
L 1172 4863 
z
" transform="scale(0.015625)"/>
      </defs>
      <use xlink:href="#DejaVuSans-Oblique-6b" transform="translate(0 0.015625)"/>
     </g>
    </g>
   </g>
   <g id="matplotlib.axis_2">
    <g id="ytick_1">
     <g id="line2d_13">
      <path d="M 90 332.863448 
L 648 332.863448 
" clip-path="url(#p1893072e1d)" style="fill: none; stroke: #b0b0b0; stroke-width: 0.8; stroke-linecap: square"/>
     </g>
     <g id="line2d_14">
      <defs>
       <path id="m51f6291062" d="M 0 0 
L -3.5 0 
" style="stroke: #000000; stroke-width: 0.8"/>
      </defs>
      <g>
       <use xlink:href="#m51f6291062" x="90" y="332.863448" style="stroke: #000000; stroke-width: 0.8"/>
      </g>
     </g>
     <g id="text_8">
      <!-- −0.5 -->
      <g transform="translate(58.717187 336.662667) scale(0.1 -0.1)">
       <defs>
        <path id="DejaVuSans-2212" d="M 678 2272 
L 4684 2272 
L 4684 1741 
L 678 1741 
L 678 2272 
z
" transform="scale(0.015625)"/>
        <path id="DejaVuSans-2e" d="M 684 794 
L 1344 794 
L 1344 0 
L 684 0 
L 684 794 
z
" transform="scale(0.015625)"/>
        <path id="DejaVuSans-35" d="M 691 4666 
L 3169 4666 
L 3169 4134 
L 1269 4134 
L 1269 2991 
Q 1406 3038 1543 3061 
Q 1681 3084 1819 3084 
Q 2600 3084 3056 2656 
Q 3513 2228 3513 1497 
Q 3513 744 3044 326 
Q 2575 -91 1722 -91 
Q 1428 -91 1123 -41 
Q 819 9 494 109 
L 494 744 
Q 775 591 1075 516 
Q 1375 441 1709 441 
Q 2250 441 2565 725 
Q 2881 1009 2881 1497 
Q 2881 1984 2565 2268 
Q 2250 2553 1709 2553 
Q 1456 2553 1204 2497 
Q 953 2441 691 2322 
L 691 4666 
z
" transform="scale(0.015625)"/>
       </defs>
       <use xlink:href="#DejaVuSans-2212"/>
       <use xlink:href="#DejaVuSans-30" x="83.789062"/>
       <use xlink:href="#DejaVuSans-2e" x="147.412109"/>
       <use xlink:href="#DejaVuSans-35" x="179.199219"/>
      </g>
     </g>
    </g>
    <g id="ytick_2">
     <g id="line2d_15">
      <path d="M 90 275.511724 
L 648 275.511724 
" clip-path="url(#p1893072e1d)" style="fill: none; stroke: #b0b0b0; stroke-width: 0.8; stroke-linecap: square"/>
     </g>
     <g id="line2d_16">
      <g>
       <use xlink:href="#m51f6291062" x="90" y="275.511724" style="stroke: #000000; stroke-width: 0.8"/>
      </g>
     </g>
     <g id="text_9">
      <!-- 0.0 -->
      <g transform="translate(67.096875 279.310943) scale(0.1 -0.1)">
       <use xlink:href="#DejaVuSans-30"/>
       <use xlink:href="#DejaVuSans-2e" x="63.623047"/>
       <use xlink:href="#DejaVuSans-30" x="95.410156"/>
      </g>
     </g>
    </g>
    <g id="ytick_3">
     <g id="line2d_17">
      <path d="M 90 218.16 
L 648 218.16 
" clip-path="url(#p1893072e1d)" style="fill: none; stroke: #b0b0b0; stroke-width: 0.8; stroke-linecap: square"/>
     </g>
     <g id="line2d_18">
      <g>
       <use xlink:href="#m51f6291062" x="90" y="218.16" style="stroke: #000000; stroke-width: 0.8"/>
      </g>
     </g>
     <g id="text_10">
      <!-- 0.5 -->
      <g transform="translate(67.096875 221.959219) scale(0.1 -0.1)">
       <use xlink:href="#DejaVuSans-30"/>
       <use xlink:href="#DejaVuSans-2e" x="63.623047"/>
       <use xlink:href="#DejaVuSans-35" x="95.410156"/>
      </g>
     </g>
    </g>
    <g id="ytick_4">
     <g id="line2d_19">
      <path d="M 90 160.808276 
L 648 160.808276 
" clip-path="url(#p1893072e1d)" style="fill: none; stroke: #b0b0b0; stroke-width: 0.8; stroke-linecap: square"/>
     </g>
     <g id="line2d_20">
      <g>
       <use xlink:href="#m51f6291062" x="90" y="160.808276" style="stroke: #000000; stroke-width: 0.8"/>
      </g>
     </g>
     <g id="text_11">
      <!-- 1.0 -->
      <g transform="translate(67.096875 164.607495) scale(0.1 -0.1)">
       <use xlink:href="#DejaVuSans-31"/>
       <use xlink:href="#DejaVuSans-2e" x="63.623047"/>
       <use xlink:href="#DejaVuSans-30" x="95.410156"/>
      </g>
     </g>
    </g>
    <g id="ytick_5">
     <g id="line2d_21">
      <path d="M 90 103.456552 
L 648 103.456552 
" clip-path="url(#p1893072e1d)" style="fill: none; stroke: #b0b0b0; stroke-width: 0.8; stroke-linecap: square"/>
     </g>
     <g id="line2d_22">
      <g>
       <use xlink:href="#m51f6291062" x="90" y="103.456552" style="stroke: #000000; stroke-width: 0.8"/>
      </g>
     </g>
     <g id="text_12">
      <!-- 1.5 -->
      <g transform="translate(67.096875 107.25577) scale(0.1 -0.1)">
       <use xlink:href="#DejaVuSans-31"/>
       <use xlink:href="#DejaVuSans-2e" x="63.623047"/>
       <use xlink:href="#DejaVuSans-35" x="95.410156"/>
      </g>
     </g>
    </g>
    <g id="text_13">
     <!-- Ratio -->
     <g transform="translate(51.805625 236.128125) rotate(-90) scale(0.14 -0.14)">
      <defs>
       <path id="DejaVuSans-52" d="M 2841 2188 
Q 3044 2119 3236 1894 
Q 3428 1669 3622 1275 
L 4263 0 
L 3584 0 
L 2988 1197 
Q 2756 1666 2539 1819 
Q 2322 1972 1947 1972 
L 1259 1972 
L 1259 0 
L 628 0 
L 628 4666 
L 2053 4666 
Q 2853 4666 3247 4331 
Q 3641 3997 3641 3322 
Q 3641 2881 3436 2590 
Q 3231 2300 2841 2188 
z
M 1259 4147 
L 1259 2491 
L 2053 2491 
Q 2509 2491 2742 2702 
Q 2975 2913 2975 3322 
Q 2975 3731 2742 3939 
Q 2509 4147 2053 4147 
L 1259 4147 
z
" transform="scale(0.015625)"/>
       <path id="DejaVuSans-61" d="M 2194 1759 
Q 1497 1759 1228 1600 
Q 959 1441 959 1056 
Q 959 750 1161 570 
Q 1363 391 1709 391 
Q 2188 391 2477 730 
Q 2766 1069 2766 1631 
L 2766 1759 
L 2194 1759 
z
M 3341 1997 
L 3341 0 
L 2766 0 
L 2766 531 
Q 2569 213 2275 61 
Q 1981 -91 1556 -91 
Q 1019 -91 701 211 
Q 384 513 384 1019 
Q 384 1609 779 1909 
Q 1175 2209 1959 2209 
L 2766 2209 
L 2766 2266 
Q 2766 2663 2505 2880 
Q 2244 3097 1772 3097 
Q 1472 3097 1187 3025 
Q 903 2953 641 2809 
L 641 3341 
Q 956 3463 1253 3523 
Q 1550 3584 1831 3584 
Q 2591 3584 2966 3190 
Q 3341 2797 3341 1997 
z
" transform="scale(0.015625)"/>
       <path id="DejaVuSans-74" d="M 1172 4494 
L 1172 3500 
L 2356 3500 
L 2356 3053 
L 1172 3053 
L 1172 1153 
Q 1172 725 1289 603 
Q 1406 481 1766 481 
L 2356 481 
L 2356 0 
L 1766 0 
Q 1100 0 847 248 
Q 594 497 594 1153 
L 594 3053 
L 172 3053 
L 172 3500 
L 594 3500 
L 594 4494 
L 1172 4494 
z
" transform="scale(0.015625)"/>
       <path id="DejaVuSans-69" d="M 603 3500 
L 1178 3500 
L 1178 0 
L 603 0 
L 603 3500 
z
M 603 4863 
L 1178 4863 
L 1178 4134 
L 603 4134 
L 603 4863 
z
" transform="scale(0.015625)"/>
       <path id="DejaVuSans-6f" d="M 1959 3097 
Q 1497 3097 1228 2736 
Q 959 2375 959 1747 
Q 959 1119 1226 758 
Q 1494 397 1959 397 
Q 2419 397 2687 759 
Q 2956 1122 2956 1747 
Q 2956 2369 2687 2733 
Q 2419 3097 1959 3097 
z
M 1959 3584 
Q 2709 3584 3137 3096 
Q 3566 2609 3566 1747 
Q 3566 888 3137 398 
Q 2709 -91 1959 -91 
Q 1206 -91 779 398 
Q 353 888 353 1747 
Q 353 2609 779 3096 
Q 1206 3584 1959 3584 
z
" transform="scale(0.015625)"/>
      </defs>
      <use xlink:href="#DejaVuSans-52"/>
      <use xlink:href="#DejaVuSans-61" x="67.232422"/>
      <use xlink:href="#DejaVuSans-74" x="128.511719"/>
      <use xlink:href="#DejaVuSans-69" x="167.720703"/>
      <use xlink:href="#DejaVuSans-6f" x="195.503906"/>
     </g>
    </g>
   </g>
   <g id="line2d_23">
    <path d="M 115.363636 254.656552 
L 118.413372 243.951425 
L 121.463108 234.291646 
L 124.512844 225.531225 
L 127.56258 217.550149 
L 130.612316 210.24885 
L 133.662051 203.544026 
L 136.711787 197.365453 
L 139.761523 191.653513 
L 142.811259 186.357267 
L 145.860995 181.432929 
L 148.910731 176.842655 
L 152.977045 171.185729 
L 157.043359 165.998042 
L 161.109674 161.223534 
L 165.175988 156.814732 
L 169.242303 152.73117 
L 173.308617 148.938138 
L 177.374932 145.405696 
L 182.457825 141.317371 
L 187.540718 137.552376 
L 192.623611 134.073814 
L 197.706504 130.850194 
L 203.805976 127.280577 
L 209.905447 123.999521 
L 216.004919 120.973396 
L 222.104391 118.173602 
L 229.220441 115.160773 
L 236.336491 112.389739 
L 244.46912 109.483214 
L 252.601749 106.820878 
L 261.750956 104.081045 
L 270.900164 101.577808 
L 281.06595 99.038353 
L 291.231736 96.721224 
L 302.414101 94.395923 
L 314.613044 92.091266 
L 327.828566 89.830588 
L 342.060667 87.632086 
L 357.309346 85.509337 
L 373.574604 83.471905 
L 390.85644 81.525968 
L 410.171434 79.577748 
L 431.519585 77.6595 
L 453.884314 75.872365 
L 479.298779 74.072393 
L 506.746402 72.357933 
L 537.24376 70.683786 
L 570.790854 69.072674 
L 607.387684 67.539907 
L 622.636364 66.96 
L 622.636364 66.96 
" clip-path="url(#p1893072e1d)" style="fill: none; stroke: #1f77b4; stroke-width: 2; stroke-linecap: square"/>
   </g>
   <g id="line2d_24">
    <path d="M 115.363636 369.36 
L 118.413372 358.654873 
L 121.463108 348.995094 
L 124.512844 340.234673 
L 127.56258 332.253598 
L 130.612316 324.952298 
L 133.662051 318.247475 
L 136.711787 312.068901 
L 139.761523 306.356962 
L 142.811259 301.060716 
L 145.860995 296.136378 
L 148.910731 291.546103 
L 152.977045 285.889178 
L 157.043359 280.701491 
L 161.109674 275.926982 
L 165.175988 271.51818 
L 169.242303 267.434618 
L 173.308617 263.641586 
L 177.374932 260.109145 
L 182.457825 256.02082 
L 187.540718 252.255824 
L 192.623611 248.777262 
L 197.706504 245.553643 
L 203.805976 241.984025 
L 209.905447 238.702969 
L 216.004919 235.676844 
L 222.104391 232.87705 
L 229.220441 229.864222 
L 236.336491 227.093187 
L 244.46912 224.186662 
L 252.601749 221.524326 
L 261.750956 218.784493 
L 270.900164 216.281256 
L 281.06595 213.741801 
L 291.231736 211.424672 
L 302.414101 209.099371 
L 314.613044 206.794714 
L 327.828566 204.534037 
L 342.060667 202.335535 
L 357.309346 200.212786 
L 373.574604 198.175353 
L 390.85644 196.229416 
L 410.171434 194.281197 
L 431.519585 192.362948 
L 453.884314 190.575813 
L 479.298779 188.775841 
L 506.746402 187.061381 
L 537.24376 185.387234 
L 570.790854 183.776122 
L 607.387684 182.243355 
L 622.636364 181.663448 
L 622.636364 181.663448 
" clip-path="url(#p1893072e1d)" style="fill: none; stroke-dasharray: 7.4,3.2; stroke-dashoffset: 0; stroke: #ff7f0e; stroke-width: 2"/>
   </g>
   <g id="line2d_25">
    <path d="M 90 275.511724 
L 648 275.511724 
" clip-path="url(#p1893072e1d)" style="fill: none; stroke-dasharray: 1.85,0.8; stroke-dashoffset: 0; stroke: #808080; stroke-width: 0.5"/>
   </g>
   <g id="line2d_26">
    <path d="M 110.239669 384.48 
L 110.239669 51.84 
" clip-path="url(#p1893072e1d)" style="fill: none; stroke-dasharray: 1.85,0.8; stroke-dashoffset: 0; stroke: #808080; stroke-width: 0.5"/>
   </g>
   <g id="patch_3">
    <path d="M 90 384.48 
L 90 51.84 
" style="fill: none; stroke: #000000; stroke-width: 0.8; stroke-linejoin: miter; stroke-linecap: square"/>
   </g>
   <g id="patch_4">
    <path d="M 648 384.48 
L 648 51.84 
" style="fill: none; stroke: #000000; stroke-width: 0.8; stroke-linejoin: miter; stroke-linecap: square"/>
   </g>
   <g id="patch_5">
    <path d="M 90 384.48 
L 648 384.48 
" style="fill: none; stroke: #000000; stroke-width: 0.8; stroke-linejoin: miter; stroke-linecap: square"/>
   </g>
   <g id="patch_6">
    <path d="M 90 51.84 
L 648 51.84 
" style="fill: none; stroke: #000000; stroke-width: 0.8; stroke-linejoin: miter; stroke-linecap: square"/>
   </g>
   <g id="text_14">
    <!-- Ratios $\frac{v_1}{u}$ and $\frac{v_2}{u}$ as functions of $k$ -->
    <g transform="translate(239.08 45.84) scale(0.16 -0.16)">
     <defs>
      <path id="DejaVuSans-73" d="M 2834 3397 
L 2834 2853 
Q 2591 2978 2328 3040 
Q 2066 3103 1784 3103 
Q 1356 3103 1142 2972 
Q 928 2841 928 2578 
Q 928 2378 1081 2264 
Q 1234 2150 1697 2047 
L 1894 2003 
Q 2506 1872 2764 1633 
Q 3022 1394 3022 966 
Q 3022 478 2636 193 
Q 2250 -91 1575 -91 
Q 1294 -91 989 -36 
Q 684 19 347 128 
L 347 722 
Q 666 556 975 473 
Q 1284 391 1588 391 
Q 1994 391 2212 530 
Q 2431 669 2431 922 
Q 2431 1156 2273 1281 
Q 2116 1406 1581 1522 
L 1381 1569 
Q 847 1681 609 1914 
Q 372 2147 372 2553 
Q 372 3047 722 3315 
Q 1072 3584 1716 3584 
Q 2034 3584 2315 3537 
Q 2597 3491 2834 3397 
z
" transform="scale(0.015625)"/>
      <path id="DejaVuSans-20" transform="scale(0.015625)"/>
      <path id="DejaVuSans-Oblique-76" d="M 459 3500 
L 1069 3500 
L 1581 525 
L 3256 3500 
L 3866 3500 
L 1875 0 
L 1100 0 
L 459 3500 
z
" transform="scale(0.015625)"/>
      <path id="DejaVuSans-Oblique-75" d="M 428 1388 
L 838 3500 
L 1416 3500 
L 1006 1409 
Q 975 1256 961 1147 
Q 947 1038 947 966 
Q 947 700 1109 554 
Q 1272 409 1569 409 
Q 2031 409 2368 721 
Q 2706 1034 2809 1563 
L 3194 3500 
L 3769 3500 
L 3091 0 
L 2516 0 
L 2631 550 
Q 2388 244 2052 76 
Q 1716 -91 1338 -91 
Q 878 -91 622 161 
Q 366 413 366 863 
Q 366 956 381 1097 
Q 397 1238 428 1388 
z
" transform="scale(0.015625)"/>
      <path id="DejaVuSans-6e" d="M 3513 2113 
L 3513 0 
L 2938 0 
L 2938 2094 
Q 2938 2591 2744 2837 
Q 2550 3084 2163 3084 
Q 1697 3084 1428 2787 
Q 1159 2491 1159 1978 
L 1159 0 
L 581 0 
L 581 3500 
L 1159 3500 
L 1159 2956 
Q 1366 3272 1645 3428 
Q 1925 3584 2291 3584 
Q 2894 3584 3203 3211 
Q 3513 2838 3513 2113 
z
" transform="scale(0.015625)"/>
      <path id="DejaVuSans-64" d="M 2906 2969 
L 2906 4863 
L 3481 4863 
L 3481 0 
L 2906 0 
L 2906 525 
Q 2725 213 2448 61 
Q 2172 -91 1784 -91 
Q 1150 -91 751 415 
Q 353 922 353 1747 
Q 353 2572 751 3078 
Q 1150 3584 1784 3584 
Q 2172 3584 2448 3432 
Q 2725 3281 2906 2969 
z
M 947 1747 
Q 947 1113 1208 752 
Q 1469 391 1925 391 
Q 2381 391 2643 752 
Q 2906 1113 2906 1747 
Q 2906 2381 2643 2742 
Q 2381 3103 1925 3103 
Q 1469 3103 1208 2742 
Q 947 2381 947 1747 
z
" transform="scale(0.015625)"/>
      <path id="DejaVuSans-66" d="M 2375 4863 
L 2375 4384 
L 1825 4384 
Q 1516 4384 1395 4259 
Q 1275 4134 1275 3809 
L 1275 3500 
L 2222 3500 
L 2222 3053 
L 1275 3053 
L 1275 0 
L 697 0 
L 697 3053 
L 147 3053 
L 147 3500 
L 697 3500 
L 697 3744 
Q 697 4328 969 4595 
Q 1241 4863 1831 4863 
L 2375 4863 
z
" transform="scale(0.015625)"/>
      <path id="DejaVuSans-75" d="M 544 1381 
L 544 3500 
L 1119 3500 
L 1119 1403 
Q 1119 906 1312 657 
Q 1506 409 1894 409 
Q 2359 409 2629 706 
Q 2900 1003 2900 1516 
L 2900 3500 
L 3475 3500 
L 3475 0 
L 2900 0 
L 2900 538 
Q 2691 219 2414 64 
Q 2138 -91 1772 -91 
Q 1169 -91 856 284 
Q 544 659 544 1381 
z
M 1991 3584 
L 1991 3584 
z
" transform="scale(0.015625)"/>
      <path id="DejaVuSans-63" d="M 3122 3366 
L 3122 2828 
Q 2878 2963 2633 3030 
Q 2388 3097 2138 3097 
Q 1578 3097 1268 2742 
Q 959 2388 959 1747 
Q 959 1106 1268 751 
Q 1578 397 2138 397 
Q 2388 397 2633 464 
Q 2878 531 3122 666 
L 3122 134 
Q 2881 22 2623 -34 
Q 2366 -91 2075 -91 
Q 1284 -91 818 406 
Q 353 903 353 1747 
Q 353 2603 823 3093 
Q 1294 3584 2113 3584 
Q 2378 3584 2631 3529 
Q 2884 3475 3122 3366 
z
" transform="scale(0.015625)"/>
     </defs>
     <use xlink:href="#DejaVuSans-52" transform="translate(0 0.4375)"/>
     <use xlink:href="#DejaVuSans-61" transform="translate(69.482422 0.4375)"/>
     <use xlink:href="#DejaVuSans-74" transform="translate(130.761719 0.4375)"/>
     <use xlink:href="#DejaVuSans-69" transform="translate(169.970703 0.4375)"/>
     <use xlink:href="#DejaVuSans-6f" transform="translate(197.753906 0.4375)"/>
     <use xlink:href="#DejaVuSans-73" transform="translate(258.935547 0.4375)"/>
     <use xlink:href="#DejaVuSans-20" transform="translate(311.035156 0.4375)"/>
     <use xlink:href="#DejaVuSans-Oblique-76" transform="translate(342.822266 55.71875) scale(0.7)"/>
     <use xlink:href="#DejaVuSans-31" transform="translate(384.248047 44.234375) scale(0.49)"/>
     <use xlink:href="#DejaVuSans-Oblique-75" transform="translate(357.822266 -25.296875) scale(0.7)"/>
     <use xlink:href="#DejaVuSans-20" transform="translate(429.837402 0.4375)"/>
     <use xlink:href="#DejaVuSans-61" transform="translate(461.624512 0.4375)"/>
     <use xlink:href="#DejaVuSans-6e" transform="translate(522.903809 0.4375)"/>
     <use xlink:href="#DejaVuSans-64" transform="translate(586.282715 0.4375)"/>
     <use xlink:href="#DejaVuSans-20" transform="translate(649.759277 0.4375)"/>
     <use xlink:href="#DejaVuSans-Oblique-76" transform="translate(681.546387 55.71875) scale(0.7)"/>
     <use xlink:href="#DejaVuSans-32" transform="translate(722.972168 44.234375) scale(0.49)"/>
     <use xlink:href="#DejaVuSans-Oblique-75" transform="translate(696.546387 -25.296875) scale(0.7)"/>
     <use xlink:href="#DejaVuSans-20" transform="translate(768.561523 0.4375)"/>
     <use xlink:href="#DejaVuSans-61" transform="translate(800.348633 0.4375)"/>
     <use xlink:href="#DejaVuSans-73" transform="translate(861.62793 0.4375)"/>
     <use xlink:href="#DejaVuSans-20" transform="translate(913.727539 0.4375)"/>
     <use xlink:href="#DejaVuSans-66" transform="translate(945.514648 0.4375)"/>
     <use xlink:href="#DejaVuSans-75" transform="translate(980.719727 0.4375)"/>
     <use xlink:href="#DejaVuSans-6e" transform="translate(1044.098633 0.4375)"/>
     <use xlink:href="#DejaVuSans-63" transform="translate(1107.477539 0.4375)"/>
     <use xlink:href="#DejaVuSans-74" transform="translate(1162.458008 0.4375)"/>
     <use xlink:href="#DejaVuSans-69" transform="translate(1201.666992 0.4375)"/>
     <use xlink:href="#DejaVuSans-6f" transform="translate(1229.450195 0.4375)"/>
     <use xlink:href="#DejaVuSans-6e" transform="translate(1290.631836 0.4375)"/>
     <use xlink:href="#DejaVuSans-73" transform="translate(1354.010742 0.4375)"/>
     <use xlink:href="#DejaVuSans-20" transform="translate(1406.110352 0.4375)"/>
     <use xlink:href="#DejaVuSans-6f" transform="translate(1437.897461 0.4375)"/>
     <use xlink:href="#DejaVuSans-66" transform="translate(1499.079102 0.4375)"/>
     <use xlink:href="#DejaVuSans-20" transform="translate(1534.28418 0.4375)"/>
     <use xlink:href="#DejaVuSans-Oblique-6b" transform="translate(1566.071289 0.4375)"/>
     <path d="M 342.822266 19.234375 
L 342.822266 25.484375 
L 417.337402 25.484375 
L 417.337402 19.234375 
L 342.822266 19.234375 
z
"/>
     <path d="M 681.546387 19.234375 
L 681.546387 25.484375 
L 756.061523 25.484375 
L 756.061523 19.234375 
L 681.546387 19.234375 
z
"/>
    </g>
   </g>
   <g id="legend_1">
    <g id="patch_7">
     <path d="M 553.92 378.48 
L 639.6 378.48 
Q 642 378.48 642 376.08 
L 642 332.16 
Q 642 329.76 639.6 329.76 
L 553.92 329.76 
Q 551.52 329.76 551.52 332.16 
L 551.52 376.08 
Q 551.52 378.48 553.92 378.48 
z
" style="fill: #ffffff; opacity: 0.8; stroke: #cccccc; stroke-linejoin: miter"/>
    </g>
    <g id="line2d_27">
     <path d="M 556.32 342 
L 568.32 342 
L 580.32 342 
" style="fill: none; stroke: #1f77b4; stroke-width: 2; stroke-linecap: square"/>
    </g>
    <g id="text_15">
     <!-- $\frac{v_1}{u} = \frac{2k}{k + 1}$ -->
     <g transform="translate(589.92 346.2) scale(0.12 -0.12)">
      <defs>
       <path id="DejaVuSans-3d" d="M 678 2906 
L 4684 2906 
L 4684 2381 
L 678 2381 
L 678 2906 
z
M 678 1631 
L 4684 1631 
L 4684 1100 
L 678 1100 
L 678 1631 
z
" transform="scale(0.015625)"/>
       <path id="DejaVuSans-2b" d="M 2944 4013 
L 2944 2272 
L 4684 2272 
L 4684 1741 
L 2944 1741 
L 2944 0 
L 2419 0 
L 2419 1741 
L 678 1741 
L 678 2272 
L 2419 2272 
L 2419 4013 
L 2944 4013 
z
" transform="scale(0.015625)"/>
      </defs>
      <use xlink:href="#DejaVuSans-Oblique-76" transform="translate(0 55.295312) scale(0.7)"/>
      <use xlink:href="#DejaVuSans-31" transform="translate(41.425781 43.810937) scale(0.49)"/>
      <use xlink:href="#DejaVuSans-Oblique-75" transform="translate(15 -25.720313) scale(0.7)"/>
      <use xlink:href="#DejaVuSans-3d" transform="translate(106.497559 0.014062)"/>
      <use xlink:href="#DejaVuSans-32" transform="translate(252.769043 43.810938) scale(0.7)"/>
      <use xlink:href="#DejaVuSans-Oblique-6b" transform="translate(297.305176 43.810938) scale(0.7)"/>
      <use xlink:href="#DejaVuSans-Oblique-6b" transform="translate(209.769043 -40.628125) scale(0.7)"/>
      <use xlink:href="#DejaVuSans-2b" transform="translate(263.943848 -40.628125) scale(0.7)"/>
      <use xlink:href="#DejaVuSans-31" transform="translate(336.233887 -40.628125) scale(0.7)"/>
      <path d="M 0 18.810937 
L 0 25.060937 
L 74.515137 25.060937 
L 74.515137 18.810937 
L 0 18.810937 
z
"/>
      <path d="M 209.769043 18.810937 
L 209.769043 25.060937 
L 380.77002 25.060937 
L 380.77002 18.810937 
L 209.769043 18.810937 
z
"/>
     </g>
    </g>
    <g id="line2d_28">
     <path d="M 556.32 364.56 
L 568.32 364.56 
L 580.32 364.56 
" style="fill: none; stroke-dasharray: 7.4,3.2; stroke-dashoffset: 0; stroke: #ff7f0e; stroke-width: 2"/>
    </g>
    <g id="text_16">
     <!-- $\frac{v_2}{u} = \frac{k - 1}{k + 1}$ -->
     <g transform="translate(589.92 368.76) scale(0.12 -0.12)">
      <use xlink:href="#DejaVuSans-Oblique-76" transform="translate(0 55.295312) scale(0.7)"/>
      <use xlink:href="#DejaVuSans-32" transform="translate(41.425781 43.810937) scale(0.49)"/>
      <use xlink:href="#DejaVuSans-Oblique-75" transform="translate(15 -25.720313) scale(0.7)"/>
      <use xlink:href="#DejaVuSans-3d" transform="translate(106.497559 0.014062)"/>
      <use xlink:href="#DejaVuSans-Oblique-6b" transform="translate(209.769043 43.810938) scale(0.7)"/>
      <use xlink:href="#DejaVuSans-2212" transform="translate(263.943848 43.810938) scale(0.7)"/>
      <use xlink:href="#DejaVuSans-31" transform="translate(336.233887 43.810938) scale(0.7)"/>
      <use xlink:href="#DejaVuSans-Oblique-6b" transform="translate(209.769043 -40.628125) scale(0.7)"/>
      <use xlink:href="#DejaVuSans-2b" transform="translate(263.943848 -40.628125) scale(0.7)"/>
      <use xlink:href="#DejaVuSans-31" transform="translate(336.233887 -40.628125) scale(0.7)"/>
      <path d="M 0 18.810937 
L 0 25.060937 
L 74.515137 25.060937 
L 74.515137 18.810937 
L 0 18.810937 
z
"/>
      <path d="M 209.769043 18.810937 
L 209.769043 25.060937 
L 380.77002 25.060937 
L 380.77002 18.810937 
L 209.769043 18.810937 
z
"/>
     </g>
    </g>
   </g>
  </g>
 </g>
 <defs>
  <clipPath id="p1893072e1d">
   <rect x="90" y="51.84" width="558" height="332.64"/>
  </clipPath>
 </defs>
</svg>
