<svg width="729" height="508" xmlns="http://www.w3.org/2000/svg" xmlns:xlink="http://www.w3.org/1999/xlink" xml:space="preserve" overflow="hidden"><defs><linearGradient x1="292" y1="231.5" x2="0" y2="231.5" gradientUnits="userSpaceOnUse" spreadMethod="reflect" id="fill0"><stop offset="0" stop-color="#EEF2FA" stop-opacity="0.501961"/><stop offset="0.74" stop-color="#ABC0E4" stop-opacity="0.501961"/><stop offset="1" stop-color="#C7D5ED" stop-opacity="0.501961"/></linearGradient></defs><g transform="translate(-2001 -1132)"><path d="M27.5001-2.29165 682.481-2.29131 682.481 2.29203 27.5001 2.29168ZM27.5 1.45419e-05 45.8333 13.75 0 0 45.8333-13.75Z" fill="#2E141D" transform="matrix(-1 0 0 1 2685.98 1596.5)"/><path d="M2678.01 1525.49C2678.85 1525.49 2679.58 1525.59 2680.22 1525.78 2680.85 1525.96 2681.41 1526.25 2681.9 1526.65 2682.39 1527.04 2682.82 1527.54 2683.2 1528.17 2683.58 1528.79 2683.94 1529.63 2684.29 1530.7 2684.64 1531.77 2684.97 1533.09 2685.28 1534.67 2685.59 1536.25 2685.87 1537.89 2686.11 1539.59L2686.52 1539.59C2689.11 1535.95 2691.08 1533.28 2692.42 1531.59 2693.75 1529.9 2694.88 1528.65 2695.8 1527.82 2696.72 1527 2697.6 1526.42 2698.46 1526.08 2699.31 1525.74 2700.43 1525.57 2701.84 1525.57 2703.11 1525.57 2704.15 1525.73 2704.96 1526.06L2703.34 1533.39 2700.5 1533.39C2700.34 1532.26 2699.87 1531.69 2699.08 1531.69 2698.84 1531.69 2698.58 1531.73 2698.31 1531.81 2698.04 1531.89 2697.71 1532.07 2697.32 1532.34 2696.93 1532.61 2696.35 1533.14 2695.6 1533.92 2694.84 1534.7 2693.99 1535.66 2693.05 1536.8 2692.1 1537.93 2691.13 1539.12 2690.13 1540.36L2687.37 1543.81C2687.86 1546.4 2688.32 1548.65 2688.75 1550.54 2689.18 1552.43 2689.57 1554 2689.9 1555.26 2690.24 1556.52 2690.54 1557.51 2690.8 1558.24 2691.05 1558.97 2691.33 1559.51 2691.63 1559.88 2691.92 1560.24 2692.23 1560.5 2692.54 1560.65 2692.85 1560.8 2693.21 1560.87 2693.61 1560.87 2694.34 1560.87 2695.05 1560.59 2695.74 1560.02 2696.43 1559.45 2697.42 1558.17 2698.72 1556.17L2701.35 1557.91C2699.46 1560.72 2697.75 1562.7 2696.23 1563.85 2694.7 1565 2692.88 1565.57 2690.78 1565.57 2689.61 1565.57 2688.63 1565.36 2687.82 1564.94 2687.01 1564.53 2686.3 1563.86 2685.71 1562.94 2685.12 1562.02 2684.59 1560.59 2684.13 1558.64 2683.29 1555.18 2682.78 1552.54 2682.59 1550.7L2682.18 1550.7C2679.32 1554.73 2677.19 1557.62 2675.8 1559.37 2674.41 1561.13 2673.26 1562.43 2672.36 1563.26 2671.45 1564.1 2670.57 1564.69 2669.72 1565.03 2668.87 1565.36 2667.74 1565.53 2666.34 1565.53 2665.07 1565.53 2664.03 1565.37 2663.22 1565.05L2664.84 1557.71 2667.68 1557.71C2667.84 1558.85 2668.31 1559.41 2669.09 1559.41 2669.47 1559.41 2669.87 1559.31 2670.29 1559.11 2670.71 1558.91 2671.31 1558.42 2672.09 1557.65 2672.88 1556.88 2673.96 1555.67 2675.33 1554.02 2676.71 1552.37 2678.71 1549.9 2681.33 1546.61 2680.93 1544.47 2680.51 1542.42 2680.08 1540.45 2679.64 1538.47 2679.2 1536.64 2678.74 1534.93 2678.28 1533.23 2677.9 1532.12 2677.6 1531.59 2677.31 1531.06 2676.99 1530.7 2676.65 1530.5 2676.31 1530.29 2675.89 1530.19 2675.38 1530.19 2674.81 1530.19 2674.29 1530.32 2673.84 1530.58 2673.38 1530.83 2672.88 1531.28 2672.34 1531.92 2671.8 1532.55 2671.08 1533.54 2670.19 1534.89L2667.55 1533.15C2669.26 1530.58 2670.89 1528.67 2672.46 1527.4 2674.02 1526.13 2675.88 1525.49 2678.01 1525.49Z" fill-rule="evenodd"/><text fill="#000000" fill-opacity="0" font-family="Arial,Arial_MSFontService,sans-serif" font-size="40.0815" x="2663.22" y="1560.56">­ЮЉЦ</text><path d="M0 1.52667 103.238 0 289.754 463 292 462.302 0 462.302 0 1.52667Z" stroke="#000000" stroke-width="1.14583" stroke-miterlimit="8" fill="url(#fill0)" fill-rule="evenodd" transform="matrix(-1 0 0 1 2461.5 1133.5)"/><path d="M0 0 205.295 0.000360892" stroke="#2E141D" stroke-width="2.29167" stroke-miterlimit="8" fill="none" fill-rule="evenodd" transform="matrix(-1 0 0 1 2344.3 1350)"/><path d="M2252.83 1343.05 2138.59 1271.96 2140.41 1269.04 2254.65 1340.14ZM2253.74 1341.59 2250.8 1328.97 2269.31 1351.28 2241.12 1344.53Z" fill="#2E141D"/><path d="M2213.25 1350.85C2207.26 1340.74 2210.54 1327.73 2220.56 1321.8" stroke="#000000" stroke-width="2.29167" stroke-miterlimit="8" fill="none" fill-rule="evenodd"/><text font-family="Cambria Math,Cambria Math_MSFontService,sans-serif" font-weight="400" font-size="50" transform="matrix(1 0 0 1 2170.5 1338)">­ЮЏ╝</text><path d="M2479.83 1348.78 2652.63 1348.78 2652.63 1352.22 2479.83 1352.22ZM2479.83 1350.5 2489 1359.67 2461.5 1350.5 2489 1341.33Z" fill="#2E141D"/><path d="M2233.73 1273.58 2257.95 1273.58 2256.1 1281.82 2253.52 1281.82C2253.45 1280.44 2253.34 1279.36 2253.19 1278.56 2253.04 1277.76 2252.82 1277.19 2252.54 1276.84 2252.27 1276.49 2251.93 1276.25 2251.54 1276.13 2251.14 1276 2250.55 1275.94 2249.76 1275.94L2241.49 1275.94 2238.3 1290.55 2243.32 1290.55C2244.11 1290.55 2244.76 1290.44 2245.28 1290.23 2245.8 1290.01 2246.28 1289.62 2246.73 1289.06 2247.18 1288.5 2247.73 1287.53 2248.39 1286.17L2250.84 1286.17 2248.23 1297.51 2245.87 1297.51C2245.87 1295.7 2245.81 1294.57 2245.7 1294.11 2245.58 1293.65 2245.35 1293.34 2245.02 1293.17 2244.69 1293 2244.03 1292.91 2243.05 1292.91L2237.79 1292.91 2235.66 1302.42C2235.29 1304.1 2235.1 1305.5 2235.1 1306.61 2235.1 1307.17 2235.19 1307.6 2235.37 1307.91 2235.55 1308.23 2235.82 1308.45 2236.17 1308.6 2236.53 1308.74 2237.15 1308.85 2238.03 1308.92L2237.73 1310.24 2226.69 1310.24 2226.99 1308.92C2227.67 1308.81 2228.18 1308.64 2228.52 1308.4 2228.86 1308.15 2229.15 1307.82 2229.38 1307.39 2229.61 1306.96 2229.83 1306.44 2230.02 1305.82 2230.22 1305.2 2230.52 1304.01 2230.91 1302.23L2235.48 1281.55C2235.87 1279.76 2236.07 1278.35 2236.07 1277.31 2236.07 1276.43 2235.86 1275.83 2235.45 1275.48 2235.04 1275.14 2234.37 1274.95 2233.44 1274.89Z" fill-rule="evenodd"/><text fill="#000000" fill-opacity="0" font-family="Arial,Arial_MSFontService,sans-serif" font-size="36.6577" x="2226.69" y="1305.65">­Юљ╣</text><path d="M2250.7 1256.49 2257.44 1262.32 2257.44 1263.88 2250.7 1269.71 2249.28 1268.1 2253.58 1264.36 2237.2 1264.36 2237.2 1261.84 2253.58 1261.84 2249.28 1258.11Z" fill-rule="evenodd"/><text fill="#000000" fill-opacity="0" font-family="Arial,Arial_MSFontService,sans-serif" font-size="13.2129" x="2237.2" y="1268.06">нд</text><path d="M2264.86 1296.31 2266.05 1296.31C2266.03 1297.03 2266.01 1297.67 2265.99 1298.23 2265.98 1298.8 2265.97 1299.35 2265.97 1299.88 2265.96 1300.42 2265.96 1300.94 2265.96 1301.47L2265.96 1316.31C2265.96 1316.71 2265.97 1317.06 2265.99 1317.35 2266.02 1317.65 2266.06 1317.89 2266.12 1318.1 2266.18 1318.3 2266.26 1318.47 2266.36 1318.61 2266.45 1318.76 2266.57 1318.88 2266.7 1318.98 2266.85 1319.14 2267.06 1319.26 2267.32 1319.35 2267.58 1319.43 2267.92 1319.5 2268.32 1319.56 2268.72 1319.62 2269.21 1319.67 2269.77 1319.7 2270.34 1319.73 2271.02 1319.75 2271.82 1319.77L2271.82 1321.47 2256.33 1321.47 2256.33 1319.77C2257.1 1319.74 2257.75 1319.71 2258.28 1319.68 2258.81 1319.65 2259.27 1319.6 2259.65 1319.54 2260.02 1319.48 2260.33 1319.42 2260.56 1319.35 2260.78 1319.27 2260.98 1319.19 2261.15 1319.08 2261.33 1318.97 2261.49 1318.84 2261.62 1318.7 2261.75 1318.56 2261.85 1318.39 2261.93 1318.18 2262.01 1317.98 2262.07 1317.72 2262.12 1317.42 2262.16 1317.12 2262.19 1316.75 2262.19 1316.31L2262.19 1302.31C2262.19 1301.8 2262.09 1301.44 2261.89 1301.23 2261.7 1301.02 2261.42 1300.92 2261.05 1300.92 2260.65 1300.92 2260.05 1301.13 2259.26 1301.54 2258.46 1301.96 2257.43 1302.58 2256.17 1303.4 2256 1303.1 2255.85 1302.8 2255.7 1302.5 2255.56 1302.2 2255.41 1301.89 2255.25 1301.58 2256.87 1300.7 2258.47 1299.81 2260.05 1298.94 2261.63 1298.06 2263.23 1297.18 2264.86 1296.31Z" fill-rule="evenodd"/><text fill="#000000" fill-opacity="0" font-family="Arial,Arial_MSFontService,sans-serif" font-size="25.1562" x="2255.25" y="1318.32">1</text><path d="M2493.11 1288.77 2517.34 1288.77 2515.48 1297.02 2512.91 1297.02C2512.83 1295.64 2512.72 1294.55 2512.57 1293.76 2512.42 1292.96 2512.2 1292.39 2511.93 1292.04 2511.65 1291.69 2511.31 1291.45 2510.92 1291.32 2510.53 1291.2 2509.93 1291.14 2509.15 1291.14L2500.88 1291.14 2497.68 1305.75 2502.7 1305.75C2503.49 1305.75 2504.14 1305.64 2504.66 1305.42 2505.18 1305.21 2505.66 1304.82 2506.11 1304.26 2506.56 1303.69 2507.11 1302.73 2507.78 1301.37L2510.22 1301.37 2507.62 1312.7 2505.25 1312.7C2505.25 1310.89 2505.19 1309.76 2505.08 1309.3 2504.96 1308.85 2504.74 1308.53 2504.41 1308.36 2504.08 1308.19 2503.42 1308.11 2502.43 1308.11L2497.17 1308.11 2495.05 1317.62C2494.67 1319.3 2494.48 1320.7 2494.48 1321.81 2494.48 1322.36 2494.57 1322.8 2494.75 1323.11 2494.93 1323.42 2495.2 1323.65 2495.56 1323.79 2495.92 1323.94 2496.53 1324.04 2497.41 1324.12L2497.12 1325.43 2486.08 1325.43 2486.37 1324.12C2487.05 1324.01 2487.56 1323.83 2487.9 1323.59 2488.24 1323.35 2488.53 1323.01 2488.76 1322.58 2489 1322.16 2489.21 1321.63 2489.41 1321.01 2489.6 1320.4 2489.9 1319.2 2490.29 1317.43L2494.86 1296.75C2495.25 1294.96 2495.45 1293.55 2495.45 1292.51 2495.45 1291.63 2495.24 1291.02 2494.83 1290.68 2494.42 1290.34 2493.75 1290.14 2492.82 1290.09Z" fill-rule="evenodd"/><text fill="#000000" fill-opacity="0" font-family="Arial,Arial_MSFontService,sans-serif" font-size="36.6577" x="2486.08" y="1320.85">­Юљ╣</text><path d="M2510.09 1271.69 2516.83 1277.52 2516.83 1279.08 2510.09 1284.9 2508.66 1283.29 2512.96 1279.56 2496.58 1279.56 2496.58 1277.03 2512.96 1277.03 2508.66 1273.3Z" fill-rule="evenodd"/><text fill="#000000" fill-opacity="0" font-family="Arial,Arial_MSFontService,sans-serif" font-size="13.2129" x="2496.58" y="1283.25">нд</text><path d="M2524.01 1311.37C2525.36 1311.37 2526.51 1311.52 2527.47 1311.83 2528.43 1312.13 2529.21 1312.55 2529.81 1313.07 2530.4 1313.59 2530.84 1314.21 2531.1 1314.94 2531.37 1315.67 2531.51 1316.46 2531.51 1317.31 2531.51 1317.81 2531.47 1318.28 2531.4 1318.72 2531.33 1319.16 2531.2 1319.59 2531.03 1320.01 2530.85 1320.43 2530.62 1320.86 2530.33 1321.29 2530.05 1321.72 2529.69 1322.17 2529.26 1322.66 2528.93 1323.07 2528.51 1323.56 2527.99 1324.1 2527.47 1324.65 2526.9 1325.23 2526.28 1325.86 2525.66 1326.48 2525.01 1327.14 2524.34 1327.81 2523.66 1328.49 2523 1329.16 2522.36 1329.82 2521.73 1330.49 2521.14 1331.13 2520.61 1331.76 2520.07 1332.38 2519.64 1332.96 2519.3 1333.48L2526.52 1333.48C2527.14 1333.48 2527.62 1333.45 2527.99 1333.41 2528.35 1333.36 2528.66 1333.26 2528.9 1333.11 2529.14 1332.95 2529.34 1332.71 2529.51 1332.39 2529.68 1332.07 2529.88 1331.63 2530.1 1331.07L2531.92 1331.07C2531.85 1332 2531.79 1332.93 2531.73 1333.87 2531.67 1334.81 2531.61 1335.74 2531.54 1336.66L2515 1336.66 2515 1335.64C2515.31 1334.94 2515.68 1334.25 2516.09 1333.56 2516.51 1332.88 2516.98 1332.19 2517.5 1331.48 2518.02 1330.78 2518.61 1330.06 2519.28 1329.31 2519.94 1328.56 2520.68 1327.78 2521.49 1326.97 2522.71 1325.75 2523.71 1324.7 2524.47 1323.84 2525.24 1322.97 2525.85 1322.2 2526.29 1321.52 2526.73 1320.85 2527.04 1320.22 2527.2 1319.65 2527.36 1319.08 2527.44 1318.46 2527.44 1317.81 2527.44 1317.15 2527.35 1316.54 2527.16 1315.98 2526.97 1315.42 2526.7 1314.94 2526.35 1314.55 2526 1314.16 2525.55 1313.85 2525.01 1313.63 2524.47 1313.41 2523.85 1313.3 2523.15 1313.3 2521.93 1313.3 2520.92 1313.63 2520.1 1314.29 2519.28 1314.95 2518.64 1315.9 2518.18 1317.15L2515.63 1317.15 2515.63 1313.34C2517.29 1312.65 2518.83 1312.15 2520.23 1311.84 2521.63 1311.52 2522.89 1311.37 2524.01 1311.37Z" fill-rule="evenodd"/><text fill="#000000" fill-opacity="0" font-family="Arial,Arial_MSFontService,sans-serif" font-size="25.293" x="2515" y="1333.5">2</text><path d="M2185.79 1562.06C2202.83 1565.23 2214.1 1581.5 2210.96 1598.39" stroke="#000000" stroke-width="2.29167" stroke-miterlimit="8" fill="none" fill-rule="evenodd"/><text font-family="Cambria Math,Cambria Math_MSFontService,sans-serif" font-weight="400" font-size="50" transform="matrix(1 0 0 1 2212.91 1568)">­ЮЏ╝</text></g></svg>