<svg width="1361" height="1322" xmlns="http://www.w3.org/2000/svg" xmlns:xlink="http://www.w3.org/1999/xlink" xml:space="preserve" overflow="hidden"><g transform="translate(-947 -365)"><path d="M6.72249-3.20619 580.076 1198.96 566.631 1205.37-6.72249 3.20619ZM573.352 1202.16 594.14 1159.24 592.59 1242.5 526.915 1191.3Z" transform="matrix(1 0 0 -1 954.5 1683)"/><path d="M2227.66 1013.11 1577.41 482.523 1586.83 470.982 2237.07 1001.57ZM1582.12 476.752 1581.66 524.44 1547.5 448.5 1628.75 466.734Z"/><path d="M3.45686-6.59709 1241.33 642.045 1234.41 655.239-3.45686 6.59709ZM1237.87 648.642 1228.77 601.829 1277.45 669.383 1194.2 667.8Z" transform="matrix(1 0 0 -1 954.5 1679.88)"/><path d="M1169.08 896.647C1172.52 896.647 1175.01 897.544 1176.54 899.339 1178.07 901.133 1178.84 903.538 1178.84 906.552 1178.84 908.849 1178.43 911.481 1177.62 914.448 1176.81 917.415 1175.66 920.549 1174.17 923.851 1172.69 927.153 1170.92 930.538 1168.86 934.007 1166.81 937.477 1164.53 940.85 1162.04 944.128 1159.56 947.406 1156.9 950.492 1154.08 953.387 1151.25 956.282 1148.32 958.806 1145.28 960.96 1142.25 963.113 1139.16 964.824 1136.02 966.092 1132.89 967.36 1129.77 967.994 1126.66 967.994 1125.27 967.994 1124.11 967.647 1123.18 966.953 1122.24 966.259 1121.49 965.278 1120.92 964.01 1120.34 962.742 1119.93 961.247 1119.7 959.524 1119.46 957.801 1119.34 955.911 1119.34 953.854 1119.34 951.126 1119.5 948.207 1119.84 945.097 1120.17 941.987 1120.6 938.852 1121.13 935.694L1124.15 915.812C1124.34 914.663 1124.49 913.575 1124.61 912.546 1124.73 911.517 1124.79 910.763 1124.79 910.285 1124.79 908.801 1124.55 907.581 1124.07 906.624 1123.6 905.667 1122.78 905.189 1121.63 905.189 1120.72 905.189 1119.74 905.464 1118.69 906.014 1117.64 906.564 1116.57 907.27 1115.5 908.132 1114.42 908.993 1113.38 909.914 1112.37 910.895 1111.37 911.876 1110.44 912.797 1109.57 913.658L1106.13 909.639C1107.61 908.108 1109.19 906.588 1110.87 905.081 1112.54 903.574 1114.31 902.21 1116.18 900.99 1118.04 899.769 1120.01 898.789 1122.06 898.047 1124.12 897.305 1126.23 896.934 1128.38 896.934 1130.2 896.934 1131.68 897.233 1132.83 897.831 1133.98 898.43 1134.88 899.219 1135.52 900.2 1136.17 901.181 1136.61 902.258 1136.85 903.43 1137.09 904.602 1137.21 905.763 1137.21 906.911 1137.21 907.581 1137.18 908.227 1137.14 908.849 1137.09 909.471 1137.02 910.046 1136.92 910.572L1132.9 936.555C1132.47 939.283 1132.11 941.951 1131.83 944.559 1131.54 947.166 1131.39 949.475 1131.39 951.485 1131.39 953.495 1131.51 955.122 1131.75 956.366 1131.99 957.61 1132.45 958.232 1133.12 958.232 1134.7 958.232 1136.68 957.598 1139.08 956.33 1141.47 955.062 1143.98 953.315 1146.61 951.09 1149.24 948.865 1151.88 946.233 1154.51 943.195 1157.14 940.156 1159.51 936.866 1161.61 933.325 1163.72 929.784 1165.43 926.052 1166.75 922.128 1168.06 918.204 1168.72 914.257 1168.72 910.285 1168.72 908.562 1168.35 907.234 1167.61 906.301 1166.86 905.368 1165.7 904.902 1164.13 904.902 1162.12 904.902 1160.26 905.679 1158.56 907.234 1156.86 908.789 1155.11 910.835 1153.29 913.371L1149.2 909.711C1150.34 907.988 1151.7 906.337 1153.25 904.758 1154.81 903.179 1156.46 901.791 1158.2 900.595 1159.95 899.399 1161.76 898.442 1163.62 897.724 1165.49 897.006 1167.31 896.647 1169.08 896.647Z" fill-rule="evenodd"/><text fill="#000000" fill-opacity="0" font-family="Arial,Arial_MSFontService,sans-serif" font-size="71.3467" x="1106.13" y="959.076">𝑣</text><path d="M1204.97 964.362 1199.02 991.165C1199.85 991.2 1200.91 991.234 1202.18 991.269 1203.45 991.304 1204.95 991.321 1206.7 991.321 1210.46 991.321 1213.71 990.999 1216.44 990.355 1219.17 989.711 1221.44 988.7 1223.23 987.325 1225.03 985.949 1226.35 984.164 1227.2 981.969 1228.06 979.775 1228.48 977.145 1228.48 974.08 1228.48 972.478 1228.24 971.067 1227.75 969.848 1227.26 968.629 1226.45 967.61 1225.32 966.792 1224.19 965.973 1222.74 965.364 1220.99 964.963 1219.23 964.563 1217.08 964.362 1214.53 964.362ZM1220.75 934.373C1219.08 934.373 1217.49 934.399 1215.97 934.452 1214.45 934.504 1213 934.6 1211.61 934.739L1206.23 958.929 1214.32 958.929C1218.12 958.929 1221.33 958.572 1223.96 957.858 1226.59 957.144 1228.73 956.125 1230.36 954.801 1232 953.478 1233.19 951.884 1233.94 950.021 1234.69 948.157 1235.07 946.059 1235.07 943.725 1235 942.228 1234.7 940.887 1234.18 939.702 1233.66 938.518 1232.83 937.534 1231.7 936.75 1230.56 935.967 1229.1 935.375 1227.31 934.974 1225.51 934.573 1223.33 934.373 1220.75 934.373ZM1195.67 928.94 1223.05 928.94C1227.12 928.94 1230.58 929.271 1233.42 929.932 1236.26 930.594 1238.59 931.552 1240.42 932.806 1242.25 934.06 1243.57 935.566 1244.39 937.325 1245.21 939.084 1245.62 941.096 1245.62 943.36 1245.62 951.928 1240.24 957.971 1229.48 961.489 1229.48 961.663 1229.47 961.802 1229.45 961.907 1229.43 962.011 1229.42 962.099 1229.42 962.168 1232.66 963.457 1235.12 965.233 1236.79 967.497 1238.46 969.761 1239.3 972.374 1239.3 975.334 1239.3 978.678 1238.68 981.665 1237.44 984.294 1236.21 986.924 1234.3 989.153 1231.72 990.982 1229.14 992.81 1225.84 994.221 1221.8 995.214 1217.76 996.206 1212.91 996.703 1207.27 996.703L1182.77 996.703 1183.34 993.516C1184.42 993.342 1185.3 993.141 1185.98 992.915 1186.66 992.689 1187.27 992.201 1187.81 991.452 1188.35 990.703 1188.85 989.58 1189.3 988.082 1189.75 986.584 1190.27 984.46 1190.87 981.708L1199.43 943.621C1199.78 942.088 1200.04 940.73 1200.22 939.546 1200.39 938.361 1200.48 937.386 1200.48 936.62 1200.48 935.052 1200.09 933.938 1199.3 933.276 1198.52 932.614 1197.05 932.266 1194.89 932.231Z" fill-rule="evenodd"/><text fill="#000000" fill-opacity="0" font-family="Arial,Arial_MSFontService,sans-serif" font-size="67.7632" x="1182.77" y="988.232">𝐵</text><path d="M1243.11 851 1261.12 866.576 1261.12 870.739 1243.11 886.314 1239.3 882.008 1250.79 872.031 1221.35 872.031 1207 872.031 1195.64 872.031 1178.29 872.031 1169.93 872.031 1152.58 872.031 1144.22 872.031 1126.86 872.031 1101.15 872.031 1101.15 865.284 1126.86 865.284 1144.22 865.284 1152.58 865.284 1169.93 865.284 1178.29 865.284 1195.64 865.284 1207 865.284 1221.35 865.284 1250.79 865.284 1239.3 855.306Z" fill-rule="evenodd"/><path d="M1894.79 581.836C1898.23 581.836 1900.72 582.733 1902.25 584.528 1903.78 586.322 1904.55 588.727 1904.55 591.742 1904.55 594.038 1904.14 596.67 1903.33 599.637 1902.51 602.604 1901.37 605.738 1899.88 609.04 1898.4 612.342 1896.63 615.727 1894.57 619.196 1892.51 622.666 1890.24 626.039 1887.75 629.317 1885.26 632.595 1882.61 635.681 1879.78 638.576 1876.96 641.471 1874.03 643.995 1870.99 646.149 1867.95 648.302 1864.87 650.013 1861.73 651.281 1858.6 652.549 1855.48 653.183 1852.37 653.183 1850.98 653.183 1849.82 652.836 1848.88 652.142 1847.95 651.448 1847.2 650.467 1846.62 649.199 1846.05 647.931 1845.64 646.436 1845.4 644.713 1845.16 642.991 1845.04 641.1 1845.04 639.043 1845.04 636.315 1845.21 633.396 1845.55 630.286 1845.88 627.176 1846.31 624.041 1846.84 620.883L1849.85 601.001C1850.04 599.852 1850.2 598.764 1850.32 597.735 1850.44 596.706 1850.5 595.952 1850.5 595.474 1850.5 593.991 1850.26 592.77 1849.78 591.813 1849.3 590.856 1848.49 590.378 1847.34 590.378 1846.43 590.378 1845.45 590.653 1844.4 591.203 1843.35 591.753 1842.28 592.459 1841.2 593.321 1840.13 594.182 1839.09 595.103 1838.08 596.084 1837.08 597.065 1836.14 597.986 1835.28 598.847L1831.84 594.828C1833.32 593.297 1834.9 591.777 1836.57 590.27 1838.25 588.763 1840.02 587.399 1841.89 586.179 1843.75 584.959 1845.71 583.978 1847.77 583.236 1849.83 582.494 1851.94 582.123 1854.09 582.123 1855.91 582.123 1857.39 582.422 1858.54 583.021 1859.69 583.619 1860.58 584.408 1861.23 585.389 1861.88 586.37 1862.32 587.447 1862.56 588.619 1862.8 589.792 1862.92 590.952 1862.92 592.1 1862.92 592.77 1862.89 593.416 1862.85 594.038 1862.8 594.66 1862.73 595.235 1862.63 595.761L1858.61 621.744C1858.18 624.472 1857.82 627.14 1857.53 629.748 1857.25 632.356 1857.1 634.664 1857.1 636.674 1857.1 638.684 1857.22 640.311 1857.46 641.555 1857.7 642.799 1858.16 643.421 1858.83 643.421 1860.4 643.421 1862.39 642.787 1864.78 641.519 1867.18 640.251 1869.69 638.504 1872.32 636.279 1874.95 634.054 1877.58 631.422 1880.22 628.384 1882.85 625.345 1885.22 622.055 1887.32 618.514 1889.43 614.973 1891.14 611.241 1892.45 607.317 1893.77 603.393 1894.43 599.446 1894.43 595.474 1894.43 593.751 1894.06 592.423 1893.31 591.49 1892.57 590.557 1891.41 590.091 1889.83 590.091 1887.82 590.091 1885.97 590.868 1884.27 592.423 1882.57 593.979 1880.81 596.024 1879 598.56L1874.9 594.9C1876.05 593.177 1877.4 591.526 1878.96 589.947 1880.51 588.368 1882.17 586.98 1883.91 585.784 1885.66 584.588 1887.46 583.631 1889.33 582.913 1891.2 582.195 1893.02 581.836 1894.79 581.836Z" fill-rule="evenodd"/><text fill="#000000" fill-opacity="0" font-family="Arial,Arial_MSFontService,sans-serif" font-size="71.3467" x="1831.84" y="644.265">𝑣</text><path d="M1930.68 649.552 1924.72 676.354C1925.56 676.389 1926.61 676.423 1927.89 676.458 1929.16 676.493 1930.66 676.511 1932.4 676.511 1936.17 676.511 1939.41 676.188 1942.15 675.544 1944.88 674.9 1947.15 673.89 1948.94 672.514 1950.73 671.138 1952.06 669.353 1952.91 667.159 1953.76 664.964 1954.19 662.334 1954.19 659.269 1954.19 657.667 1953.95 656.256 1953.46 655.037 1952.97 653.818 1952.16 652.8 1951.03 651.981 1949.9 651.162 1948.45 650.553 1946.69 650.152 1944.93 649.752 1942.78 649.552 1940.24 649.552ZM1946.46 619.562C1944.79 619.562 1943.19 619.588 1941.68 619.641 1940.16 619.693 1938.71 619.789 1937.32 619.928L1931.93 644.118 1940.03 644.118C1943.83 644.118 1947.04 643.761 1949.67 643.047 1952.3 642.333 1954.43 641.314 1956.07 639.991 1957.71 638.667 1958.9 637.073 1959.65 635.21 1960.4 633.347 1960.77 631.248 1960.77 628.914 1960.7 627.417 1960.41 626.076 1959.89 624.891 1959.36 623.707 1958.54 622.723 1957.4 621.94 1956.27 621.156 1954.81 620.564 1953.02 620.163 1951.22 619.763 1949.04 619.562 1946.46 619.562ZM1921.38 614.129 1948.76 614.129C1952.83 614.129 1956.29 614.46 1959.13 615.121 1961.97 615.783 1964.3 616.741 1966.13 617.995 1967.96 619.249 1969.28 620.755 1970.1 622.514 1970.92 624.273 1971.33 626.285 1971.33 628.549 1971.33 637.117 1965.95 643.16 1955.18 646.678 1955.18 646.852 1955.18 646.992 1955.16 647.096 1955.14 647.201 1955.13 647.288 1955.13 647.357 1958.37 648.646 1960.83 650.422 1962.5 652.686 1964.17 654.95 1965.01 657.563 1965.01 660.523 1965.01 663.867 1964.39 666.854 1963.15 669.483 1961.91 672.113 1960.01 674.342 1957.43 676.171 1954.85 678 1951.54 679.41 1947.5 680.403 1943.46 681.396 1938.62 681.892 1932.98 681.892L1908.48 681.892 1909.05 678.705C1910.13 678.531 1911.01 678.33 1911.69 678.104 1912.37 677.878 1912.98 677.39 1913.52 676.641 1914.06 675.892 1914.55 674.769 1915.01 673.271 1915.46 671.774 1915.98 669.649 1916.57 666.897L1925.14 628.81C1925.49 627.277 1925.75 625.919 1925.93 624.735 1926.1 623.55 1926.19 622.575 1926.19 621.809 1926.19 620.242 1925.8 619.127 1925.01 618.465 1924.23 617.803 1922.76 617.455 1920.6 617.42Z" fill-rule="evenodd"/><text fill="#000000" fill-opacity="0" font-family="Arial,Arial_MSFontService,sans-serif" font-size="67.7632" x="1908.48" y="673.422">𝐵</text><path d="M2021.72 607.128 2029.82 607.128 1992.09 704.358 1983.89 704.358Z" fill-rule="evenodd"/><text fill="#000000" fill-opacity="0" font-family="Arial,Arial_MSFontService,sans-serif" font-size="97.23" x="1983.89" y="692.204">/</text><path d="M2079.23 624.682C2076.2 629.628 2073.2 634.583 2070.22 639.546 2067.24 644.51 2064.24 649.482 2061.21 654.463L2081.32 654.463C2081.15 652.234 2080.97 650.048 2080.8 647.906 2080.63 645.764 2080.49 643.508 2080.38 641.14 2080.28 638.771 2080.18 636.246 2080.09 633.564 2080.01 630.882 2079.96 627.922 2079.96 624.682ZM2079.02 613.241 2087.64 613.241 2092.4 668.465C2092.54 670.241 2092.76 671.739 2093.05 672.958 2093.35 674.177 2093.76 675.187 2094.28 675.988 2094.8 676.789 2095.46 677.399 2096.24 677.817 2097.02 678.235 2098.01 678.531 2099.19 678.705L2098.41 681.892 2075.63 681.892 2076.41 678.705C2077.39 678.531 2078.25 678.313 2079 678.052 2079.75 677.791 2080.36 677.355 2080.85 676.746 2081.34 676.136 2081.71 675.309 2081.98 674.264 2082.24 673.219 2082.37 671.861 2082.37 670.189 2082.37 669.562 2082.35 668.839 2082.32 668.021 2082.28 667.202 2082.24 666.34 2082.18 665.434 2082.13 664.529 2082.06 663.597 2081.98 662.639 2081.89 661.681 2081.81 660.75 2081.74 659.844L2058.33 659.844C2057.53 661.028 2056.74 662.247 2055.96 663.501 2055.17 664.755 2054.46 665.983 2053.82 667.185 2053.17 668.386 2052.66 669.579 2052.27 670.763 2051.89 671.948 2051.7 673.115 2051.7 674.264 2051.7 676.807 2053.56 678.287 2057.29 678.705L2056.61 681.892 2033.78 681.892 2034.35 678.705C2035.29 678.531 2036.14 678.261 2036.89 677.895 2037.64 677.529 2038.42 676.955 2039.24 676.171 2040.06 675.387 2040.95 674.325 2041.9 672.984 2042.86 671.643 2044.02 669.875 2045.38 667.681Z" fill-rule="evenodd"/><text fill="#000000" fill-opacity="0" font-family="Arial,Arial_MSFontService,sans-serif" font-size="68.6514" x="2033.78" y="673.31">𝐴</text><path d="M2093.62 536.189 2111.64 551.765 2111.64 555.928 2093.62 571.503 2089.81 567.197 2101.3 557.22 2071.87 557.22 2057.52 557.22 2046.64 557.22 2028.8 557.22 2021.4 557.22 2003.57 557.22 1996.17 557.22 1978.34 557.22 1970.94 557.22 1953.11 557.22 1945.69 557.22 1927.88 557.22 1920.43 557.22 1902.62 557.22 1895.18 557.22 1877.37 557.22 1869.93 557.22 1852.11 557.22 1826.86 557.22 1826.86 550.473 1852.11 550.473 1869.93 550.473 1877.37 550.473 1895.18 550.473 1902.62 550.473 1920.43 550.473 1927.88 550.473 1945.69 550.473 1953.11 550.473 1970.94 550.473 1978.34 550.473 1996.17 550.473 2003.57 550.473 2021.4 550.473 2028.8 550.473 2046.64 550.473 2057.52 550.473 2071.87 550.473 2101.3 550.473 2089.81 540.496Z" fill-rule="evenodd"/><path d="M1750.96 1466.45C1754.4 1466.45 1756.89 1467.34 1758.42 1469.14 1759.96 1470.93 1760.72 1473.34 1760.72 1476.35 1760.72 1478.65 1760.31 1481.28 1759.5 1484.25 1758.69 1487.22 1757.54 1490.35 1756.06 1493.65 1754.57 1496.95 1752.8 1500.34 1750.74 1503.81 1748.69 1507.28 1746.41 1510.65 1743.93 1513.93 1741.44 1517.21 1738.78 1520.29 1735.96 1523.19 1733.13 1526.08 1730.2 1528.61 1727.17 1530.76 1724.13 1532.91 1721.04 1534.62 1717.91 1535.89 1714.77 1537.16 1711.65 1537.79 1708.54 1537.79 1707.15 1537.79 1705.99 1537.45 1705.06 1536.75 1704.12 1536.06 1703.37 1535.08 1702.8 1533.81 1702.22 1532.54 1701.82 1531.05 1701.58 1529.32 1701.34 1527.6 1701.22 1525.71 1701.22 1523.65 1701.22 1520.93 1701.39 1518.01 1701.72 1514.9 1702.06 1511.79 1702.49 1508.65 1703.01 1505.49L1706.03 1485.61C1706.22 1484.46 1706.37 1483.38 1706.49 1482.35 1706.61 1481.32 1706.67 1480.56 1706.67 1480.09 1706.67 1478.6 1706.43 1477.38 1705.95 1476.42 1705.48 1475.47 1704.66 1474.99 1703.51 1474.99 1702.61 1474.99 1701.62 1475.26 1700.57 1475.81 1699.52 1476.36 1698.45 1477.07 1697.38 1477.93 1696.3 1478.79 1695.26 1479.71 1694.26 1480.7 1693.25 1481.68 1692.32 1482.6 1691.46 1483.46L1688.01 1479.44C1689.49 1477.91 1691.07 1476.39 1692.75 1474.88 1694.42 1473.37 1696.19 1472.01 1698.06 1470.79 1699.93 1469.57 1701.89 1468.59 1703.95 1467.85 1706 1467.11 1708.11 1466.73 1710.26 1466.73 1712.08 1466.73 1713.56 1467.03 1714.71 1467.63 1715.86 1468.23 1716.76 1469.02 1717.4 1470 1718.05 1470.98 1718.49 1472.06 1718.73 1473.23 1718.97 1474.4 1719.09 1475.56 1719.09 1476.71 1719.09 1477.38 1719.07 1478.03 1719.02 1478.65 1718.97 1479.27 1718.9 1479.85 1718.8 1480.37L1714.78 1506.36C1714.35 1509.08 1713.99 1511.75 1713.71 1514.36 1713.42 1516.97 1713.28 1519.28 1713.28 1521.29 1713.28 1523.3 1713.4 1524.92 1713.64 1526.17 1713.87 1527.41 1714.33 1528.03 1715 1528.03 1716.58 1528.03 1718.56 1527.4 1720.96 1526.13 1723.35 1524.86 1725.86 1523.12 1728.49 1520.89 1731.12 1518.67 1733.76 1516.03 1736.39 1513 1739.02 1509.96 1741.39 1506.67 1743.49 1503.13 1745.6 1499.58 1747.31 1495.85 1748.63 1491.93 1749.94 1488 1750.6 1484.06 1750.6 1480.09 1750.6 1478.36 1750.23 1477.03 1749.49 1476.1 1748.75 1475.17 1747.59 1474.7 1746.01 1474.7 1744 1474.7 1742.14 1475.48 1740.44 1477.03 1738.75 1478.59 1736.99 1480.64 1735.17 1483.17L1731.08 1479.51C1732.23 1477.79 1733.58 1476.14 1735.13 1474.56 1736.69 1472.98 1738.34 1471.59 1740.09 1470.4 1741.83 1469.2 1743.64 1468.24 1745.5 1467.52 1747.37 1466.81 1749.19 1466.45 1750.96 1466.45Z" fill-rule="evenodd"/><text fill="#000000" fill-opacity="0" font-family="Arial,Arial_MSFontService,sans-serif" font-size="71.3467" x="1688.01" y="1528.88">𝑣</text><path d="M1799.76 1509.29C1796.73 1514.24 1793.73 1519.19 1790.75 1524.16 1787.77 1529.12 1784.77 1534.09 1781.74 1539.07L1801.85 1539.07C1801.68 1536.84 1801.5 1534.66 1801.33 1532.52 1801.16 1530.38 1801.02 1528.12 1800.91 1525.75 1800.81 1523.38 1800.71 1520.86 1800.62 1518.18 1800.54 1515.49 1800.49 1512.53 1800.49 1509.29ZM1799.55 1497.85 1808.17 1497.85 1812.93 1553.08C1813.07 1554.85 1813.29 1556.35 1813.58 1557.57 1813.88 1558.79 1814.29 1559.8 1814.81 1560.6 1815.33 1561.4 1815.98 1562.01 1816.77 1562.43 1817.55 1562.85 1818.54 1563.14 1819.72 1563.32L1818.94 1566.5 1796.16 1566.5 1796.94 1563.32C1797.92 1563.14 1798.78 1562.92 1799.53 1562.66 1800.28 1562.4 1800.89 1561.97 1801.38 1561.36 1801.87 1560.75 1802.24 1559.92 1802.51 1558.88 1802.77 1557.83 1802.9 1556.47 1802.9 1554.8 1802.9 1554.17 1802.88 1553.45 1802.84 1552.63 1802.81 1551.81 1802.77 1550.95 1802.71 1550.05 1802.66 1549.14 1802.59 1548.21 1802.51 1547.25 1802.42 1546.29 1802.34 1545.36 1802.27 1544.46L1778.86 1544.46C1778.06 1545.64 1777.27 1546.86 1776.49 1548.11 1775.7 1549.37 1774.99 1550.59 1774.34 1551.8 1773.7 1553 1773.19 1554.19 1772.8 1555.37 1772.42 1556.56 1772.23 1557.73 1772.23 1558.88 1772.23 1561.42 1774.09 1562.9 1777.82 1563.32L1777.14 1566.5 1754.31 1566.5 1754.88 1563.32C1755.82 1563.14 1756.67 1562.87 1757.42 1562.51 1758.17 1562.14 1758.95 1561.57 1759.77 1560.78 1760.59 1560 1761.47 1558.94 1762.43 1557.6 1763.39 1556.25 1764.55 1554.49 1765.91 1552.29Z" fill-rule="evenodd"/><text fill="#000000" fill-opacity="0" font-family="Arial,Arial_MSFontService,sans-serif" font-size="68.6514" x="1754.31" y="1557.92">𝐴</text><path d="M1814.17 1420.8 1832.19 1436.38 1832.19 1440.54 1814.17 1456.11 1810.37 1451.81 1821.85 1441.83 1792.42 1441.83 1778.07 1441.83 1770.33 1441.83 1749.35 1441.83 1748.21 1441.83 1727.26 1441.83 1726.1 1441.83 1705.15 1441.83 1683.03 1441.83 1683.03 1435.08 1705.15 1435.08 1726.1 1435.08 1727.26 1435.08 1748.21 1435.08 1749.35 1435.08 1770.33 1435.08 1778.07 1435.08 1792.42 1435.08 1821.85 1435.08 1810.37 1425.11Z" fill-rule="evenodd"/></g></svg>