<svg width="1356" height="954" xmlns="http://www.w3.org/2000/svg" xmlns:xlink="http://www.w3.org/1999/xlink" xml:space="preserve" overflow="hidden"><g transform="translate(-1234 -815)"><path d="M1575.5 1658.5 1575.5 825.5 2577.5 1658.5Z" stroke="#000000" stroke-width="9.16667" stroke-miterlimit="8" fill="none" fill-rule="evenodd"/><path d="M1654.1 889.693C1649.89 921.565 1622.36 945.133 1592.6 942.334 1587.82 941.884 1583.16 940.756 1578.72 938.979" stroke="#000000" stroke-width="9.16667" stroke-miterlimit="8" fill="none" fill-rule="evenodd"/><path d="M1635.97 981.585C1634.7 987.448 1634.06 992.379 1634.06 996.378 1634.06 999.404 1634.52 1001.63 1635.44 1003.04 1636.36 1004.46 1637.84 1005.17 1639.9 1005.17 1642.92 1005.17 1645.79 1003.14 1648.51 999.073 1651.22 995.007 1653.53 989.177 1655.42 981.585ZM1652.58 954.27C1649.42 954.27 1646.5 956.269 1643.81 960.268 1641.12 964.267 1638.83 969.994 1636.94 977.451L1656.35 977.451C1657.62 971.751 1658.26 966.847 1658.26 962.74 1658.26 959.903 1657.8 957.782 1656.88 956.377 1655.96 954.972 1654.53 954.27 1652.58 954.27ZM1653.07 950.987C1660.9 950.987 1664.82 955.958 1664.82 965.901 1664.82 968.711 1664.5 972.068 1663.87 975.972 1663.23 979.876 1662.23 983.855 1660.85 987.907 1659.47 991.96 1657.73 995.547 1655.62 998.667 1653.51 1001.79 1651.08 1004.2 1648.33 1005.9 1645.57 1007.6 1642.6 1008.45 1639.41 1008.45 1635.39 1008.45 1632.39 1007.23 1630.41 1004.77 1628.44 1002.31 1627.46 998.62 1627.46 993.703 1627.46 991.028 1627.75 987.732 1628.35 983.814 1628.94 979.897 1629.92 975.891 1631.29 971.798 1632.65 967.705 1634.41 964.071 1636.55 960.896 1638.7 957.721 1641.17 955.276 1643.97 953.561 1646.77 951.845 1649.8 950.987 1653.07 950.987Z" fill-rule="evenodd"/><text fill="#000000" fill-opacity="0" font-family="Arial,Arial_MSFontService,sans-serif" font-size="57.4678" x="1627.46" y="1001.27">𝜃</text><path d="M1353.03 1213.44C1351.77 1213.44 1350.44 1213.48 1349.04 1213.58L1344.47 1234.22 1348.68 1234.22C1352.13 1234.22 1354.85 1233.75 1356.84 1232.83 1358.84 1231.9 1360.42 1230.38 1361.58 1228.27 1362.75 1226.15 1363.33 1223.87 1363.33 1221.42 1363.33 1220.4 1363.23 1219.49 1363.04 1218.7 1362.85 1217.9 1362.61 1217.24 1362.3 1216.72 1361.99 1216.19 1361.6 1215.73 1361.12 1215.33 1360.64 1214.92 1360.05 1214.57 1359.34 1214.28 1358.62 1213.98 1357.8 1213.76 1356.86 1213.63 1355.92 1213.5 1354.64 1213.44 1353.03 1213.44ZM1338.74 1210.3 1354.6 1210.3C1357.12 1210.3 1359.17 1210.45 1360.76 1210.75 1362.36 1211.04 1363.72 1211.49 1364.84 1212.08 1365.97 1212.68 1366.92 1213.44 1367.68 1214.38 1368.44 1215.32 1369.01 1216.38 1369.39 1217.55 1369.77 1218.73 1369.96 1219.98 1369.96 1221.31 1369.96 1224.97 1368.84 1228.09 1366.61 1230.65 1364.38 1233.22 1361.08 1235.17 1356.74 1236.5L1356.74 1236.89C1357.88 1237.75 1358.8 1238.77 1359.5 1239.96 1360.2 1241.15 1360.76 1242.8 1361.19 1244.91L1362.01 1249.05C1362.27 1250.35 1362.57 1251.53 1362.9 1252.58 1363.23 1253.62 1363.63 1254.45 1364.1 1255.07 1364.56 1255.69 1365.08 1256.15 1365.66 1256.46 1366.25 1256.77 1367.1 1257.02 1368.21 1257.21L1367.86 1258.96 1357.98 1258.96C1357.22 1256.84 1356.55 1254.32 1355.95 1251.4L1354.38 1243.84C1354.12 1242.54 1353.81 1241.44 1353.44 1240.55 1353.07 1239.65 1352.63 1238.96 1352.12 1238.48 1351.61 1237.99 1351.01 1237.67 1350.34 1237.52 1349.66 1237.36 1348.83 1237.28 1347.86 1237.28L1343.8 1237.28 1341.3 1248.58C1341.09 1249.51 1340.94 1250.25 1340.86 1250.79 1340.77 1251.34 1340.7 1251.92 1340.64 1252.52 1340.58 1253.13 1340.55 1253.67 1340.55 1254.14 1340.55 1254.88 1340.67 1255.46 1340.91 1255.87 1341.15 1256.29 1341.5 1256.59 1341.98 1256.78 1342.45 1256.97 1343.27 1257.11 1344.44 1257.21L1344.05 1258.96 1329.4 1258.96 1329.79 1257.21C1330.69 1257.07 1331.37 1256.83 1331.82 1256.51 1332.27 1256.19 1332.65 1255.75 1332.96 1255.18 1333.27 1254.61 1333.56 1253.91 1333.82 1253.09 1334.08 1252.27 1334.47 1250.69 1334.99 1248.33L1341.05 1220.89C1341.58 1218.51 1341.84 1216.63 1341.84 1215.26 1341.84 1214.09 1341.56 1213.28 1341.02 1212.83 1340.47 1212.38 1339.58 1212.12 1338.34 1212.05ZM1306.86 1209.73C1311.28 1209.73 1314.62 1210.7 1316.88 1212.64 1319.13 1214.57 1320.26 1217.38 1320.26 1221.07 1320.26 1222.32 1320.14 1223.48 1319.89 1224.54 1319.64 1225.6 1319.25 1226.64 1318.71 1227.68 1318.18 1228.71 1317.46 1229.82 1316.56 1231.01 1315.65 1232.2 1314.65 1233.4 1313.56 1234.63 1312.47 1235.85 1310.58 1237.89 1307.89 1240.74 1303.38 1245.52 1300.06 1249.69 1297.95 1253.25L1311.39 1253.25C1312.55 1253.25 1313.49 1253.18 1314.2 1253.04 1314.92 1252.9 1315.49 1252.66 1315.91 1252.33 1316.34 1251.99 1316.68 1251.56 1316.93 1251.02 1317.18 1250.49 1317.49 1249.66 1317.87 1248.55L1320.9 1248.55 1320.3 1258.96 1290.96 1258.96 1290.96 1257.24C1291.98 1254.75 1293.36 1252.19 1295.1 1249.58 1296.83 1246.97 1299.29 1243.89 1302.48 1240.35 1305.23 1237.31 1307.22 1235 1308.43 1233.43 1309.76 1231.72 1310.75 1230.24 1311.41 1229 1312.06 1227.75 1312.53 1226.57 1312.81 1225.47 1313.1 1224.36 1313.24 1223.25 1313.24 1222.13 1313.24 1220.35 1312.96 1218.78 1312.39 1217.41 1311.81 1216.05 1310.94 1214.97 1309.77 1214.19 1308.59 1213.4 1307.11 1213.01 1305.33 1213.01 1300.88 1213.01 1297.89 1215.48 1296.35 1220.42L1292.03 1220.42 1292.03 1213.58C1294.91 1212.23 1297.6 1211.25 1300.11 1210.64 1302.61 1210.03 1304.86 1209.73 1306.86 1209.73Z" fill-rule="evenodd"/><text fill="#000000" fill-opacity="0" font-family="Arial,Arial_MSFontService,sans-serif" font-size="49.2251" x="1290.96" y="1252.8">2𝑅</text><path d="M1397.78 1235.72 1441.69 1235.72 1441.69 1240.46 1397.78 1240.46Z" fill-rule="evenodd"/><text fill="#000000" fill-opacity="0" font-family="Arial,Arial_MSFontService,sans-serif" font-size="4.74072" x="1397.78" y="1239.86">−</text><path d="M1477.84 1224.27C1478.58 1224.27 1479.23 1224.36 1479.78 1224.52 1480.34 1224.69 1480.84 1224.94 1481.26 1225.29 1481.69 1225.63 1482.07 1226.08 1482.4 1226.63 1482.74 1227.17 1483.06 1227.92 1483.37 1228.85 1483.68 1229.79 1483.97 1230.96 1484.24 1232.35 1484.51 1233.74 1484.76 1235.18 1484.97 1236.68L1485.33 1236.68C1487.61 1233.47 1489.34 1231.12 1490.51 1229.64 1491.69 1228.15 1492.68 1227.05 1493.49 1226.32 1494.3 1225.6 1495.08 1225.09 1495.82 1224.79 1496.57 1224.49 1497.57 1224.34 1498.8 1224.34 1499.92 1224.34 1500.83 1224.49 1501.55 1224.77L1500.12 1231.22 1497.62 1231.22C1497.48 1230.23 1497.07 1229.73 1496.38 1229.73 1496.16 1229.73 1495.94 1229.76 1495.7 1229.83 1495.46 1229.91 1495.17 1230.06 1494.83 1230.3 1494.48 1230.54 1493.98 1231 1493.31 1231.69 1492.65 1232.38 1491.9 1233.22 1491.07 1234.22 1490.23 1235.22 1489.38 1236.26 1488.5 1237.35L1486.08 1240.38C1486.5 1242.67 1486.91 1244.64 1487.29 1246.3 1487.67 1247.97 1488.01 1249.35 1488.3 1250.45 1488.6 1251.56 1488.86 1252.43 1489.09 1253.07 1489.31 1253.72 1489.56 1254.2 1489.82 1254.52 1490.08 1254.84 1490.35 1255.06 1490.62 1255.2 1490.89 1255.33 1491.21 1255.39 1491.57 1255.39 1492.21 1255.39 1492.83 1255.14 1493.44 1254.64 1494.04 1254.14 1494.92 1253.01 1496.06 1251.26L1498.37 1252.79C1496.71 1255.26 1495.21 1257 1493.86 1258.01 1492.52 1259.02 1490.92 1259.53 1489.07 1259.53 1488.05 1259.53 1487.18 1259.34 1486.47 1258.97 1485.76 1258.61 1485.14 1258.02 1484.61 1257.21 1484.09 1256.4 1483.63 1255.14 1483.22 1253.43 1482.49 1250.39 1482.04 1248.06 1481.87 1246.44L1481.51 1246.44C1478.99 1249.98 1477.12 1252.53 1475.9 1254.07 1474.68 1255.62 1473.67 1256.76 1472.87 1257.49 1472.07 1258.23 1471.3 1258.75 1470.55 1259.04 1469.8 1259.34 1468.81 1259.49 1467.58 1259.49 1466.46 1259.49 1465.54 1259.35 1464.83 1259.06L1466.26 1252.61 1468.75 1252.61C1468.9 1253.61 1469.31 1254.11 1470 1254.11 1470.33 1254.11 1470.68 1254.02 1471.05 1253.84 1471.42 1253.66 1471.95 1253.23 1472.64 1252.56 1473.33 1251.88 1474.28 1250.82 1475.49 1249.37 1476.7 1247.92 1478.46 1245.74 1480.77 1242.84 1480.41 1240.97 1480.04 1239.16 1479.66 1237.43 1479.28 1235.69 1478.89 1234.08 1478.48 1232.58 1478.08 1231.08 1477.75 1230.1 1477.49 1229.64 1477.22 1229.17 1476.95 1228.85 1476.65 1228.68 1476.35 1228.5 1475.98 1228.41 1475.53 1228.41 1475.03 1228.41 1474.57 1228.52 1474.17 1228.75 1473.77 1228.97 1473.33 1229.36 1472.85 1229.92 1472.38 1230.48 1471.75 1231.35 1470.96 1232.54L1468.65 1231.01C1470.14 1228.75 1471.58 1227.07 1472.96 1225.95 1474.34 1224.83 1475.96 1224.27 1477.84 1224.27Z" fill-rule="evenodd"/><text fill="#000000" fill-opacity="0" font-family="Arial,Arial_MSFontService,sans-serif" font-size="35.2524" x="1464.83" y="1255.12">𝑥</text><path d="M1508.27 1240.36 1536.51 1240.36 1534.41 1249.49 1531.69 1249.49 1531.69 1248.02C1531.69 1247.74 1531.68 1247.42 1531.65 1247.07 1531.63 1246.72 1531.59 1246.36 1531.54 1246.01 1531.49 1245.66 1531.42 1245.33 1531.36 1245.03 1531.29 1244.72 1531.21 1244.48 1531.12 1244.29 1531 1244.05 1530.88 1243.85 1530.75 1243.69 1530.62 1243.54 1530.45 1243.42 1530.26 1243.33 1530.06 1243.24 1529.82 1243.18 1529.54 1243.15 1529.27 1243.12 1528.91 1243.1 1528.48 1243.1L1524.32 1243.1 1518.99 1266.7C1518.8 1267.49 1518.66 1268.17 1518.58 1268.73 1518.51 1269.29 1518.47 1269.8 1518.47 1270.25 1518.49 1270.59 1518.54 1270.89 1518.62 1271.14 1518.71 1271.39 1518.87 1271.6 1519.09 1271.77 1519.31 1271.94 1519.62 1272.07 1520 1272.16 1520.37 1272.25 1520.87 1272.31 1521.47 1272.34L1521.11 1273.92 1509.67 1273.92 1510.01 1272.34C1510.44 1272.24 1510.81 1272.15 1511.12 1272.07 1511.43 1271.99 1511.7 1271.89 1511.92 1271.76 1512.15 1271.63 1512.34 1271.45 1512.5 1271.23 1512.67 1271 1512.83 1270.7 1512.98 1270.31 1513.14 1269.92 1513.29 1269.42 1513.45 1268.8 1513.6 1268.18 1513.78 1267.41 1513.99 1266.49L1519.22 1243.1 1515.65 1243.1C1515.08 1243.1 1514.6 1243.12 1514.2 1243.15 1513.8 1243.18 1513.44 1243.28 1513.11 1243.42 1512.78 1243.57 1512.48 1243.77 1512.19 1244.03 1511.91 1244.29 1511.61 1244.64 1511.31 1245.09 1511.01 1245.54 1510.68 1246.09 1510.33 1246.75 1509.98 1247.4 1509.57 1248.19 1509.1 1249.1L1506.33 1249.1Z" fill-rule="evenodd"/><text fill="#000000" fill-opacity="0" font-family="Arial,Arial_MSFontService,sans-serif" font-size="33.5649" x="1506.33" y="1269.72">𝑇</text><path d="M1991.22 1689.52C1992.06 1689.52 1992.8 1689.61 1993.43 1689.8 1994.07 1689.99 1994.63 1690.28 1995.11 1690.68 1995.6 1691.07 1996.03 1691.57 1996.41 1692.2 1996.79 1692.82 1997.15 1693.66 1997.5 1694.73 1997.85 1695.8 1998.19 1697.12 1998.5 1698.7 1998.81 1700.28 1999.08 1701.92 1999.33 1703.62L1999.73 1703.62C2002.33 1699.98 2004.29 1697.31 2005.63 1695.62 2006.97 1693.93 2008.09 1692.67 2009.01 1691.85 2009.93 1691.03 2010.82 1690.45 2011.67 1690.11 2012.52 1689.77 2013.65 1689.6 2015.05 1689.6 2016.32 1689.6 2017.36 1689.76 2018.17 1690.09L2016.55 1697.42 2013.71 1697.42C2013.55 1696.29 2013.08 1695.72 2012.3 1695.72 2012.05 1695.72 2011.8 1695.76 2011.53 1695.84 2011.26 1695.92 2010.93 1696.1 2010.53 1696.37 2010.14 1696.64 2009.57 1697.17 2008.81 1697.95 2008.05 1698.73 2007.2 1699.69 2006.26 1700.83 2005.31 1701.96 2004.34 1703.15 2003.34 1704.39L2000.58 1707.84C2001.07 1710.43 2001.53 1712.67 2001.96 1714.57 2002.39 1716.46 2002.78 1718.03 2003.12 1719.29 2003.45 1720.54 2003.75 1721.54 2004.01 1722.27 2004.27 1723 2004.54 1723.54 2004.84 1723.91 2005.14 1724.27 2005.44 1724.53 2005.75 1724.68 2006.06 1724.83 2006.42 1724.9 2006.83 1724.9 2007.55 1724.9 2008.26 1724.62 2008.95 1724.05 2009.64 1723.48 2010.63 1722.2 2011.93 1720.2L2014.57 1721.94C2012.67 1724.75 2010.97 1726.73 2009.44 1727.88 2007.91 1729.03 2006.1 1729.6 2003.99 1729.6 2002.83 1729.6 2001.84 1729.39 2001.03 1728.97 2000.22 1728.55 1999.52 1727.89 1998.92 1726.97 1998.33 1726.05 1997.8 1724.62 1997.34 1722.67 1996.5 1719.21 1995.99 1716.57 1995.8 1714.73L1995.4 1714.73C1992.53 1718.75 1990.4 1721.64 1989.01 1723.4 1987.62 1725.16 1986.47 1726.45 1985.57 1727.29 1984.66 1728.13 1983.79 1728.72 1982.93 1729.05 1982.08 1729.39 1980.96 1729.56 1979.55 1729.56 1978.28 1729.56 1977.24 1729.4 1976.43 1729.07L1978.05 1721.74 1980.89 1721.74C1981.05 1722.87 1981.52 1723.44 1982.31 1723.44 1982.68 1723.44 1983.08 1723.34 1983.5 1723.14 1983.92 1722.94 1984.52 1722.45 1985.31 1721.68 1986.09 1720.91 1987.17 1719.7 1988.55 1718.05 1989.93 1716.4 1991.92 1713.93 1994.55 1710.64 1994.14 1708.5 1993.72 1706.45 1993.29 1704.47 1992.86 1702.5 1992.41 1700.67 1991.95 1698.96 1991.49 1697.26 1991.11 1696.15 1990.82 1695.62 1990.52 1695.09 1990.2 1694.73 1989.86 1694.53 1989.53 1694.32 1989.1 1694.22 1988.59 1694.22 1988.02 1694.22 1987.51 1694.35 1987.05 1694.61 1986.59 1694.86 1986.09 1695.31 1985.55 1695.94 1985.01 1696.58 1984.29 1697.57 1983.4 1698.92L1980.77 1697.18C1982.47 1694.61 1984.1 1692.69 1985.67 1691.43 1987.24 1690.16 1989.09 1689.52 1991.22 1689.52Z" fill-rule="evenodd"/><text fill="#000000" fill-opacity="0" font-family="Arial,Arial_MSFontService,sans-serif" font-size="40.0815" x="1976.43" y="1724.59">𝑥</text><path d="M2033.15 1727.36 2029.76 1742.64C2030.23 1742.66 2030.83 1742.68 2031.56 1742.7 2032.28 1742.72 2033.14 1742.73 2034.13 1742.73 2036.28 1742.73 2038.13 1742.55 2039.69 1742.18 2041.25 1741.81 2042.54 1741.23 2043.56 1740.45 2044.58 1739.67 2045.34 1738.65 2045.82 1737.4 2046.31 1736.15 2046.55 1734.65 2046.55 1732.9 2046.55 1731.99 2046.42 1731.18 2046.14 1730.49 2045.86 1729.79 2045.4 1729.21 2044.75 1728.75 2044.11 1728.28 2043.28 1727.93 2042.28 1727.7 2041.28 1727.47 2040.05 1727.36 2038.6 1727.36ZM2042.15 1710.26C2041.19 1710.26 2040.28 1710.28 2039.42 1710.31 2038.56 1710.34 2037.73 1710.39 2036.93 1710.47L2033.87 1724.26 2038.48 1724.26C2040.65 1724.26 2042.48 1724.06 2043.98 1723.65 2045.48 1723.24 2046.69 1722.66 2047.63 1721.91 2048.56 1721.15 2049.24 1720.25 2049.67 1719.18 2050.09 1718.12 2050.31 1716.93 2050.31 1715.59 2050.27 1714.74 2050.1 1713.98 2049.8 1713.3 2049.5 1712.63 2049.03 1712.07 2048.39 1711.62 2047.74 1711.17 2046.91 1710.83 2045.88 1710.61 2044.86 1710.38 2043.62 1710.26 2042.15 1710.26ZM2027.85 1707.17 2043.46 1707.17C2045.78 1707.17 2047.75 1707.35 2049.37 1707.73 2050.99 1708.11 2052.32 1708.66 2053.36 1709.37 2054.4 1710.08 2055.16 1710.94 2055.62 1711.95 2056.09 1712.95 2056.32 1714.1 2056.32 1715.39 2056.32 1720.27 2053.26 1723.72 2047.12 1725.72 2047.12 1725.82 2047.11 1725.9 2047.11 1725.96 2047.1 1726.02 2047.09 1726.07 2047.09 1726.11 2048.94 1726.84 2050.34 1727.86 2051.29 1729.15 2052.24 1730.44 2052.72 1731.93 2052.72 1733.61 2052.72 1735.52 2052.37 1737.22 2051.66 1738.72 2050.96 1740.22 2049.87 1741.49 2048.4 1742.54 2046.93 1743.58 2045.04 1744.38 2042.74 1744.95 2040.44 1745.51 2037.68 1745.8 2034.46 1745.8L2020.49 1745.8 2020.82 1743.98C2021.44 1743.88 2021.94 1743.77 2022.32 1743.64 2022.71 1743.51 2023.06 1743.23 2023.37 1742.8 2023.67 1742.38 2023.96 1741.74 2024.22 1740.88 2024.47 1740.03 2024.77 1738.82 2025.11 1737.25L2029.99 1715.54C2030.19 1714.66 2030.34 1713.89 2030.44 1713.21 2030.54 1712.54 2030.59 1711.98 2030.59 1711.54 2030.59 1710.65 2030.37 1710.02 2029.92 1709.64 2029.47 1709.26 2028.63 1709.06 2027.4 1709.04Z" fill-rule="evenodd"/><text fill="#000000" fill-opacity="0" font-family="Arial,Arial_MSFontService,sans-serif" font-size="38.6313" x="2020.49" y="1740.97">𝐵</text><path d="M2173.99 1149.89C2172.56 1149.89 2171.05 1149.94 2169.45 1150.05L2164.26 1173.51 2169.05 1173.51C2172.96 1173.51 2176.06 1172.99 2178.33 1171.93 2180.6 1170.88 2182.39 1169.15 2183.72 1166.74 2185.04 1164.34 2185.7 1161.75 2185.7 1158.96 2185.7 1157.8 2185.59 1156.77 2185.38 1155.86 2185.16 1154.96 2184.88 1154.21 2184.53 1153.61 2184.18 1153.02 2183.73 1152.49 2183.19 1152.03 2182.65 1151.57 2181.97 1151.18 2181.16 1150.84 2180.35 1150.5 2179.41 1150.26 2178.35 1150.11 2177.28 1149.96 2175.83 1149.89 2173.99 1149.89ZM2157.74 1146.32 2175.77 1146.32C2178.64 1146.32 2180.97 1146.49 2182.79 1146.83 2184.6 1147.16 2186.14 1147.67 2187.43 1148.35 2188.71 1149.02 2189.78 1149.89 2190.65 1150.96 2191.51 1152.03 2192.16 1153.23 2192.59 1154.57 2193.03 1155.9 2193.24 1157.33 2193.24 1158.84 2193.24 1163 2191.97 1166.54 2189.43 1169.46 2186.89 1172.38 2183.15 1174.59 2178.21 1176.11L2178.21 1176.55C2179.5 1177.53 2180.55 1178.69 2181.35 1180.04 2182.14 1181.39 2182.79 1183.27 2183.27 1185.67L2184.2 1190.37C2184.5 1191.86 2184.84 1193.2 2185.22 1194.38 2185.59 1195.57 2186.05 1196.52 2186.57 1197.22 2187.1 1197.92 2187.7 1198.45 2188.36 1198.8 2189.02 1199.15 2189.99 1199.44 2191.26 1199.65L2190.85 1201.64 2179.62 1201.64C2178.76 1199.23 2177.99 1196.37 2177.31 1193.05L2175.53 1184.46C2175.23 1182.97 2174.88 1181.72 2174.46 1180.71 2174.04 1179.69 2173.54 1178.91 2172.96 1178.36 2172.38 1177.8 2171.7 1177.44 2170.93 1177.26 2170.16 1177.09 2169.22 1177 2168.11 1177L2163.49 1177 2160.66 1189.85C2160.41 1190.9 2160.25 1191.74 2160.15 1192.36 2160.06 1192.98 2159.98 1193.63 2159.91 1194.32 2159.84 1195.01 2159.81 1195.63 2159.81 1196.17 2159.81 1197.01 2159.94 1197.66 2160.21 1198.13 2160.48 1198.61 2160.89 1198.95 2161.43 1199.17 2161.97 1199.38 2162.9 1199.54 2164.22 1199.65L2163.78 1201.64 2147.12 1201.64 2147.57 1199.65C2148.59 1199.49 2149.36 1199.23 2149.88 1198.86 2150.39 1198.5 2150.82 1197.99 2151.17 1197.34 2151.53 1196.69 2151.85 1195.9 2152.15 1194.97 2152.44 1194.04 2152.89 1192.24 2153.48 1189.56L2160.37 1158.36C2160.97 1155.65 2161.27 1153.52 2161.27 1151.95 2161.27 1150.63 2160.95 1149.71 2160.33 1149.2 2159.71 1148.68 2158.7 1148.39 2157.29 1148.3ZM2122.11 1145.67C2127.14 1145.67 2130.94 1146.77 2133.5 1148.97 2136.07 1151.18 2137.35 1154.37 2137.35 1158.56 2137.35 1159.99 2137.21 1161.31 2136.93 1162.51 2136.64 1163.71 2136.2 1164.9 2135.59 1166.08 2134.98 1167.25 2134.16 1168.51 2133.14 1169.87 2132.11 1171.22 2130.98 1172.59 2129.73 1173.98 2128.49 1175.37 2126.34 1177.69 2123.29 1180.93 2118.16 1186.36 2114.39 1191.1 2111.98 1195.15L2127.26 1195.15C2128.59 1195.15 2129.65 1195.07 2130.46 1194.91 2131.27 1194.75 2131.92 1194.48 2132.41 1194.1 2132.89 1193.72 2133.28 1193.23 2133.56 1192.62 2133.85 1192.01 2134.2 1191.07 2134.64 1189.8L2138.08 1189.8 2137.39 1201.64 2104.04 1201.64 2104.04 1199.69C2105.2 1196.86 2106.77 1193.95 2108.74 1190.98 2110.71 1188.01 2113.51 1184.51 2117.13 1180.48 2120.26 1177.03 2122.52 1174.4 2123.9 1172.62 2125.41 1170.68 2126.54 1168.99 2127.28 1167.58 2128.02 1166.16 2128.56 1164.82 2128.88 1163.56 2129.21 1162.31 2129.37 1161.04 2129.37 1159.77 2129.37 1157.75 2129.04 1155.96 2128.4 1154.4 2127.75 1152.85 2126.75 1151.63 2125.42 1150.74 2124.08 1149.84 2122.4 1149.4 2120.37 1149.4 2115.32 1149.4 2111.91 1152.21 2110.16 1157.83L2105.25 1157.83 2105.25 1150.05C2108.52 1148.51 2111.58 1147.39 2114.43 1146.7 2117.28 1146.02 2119.84 1145.67 2122.11 1145.67Z" fill-rule="evenodd"/><text fill="#000000" fill-opacity="0" font-family="Arial,Arial_MSFontService,sans-serif" font-size="55.9683" x="2104.04" y="1194.64">2𝑅</text></g></svg>