<?xml version="1.0" encoding="utf-8" standalone="no"?>
<!DOCTYPE svg PUBLIC "-//W3C//DTD SVG 1.1//EN"
  "http://www.w3.org/Graphics/SVG/1.1/DTD/svg11.dtd">
<svg xmlns:xlink="http://www.w3.org/1999/xlink" width="576pt" height="432pt" viewBox="0 0 576 432" xmlns="http://www.w3.org/2000/svg" version="1.1">
 <metadata>
  <rdf:RDF xmlns:dc="http://purl.org/dc/elements/1.1/" xmlns:cc="http://creativecommons.org/ns#" xmlns:rdf="http://www.w3.org/1999/02/22-rdf-syntax-ns#">
   <cc:Work>
    <dc:type rdf:resource="http://purl.org/dc/dcmitype/StillImage"/>
    <dc:date>2024-12-20T16:00:02.139003</dc:date>
    <dc:format>image/svg+xml</dc:format>
    <dc:creator>
     <cc:Agent>
      <dc:title>Matplotlib v3.6.3, https://matplotlib.org/</dc:title>
     </cc:Agent>
    </dc:creator>
   </cc:Work>
  </rdf:RDF>
 </metadata>
 <defs>
  <style type="text/css">*{stroke-linejoin: round; stroke-linecap: butt}</style>
 </defs>
 <g id="figure_1">
  <g id="patch_1">
   <path d="M 0 432 
L 576 432 
L 576 0 
L 0 0 
z
" style="fill: #ffffff"/>
  </g>
  <g id="axes_1">
   <g id="patch_2">
    <path d="M 72 384.48 
L 518.4 384.48 
L 518.4 51.84 
L 72 51.84 
z
" style="fill: #ffffff"/>
   </g>
   <g id="matplotlib.axis_1">
    <g id="xtick_1">
     <g id="line2d_1">
      <path d="M 91.477646 384.48 
L 91.477646 51.84 
" clip-path="url(#p066a0fa129)" style="fill: none; stroke-dasharray: 2.22,0.96; stroke-dashoffset: 0; stroke: #b0b0b0; stroke-opacity: 0.7; stroke-width: 0.6"/>
     </g>
     <g id="line2d_2">
      <defs>
       <path id="m8883c9a079" d="M 0 0 
L 0 -3.5 
" style="stroke: #1a1a1a; stroke-width: 0.8"/>
      </defs>
      <g>
       <use xlink:href="#m8883c9a079" x="91.477646" y="384.48" style="fill: #1a1a1a; stroke: #1a1a1a; stroke-width: 0.8"/>
      </g>
     </g>
     <g id="text_1">
      <!-- 0 -->
      <g style="fill: #1a1a1a" transform="translate(87.660146 397.098125) scale(0.12 -0.12)">
       <defs>
        <path id="DejaVuSans-30" d="M 2034 4250 
Q 1547 4250 1301 3770 
Q 1056 3291 1056 2328 
Q 1056 1369 1301 889 
Q 1547 409 2034 409 
Q 2525 409 2770 889 
Q 3016 1369 3016 2328 
Q 3016 3291 2770 3770 
Q 2525 4250 2034 4250 
z
M 2034 4750 
Q 2819 4750 3233 4129 
Q 3647 3509 3647 2328 
Q 3647 1150 3233 529 
Q 2819 -91 2034 -91 
Q 1250 -91 836 529 
Q 422 1150 422 2328 
Q 422 3509 836 4129 
Q 1250 4750 2034 4750 
z
" transform="scale(0.015625)"/>
       </defs>
       <use xlink:href="#DejaVuSans-30"/>
      </g>
     </g>
    </g>
    <g id="xtick_2">
     <g id="line2d_3">
      <path d="M 172.803935 384.48 
L 172.803935 51.84 
" clip-path="url(#p066a0fa129)" style="fill: none; stroke-dasharray: 2.22,0.96; stroke-dashoffset: 0; stroke: #b0b0b0; stroke-opacity: 0.7; stroke-width: 0.6"/>
     </g>
     <g id="line2d_4">
      <g>
       <use xlink:href="#m8883c9a079" x="172.803935" y="384.48" style="fill: #1a1a1a; stroke: #1a1a1a; stroke-width: 0.8"/>
      </g>
     </g>
     <g id="text_2">
      <!-- 1 -->
      <g style="fill: #1a1a1a" transform="translate(168.986435 397.098125) scale(0.12 -0.12)">
       <defs>
        <path id="DejaVuSans-31" d="M 794 531 
L 1825 531 
L 1825 4091 
L 703 3866 
L 703 4441 
L 1819 4666 
L 2450 4666 
L 2450 531 
L 3481 531 
L 3481 0 
L 794 0 
L 794 531 
z
" transform="scale(0.015625)"/>
       </defs>
       <use xlink:href="#DejaVuSans-31"/>
      </g>
     </g>
    </g>
    <g id="xtick_3">
     <g id="line2d_5">
      <path d="M 254.130224 384.48 
L 254.130224 51.84 
" clip-path="url(#p066a0fa129)" style="fill: none; stroke-dasharray: 2.22,0.96; stroke-dashoffset: 0; stroke: #b0b0b0; stroke-opacity: 0.7; stroke-width: 0.6"/>
     </g>
     <g id="line2d_6">
      <g>
       <use xlink:href="#m8883c9a079" x="254.130224" y="384.48" style="fill: #1a1a1a; stroke: #1a1a1a; stroke-width: 0.8"/>
      </g>
     </g>
     <g id="text_3">
      <!-- 2 -->
      <g style="fill: #1a1a1a" transform="translate(250.312724 397.098125) scale(0.12 -0.12)">
       <defs>
        <path id="DejaVuSans-32" d="M 1228 531 
L 3431 531 
L 3431 0 
L 469 0 
L 469 531 
Q 828 903 1448 1529 
Q 2069 2156 2228 2338 
Q 2531 2678 2651 2914 
Q 2772 3150 2772 3378 
Q 2772 3750 2511 3984 
Q 2250 4219 1831 4219 
Q 1534 4219 1204 4116 
Q 875 4013 500 3803 
L 500 4441 
Q 881 4594 1212 4672 
Q 1544 4750 1819 4750 
Q 2544 4750 2975 4387 
Q 3406 4025 3406 3419 
Q 3406 3131 3298 2873 
Q 3191 2616 2906 2266 
Q 2828 2175 2409 1742 
Q 1991 1309 1228 531 
z
" transform="scale(0.015625)"/>
       </defs>
       <use xlink:href="#DejaVuSans-32"/>
      </g>
     </g>
    </g>
    <g id="xtick_4">
     <g id="line2d_7">
      <path d="M 335.456513 384.48 
L 335.456513 51.84 
" clip-path="url(#p066a0fa129)" style="fill: none; stroke-dasharray: 2.22,0.96; stroke-dashoffset: 0; stroke: #b0b0b0; stroke-opacity: 0.7; stroke-width: 0.6"/>
     </g>
     <g id="line2d_8">
      <g>
       <use xlink:href="#m8883c9a079" x="335.456513" y="384.48" style="fill: #1a1a1a; stroke: #1a1a1a; stroke-width: 0.8"/>
      </g>
     </g>
     <g id="text_4">
      <!-- 3 -->
      <g style="fill: #1a1a1a" transform="translate(331.639013 397.098125) scale(0.12 -0.12)">
       <defs>
        <path id="DejaVuSans-33" d="M 2597 2516 
Q 3050 2419 3304 2112 
Q 3559 1806 3559 1356 
Q 3559 666 3084 287 
Q 2609 -91 1734 -91 
Q 1441 -91 1130 -33 
Q 819 25 488 141 
L 488 750 
Q 750 597 1062 519 
Q 1375 441 1716 441 
Q 2309 441 2620 675 
Q 2931 909 2931 1356 
Q 2931 1769 2642 2001 
Q 2353 2234 1838 2234 
L 1294 2234 
L 1294 2753 
L 1863 2753 
Q 2328 2753 2575 2939 
Q 2822 3125 2822 3475 
Q 2822 3834 2567 4026 
Q 2313 4219 1838 4219 
Q 1578 4219 1281 4162 
Q 984 4106 628 3988 
L 628 4550 
Q 988 4650 1302 4700 
Q 1616 4750 1894 4750 
Q 2613 4750 3031 4423 
Q 3450 4097 3450 3541 
Q 3450 3153 3228 2886 
Q 3006 2619 2597 2516 
z
" transform="scale(0.015625)"/>
       </defs>
       <use xlink:href="#DejaVuSans-33"/>
      </g>
     </g>
    </g>
    <g id="xtick_5">
     <g id="line2d_9">
      <path d="M 416.782802 384.48 
L 416.782802 51.84 
" clip-path="url(#p066a0fa129)" style="fill: none; stroke-dasharray: 2.22,0.96; stroke-dashoffset: 0; stroke: #b0b0b0; stroke-opacity: 0.7; stroke-width: 0.6"/>
     </g>
     <g id="line2d_10">
      <g>
       <use xlink:href="#m8883c9a079" x="416.782802" y="384.48" style="fill: #1a1a1a; stroke: #1a1a1a; stroke-width: 0.8"/>
      </g>
     </g>
     <g id="text_5">
      <!-- 4 -->
      <g style="fill: #1a1a1a" transform="translate(412.965302 397.098125) scale(0.12 -0.12)">
       <defs>
        <path id="DejaVuSans-34" d="M 2419 4116 
L 825 1625 
L 2419 1625 
L 2419 4116 
z
M 2253 4666 
L 3047 4666 
L 3047 1625 
L 3713 1625 
L 3713 1100 
L 3047 1100 
L 3047 0 
L 2419 0 
L 2419 1100 
L 313 1100 
L 313 1709 
L 2253 4666 
z
" transform="scale(0.015625)"/>
       </defs>
       <use xlink:href="#DejaVuSans-34"/>
      </g>
     </g>
    </g>
    <g id="xtick_6">
     <g id="line2d_11">
      <path d="M 498.109091 384.48 
L 498.109091 51.84 
" clip-path="url(#p066a0fa129)" style="fill: none; stroke-dasharray: 2.22,0.96; stroke-dashoffset: 0; stroke: #b0b0b0; stroke-opacity: 0.7; stroke-width: 0.6"/>
     </g>
     <g id="line2d_12">
      <g>
       <use xlink:href="#m8883c9a079" x="498.109091" y="384.48" style="fill: #1a1a1a; stroke: #1a1a1a; stroke-width: 0.8"/>
      </g>
     </g>
     <g id="text_6">
      <!-- 5 -->
      <g style="fill: #1a1a1a" transform="translate(494.291591 397.098125) scale(0.12 -0.12)">
       <defs>
        <path id="DejaVuSans-35" d="M 691 4666 
L 3169 4666 
L 3169 4134 
L 1269 4134 
L 1269 2991 
Q 1406 3038 1543 3061 
Q 1681 3084 1819 3084 
Q 2600 3084 3056 2656 
Q 3513 2228 3513 1497 
Q 3513 744 3044 326 
Q 2575 -91 1722 -91 
Q 1428 -91 1123 -41 
Q 819 9 494 109 
L 494 744 
Q 775 591 1075 516 
Q 1375 441 1709 441 
Q 2250 441 2565 725 
Q 2881 1009 2881 1497 
Q 2881 1984 2565 2268 
Q 2250 2553 1709 2553 
Q 1456 2553 1204 2497 
Q 953 2441 691 2322 
L 691 4666 
z
" transform="scale(0.015625)"/>
       </defs>
       <use xlink:href="#DejaVuSans-35"/>
      </g>
     </g>
    </g>
    <g id="text_7">
     <!-- Относительное сопротивление $\xi$ -->
     <g style="fill: #1a1a1a" transform="translate(190.8 412.71375) scale(0.12 -0.12)">
      <defs>
       <path id="DejaVuSans-41e" d="M 2522 4238 
Q 1834 4238 1429 3725 
Q 1025 3213 1025 2328 
Q 1025 1447 1429 934 
Q 1834 422 2522 422 
Q 3209 422 3611 934 
Q 4013 1447 4013 2328 
Q 4013 3213 3611 3725 
Q 3209 4238 2522 4238 
z
M 2522 4750 
Q 3503 4750 4090 4092 
Q 4678 3434 4678 2328 
Q 4678 1225 4090 567 
Q 3503 -91 2522 -91 
Q 1538 -91 948 565 
Q 359 1222 359 2328 
Q 359 3434 948 4092 
Q 1538 4750 2522 4750 
z
" transform="scale(0.015625)"/>
       <path id="DejaVuSans-442" d="M 188 3500 
L 3541 3500 
L 3541 3041 
L 2147 3041 
L 2147 0 
L 1581 0 
L 1581 3041 
L 188 3041 
L 188 3500 
z
" transform="scale(0.015625)"/>
       <path id="DejaVuSans-43d" d="M 581 3500 
L 1159 3500 
L 1159 2072 
L 3025 2072 
L 3025 3500 
L 3603 3500 
L 3603 0 
L 3025 0 
L 3025 1613 
L 1159 1613 
L 1159 0 
L 581 0 
L 581 3500 
z
" transform="scale(0.015625)"/>
       <path id="DejaVuSans-43e" d="M 1959 3097 
Q 1497 3097 1228 2736 
Q 959 2375 959 1747 
Q 959 1119 1226 758 
Q 1494 397 1959 397 
Q 2419 397 2687 759 
Q 2956 1122 2956 1747 
Q 2956 2369 2687 2733 
Q 2419 3097 1959 3097 
z
M 1959 3584 
Q 2709 3584 3137 3096 
Q 3566 2609 3566 1747 
Q 3566 888 3137 398 
Q 2709 -91 1959 -91 
Q 1206 -91 779 398 
Q 353 888 353 1747 
Q 353 2609 779 3096 
Q 1206 3584 1959 3584 
z
" transform="scale(0.015625)"/>
       <path id="DejaVuSans-441" d="M 3122 3366 
L 3122 2828 
Q 2878 2963 2633 3030 
Q 2388 3097 2138 3097 
Q 1578 3097 1268 2742 
Q 959 2388 959 1747 
Q 959 1106 1268 751 
Q 1578 397 2138 397 
Q 2388 397 2633 464 
Q 2878 531 3122 666 
L 3122 134 
Q 2881 22 2623 -34 
Q 2366 -91 2075 -91 
Q 1284 -91 818 406 
Q 353 903 353 1747 
Q 353 2603 823 3093 
Q 1294 3584 2113 3584 
Q 2378 3584 2631 3529 
Q 2884 3475 3122 3366 
z
" transform="scale(0.015625)"/>
       <path id="DejaVuSans-438" d="M 3578 3500 
L 3578 0 
L 3006 0 
L 3006 2809 
L 1319 0 
L 581 0 
L 581 3500 
L 1153 3500 
L 1153 697 
L 2838 3500 
L 3578 3500 
z
" transform="scale(0.015625)"/>
       <path id="DejaVuSans-435" d="M 3597 1894 
L 3597 1613 
L 953 1613 
Q 991 1019 1311 708 
Q 1631 397 2203 397 
Q 2534 397 2845 478 
Q 3156 559 3463 722 
L 3463 178 
Q 3153 47 2828 -22 
Q 2503 -91 2169 -91 
Q 1331 -91 842 396 
Q 353 884 353 1716 
Q 353 2575 817 3079 
Q 1281 3584 2069 3584 
Q 2775 3584 3186 3129 
Q 3597 2675 3597 1894 
z
M 3022 2063 
Q 3016 2534 2758 2815 
Q 2500 3097 2075 3097 
Q 1594 3097 1305 2825 
Q 1016 2553 972 2059 
L 3022 2063 
z
" transform="scale(0.015625)"/>
       <path id="DejaVuSans-43b" d="M 238 0 
L 238 478 
Q 806 566 981 959 
Q 1194 1513 1194 2928 
L 1194 3500 
L 3559 3500 
L 3559 0 
L 2984 0 
L 2984 3041 
L 1769 3041 
L 1769 2694 
Q 1769 1344 1494 738 
Q 1200 91 238 0 
z
" transform="scale(0.015625)"/>
       <path id="DejaVuSans-44c" d="M 2781 1038 
Q 2781 1319 2576 1466 
Q 2372 1613 1978 1613 
L 1159 1613 
L 1159 459 
L 1978 459 
Q 2372 459 2576 607 
Q 2781 756 2781 1038 
z
M 581 3500 
L 1159 3500 
L 1159 2072 
L 2003 2072 
Q 2672 2072 3033 1817 
Q 3394 1563 3394 1038 
Q 3394 513 3033 256 
Q 2672 0 2003 0 
L 581 0 
L 581 3500 
z
" transform="scale(0.015625)"/>
       <path id="DejaVuSans-20" transform="scale(0.015625)"/>
       <path id="DejaVuSans-43f" d="M 3603 3500 
L 3603 0 
L 3025 0 
L 3025 3041 
L 1159 3041 
L 1159 0 
L 581 0 
L 581 3500 
L 3603 3500 
z
" transform="scale(0.015625)"/>
       <path id="DejaVuSans-440" d="M 1159 525 
L 1159 -1331 
L 581 -1331 
L 581 3500 
L 1159 3500 
L 1159 2969 
Q 1341 3281 1617 3432 
Q 1894 3584 2278 3584 
Q 2916 3584 3314 3078 
Q 3713 2572 3713 1747 
Q 3713 922 3314 415 
Q 2916 -91 2278 -91 
Q 1894 -91 1617 61 
Q 1341 213 1159 525 
z
M 3116 1747 
Q 3116 2381 2855 2742 
Q 2594 3103 2138 3103 
Q 1681 3103 1420 2742 
Q 1159 2381 1159 1747 
Q 1159 1113 1420 752 
Q 1681 391 2138 391 
Q 2594 391 2855 752 
Q 3116 1113 3116 1747 
z
" transform="scale(0.015625)"/>
       <path id="DejaVuSans-432" d="M 1156 1613 
L 1156 459 
L 1975 459 
Q 2369 459 2575 607 
Q 2781 756 2781 1038 
Q 2781 1319 2575 1466 
Q 2369 1613 1975 1613 
L 1156 1613 
z
M 1156 3041 
L 1156 2072 
L 1913 2072 
Q 2238 2072 2444 2201 
Q 2650 2331 2650 2563 
Q 2650 2794 2444 2917 
Q 2238 3041 1913 3041 
L 1156 3041 
z
M 581 3500 
L 1950 3500 
Q 2566 3500 2897 3275 
Q 3228 3050 3228 2634 
Q 3228 2313 3059 2123 
Q 2891 1934 2559 1888 
Q 2956 1813 3175 1575 
Q 3394 1338 3394 981 
Q 3394 513 3033 256 
Q 2672 0 2003 0 
L 581 0 
L 581 3500 
z
" transform="scale(0.015625)"/>
       <path id="DejaVuSans-Oblique-3be" d="M 2016 397 
Q 2428 394 2628 159 
Q 2844 -88 2772 -463 
Q 2700 -822 2422 -1072 
Q 2119 -1344 1609 -1344 
Q 1656 -1109 1700 -872 
Q 1913 -888 2072 -750 
Q 2194 -641 2216 -525 
Q 2247 -359 2175 -222 
Q 2100 -91 1922 -91 
Q -25 -91 241 1275 
Q 422 2213 1516 2488 
Q 663 2600 822 3413 
Q 941 4028 1678 4284 
L 1028 4284 
L 1141 4863 
L 3606 4863 
L 3494 4284 
Q 1528 4284 1350 3375 
Q 1234 2778 2881 2750 
L 2778 2219 
Q 1009 2288 819 1275 
Q 659 428 2016 397 
z
" transform="scale(0.015625)"/>
      </defs>
      <use xlink:href="#DejaVuSans-41e" transform="translate(0 0.015625)"/>
      <use xlink:href="#DejaVuSans-442" transform="translate(78.710938 0.015625)"/>
      <use xlink:href="#DejaVuSans-43d" transform="translate(136.962891 0.015625)"/>
      <use xlink:href="#DejaVuSans-43e" transform="translate(202.34375 0.015625)"/>
      <use xlink:href="#DejaVuSans-441" transform="translate(263.525391 0.015625)"/>
      <use xlink:href="#DejaVuSans-438" transform="translate(318.505859 0.015625)"/>
      <use xlink:href="#DejaVuSans-442" transform="translate(383.496094 0.015625)"/>
      <use xlink:href="#DejaVuSans-435" transform="translate(441.748047 0.015625)"/>
      <use xlink:href="#DejaVuSans-43b" transform="translate(503.271484 0.015625)"/>
      <use xlink:href="#DejaVuSans-44c" transform="translate(567.1875 0.015625)"/>
      <use xlink:href="#DejaVuSans-43d" transform="translate(626.123047 0.015625)"/>
      <use xlink:href="#DejaVuSans-43e" transform="translate(691.503906 0.015625)"/>
      <use xlink:href="#DejaVuSans-435" transform="translate(752.685547 0.015625)"/>
      <use xlink:href="#DejaVuSans-20" transform="translate(814.208984 0.015625)"/>
      <use xlink:href="#DejaVuSans-441" transform="translate(845.996094 0.015625)"/>
      <use xlink:href="#DejaVuSans-43e" transform="translate(900.976562 0.015625)"/>
      <use xlink:href="#DejaVuSans-43f" transform="translate(962.158203 0.015625)"/>
      <use xlink:href="#DejaVuSans-440" transform="translate(1027.539062 0.015625)"/>
      <use xlink:href="#DejaVuSans-43e" transform="translate(1091.015625 0.015625)"/>
      <use xlink:href="#DejaVuSans-442" transform="translate(1152.197266 0.015625)"/>
      <use xlink:href="#DejaVuSans-438" transform="translate(1210.449219 0.015625)"/>
      <use xlink:href="#DejaVuSans-432" transform="translate(1275.439453 0.015625)"/>
      <use xlink:href="#DejaVuSans-43b" transform="translate(1334.375 0.015625)"/>
      <use xlink:href="#DejaVuSans-435" transform="translate(1398.291016 0.015625)"/>
      <use xlink:href="#DejaVuSans-43d" transform="translate(1459.814453 0.015625)"/>
      <use xlink:href="#DejaVuSans-438" transform="translate(1525.195312 0.015625)"/>
      <use xlink:href="#DejaVuSans-435" transform="translate(1590.185547 0.015625)"/>
      <use xlink:href="#DejaVuSans-20" transform="translate(1651.708984 0.015625)"/>
      <use xlink:href="#DejaVuSans-Oblique-3be" transform="translate(1683.496094 0.015625)"/>
     </g>
    </g>
   </g>
   <g id="matplotlib.axis_2">
    <g id="ytick_1">
     <g id="line2d_13">
      <path d="M 72 381.701598 
L 518.4 381.701598 
" clip-path="url(#p066a0fa129)" style="fill: none; stroke-dasharray: 2.22,0.96; stroke-dashoffset: 0; stroke: #b0b0b0; stroke-opacity: 0.7; stroke-width: 0.6"/>
     </g>
     <g id="line2d_14">
      <defs>
       <path id="mcba1c593a3" d="M 0 0 
L 3.5 0 
" style="stroke: #1a1a1a; stroke-width: 0.8"/>
      </defs>
      <g>
       <use xlink:href="#mcba1c593a3" x="72" y="381.701598" style="fill: #1a1a1a; stroke: #1a1a1a; stroke-width: 0.8"/>
      </g>
     </g>
     <g id="text_8">
      <!-- 0.00 -->
      <g style="fill: #1a1a1a" transform="translate(41.78125 386.26066) scale(0.12 -0.12)">
       <defs>
        <path id="DejaVuSans-2e" d="M 684 794 
L 1344 794 
L 1344 0 
L 684 0 
L 684 794 
z
" transform="scale(0.015625)"/>
       </defs>
       <use xlink:href="#DejaVuSans-30"/>
       <use xlink:href="#DejaVuSans-2e" x="63.623047"/>
       <use xlink:href="#DejaVuSans-30" x="95.410156"/>
       <use xlink:href="#DejaVuSans-30" x="159.033203"/>
      </g>
     </g>
    </g>
    <g id="ytick_2">
     <g id="line2d_15">
      <path d="M 72 318.753278 
L 518.4 318.753278 
" clip-path="url(#p066a0fa129)" style="fill: none; stroke-dasharray: 2.22,0.96; stroke-dashoffset: 0; stroke: #b0b0b0; stroke-opacity: 0.7; stroke-width: 0.6"/>
     </g>
     <g id="line2d_16">
      <g>
       <use xlink:href="#mcba1c593a3" x="72" y="318.753278" style="fill: #1a1a1a; stroke: #1a1a1a; stroke-width: 0.8"/>
      </g>
     </g>
     <g id="text_9">
      <!-- 0.05 -->
      <g style="fill: #1a1a1a" transform="translate(41.78125 323.312341) scale(0.12 -0.12)">
       <use xlink:href="#DejaVuSans-30"/>
       <use xlink:href="#DejaVuSans-2e" x="63.623047"/>
       <use xlink:href="#DejaVuSans-30" x="95.410156"/>
       <use xlink:href="#DejaVuSans-35" x="159.033203"/>
      </g>
     </g>
    </g>
    <g id="ytick_3">
     <g id="line2d_17">
      <path d="M 72 255.804959 
L 518.4 255.804959 
" clip-path="url(#p066a0fa129)" style="fill: none; stroke-dasharray: 2.22,0.96; stroke-dashoffset: 0; stroke: #b0b0b0; stroke-opacity: 0.7; stroke-width: 0.6"/>
     </g>
     <g id="line2d_18">
      <g>
       <use xlink:href="#mcba1c593a3" x="72" y="255.804959" style="fill: #1a1a1a; stroke: #1a1a1a; stroke-width: 0.8"/>
      </g>
     </g>
     <g id="text_10">
      <!-- 0.10 -->
      <g style="fill: #1a1a1a" transform="translate(41.78125 260.364021) scale(0.12 -0.12)">
       <use xlink:href="#DejaVuSans-30"/>
       <use xlink:href="#DejaVuSans-2e" x="63.623047"/>
       <use xlink:href="#DejaVuSans-31" x="95.410156"/>
       <use xlink:href="#DejaVuSans-30" x="159.033203"/>
      </g>
     </g>
    </g>
    <g id="ytick_4">
     <g id="line2d_19">
      <path d="M 72 192.856639 
L 518.4 192.856639 
" clip-path="url(#p066a0fa129)" style="fill: none; stroke-dasharray: 2.22,0.96; stroke-dashoffset: 0; stroke: #b0b0b0; stroke-opacity: 0.7; stroke-width: 0.6"/>
     </g>
     <g id="line2d_20">
      <g>
       <use xlink:href="#mcba1c593a3" x="72" y="192.856639" style="fill: #1a1a1a; stroke: #1a1a1a; stroke-width: 0.8"/>
      </g>
     </g>
     <g id="text_11">
      <!-- 0.15 -->
      <g style="fill: #1a1a1a" transform="translate(41.78125 197.415702) scale(0.12 -0.12)">
       <use xlink:href="#DejaVuSans-30"/>
       <use xlink:href="#DejaVuSans-2e" x="63.623047"/>
       <use xlink:href="#DejaVuSans-31" x="95.410156"/>
       <use xlink:href="#DejaVuSans-35" x="159.033203"/>
      </g>
     </g>
    </g>
    <g id="ytick_5">
     <g id="line2d_21">
      <path d="M 72 129.90832 
L 518.4 129.90832 
" clip-path="url(#p066a0fa129)" style="fill: none; stroke-dasharray: 2.22,0.96; stroke-dashoffset: 0; stroke: #b0b0b0; stroke-opacity: 0.7; stroke-width: 0.6"/>
     </g>
     <g id="line2d_22">
      <g>
       <use xlink:href="#mcba1c593a3" x="72" y="129.90832" style="fill: #1a1a1a; stroke: #1a1a1a; stroke-width: 0.8"/>
      </g>
     </g>
     <g id="text_12">
      <!-- 0.20 -->
      <g style="fill: #1a1a1a" transform="translate(41.78125 134.467382) scale(0.12 -0.12)">
       <use xlink:href="#DejaVuSans-30"/>
       <use xlink:href="#DejaVuSans-2e" x="63.623047"/>
       <use xlink:href="#DejaVuSans-32" x="95.410156"/>
       <use xlink:href="#DejaVuSans-30" x="159.033203"/>
      </g>
     </g>
    </g>
    <g id="ytick_6">
     <g id="line2d_23">
      <path d="M 72 66.96 
L 518.4 66.96 
" clip-path="url(#p066a0fa129)" style="fill: none; stroke-dasharray: 2.22,0.96; stroke-dashoffset: 0; stroke: #b0b0b0; stroke-opacity: 0.7; stroke-width: 0.6"/>
     </g>
     <g id="line2d_24">
      <g>
       <use xlink:href="#mcba1c593a3" x="72" y="66.96" style="fill: #1a1a1a; stroke: #1a1a1a; stroke-width: 0.8"/>
      </g>
     </g>
     <g id="text_13">
      <!-- 0.25 -->
      <g style="fill: #1a1a1a" transform="translate(41.78125 71.519062) scale(0.12 -0.12)">
       <use xlink:href="#DejaVuSans-30"/>
       <use xlink:href="#DejaVuSans-2e" x="63.623047"/>
       <use xlink:href="#DejaVuSans-32" x="95.410156"/>
       <use xlink:href="#DejaVuSans-35" x="159.033203"/>
      </g>
     </g>
    </g>
    <g id="text_14">
     <!-- Нормированная мощность $P/P_0$ -->
     <g style="fill: #1a1a1a" transform="translate(35.26125 316.14) rotate(-90) scale(0.12 -0.12)">
      <defs>
       <path id="DejaVuSans-41d" d="M 628 4666 
L 1259 4666 
L 1259 2753 
L 3553 2753 
L 3553 4666 
L 4184 4666 
L 4184 0 
L 3553 0 
L 3553 2222 
L 1259 2222 
L 1259 0 
L 628 0 
L 628 4666 
z
" transform="scale(0.015625)"/>
       <path id="DejaVuSans-43c" d="M 581 3500 
L 1422 3500 
L 2416 1156 
L 3413 3500 
L 4247 3500 
L 4247 0 
L 3669 0 
L 3669 2950 
L 2703 672 
L 2128 672 
L 1159 2950 
L 1159 0 
L 581 0 
L 581 3500 
z
" transform="scale(0.015625)"/>
       <path id="DejaVuSans-430" d="M 2194 1759 
Q 1497 1759 1228 1600 
Q 959 1441 959 1056 
Q 959 750 1161 570 
Q 1363 391 1709 391 
Q 2188 391 2477 730 
Q 2766 1069 2766 1631 
L 2766 1759 
L 2194 1759 
z
M 3341 1997 
L 3341 0 
L 2766 0 
L 2766 531 
Q 2569 213 2275 61 
Q 1981 -91 1556 -91 
Q 1019 -91 701 211 
Q 384 513 384 1019 
Q 384 1609 779 1909 
Q 1175 2209 1959 2209 
L 2766 2209 
L 2766 2266 
Q 2766 2663 2505 2880 
Q 2244 3097 1772 3097 
Q 1472 3097 1187 3025 
Q 903 2953 641 2809 
L 641 3341 
Q 956 3463 1253 3523 
Q 1550 3584 1831 3584 
Q 2591 3584 2966 3190 
Q 3341 2797 3341 1997 
z
" transform="scale(0.015625)"/>
       <path id="DejaVuSans-44f" d="M 1181 2491 
Q 1181 2231 1381 2084 
Q 1581 1938 1953 1938 
L 2728 1938 
L 2728 3041 
L 1953 3041 
Q 1581 3041 1381 2897 
Q 1181 2753 1181 2491 
z
M 363 0 
L 1431 1534 
Q 1069 1616 828 1830 
Q 588 2044 588 2491 
Q 588 2997 923 3248 
Q 1259 3500 1938 3500 
L 3306 3500 
L 3306 0 
L 2728 0 
L 2728 1478 
L 2013 1478 
L 981 0 
L 363 0 
z
" transform="scale(0.015625)"/>
       <path id="DejaVuSans-449" d="M 5275 0 
L 581 0 
L 581 3500 
L 1159 3500 
L 1159 459 
L 2638 459 
L 2638 3500 
L 3216 3500 
L 3216 459 
L 4697 459 
L 4697 3500 
L 5275 3500 
L 5275 459 
L 5734 459 
L 5734 -884 
L 5275 -884 
L 5275 0 
z
" transform="scale(0.015625)"/>
       <path id="DejaVuSans-Oblique-50" d="M 1081 4666 
L 2541 4666 
Q 3178 4666 3512 4369 
Q 3847 4072 3847 3500 
Q 3847 2731 3353 2303 
Q 2859 1875 1966 1875 
L 1172 1875 
L 806 0 
L 172 0 
L 1081 4666 
z
M 1613 4147 
L 1275 2394 
L 2069 2394 
Q 2606 2394 2893 2669 
Q 3181 2944 3181 3456 
Q 3181 3784 2986 3965 
Q 2791 4147 2438 4147 
L 1613 4147 
z
" transform="scale(0.015625)"/>
       <path id="DejaVuSans-2f" d="M 1625 4666 
L 2156 4666 
L 531 -594 
L 0 -594 
L 1625 4666 
z
" transform="scale(0.015625)"/>
      </defs>
      <use xlink:href="#DejaVuSans-41d" transform="translate(0 0.09375)"/>
      <use xlink:href="#DejaVuSans-43e" transform="translate(75.195312 0.09375)"/>
      <use xlink:href="#DejaVuSans-440" transform="translate(136.376953 0.09375)"/>
      <use xlink:href="#DejaVuSans-43c" transform="translate(199.853516 0.09375)"/>
      <use xlink:href="#DejaVuSans-438" transform="translate(275.292969 0.09375)"/>
      <use xlink:href="#DejaVuSans-440" transform="translate(340.283203 0.09375)"/>
      <use xlink:href="#DejaVuSans-43e" transform="translate(403.759766 0.09375)"/>
      <use xlink:href="#DejaVuSans-432" transform="translate(464.941406 0.09375)"/>
      <use xlink:href="#DejaVuSans-430" transform="translate(523.876953 0.09375)"/>
      <use xlink:href="#DejaVuSans-43d" transform="translate(585.15625 0.09375)"/>
      <use xlink:href="#DejaVuSans-43d" transform="translate(650.537109 0.09375)"/>
      <use xlink:href="#DejaVuSans-430" transform="translate(715.917969 0.09375)"/>
      <use xlink:href="#DejaVuSans-44f" transform="translate(777.197266 0.09375)"/>
      <use xlink:href="#DejaVuSans-20" transform="translate(837.353516 0.09375)"/>
      <use xlink:href="#DejaVuSans-43c" transform="translate(869.140625 0.09375)"/>
      <use xlink:href="#DejaVuSans-43e" transform="translate(944.580078 0.09375)"/>
      <use xlink:href="#DejaVuSans-449" transform="translate(1005.761719 0.09375)"/>
      <use xlink:href="#DejaVuSans-43d" transform="translate(1099.951172 0.09375)"/>
      <use xlink:href="#DejaVuSans-43e" transform="translate(1165.332031 0.09375)"/>
      <use xlink:href="#DejaVuSans-441" transform="translate(1226.513672 0.09375)"/>
      <use xlink:href="#DejaVuSans-442" transform="translate(1281.494141 0.09375)"/>
      <use xlink:href="#DejaVuSans-44c" transform="translate(1339.746094 0.09375)"/>
      <use xlink:href="#DejaVuSans-20" transform="translate(1398.681641 0.09375)"/>
      <use xlink:href="#DejaVuSans-Oblique-50" transform="translate(1430.46875 0.09375)"/>
      <use xlink:href="#DejaVuSans-2f" transform="translate(1490.771484 0.09375)"/>
      <use xlink:href="#DejaVuSans-Oblique-50" transform="translate(1524.462891 0.09375)"/>
      <use xlink:href="#DejaVuSans-30" transform="translate(1584.765625 -16.3125) scale(0.7)"/>
     </g>
    </g>
   </g>
   <g id="line2d_25">
    <path d="M 92.290909 369.36 
L 94.730698 335.14219 
L 97.170486 304.727498 
L 99.610275 277.654789 
L 102.050064 253.527402 
L 104.489852 232.002859 
L 106.929641 212.784421 
L 109.36943 195.614117 
L 111.809218 180.266975 
L 114.249007 166.546209 
L 116.688796 154.279197 
L 119.128584 143.31411 
L 121.568373 133.517057 
L 124.008162 124.769681 
L 126.44795 116.967113 
L 128.887739 110.016225 
L 131.327528 103.834145 
L 133.767316 98.346974 
L 136.207105 93.488688 
L 138.646894 89.200193 
L 141.086682 85.428499 
L 143.526471 82.126014 
L 145.96626 79.249921 
L 148.406048 76.761641 
L 150.845837 74.626365 
L 153.285626 72.812633 
L 155.725414 71.291982 
L 158.165203 70.038622 
L 160.604992 69.029156 
L 163.04478 68.242333 
L 165.484569 67.658831 
L 167.924358 67.26106 
L 171.177409 66.992113 
L 174.430461 66.990854 
L 177.683512 67.227007 
L 180.936564 67.6737 
L 185.002878 68.492003 
L 189.069193 69.56117 
L 193.135507 70.845699 
L 198.015085 72.62831 
L 203.707925 74.983566 
L 209.400765 77.578105 
L 215.906868 80.772263 
L 224.039497 85.02025 
L 234.611915 90.825095 
L 250.06391 99.600539 
L 280.154637 116.713752 
L 295.606631 125.209715 
L 309.432101 132.555957 
L 322.444307 139.224889 
L 335.456513 145.645399 
L 348.468719 151.814521 
L 361.480925 157.73424 
L 374.493132 163.409833 
L 387.505338 168.848704 
L 401.330807 174.377894 
L 415.156276 179.661057 
L 428.981745 184.709967 
L 443.620477 189.813687 
L 458.259209 194.681844 
L 473.711204 199.579651 
L 489.163199 204.244896 
L 498.109091 206.845155 
L 498.109091 206.845155 
" clip-path="url(#p066a0fa129)" style="fill: none; stroke: #ffaf00; stroke-width: 2; stroke-linecap: square"/>
   </g>
   <g id="line2d_26">
    <path d="M 172.803935 384.48 
L 172.803935 51.84 
" clip-path="url(#p066a0fa129)" style="fill: none; stroke-dasharray: 5.55,2.4; stroke-dashoffset: 0; stroke: #ff0000; stroke-width: 1.5"/>
   </g>
   <g id="patch_3">
    <path d="M 72 384.48 
L 72 51.84 
" style="fill: none; stroke: #1a1a1a; stroke-linejoin: miter; stroke-linecap: square"/>
   </g>
   <g id="patch_4">
    <path d="M 72 384.48 
L 518.4 384.48 
" style="fill: none; stroke: #1a1a1a; stroke-linejoin: miter; stroke-linecap: square"/>
   </g>
   <g id="text_15">
    <!-- Мощность в зависимости от относительного сопротивления -->
    <g style="fill: #333333" transform="translate(70.91125 45.84) scale(0.14 -0.14)">
     <defs>
      <path id="DejaVuSans-41c" d="M 628 4666 
L 1569 4666 
L 2759 1491 
L 3956 4666 
L 4897 4666 
L 4897 0 
L 4281 0 
L 4281 4097 
L 3078 897 
L 2444 897 
L 1241 4097 
L 1241 0 
L 628 0 
L 628 4666 
z
" transform="scale(0.015625)"/>
      <path id="DejaVuSans-437" d="M 2206 1888 
Q 2594 1813 2809 1584 
Q 3025 1356 3025 1019 
Q 3025 478 2622 193 
Q 2219 -91 1475 -91 
Q 1225 -91 961 -47 
Q 697 -3 416 84 
L 416 619 
Q 638 503 903 445 
Q 1169 388 1459 388 
Q 1931 388 2195 563 
Q 2459 738 2459 1019 
Q 2459 1294 2225 1461 
Q 1991 1628 1563 1628 
L 1100 1628 
L 1100 2103 
L 1584 2103 
Q 1947 2103 2158 2242 
Q 2369 2381 2369 2600 
Q 2369 2800 2151 2944 
Q 1934 3088 1563 3088 
Q 1341 3088 1089 3047 
Q 838 3006 534 2916 
L 534 3438 
Q 841 3513 1106 3550 
Q 1372 3588 1609 3588 
Q 2222 3588 2576 3342 
Q 2931 3097 2931 2656 
Q 2931 2366 2743 2164 
Q 2556 1963 2206 1888 
z
" transform="scale(0.015625)"/>
      <path id="DejaVuSans-433" d="M 581 0 
L 581 3500 
L 3050 3500 
L 3050 3041 
L 1159 3041 
L 1159 0 
L 581 0 
z
" transform="scale(0.015625)"/>
     </defs>
     <use xlink:href="#DejaVuSans-41c"/>
     <use xlink:href="#DejaVuSans-43e" x="86.279297"/>
     <use xlink:href="#DejaVuSans-449" x="147.460938"/>
     <use xlink:href="#DejaVuSans-43d" x="241.650391"/>
     <use xlink:href="#DejaVuSans-43e" x="307.03125"/>
     <use xlink:href="#DejaVuSans-441" x="368.212891"/>
     <use xlink:href="#DejaVuSans-442" x="423.193359"/>
     <use xlink:href="#DejaVuSans-44c" x="481.445312"/>
     <use xlink:href="#DejaVuSans-20" x="540.380859"/>
     <use xlink:href="#DejaVuSans-432" x="572.167969"/>
     <use xlink:href="#DejaVuSans-20" x="631.103516"/>
     <use xlink:href="#DejaVuSans-437" x="662.890625"/>
     <use xlink:href="#DejaVuSans-430" x="716.064453"/>
     <use xlink:href="#DejaVuSans-432" x="777.34375"/>
     <use xlink:href="#DejaVuSans-438" x="836.279297"/>
     <use xlink:href="#DejaVuSans-441" x="901.269531"/>
     <use xlink:href="#DejaVuSans-438" x="956.25"/>
     <use xlink:href="#DejaVuSans-43c" x="1021.240234"/>
     <use xlink:href="#DejaVuSans-43e" x="1096.679688"/>
     <use xlink:href="#DejaVuSans-441" x="1157.861328"/>
     <use xlink:href="#DejaVuSans-442" x="1212.841797"/>
     <use xlink:href="#DejaVuSans-438" x="1271.09375"/>
     <use xlink:href="#DejaVuSans-20" x="1336.083984"/>
     <use xlink:href="#DejaVuSans-43e" x="1367.871094"/>
     <use xlink:href="#DejaVuSans-442" x="1429.052734"/>
     <use xlink:href="#DejaVuSans-20" x="1487.304688"/>
     <use xlink:href="#DejaVuSans-43e" x="1519.091797"/>
     <use xlink:href="#DejaVuSans-442" x="1580.273438"/>
     <use xlink:href="#DejaVuSans-43d" x="1638.525391"/>
     <use xlink:href="#DejaVuSans-43e" x="1703.90625"/>
     <use xlink:href="#DejaVuSans-441" x="1765.087891"/>
     <use xlink:href="#DejaVuSans-438" x="1820.068359"/>
     <use xlink:href="#DejaVuSans-442" x="1885.058594"/>
     <use xlink:href="#DejaVuSans-435" x="1943.310547"/>
     <use xlink:href="#DejaVuSans-43b" x="2004.833984"/>
     <use xlink:href="#DejaVuSans-44c" x="2068.75"/>
     <use xlink:href="#DejaVuSans-43d" x="2127.685547"/>
     <use xlink:href="#DejaVuSans-43e" x="2193.066406"/>
     <use xlink:href="#DejaVuSans-433" x="2254.248047"/>
     <use xlink:href="#DejaVuSans-43e" x="2306.787109"/>
     <use xlink:href="#DejaVuSans-20" x="2367.96875"/>
     <use xlink:href="#DejaVuSans-441" x="2399.755859"/>
     <use xlink:href="#DejaVuSans-43e" x="2454.736328"/>
     <use xlink:href="#DejaVuSans-43f" x="2515.917969"/>
     <use xlink:href="#DejaVuSans-440" x="2581.298828"/>
     <use xlink:href="#DejaVuSans-43e" x="2644.775391"/>
     <use xlink:href="#DejaVuSans-442" x="2705.957031"/>
     <use xlink:href="#DejaVuSans-438" x="2764.208984"/>
     <use xlink:href="#DejaVuSans-432" x="2829.199219"/>
     <use xlink:href="#DejaVuSans-43b" x="2888.134766"/>
     <use xlink:href="#DejaVuSans-435" x="2952.050781"/>
     <use xlink:href="#DejaVuSans-43d" x="3013.574219"/>
     <use xlink:href="#DejaVuSans-438" x="3078.955078"/>
     <use xlink:href="#DejaVuSans-44f" x="3143.945312"/>
    </g>
   </g>
   <g id="legend_1">
    <g id="patch_5">
     <path d="M 301.8 97.34 
L 511.4 97.34 
Q 513.4 97.34 513.4 95.34 
L 513.4 58.84 
Q 513.4 56.84 511.4 56.84 
L 301.8 56.84 
Q 299.8 56.84 299.8 58.84 
L 299.8 95.34 
Q 299.8 97.34 301.8 97.34 
z
" style="fill: #ffffff; opacity: 0.8; stroke: #cccccc; stroke-linejoin: miter"/>
    </g>
    <g id="line2d_27">
     <path d="M 303.8 68.54 
L 313.8 68.54 
L 323.8 68.54 
" style="fill: none; stroke: #ffaf00; stroke-width: 2; stroke-linecap: square"/>
    </g>
    <g id="text_16">
     <!-- $P(\xi) = P_0 \cdot \frac{\xi}{(1+\xi)^2}$ -->
     <g style="fill: #333333" transform="translate(331.8 72.04) scale(0.1 -0.1)">
      <defs>
       <path id="DejaVuSans-28" d="M 1984 4856 
Q 1566 4138 1362 3434 
Q 1159 2731 1159 2009 
Q 1159 1288 1364 580 
Q 1569 -128 1984 -844 
L 1484 -844 
Q 1016 -109 783 600 
Q 550 1309 550 2009 
Q 550 2706 781 3412 
Q 1013 4119 1484 4856 
L 1984 4856 
z
" transform="scale(0.015625)"/>
       <path id="DejaVuSans-29" d="M 513 4856 
L 1013 4856 
Q 1481 4119 1714 3412 
Q 1947 2706 1947 2009 
Q 1947 1309 1714 600 
Q 1481 -109 1013 -844 
L 513 -844 
Q 928 -128 1133 580 
Q 1338 1288 1338 2009 
Q 1338 2731 1133 3434 
Q 928 4138 513 4856 
z
" transform="scale(0.015625)"/>
       <path id="DejaVuSans-3d" d="M 678 2906 
L 4684 2906 
L 4684 2381 
L 678 2381 
L 678 2906 
z
M 678 1631 
L 4684 1631 
L 4684 1100 
L 678 1100 
L 678 1631 
z
" transform="scale(0.015625)"/>
       <path id="DejaVuSans-22c5" d="M 684 2619 
L 1344 2619 
L 1344 1825 
L 684 1825 
L 684 2619 
z
" transform="scale(0.015625)"/>
       <path id="DejaVuSans-2b" d="M 2944 4013 
L 2944 2272 
L 4684 2272 
L 4684 1741 
L 2944 1741 
L 2944 0 
L 2419 0 
L 2419 1741 
L 678 1741 
L 678 2272 
L 2419 2272 
L 2419 4013 
L 2944 4013 
z
" transform="scale(0.015625)"/>
      </defs>
      <use xlink:href="#DejaVuSans-Oblique-50" transform="translate(0 0.314063)"/>
      <use xlink:href="#DejaVuSans-28" transform="translate(60.302734 0.314063)"/>
      <use xlink:href="#DejaVuSans-Oblique-3be" transform="translate(99.316406 0.314063)"/>
      <use xlink:href="#DejaVuSans-29" transform="translate(155.078125 0.314063)"/>
      <use xlink:href="#DejaVuSans-3d" transform="translate(213.574219 0.314063)"/>
      <use xlink:href="#DejaVuSans-Oblique-50" transform="translate(316.845703 0.314063)"/>
      <use xlink:href="#DejaVuSans-30" transform="translate(377.148438 -16.092187) scale(0.7)"/>
      <use xlink:href="#DejaVuSans-22c5" transform="translate(443.901367 0.314063)"/>
      <use xlink:href="#DejaVuSans-Oblique-3be" transform="translate(604.170898 58.810938) scale(0.7)"/>
      <use xlink:href="#DejaVuSans-28" transform="translate(495.170898 -50.303125) scale(0.7)"/>
      <use xlink:href="#DejaVuSans-31" transform="translate(522.480469 -50.303125) scale(0.7)"/>
      <use xlink:href="#DejaVuSans-2b" transform="translate(580.654297 -50.303125) scale(0.7)"/>
      <use xlink:href="#DejaVuSans-Oblique-3be" transform="translate(652.944336 -50.303125) scale(0.7)"/>
      <use xlink:href="#DejaVuSans-29" transform="translate(691.977539 -50.303125) scale(0.7)"/>
      <use xlink:href="#DejaVuSans-32" transform="translate(719.957031 -23.50625) scale(0.49)"/>
      <path d="M 495.170898 19.110938 
L 495.170898 25.360938 
L 753.046387 25.360938 
L 753.046387 19.110938 
L 495.170898 19.110938 
z
"/>
     </g>
    </g>
    <g id="line2d_28">
     <path d="M 303.8 87.74 
L 313.8 87.74 
L 323.8 87.74 
" style="fill: none; stroke-dasharray: 5.55,2.4; stroke-dashoffset: 0; stroke: #ff0000; stroke-width: 1.5"/>
    </g>
    <g id="text_17">
     <!-- $\xi = 1$ (Точка нечувствительности) -->
     <g style="fill: #333333" transform="translate(331.8 91.24) scale(0.1 -0.1)">
      <defs>
       <path id="DejaVuSans-422" d="M -19 4666 
L 3928 4666 
L 3928 4134 
L 2272 4134 
L 2272 0 
L 1638 0 
L 1638 4134 
L -19 4134 
L -19 4666 
z
" transform="scale(0.015625)"/>
       <path id="DejaVuSans-447" d="M 2625 0 
L 2625 1472 
L 1553 1472 
Q 1075 1472 756 1769 
Q 469 2038 469 2613 
L 469 3500 
L 1044 3500 
L 1044 2666 
Q 1044 2300 1206 2116 
Q 1372 1931 1697 1931 
L 2625 1931 
L 2625 3500 
L 3200 3500 
L 3200 0 
L 2625 0 
z
" transform="scale(0.015625)"/>
       <path id="DejaVuSans-43a" d="M 581 3500 
L 1153 3500 
L 1153 1856 
L 2775 3500 
L 3481 3500 
L 2144 2147 
L 3653 0 
L 3009 0 
L 1769 1766 
L 1153 1141 
L 1153 0 
L 581 0 
L 581 3500 
z
" transform="scale(0.015625)"/>
       <path id="DejaVuSans-443" d="M 2059 -325 
Q 1816 -950 1584 -1140 
Q 1353 -1331 966 -1331 
L 506 -1331 
L 506 -850 
L 844 -850 
Q 1081 -850 1212 -737 
Q 1344 -625 1503 -206 
L 1606 56 
L 191 3500 
L 800 3500 
L 1894 763 
L 2988 3500 
L 3597 3500 
L 2059 -325 
z
" transform="scale(0.015625)"/>
      </defs>
      <use xlink:href="#DejaVuSans-Oblique-3be" transform="translate(0 0.015625)"/>
      <use xlink:href="#DejaVuSans-3d" transform="translate(75.244141 0.015625)"/>
      <use xlink:href="#DejaVuSans-31" transform="translate(178.515625 0.015625)"/>
      <use xlink:href="#DejaVuSans-20" transform="translate(242.138672 0.015625)"/>
      <use xlink:href="#DejaVuSans-28" transform="translate(273.925781 0.015625)"/>
      <use xlink:href="#DejaVuSans-422" transform="translate(312.939453 0.015625)"/>
      <use xlink:href="#DejaVuSans-43e" transform="translate(374.023438 0.015625)"/>
      <use xlink:href="#DejaVuSans-447" transform="translate(435.205078 0.015625)"/>
      <use xlink:href="#DejaVuSans-43a" transform="translate(494.287109 0.015625)"/>
      <use xlink:href="#DejaVuSans-430" transform="translate(554.6875 0.015625)"/>
      <use xlink:href="#DejaVuSans-20" transform="translate(615.966797 0.015625)"/>
      <use xlink:href="#DejaVuSans-43d" transform="translate(647.753906 0.015625)"/>
      <use xlink:href="#DejaVuSans-435" transform="translate(713.134766 0.015625)"/>
      <use xlink:href="#DejaVuSans-447" transform="translate(774.658203 0.015625)"/>
      <use xlink:href="#DejaVuSans-443" transform="translate(833.740234 0.015625)"/>
      <use xlink:href="#DejaVuSans-432" transform="translate(892.919922 0.015625)"/>
      <use xlink:href="#DejaVuSans-441" transform="translate(951.855469 0.015625)"/>
      <use xlink:href="#DejaVuSans-442" transform="translate(1006.835938 0.015625)"/>
      <use xlink:href="#DejaVuSans-432" transform="translate(1065.087891 0.015625)"/>
      <use xlink:href="#DejaVuSans-438" transform="translate(1124.023438 0.015625)"/>
      <use xlink:href="#DejaVuSans-442" transform="translate(1189.013672 0.015625)"/>
      <use xlink:href="#DejaVuSans-435" transform="translate(1247.265625 0.015625)"/>
      <use xlink:href="#DejaVuSans-43b" transform="translate(1308.789062 0.015625)"/>
      <use xlink:href="#DejaVuSans-44c" transform="translate(1372.705078 0.015625)"/>
      <use xlink:href="#DejaVuSans-43d" transform="translate(1431.640625 0.015625)"/>
      <use xlink:href="#DejaVuSans-43e" transform="translate(1497.021484 0.015625)"/>
      <use xlink:href="#DejaVuSans-441" transform="translate(1558.203125 0.015625)"/>
      <use xlink:href="#DejaVuSans-442" transform="translate(1613.183594 0.015625)"/>
      <use xlink:href="#DejaVuSans-438" transform="translate(1671.435547 0.015625)"/>
      <use xlink:href="#DejaVuSans-29" transform="translate(1736.425781 0.015625)"/>
     </g>
    </g>
   </g>
  </g>
 </g>
 <defs>
  <clipPath id="p066a0fa129">
   <rect x="72" y="51.84" width="446.4" height="332.64"/>
  </clipPath>
 </defs>
</svg>
