<svg width="1506" height="1568" xmlns="http://www.w3.org/2000/svg" xmlns:xlink="http://www.w3.org/1999/xlink" xml:space="preserve" overflow="hidden"><defs><filter id="fx0" x="-10%" y="-10%" width="120%" height="120%" filterUnits="userSpaceOnUse" primitiveUnits="userSpaceOnUse"><feComponentTransfer color-interpolation-filters="sRGB"><feFuncR type="discrete" tableValues="1 1"/><feFuncG type="discrete" tableValues="1 1"/><feFuncB type="discrete" tableValues="1 1"/><feFuncA type="linear" slope="0.4" intercept="0"/></feComponentTransfer><feGaussianBlur stdDeviation="6.11111 6.11111"/></filter><radialGradient cx="76200" cy="80356" r="110741" gradientUnits="userSpaceOnUse" spreadMethod="pad" id="fill1" gradientTransform="scale(0.000360892 0.000360892)"><stop offset="0" stop-color="#649A3F"/><stop offset="0.23" stop-color="#649A3F"/><stop offset="0.69" stop-color="#548235"/><stop offset="0.97" stop-color="#4E7932"/><stop offset="1" stop-color="#4E7932"/></radialGradient><radialGradient cx="134389" cy="139931" r="194013" fx="134389" fy="139931" gradientUnits="userSpaceOnUse" spreadMethod="pad" id="fill2" gradientTransform="scale(0.000360892 0.000360892)"><stop offset="0" stop-color="#649A3F"/><stop offset="0.23" stop-color="#649A3F"/><stop offset="0.69" stop-color="#548235"/><stop offset="0.97" stop-color="#4E7932"/><stop offset="1" stop-color="#4E7932"/></radialGradient><clipPath id="clip3"><rect x="11" y="-3" width="272" height="238"/></clipPath></defs><g transform="translate(-2898 -976)"><path d="M2902 1729C2902 1315.34 3237.34 980 3651 980 4064.66 980 4400 1315.34 4400 1729 4400 2142.66 4064.66 2478 3651 2478 3237.34 2478 2902 2142.66 2902 1729Z" stroke="#000000" stroke-width="8.02083" stroke-miterlimit="8" fill="#4472C4" fill-rule="evenodd"/><path d="M3701 1486.5C3701 1344.29 3816.29 1229 3958.5 1229 4100.71 1229 4216 1344.29 4216 1486.5 4216 1628.71 4100.71 1744 3958.5 1744 3816.29 1744 3701 1628.71 3701 1486.5Z" stroke="#000000" stroke-width="8.02083" stroke-miterlimit="8" fill="#F2F2F2" fill-rule="evenodd" fill-opacity="0.639216"/><path d="M33.5848 18.482 229.285 172.962 221.475 182.855 25.7753 28.3753ZM29.6798 23.4285 37.7521 53.8874 0 0 61.1806 24.2075ZM225.38 177.909 217.307 147.45 255.06 201.337 193.879 177.13Z" transform="matrix(1 0 0 -1 3684.5 1708.84)"/><path d="M3643.57 2436.62 3642.22 1835.27 3655.97 1835.23 3657.32 2436.59ZM3650.45 2436.6 3671.01 2409.06 3650.54 2477.85 3629.76 2409.15ZM3649.09 1835.25 3628.53 1862.8 3649 1794 3669.78 1862.7Z"/><path d="M3911.78 1439.85 3821.84 1317.69 3831.99 1310.21 3921.93 1432.38ZM3916.85 1436.12 3917.13 1404.61 3939.27 1466.57 3886.68 1427.03ZM3826.92 1313.95 3826.64 1345.46 3804.5 1283.5 3857.09 1323.04Z"/><path d="M0 28.9999C-3.50112e-15 12.9837 12.3122-3.69207e-15 27.5-7.38414e-15 42.6878-1.47683e-14 55 12.9837 55 28.9999 55 45.0161 42.6878 57.9997 27.5 57.9997 12.3122 57.9997-1.75056e-14 45.0161 0 28.9999Z" stroke="#000000" stroke-width="5.72917" stroke-miterlimit="8" fill="url(#fill1)" fill-rule="evenodd" transform="matrix(1 0 0 -1 3931 1515)"/><path d="M3561.47 2077.26C3558.62 2077.26 3555.61 2077.37 3552.44 2077.59L3542.13 2124.23 3551.64 2124.23C3559.42 2124.23 3565.57 2123.19 3570.09 2121.09 3574.6 2119 3578.17 2115.56 3580.8 2110.78 3583.43 2106 3584.75 2100.84 3584.75 2095.31 3584.75 2093 3584.53 2090.95 3584.1 2089.15 3583.67 2087.35 3583.11 2085.86 3582.41 2084.68 3581.71 2083.49 3580.83 2082.45 3579.75 2081.53 3578.68 2080.62 3577.34 2079.83 3575.73 2079.16 3574.11 2078.49 3572.25 2078 3570.13 2077.71 3568 2077.41 3565.12 2077.26 3561.47 2077.26ZM3529.16 2070.17 3565.01 2070.17C3570.7 2070.17 3575.35 2070.51 3578.95 2071.18 3582.55 2071.85 3585.62 2072.86 3588.17 2074.2 3590.72 2075.55 3592.86 2077.28 3594.58 2079.4 3596.3 2081.52 3597.59 2083.91 3598.45 2086.57 3599.3 2089.23 3599.73 2092.06 3599.73 2095.07 3599.73 2103.34 3597.21 2110.38 3592.16 2116.18 3587.11 2121.98 3579.67 2126.38 3569.84 2129.39L3569.84 2130.28C3572.42 2132.21 3574.5 2134.52 3576.09 2137.21 3577.67 2139.89 3578.95 2143.62 3579.91 2148.4L3581.77 2157.75C3582.36 2160.7 3583.03 2163.36 3583.78 2165.73 3584.53 2168.09 3585.43 2169.97 3586.48 2171.37 3587.53 2172.76 3588.71 2173.81 3590.03 2174.51 3591.34 2175.21 3593.26 2175.77 3595.79 2176.2L3594.98 2180.15 3572.66 2180.15C3570.95 2175.37 3569.41 2169.67 3568.07 2163.07L3564.53 2145.99C3563.94 2143.03 3563.22 2140.55 3562.39 2138.53 3561.56 2136.52 3560.57 2134.96 3559.41 2133.86 3558.26 2132.76 3556.91 2132.04 3555.38 2131.69 3553.85 2131.34 3551.99 2131.16 3549.78 2131.16L3540.6 2131.16 3534.96 2156.7C3534.48 2158.8 3534.14 2160.46 3533.95 2161.7 3533.76 2162.93 3533.6 2164.24 3533.47 2165.61 3533.33 2166.97 3533.27 2168.2 3533.27 2169.27 3533.27 2170.94 3533.54 2172.24 3534.07 2173.18 3534.61 2174.12 3535.42 2174.8 3536.49 2175.23 3537.56 2175.66 3539.42 2175.98 3542.05 2176.2L3541.16 2180.15 3508.05 2180.15 3508.94 2176.2C3510.98 2175.88 3512.51 2175.35 3513.53 2174.63 3514.55 2173.9 3515.41 2172.9 3516.11 2171.61 3516.8 2170.32 3517.45 2168.75 3518.04 2166.89 3518.63 2165.04 3519.52 2161.46 3520.7 2156.14L3534.39 2094.1C3535.58 2088.73 3536.17 2084.49 3536.17 2081.37 3536.17 2078.74 3535.55 2076.92 3534.31 2075.89 3533.08 2074.87 3531.06 2074.28 3528.27 2074.12Z" fill-rule="evenodd"/><text fill="#000000" fill-opacity="0" font-family="Arial,Arial_MSFontService,sans-serif" font-size="109.973" x="3508.05" y="2166.4">𝑅</text><path d="M3884.84 1617.92C3881.19 1617.92 3877.91 1619.39 3875.01 1622.35 3872.11 1625.3 3869.83 1629.29 3868.16 1634.3 3866.5 1639.31 3865.67 1644.31 3865.67 1649.28 3865.67 1653.01 3866.18 1655.79 3867.2 1657.64 3868.22 1659.48 3869.93 1660.4 3872.33 1660.4 3873.44 1660.4 3874.56 1660.16 3875.71 1659.68 3876.86 1659.19 3878.05 1658.42 3879.28 1657.34 3880.52 1656.27 3881.74 1654.96 3882.93 1653.42 3884.13 1651.88 3885.24 1650.33 3886.24 1648.77 3887.24 1647.22 3888.17 1645.37 3889.03 1643.24 3889.89 1641.11 3890.62 1638.54 3891.23 1635.53L3891.72 1633.22C3892.25 1630.65 3892.52 1628.21 3892.52 1625.92 3892.52 1623.13 3891.93 1621.1 3890.75 1619.82 3889.57 1618.55 3887.6 1617.92 3884.84 1617.92ZM3907.35 1589.13 3910.52 1589.13 3897.14 1648.59C3896.35 1652.1 3895.96 1654.75 3895.96 1656.54 3895.96 1657.97 3896.19 1659.01 3896.66 1659.65 3897.12 1660.3 3897.86 1660.62 3898.86 1660.62 3899.93 1660.62 3901.08 1660.18 3902.3 1659.3 3903.52 1658.42 3905.23 1656.75 3907.45 1654.28L3910.52 1657.29C3907.22 1660.76 3904.45 1663.21 3902.19 1664.65 3899.93 1666.08 3897.5 1666.79 3894.89 1666.79 3892.67 1666.79 3890.89 1666.06 3889.57 1664.59 3888.24 1663.12 3887.58 1661.17 3887.58 1658.74 3887.58 1656.77 3887.99 1654.67 3888.82 1652.45L3888.12 1652.24C3884.68 1657.25 3881.42 1660.92 3878.34 1663.25 3875.26 1665.58 3872 1666.74 3868.57 1666.74 3864.63 1666.74 3861.58 1665.25 3859.41 1662.28 3857.24 1659.31 3856.16 1655.14 3856.16 1649.77 3856.16 1643.61 3857.37 1637.69 3859.79 1632.02 3862.2 1626.34 3865.52 1621.87 3869.75 1618.59 3873.97 1615.31 3878.68 1613.67 3883.87 1613.67 3886.06 1613.67 3888.07 1613.9 3889.92 1614.35 3891.76 1614.79 3893.65 1615.57 3895.58 1616.68L3898.38 1604.27C3898.66 1603.09 3898.91 1601.79 3899.13 1600.35 3899.34 1598.92 3899.45 1597.67 3899.45 1596.59 3899.45 1595.52 3899.25 1594.71 3898.86 1594.15 3898.47 1593.6 3897.9 1593.19 3897.17 1592.94 3896.43 1592.69 3895.12 1592.51 3893.22 1592.4L3893.86 1589.61Z" fill-rule="evenodd"/><text fill="#000000" fill-opacity="0" font-family="Arial,Arial_MSFontService,sans-serif" font-size="77.666" x="3856.16" y="1657.09">𝑑</text><path d="M3907.84 1302.19C3910.1 1302.19 3911.88 1302.93 3913.19 1304.42 3914.49 1305.91 3915.15 1307.85 3915.15 1310.25 3915.15 1312.04 3914.81 1313.88 3914.13 1315.78L3914.82 1316.05C3918.33 1311.29 3921.71 1307.8 3924.95 1305.58 3928.19 1303.35 3931.47 1302.24 3934.8 1302.24 3937.42 1302.24 3939.6 1302.44 3941.36 1302.84L3938.78 1314.87 3933.25 1314.87C3933.03 1313.36 3932.73 1312.2 3932.33 1311.38 3931.94 1310.55 3931.47 1309.98 3930.94 1309.66 3930.4 1309.33 3929.72 1309.17 3928.9 1309.17 3927.61 1309.17 3926.2 1309.73 3924.68 1310.84 3923.16 1311.95 3921.45 1313.69 3919.55 1316.05 3917.65 1318.41 3916.14 1320.69 3915.01 1322.87 3913.88 1325.05 3912.94 1327.83 3912.19 1331.2L3907.09 1354.45 3897.8 1354.45 3905.59 1320.4C3906.09 1318.25 3906.41 1316.59 3906.55 1315.4 3906.7 1314.22 3906.77 1313.24 3906.77 1312.45 3906.77 1311.02 3906.53 1309.98 3906.07 1309.33 3905.6 1308.69 3904.87 1308.37 3903.87 1308.37 3902.76 1308.37 3901.58 1308.82 3900.35 1309.74 3899.11 1310.65 3897.42 1312.31 3895.27 1314.71L3892.21 1311.7C3895.51 1308.26 3898.26 1305.82 3900.48 1304.37 3902.7 1302.92 3905.16 1302.19 3907.84 1302.19Z" fill-rule="evenodd"/><text fill="#000000" fill-opacity="0" font-family="Arial,Arial_MSFontService,sans-serif" font-size="52.2607" x="3892.21" y="1347.92">𝑟</text><path d="M3283.49 1426.1C3274.68 1426.37 3266.79 1428.91 3259.82 1433.75 3252.85 1438.58 3247.44 1445.07 3243.59 1453.23 3239.75 1461.38 3237.82 1470.42 3237.82 1480.35 3237.82 1485.48 3238.66 1489.61 3240.34 1492.73 3242.02 1495.85 3244.1 1498.01 3246.6 1499.19 3249.1 1500.37 3251.8 1500.96 3254.69 1500.96 3261.33 1500.96 3267.08 1498.79 3271.95 1494.45 3276.82 1490.11 3280.75 1483.51 3283.74 1474.63 3286.73 1465.75 3288.23 1457.14 3288.23 1448.79 3288.23 1439.78 3286.65 1432.22 3283.49 1426.1ZM3298.68 1412.79 3330.05 1412.79 3327.09 1425.81 3294.83 1425.81 3294.64 1426.6C3298.38 1431.07 3301.08 1435.57 3302.72 1440.11 3304.37 1444.65 3305.19 1449.61 3305.19 1455 3305.19 1464.8 3303.09 1473.89 3298.88 1482.27 3294.67 1490.66 3288.78 1497.15 3281.22 1501.75 3273.66 1506.36 3265.11 1508.66 3255.58 1508.66 3244.73 1508.66 3236.46 1505.75 3230.77 1499.93 3225.08 1494.11 3222.24 1485.87 3222.24 1475.22 3222.24 1467.92 3223.34 1461 3225.54 1454.46 3227.75 1447.92 3231 1441.9 3235.31 1436.41 3239.62 1430.92 3244.5 1426.46 3249.96 1423.04 3255.41 1419.63 3261.92 1417.06 3269.48 1415.35 3277.05 1413.64 3286.78 1412.79 3298.68 1412.79Z" fill-rule="evenodd"/><text fill="#000000" fill-opacity="0" font-family="Arial,Arial_MSFontService,sans-serif" font-size="95.8711" x="3222.24" y="1496.67">𝜎</text><path d="M4029.15 1564.95 4106.15 1564.95 4106.15 1573.26 4029.15 1573.26Z" fill-rule="evenodd"/><text fill="#000000" fill-opacity="0" font-family="Arial,Arial_MSFontService,sans-serif" font-size="8.3125" x="4029.15" y="1572.22">−</text><path d="M4159.95 1554.38C4154.37 1554.55 4149.37 1556.17 4144.95 1559.23 4140.53 1562.29 4137.11 1566.41 4134.67 1571.57 4132.23 1576.74 4131.01 1582.47 4131.01 1588.76 4131.01 1592.01 4131.54 1594.62 4132.61 1596.6 4133.67 1598.58 4134.99 1599.95 4136.58 1600.7 4138.16 1601.45 4139.87 1601.82 4141.7 1601.82 4145.91 1601.82 4149.55 1600.45 4152.64 1597.7 4155.72 1594.95 4158.21 1590.76 4160.11 1585.13 4162 1579.51 4162.95 1574.05 4162.95 1568.76 4162.95 1563.05 4161.95 1558.26 4159.95 1554.38ZM4169.58 1545.95 4189.45 1545.95 4187.58 1554.2 4167.14 1554.2 4167.01 1554.7C4169.39 1557.53 4171.1 1560.38 4172.14 1563.26 4173.18 1566.13 4173.7 1569.28 4173.7 1572.7 4173.7 1578.91 4172.37 1584.67 4169.7 1589.98 4167.03 1595.29 4163.3 1599.41 4158.51 1602.32 4153.72 1605.24 4148.3 1606.7 4142.26 1606.7 4135.39 1606.7 4130.15 1604.85 4126.54 1601.17 4122.94 1597.48 4121.14 1592.26 4121.14 1585.51 4121.14 1580.88 4121.84 1576.5 4123.23 1572.35 4124.63 1568.21 4126.69 1564.4 4129.42 1560.92 4132.15 1557.44 4135.24 1554.61 4138.7 1552.45 4142.16 1550.28 4146.28 1548.66 4151.08 1547.57 4155.87 1546.49 4162.03 1545.95 4169.58 1545.95Z" fill-rule="evenodd"/><text fill="#000000" fill-opacity="0" font-family="Arial,Arial_MSFontService,sans-serif" font-size="60.75" x="4121.14" y="1599.1">𝜎</text><path d="M0 0 632.499 522.439" stroke="#000000" stroke-width="5.72917" stroke-miterlimit="8" stroke-dasharray="22.9167 17.1875" fill="none" fill-rule="evenodd" transform="matrix(-1 0 0 1 3700.5 1696)"/><path d="M0 29C-3.56478e-15 12.9838 12.536-3.69209e-15 28-7.38419e-15 43.464-1.47684e-14 56 12.9838 56 29 56 45.0163 43.464 58.0001 28 58.0001 12.536 58.0001-1.78239e-14 45.0163 0 29Z" stroke="#000000" stroke-width="5.72917" stroke-miterlimit="8" fill="#FFC000" fill-rule="evenodd" transform="matrix(1 0 0 -1 3303 2025)"/><path d="M0 50.5C-6.17469e-15 22.6096 21.7142-6.42933e-15 48.5-1.28587e-14 75.2858-2.57173e-14 96.9999 22.6096 96.9999 50.5 96.9999 78.3904 75.2858 101 48.5 101 21.7142 101-3.08735e-14 78.3904 0 50.5Z" stroke="#000000" stroke-width="5.72917" stroke-miterlimit="8" fill="url(#fill2)" fill-rule="evenodd" transform="matrix(-1 0 0 1 3698 1693)"/><g clip-path="url(#clip3)" filter="url(#fx0)" transform="translate(3305 1707)"><g><path d="M42.8222 176.743C41.1488 178.053 40.1774 179.905 39.9078 182.298 39.6383 184.692 40.021 187.335 41.0558 190.229 42.0906 193.123 43.5004 195.71 45.2852 197.991 46.6206 199.697 47.8528 200.79 48.9816 201.269 50.1105 201.747 51.2245 201.557 52.3237 200.696 52.8322 200.298 53.2623 199.783 53.614 199.151 53.9656 198.518 54.2318 197.735 54.4126 196.799 54.5934 195.864 54.6825 194.829 54.68 193.693 54.6774 192.558 54.6265 191.453 54.5273 190.38 54.4281 189.307 54.1934 188.128 53.8231 186.844 53.4529 185.56 52.8679 184.119 52.0682 182.523L51.4614 181.291C50.783 179.918 50.0329 178.706 49.2111 177.656 48.2095 176.376 47.2102 175.657 46.2129 175.498 45.2157 175.34 44.0855 175.755 42.8222 176.743ZM42.8095 155.483 44.2614 154.346 59.4555 186.384C60.3529 188.274 61.1227 189.63 61.7647 190.45 62.2783 191.106 62.7573 191.498 63.2017 191.627 63.6461 191.755 64.098 191.64 64.5574 191.28 65.0495 190.895 65.4172 190.283 65.6604 189.444 65.9036 188.606 66.0908 187.223 66.222 185.295L68.7033 185.575C68.4395 188.347 68.0476 190.466 67.5277 191.932 67.0077 193.397 66.1489 194.598 64.9513 195.535 63.9342 196.331 62.8588 196.631 61.7254 196.433 60.5919 196.236 59.5886 195.579 58.7154 194.464 58.0092 193.561 57.4467 192.454 57.0279 191.141L56.631 191.293C56.8537 194.823 56.6769 197.673 56.1006 199.844 55.5244 202.014 54.4488 203.716 52.8738 204.949 51.0692 206.361 49.1377 206.775 47.0794 206.19 45.0211 205.605 43.0289 204.082 41.1028 201.621 38.8943 198.8 37.3261 195.655 36.3982 192.188 35.4704 188.721 35.387 185.479 36.1479 182.463 36.9089 179.447 38.4788 177.008 40.8577 175.146 41.8584 174.363 42.8615 173.743 43.8669 173.287 44.8723 172.83 46.017 172.51 47.3009 172.325L44.1314 165.639C43.8389 164.995 43.485 164.306 43.0698 163.573 42.6547 162.84 42.2545 162.227 41.8692 161.735 41.484 161.243 41.1017 160.94 40.7222 160.827 40.3427 160.714 39.9398 160.732 39.5136 160.88 39.0874 161.028 38.4203 161.418 37.5123 162.049L36.806 160.539Z" fill-rule="evenodd"/><path d="M101.31 66.1648C102.344 65.3558 103.427 65.0574 104.558 65.2696 105.69 65.4817 106.686 66.1374 107.546 67.2366 108.188 68.0569 108.694 69.0238 109.063 70.1373L109.479 70.0099C109.379 66.5696 109.673 63.7598 110.362 61.5806 111.05 59.4013 112.157 57.7146 113.683 56.5205 114.881 55.5831 115.952 54.8901 116.897 54.4414L120.03 60.8782 117.496 62.8621C116.858 62.2501 116.301 61.826 115.826 61.5899 115.35 61.3539 114.931 61.2583 114.569 61.3032 114.208 61.3482 113.838 61.5183 113.461 61.8137 112.87 62.2759 112.425 63.0342 112.126 64.0885 111.827 65.1428 111.666 66.5516 111.644 68.315 111.622 70.0783 111.745 71.6626 112.011 73.0678 112.278 74.473 112.842 76.0815 113.704 77.8933L119.707 90.3786 115.449 93.7107 106.806 75.3161C106.265 74.1519 105.816 73.2735 105.458 72.6808 105.1 72.088 104.779 71.6112 104.497 71.2502 103.983 70.594 103.504 70.2017 103.06 70.0733 102.616 69.9449 102.164 70.0605 101.704 70.4201 101.196 70.8181 100.822 71.4478 100.584 72.3092 100.345 73.1705 100.164 74.536 100.04 76.4056L97.5584 76.1254C97.8351 73.3691 98.2219 71.2607 98.719 69.8001 99.2162 68.3396 100.08 67.1278 101.31 66.1648Z" fill-rule="evenodd"/><path d="M116.702 25.1617C117.955 24.181 119.135 23.4857 120.242 23.0758 121.349 22.6658 122.368 22.4849 123.3 22.533 124.231 22.5812 125.084 22.846 125.86 23.3273 126.635 23.8087 127.329 24.441 127.942 25.2241 128.309 25.6939 128.618 26.1566 128.868 26.6121 129.117 27.0676 129.314 27.5547 129.458 28.0736 129.602 28.5925 129.697 29.1544 129.743 29.7594 129.789 30.3645 129.788 31.0455 129.739 31.8024 129.739 32.4237 129.697 33.1759 129.611 34.0592 129.525 34.9424 129.422 35.8971 129.303 36.9233 129.183 37.9495 129.055 39.021 128.919 40.1379 128.783 41.2547 128.66 42.3514 128.551 43.4279 128.441 44.5044 128.366 45.5251 128.324 46.49 128.283 47.455 128.294 48.301 128.358 49.0281L135.045 43.7946C135.611 43.3514 136.046 42.9767 136.351 42.6705 136.655 42.3643 136.862 42.0516 136.972 41.7326 137.082 41.4136 137.099 41.0452 137.025 40.6274 136.95 40.2097 136.813 39.6616 136.612 38.9832L138.293 37.6678C138.902 38.5703 139.519 39.4766 140.144 40.3865 140.769 41.2963 141.386 42.2026 141.995 43.1051L126.688 55.0856 125.952 54.1459C125.732 53.269 125.568 52.3634 125.458 51.4291 125.349 50.4948 125.28 49.5138 125.253 48.486 125.226 47.4582 125.248 46.3575 125.32 45.1838 125.393 44.0102 125.51 42.7575 125.672 41.4259 125.918 39.407 126.083 37.7188 126.167 36.3612 126.251 35.0037 126.252 33.8513 126.172 32.9042 126.091 31.9571 125.918 31.1596 125.654 30.5116 125.39 29.8636 125.022 29.2384 124.55 28.636 124.069 28.0216 123.539 27.5237 122.959 27.1424 122.378 26.761 121.784 26.5169 121.176 26.4101 120.568 26.3033 119.934 26.3431 119.273 26.5296 118.613 26.7162 117.958 27.064 117.307 27.5732 116.187 28.4502 115.485 29.4899 115.202 30.6924 114.919 31.8949 115.02 33.2395 115.503 34.7261L113.136 36.5791 110.378 33.055C111.42 31.2095 112.476 29.6353 113.544 28.3324 114.613 27.0296 115.666 25.9727 116.702 25.1617Z" fill-rule="evenodd"/><path d="M103.253 168.753C102.384 169.434 101.491 170.186 100.574 171.009L108.576 187.723 111.48 185.45C113.859 183.588 115.487 181.798 116.364 180.079 117.241 178.361 117.511 176.457 117.172 174.368 116.833 172.278 116.002 170.389 114.679 168.699 114.127 167.994 113.57 167.418 113.009 166.971 112.448 166.524 111.919 166.203 111.423 166.009 110.928 165.815 110.406 165.707 109.86 165.685 109.314 165.663 108.714 165.742 108.061 165.922 107.409 166.102 106.723 166.401 106.004 166.818 105.286 167.235 104.369 167.88 103.253 168.753ZM91.6901 174.311 102.641 165.74C104.38 164.379 105.879 163.371 107.139 162.716 108.399 162.06 109.579 161.633 110.679 161.433 111.779 161.233 112.845 161.252 113.878 161.489 114.91 161.726 115.875 162.148 116.773 162.755 117.671 163.361 118.48 164.124 119.199 165.043 121.176 167.569 122.087 170.322 121.932 173.301 121.777 176.28 120.557 179.403 118.274 182.672L118.486 182.943C119.736 182.917 120.924 183.125 122.05 183.566 123.176 184.008 124.458 184.843 125.896 186.072L128.696 188.483C129.583 189.245 130.423 189.896 131.218 190.438 132.013 190.98 132.737 191.339 133.391 191.516 134.044 191.692 134.656 191.729 135.225 191.628 135.793 191.527 136.515 191.24 137.389 190.767L138.086 192.166 131.27 197.501C129.602 196.452 127.773 195.079 125.784 193.382L120.618 189.012C119.731 188.251 118.92 187.663 118.184 187.247 117.448 186.83 116.772 186.592 116.156 186.532 115.54 186.472 114.957 186.571 114.406 186.83 113.855 187.09 113.243 187.483 112.57 188.009L109.765 190.205 114.148 199.354C114.501 200.109 114.797 200.698 115.035 201.121 115.272 201.543 115.535 201.979 115.821 202.43 116.107 202.88 116.379 203.269 116.636 203.597 117.034 204.106 117.427 204.44 117.816 204.598 118.205 204.757 118.615 204.774 119.046 204.648 119.476 204.523 120.119 204.178 120.975 203.614L121.648 205.032 111.534 212.948 110.86 211.531C111.407 210.944 111.749 210.418 111.888 209.953 112.026 209.487 112.048 208.974 111.953 208.414 111.858 207.853 111.679 207.219 111.417 206.512 111.154 205.805 110.568 204.498 109.657 202.591L99.0101 180.368C98.087 178.445 97.253 177.008 96.5083 176.056 95.8791 175.252 95.2539 174.842 94.6326 174.826 94.0112 174.809 93.2548 175.11 92.3632 175.729Z" fill-rule="evenodd"/><path d="M124.236 140.792C125.489 139.812 126.669 139.116 127.776 138.706 128.883 138.296 129.902 138.116 130.834 138.164 131.765 138.212 132.618 138.477 133.393 138.958 134.169 139.439 134.863 140.072 135.475 140.855 135.843 141.325 136.152 141.787 136.402 142.243 136.651 142.698 136.848 143.185 136.992 143.704 137.136 144.223 137.231 144.785 137.277 145.39 137.323 145.995 137.321 146.676 137.273 147.433 137.273 148.054 137.231 148.807 137.145 149.69 137.059 150.573 136.956 151.528 136.837 152.554 136.717 153.58 136.589 154.652 136.453 155.768 136.317 156.885 136.194 157.982 136.084 159.059 135.975 160.135 135.9 161.156 135.858 162.121 135.817 163.086 135.828 163.932 135.892 164.659L142.579 159.425C143.145 158.982 143.58 158.607 143.885 158.301 144.189 157.995 144.396 157.682 144.506 157.363 144.616 157.044 144.633 156.676 144.559 156.258 144.484 155.84 144.347 155.292 144.146 154.614L145.827 153.298C146.436 154.201 147.053 155.107 147.678 156.017 148.303 156.927 148.92 157.833 149.529 158.736L134.222 170.716 133.486 169.776C133.266 168.9 133.102 167.994 132.992 167.06 132.883 166.125 132.814 165.144 132.787 164.117 132.76 163.089 132.782 161.988 132.854 160.814 132.926 159.641 133.044 158.388 133.206 157.057 133.452 155.038 133.617 153.349 133.701 151.992 133.785 150.634 133.786 149.482 133.705 148.535 133.625 147.588 133.452 146.79 133.188 146.142 132.924 145.494 132.556 144.869 132.084 144.267 131.603 143.652 131.073 143.154 130.493 142.773 129.912 142.392 129.318 142.148 128.71 142.041 128.102 141.934 127.468 141.974 126.807 142.16 126.147 142.347 125.492 142.695 124.841 143.204 123.721 144.081 123.019 145.121 122.736 146.323 122.453 147.526 122.554 148.87 123.037 150.357L120.67 152.21 117.912 148.686C118.954 146.84 120.01 145.266 121.078 143.963 122.147 142.66 123.2 141.603 124.236 140.792Z" fill-rule="evenodd"/><path d="M169.274 141.882 199.592 118.153 202.154 121.426 171.836 145.155Z" fill-rule="evenodd"/><path d="M216.274 92.3575C217.308 91.5486 218.39 91.2502 219.522 91.4623 220.654 91.6745 221.65 92.3302 222.51 93.4294 223.152 94.2496 223.657 95.2165 224.026 96.33L224.442 96.2027C224.342 92.7623 224.637 89.9525 225.325 87.7733 226.014 85.5941 227.121 83.9074 228.647 82.7132 229.844 81.7759 230.916 81.0828 231.861 80.6341L234.994 87.071 232.459 89.0548C231.822 88.4428 231.265 88.0188 230.789 87.7827 230.313 87.5466 229.895 87.451 229.533 87.496 229.171 87.5409 228.802 87.7111 228.424 88.0064 227.834 88.4687 227.389 89.227 227.09 90.2813 226.791 91.3356 226.63 92.7444 226.608 94.5077 226.586 96.271 226.708 97.8553 226.975 99.2605 227.241 100.666 227.806 102.274 228.668 104.086L234.67 116.571 230.413 119.903 221.77 101.509C221.229 100.345 220.78 99.4663 220.422 98.8735 220.063 98.2807 219.743 97.8039 219.461 97.443 218.947 96.7868 218.468 96.3944 218.024 96.2661 217.579 96.1377 217.127 96.2533 216.668 96.6128 216.159 97.0109 215.786 97.6406 215.547 98.5019 215.309 99.3633 215.127 100.729 215.003 102.598L212.522 102.318C212.799 99.5618 213.186 97.4534 213.683 95.9929 214.18 94.5323 215.044 93.3206 216.274 92.3575Z" fill-rule="evenodd"/><path d="M234.264 54.6749C235.517 53.6942 236.697 52.9989 237.805 52.5889 238.912 52.179 239.931 51.9981 240.862 52.0462 241.794 52.0944 242.647 52.3591 243.422 52.8405 244.197 53.3219 244.891 53.9541 245.504 54.7373 245.872 55.2071 246.18 55.6698 246.43 56.1253 246.68 56.5807 246.876 57.0679 247.02 57.5868 247.164 58.1056 247.259 58.6676 247.305 59.2726 247.351 59.8777 247.35 60.5587 247.301 61.3156 247.302 61.9369 247.259 62.6891 247.173 63.5723 247.088 64.4556 246.985 65.4103 246.865 66.4365 246.745 67.4627 246.618 68.5342 246.481 69.6511 246.345 70.7679 246.222 71.8646 246.113 72.9411 246.004 74.0176 245.928 75.0383 245.887 76.0032 245.846 76.9681 245.857 77.8141 245.921 78.5412L252.607 73.3077C253.174 72.8645 253.609 72.4898 253.913 72.1836 254.218 71.8774 254.425 71.5648 254.534 71.2458 254.644 70.9268 254.662 70.5584 254.587 70.1406 254.513 69.7229 254.375 69.1748 254.175 68.4964L255.855 67.181C256.465 68.0835 257.082 68.9897 257.706 69.8996 258.331 70.8095 258.948 71.7157 259.557 72.6183L244.251 84.5988 243.515 83.659C243.295 82.7821 243.13 81.8766 243.021 80.9423 242.911 80.008 242.843 79.027 242.815 77.9992 242.788 76.9714 242.811 75.8707 242.883 74.697 242.955 73.5233 243.072 72.2707 243.235 70.9391 243.481 68.9202 243.646 67.2319 243.729 65.8744 243.813 64.5169 243.815 63.3645 243.734 62.4174 243.653 61.4703 243.481 60.6728 243.216 60.0248 242.952 59.3768 242.584 58.7516 242.113 58.1492 241.632 57.5348 241.101 57.0369 240.521 56.6555 239.941 56.2742 239.347 56.0301 238.739 55.9233 238.13 55.8165 237.496 55.8563 236.836 56.0428 236.176 56.2293 235.52 56.5772 234.87 57.0864 233.749 57.9634 233.047 59.0031 232.765 60.2056 232.482 61.4081 232.582 62.7527 233.066 64.2393L230.698 66.0923 227.94 62.5682C228.983 60.7227 230.038 59.1485 231.107 57.8456 232.176 56.5428 233.228 55.4859 234.264 54.6749Z" fill-rule="evenodd"/><path d="M71.1252 164.66 112.861 131.994 154.598 99.3276 196.334 66.6614 238.07 33.9951 240.536 37.145 198.799 69.8113 157.063 102.478 115.327 135.144 73.5906 167.81Z" fill-rule="evenodd"/></g></g><path d="M3338.1 1874.02C3336.43 1875.33 3335.45 1877.18 3335.19 1879.58 3334.92 1881.97 3335.3 1884.61 3336.33 1887.51 3337.37 1890.4 3338.78 1892.99 3340.56 1895.27 3341.9 1896.97 3343.13 1898.07 3344.26 1898.55 3345.39 1899.02 3346.5 1898.83 3347.6 1897.97 3348.11 1897.58 3348.54 1897.06 3348.89 1896.43 3349.24 1895.8 3349.51 1895.01 3349.69 1894.08 3349.87 1893.14 3349.96 1892.11 3349.96 1890.97 3349.95 1889.84 3349.9 1888.73 3349.8 1887.66 3349.71 1886.58 3349.47 1885.41 3349.1 1884.12 3348.73 1882.84 3348.15 1881.4 3347.35 1879.8L3346.74 1878.57C3346.06 1877.19 3345.31 1875.98 3344.49 1874.93 3343.49 1873.65 3342.49 1872.93 3341.49 1872.78 3340.49 1872.62 3339.36 1873.03 3338.1 1874.02ZM3338.09 1852.76 3339.54 1851.62 3354.73 1883.66C3355.63 1885.55 3356.4 1886.91 3357.04 1887.73 3357.56 1888.38 3358.03 1888.78 3358.48 1888.9 3358.92 1889.03 3359.38 1888.92 3359.83 1888.56 3360.33 1888.17 3360.69 1887.56 3360.94 1886.72 3361.18 1885.88 3361.37 1884.5 3361.5 1882.57L3363.98 1882.85C3363.72 1885.62 3363.32 1887.74 3362.8 1889.21 3362.29 1890.67 3361.43 1891.88 3360.23 1892.81 3359.21 1893.61 3358.14 1893.91 3357 1893.71 3355.87 1893.51 3354.87 1892.86 3353.99 1891.74 3353.29 1890.84 3352.72 1889.73 3352.31 1888.42L3351.91 1888.57C3352.13 1892.1 3351.95 1894.95 3351.38 1897.12 3350.8 1899.29 3349.73 1900.99 3348.15 1902.23 3346.35 1903.64 3344.42 1904.05 3342.36 1903.47 3340.3 1902.88 3338.31 1901.36 3336.38 1898.9 3334.17 1896.08 3332.6 1892.93 3331.68 1889.47 3330.75 1886 3330.66 1882.76 3331.43 1879.74 3332.19 1876.72 3333.76 1874.29 3336.14 1872.42 3337.14 1871.64 3338.14 1871.02 3339.14 1870.56 3340.15 1870.11 3341.29 1869.79 3342.58 1869.6L3339.41 1862.92C3339.12 1862.27 3338.76 1861.58 3338.35 1860.85 3337.93 1860.12 3337.53 1859.5 3337.15 1859.01 3336.76 1858.52 3336.38 1858.22 3336 1858.1 3335.62 1857.99 3335.22 1858.01 3334.79 1858.16 3334.36 1858.31 3333.7 1858.7 3332.79 1859.33L3332.08 1857.82Z" fill-rule="evenodd"/><text fill="#000000" fill-opacity="0" font-family="Arial,Arial_MSFontService,sans-serif" font-size="52.1003" x="3330.91" y="1897.21">𝑑</text><path d="M3396.59 1763.44C3397.62 1762.63 3398.7 1762.33 3399.84 1762.55 3400.97 1762.76 3401.96 1763.41 3402.82 1764.51 3403.47 1765.33 3403.97 1766.3 3404.34 1767.41L3404.76 1767.29C3404.66 1763.85 3404.95 1761.04 3405.64 1758.86 3406.33 1756.68 3407.43 1754.99 3408.96 1753.8 3410.16 1752.86 3411.23 1752.17 3412.17 1751.72L3415.31 1758.16 3412.77 1760.14C3412.14 1759.53 3411.58 1759.1 3411.1 1758.87 3410.63 1758.63 3410.21 1758.54 3409.85 1758.58 3409.49 1758.63 3409.12 1758.8 3408.74 1759.09 3408.15 1759.55 3407.7 1760.31 3407.4 1761.37 3407.1 1762.42 3406.94 1763.83 3406.92 1765.59 3406.9 1767.36 3407.02 1768.94 3407.29 1770.35 3407.55 1771.75 3408.12 1773.36 3408.98 1775.17L3414.98 1787.66 3410.73 1790.99 3402.08 1772.59C3401.54 1771.43 3401.09 1770.55 3400.74 1769.96 3400.38 1769.37 3400.06 1768.89 3399.77 1768.53 3399.26 1767.87 3398.78 1767.48 3398.34 1767.35 3397.89 1767.22 3397.44 1767.34 3396.98 1767.7 3396.47 1768.1 3396.1 1768.73 3395.86 1769.59 3395.62 1770.45 3395.44 1771.81 3395.32 1773.68L3392.84 1773.4C3393.11 1770.65 3393.5 1768.54 3394 1767.08 3394.49 1765.62 3395.36 1764.41 3396.59 1763.44Z" fill-rule="evenodd"/><text fill="#000000" fill-opacity="0" font-family="Arial,Arial_MSFontService,sans-serif" font-size="39.2693" x="3392.84" y="1786.08">𝑟</text><path d="M3411.98 1722.44C3413.23 1721.46 3414.41 1720.76 3415.52 1720.35 3416.63 1719.94 3417.65 1719.76 3418.58 1719.81 3419.51 1719.86 3420.36 1720.12 3421.14 1720.6 3421.91 1721.09 3422.61 1721.72 3423.22 1722.5 3423.59 1722.97 3423.9 1723.43 3424.14 1723.89 3424.39 1724.34 3424.59 1724.83 3424.73 1725.35 3424.88 1725.87 3424.97 1726.43 3425.02 1727.04 3425.07 1727.64 3425.06 1728.32 3425.02 1729.08 3425.02 1729.7 3424.97 1730.45 3424.89 1731.34 3424.8 1732.22 3424.7 1733.17 3424.58 1734.2 3424.46 1735.23 3424.33 1736.3 3424.2 1737.42 3424.06 1738.53 3423.94 1739.63 3423.83 1740.71 3423.72 1741.78 3423.64 1742.8 3423.6 1743.77 3423.56 1744.73 3423.57 1745.58 3423.64 1746.31L3430.32 1741.07C3430.89 1740.63 3431.32 1740.25 3431.63 1739.95 3431.93 1739.64 3432.14 1739.33 3432.25 1739.01 3432.36 1738.69 3432.38 1738.32 3432.3 1737.9 3432.23 1737.49 3432.09 1736.94 3431.89 1736.26L3433.57 1734.94C3434.18 1735.85 3434.8 1736.75 3435.42 1737.66 3436.05 1738.57 3436.66 1739.48 3437.27 1740.38L3421.97 1752.36 3421.23 1751.42C3421.01 1750.55 3420.84 1749.64 3420.74 1748.71 3420.63 1747.77 3420.56 1746.79 3420.53 1745.76 3420.5 1744.74 3420.53 1743.63 3420.6 1742.46 3420.67 1741.29 3420.79 1740.03 3420.95 1738.7 3421.2 1736.68 3421.36 1735 3421.44 1733.64 3421.53 1732.28 3421.53 1731.13 3421.45 1730.18 3421.37 1729.23 3421.2 1728.44 3420.93 1727.79 3420.67 1727.14 3420.3 1726.52 3419.83 1725.91 3419.35 1725.3 3418.82 1724.8 3418.24 1724.42 3417.66 1724.04 3417.06 1723.79 3416.45 1723.69 3415.84 1723.58 3415.21 1723.62 3414.55 1723.81 3413.89 1723.99 3413.23 1724.34 3412.58 1724.85 3411.46 1725.73 3410.76 1726.77 3410.48 1727.97 3410.2 1729.17 3410.3 1730.52 3410.78 1732L3408.41 1733.86 3405.65 1730.33C3406.7 1728.49 3407.75 1726.91 3408.82 1725.61 3409.89 1724.31 3410.94 1723.25 3411.98 1722.44Z" fill-rule="evenodd"/><text fill="#000000" fill-opacity="0" font-family="Arial,Arial_MSFontService,sans-serif" font-size="32.5601" x="3405.65" y="1748.29">2</text><path d="M3398.53 1866.03C3397.66 1866.71 3396.77 1867.46 3395.85 1868.29L3403.85 1885 3406.76 1882.73C3409.14 1880.87 3410.76 1879.08 3411.64 1877.36 3412.52 1875.64 3412.79 1873.73 3412.45 1871.65 3412.11 1869.56 3411.28 1867.67 3409.96 1865.98 3409.4 1865.27 3408.85 1864.69 3408.29 1864.25 3407.73 1863.8 3407.2 1863.48 3406.7 1863.29 3406.2 1863.09 3405.68 1862.98 3405.14 1862.96 3404.59 1862.94 3403.99 1863.02 3403.34 1863.2 3402.69 1863.38 3402 1863.68 3401.28 1864.1 3400.56 1864.51 3399.65 1865.16 3398.53 1866.03ZM3386.97 1871.59 3397.92 1863.02C3399.66 1861.66 3401.16 1860.65 3402.42 1859.99 3403.68 1859.34 3404.86 1858.91 3405.96 1858.71 3407.06 1858.51 3408.12 1858.53 3409.16 1858.77 3410.19 1859 3411.15 1859.43 3412.05 1860.03 3412.95 1860.64 3413.76 1861.4 3414.48 1862.32 3416.45 1864.85 3417.36 1867.6 3417.21 1870.58 3417.05 1873.56 3415.83 1876.68 3413.55 1879.95L3413.76 1880.22C3415.01 1880.19 3416.2 1880.4 3417.33 1880.84 3418.45 1881.29 3419.73 1882.12 3421.17 1883.35L3423.97 1885.76C3424.86 1886.52 3425.7 1887.17 3426.5 1887.72 3427.29 1888.26 3428.01 1888.62 3428.67 1888.79 3429.32 1888.97 3429.93 1889.01 3430.5 1888.91 3431.07 1888.8 3431.79 1888.52 3432.67 1888.04L3433.36 1889.44 3426.55 1894.78C3424.88 1893.73 3423.05 1892.36 3421.06 1890.66L3415.9 1886.29C3415.01 1885.53 3414.2 1884.94 3413.46 1884.52 3412.73 1884.11 3412.05 1883.87 3411.43 1883.81 3410.82 1883.75 3410.23 1883.85 3409.68 1884.11 3409.13 1884.37 3408.52 1884.76 3407.85 1885.29L3405.04 1887.48 3409.43 1896.63C3409.78 1897.39 3410.07 1897.98 3410.31 1898.4 3410.55 1898.82 3410.81 1899.26 3411.1 1899.71 3411.38 1900.16 3411.66 1900.55 3411.91 1900.87 3412.31 1901.38 3412.7 1901.72 3413.09 1901.88 3413.48 1902.03 3413.89 1902.05 3414.32 1901.93 3414.75 1901.8 3415.4 1901.46 3416.25 1900.89L3416.93 1902.31 3406.81 1910.23 3406.14 1908.81C3406.68 1908.22 3407.03 1907.7 3407.17 1907.23 3407.3 1906.76 3407.32 1906.25 3407.23 1905.69 3407.14 1905.13 3406.96 1904.5 3406.69 1903.79 3406.43 1903.08 3405.84 1901.78 3404.93 1899.87L3394.29 1877.65C3393.36 1875.72 3392.53 1874.28 3391.79 1873.33 3391.16 1872.53 3390.53 1872.12 3389.91 1872.1 3389.29 1872.09 3388.53 1872.39 3387.64 1873.01Z" fill-rule="evenodd"/><text fill="#000000" fill-opacity="0" font-family="Arial,Arial_MSFontService,sans-serif" font-size="51.6522" x="3386.97" y="1903.77">𝑅</text><path d="M3419.51 1838.07C3420.77 1837.09 3421.95 1836.39 3423.05 1835.98 3424.16 1835.57 3425.18 1835.39 3426.11 1835.44 3427.04 1835.49 3427.9 1835.75 3428.67 1836.24 3429.45 1836.72 3430.14 1837.35 3430.75 1838.13 3431.12 1838.6 3431.43 1839.06 3431.68 1839.52 3431.93 1839.98 3432.13 1840.46 3432.27 1840.98 3432.41 1841.5 3432.51 1842.06 3432.55 1842.67 3432.6 1843.27 3432.6 1843.95 3432.55 1844.71 3432.55 1845.33 3432.51 1846.08 3432.42 1846.97 3432.34 1847.85 3432.23 1848.81 3432.11 1849.83 3431.99 1850.86 3431.87 1851.93 3431.73 1853.05 3431.59 1854.16 3431.47 1855.26 3431.36 1856.34 3431.25 1857.41 3431.18 1858.43 3431.14 1859.4 3431.09 1860.36 3431.11 1861.21 3431.17 1861.94L3437.86 1856.7C3438.42 1856.26 3438.86 1855.88 3439.16 1855.58 3439.47 1855.27 3439.67 1854.96 3439.78 1854.64 3439.89 1854.32 3439.91 1853.95 3439.84 1853.54 3439.76 1853.12 3439.62 1852.57 3439.42 1851.89L3441.1 1850.58C3441.71 1851.48 3442.33 1852.38 3442.96 1853.29 3443.58 1854.2 3444.2 1855.11 3444.81 1856.01L3429.5 1867.99 3428.76 1867.05C3428.54 1866.18 3428.38 1865.27 3428.27 1864.34 3428.16 1863.4 3428.09 1862.42 3428.06 1861.39 3428.04 1860.37 3428.06 1859.27 3428.13 1858.09 3428.2 1856.92 3428.32 1855.67 3428.48 1854.33 3428.73 1852.31 3428.89 1850.63 3428.98 1849.27 3429.06 1847.91 3429.06 1846.76 3428.98 1845.81 3428.9 1844.87 3428.73 1844.07 3428.47 1843.42 3428.2 1842.77 3427.83 1842.15 3427.36 1841.54 3426.88 1840.93 3426.35 1840.43 3425.77 1840.05 3425.19 1839.67 3424.6 1839.42 3423.99 1839.32 3423.38 1839.21 3422.74 1839.25 3422.08 1839.44 3421.42 1839.62 3420.77 1839.97 3420.12 1840.48 3419 1841.36 3418.3 1842.4 3418.01 1843.6 3417.73 1844.8 3417.83 1846.15 3418.31 1847.63L3415.95 1849.49 3413.19 1845.96C3414.23 1844.12 3415.29 1842.54 3416.36 1841.24 3417.42 1839.94 3418.48 1838.88 3419.51 1838.07Z" fill-rule="evenodd"/><text fill="#000000" fill-opacity="0" font-family="Arial,Arial_MSFontService,sans-serif" font-size="32.5601" x="3413.19" y="1863.92">2</text><path d="M3464.55 1839.16 3494.87 1815.43 3497.43 1818.7 3467.11 1842.43Z" fill-rule="evenodd"/><text fill="#000000" fill-opacity="0" font-family="Arial,Arial_MSFontService,sans-serif" font-size="27.0022" x="3464.55" y="1839.06">−</text><path d="M3511.55 1789.63C3512.58 1788.83 3513.67 1788.53 3514.8 1788.74 3515.93 1788.95 3516.93 1789.61 3517.79 1790.71 3518.43 1791.53 3518.93 1792.49 3519.3 1793.61L3519.72 1793.48C3519.62 1790.04 3519.91 1787.23 3520.6 1785.05 3521.29 1782.87 3522.4 1781.18 3523.92 1779.99 3525.12 1779.05 3526.19 1778.36 3527.14 1777.91L3530.27 1784.35 3527.74 1786.33C3527.1 1785.72 3526.54 1785.3 3526.07 1785.06 3525.59 1784.82 3525.17 1784.73 3524.81 1784.77 3524.45 1784.82 3524.08 1784.99 3523.7 1785.28 3523.11 1785.75 3522.67 1786.5 3522.37 1787.56 3522.07 1788.61 3521.91 1790.02 3521.89 1791.78 3521.86 1793.55 3521.99 1795.13 3522.25 1796.54 3522.52 1797.94 3523.08 1799.55 3523.95 1801.36L3529.95 1813.85 3525.69 1817.18 3517.05 1798.79C3516.51 1797.62 3516.06 1796.74 3515.7 1796.15 3515.34 1795.56 3515.02 1795.08 3514.74 1794.72 3514.22 1794.06 3513.75 1793.67 3513.3 1793.54 3512.86 1793.41 3512.4 1793.53 3511.95 1793.89 3511.44 1794.29 3511.06 1794.92 3510.82 1795.78 3510.59 1796.64 3510.4 1798.01 3510.28 1799.88L3507.8 1799.6C3508.08 1796.84 3508.46 1794.73 3508.96 1793.27 3509.46 1791.81 3510.32 1790.6 3511.55 1789.63Z" fill-rule="evenodd"/><text fill="#000000" fill-opacity="0" font-family="Arial,Arial_MSFontService,sans-serif" font-size="39.2693" x="3507.8" y="1812.27">𝑟</text><path d="M3529.54 1751.95C3530.79 1750.97 3531.97 1750.28 3533.08 1749.87 3534.19 1749.46 3535.21 1749.28 3536.14 1749.32 3537.07 1749.37 3537.92 1749.64 3538.7 1750.12 3539.47 1750.6 3540.17 1751.23 3540.78 1752.01 3541.15 1752.48 3541.46 1752.95 3541.71 1753.4 3541.96 1753.86 3542.15 1754.35 3542.3 1754.86 3542.44 1755.38 3542.54 1755.94 3542.58 1756.55 3542.63 1757.16 3542.63 1757.84 3542.58 1758.59 3542.58 1759.21 3542.54 1759.97 3542.45 1760.85 3542.36 1761.73 3542.26 1762.69 3542.14 1763.71 3542.02 1764.74 3541.9 1765.81 3541.76 1766.93 3541.62 1768.05 3541.5 1769.14 3541.39 1770.22 3541.28 1771.29 3541.21 1772.32 3541.16 1773.28 3541.12 1774.25 3541.13 1775.09 3541.2 1775.82L3547.88 1770.59C3548.45 1770.14 3548.89 1769.77 3549.19 1769.46 3549.49 1769.15 3549.7 1768.84 3549.81 1768.52 3549.92 1768.2 3549.94 1767.84 3549.86 1767.42 3549.79 1767 3549.65 1766.45 3549.45 1765.77L3551.13 1764.46C3551.74 1765.36 3552.36 1766.27 3552.98 1767.18 3553.61 1768.09 3554.23 1768.99 3554.83 1769.9L3539.53 1781.88 3538.79 1780.94C3538.57 1780.06 3538.41 1779.15 3538.3 1778.22 3538.19 1777.29 3538.12 1776.3 3538.09 1775.28 3538.07 1774.25 3538.09 1773.15 3538.16 1771.97 3538.23 1770.8 3538.35 1769.55 3538.51 1768.22 3538.76 1766.2 3538.92 1764.51 3539.01 1763.15 3539.09 1761.79 3539.09 1760.64 3539.01 1759.69 3538.93 1758.75 3538.76 1757.95 3538.49 1757.3 3538.23 1756.65 3537.86 1756.03 3537.39 1755.43 3536.91 1754.81 3536.38 1754.31 3535.8 1753.93 3535.22 1753.55 3534.62 1753.31 3534.02 1753.2 3533.41 1753.09 3532.77 1753.13 3532.11 1753.32 3531.45 1753.51 3530.8 1753.85 3530.15 1754.36 3529.03 1755.24 3528.32 1756.28 3528.04 1757.48 3527.76 1758.69 3527.86 1760.03 3528.34 1761.52L3525.98 1763.37 3523.22 1759.85C3524.26 1758 3525.32 1756.43 3526.38 1755.12 3527.45 1753.82 3528.51 1752.76 3529.54 1751.95Z" fill-rule="evenodd"/><text fill="#000000" fill-opacity="0" font-family="Arial,Arial_MSFontService,sans-serif" font-size="32.5601" x="3523.22" y="1777.81">2</text><path d="M3366.4 1861.94 3408.14 1829.27 3449.88 1796.6 3491.61 1763.94 3533.35 1731.27 3535.81 1734.42 3494.08 1767.09 3452.34 1799.75 3410.6 1832.42 3368.87 1865.09Z" fill-rule="evenodd"/></g></svg>