<svg width="1180" height="1350" xmlns="http://www.w3.org/2000/svg" xmlns:xlink="http://www.w3.org/1999/xlink" xml:space="preserve" overflow="hidden"><defs><radialGradient cx="133004" cy="139931" r="193056" fx="133004" fy="139931" gradientUnits="userSpaceOnUse" spreadMethod="pad" id="fill0" gradientTransform="scale(0.000360892 0.000360892)"><stop offset="0" stop-color="#649A3F"/><stop offset="0.23" stop-color="#649A3F"/><stop offset="0.69" stop-color="#548235"/><stop offset="0.97" stop-color="#4E7932"/><stop offset="1" stop-color="#4E7932"/></radialGradient><radialGradient cx="134389" cy="139931" r="194013" fx="134389" fy="139931" gradientUnits="userSpaceOnUse" spreadMethod="pad" id="fill1" gradientTransform="scale(0.000360892 0.000360892)"><stop offset="0" stop-color="#649A3F"/><stop offset="0.23" stop-color="#649A3F"/><stop offset="0.69" stop-color="#548235"/><stop offset="0.97" stop-color="#4E7932"/><stop offset="1" stop-color="#4E7932"/></radialGradient><radialGradient cx="134389" cy="139931" r="194013" fx="134389" fy="139931" gradientUnits="userSpaceOnUse" spreadMethod="pad" id="fill2" gradientTransform="scale(0.000360892 0.000360892)"><stop offset="0" stop-color="#649A3F"/><stop offset="0.23" stop-color="#649A3F"/><stop offset="0.69" stop-color="#548235"/><stop offset="0.97" stop-color="#4E7932"/><stop offset="1" stop-color="#4E7932"/></radialGradient><radialGradient cx="83127.5" cy="87283.5" r="120535" fx="83127.5" fy="87283.5" gradientUnits="userSpaceOnUse" spreadMethod="pad" id="fill3" gradientTransform="scale(0.000360892 0.000360892)"><stop offset="0" stop-color="#3864B3"/><stop offset="0.23" stop-color="#3864B3"/><stop offset="0.69" stop-color="#2F5597"/><stop offset="0.97" stop-color="#2C4F8C"/><stop offset="1" stop-color="#2C4F8C"/></radialGradient></defs><g transform="translate(-3282 658)"><path d="M0 0 545.942 997.796" stroke="#000000" stroke-width="41.25" stroke-miterlimit="8" fill="none" fill-rule="evenodd" transform="matrix(1 0 0 -1 3321.5 360.296)"/><path d="M4437.57 360.297 3852.5-637.5" stroke="#000000" stroke-width="41.25" stroke-miterlimit="8" fill="none" fill-rule="evenodd"/><path d="M0 0 1116.62 0.000360892" stroke="#000000" stroke-width="41.25" stroke-miterlimit="8" fill="none" fill-rule="evenodd" transform="matrix(-1 0 0 1 4438.12 347.5)"/><path d="M0 50.5C-6.11103e-15 22.6096 21.4903-6.42933e-15 48-1.28587e-14 74.5096-2.57173e-14 95.9999 22.6096 95.9999 50.5 95.9999 78.3904 74.5096 101 48 101 21.4903 101-3.05552e-14 78.3904 0 50.5Z" stroke="#000000" stroke-width="5.72917" stroke-miterlimit="8" fill="url(#fill0)" fill-rule="evenodd" transform="matrix(-1 0 0 1 3617 -177)"/><path d="M0 50.5C-6.17469e-15 22.6096 21.7142-6.42933e-15 48.5-1.28587e-14 75.2858-2.57173e-14 96.9999 22.6096 96.9999 50.5 96.9999 78.3904 75.2858 101 48.5 101 21.7142 101-3.08735e-14 78.3904 0 50.5Z" stroke="#000000" stroke-width="5.72917" stroke-miterlimit="8" fill="url(#fill1)" fill-rule="evenodd" transform="matrix(-1 0 0 1 4176 -177)"/><path d="M0 50.5C-6.17469e-15 22.6096 21.7142-6.42933e-15 48.5-1.28587e-14 75.2858-2.57173e-14 96.9999 22.6096 96.9999 50.5 96.9999 78.3904 75.2858 101 48.5 101 21.7142 101-3.08735e-14 78.3904 0 50.5Z" stroke="#000000" stroke-width="5.72917" stroke-miterlimit="8" fill="url(#fill2)" fill-rule="evenodd" transform="matrix(-1 0 0 1 3901 309)"/><path d="M3372.43-100.552 3376.12-100.552 3360.74-31.3649C3359.83-27.2399 3359.37-24.1565 3359.37-22.1149 3359.37-20.4482 3359.64-19.2399 3360.18-18.4899 3360.72-17.7399 3361.58-17.3649 3362.74-17.3649 3363.99-17.3649 3365.33-17.8753 3366.74-18.8961 3368.16-19.917 3370.16-21.8649 3372.74-24.7399L3376.3-21.2399C3372.26-16.9899 3368.96-14.0836 3366.4-12.5211 3363.84-10.9586 3360.97-10.1774 3357.8-10.1774 3355.1-10.1774 3352.93-11.167 3351.3-13.1461 3349.68-15.1253 3348.87-17.6565 3348.87-20.7399 3348.87-23.5315 3349.45-27.5732 3350.62-32.8649L3361.8-82.9274C3362.3-85.1357 3362.66-86.8961 3362.87-88.2086 3363.08-89.5211 3363.18-90.7399 3363.18-91.8649 3363.18-93.1149 3362.95-94.0628 3362.49-94.7086 3362.03-95.3545 3361.38-95.8232 3360.52-96.1149 3359.67-96.4065 3358.14-96.6149 3355.93-96.7399L3356.68-99.9899Z" fill-rule="evenodd"/><text fill="#000000" fill-opacity="0" font-family="Arial,Arial_MSFontService,sans-serif" font-size="90.375" x="3348.87" y="-21.4743">𝑙</text><path d="M3365.42 126.789C3363.38 126.789 3361.41 127.018 3359.52 127.477 3357.62 127.935 3355.84 128.602 3354.17 129.477 3352.51 130.352 3350.88 131.456 3349.3 132.789 3348.8 133.248 3348.42 133.727 3348.17 134.227 3347.76 135.018 3347.49 135.998 3347.36 137.164 3347.24 138.331 3347.17 140.289 3347.17 143.039 3347.17 150.998 3348.51 157.06 3351.17 161.227 3353.84 165.393 3357.88 167.477 3363.3 167.477 3366.42 167.477 3369.05 166.935 3371.17 165.852 3373.3 164.768 3375.02 163.279 3376.33 161.383 3377.64 159.487 3378.58 157.258 3379.14 154.696 3379.7 152.133 3379.99 149.352 3379.99 146.352 3379.99 140.185 3378.72 135.383 3376.17 131.946 3373.63 128.508 3370.05 126.789 3365.42 126.789ZM3381.49 85.4768 3384.05 88.9143 3384.05 91.9768C3377.63 91.9768 3371.94 93.3518 3366.99 96.1018 3362.03 98.8518 3357.91 102.893 3354.64 108.227 3351.37 113.56 3349.07 119.893 3347.74 127.227L3348.36 127.477C3351.86 124.977 3355.31 123.143 3358.7 121.977 3362.1 120.81 3365.78 120.227 3369.74 120.227 3374.44 120.227 3378.45 121.258 3381.77 123.321 3385.08 125.383 3387.57 128.279 3389.24 132.008 3390.9 135.737 3391.74 140.102 3391.74 145.102 3391.74 150.518 3390.69 155.3 3388.61 159.446 3386.53 163.591 3383.31 166.852 3378.95 169.227 3374.6 171.602 3369.24 172.789 3362.86 172.789 3353.74 172.789 3346.85 169.956 3342.2 164.289 3337.56 158.623 3335.24 150.268 3335.24 139.227 3335.24 131.81 3336.4 124.873 3338.74 118.414 3341.07 111.956 3344.38 106.321 3348.67 101.508 3352.97 96.6955 3357.94 92.9039 3363.61 90.133 3369.28 87.3622 3375.24 85.8101 3381.49 85.4768Z" fill-rule="evenodd"/><text fill="#000000" fill-opacity="0" font-family="Arial,Arial_MSFontService,sans-serif" font-size="87.3125" x="3335.24" y="161.875">6</text><path d="M3327.58 44.9455 3363.08 44.9455 3398.58 44.9455 3398.58 52.9455 3363.08 52.9455 3327.58 52.9455Z" fill-rule="evenodd"/><path d="M3649.76-585.223 3653.45-585.223 3638.07-516.035C3637.16-511.91 3636.7-508.827 3636.7-506.785 3636.7-505.119 3636.97-503.91 3637.51-503.16 3638.05-502.41 3638.91-502.035 3640.07-502.035 3641.32-502.035 3642.66-502.546 3644.07-503.567 3645.49-504.587 3647.49-506.535 3650.07-509.41L3653.64-505.91C3649.59-501.66 3646.29-498.754 3643.73-497.192 3641.17-495.629 3638.3-494.848 3635.14-494.848 3632.43-494.848 3630.26-495.837 3628.64-497.817 3627.01-499.796 3626.2-502.327 3626.2-505.41 3626.2-508.202 3626.78-512.244 3627.95-517.535L3639.14-567.598C3639.64-569.806 3639.99-571.567 3640.2-572.879 3640.41-574.192 3640.51-575.41 3640.51-576.535 3640.51-577.785 3640.28-578.733 3639.82-579.379 3639.36-580.025 3638.71-580.494 3637.85-580.785 3637-581.077 3635.47-581.285 3633.26-581.41L3634.01-584.66Z" fill-rule="evenodd"/><text fill="#000000" fill-opacity="0" font-family="Arial,Arial_MSFontService,sans-serif" font-size="90.375" x="3626.2" y="-506.145">𝑙</text><path d="M3642.75-357.881C3640.71-357.881 3638.74-357.652 3636.85-357.194 3634.95-356.735 3633.17-356.069 3631.5-355.194 3629.84-354.319 3628.21-353.215 3626.63-351.881 3626.13-351.423 3625.75-350.944 3625.5-350.444 3625.09-349.652 3624.82-348.673 3624.69-347.506 3624.57-346.34 3624.5-344.381 3624.5-341.631 3624.5-333.673 3625.84-327.61 3628.5-323.444 3631.17-319.277 3635.21-317.194 3640.63-317.194 3643.75-317.194 3646.38-317.735 3648.5-318.819 3650.63-319.902 3652.35-321.392 3653.66-323.287 3654.97-325.183 3655.91-327.412 3656.47-329.975 3657.03-332.537 3657.32-335.319 3657.32-338.319 3657.32-344.485 3656.05-349.287 3653.5-352.725 3650.96-356.162 3647.38-357.881 3642.75-357.881ZM3658.82-399.194 3661.38-395.756 3661.38-392.694C3654.96-392.694 3649.27-391.319 3644.32-388.569 3639.36-385.819 3635.24-381.777 3631.97-376.444 3628.7-371.11 3626.4-364.777 3625.07-357.444L3625.69-357.194C3629.19-359.694 3632.64-361.527 3636.03-362.694 3639.43-363.86 3643.11-364.444 3647.07-364.444 3651.77-364.444 3655.78-363.412 3659.1-361.35 3662.41-359.287 3664.9-356.392 3666.57-352.662 3668.23-348.933 3669.07-344.569 3669.07-339.569 3669.07-334.152 3668.02-329.371 3665.94-325.225 3663.86-321.079 3660.64-317.819 3656.28-315.444 3651.93-313.069 3646.57-311.881 3640.19-311.881 3631.07-311.881 3624.18-314.715 3619.53-320.381 3614.89-326.048 3612.57-334.402 3612.57-345.444 3612.57-352.86 3613.73-359.798 3616.07-366.256 3618.4-372.715 3621.71-378.35 3626-383.162 3630.3-387.975 3635.27-391.767 3640.94-394.537 3646.61-397.308 3652.57-398.86 3658.82-399.194Z" fill-rule="evenodd"/><text fill="#000000" fill-opacity="0" font-family="Arial,Arial_MSFontService,sans-serif" font-size="87.3125" x="3612.57" y="-322.795">6</text><path d="M3604.91-439.725 3640.41-439.725 3675.91-439.725 3675.91-431.725 3640.41-431.725 3604.91-431.725Z" fill-rule="evenodd"/><path d="M4111.43-567.563 4115.11-567.563 4099.74-498.376C4098.82-494.251 4098.36-491.168 4098.36-489.126 4098.36-487.459 4098.63-486.251 4099.18-485.501 4099.72-484.751 4100.57-484.376 4101.74-484.376 4102.99-484.376 4104.32-484.886 4105.74-485.907 4107.15-486.928 4109.15-488.876 4111.74-491.751L4115.3-488.251C4111.26-484.001 4107.96-481.095 4105.39-479.532 4102.83-477.97 4099.97-477.188 4096.8-477.188 4094.09-477.188 4091.93-478.178 4090.3-480.157 4088.68-482.136 4087.86-484.668 4087.86-487.751 4087.86-490.543 4088.45-494.584 4089.61-499.876L4100.8-549.938C4101.3-552.147 4101.65-553.907 4101.86-555.22 4102.07-556.532 4102.18-557.751 4102.18-558.876 4102.18-560.126 4101.95-561.074 4101.49-561.72 4101.03-562.365 4100.37-562.834 4099.52-563.126 4098.67-563.417 4097.13-563.626 4094.93-563.751L4095.68-567.001Z" fill-rule="evenodd"/><text fill="#000000" fill-opacity="0" font-family="Arial,Arial_MSFontService,sans-serif" font-size="90.375" x="4087.86" y="-488.485">𝑙</text><path d="M4104.42-340.222C4102.38-340.222 4100.41-339.992 4098.51-339.534 4096.62-339.076 4094.84-338.409 4093.17-337.534 4091.5-336.659 4089.88-335.555 4088.29-334.222 4087.79-333.763 4087.42-333.284 4087.17-332.784 4086.75-331.992 4086.48-331.013 4086.36-329.847 4086.23-328.68 4086.17-326.722 4086.17-323.972 4086.17-316.013 4087.5-309.951 4090.17-305.784 4092.84-301.618 4096.88-299.534 4102.29-299.534 4105.42-299.534 4108.04-300.076 4110.17-301.159 4112.29-302.243 4114.01-303.732 4115.33-305.628 4116.64-307.524 4117.58-309.753 4118.14-312.315 4118.7-314.878 4118.98-317.659 4118.98-320.659 4118.98-326.826 4117.71-331.628 4115.17-335.065 4112.63-338.503 4109.04-340.222 4104.42-340.222ZM4120.48-381.534 4123.04-378.097 4123.04-375.034C4116.63-375.034 4110.94-373.659 4105.98-370.909 4101.02-368.159 4096.91-364.117 4093.64-358.784 4090.37-353.451 4088.06-347.117 4086.73-339.784L4087.36-339.534C4090.86-342.034 4094.3-343.867 4097.7-345.034 4101.1-346.201 4104.77-346.784 4108.73-346.784 4113.44-346.784 4117.45-345.753 4120.76-343.69 4124.08-341.628 4126.56-338.732 4128.23-335.003 4129.9-331.274 4130.73-326.909 4130.73-321.909 4130.73-316.493 4129.69-311.711 4127.61-307.565 4125.52-303.42 4122.3-300.159 4117.95-297.784 4113.6-295.409 4108.23-294.222 4101.86-294.222 4092.73-294.222 4085.85-297.055 4081.2-302.722 4076.55-308.388 4074.23-316.743 4074.23-327.784 4074.23-335.201 4075.4-342.138 4077.73-348.597 4080.06-355.055 4083.38-360.69 4087.67-365.503 4091.96-370.315 4096.94-374.107 4102.61-376.878 4108.27-379.649 4114.23-381.201 4120.48-381.534Z" fill-rule="evenodd"/><text fill="#000000" fill-opacity="0" font-family="Arial,Arial_MSFontService,sans-serif" font-size="87.3125" x="4074.23" y="-305.136">6</text><path d="M4066.57-422.065 4102.07-422.065 4137.57-422.065 4137.57-414.065 4102.07-414.065 4066.57-414.065Z" fill-rule="evenodd"/><path d="M4391.08-100.553 4394.76-100.553 4379.39-31.3652C4378.47-27.2402 4378.01-24.1569 4378.01-22.1152 4378.01-20.4486 4378.28-19.2402 4378.83-18.4902 4379.37-17.7402 4380.22-17.3652 4381.39-17.3652 4382.64-17.3652 4383.97-17.8757 4385.39-18.8965 4386.8-19.9173 4388.8-21.8652 4391.39-24.7402L4394.95-21.2402C4390.91-16.9902 4387.61-14.084 4385.04-12.5215 4382.48-10.959 4379.62-10.1777 4376.45-10.1777 4373.74-10.1777 4371.58-11.1673 4369.95-13.1465 4368.33-15.1257 4367.51-17.6569 4367.51-20.7402 4367.51-23.5319 4368.1-27.5736 4369.26-32.8652L4380.45-82.9277C4380.95-85.1361 4381.3-86.8965 4381.51-88.209 4381.72-89.5215 4381.83-90.7402 4381.83-91.8652 4381.83-93.1152 4381.6-94.0631 4381.14-94.709 4380.68-95.3548 4380.02-95.8236 4379.17-96.1152 4378.32-96.4069 4376.78-96.6152 4374.58-96.7402L4375.33-99.9902Z" fill-rule="evenodd"/><text fill="#000000" fill-opacity="0" font-family="Arial,Arial_MSFontService,sans-serif" font-size="90.375" x="4367.51" y="-21.4746">𝑙</text><path d="M4384.07 126.789C4382.03 126.789 4380.06 127.018 4378.16 127.476 4376.27 127.935 4374.49 128.601 4372.82 129.476 4371.15 130.351 4369.53 131.456 4367.94 132.789 4367.44 133.247 4367.07 133.726 4366.82 134.226 4366.4 135.018 4366.13 135.997 4366.01 137.164 4365.88 138.331 4365.82 140.289 4365.82 143.039 4365.82 150.997 4367.15 157.06 4369.82 161.226 4372.49 165.393 4376.53 167.476 4381.94 167.476 4385.07 167.476 4387.69 166.935 4389.82 165.851 4391.94 164.768 4393.66 163.279 4394.98 161.383 4396.29 159.487 4397.23 157.258 4397.79 154.695 4398.35 152.133 4398.63 149.351 4398.63 146.351 4398.63 140.185 4397.36 135.383 4394.82 131.945 4392.28 128.508 4388.69 126.789 4384.07 126.789ZM4400.13 85.4764 4402.69 88.9139 4402.69 91.9764C4396.28 91.9764 4390.59 93.3514 4385.63 96.1014 4380.67 98.8514 4376.56 102.893 4373.29 108.226 4370.02 113.56 4367.72 119.893 4366.38 127.226L4367.01 127.476C4370.51 124.976 4373.95 123.143 4377.35 121.976 4380.75 120.81 4384.42 120.226 4388.38 120.226 4393.09 120.226 4397.1 121.258 4400.41 123.32 4403.73 125.383 4406.22 128.279 4407.88 132.008 4409.55 135.737 4410.38 140.101 4410.38 145.101 4410.38 150.518 4409.34 155.299 4407.26 159.445 4405.17 163.591 4401.95 166.851 4397.6 169.226 4393.25 171.601 4387.88 172.789 4381.51 172.789 4372.38 172.789 4365.5 169.956 4360.85 164.289 4356.2 158.622 4353.88 150.268 4353.88 139.226 4353.88 131.81 4355.05 124.872 4357.38 118.414 4359.72 111.956 4363.03 106.32 4367.32 101.508 4371.61 96.6952 4376.59 92.9035 4382.26 90.1327 4387.92 87.3618 4393.88 85.8098 4400.13 85.4764Z" fill-rule="evenodd"/><text fill="#000000" fill-opacity="0" font-family="Arial,Arial_MSFontService,sans-serif" font-size="87.3125" x="4353.88" y="161.875">6</text><path d="M4346.22 44.9452 4381.72 44.9452 4417.22 44.9452 4417.22 52.9452 4381.72 52.9452 4346.22 52.9452Z" fill-rule="evenodd"/><path d="M3572.09 416.924 3575.78 416.924 3560.41 486.111C3559.49 490.236 3559.03 493.319 3559.03 495.361 3559.03 497.028 3559.3 498.236 3559.84 498.986 3560.38 499.736 3561.24 500.111 3562.41 500.111 3563.66 500.111 3564.99 499.601 3566.41 498.58 3567.82 497.559 3569.82 495.611 3572.41 492.736L3575.97 496.236C3571.93 500.486 3568.62 503.392 3566.06 504.955 3563.5 506.517 3560.63 507.299 3557.47 507.299 3554.76 507.299 3552.59 506.309 3550.97 504.33 3549.34 502.351 3548.53 499.819 3548.53 496.736 3548.53 493.944 3549.11 489.903 3550.28 484.611L3561.47 434.549C3561.97 432.34 3562.32 430.58 3562.53 429.267 3562.74 427.955 3562.84 426.736 3562.84 425.611 3562.84 424.361 3562.61 423.413 3562.16 422.767 3561.7 422.122 3561.04 421.653 3560.19 421.361 3559.33 421.069 3557.8 420.861 3555.59 420.736L3556.34 417.486Z" fill-rule="evenodd"/><text fill="#000000" fill-opacity="0" font-family="Arial,Arial_MSFontService,sans-serif" font-size="90.375" x="3548.53" y="496.002">𝑙</text><path d="M3565.09 644.265C3563.04 644.265 3561.08 644.494 3559.18 644.953 3557.28 645.411 3555.5 646.078 3553.84 646.953 3552.17 647.828 3550.54 648.932 3548.96 650.265 3548.46 650.724 3548.09 651.203 3547.84 651.703 3547.42 652.494 3547.15 653.474 3547.02 654.64 3546.9 655.807 3546.84 657.765 3546.84 660.515 3546.84 668.474 3548.17 674.536 3550.84 678.703 3553.5 682.869 3557.54 684.953 3562.96 684.953 3566.09 684.953 3568.71 684.411 3570.84 683.328 3572.96 682.244 3574.68 680.755 3575.99 678.859 3577.31 676.963 3578.24 674.734 3578.81 672.172 3579.37 669.609 3579.65 666.828 3579.65 663.828 3579.65 657.661 3578.38 652.859 3575.84 649.422 3573.29 645.984 3569.71 644.265 3565.09 644.265ZM3581.15 602.953 3583.71 606.39 3583.71 609.453C3577.29 609.453 3571.61 610.828 3566.65 613.578 3561.69 616.328 3557.58 620.369 3554.31 625.703 3551.03 631.036 3548.73 637.369 3547.4 644.703L3548.02 644.953C3551.52 642.453 3554.97 640.619 3558.37 639.453 3561.76 638.286 3565.44 637.703 3569.4 637.703 3574.11 637.703 3578.12 638.734 3581.43 640.797 3584.74 642.859 3587.23 645.755 3588.9 649.484 3590.57 653.213 3591.4 657.578 3591.4 662.578 3591.4 667.994 3590.36 672.776 3588.27 676.922 3586.19 681.067 3582.97 684.328 3578.62 686.703 3574.26 689.078 3568.9 690.265 3562.52 690.265 3553.4 690.265 3546.51 687.432 3541.87 681.765 3537.22 676.099 3534.9 667.744 3534.9 656.703 3534.9 649.286 3536.07 642.349 3538.4 635.89 3540.73 629.432 3544.04 623.797 3548.34 618.984 3552.63 614.172 3557.61 610.38 3563.27 607.609 3568.94 604.838 3574.9 603.286 3581.15 602.953Z" fill-rule="evenodd"/><text fill="#000000" fill-opacity="0" font-family="Arial,Arial_MSFontService,sans-serif" font-size="87.3125" x="3534.9" y="679.351">6</text><path d="M3527.24 562.422 3562.74 562.422 3598.24 562.422 3598.24 570.422 3562.74 570.422 3527.24 570.422Z" fill-rule="evenodd"/><path d="M4266.41 394.906 4270.1 394.906 4254.72 464.093C4253.81 468.218 4253.35 471.302 4253.35 473.343 4253.35 475.01 4253.62 476.218 4254.16 476.968 4254.7 477.718 4255.56 478.093 4256.72 478.093 4257.97 478.093 4259.31 477.583 4260.72 476.562 4262.14 475.541 4264.14 473.593 4266.72 470.718L4270.29 474.218C4266.24 478.468 4262.94 481.375 4260.38 482.937 4257.82 484.5 4254.95 485.281 4251.79 485.281 4249.08 485.281 4246.91 484.291 4245.29 482.312 4243.66 480.333 4242.85 477.802 4242.85 474.718 4242.85 471.927 4243.43 467.885 4244.6 462.593L4255.79 412.531C4256.29 410.323 4256.64 408.562 4256.85 407.25 4257.06 405.937 4257.16 404.718 4257.16 403.593 4257.16 402.343 4256.93 401.396 4256.47 400.75 4256.01 400.104 4255.36 399.635 4254.5 399.343 4253.65 399.052 4252.12 398.843 4249.91 398.718L4250.66 395.468Z" fill-rule="evenodd"/><text fill="#000000" fill-opacity="0" font-family="Arial,Arial_MSFontService,sans-serif" font-size="90.375" x="4242.85" y="473.984">𝑙</text><path d="M4259.4 622.248C4257.36 622.248 4255.39 622.477 4253.5 622.935 4251.6 623.393 4249.82 624.06 4248.15 624.935 4246.49 625.81 4244.86 626.914 4243.28 628.248 4242.78 628.706 4242.4 629.185 4242.15 629.685 4241.74 630.477 4241.47 631.456 4241.34 632.623 4241.22 633.789 4241.15 635.748 4241.15 638.498 4241.15 646.456 4242.49 652.518 4245.15 656.685 4247.82 660.852 4251.86 662.935 4257.28 662.935 4260.4 662.935 4263.03 662.393 4265.15 661.31 4267.28 660.227 4269 658.737 4270.31 656.841 4271.62 654.946 4272.56 652.716 4273.12 650.154 4273.69 647.591 4273.97 644.81 4273.97 641.81 4273.97 635.643 4272.7 630.841 4270.15 627.404 4267.61 623.966 4264.03 622.248 4259.4 622.248ZM4275.47 580.935 4278.03 584.373 4278.03 587.435C4271.61 587.435 4265.93 588.81 4260.97 591.56 4256.01 594.31 4251.89 598.352 4248.62 603.685 4245.35 609.018 4243.05 615.352 4241.72 622.685L4242.34 622.935C4245.84 620.435 4249.29 618.602 4252.69 617.435 4256.08 616.268 4259.76 615.685 4263.72 615.685 4268.43 615.685 4272.44 616.716 4275.75 618.779 4279.06 620.841 4281.55 623.737 4283.22 627.466 4284.88 631.196 4285.72 635.56 4285.72 640.56 4285.72 645.977 4284.68 650.758 4282.59 654.904 4280.51 659.05 4277.29 662.31 4272.94 664.685 4268.58 667.06 4263.22 668.248 4256.84 668.248 4247.72 668.248 4240.83 665.414 4236.19 659.748 4231.54 654.081 4229.22 645.727 4229.22 634.685 4229.22 627.268 4230.38 620.331 4232.72 613.873 4235.05 607.414 4238.36 601.779 4242.65 596.966 4246.95 592.154 4251.93 588.362 4257.59 585.591 4263.26 582.821 4269.22 581.268 4275.47 580.935Z" fill-rule="evenodd"/><text fill="#000000" fill-opacity="0" font-family="Arial,Arial_MSFontService,sans-serif" font-size="87.3125" x="4229.22" y="657.334">6</text><path d="M4221.56 540.404 4257.06 540.404 4292.56 540.404 4292.56 548.404 4257.06 548.404 4221.56 548.404Z" fill-rule="evenodd"/><path d="M0 0 14.396 904.961" stroke="#000000" stroke-width="9.16667" stroke-miterlimit="8" stroke-dasharray="36.6667 27.5" fill="none" fill-rule="evenodd" transform="matrix(-1 0 0 1 3866.9 -588.5)"/><path d="M0 0 719.195 467.361" stroke="#000000" stroke-width="9.16667" stroke-miterlimit="8" stroke-dasharray="36.6667 27.5" fill="none" fill-rule="evenodd" transform="matrix(1 0 0 -1 3360.5 340.861)"/><path d="M4432.37 347.286 3617.5-126.5" stroke="#000000" stroke-width="9.16667" stroke-miterlimit="8" stroke-dasharray="36.6667 27.5" fill="none" fill-rule="evenodd"/><path d="M0 31.4999C-3.81941e-15 14.103 13.4315-4.01036e-15 30.0001-8.02073e-15 46.5687-1.60415e-14 60.0002 14.103 60.0002 31.4999 60.0002 48.8969 46.5687 62.9999 30.0001 62.9999 13.4315 62.9999-1.90971e-14 48.8969 0 31.4999Z" stroke="#000000" stroke-width="5.72917" stroke-miterlimit="8" fill="url(#fill3)" fill-rule="evenodd" transform="matrix(-1 0 0 1 3887 -17.9999)"/><path d="M3934.07 118.557 3935.91 118.557 3928.22 153.151C3927.77 155.213 3927.54 156.755 3927.54 157.776 3927.54 158.609 3927.67 159.213 3927.94 159.588 3928.21 159.963 3928.64 160.151 3929.22 160.151 3929.85 160.151 3930.52 159.896 3931.22 159.385 3931.93 158.875 3932.93 157.901 3934.22 156.463L3936.01 158.213C3933.98 160.338 3932.33 161.791 3931.05 162.573 3929.77 163.354 3928.34 163.745 3926.76 163.745 3925.4 163.745 3924.32 163.25 3923.51 162.26 3922.69 161.271 3922.29 160.005 3922.29 158.463 3922.29 157.068 3922.58 155.047 3923.16 152.401L3928.76 127.37C3929.01 126.265 3929.18 125.385 3929.29 124.729 3929.39 124.073 3929.44 123.463 3929.44 122.901 3929.44 122.276 3929.33 121.802 3929.1 121.479 3928.87 121.156 3928.54 120.922 3928.11 120.776 3927.69 120.63 3926.92 120.526 3925.82 120.463L3926.19 118.838Z" fill-rule="evenodd"/><text fill="#000000" fill-opacity="0" font-family="Arial,Arial_MSFontService,sans-serif" font-size="45.1875" x="3922.29" y="158.096">𝑙</text><path d="M3891.59 241.784C3890.57 241.784 3889.59 241.899 3888.64 242.128 3887.69 242.357 3886.8 242.69 3885.97 243.128 3885.14 243.565 3884.32 244.118 3883.53 244.784 3883.28 245.013 3883.09 245.253 3882.97 245.503 3882.76 245.899 3882.63 246.388 3882.56 246.972 3882.5 247.555 3882.47 248.534 3882.47 249.909 3882.47 253.888 3883.14 256.92 3884.47 259.003 3885.8 261.086 3887.82 262.128 3890.53 262.128 3892.09 262.128 3893.41 261.857 3894.47 261.315 3895.53 260.774 3896.39 260.029 3897.05 259.081 3897.7 258.133 3898.17 257.019 3898.45 255.737 3898.74 254.456 3898.88 253.065 3898.88 251.565 3898.88 248.482 3898.24 246.081 3896.97 244.362 3895.7 242.644 3893.91 241.784 3891.59 241.784ZM3899.63 221.128 3900.91 222.847 3900.91 224.378C3897.7 224.378 3894.86 225.065 3892.38 226.44 3889.9 227.815 3887.84 229.836 3886.2 232.503 3884.57 235.17 3883.42 238.336 3882.75 242.003L3883.06 242.128C3884.81 240.878 3886.54 239.961 3888.24 239.378 3889.93 238.795 3891.77 238.503 3893.75 238.503 3896.11 238.503 3898.11 239.019 3899.77 240.05 3901.42 241.081 3902.67 242.529 3903.5 244.394 3904.33 246.258 3904.75 248.44 3904.75 250.94 3904.75 253.649 3904.23 256.039 3903.19 258.112 3902.15 260.185 3900.54 261.815 3898.36 263.003 3896.18 264.19 3893.5 264.784 3890.31 264.784 3885.75 264.784 3882.31 263.368 3879.99 260.534 3877.66 257.701 3876.5 253.524 3876.5 248.003 3876.5 244.295 3877.08 240.826 3878.25 237.597 3879.42 234.368 3881.07 231.55 3883.22 229.144 3885.37 226.737 3887.86 224.841 3890.69 223.456 3893.52 222.071 3896.5 221.295 3899.63 221.128Z" fill-rule="evenodd"/><text fill="#000000" fill-opacity="0" font-family="Arial,Arial_MSFontService,sans-serif" font-size="43.6562" x="3876.5" y="259.327">6</text><path d="M3949.96 207.795 3985.96 207.795 3985.96 211.795 3953.74 211.795 3953.74 212.184 3948.08 212.184 3931.27 269.622 3928.24 269.622 3915.3 241.809 3910.02 244.153 3909.05 241.809 3919.3 237.122 3930.33 261.372 3945.77 208.028 3949.96 208.028Z" fill-rule="evenodd"/><path d="M3967.95 221.128C3970.3 221.128 3972.36 221.493 3974.13 222.222 3975.91 222.951 3977.26 223.998 3978.2 225.362 3979.13 226.727 3979.6 228.357 3979.6 230.253 3979.6 232.024 3979.25 233.581 3978.54 234.925 3977.83 236.269 3976.84 237.44 3975.56 238.44 3974.28 239.44 3972.61 240.42 3970.57 241.378L3970.57 241.659C3971.84 241.888 3973.07 242.279 3974.24 242.831 3975.42 243.383 3976.47 244.097 3977.38 244.972 3978.3 245.847 3979.04 246.894 3979.59 248.112 3980.14 249.331 3980.42 250.722 3980.42 252.284 3980.42 254.701 3979.89 256.847 3978.84 258.722 3977.79 260.597 3976.18 262.076 3974.01 263.159 3971.84 264.243 3969.21 264.784 3966.1 264.784 3964.31 264.784 3962.38 264.581 3960.31 264.175 3958.23 263.769 3956.33 263.232 3954.6 262.565L3954.6 255.94 3958.35 255.94C3959.08 258.107 3960.05 259.68 3961.24 260.659 3962.44 261.638 3964.07 262.128 3966.13 262.128 3968.84 262.128 3970.89 261.388 3972.28 259.909 3973.66 258.43 3974.35 256.243 3974.35 253.347 3974.35 250.305 3973.44 247.982 3971.6 246.378 3969.77 244.774 3967.08 243.972 3963.54 243.972L3960.73 243.972 3960.73 241.222C3963.54 241.055 3965.91 240.513 3967.84 239.597 3969.76 238.68 3971.2 237.503 3972.13 236.065 3973.07 234.628 3973.54 233.013 3973.54 231.222 3973.54 228.909 3972.93 227.128 3971.7 225.878 3970.47 224.628 3968.68 224.003 3966.32 224.003 3964.36 224.003 3962.77 224.534 3961.54 225.597 3960.31 226.659 3959.41 228.284 3958.82 230.472L3955.07 230.472 3955.07 224.534C3957.49 223.388 3959.75 222.534 3961.85 221.972 3963.96 221.409 3965.99 221.128 3967.95 221.128Z" fill-rule="evenodd"/><text fill="#000000" fill-opacity="0" font-family="Arial,Arial_MSFontService,sans-serif" font-size="43.6562" x="3954.6" y="259.327">3</text><path d="M3871.96 191.795 3909.63 191.795 3947.3 191.795 3984.96 191.795 3984.96 195.795 3947.3 195.795 3909.63 195.795 3871.96 195.795Z" fill-rule="evenodd"/></g></svg>