<svg width="1336" height="1417" xmlns="http://www.w3.org/2000/svg" xmlns:xlink="http://www.w3.org/1999/xlink" xml:space="preserve" overflow="hidden"><defs><radialGradient cx="133004" cy="139931" r="193056" fx="133004" fy="139931" gradientUnits="userSpaceOnUse" spreadMethod="pad" id="fill0" gradientTransform="scale(0.000360892 0.000360892)"><stop offset="0" stop-color="#649A3F"/><stop offset="0.23" stop-color="#649A3F"/><stop offset="0.69" stop-color="#548235"/><stop offset="0.97" stop-color="#4E7932"/><stop offset="1" stop-color="#4E7932"/></radialGradient><radialGradient cx="133004" cy="139931" r="193056" fx="133004" fy="139931" gradientUnits="userSpaceOnUse" spreadMethod="pad" id="fill1" gradientTransform="scale(0.000360892 0.000360892)"><stop offset="0" stop-color="#649A3F"/><stop offset="0.23" stop-color="#649A3F"/><stop offset="0.69" stop-color="#548235"/><stop offset="0.97" stop-color="#4E7932"/><stop offset="1" stop-color="#4E7932"/></radialGradient><radialGradient cx="133004" cy="139931" r="193056" fx="133004" fy="139931" gradientUnits="userSpaceOnUse" spreadMethod="pad" id="fill2" gradientTransform="scale(0.000360892 0.000360892)"><stop offset="0" stop-color="#3864B3"/><stop offset="0.23" stop-color="#3864B3"/><stop offset="0.69" stop-color="#2F5597"/><stop offset="0.97" stop-color="#2C4F8C"/><stop offset="1" stop-color="#2C4F8C"/></radialGradient></defs><g transform="translate(46 -38)"><path d="M0 0 0.000360892 1048.14" stroke="#000000" stroke-width="41.25" stroke-miterlimit="8" fill="none" fill-rule="evenodd" transform="matrix(1 0 0 -1 143.5 1454.64)"/><path d="M0 0 1164.23 0.000360892" stroke="#000000" stroke-width="41.25" stroke-miterlimit="8" fill="none" fill-rule="evenodd" transform="matrix(-1 0 0 1 1289.73 404.5)"/><path d="M1214.57 1390.2 125.5 390.5" stroke="#000000" stroke-width="4.58333" stroke-miterlimit="8" fill="none" fill-rule="evenodd"/><path d="M0 50.5C-6.11106e-15 22.6096 21.4904-6.42933e-15 48.0001-1.28587e-14 74.5099-2.57173e-14 96.0003 22.6096 96.0003 50.5 96.0003 78.3904 74.5099 101 48.0001 101 21.4904 101-3.05553e-14 78.3904 0 50.5Z" stroke="#000000" stroke-width="5.72917" stroke-miterlimit="8" fill="url(#fill0)" fill-rule="evenodd" transform="matrix(-1 0 0 1 191 879)"/><path d="M0 50.5C-6.11103e-15 22.6096 21.4903-6.42933e-15 48-1.28587e-14 74.5096-2.57173e-14 95.9999 22.6096 95.9999 50.5 95.9999 78.3904 74.5096 101 48 101 21.4903 101-3.05552e-14 78.3904 0 50.5Z" stroke="#000000" stroke-width="5.72917" stroke-miterlimit="8" fill="url(#fill1)" fill-rule="evenodd" transform="matrix(-1 0 0 1 755 354)"/><path d="M0 50.5C-6.11103e-15 22.6096 21.4903-6.42933e-15 48-1.28587e-14 74.5096-2.57173e-14 95.9999 22.6096 95.9999 50.5 95.9999 78.3904 74.5096 101 48 101 21.4903 101-3.05552e-14 78.3904 0 50.5Z" stroke="#000000" stroke-width="5.72917" stroke-miterlimit="8" fill="url(#fill2)" fill-rule="evenodd" transform="matrix(-1 0 0 1 757 879)"/><path d="M53.7082 1100.03 57.3957 1100.03 42.0207 1169.22C41.1041 1173.34 40.6457 1176.43 40.6457 1178.47 40.6457 1180.13 40.9166 1181.34 41.4582 1182.09 41.9999 1182.84 42.8541 1183.22 44.0207 1183.22 45.2707 1183.22 46.6041 1182.71 48.0207 1181.69 49.4374 1180.67 51.4374 1178.72 54.0207 1175.84L57.5832 1179.34C53.5416 1183.59 50.2395 1186.5 47.677 1188.06 45.1145 1189.62 42.2499 1190.41 39.0832 1190.41 36.3749 1190.41 34.2082 1189.42 32.5832 1187.44 30.9582 1185.46 30.1457 1182.93 30.1457 1179.84 30.1457 1177.05 30.7291 1173.01 31.8957 1167.72L43.0832 1117.66C43.5832 1115.45 43.9374 1113.69 44.1457 1112.37 44.3541 1111.06 44.4582 1109.84 44.4582 1108.72 44.4582 1107.47 44.2291 1106.52 43.7707 1105.87 43.3124 1105.23 42.6562 1104.76 41.802 1104.47 40.9478 1104.18 39.4166 1103.97 37.2082 1103.84L37.9582 1100.59Z" fill-rule="evenodd"/><text fill="#000000" fill-opacity="0" font-family="Arial,Arial_MSFontService,sans-serif" font-size="90.375" x="30.1457" y="1179.11">𝑙</text><path d="M47.952 1300.75 23.5145 1339.56 23.5145 1340.43 47.952 1340.43 47.952 1324.87C47.952 1320.96 48.0145 1316.57 48.1395 1311.72 48.2645 1306.86 48.4103 1303.21 48.577 1300.75ZM49.7645 1286.62 58.702 1286.62 58.702 1340.43 60.0145 1340.43C62.4311 1340.43 64.1603 1340.26 65.202 1339.9 66.2437 1339.55 67.1082 1338.92 67.7957 1338.03 68.4832 1337.13 69.1187 1335.66 69.702 1333.62L74.452 1333.62 73.702 1346.5 58.702 1346.5 58.702 1356.75C58.702 1359.54 58.7957 1361.58 58.9832 1362.87 59.1707 1364.16 59.4832 1365.18 59.9207 1365.93 60.3582 1366.68 61.0041 1367.31 61.8582 1367.81 62.7124 1368.31 64.0978 1368.81 66.0145 1369.31L66.0145 1372.37 40.6395 1372.37 40.6395 1369.31C43.2228 1368.64 44.952 1367.9 45.827 1367.09 46.702 1366.28 47.2749 1365.12 47.5457 1363.62 47.8166 1362.12 47.952 1359.83 47.952 1356.75L47.952 1346.5 13.202 1346.5 13.202 1341.81Z" fill-rule="evenodd"/><text fill="#000000" fill-opacity="0" font-family="Arial,Arial_MSFontService,sans-serif" font-size="85.75" x="13.202" y="1361.65">4</text><path d="M8.85406 1245.53 44.3541 1245.53 79.8541 1245.53 79.8541 1253.53 44.3541 1253.53 8.85406 1253.53Z" fill-rule="evenodd"/><path d="M45.2128 551.513 48.9003 551.513 33.5253 620.7C32.6087 624.825 32.1503 627.908 32.1503 629.95 32.1503 631.617 32.4212 632.825 32.9628 633.575 33.5045 634.325 34.3587 634.7 35.5253 634.7 36.7753 634.7 38.1087 634.19 39.5253 633.169 40.942 632.148 42.942 630.2 45.5253 627.325L49.0878 630.825C45.0462 635.075 41.7441 637.981 39.1816 639.544 36.6191 641.106 33.7545 641.888 30.5878 641.888 27.8795 641.888 25.7128 640.898 24.0878 638.919 22.4628 636.94 21.6503 634.408 21.6503 631.325 21.6503 628.533 22.2337 624.492 23.4003 619.2L34.5878 569.138C35.0878 566.929 35.442 565.169 35.6503 563.856 35.8587 562.544 35.9628 561.325 35.9628 560.2 35.9628 558.95 35.7337 558.002 35.2753 557.356 34.817 556.711 34.1607 556.242 33.3066 555.95 32.4524 555.658 30.9212 555.45 28.7128 555.325L29.4628 552.075Z" fill-rule="evenodd"/><text fill="#000000" fill-opacity="0" font-family="Arial,Arial_MSFontService,sans-serif" font-size="90.375" x="21.6503" y="630.591">𝑙</text><path d="M39.4566 752.229 15.0191 791.042 15.0191 791.917 39.4566 791.917 39.4566 776.354C39.4566 772.438 39.5191 768.052 39.6441 763.198 39.7691 758.344 39.9149 754.688 40.0816 752.229ZM41.2691 738.104 50.2066 738.104 50.2066 791.917 51.5191 791.917C53.9357 791.917 55.6649 791.74 56.7066 791.386 57.7482 791.031 58.6128 790.406 59.3003 789.511 59.9878 788.615 60.6232 787.146 61.2066 785.104L65.9566 785.104 65.2066 797.979 50.2066 797.979 50.2066 808.229C50.2066 811.021 50.3003 813.063 50.4878 814.354 50.6753 815.646 50.9878 816.667 51.4253 817.417 51.8628 818.167 52.5087 818.792 53.3628 819.292 54.217 819.792 55.6024 820.292 57.5191 820.792L57.5191 823.854 32.1441 823.854 32.1441 820.792C34.7274 820.125 36.4566 819.386 37.3316 818.573 38.2066 817.761 38.7795 816.604 39.0503 815.104 39.3212 813.604 39.4566 811.313 39.4566 808.229L39.4566 797.979 4.70658 797.979 4.70658 793.292Z" fill-rule="evenodd"/><text fill="#000000" fill-opacity="0" font-family="Arial,Arial_MSFontService,sans-serif" font-size="85.75" x="4.70658" y="813.136">4</text><path d="M0.358662 697.011 35.8587 697.011 71.3587 697.011 71.3587 705.011 35.8587 705.011 0.358662 705.011Z" fill-rule="evenodd"/><path d="M410.751 78.9328 414.438 78.9328 399.063 148.12C398.146 152.245 397.688 155.329 397.688 157.37 397.688 159.037 397.959 160.245 398.501 160.995 399.042 161.745 399.896 162.12 401.063 162.12 402.313 162.12 403.646 161.61 405.063 160.589 406.48 159.568 408.48 157.62 411.063 154.745L414.626 158.245C410.584 162.495 407.282 165.402 404.719 166.964 402.157 168.527 399.292 169.308 396.126 169.308 393.417 169.308 391.251 168.318 389.626 166.339 388.001 164.36 387.188 161.829 387.188 158.745 387.188 155.954 387.771 151.912 388.938 146.62L400.126 96.5578C400.626 94.3494 400.98 92.589 401.188 91.2765 401.396 89.964 401.501 88.7453 401.501 87.6203 401.501 86.3703 401.271 85.4223 400.813 84.7765 400.355 84.1307 399.699 83.6619 398.844 83.3703 397.99 83.0786 396.459 82.8703 394.251 82.7453L395.001 79.4953Z" fill-rule="evenodd"/><text fill="#000000" fill-opacity="0" font-family="Arial,Arial_MSFontService,sans-serif" font-size="90.375" x="387.188" y="158.011">𝑙</text><path d="M404.994 279.649 380.557 318.462 380.557 319.337 404.994 319.337 404.994 303.774C404.994 299.858 405.057 295.472 405.182 290.618 405.307 285.764 405.453 282.108 405.619 279.649ZM406.807 265.524 415.744 265.524 415.744 319.337 417.057 319.337C419.474 319.337 421.203 319.16 422.244 318.806 423.286 318.452 424.151 317.827 424.838 316.931 425.526 316.035 426.161 314.566 426.744 312.524L431.494 312.524 430.744 325.399 415.744 325.399 415.744 335.649C415.744 338.441 415.838 340.483 416.026 341.774 416.213 343.066 416.526 344.087 416.963 344.837 417.401 345.587 418.046 346.212 418.901 346.712 419.755 347.212 421.14 347.712 423.057 348.212L423.057 351.274 397.682 351.274 397.682 348.212C400.265 347.545 401.994 346.806 402.869 345.993 403.744 345.181 404.317 344.024 404.588 342.524 404.859 341.024 404.994 338.733 404.994 335.649L404.994 325.399 370.244 325.399 370.244 320.712Z" fill-rule="evenodd"/><text fill="#000000" fill-opacity="0" font-family="Arial,Arial_MSFontService,sans-serif" font-size="85.75" x="370.244" y="340.556">4</text><path d="M365.896 224.431 401.396 224.431 436.896 224.431 436.896 232.431 401.396 232.431 365.896 232.431Z" fill-rule="evenodd"/><path d="M1047.12 57.7062 1050.81 57.7062 1035.44 126.894C1034.52 131.019 1034.06 134.102 1034.06 136.144 1034.06 137.81 1034.33 139.019 1034.87 139.769 1035.42 140.519 1036.27 140.894 1037.44 140.894 1038.69 140.894 1040.02 140.383 1041.44 139.362 1042.85 138.342 1044.85 136.394 1047.44 133.519L1051 137.019C1046.96 141.269 1043.65 144.175 1041.09 145.737 1038.53 147.3 1035.67 148.081 1032.5 148.081 1029.79 148.081 1027.62 147.092 1026 145.112 1024.37 143.133 1023.56 140.602 1023.56 137.519 1023.56 134.727 1024.14 130.685 1025.31 125.394L1036.5 75.3312C1037 73.1228 1037.35 71.3624 1037.56 70.0499 1037.77 68.7374 1037.87 67.5187 1037.87 66.3937 1037.87 65.1437 1037.64 64.1957 1037.19 63.5499 1036.73 62.9041 1036.07 62.4353 1035.22 62.1437 1034.36 61.852 1032.83 61.6437 1030.62 61.5187L1031.37 58.2687Z" fill-rule="evenodd"/><text fill="#000000" fill-opacity="0" font-family="Arial,Arial_MSFontService,sans-serif" font-size="90.375" x="1023.56" y="136.784">𝑙</text><path d="M1041.37 258.423 1016.93 297.235 1016.93 298.11 1041.37 298.11 1041.37 282.548C1041.37 278.631 1041.43 274.246 1041.55 269.392 1041.68 264.537 1041.83 260.881 1041.99 258.423ZM1043.18 244.298 1052.12 244.298 1052.12 298.11 1053.43 298.11C1055.85 298.11 1057.58 297.933 1058.62 297.579 1059.66 297.225 1060.52 296.6 1061.21 295.704 1061.9 294.808 1062.53 293.339 1063.12 291.298L1067.87 291.298 1067.12 304.173 1052.12 304.173 1052.12 314.423C1052.12 317.214 1052.21 319.256 1052.4 320.548 1052.59 321.839 1052.9 322.86 1053.34 323.61 1053.77 324.36 1054.42 324.985 1055.27 325.485 1056.13 325.985 1057.51 326.485 1059.43 326.985L1059.43 330.048 1034.05 330.048 1034.05 326.985C1036.64 326.319 1038.37 325.579 1039.24 324.767 1040.12 323.954 1040.69 322.798 1040.96 321.298 1041.23 319.798 1041.37 317.506 1041.37 314.423L1041.37 304.173 1006.62 304.173 1006.62 299.485Z" fill-rule="evenodd"/><text fill="#000000" fill-opacity="0" font-family="Arial,Arial_MSFontService,sans-serif" font-size="85.75" x="1006.62" y="319.329">4</text><path d="M1002.27 203.204 1037.77 203.204 1073.27 203.204 1073.27 211.204 1037.77 211.204 1002.27 211.204Z" fill-rule="evenodd"/><path d="M709.213 880.17 707.5 455.5" stroke="#000000" stroke-width="9.16667" stroke-miterlimit="8" stroke-dasharray="36.6667 27.5" fill="none" fill-rule="evenodd"/><path d="M0 0 469.05 0.000360892" stroke="#000000" stroke-width="9.16667" stroke-miterlimit="8" stroke-dasharray="36.6667 27.5" fill="none" fill-rule="evenodd" transform="matrix(-1 0 0 1 660.55 930.5)"/><path d="M462.824 548.317 465.215 548.317 455.246 593.181C454.651 595.855 454.354 597.855 454.354 599.179 454.354 600.259 454.53 601.043 454.881 601.529 455.232 602.016 455.786 602.259 456.543 602.259 457.353 602.259 458.218 601.928 459.136 601.266 460.055 600.604 461.352 599.341 463.027 597.476L465.337 599.746C462.716 602.502 460.575 604.386 458.913 605.4 457.252 606.413 455.394 606.919 453.341 606.919 451.585 606.919 450.18 606.278 449.126 604.994 448.072 603.711 447.546 602.07 447.546 600.07 447.546 598.26 447.924 595.639 448.68 592.208L455.935 559.745C456.259 558.314 456.489 557.172 456.624 556.321 456.759 555.47 456.826 554.68 456.826 553.95 456.826 553.14 456.678 552.525 456.38 552.106 456.083 551.687 455.658 551.383 455.104 551.194 454.55 551.005 453.557 550.87 452.125 550.789L452.611 548.682Z" fill-rule="evenodd"/><text fill="#000000" fill-opacity="0" font-family="Arial,Arial_MSFontService,sans-serif" font-size="58.6025" x="447.546" y="599.594">𝑙</text><path d="M519.385 532.93 529.719 532.93 529.719 533.727 547.086 533.727 570.086 533.727 570.086 538.727 547.086 538.727 524.086 538.727 524.086 538.32 522.384 538.32 500.58 612.809 496.649 612.809 479.87 576.74 473.021 579.78 471.765 576.74 485.058 570.661 499.364 602.11Z" fill-rule="evenodd"/><path d="M547.825 550.303C552.85 550.303 556.646 551.404 559.213 553.606 561.78 555.808 563.063 559.003 563.063 563.19 563.063 564.622 562.921 565.939 562.637 567.142 562.354 568.344 561.908 569.533 561.3 570.708 560.692 571.883 559.875 573.147 558.848 574.497 557.821 575.848 556.687 577.22 555.444 578.611 554.201 580.002 552.053 582.319 549 585.561 543.867 590.992 540.097 595.734 537.693 599.786L552.972 599.786C554.296 599.786 555.363 599.705 556.173 599.543 556.984 599.381 557.632 599.111 558.119 598.733 558.605 598.355 558.99 597.861 559.274 597.254 559.557 596.646 559.915 595.707 560.348 594.437L563.792 594.437 563.104 606.271 529.75 606.271 529.75 604.326C530.911 601.489 532.478 598.584 534.451 595.612 536.423 592.64 539.219 589.141 542.84 585.116 545.974 581.657 548.23 579.036 549.608 577.253 551.121 575.308 552.249 573.626 552.992 572.208 553.735 570.789 554.269 569.452 554.593 568.195 554.917 566.939 555.079 565.676 555.079 564.406 555.079 562.38 554.755 560.59 554.106 559.036 553.458 557.483 552.465 556.26 551.128 555.369 549.79 554.477 548.108 554.031 546.082 554.031 541.03 554.031 537.625 556.841 535.869 562.461L530.965 562.461 530.965 554.68C534.235 553.14 537.294 552.025 540.145 551.336 542.995 550.647 545.555 550.303 547.825 550.303Z" fill-rule="evenodd"/><text fill="#000000" fill-opacity="0" font-family="Arial,Arial_MSFontService,sans-serif" font-size="55.9683" x="529.75" y="599.275">2</text><path d="M508.879 677.458 493.033 702.625 493.033 703.193 508.879 703.193 508.879 693.101C508.879 690.562 508.92 687.718 509.001 684.57 509.082 681.423 509.177 679.052 509.285 677.458ZM510.055 668.299 515.85 668.299 515.85 703.193 516.701 703.193C518.268 703.193 519.39 703.078 520.065 702.848 520.74 702.618 521.301 702.213 521.747 701.632 522.193 701.051 522.605 700.099 522.983 698.775L526.063 698.775 525.577 707.124 515.85 707.124 515.85 713.77C515.85 715.581 515.911 716.904 516.033 717.742 516.154 718.58 516.357 719.241 516.64 719.728 516.924 720.214 517.343 720.619 517.897 720.944 518.451 721.268 519.349 721.592 520.592 721.916L520.592 723.902 504.138 723.902 504.138 721.916C505.813 721.484 506.934 721.004 507.502 720.478 508.069 719.951 508.44 719.201 508.616 718.228 508.792 717.256 508.879 715.77 508.879 713.77L508.879 707.124 486.346 707.124 486.346 704.084Z" fill-rule="evenodd"/><text fill="#000000" fill-opacity="0" font-family="Arial,Arial_MSFontService,sans-serif" font-size="55.6035" x="486.346" y="716.952">4</text><path d="M442.086 642.727 474.086 642.727 506.086 642.727 538.086 642.727 570.086 642.727 570.086 647.727 538.086 647.727 506.086 647.727 474.086 647.727 442.086 647.727Z" fill-rule="evenodd"/></g></svg>