<?xml version="1.0" encoding="UTF-8" standalone="no"?>
<svg
   viewBox="0 0 24 24"
   width="50px"
   height="50px"
   version="1.1"
   id="svg1"
   sodipodi:docname="info_pressed.svg"
   xml:space="preserve"
   inkscape:version="1.3.2 (091e20e, 2023-11-25, custom)"
   xmlns:inkscape="http://www.inkscape.org/namespaces/inkscape"
   xmlns:sodipodi="http://sodipodi.sourceforge.net/DTD/sodipodi-0.dtd"
   xmlns="http://www.w3.org/2000/svg"
   xmlns:svg="http://www.w3.org/2000/svg"><defs
     id="defs1"><filter
       id="fx0"
       x="-10%"
       y="-10%"
       width="120%"
       height="120%"
       filterUnits="userSpaceOnUse"
       primitiveUnits="userSpaceOnUse"><feComponentTransfer
         color-interpolation-filters="sRGB"
         id="feComponentTransfer1"><feFuncR
           type="discrete"
           tableValues="0 0"
           id="feFuncR1" /><feFuncG
           type="discrete"
           tableValues="0 0"
           id="feFuncG1" /><feFuncB
           type="discrete"
           tableValues="0 0"
           id="feFuncB1" /><feFuncA
           type="linear"
           slope="0.431373"
           intercept="0"
           id="feFuncA1" /></feComponentTransfer><feGaussianBlur
         stdDeviation="2.59232 2.59232"
         id="feGaussianBlur1" /></filter><filter
       id="fx1"
       x="-10%"
       y="-10%"
       width="120%"
       height="120%"
       filterUnits="userSpaceOnUse"
       primitiveUnits="userSpaceOnUse"><feComponentTransfer
         color-interpolation-filters="sRGB"
         id="feComponentTransfer2"><feFuncR
           type="discrete"
           tableValues="0 0"
           id="feFuncR2" /><feFuncG
           type="discrete"
           tableValues="0 0"
           id="feFuncG2" /><feFuncB
           type="discrete"
           tableValues="0 0"
           id="feFuncB2" /><feFuncA
           type="linear"
           slope="0.431373"
           intercept="0"
           id="feFuncA2" /></feComponentTransfer><feGaussianBlur
         stdDeviation="2.59232 2.59232"
         id="feGaussianBlur2" /></filter><filter
       id="fx2"
       x="-10%"
       y="-10%"
       width="120%"
       height="120%"
       filterUnits="userSpaceOnUse"
       primitiveUnits="userSpaceOnUse"><feComponentTransfer
         color-interpolation-filters="sRGB"
         id="feComponentTransfer3"><feFuncR
           type="discrete"
           tableValues="0 0"
           id="feFuncR3" /><feFuncG
           type="discrete"
           tableValues="0 0"
           id="feFuncG3" /><feFuncB
           type="discrete"
           tableValues="0 0"
           id="feFuncB3" /><feFuncA
           type="linear"
           slope="0.431373"
           intercept="0"
           id="feFuncA3" /></feComponentTransfer><feGaussianBlur
         stdDeviation="2.59232 2.59232"
         id="feGaussianBlur3" /></filter></defs><sodipodi:namedview
     id="namedview1"
     pagecolor="#ffffff"
     bordercolor="#000000"
     borderopacity="0.25"
     inkscape:showpageshadow="2"
     inkscape:pageopacity="0.0"
     inkscape:pagecheckerboard="0"
     inkscape:deskcolor="#d1d1d1"
     inkscape:zoom="5.2255191"
     inkscape:cx="6.8892677"
     inkscape:cy="35.116128"
     inkscape:window-width="1920"
     inkscape:window-height="974"
     inkscape:window-x="-11"
     inkscape:window-y="-11"
     inkscape:window-maximized="1"
     inkscape:current-layer="svg1" /><g
     style="overflow:hidden"
     id="g1"
     transform="matrix(0.0892055,0,0,0.0892055,-0.53337306,0.00185995)"><g
       transform="translate(-2006,-1065)"
       id="g9"><g
         filter="url(#fx0)"
         transform="translate(2039,1144)"
         id="g4"><g
           id="g3"><path
             d="m 75.7378,9.14319 h 41.0002 41 41 v 7.00001 h -41 -41 -34.8237 v 0.5016 H 72.6345 L 45.0515,110.878 H 40.0784 L 18.8528,65.2483 10.1883,69.0935 8.5989,65.2483 25.4153,57.5579 43.5134,97.343 68.8406,9.82594 h 6.8972 z"
             fill-rule="evenodd"
             id="path3" /></g></g><path
         d="m 2109.24,1147.64 h 41 41 41 v 7 h -41 -41 -34.82 v 0.51 h -9.28 l -27.59,94.23 h -4.97 l -21.23,-45.63 -8.66,3.84 -1.59,-3.84 16.82,-7.69 18.09,39.78 25.33,-87.51 h 6.9 z"
         fill-rule="evenodd"
         id="path4" /><g
         filter="url(#fx1)"
         transform="translate(2114,1207)"
         id="g6"><g
           id="g5"><path
             d="M 8.67481,8.71753 H 71.8389 V 15.5364 H 8.67481 Z"
             fill-rule="evenodd"
             id="path5" /></g></g><path
         d="m 2117.18,1210.22 h 63.16 v 6.82 h -63.16 z"
         fill-rule="evenodd"
         id="path6" /><text
         fill="#000000"
         fill-opacity="0"
         font-family="Arial, Arial_MSFontService, sans-serif"
         font-size="6.81885px"
         x="2117.1799"
         y="1216.1801"
         id="text6">−</text><g
         filter="url(#fx2)"
         transform="translate(2187,1169)"
         id="g8"><g
           id="g7"><path
             d="m 32.7705,9.34205 h 2.8198 c -0.205,3.28125 -0.3076,7.82715 -0.3076,13.63765 v 43.7842 c 0,1.9824 0.1111,3.4778 0.3333,4.4861 0.2221,1.0083 0.6152,1.8286 1.1792,2.4609 0.5639,0.6324 1.3757,1.128 2.4353,1.4869 1.0595,0.3588 2.3925,0.6323 3.999,0.8203 1.6064,0.188 3.7256,0.3161 6.3574,0.3845 v 3.7427 H 11.6987 v -3.7427 c 3.794,-0.1709 6.5027,-0.4016 8.1262,-0.6922 1.6236,-0.2905 2.8626,-0.7263 3.7171,-1.3073 0.8545,-0.5811 1.4783,-1.4014 1.8713,-2.461 0.3931,-1.0595 0.5896,-2.7856 0.5896,-5.1782 V 25.1843 c 0,-1.3672 -0.2392,-2.3669 -0.7177,-2.9992 -0.4786,-0.6324 -1.1792,-0.9485 -2.1021,-0.9485 -1.0937,0 -2.6489,0.5639 -4.6655,1.6919 -2.0166,1.1279 -4.5117,2.6831 -7.4854,4.6655 L 8.77637,23.6462 Z"
             fill-rule="evenodd"
             id="path7" /></g></g><path
         d="m 2214.27,1172.84 h 2.82 c -0.2,3.28 -0.31,7.83 -0.31,13.64 v 43.78 c 0,1.99 0.11,3.48 0.34,4.49 0.22,1.01 0.61,1.83 1.18,2.46 0.56,0.63 1.37,1.13 2.43,1.49 1.06,0.36 2.39,0.63 4,0.82 1.61,0.19 3.73,0.32 6.36,0.38 v 3.75 h -37.89 v -3.75 c 3.79,-0.17 6.5,-0.4 8.13,-0.69 1.62,-0.29 2.86,-0.73 3.71,-1.31 0.86,-0.58 1.48,-1.4 1.87,-2.46 0.4,-1.06 0.59,-2.78 0.59,-5.18 v -41.57 c 0,-1.37 -0.24,-2.37 -0.71,-3 -0.48,-0.64 -1.18,-0.95 -2.11,-0.95 -1.09,0 -2.65,0.56 -4.66,1.69 -2.02,1.13 -4.51,2.68 -7.49,4.66 l -2.25,-3.94 z"
         fill-rule="evenodd"
         id="path8" /><text
         fill="#000000"
         fill-opacity="0"
         font-family="Arial, Arial_MSFontService, sans-serif"
         font-size="70.8032px"
         x="2190.28"
         y="1234.8"
         id="text8">1</text><path
         d="m 2020,1199.5 c 0,-69.86 56.64,-126.5 126.5,-126.5 69.86,0 126.5,56.64 126.5,126.5 0,69.86 -56.64,126.5 -126.5,126.5 -69.86,0 -126.5,-56.64 -126.5,-126.5 z"
         stroke="#000000"
         stroke-width="16.0417"
         stroke-miterlimit="8"
         fill="none"
         fill-rule="evenodd"
         id="path9" /></g></g></svg>
