<?xml version="1.0" encoding="UTF-8" standalone="no"?>
<svg
   viewBox="0 0 24 24"
   width="50px"
   height="50px"
   version="1.1"
   id="svg1"
   sodipodi:docname="info.svg"
   xml:space="preserve"
   inkscape:version="1.3.2 (091e20e, 2023-11-25, custom)"
   xmlns:inkscape="http://www.inkscape.org/namespaces/inkscape"
   xmlns:sodipodi="http://sodipodi.sourceforge.net/DTD/sodipodi-0.dtd"
   xmlns="http://www.w3.org/2000/svg"
   xmlns:svg="http://www.w3.org/2000/svg"><defs
     id="defs1" /><sodipodi:namedview
     id="namedview1"
     pagecolor="#ffffff"
     bordercolor="#000000"
     borderopacity="0.25"
     inkscape:showpageshadow="2"
     inkscape:pageopacity="0.0"
     inkscape:pagecheckerboard="0"
     inkscape:deskcolor="#d1d1d1"
     inkscape:zoom="5.2255191"
     inkscape:cx="3.2532653"
     inkscape:cy="-2.9662125"
     inkscape:window-width="1920"
     inkscape:window-height="974"
     inkscape:window-x="-11"
     inkscape:window-y="-11"
     inkscape:window-maximized="1"
     inkscape:current-layer="svg1" /><g
     style="overflow:hidden"
     id="g1"
     transform="matrix(0.08594189,0,0,0.08556208,1.2143222,-1.6948518)"><g
       transform="translate(-2020,-1038)"
       id="g2"><path
         d="m 2155.11,1164.51 h 6.34 l -15.47,68.97 c -1.57,7.02 -2.36,12.32 -2.36,15.9 0,2.86 0.47,4.94 1.4,6.23 0.93,1.29 2.4,1.93 4.4,1.93 2.15,0 4.44,-0.88 6.88,-2.63 2.43,-1.76 5.87,-5.1 10.31,-10.05 l 6.12,6.02 c -7.02,7.38 -12.71,12.39 -17.08,15.04 -4.37,2.65 -9.27,3.97 -14.72,3.97 -4.65,0 -8.37,-1.7 -11.17,-5.1 -2.79,-3.4 -4.19,-7.75 -4.19,-13.05 0,-5.44 1.01,-12.39 3.01,-20.84 l 8.06,-35.13 c 1.64,-7.16 2.47,-12.53 2.47,-16.11 0,-3.22 -0.77,-5.41 -2.31,-6.55 -1.54,-1.15 -4.57,-1.79 -9.08,-1.94 l 1.18,-5.69 z m -2.9,-41.14 h 19.02 l -4.94,20.84 h -19.02 z"
         fill-rule="evenodd"
         id="path1-7" /><text
         fill="#000000"
         fill-opacity="0"
         font-family="Arial, Arial_MSFontService, sans-serif"
         font-size="146.523px"
         x="2125.5701"
         y="1251.58"
         id="text1">𝑖</text><path
         d="m 2029,1197.5 c 0,-64.34 52.16,-116.5 116.5,-116.5 64.34,0 116.5,52.16 116.5,116.5 0,64.34 -52.16,116.5 -116.5,116.5 -64.34,0 -116.5,-52.16 -116.5,-116.5 z"
         stroke="#000000"
         stroke-width="18.3333"
         stroke-miterlimit="8"
         fill="none"
         fill-rule="evenodd"
         id="path2" /></g></g></svg>
