<!-- Created with Inkscape (http://www.inkscape.org/) -->
<svg version="1.1" id="svg1" width="96" height="96" viewBox="0 0 96 96" sodipodi:docname="logo.svg" inkscape:version="1.4.2 (f4327f4, 2025-05-13)" inkscape:export-filename="logo.png" inkscape:export-xdpi="300" inkscape:export-ydpi="300" xmlns:inkscape="http://www.inkscape.org/namespaces/inkscape" xmlns:sodipodi="http://sodipodi.sourceforge.net/DTD/sodipodi-0.dtd" xmlns="http://www.w3.org/2000/svg" xmlns:svg="http://www.w3.org/2000/svg" xmlns:ns1="http://www.iki.fi/pav/software/textext/">
  <sodipodi:namedview id="namedview1" pagecolor="#000000" bordercolor="#000000" borderopacity="0.25" inkscape:showpageshadow="2" inkscape:pageopacity="0.0" inkscape:pagecheckerboard="0" inkscape:deskcolor="#d1d1d1" inkscape:zoom="5.6568543" inkscape:cx="10.253048" inkscape:cy="54.800775" inkscape:window-width="1920" inkscape:window-height="1080" inkscape:window-x="0" inkscape:window-y="0" inkscape:window-maximized="1" inkscape:current-layer="g1570" inkscape:export-bgcolor="#1a1a2eff"/>
  <defs id="defs1"/>
  <g inkscape:groupmode="layer" inkscape:label="Image" id="g1">
  <rect width="96" height="96" rx="8" fill="#1a1a2e"/>    
<g id="g5961" transform="matrix(12.5, 0, 0, 7.5, 14, 7.4)" ns1:version="1.12.0" ns1:texconverter="pdflatex" ns1:pdfconverter="inkscape" ns1:text="$\\int$" ns1:preamble="C:\Users\256bit.by\AppData\Roaming\inkscape\extensions\textext\default_packages.tex" ns1:scale="3.129579444160175" ns1:alignment="middle center" ns1:jacobian_sqrt="4.17276" style="display:inline;fill:#ffffff;fill-opacity:1">
      <defs id="defs2882">
        <g id="g9989">
          <g id="g7932">
            <path d="m 2.71875,8.765625 c -0.140625,1.640625 -0.5,2.09375 -1.0625,2.09375 -0.125,0 -0.4375,-0.03125 -0.640625,-0.21875 0.296875,-0.03125 0.375,-0.265625 0.375,-0.40625 0,-0.28125 -0.21875,-0.421875 -0.40625,-0.421875 -0.203125,0 -0.421875,0.140625 -0.421875,0.4375 0,0.46875 0.5,0.828125 1.09375,0.828125 0.953125,0 1.421875,-0.875 1.640625,-1.765625 C 3.421875,8.796875 3.78125,5.890625 3.875,4.78125 L 4.0625,2.296875 C 4.203125,0.46875 4.53125,0.21875 4.984375,0.21875 c 0.09375,0 0.40625,0.015625 0.625,0.203125 C 5.328125,0.46875 5.25,0.703125 5.25,0.84375 5.25,1.125 5.46875,1.25 5.65625,1.25 5.859375,1.25 6.078125,1.125 6.078125,0.828125 6.078125,0.34375 5.578125,0 4.96875,0 c -0.9375,0 -1.328125,0.96875 -1.5,1.71875 -0.125,0.546875 -0.484375,3.359375 -0.5625,4.578125 z m 0,0" id="path805"/>
          </g>
        </g>
      </defs>
      <g fill="#000000" fill-opacity="1" id="g6212" transform="translate(-149.275,-126.739)" style="fill:#ffffff;fill-opacity:1">
        <g transform="translate(148.712,126.739)" id="g1570" style="fill:#ffffff;fill-opacity:1">
          <path d="m 2.71875,8.765625 c -0.140625,1.640625 -0.5,2.09375 -1.0625,2.09375 -0.125,0 -0.4375,-0.03125 -0.640625,-0.21875 0.296875,-0.03125 0.375,-0.265625 0.375,-0.40625 0,-0.28125 -0.21875,-0.421875 -0.40625,-0.421875 -0.203125,0 -0.421875,0.140625 -0.421875,0.4375 0,0.46875 0.5,0.828125 1.09375,0.828125 0.953125,0 1.421875,-0.875 1.640625,-1.765625 C 3.421875,8.796875 3.78125,5.890625 3.875,4.78125 L 4.0625,2.296875 C 4.203125,0.46875 4.53125,0.21875 4.984375,0.21875 c 0.09375,0 0.40625,0.015625 0.625,0.203125 C 5.328125,0.46875 5.25,0.703125 5.25,0.84375 5.25,1.125 5.46875,1.25 5.65625,1.25 5.859375,1.25 6.078125,1.125 6.078125,0.828125 6.078125,0.34375 5.578125,0 4.96875,0 c -0.9375,0 -1.328125,0.96875 -1.5,1.71875 -0.125,0.546875 -0.484375,3.359375 -0.5625,4.578125 z m 0,0" id="path5270" style="fill:#ffffff;fill-opacity:1"/>
        </g>
      </g>
    </g>
  </g>
</svg>

