<?xml version="1.0" encoding="UTF-8" standalone="no"?>
<svg
   viewBox="0 0 170 18"
   version="1.1"
   id="svg1"
   sodipodi:docname="savchenko-wordmark-en.svg"
   width="170"
   height="18"
   inkscape:version="1.3.2 (091e20e, 2023-11-25, custom)"
   inkscape:export-filename="savchenko-wordmark-en.svg"
   inkscape:export-xdpi="96"
   inkscape:export-ydpi="96"
   xmlns:inkscape="http://www.inkscape.org/namespaces/inkscape"
   xmlns:sodipodi="http://sodipodi.sourceforge.net/DTD/sodipodi-0.dtd"
   xmlns="http://www.w3.org/2000/svg"
   xmlns:svg="http://www.w3.org/2000/svg">
  <defs
     id="defs1" />
  <sodipodi:namedview
     id="namedview1"
     pagecolor="#ffffff"
     bordercolor="#000000"
     borderopacity="0.25"
     inkscape:showpageshadow="2"
     inkscape:pageopacity="0.0"
     inkscape:pagecheckerboard="0"
     inkscape:deskcolor="#d1d1d1"
     inkscape:zoom="4"
     inkscape:cx="86.75"
     inkscape:cy="20.375"
     inkscape:window-width="1920"
     inkscape:window-height="974"
     inkscape:window-x="-11"
     inkscape:window-y="-11"
     inkscape:window-maximized="1"
     inkscape:current-layer="svg1" />
  <g
     transform="translate(-315.50789,-330.57563)"
     id="g5">
    <path
       d="m 315.60164,336.1277 q 0,-1.49999 1.14583,-2.48958 1.15625,-0.99999 2.89583,-0.99999 1.08333,0 1.97917,0.21874 0.90624,0.20834 1.04166,0.20834 0.13542,0 0.16667,-0.0104 0.29166,1.05208 0.39583,2.6875 0.0104,0.19791 -0.33333,0.25 -0.34375,0.0417 -0.38542,-0.14584 -0.21875,-1.14583 -0.97916,-1.82291 -0.75,-0.6875 -2.13542,-0.6875 -1.04166,0 -1.6875,0.69792 -0.64583,0.6875 -0.64583,1.62499 -0.0104,2.42708 3.07291,3.05208 3.875,0.78125 3.875,4.29166 0,1.97917 -1.14583,3.16666 -1.13542,1.17709 -2.91667,1.17709 -1.24999,0 -1.99999,-0.21875 -0.73958,-0.21875 -1.92708,-0.82292 -0.51042,-1.61458 -0.51042,-2.84375 0,-0.11458 0.0208,-0.19791 0.0417,-0.1875 0.36458,-0.1875 0.32291,0 0.33333,0.0937 0.0937,1.34375 1.15625,2.37499 1.07291,1.02084 2.86458,1.02084 0.95833,0 1.63541,-0.75 0.6875,-0.75 0.6875,-1.91667 0,-2.45833 -2.75,-3.08332 -4.20832,-0.97917 -4.21874,-4.6875 z m 14.43748,8.86457 v -2.23958 q 0,-0.22916 -0.14583,-0.22916 -0.0729,0 -0.625,0.27083 -1.77083,0.88541 -1.77083,2.3125 0,0.51041 0.32291,0.83333 0.33334,0.3125 0.91667,0.3125 0.41666,0 0.85416,-0.4375 0.44792,-0.44792 0.44792,-0.82292 z m 3.11458,0.79167 q 0.22916,0.0312 0.30208,0.3125 0,0.0312 -0.0104,0.0521 -0.42708,0.71875 -0.79166,0.9375 -0.36458,0.21875 -0.95833,0.21875 -1.09375,0 -1.47917,-1.41667 -0.79166,0.79167 -1.26041,1.10417 -0.46875,0.3125 -1.375,0.3125 -0.58333,0 -0.96875,-0.32292 -0.38541,-0.32291 -0.55208,-0.73958 -0.15625,-0.42708 -0.15625,-0.86458 0,-0.4375 0.20833,-0.85417 0.20833,-0.42708 0.60417,-0.76041 0.40625,-0.34375 0.69791,-0.5 l 2.41667,-1.34375 q 0.20833,-0.11458 0.20833,-0.33333 v -1.88542 q 0,-0.91666 -1.38542,-0.91666 -1.01041,0 -1.40624,0.52083 -0.0521,0.0729 -0.15625,0.96875 -0.125,1.03125 -0.71875,1.03125 -0.57292,0 -0.57292,-0.58333 0,-0.58334 0.41667,-1.16667 0.42708,-0.59375 0.72916,-0.77083 1.33334,-0.78125 2.5625,-0.78125 0.73958,0 1.42708,0.41667 0.69792,0.41666 0.69792,1.03124 v 5.54166 q 0,1.19792 0.69791,1.19792 0.19792,0 0.75,-0.38542 0.0312,-0.0208 0.0729,-0.0208 z m 0.95833,-6.33333 q -0.30208,-0.74999 -1.07292,-0.74999 -0.14583,0 -0.14583,-0.27084 0,-0.28125 0.14583,-0.28125 0.60417,0.0625 1.83333,0.0625 1.23959,0 1.86458,-0.0625 0.14584,0 0.14584,0.28125 0,0.27084 -0.14584,0.27084 -0.81249,0 -0.81249,0.57291 0,0.17708 0.0417,0.30208 l 1.66667,5.10416 q 0.0625,0.1875 0.14583,0.1875 0.0833,0 0.14583,-0.1875 l 1.77083,-5.18749 q 0.0417,-0.10417 0.0417,-0.23958 0,-0.55208 -1,-0.55208 -0.14583,0 -0.14583,-0.27084 0,-0.28125 0.14583,-0.28125 0.59375,0.0625 1.48958,0.0625 0.89583,0 1.52083,-0.0625 0.14584,0 0.14584,0.28125 0,0.27084 -0.14584,0.27084 -1,0 -1.26041,0.74999 l -2.60416,7.44791 q -0.13542,0.40625 -0.4375,0.40625 -0.30209,0 -0.41667,-0.28125 z m 14.74998,6.03124 q 0.11458,-0.0521 0.25,0.16667 0.14583,0.20833 0.14583,0.29167 0,0.0625 -0.0521,0.11458 -0.27084,0.23958 -1.125,0.73958 -0.83334,0.51042 -2.3125,0.51042 -1.52083,0 -2.63541,-1.21875 -1.11458,-1.21875 -1.11458,-3.14583 0,-1.92708 1.27083,-3.42708 1.27083,-1.51041 3.28124,-1.51041 2.04167,0 2.42708,0.76042 0.0625,0.125 0.0625,0.42708 0,0.19791 -0.22916,0.48958 -0.22917,0.28125 -0.40625,0.28125 -0.17709,0 -0.28125,-0.14583 -0.8125,-1.11458 -1.80208,-1.11458 -0.98959,0 -1.80208,1.06249 -0.82292,1.07292 -0.82292,2.71875 0,1.64583 0.92708,2.64583 0.9375,1 2,1 0.80208,0 2.21875,-0.64584 z m 10.36456,0.26042 q 0,0.8125 1.32292,0.8125 0.14583,0 0.14583,0.30208 0,0.29167 -0.14583,0.29167 -0.84375,-0.0833 -2.0625,-0.0833 -1.20833,0 -2.03124,0.0833 -0.14584,0 -0.14584,-0.29167 0,-0.30208 0.14584,-0.30208 1.17708,0 1.17708,-0.8125 v -4.37499 q 0,-1.01042 -0.61459,-1.71875 -0.61458,-0.70833 -1.48958,-0.70833 -0.875,0 -1.54166,0.53125 -0.66667,0.53125 -0.66667,1.04166 v 5.22916 q 0,0.8125 1.15625,0.8125 0.14583,0 0.14583,0.30208 0,0.29167 -0.14583,0.29167 -1.09375,-0.0833 -2.13541,-0.0833 -1.04167,0 -1.875,0.0833 -0.14583,0 -0.14583,-0.29167 0,-0.30208 0.14583,-0.30208 1.26042,0 1.26042,-0.8125 v -10.90623 q 0,-1.44792 -0.95834,-1.44792 -0.17708,0 -0.17708,-0.28125 0,-0.29166 0.17708,-0.29166 0.34375,0 1.01042,-0.35417 0.67708,-0.35416 1.02083,-0.625 0.33333,-0.26041 0.45833,-0.26041 0.125,0 0.125,0.17708 -0.0625,1.11458 -0.0625,1.71875 v 5.35416 q 0,0.26041 0.16667,0.26041 0.0937,0 0.17708,-0.0833 0.94792,-1 2.51042,-1 1.51041,0 2.28124,1.10416 0.77083,1.09375 0.77083,2.23958 z m 2.27083,-3.16666 q 0,-1.85416 1.17708,-3.20833 1.1875,-1.36458 2.65625,-1.36458 1.46875,0 2.375,1.02083 0.90625,1.02083 0.90625,1.66667 0,0.64583 -0.53125,0.65624 h -4.67708 q -0.3125,0 -0.3125,0.6875 0,1.66667 0.79167,2.86458 0.80208,1.1875 2.20833,1.1875 1.05208,0 2.09374,-0.625 0.0521,-0.0312 0.11459,-0.0312 0.125,0 0.21875,0.11458 0.0729,0.0729 0.0729,0.21875 0,0.0521 -0.0417,0.0833 -1.64584,1.45833 -3.23958,1.45833 -1.59375,0 -2.70833,-1.4375 -1.10417,-1.4375 -1.10417,-3.29166 z m 1.83333,-2.07291 q 0,0.14583 0.25,0.14583 h 3.34375 q 0.15625,0 0.15625,-0.17708 0,-0.45834 -0.57292,-1.15625 -0.5625,-0.69792 -1.17708,-0.69792 -0.67708,0 -1.17708,0.45833 -0.48958,0.44792 -0.79167,1.27084 -0.0312,0.0833 -0.0312,0.15625 z m 15.34373,5.23957 q 0,0.8125 1.19791,0.8125 0.14584,0 0.14584,0.30208 0,0.29167 -0.14584,0.29167 -0.80208,-0.0833 -1.95833,-0.0833 -1.14583,0 -1.97916,0.0833 -0.14583,0 -0.14583,-0.29167 0,-0.30208 0.14583,-0.30208 1.14583,0 1.14583,-0.8125 v -4.19791 q 0,-0.875 -0.15625,-1.47916 -0.14583,-0.61459 -0.46875,-0.86459 -0.32291,-0.26041 -1.13541,-0.26041 -0.4375,0 -0.79167,0.17708 -0.35416,0.17708 -0.69791,0.42708 -0.33334,0.23959 -0.57292,0.60417 -0.22917,0.35417 -0.22917,0.77083 v 4.82291 q 0,0.8125 1.11459,0.8125 0.14583,0 0.14583,0.30208 0,0.29167 -0.14583,0.29167 -0.80209,-0.0833 -1.94792,-0.0833 -1.13541,0 -1.95833,0.0833 -0.14583,0 -0.14583,-0.29167 0,-0.30208 0.14583,-0.30208 1.19792,0 1.19792,-0.8125 v -4.65624 q 0,-1.33333 -0.875,-1.33333 -0.17708,0 -0.17708,-0.29167 0,-0.29167 0.17708,-0.29167 0.39583,0 0.90625,-0.31249 0.52083,-0.3125 0.90625,-0.64584 0.38541,-0.34375 0.54166,-0.34375 0.14583,0 0.13542,0.32292 l -0.0208,0.76042 q -0.0104,0.21874 0.14584,0.21874 0.0833,0 0.15625,-0.0625 1.11458,-1.10416 2.69791,-1.10416 1.54166,0 2.30208,1.53125 0.34375,0.6875 0.34375,2.58333 z m 8.71874,-6.20832 q 0.27083,-0.30209 0.27083,-0.48959 0,-0.34374 -1,-0.34374 -0.14583,0 -0.14583,-0.27084 0,-0.28125 0.14583,-0.28125 0.95833,0.0625 1.97916,0.0625 1.02084,0 1.8125,-0.0625 0.14583,0 0.14583,0.28125 0,0.27084 -0.14583,0.27084 -0.95833,0 -1.69791,0.70833 l -2.21875,2.13541 q -0.19792,0.1875 -0.19792,0.35417 0,0.16666 0.17709,0.36458 l 3.34374,3.82291 q 0.40625,0.46875 1.34375,0.46875 0.14583,0 0.14583,0.30208 0,0.29167 -0.14583,0.29167 -0.98958,-0.0833 -2.10416,-0.0833 -1.11459,0 -2.09375,0.0833 -0.14583,0 -0.14583,-0.29167 0,-0.30208 0.14583,-0.30208 0.85416,0 0.85416,-0.30208 0,-0.13542 -0.32291,-0.51042 l -2.30208,-2.64583 q -0.16667,-0.1875 -0.375,-0.25 -0.19792,-0.0729 -0.35417,-0.0729 -0.15625,0 -0.25,0.0833 -0.0937,0.0833 -0.0937,0.36458 v 2.52083 q 0,0.8125 1.23959,0.8125 0.14583,0 0.14583,0.30208 0,0.29167 -0.14583,0.29167 -1.08334,-0.0833 -2.0625,-0.0833 -0.97917,0 -1.96875,0.0833 -0.14583,0 -0.14583,-0.29167 0.0104,-0.30208 0.14583,-0.30208 1.19792,0 1.19792,-0.8125 V 334.8256 q 0,-1.4375 -0.95834,-1.4375 -0.1875,0 -0.1875,-0.29166 0.0104,-0.29167 0.1875,-0.29167 0.34375,0 1.01042,-0.35416 0.67708,-0.35417 1.02083,-0.61459 0.34375,-0.26041 0.45833,-0.26041 0.125,0 0.125,0.16666 -0.0625,1.09375 -0.0625,1.72917 v 8.15623 q 0,0.44792 0.47917,0.44792 0.47917,0 0.69792,-0.23958 z m 3.93749,3.07291 q 0,-1.75 1.30208,-3.17708 1.30208,-1.42708 3.11458,-1.42708 1.81249,0 3.07291,1.41666 1.26041,1.4375 1.26041,3.27083 0,1.83333 -1.15624,3.22916 -1.15625,1.38542 -3.09375,1.38542 -1.9375,0 -3.21874,-1.46875 -1.28125,-1.47916 -1.28125,-3.22916 z m 1.69791,0.0625 q 0,1.85416 0.84375,2.90624 0.85417,1.04167 1.83333,1.04167 0.97917,0 1.83333,-1.05208 0.84375,-1.0625 0.84375,-2.89583 0,-1.83333 -0.83333,-2.9375 -0.82292,-1.11458 -1.82292,-1.11458 -0.99999,0 -1.85416,1.10417 -0.84375,1.09375 -0.84375,2.94791 z m 15.04165,-6.54166 q 0,-1.49999 1.14583,-2.48958 1.15625,-0.99999 2.89583,-0.99999 1.08333,0 1.97916,0.21874 0.90625,0.20834 1.04167,0.20834 0.13541,0 0.16666,-0.0104 0.29167,1.05208 0.39583,2.6875 0.0104,0.19791 -0.33333,0.25 -0.34375,0.0417 -0.38541,-0.14584 -0.21875,-1.14583 -0.97917,-1.82291 -0.75,-0.6875 -2.13541,-0.6875 -1.04167,0 -1.6875,0.69792 -0.64583,0.6875 -0.64583,1.62499 -0.0104,2.42708 3.07291,3.05208 3.87499,0.78125 3.87499,4.29166 0,1.97917 -1.14583,3.16666 -1.13541,1.17709 -2.91666,1.17709 -1.25,0 -2,-0.21875 -0.73958,-0.21875 -1.92708,-0.82292 -0.51041,-1.61458 -0.51041,-2.84375 0,-0.11458 0.0208,-0.19791 0.0417,-0.1875 0.36458,-0.1875 0.32292,0 0.33334,0.0937 0.0937,1.34375 1.15624,2.37499 1.07292,1.02084 2.86458,1.02084 0.95833,0 1.63542,-0.75 0.6875,-0.75 0.6875,-1.91667 0,-2.45833 -2.75,-3.08332 -4.20833,-0.97917 -4.21874,-4.6875 z m 10.30206,6.47916 q 0,-1.75 1.30208,-3.17708 1.30209,-1.42708 3.11458,-1.42708 1.8125,0 3.07291,1.41666 1.26042,1.4375 1.26042,3.27083 0,1.83333 -1.15625,3.22916 -1.15625,1.38542 -3.09374,1.38542 -1.9375,0 -3.21875,-1.46875 -1.28125,-1.47916 -1.28125,-3.22916 z m 1.69792,0.0625 q 0,1.85416 0.84375,2.90624 0.85416,1.04167 1.83333,1.04167 0.97916,0 1.83333,-1.05208 0.84375,-1.0625 0.84375,-2.89583 0,-1.83333 -0.83334,-2.9375 -0.82291,-1.11458 -1.82291,-1.11458 -1,0 -1.85416,1.10417 -0.84375,1.09375 -0.84375,2.94791 z m 11.47914,3.07291 q 0,0.8125 1.23958,0.8125 0.14584,0 0.14584,0.30208 0,0.29167 -0.14584,0.29167 -0.80208,-0.0833 -2.01041,-0.0833 -1.19792,0 -2.04166,0.0833 -0.14584,0 -0.14584,-0.29167 0,-0.30208 0.14584,-0.30208 1.21874,0 1.21874,-0.8125 v -10.87498 q 0,-1.45833 -0.95833,-1.45833 -0.17708,0 -0.17708,-0.28125 0,-0.29167 0.17708,-0.29167 0.47917,0 1.71875,-0.77083 0.35417,-0.21875 0.52083,-0.34375 0.16667,-0.125 0.27084,-0.125 0.10416,0 0.10416,0.15625 -0.0625,0.59375 -0.0625,1.01041 z m 12.28124,1 q -0.29167,0.0312 -1.42709,0.29167 -1.12499,0.25 -1.42708,0.36458 -0.0312,0.0104 -0.0729,0.0104 -0.16667,0 -0.16667,-0.46875 v -0.46875 q 0,-0.25 -0.125,-0.25 -0.11458,0 -0.28125,0.15625 -0.98958,0.92708 -2.43749,0.92708 -1.09375,0 -1.92709,-1.10417 -0.83333,-1.10416 -0.83333,-2.27083 v -3.48957 q 0,-1.53125 -1.15625,-1.53125 -0.15625,0 -0.15625,-0.29167 0,-0.29166 0.15625,-0.29166 1.09375,0 1.76042,-0.0937 0.67708,-0.0937 0.875,-0.0937 0.20833,0 0.19791,0.16666 -0.0833,1.28125 -0.0833,1.58333 v 3.69791 q 0,1.19792 0.40625,1.95833 0.41667,0.75 1.27083,0.75 0.91667,0 1.625,-0.54166 0.70833,-0.54167 0.70833,-1.3125 v -3.99999 q 0,-1.53125 -1.15625,-1.53125 -0.15625,0 -0.15625,-0.29167 0,-0.29166 0.15625,-0.29166 1.28125,0 1.875,-0.0937 0.60417,-0.0937 0.72917,-0.0937 0.22916,0 0.20833,0.28125 -0.0625,0.90624 -0.0625,1.44791 v 4.83333 q 0,1.61458 0.85416,1.51041 l 0.48959,-0.0625 q 0.17708,-0.0208 0.22916,0.28125 0.0104,0.0833 0.0104,0.15625 0,0.14583 -0.0833,0.15625 z m 2.29167,-1.89583 v -5.28124 q 0,-0.41667 -0.41667,-0.41667 h -0.76042 q -0.14583,0 -0.14583,-0.23958 0,-0.23958 0.14583,-0.23958 0.46875,0 0.96875,-0.36459 0.5,-0.375 0.83333,-0.8125 0.33334,-0.44791 0.5,-0.85416 0.0417,-0.0937 0.14584,-0.0937 0.10416,0 0.20833,0.0521 0.11458,0.0521 0.11458,0.14584 v 1.02083 q 0,0.44791 0.42709,0.44791 h 2.54166 q 0.14583,0 0.14583,0.46875 0,0.46875 -0.14583,0.46875 h -2.54166 q -0.42709,0 -0.42709,0.41667 v 4.19791 q 0,1.36458 0.38542,1.94791 0.39583,0.58333 1.30208,0.58333 0.54167,0 1.125,-0.40625 0.14583,-0.10416 0.21875,0.0417 0.0833,0.14583 0.0833,0.21875 0,0.0729 -0.0208,0.10417 -0.875,1.05208 -2.29166,1.05208 -1.30209,0 -1.85417,-0.5625 -0.54166,-0.57292 -0.54166,-1.89583 z m 9.87497,2.30208 q -0.79166,-0.0833 -1.94791,-0.0833 -1.15625,0 -2,0.0833 -0.14583,0 -0.14583,-0.29167 0,-0.30208 0.14583,-0.30208 1.17708,0 1.17708,-0.8125 v -4.62499 q 0,-1.4375 -0.95833,-1.4375 -0.17708,0 -0.17708,-0.29167 0,-0.29166 0.17708,-0.29166 0.34375,0 1.01042,-0.35417 0.67708,-0.35416 1.02083,-0.61458 0.34375,-0.26042 0.45833,-0.26042 0.125,0 0.125,0.16667 -0.0625,1.125 -0.0625,1.72916 v 5.97916 q 0,0.8125 1.17708,0.8125 0.14583,0 0.14583,0.30208 0,0.29167 -0.14583,0.29167 z m -2.19791,-13.23956 q 0.46875,0 0.80208,0.32291 0.33333,0.3125 0.33333,0.78125 0,0.46875 -0.33333,0.80208 -0.33333,0.33334 -0.80208,0.33334 -0.46875,0 -0.79167,-0.33334 -0.3125,-0.33333 -0.3125,-0.80208 0,-0.46875 0.3125,-0.78125 0.32292,-0.32291 0.79167,-0.32291 z m 3.45833,8.6979 q 0,-1.75 1.30209,-3.17708 1.30208,-1.42708 3.11457,-1.42708 1.8125,0 3.07292,1.41666 1.26041,1.4375 1.26041,3.27083 0,1.83333 -1.15625,3.22916 -1.15625,1.38542 -3.09374,1.38542 -1.9375,0 -3.21875,-1.46875 -1.28125,-1.47916 -1.28125,-3.22916 z m 1.69792,0.0625 q 0,1.85416 0.84375,2.90624 0.85416,1.04167 1.83333,1.04167 0.97916,0 1.83333,-1.05208 0.84375,-1.0625 0.84375,-2.89583 0,-1.83333 -0.83334,-2.9375 -0.82291,-1.11458 -1.82291,-1.11458 -1,0 -1.85416,1.10417 -0.84375,1.09375 -0.84375,2.94791 z m 17.12497,3.07291 q 0,0.8125 1.19791,0.8125 0.14583,0 0.14583,0.30208 0,0.29167 -0.14583,0.29167 -0.80208,-0.0833 -1.95833,-0.0833 -1.14583,0 -1.97916,0.0833 -0.14584,0 -0.14584,-0.29167 0,-0.30208 0.14584,-0.30208 1.14583,0 1.14583,-0.8125 v -4.19791 q 0,-0.875 -0.15625,-1.47916 -0.14583,-0.61459 -0.46875,-0.86459 -0.32292,-0.26041 -1.13541,-0.26041 -0.4375,0 -0.79167,0.17708 -0.35417,0.17708 -0.69792,0.42708 -0.33333,0.23959 -0.57291,0.60417 -0.22917,0.35417 -0.22917,0.77083 v 4.82291 q 0,0.8125 1.11458,0.8125 0.14584,0 0.14584,0.30208 0,0.29167 -0.14584,0.29167 -0.80208,-0.0833 -1.94791,-0.0833 -1.13541,0 -1.95833,0.0833 -0.14583,0 -0.14583,-0.29167 0,-0.30208 0.14583,-0.30208 1.19791,0 1.19791,-0.8125 v -4.65624 q 0,-1.33333 -0.87499,-1.33333 -0.17709,0 -0.17709,-0.29167 0,-0.29167 0.17709,-0.29167 0.39583,0 0.90624,-0.31249 0.52084,-0.3125 0.90625,-0.64584 0.38542,-0.34375 0.54167,-0.34375 0.14583,0 0.13542,0.32292 l -0.0208,0.76042 q -0.0104,0.21874 0.14584,0.21874 0.0833,0 0.15625,-0.0625 1.11458,-1.10416 2.69791,-1.10416 1.54166,0 2.30208,1.53125 0.34375,0.6875 0.34375,2.58333 z m 8.56248,-1.23958 q 0,0.84375 -0.4375,1.51041 -0.4375,0.65625 -1.19792,0.98959 -0.76041,0.32291 -1.60416,0.32291 -1.625,0 -2.5,-0.625 -0.20833,-0.65625 -0.20833,-1.79166 v -0.46875 q 0,-0.15625 0.23958,-0.15625 0.25,0 0.27083,0.15625 0.0521,0.40625 0.67709,1.3125 0.625,0.90625 1.86458,0.90625 0.61458,0 1.14583,-0.38542 0.53125,-0.38542 0.53125,-1.11458 0,-0.72917 -0.44792,-1.16667 -0.44791,-0.44791 -1.59375,-0.75 -1.14583,-0.31249 -1.84374,-0.98958 -0.69792,-0.67708 -0.69792,-1.71874 0,-1.0625 0.875,-1.79167 0.875,-0.73958 2.21875,-0.73958 1.34374,0 2.15624,0.375 0.32292,0.875 0.32292,1.77083 v 0.11458 q 0,0.14584 -0.22917,0.14584 -0.22916,0 -0.26041,-0.14584 -0.10417,-0.5625 -0.70834,-1.09375 -0.59374,-0.53124 -1.39583,-0.53124 -0.80208,0 -1.29166,0.39583 -0.48958,0.38541 -0.48958,1.05208 0,0.625 0.34375,0.97917 0.35416,0.34374 1.73958,0.74999 1.38541,0.39584 1.94791,1.01042 0.57292,0.60416 0.57292,1.67708 z"
       id="text1-5"
       style="font-size:21.3333px;font-family:Junicode, Junicode_MSFontService, sans-serif"
       aria-label="Savchenko Solutions" />
    <text
       font-family="Junicode, Junicode_MSFontService, sans-serif"
       font-weight="400"
       font-size="21px"
       transform="translate(292.933,376)"
       id="text2" />
    <text
       font-family="Junicode, Junicode_MSFontService, sans-serif"
       font-weight="400"
       font-size="21px"
       transform="translate(408.767,376)"
       id="text3" />
    <text
       font-family="Junicode, Junicode_MSFontService, sans-serif"
       font-weight="400"
       font-size="21px"
       transform="translate(479.933,376)"
       id="text4" />
    <text
       font-family="Junicode, Junicode_MSFontService, sans-serif"
       font-weight="400"
       font-size="21px"
       transform="translate(488.6,376)"
       id="text5" />
  </g>
</svg>
