<?xml version="1.0" encoding="UTF-8" standalone="no"?>
<svg
   viewBox="0 0 170 18"
   version="1.1"
   id="svg1"
   sodipodi:docname="savchenko-wordmark-ru-white.svg"
   width="170"
   height="18"
   inkscape:version="1.3.2 (091e20e, 2023-11-25, custom)"
   inkscape:export-filename="savchenko-wordmark-en.svg"
   inkscape:export-xdpi="96"
   inkscape:export-ydpi="96"
   xml:space="preserve"
   xmlns:inkscape="http://www.inkscape.org/namespaces/inkscape"
   xmlns:sodipodi="http://sodipodi.sourceforge.net/DTD/sodipodi-0.dtd"
   xmlns="http://www.w3.org/2000/svg"
   xmlns:svg="http://www.w3.org/2000/svg"><defs
     id="defs1" /><sodipodi:namedview
     id="namedview1"
     pagecolor="#ffffff"
     bordercolor="#000000"
     borderopacity="0.25"
     inkscape:showpageshadow="2"
     inkscape:pageopacity="0.0"
     inkscape:pagecheckerboard="0"
     inkscape:deskcolor="#d1d1d1"
     inkscape:zoom="2.8284271"
     inkscape:cx="96.87363"
     inkscape:cy="4.7729708"
     inkscape:window-width="1920"
     inkscape:window-height="974"
     inkscape:window-x="-11"
     inkscape:window-y="-11"
     inkscape:window-maximized="1"
     inkscape:current-layer="g5" /><g
     transform="translate(-315.50789,-330.57563)"
     id="g5"><text
       font-family="Junicode, Junicode_MSFontService, sans-serif"
       font-weight="400"
       font-size="21px"
       transform="translate(292.933,376)"
       id="text2" /><text
       font-family="Junicode, Junicode_MSFontService, sans-serif"
       font-weight="400"
       font-size="21px"
       transform="translate(408.767,376)"
       id="text3" /><text
       font-family="Junicode, Junicode_MSFontService, sans-serif"
       font-weight="400"
       font-size="21px"
       transform="translate(479.933,376)"
       id="text4" /><text
       font-family="Junicode, Junicode_MSFontService, sans-serif"
       font-weight="400"
       font-size="21px"
       transform="translate(488.6,376)"
       id="text5" /><g
       style="overflow:hidden;fill:#ffffff"
       id="g1"
       transform="matrix(0.09152463,0,0,0.09152463,302.16012,321.72638)"><g
         transform="translate(-1967,-524)"
         id="g2"
         style="fill:#ffffff"><path
           d="m 45.654297,-27.177734 q 0,6.33789 0.644531,10.097656 0.751953,3.759765 2.148438,6.015625 1.503906,2.1484374 3.974609,3.4374999 2.470703,1.1816406 7.734375,2.3632812 V 0 H 12.998047 v -5.2636719 q 6.660156,-1.71875 8.916015,-3.7597656 2.25586,-2.1484375 2.900391,-6.0156255 0.751953,-3.867187 0.751953,-11.816406 v -92.919921 q 0,-7.41211 -0.537109,-10.74219 -0.53711,-3.4375 -1.826172,-5.26367 -1.181641,-1.93359 -3.222656,-3.00781 -2.041016,-1.18164 -6.982422,-2.57813 v -5.26367 h 53.28125 q 25.136719,0 37.382813,9.66797 12.35352,9.56055 12.35352,29.21875 0,11.171874 -3.86719,20.08789 -3.86719,8.916016 -10.95703,14.609375 -7.089848,5.693359 -16.757816,8.164063 -9.667969,2.470703 -20.302735,2.470703 -11.923828,0 -18.476562,-0.429688 z m 0,-44.580078 h 12.460937 q 12.138672,0 19.980469,-3.115235 7.949219,-3.222656 12.138672,-10.527344 4.189453,-7.412109 4.189453,-19.550779 0,-9.23828 -2.470703,-15.36133 -2.470703,-6.23047 -6.875,-9.99023 -4.296875,-3.75977 -10.3125,-5.26368 -6.015625,-1.61132 -13.105469,-1.61132 -10.634765,0 -16.005859,0.42968 z m 171.337893,53.496093 q -6.875,7.197266 -12.67578,11.2792971 -5.69336,4.0820313 -12.56836,6.44531253 -6.875,2.25585937 -15.14649,2.25585937 -22.1289,0 -33.4082,-13.212891 -11.2793,-13.320312 -11.2793,-39.208984 0,-16.005859 5.69336,-28.251953 5.80078,-12.246094 16.43555,-18.90625 10.63476,-6.660152 24.49219,-6.660152 10.84961,0 18.47656,3.4375 7.62695,3.437496 12.13867,9.453121 4.61914,5.908203 7.08984,15.039062 2.57813,9.023438 2.90039,23.632813 h -67.67578 v 1.933593 q 0,12.675782 2.79297,21.376954 2.90039,8.59375 9.34571,13.535156 6.55273,4.833984 16.97265,4.833984 8.8086,0 15.79102,-3.222656 7.08984,-3.330078 14.07226,-10.742188 z M 198.94531,-61.875 q -0.64453,-11.601562 -2.90039,-18.90625 -2.25586,-7.412109 -6.76758,-11.279297 -4.51172,-3.974609 -11.8164,-3.974609 -11.06446,0 -17.72461,8.916015 -6.55274,8.808594 -7.73438,25.244141 z M 239.44336,0 v -5.2636719 q 7.41211,-2.0410156 9.45312,-5.5859371 2.14844,-3.652344 2.14844,-12.998047 V -79.0625 q 0,-9.990234 -2.57812,-13.427734 -2.57813,-3.544922 -9.02344,-4.941407 v -5.263669 h 40.39062 v 5.263669 q -6.44531,1.396485 -8.59375,5.263672 -2.14843,3.759766 -2.14843,13.105469 v 69.8242187 h 37.70507 V -79.0625 q 0,-10.205078 -2.36328,-13.535156 -2.36328,-3.4375 -8.3789,-4.833985 v -5.263669 h 39.53125 v 5.263669 q -6.33789,1.503907 -8.59375,5.15625 -2.25586,3.652344 -2.25586,13.212891 v 69.8242187 h 37.70508 V -79.0625 q 0,-9.453125 -2.04102,-13.105469 -2.04102,-3.652343 -8.59375,-5.263672 v -5.263669 h 40.2832 v 5.263669 q -6.76757,1.396485 -9.13086,5.15625 -2.25586,3.652344 -2.25586,13.212891 v 55.214844 q 0,9.345703 2.04102,12.998047 2.14844,3.5449215 9.3457,5.5859371 V 0 Z m 261.03516,-18.261719 q -6.875,7.197266 -12.67579,11.2792971 -5.69336,4.0820313 -12.56836,6.44531253 -6.875,2.25585937 -15.14648,2.25585937 -22.12891,0 -33.4082,-13.212891 -11.2793,-13.320312 -11.2793,-39.208984 0,-16.005859 5.69336,-28.251953 5.80078,-12.246094 16.43555,-18.90625 10.63476,-6.660152 24.49218,-6.660152 10.84961,0 18.47657,3.4375 7.62695,3.437496 12.13867,9.453121 4.61914,5.908203 7.08984,15.039062 2.57813,9.023438 2.90039,23.632813 h -67.67578 v 1.933593 q 0,12.675782 2.79297,21.376954 2.90039,8.59375 9.3457,13.535156 6.55274,4.833984 16.97266,4.833984 8.80859,0 15.79102,-3.222656 7.08984,-3.330078 14.07226,-10.742188 z M 482.43164,-61.875 q -0.64453,-11.601562 -2.90039,-18.90625 -2.25586,-7.412109 -6.76758,-11.279297 -4.51172,-3.974609 -11.8164,-3.974609 -11.06446,0 -17.72461,8.916015 -6.55274,8.808594 -7.73438,25.244141 z M 587.91992,0 v -5.2636719 q 6.55274,-1.71875 8.91602,-4.9414061 2.4707,-3.222656 2.4707,-13.642578 v -25.029297 h -46.29883 v 25.029297 q 0,9.77539 2.36328,13.320312 2.36328,3.4375003 9.34571,5.2636721 V 0 h -41.78711 v -5.2636719 q 6.98242,-1.9335937 9.23828,-5.3710941 2.36328,-3.544922 2.36328,-13.21289 V -79.0625 q 0,-9.775391 -2.4707,-13.320312 -2.36328,-3.652344 -9.13086,-5.048829 v -5.263669 h 41.57226 v 5.263669 q -6.55273,1.396485 -9.02343,4.941407 -2.47071,3.4375 -2.47071,13.427734 v 20.625 h 46.29883 v -20.625 q 0,-10.634766 -2.68555,-13.857422 -2.57812,-3.222656 -8.70117,-4.511719 v -5.263669 h 41.46485 v 5.263669 q -6.875,1.611329 -9.23829,5.263672 -2.25586,3.544922 -2.25586,13.105469 v 55.214844 q 0,9.77539 2.36329,13.320312 2.36328,3.4375003 9.13086,5.2636721 V 0 Z m 130.625,0 v -5.2636719 q 6.33789,-1.71875 8.70117,-4.9414061 2.47071,-3.222656 2.47071,-13.642578 v -45.332031 l -47.37305,48.876953 q 0.10742,7.304687 2.36328,10.3124996 2.25586,2.9003907 8.80859,4.7265625 V 0 h -41.03515 v -5.2636719 q 6.98242,-1.9335937 9.23828,-5.3710941 2.36328,-3.544922 2.36328,-13.21289 V -79.0625 q 0,-9.775391 -2.4707,-13.320312 -2.36328,-3.652344 -9.13086,-5.048829 v -5.263669 h 41.03515 v 5.263669 q -6.55273,1.396485 -9.02343,4.941407 -2.36328,3.544922 -2.36328,13.427734 v 44.580078 l 47.1582,-48.984375 q -0.10742,-12.246094 -11.17188,-13.964844 v -5.263669 h 41.03516 v 5.263669 q -6.55273,1.396485 -9.02344,4.941407 -2.4707,3.4375 -2.4707,13.427734 v 55.214844 q 0,9.77539 2.36328,13.320312 2.36328,3.4375003 9.13086,5.2636721 V 0 Z m 116.55274,0 v -5.2636719 q 6.23046,-1.8261718 8.59375,-5.1562501 2.36328,-3.330078 2.36328,-16.328125 v -18.36914 h -7.62696 q -10.09765,0 -15.57617,3.544921 -5.37109,3.4375 -8.27148,10.957032 l -9.99024,25.3515621 V 0 h -31.25976 v -5.2636719 q 7.41211,-1.1816406 10.74219,-4.6191406 3.33007,-3.5449215 6.66015,-9.9902345 l 4.4043,-8.05664 q 6.98242,-12.783204 17.1875,-17.402344 v -0.859375 q -27.82227,-5.585938 -27.82227,-28.03711 0,-14.287109 11.17188,-21.376953 11.17187,-7.089841 37.70508,-7.089841 h 42.32421 v 5.263669 q -6.66015,1.396485 -9.02343,5.048829 -2.25586,3.652343 -2.25586,13.320312 v 52.314453 q 0,12.353516 1.82617,15.791016 1.93359,3.3300779 9.66797,5.6933591 V 0 Z m 10.95703,-93.994141 q -7.41211,-0.429687 -14.93164,-0.429687 -26.96289,0 -26.96289,21.054687 0,8.808594 5.04882,14.501954 5.15625,5.585937 23.95508,5.585937 h 12.89063 z"
           id="text1"
           style="font-size:220px;font-family:Cambria, Cambria_MSFontService, sans-serif;fill:#ffffff"
           transform="translate(2099.84,804)"
           aria-label="Решения" /><path
           d="m 111.93359,-143.51562 v 29.75585 h -10.63476 q -2.578127,-9.3457 -6.552736,-14.82421 -3.97461,-5.58594 -9.238282,-7.94922 -5.263671,-2.36328 -12.675781,-2.36328 -11.064453,0 -19.765625,7.41211 -8.59375,7.30468 -13.535156,22.1289 -4.941406,14.716798 -4.941406,35.664064 0,21.054687 4.082031,35.986328 4.082031,14.824219 12.03125,22.451172 7.949219,7.519531 19.550781,7.519531 8.808594,0 14.394531,-2.470703 5.585938,-2.578125 9.345704,-8.056641 3.867187,-5.478515 7.304689,-16.113281 h 10.63476 V -3.6523438 Q 101.83594,-0.96679688 91.201172,0.32226563 80.673828,1.71875 67.998047,1.71875 q -27.285156,0 -41.25,-18.476562 -13.964844,-18.476563 -13.964844,-55.107422 0,-22.988282 7.197266,-40.283206 7.304687,-17.29492 21.376953,-26.74804 14.072265,-9.45313 33.623047,-9.45313 9.77539,0 18.046875,1.07422 8.271486,0.9668 18.906246,3.75977 z m 84.32618,128.154292 -1.61133,-0.429688 q -9.34571,9.5605473 -17.61719,13.5351566 -8.16406,3.9746094 -17.40234,3.9746094 -8.16407,0 -14.39454,-3.1152344 -6.23046,-3.2226562 -9.56054,-8.9160156 -3.33008,-5.800781 -3.33008,-13.320312 0,-15.683594 15.46875,-24.169922 15.57617,-8.59375 46.62109,-9.990235 v -6.982422 q 0,-11.171875 -2.14843,-17.617187 -2.14844,-6.445313 -6.76758,-9.453125 -4.61914,-3.007813 -12.35352,-3.007813 -8.3789,0 -13.53515,4.404297 -5.04883,4.404297 -7.62696,13.212891 h -14.07226 v -13.964844 q 10.3125,-5.371094 17.1875,-7.841797 6.875,-2.578121 13.75,-3.974611 6.875,-1.5039 13.96484,-1.5039 10.63477,0 17.08008,3.4375 6.44531,3.330074 9.66797,10.312496 3.22265,6.982422 3.22265,21.054687 v 37.382813 q 0,7.949218 0.10743,11.279297 0.10742,3.222656 0.64453,6.015624 0.53711,2.792969 1.61133,4.511719 1.07421,1.6113284 3.11523,2.792969 2.14844,1.1816406 6.875,2.4707031 V 0 h -29.43359 z m -1.82618,-33.623047 q -21.80664,0.214844 -32.65625,5.800781 -10.84961,5.585938 -10.84961,16.865235 0,6.123047 2.47071,9.667968 2.4707,3.544922 6.23047,4.941407 3.75976,1.289062 8.91601,1.289062 7.30469,0 13.21289,-3.544922 6.01563,-3.544922 9.34571,-9.023437 3.33007,-5.478516 3.33007,-10.84961 z M 242.55859,0 v -5.2636719 q 6.98243,-1.9335937 9.23828,-5.3710941 2.36329,-3.544922 2.36329,-13.21289 v -55.107422 q 0,-10.419922 -2.57813,-13.75 -2.57812,-3.4375 -9.02344,-4.726563 v -5.263669 h 46.94336 q 21.80664,0 31.58203,5.800779 9.88282,5.693359 9.88282,18.798828 0,15.576172 -19.44336,23.310547 v 1.074219 q 22.55859,5.908203 22.55859,25.24414 0,13.75 -9.88281,21.1621095 Q 314.31641,0 289.7168,0 Z m 30.07813,-94.423828 v 36.738281 h 13.10547 q 14.50195,0 19.98047,-4.833984 5.58593,-4.833985 5.58593,-14.072266 0,-9.560547 -5.9082,-13.857422 -5.80078,-4.404297 -20.30273,-4.404297 z m 0,44.794922 V -8.59375 q 5.58594,0.4296875 13.96484,0.4296875 15.79102,0 21.69922,-5.3710935 6.01563,-5.478516 6.01563,-15.576172 0,-10.097656 -5.90821,-15.253906 -5.80078,-5.263672 -20.51758,-5.263672 z M 409.59961,0 v -5.2636719 q 6.98242,-1.6113281 9.3457,-5.1562501 2.47071,-3.544922 2.47071,-13.427734 v -21.914063 q -14.50196,2.900391 -27.82227,2.900391 -16.43555,0 -24.16992,-7.197266 -7.62696,-7.197265 -7.62696,-22.666015 V -79.0625 q 0,-9.775391 -2.25585,-13.212891 -2.25586,-3.4375 -8.70118,-5.15625 v -5.263669 h 40.39063 v 5.263669 q -6.55274,1.396485 -9.02344,4.726563 -2.4707,3.330078 -2.4707,13.212891 v 7.626953 q 0,10.3125 4.61914,15.039062 4.72656,4.726563 16.65039,4.726563 9.23828,0 20.41016,-2.792969 v -24.599609 q 0,-10.742188 -2.68555,-13.75 -2.68555,-3.007813 -8.70117,-4.189454 v -5.263669 h 41.46484 v 5.263669 q -6.66016,1.396485 -9.23828,5.048829 -2.4707,3.652343 -2.4707,13.320312 v 55.214844 q 0,10.097656 2.4707,13.427734 2.57812,3.3300783 9.23828,5.1562501 V 0 Z m 149.85351,-18.261719 q -6.875,7.197266 -12.67578,11.2792971 -5.69336,4.0820313 -12.56836,6.44531253 -6.875,2.25585937 -15.14648,2.25585937 -22.12891,0 -33.4082,-13.212891 -11.2793,-13.320312 -11.2793,-39.208984 0,-16.005859 5.69336,-28.251953 5.80078,-12.246094 16.43555,-18.90625 10.63476,-6.660152 24.49218,-6.660152 10.84961,0 18.47657,3.4375 7.62695,3.437496 12.13867,9.453121 4.61914,5.908203 7.08984,15.039062 2.57813,9.023438 2.90039,23.632813 h -67.67578 v 1.933593 q 0,12.675782 2.79297,21.376954 2.90039,8.59375 9.3457,13.535156 6.55274,4.833984 16.97266,4.833984 8.80859,0 15.79101,-3.222656 7.08985,-3.330078 14.07227,-10.742188 z M 541.40625,-61.875 q -0.64453,-11.601562 -2.90039,-18.90625 -2.25586,-7.412109 -6.76758,-11.279297 -4.51172,-3.974609 -11.81641,-3.974609 -11.06445,0 -17.7246,8.916015 -6.55274,8.808594 -7.73438,25.244141 z M 646.89453,0 v -5.2636719 q 6.55274,-1.71875 8.91602,-4.9414061 2.4707,-3.222656 2.4707,-13.642578 v -25.029297 h -46.29883 v 25.029297 q 0,9.77539 2.36328,13.320312 2.36328,3.4375003 9.34571,5.2636721 V 0 H 581.9043 v -5.2636719 q 6.98242,-1.9335937 9.23828,-5.3710941 2.36328,-3.544922 2.36328,-13.21289 V -79.0625 q 0,-9.775391 -2.4707,-13.320312 -2.36329,-3.652344 -9.13086,-5.048829 v -5.263669 h 41.57226 v 5.263669 q -6.55273,1.396485 -9.02344,4.941407 -2.4707,3.4375 -2.4707,13.427734 v 20.625 h 46.29883 v -20.625 q 0,-10.634766 -2.68555,-13.857422 -2.57812,-3.222656 -8.70117,-4.511719 v -5.263669 h 41.46484 v 5.263669 q -6.875,1.611329 -9.23828,5.263672 -2.25586,3.544922 -2.25586,13.105469 v 55.214844 q 0,9.77539 2.36329,13.320312 2.36328,3.4375003 9.13085,5.2636721 V 0 Z M 782.35352,0 V -5.2636719 L 770.64453,-33.408203 q -4.18945,-10.097656 -9.13086,-12.783203 -4.9414,-2.685547 -12.13867,-2.685547 h -7.73438 v 22.021484 q 0,13.75 2.36329,16.650391 2.36328,2.9003905 9.3457,4.9414061 V 0 h -41.35742 v -5.2636719 q 7.30468,-2.0410156 9.23828,-5.8007811 1.93359,-3.867188 1.93359,-15.791016 v -52.314453 q 0,-9.453125 -2.36328,-13.105469 -2.25586,-3.759765 -9.3457,-5.15625 v -5.263669 h 41.89453 v 5.263669 q -6.55274,1.396485 -9.13086,4.941407 -2.57813,3.544922 -2.57813,13.320312 v 22.236328 h 7.73438 q 6.98242,0 11.17187,-4.189453 4.29688,-4.296875 9.66797,-17.832031 5.47852,-13.535156 11.49414,-19.658203 6.01563,-6.123049 19.98047,-6.123049 4.61914,0 10.52735,1.50391 v 20.947264 h -9.66797 q -1.39649,-6.767578 -7.19727,-6.767578 -4.51172,0 -7.30469,2.470703 -2.79296,2.470703 -6.76757,11.386719 -7.51953,16.972656 -14.82422,20.410156 v 0.644531 q 15.46875,3.867188 22.88086,18.261719 L 797.5,-19.980469 q 3.86719,7.519531 7.30469,10.6347659 3.54492,3.0078125 10.09765,4.0820312 V 0 Z m 91.73828,1.71875 q -22.34375,0 -34.16016,-13.105469 -11.70898,-13.21289 -11.70898,-38.99414 0,-17.72461 6.12304,-29.970703 6.23047,-12.246094 16.97266,-18.154297 10.74219,-6.015621 24.49219,-6.015621 22.98828,0 34.80468,13.42773 11.81641,13.320313 11.81641,38.349609 0,17.832032 -5.9082,30.078125 -5.90821,12.246094 -16.75782,18.369141 -10.8496,6.015625 -25.67382,6.015625 z m -25.56641,-54.355469 q 0,22.128907 6.98242,34.052735 7.08985,11.8164059 20.19531,11.8164059 7.19727,0 12.2461,-3.4374999 5.04883,-3.544922 8.16406,-9.453125 3.22266,-5.908203 4.61914,-13.642578 1.39649,-7.841797 1.39649,-16.328125 0,-15.791016 -3.54493,-26.210938 -3.4375,-10.419922 -9.45312,-15.253906 -6.01563,-4.941406 -13.75,-4.941406 -12.99805,0 -19.98047,11.279297 -6.875,11.279297 -6.875,32.11914 z"
           id="text2-8"
           style="font-size:220px;font-family:Cambria, Cambria_MSFontService, sans-serif;fill:#ffffff"
           transform="translate(3047.83,804)"
           aria-label="Савченко" /></g></g></g></svg>
